<svg width="1920" height="575" viewBox="0 0 1920 575" fill="none" xmlns="http://www.w3.org/2000/svg">
<g clip-path="url(#clip0_1_23680)">
<rect width="1920" height="575" fill="white"/>
<line y1="-0.5" x2="1767.5" y2="-0.5" transform="matrix(0.892278 0.451486 -0.482256 0.87603 521.9 -510)" stroke="black" stroke-opacity="0.08"/>
<line y1="-0.5" x2="1767.5" y2="-0.5" transform="matrix(0.892278 0.451486 -0.482256 0.87603 493.738 -462)" stroke="black" stroke-opacity="0.08"/>
<line y1="-0.5" x2="1767.5" y2="-0.5" transform="matrix(0.892278 0.451486 -0.482256 0.87603 465.575 -414)" stroke="black" stroke-opacity="0.08"/>
<line y1="-0.5" x2="1767.5" y2="-0.5" transform="matrix(0.892278 0.451486 -0.482256 0.87603 437.413 -366)" stroke="black" stroke-opacity="0.08"/>
<line y1="-0.5" x2="1767.5" y2="-0.5" transform="matrix(0.892278 0.451486 -0.482256 0.87603 409.25 -318)" stroke="black" stroke-opacity="0.08"/>
<line y1="-0.5" x2="1767.5" y2="-0.5" transform="matrix(0.892278 0.451486 -0.482256 0.87603 381.087 -270)" stroke="black" stroke-opacity="0.08"/>
<line y1="-0.5" x2="1767.5" y2="-0.5" transform="matrix(0.892278 0.451486 -0.482256 0.87603 352.925 -222)" stroke="black" stroke-opacity="0.08"/>
<line y1="-0.5" x2="1767.5" y2="-0.5" transform="matrix(0.892278 0.451486 -0.482256 0.87603 324.762 -174)" stroke="black" stroke-opacity="0.08"/>
<line y1="-0.5" x2="1767.5" y2="-0.5" transform="matrix(0.892278 0.451486 -0.482256 0.87603 296.6 -126)" stroke="black" stroke-opacity="0.08"/>
<line y1="-0.5" x2="1767.5" y2="-0.5" transform="matrix(0.892278 0.451486 -0.482256 0.87603 268.438 -78)" stroke="black" stroke-opacity="0.08"/>
<line y1="-0.5" x2="1767.5" y2="-0.5" transform="matrix(0.892278 0.451486 -0.482256 0.87603 240.275 -30)" stroke="black" stroke-opacity="0.08"/>
<line y1="-0.5" x2="1767.5" y2="-0.5" transform="matrix(0.892278 0.451486 -0.482256 0.87603 212.113 18)" stroke="black" stroke-opacity="0.08"/>
<line y1="-0.5" x2="1767.5" y2="-0.5" transform="matrix(0.892278 0.451486 -0.482256 0.87603 183.95 66)" stroke="black" stroke-opacity="0.08"/>
<line y1="-0.5" x2="1767.5" y2="-0.5" transform="matrix(0.892278 0.451486 -0.482256 0.87603 155.788 114)" stroke="black" stroke-opacity="0.08"/>
<line y1="-0.5" x2="1767.5" y2="-0.5" transform="matrix(0.892278 0.451486 -0.482256 0.87603 127.625 162)" stroke="black" stroke-opacity="0.08"/>
<line y1="-0.5" x2="1767.5" y2="-0.5" transform="matrix(0.892278 0.451486 -0.482256 0.87603 99.4624 210)" stroke="black" stroke-opacity="0.08"/>
<line y1="-0.5" x2="1767.5" y2="-0.5" transform="matrix(0.892278 0.451486 -0.482256 0.87603 71.3003 258)" stroke="black" stroke-opacity="0.08"/>
<line y1="-0.5" x2="1767.5" y2="-0.5" transform="matrix(0.892278 0.451486 -0.482256 0.87603 43.1372 306)" stroke="black" stroke-opacity="0.08"/>
<line y1="-0.5" x2="1767.5" y2="-0.5" transform="matrix(0.892278 0.451486 -0.482256 0.87603 14.9751 354)" stroke="black" stroke-opacity="0.08"/>
<line y1="-0.5" x2="1767.5" y2="-0.5" transform="matrix(0.892278 0.451486 -0.482256 0.87603 -13.1875 402)" stroke="black" stroke-opacity="0.08"/>
<line y1="-0.5" x2="1767.5" y2="-0.5" transform="matrix(0.892278 0.451486 -0.482256 0.87603 -41.3501 450)" stroke="black" stroke-opacity="0.08"/>
<line y1="-0.5" x2="1767.5" y2="-0.5" transform="matrix(0.892278 0.451486 -0.482256 0.87603 -69.5122 498)" stroke="black" stroke-opacity="0.08"/>
<line y1="-0.5" x2="1767.5" y2="-0.5" transform="matrix(0.892278 0.451486 -0.482256 0.87603 -97.6753 546)" stroke="black" stroke-opacity="0.08"/>
</g>
<defs>
<clipPath id="clip0_1_23680">
<rect width="1920" height="575" fill="white"/>
</clipPath>
</defs>
</svg>
