<svg width="1920" height="575" viewBox="0 0 1920 575" fill="none" xmlns="http://www.w3.org/2000/svg">
<g clip-path="url(#clip0_202_1318)">
<rect width="1920" height="575" fill="white"/>
<g clip-path="url(#clip1_202_1318)">
<rect width="2734.75" height="819" transform="translate(-516 -190)" fill="white"/>
<line y1="-0.712174" x2="2517.53" y2="-0.712174" transform="matrix(0.892278 0.451486 -0.482256 0.87603 251.716 -805)" stroke="black" stroke-opacity="0.08" stroke-width="1.42435"/>
<line y1="-0.712174" x2="2517.53" y2="-0.712174" transform="matrix(0.892278 0.451486 -0.482256 0.87603 211.604 -759.371)" stroke="black" stroke-opacity="0.08" stroke-width="1.42435"/>
<line y1="-0.712174" x2="2517.53" y2="-0.712174" transform="matrix(0.892278 0.451486 -0.482256 0.87603 171.49 -713.741)" stroke="black" stroke-opacity="0.08" stroke-width="1.42435"/>
<line y1="-0.712174" x2="2517.53" y2="-0.712174" transform="matrix(0.892278 0.451486 -0.482256 0.87603 131.377 -668.112)" stroke="black" stroke-opacity="0.08" stroke-width="1.42435"/>
<line y1="-0.712174" x2="2517.53" y2="-0.712174" transform="matrix(0.892278 0.451486 -0.482256 0.87603 91.2637 -622.482)" stroke="black" stroke-opacity="0.08" stroke-width="1.42435"/>
<line y1="-0.712174" x2="2517.53" y2="-0.712174" transform="matrix(0.892278 0.451486 -0.482256 0.87603 51.1504 -576.853)" stroke="black" stroke-opacity="0.08" stroke-width="1.42435"/>
<line y1="-0.712174" x2="2517.53" y2="-0.712174" transform="matrix(0.892278 0.451486 -0.482256 0.87603 11.0381 -531.224)" stroke="black" stroke-opacity="0.08" stroke-width="1.42435"/>
<line y1="-0.712174" x2="2517.53" y2="-0.712174" transform="matrix(0.892278 0.451486 -0.482256 0.87603 -29.0762 -485.594)" stroke="black" stroke-opacity="0.08" stroke-width="1.42435"/>
<line y1="-0.712174" x2="2517.53" y2="-0.712174" transform="matrix(0.892278 0.451486 -0.482256 0.87603 -69.189 -439.965)" stroke="black" stroke-opacity="0.08" stroke-width="1.42435"/>
<line y1="-0.712174" x2="2517.53" y2="-0.712174" transform="matrix(0.892278 0.451486 -0.482256 0.87603 -109.302 -394.335)" stroke="black" stroke-opacity="0.08" stroke-width="1.42435"/>
<line y1="-0.712174" x2="2517.53" y2="-0.712174" transform="matrix(0.892278 0.451486 -0.482256 0.87603 -149.416 -348.706)" stroke="black" stroke-opacity="0.08" stroke-width="1.42435"/>
<line y1="-0.712174" x2="2517.53" y2="-0.712174" transform="matrix(0.892278 0.451486 -0.482256 0.87603 -189.528 -303.077)" stroke="black" stroke-opacity="0.08" stroke-width="1.42435"/>
<line y1="-0.712174" x2="2517.53" y2="-0.712174" transform="matrix(0.892278 0.451486 -0.482256 0.87603 -229.643 -257.447)" stroke="black" stroke-opacity="0.08" stroke-width="1.42435"/>
<line y1="-0.712174" x2="2517.53" y2="-0.712174" transform="matrix(0.892278 0.451486 -0.482256 0.87603 -269.755 -211.818)" stroke="black" stroke-opacity="0.08" stroke-width="1.42435"/>
<line y1="-0.712174" x2="2517.53" y2="-0.712174" transform="matrix(0.892278 0.451486 -0.482256 0.87603 -309.868 -166.188)" stroke="black" stroke-opacity="0.08" stroke-width="1.42435"/>
<line y1="-0.712174" x2="2517.53" y2="-0.712174" transform="matrix(0.892278 0.451486 -0.482256 0.87603 -349.981 -120.559)" stroke="black" stroke-opacity="0.08" stroke-width="1.42435"/>
<line y1="-0.712174" x2="2517.53" y2="-0.712174" transform="matrix(0.892278 0.451486 -0.482256 0.87603 -390.094 -74.9297)" stroke="black" stroke-opacity="0.08" stroke-width="1.42435"/>
<line y1="-0.712174" x2="2517.53" y2="-0.712174" transform="matrix(0.892278 0.451486 -0.482256 0.87603 -430.208 -29.3003)" stroke="black" stroke-opacity="0.08" stroke-width="1.42435"/>
<line y1="-0.712174" x2="2517.53" y2="-0.712174" transform="matrix(0.892278 0.451486 -0.482256 0.87603 -470.321 16.3291)" stroke="black" stroke-opacity="0.08" stroke-width="1.42435"/>
<line y1="-0.712174" x2="2517.53" y2="-0.712174" transform="matrix(0.892278 0.451486 -0.482256 0.87603 -510.434 61.9585)" stroke="black" stroke-opacity="0.08" stroke-width="1.42435"/>
<line y1="-0.712174" x2="2517.53" y2="-0.712174" transform="matrix(0.892278 0.451486 -0.482256 0.87603 -550.548 107.588)" stroke="black" stroke-opacity="0.08" stroke-width="1.42435"/>
<line y1="-0.712174" x2="2517.53" y2="-0.712174" transform="matrix(0.892278 0.451486 -0.482256 0.87603 -590.66 153.217)" stroke="black" stroke-opacity="0.08" stroke-width="1.42435"/>
<line y1="-0.712174" x2="2517.53" y2="-0.712174" transform="matrix(0.892278 0.451486 -0.482256 0.87603 -630.774 198.847)" stroke="black" stroke-opacity="0.08" stroke-width="1.42435"/>
<line y1="-0.712174" x2="2517.53" y2="-0.712174" transform="matrix(0.892278 0.451486 -0.482256 0.87603 -670.887 244.476)" stroke="black" stroke-opacity="0.08" stroke-width="1.42435"/>
<line y1="-0.712174" x2="2517.53" y2="-0.712174" transform="matrix(0.892278 0.451486 -0.482256 0.87603 -711 290.105)" stroke="black" stroke-opacity="0.08" stroke-width="1.42435"/>
</g>
</g>
<defs>
<clipPath id="clip0_202_1318">
<rect width="1920" height="575" fill="white"/>
</clipPath>
<clipPath id="clip1_202_1318">
<rect width="2734.75" height="819" fill="white" transform="translate(-516 -190)"/>
</clipPath>
</defs>
</svg>
