<svg width="1512" height="814" viewBox="0 0 1512 814" fill="none" xmlns="http://www.w3.org/2000/svg">
<g clip-path="url(#clip0_202_1466)">
<rect width="1512" height="814" transform="translate(1512 814) rotate(-180)" fill="#FCF6F7"/>
<g opacity="0.08">
<mask id="mask0_202_1466" style="mask-type:alpha" maskUnits="userSpaceOnUse" x="82" y="710" width="64" height="64">
<rect x="146" y="774" width="64" height="64" transform="rotate(-180 146 774)" fill="#D9D9D9"/>
</mask>
<g mask="url(#mask0_202_1466)">
<path d="M98.1003 740L98.1003 744L88.4593 744L88.4593 740L98.1003 740ZM95.0541 722.051L102.767 727.836L100.336 731.025L92.6235 725.241L95.0541 722.051ZM100.439 753.077L102.869 756.266L95.1567 762.051L92.726 758.861L100.439 753.077ZM131.998 724.718L131.998 735.128L134.716 735.128C136.046 735.128 137.181 735.599 138.123 736.541C139.065 737.483 139.536 738.618 139.536 739.948L139.536 744.051C139.536 745.381 139.065 746.517 138.123 747.459C137.181 748.4 136.046 748.871 134.716 748.871L124.408 748.871L112.459 755.999L112.459 728L124.408 735.128L127.998 735.128L127.998 724.718L131.998 724.718ZM108.767 733.682L108.767 750.318C107.721 749.37 106.878 748.177 106.239 746.738C105.599 745.299 105.28 743.719 105.28 742C105.28 740.28 105.599 738.7 106.239 737.261C106.878 735.822 107.721 734.629 108.767 733.682ZM134.716 744.871C134.921 744.871 135.109 744.786 135.28 744.615C135.451 744.444 135.536 744.256 135.536 744.051L135.536 739.948C135.536 739.743 135.451 739.555 135.28 739.384C135.109 739.213 134.921 739.128 134.716 739.128L123.3 739.128L116.459 735.107L116.459 748.892L123.3 744.871L134.716 744.871Z" fill="black"/>
</g>
</g>
<g opacity="0.08">
<mask id="mask1_202_1466" style="mask-type:alpha" maskUnits="userSpaceOnUse" x="1395" y="686" width="64" height="64">
<rect x="1459" y="750" width="64" height="64" transform="rotate(-180 1459 750)" fill="#D9D9D9"/>
</mask>
<g mask="url(#mask1_202_1466)">
<path d="M1427 692.462C1428.35 692.462 1429.51 692.928 1430.48 693.862C1431.46 694.795 1431.99 695.935 1432.08 697.282L1421.92 697.282C1422.01 695.935 1422.54 694.795 1423.52 693.862C1424.49 692.928 1425.65 692.462 1427 692.462ZM1437 700.975L1437 704.975L1417 704.975L1417 700.975L1437 700.975ZM1436.59 708.667C1439.38 710.404 1441.59 712.673 1443.22 715.475C1444.85 718.276 1445.67 721.34 1445.67 724.667C1445.67 729.863 1443.86 734.274 1440.23 737.898C1436.61 741.522 1432.2 743.333 1427 743.333C1421.8 743.333 1417.39 741.522 1413.77 737.898C1410.15 734.274 1408.33 729.863 1408.33 724.667C1408.33 721.34 1409.15 718.276 1410.78 715.475C1412.41 712.673 1414.62 710.404 1417.41 708.667L1436.59 708.667ZM1435.4 712.667L1418.6 712.667C1416.6 714.089 1415.06 715.845 1413.97 717.934C1412.88 720.022 1412.33 722.267 1412.33 724.667C1412.33 728.756 1413.76 732.222 1416.6 735.067C1419.44 737.911 1422.91 739.334 1427 739.334C1431.09 739.334 1434.56 737.911 1437.4 735.067C1440.24 732.222 1441.67 728.756 1441.67 724.667C1441.67 722.267 1441.12 720.022 1440.03 717.934C1438.94 715.845 1437.4 714.089 1435.4 712.667Z" fill="black"/>
</g>
</g>
<g opacity="0.08">
<mask id="mask2_202_1466" style="mask-type:alpha" maskUnits="userSpaceOnUse" x="82" y="41" width="64" height="64">
<rect x="146" y="105" width="64" height="64" transform="rotate(-180 146 105)" fill="#D9D9D9"/>
</mask>
<g mask="url(#mask2_202_1466)">
<path d="M114 47.4618C115.347 47.4618 116.509 47.9285 117.485 48.8618C118.461 49.7952 118.992 50.9353 119.077 52.2823L108.923 52.2823C109.009 50.9353 109.54 49.7952 110.516 48.8618C111.492 47.9285 112.653 47.4618 114 47.4618ZM124 55.9747L124 59.9746L104 59.9746L104 55.9747L124 55.9747ZM123.59 63.667C126.383 65.4037 128.594 67.6729 130.223 70.4746C131.852 73.2763 132.667 76.3404 132.667 79.6669C132.667 84.8634 130.855 89.2737 127.231 92.8976C123.607 96.5215 119.197 98.3335 114 98.3335C108.804 98.3335 104.394 96.5215 100.77 92.8976C97.1457 89.2737 95.3338 84.8634 95.3338 79.6669C95.3338 76.3404 96.1483 73.2763 97.7774 70.4746C99.4065 67.6729 101.618 65.4037 104.411 63.667L123.59 63.667ZM122.4 67.6669L105.6 67.6669C103.6 69.0891 102.056 70.8447 100.967 72.9336C99.8782 75.0224 99.3337 77.2669 99.3337 79.6669C99.3337 83.7558 100.756 87.2224 103.6 90.0669C106.445 92.9113 109.912 94.3336 114 94.3336C118.089 94.3336 121.556 92.9113 124.4 90.0669C127.245 87.2224 128.667 83.7558 128.667 79.6669C128.667 77.2669 128.123 75.0224 127.034 72.9336C125.945 70.8447 124.4 69.0891 122.4 67.6669Z" fill="black"/>
</g>
</g>
<g opacity="0.45">
<path opacity="0.26" d="M1459 -474C1229.76 -75.1954 606.435 597.903 -53 99.8574" stroke="url(#paint0_linear_202_1466)"/>
<path opacity="0.26" d="M1459 -441.507C1229.76 -43.2419 606.435 628.945 -53 131.574" stroke="url(#paint1_linear_202_1466)"/>
<path opacity="0.26" d="M1459 -411.044C1229.76 -12.779 606.435 659.408 -53 162.037" stroke="url(#paint2_linear_202_1466)"/>
<path opacity="0.26" d="M1459 -379.566C1229.76 19.2387 606.435 692.337 -53 194.291" stroke="url(#paint3_linear_202_1466)"/>
<path opacity="0.26" d="M1459 -348.088C1229.76 50.177 606.435 722.364 -53 224.993" stroke="url(#paint4_linear_202_1466)"/>
<path opacity="0.26" d="M1459 -315.595C1229.76 83.2099 606.435 756.308 -53 258.263" stroke="url(#paint5_linear_202_1466)"/>
<path opacity="0.26" d="M1459 -284.117C1229.76 114.148 606.435 786.335 -53 288.964" stroke="url(#paint6_linear_202_1466)"/>
<path opacity="0.26" d="M1459 -252.639C1229.76 146.166 606.435 819.264 -53 321.219" stroke="url(#paint7_linear_202_1466)"/>
<path opacity="0.26" d="M1459 -221.161C1229.76 177.644 606.435 850.742 -53 352.697" stroke="url(#paint8_linear_202_1466)"/>
<path opacity="0.26" d="M1459 -189.683C1229.76 209.122 606.435 882.22 -53 384.175" stroke="url(#paint9_linear_202_1466)"/>
<path opacity="0.26" d="M1459 -159.22C1229.76 240.124 606.435 914.133 -53 415.414" stroke="url(#paint10_linear_202_1466)"/>
<path opacity="0.26" d="M1459 -126.727C1229.76 271.538 606.435 943.725 -53 446.354" stroke="url(#paint11_linear_202_1466)"/>
<path opacity="0.26" d="M1459 -93.2183C1229.76 305.047 606.435 977.234 -53 479.863" stroke="url(#paint12_linear_202_1466)"/>
<path opacity="0.26" d="M1459 -63.771C1229.76 335.034 606.435 1008.13 -53.0001 510.086" stroke="url(#paint13_linear_202_1466)"/>
<path opacity="0.26" d="M1459 -31.2773C1229.76 366.988 606.435 1039.17 -53 541.803" stroke="url(#paint14_linear_202_1466)"/>
<path opacity="0.26" d="M1459 0.200195C1229.76 398.465 606.435 1070.65 -53 573.281" stroke="url(#paint15_linear_202_1466)"/>
<path opacity="0.26" d="M1459 31.6782C1229.76 430.483 606.435 1103.58 -53 605.536" stroke="url(#paint16_linear_202_1466)"/>
<path opacity="0.26" d="M1459 63.1562C1229.76 461.421 606.435 1133.61 -53 636.237" stroke="url(#paint17_linear_202_1466)"/>
<path opacity="0.26" d="M1459 94.6343C1229.76 493.439 606.435 1166.54 -53 668.492" stroke="url(#paint18_linear_202_1466)"/>
<path opacity="0.26" d="M1459 125.097C1229.76 524.981 606.435 1199.9 -53 700.507" stroke="url(#paint19_linear_202_1466)"/>
<path opacity="0.26" d="M1459 157.59C1229.76 556.935 606.435 1230.94 -53 732.224" stroke="url(#paint20_linear_202_1466)"/>
</g>
</g>
<defs>
<linearGradient id="paint0_linear_202_1466" x1="703" y1="-474" x2="703" y2="276.394" gradientUnits="userSpaceOnUse">
<stop stop-opacity="0"/>
<stop offset="0.9999"/>
<stop offset="1"/>
</linearGradient>
<linearGradient id="paint1_linear_202_1466" x1="703" y1="-441.507" x2="703" y2="307.872" gradientUnits="userSpaceOnUse">
<stop stop-opacity="0"/>
<stop offset="0.9999"/>
<stop offset="1"/>
</linearGradient>
<linearGradient id="paint2_linear_202_1466" x1="703" y1="-411.044" x2="703" y2="338.335" gradientUnits="userSpaceOnUse">
<stop stop-opacity="0"/>
<stop offset="0.9999"/>
<stop offset="1"/>
</linearGradient>
<linearGradient id="paint3_linear_202_1466" x1="703" y1="-379.566" x2="703" y2="370.828" gradientUnits="userSpaceOnUse">
<stop stop-opacity="0"/>
<stop offset="0.9999"/>
<stop offset="1"/>
</linearGradient>
<linearGradient id="paint4_linear_202_1466" x1="703" y1="-348.088" x2="703" y2="401.291" gradientUnits="userSpaceOnUse">
<stop stop-opacity="0"/>
<stop offset="0.9999"/>
<stop offset="1"/>
</linearGradient>
<linearGradient id="paint5_linear_202_1466" x1="703" y1="-315.595" x2="703" y2="434.799" gradientUnits="userSpaceOnUse">
<stop stop-opacity="0"/>
<stop offset="0.9999"/>
<stop offset="1"/>
</linearGradient>
<linearGradient id="paint6_linear_202_1466" x1="703" y1="-284.117" x2="703" y2="465.262" gradientUnits="userSpaceOnUse">
<stop stop-opacity="0"/>
<stop offset="0.9999"/>
<stop offset="1"/>
</linearGradient>
<linearGradient id="paint7_linear_202_1466" x1="703" y1="-252.639" x2="703" y2="497.756" gradientUnits="userSpaceOnUse">
<stop stop-opacity="0"/>
<stop offset="0.9999"/>
<stop offset="1"/>
</linearGradient>
<linearGradient id="paint8_linear_202_1466" x1="703" y1="-221.161" x2="703" y2="529.234" gradientUnits="userSpaceOnUse">
<stop stop-opacity="0"/>
<stop offset="0.9999"/>
<stop offset="1"/>
</linearGradient>
<linearGradient id="paint9_linear_202_1466" x1="703" y1="-189.683" x2="703" y2="560.712" gradientUnits="userSpaceOnUse">
<stop stop-opacity="0"/>
<stop offset="0.9999"/>
<stop offset="1"/>
</linearGradient>
<linearGradient id="paint10_linear_202_1466" x1="703" y1="-159.22" x2="703" y2="592.189" gradientUnits="userSpaceOnUse">
<stop stop-opacity="0"/>
<stop offset="0.9999"/>
<stop offset="1"/>
</linearGradient>
<linearGradient id="paint11_linear_202_1466" x1="703" y1="-126.727" x2="703" y2="622.652" gradientUnits="userSpaceOnUse">
<stop stop-opacity="0"/>
<stop offset="0.9999"/>
<stop offset="1"/>
</linearGradient>
<linearGradient id="paint12_linear_202_1466" x1="703" y1="-93.2183" x2="703" y2="656.161" gradientUnits="userSpaceOnUse">
<stop stop-opacity="0"/>
<stop offset="0.9999"/>
<stop offset="1"/>
</linearGradient>
<linearGradient id="paint13_linear_202_1466" x1="703" y1="-63.7711" x2="703" y2="686.623" gradientUnits="userSpaceOnUse">
<stop stop-opacity="0"/>
<stop offset="0.5"/>
<stop offset="1"/>
</linearGradient>
<linearGradient id="paint14_linear_202_1466" x1="703" y1="-31.2774" x2="703" y2="718.101" gradientUnits="userSpaceOnUse">
<stop stop-opacity="0"/>
<stop offset="0.9999"/>
<stop offset="1"/>
</linearGradient>
<linearGradient id="paint15_linear_202_1466" x1="703" y1="0.200129" x2="703" y2="749.579" gradientUnits="userSpaceOnUse">
<stop stop-opacity="0"/>
<stop offset="0.9999"/>
<stop offset="1"/>
</linearGradient>
<linearGradient id="paint16_linear_202_1466" x1="703" y1="31.6782" x2="703" y2="782.072" gradientUnits="userSpaceOnUse">
<stop stop-opacity="0"/>
<stop offset="0.9999"/>
<stop offset="1"/>
</linearGradient>
<linearGradient id="paint17_linear_202_1466" x1="703" y1="63.1562" x2="703" y2="812.535" gradientUnits="userSpaceOnUse">
<stop stop-opacity="0"/>
<stop offset="0.9999"/>
<stop offset="1"/>
</linearGradient>
<linearGradient id="paint18_linear_202_1466" x1="703" y1="94.6342" x2="703" y2="845.028" gradientUnits="userSpaceOnUse">
<stop stop-opacity="0"/>
<stop offset="0.9999"/>
<stop offset="1"/>
</linearGradient>
<linearGradient id="paint19_linear_202_1466" x1="703" y1="125.097" x2="703" y2="877.522" gradientUnits="userSpaceOnUse">
<stop stop-opacity="0"/>
<stop offset="0.9999"/>
<stop offset="1"/>
</linearGradient>
<linearGradient id="paint20_linear_202_1466" x1="703" y1="157.59" x2="703" y2="909" gradientUnits="userSpaceOnUse">
<stop stop-opacity="0"/>
<stop offset="0.9999"/>
<stop offset="1"/>
</linearGradient>
<clipPath id="clip0_202_1466">
<rect width="1512" height="814" fill="white" transform="translate(1512 814) rotate(-180)"/>
</clipPath>
</defs>
</svg>
