<svg width="1512" height="982" viewBox="0 0 1512 982" fill="none" xmlns="http://www.w3.org/2000/svg">
<g clip-path="url(#clip0_1_2293)">
<rect width="1512" height="982" fill="#292554"/>
<g opacity="0.14">
<mask id="mask0_1_2293" style="mask-type:alpha" maskUnits="userSpaceOnUse" x="1366" y="124" width="64" height="64">
<rect x="1366" y="124" width="64" height="64" fill="#D9D9D9"/>
</mask>
<g mask="url(#mask0_1_2293)">
<path d="M1413.9 158V154H1423.54V158H1413.9ZM1416.95 175.949L1409.23 170.164L1411.66 166.975L1419.38 172.759L1416.95 175.949ZM1411.56 144.923L1409.13 141.734L1416.84 135.949L1419.27 139.139L1411.56 144.923ZM1380 173.282V162.872H1377.28C1375.95 162.872 1374.82 162.401 1373.88 161.459C1372.93 160.517 1372.46 159.382 1372.46 158.052V153.949C1372.46 152.619 1372.93 151.483 1373.88 150.541C1374.82 149.6 1375.95 149.129 1377.28 149.129H1387.59L1399.54 142.001V170L1387.59 162.872H1384V173.282H1380ZM1403.23 164.318V147.682C1404.28 148.63 1405.12 149.823 1405.76 151.262C1406.4 152.701 1406.72 154.281 1406.72 156C1406.72 157.72 1406.4 159.3 1405.76 160.739C1405.12 162.178 1404.28 163.371 1403.23 164.318ZM1377.28 153.129C1377.08 153.129 1376.89 153.214 1376.72 153.385C1376.55 153.556 1376.46 153.744 1376.46 153.949V158.052C1376.46 158.257 1376.55 158.445 1376.72 158.616C1376.89 158.787 1377.08 158.872 1377.28 158.872H1388.7L1395.54 162.893V149.108L1388.7 153.129H1377.28Z" fill="white"/>
</g>
</g>
<g filter="url(#filter0_f_1_2293)">
<circle cx="1459" cy="171" r="166" fill="#C1152E"/>
</g>
<g filter="url(#filter1_f_1_2293)">
<circle cx="143" cy="870" r="172" fill="#C1152E"/>
</g>
<g opacity="0.14">
<mask id="mask1_1_2293" style="mask-type:alpha" maskUnits="userSpaceOnUse" x="64" y="81" width="64" height="64">
<rect x="64" y="81" width="64" height="64" fill="#D9D9D9"/>
</mask>
<g mask="url(#mask1_1_2293)">
<path d="M95.9996 138.538C94.6526 138.538 93.4911 138.072 92.515 137.138C91.539 136.205 91.0082 135.065 90.9227 133.718H101.077C100.991 135.065 100.46 136.205 99.4842 137.138C98.5081 138.072 97.3466 138.538 95.9996 138.538ZM85.9997 130.025V126.025H106V130.025H85.9997ZM86.4099 122.333C83.6168 120.596 81.4057 118.327 79.7766 115.525C78.1475 112.724 77.333 109.66 77.333 106.333C77.333 101.137 79.145 96.7263 82.7689 93.1024C86.3928 89.4785 90.8031 87.6665 95.9996 87.6665C101.196 87.6665 105.606 89.4785 109.23 93.1024C112.854 96.7263 114.666 101.137 114.666 106.333C114.666 109.66 113.852 112.724 112.223 115.525C110.594 118.327 108.382 120.596 105.589 122.333H86.4099ZM87.5996 118.333H104.4C106.4 116.911 107.944 115.155 109.033 113.066C110.122 110.978 110.666 108.733 110.666 106.333C110.666 102.244 109.244 98.7776 106.4 95.9331C103.555 93.0887 100.088 91.6664 95.9996 91.6664C91.9107 91.6664 88.4441 93.0887 85.5996 95.9331C82.7552 98.7776 81.3329 102.244 81.3329 106.333C81.3329 108.733 81.8774 110.978 82.9663 113.066C84.0552 115.155 85.5996 116.911 87.5996 118.333Z" fill="white"/>
</g>
</g>
<g opacity="0.14">
<mask id="mask2_1_2293" style="mask-type:alpha" maskUnits="userSpaceOnUse" x="1366" y="793" width="64" height="64">
<rect x="1366" y="793" width="64" height="64" fill="#D9D9D9"/>
</mask>
<g mask="url(#mask2_1_2293)">
<path d="M1398 850.538C1396.65 850.538 1395.49 850.072 1394.52 849.138C1393.54 848.205 1393.01 847.065 1392.92 845.718H1403.08C1402.99 847.065 1402.46 848.205 1401.48 849.138C1400.51 850.072 1399.35 850.538 1398 850.538ZM1388 842.025V838.025H1408V842.025H1388ZM1388.41 834.333C1385.62 832.596 1383.41 830.327 1381.78 827.525C1380.15 824.724 1379.33 821.66 1379.33 818.333C1379.33 813.137 1381.14 808.726 1384.77 805.102C1388.39 801.478 1392.8 799.667 1398 799.667C1403.2 799.667 1407.61 801.478 1411.23 805.102C1414.85 808.726 1416.67 813.137 1416.67 818.333C1416.67 821.66 1415.85 824.724 1414.22 827.525C1412.59 830.327 1410.38 832.596 1407.59 834.333H1388.41ZM1389.6 830.333H1406.4C1408.4 828.911 1409.94 827.155 1411.03 825.066C1412.12 822.978 1412.67 820.733 1412.67 818.333C1412.67 814.244 1411.24 810.778 1408.4 807.933C1405.56 805.089 1402.09 803.666 1398 803.666C1393.91 803.666 1390.44 805.089 1387.6 807.933C1384.76 810.778 1383.33 814.244 1383.33 818.333C1383.33 820.733 1383.88 822.978 1384.97 825.066C1386.06 827.155 1387.6 828.911 1389.6 830.333Z" fill="white"/>
</g>
</g>
<g opacity="0.14">
<mask id="mask3_1_2293" style="mask-type:alpha" maskUnits="userSpaceOnUse" x="53" y="793" width="64" height="64">
<rect x="53" y="793" width="64" height="64" fill="#D9D9D9"/>
</mask>
<g mask="url(#mask3_1_2293)">
<path d="M105.114 847.872L88.3652 831.123C87.0319 832.224 85.4985 833.086 83.7652 833.708C82.0319 834.33 80.2387 834.641 78.3857 834.641C73.8279 834.641 69.9706 833.063 66.8136 829.907C63.6566 826.751 62.0781 822.894 62.0781 818.338C62.0781 813.781 63.6562 809.923 66.8124 806.764C69.9686 803.605 73.825 802.026 78.3816 802.026C82.9382 802.026 86.7959 803.604 89.9549 806.761C93.1139 809.918 94.6934 813.776 94.6934 818.333C94.6934 820.238 94.3737 822.057 93.7344 823.79C93.0951 825.523 92.2421 827.031 91.1754 828.313L107.924 845.062L105.114 847.872ZM78.3857 830.641C81.8216 830.641 84.7319 829.449 87.1165 827.064C89.5011 824.68 90.6935 821.769 90.6935 818.333C90.6935 814.898 89.5011 811.987 87.1165 809.603C84.7319 807.218 81.8216 806.026 78.3857 806.026C74.9498 806.026 72.0395 807.218 69.6549 809.603C67.2703 811.987 66.0781 814.898 66.0781 818.333C66.0781 821.769 67.2703 824.68 69.6549 827.064C72.0395 829.449 74.9498 830.641 78.3857 830.641Z" fill="white"/>
</g>
</g>
<path opacity="0.12" d="M143 -833C354.497 -366.909 929.592 419.753 1538 -162.322" stroke="white"/>
<path opacity="0.12" d="M143 -795C354.497 -329.441 929.592 456.324 1538 -125.087" stroke="white"/>
<path opacity="0.12" d="M143 -759C354.497 -292.909 929.592 493.753 1538 -88.3219" stroke="white"/>
<path opacity="0.12" d="M143 -722C354.497 -255.909 929.592 530.753 1538 -51.3219" stroke="white"/>
<path opacity="0.12" d="M143 -686C354.497 -219.909 929.592 566.753 1538 -15.3219" stroke="white"/>
<path opacity="0.12" d="M143 -648C354.497 -181.909 929.592 604.753 1538 22.6781" stroke="white"/>
<path opacity="0.12" d="M143 -612C354.497 -145.909 929.592 640.753 1538 58.6781" stroke="white"/>
<path opacity="0.12" d="M143 -574C354.497 -107.909 929.592 678.753 1538 96.6781" stroke="white"/>
<path opacity="0.12" d="M143 -538C354.497 -71.378 929.592 716.181 1538 133.443" stroke="white"/>
<path opacity="0.12" d="M143 -500C354.497 -34.4409 929.592 751.324 1538 169.913" stroke="white"/>
<path opacity="0.12" d="M143 -464C354.497 2.62198 929.592 790.181 1538 207.443" stroke="white"/>
<path opacity="0.12" d="M143 -427C354.497 39.0905 929.592 825.753 1538 243.678" stroke="white"/>
<path opacity="0.12" d="M143 -389C354.497 77.0905 929.592 863.753 1538 281.678" stroke="white"/>
<path opacity="0.12" d="M143 -353C354.497 113.091 929.592 899.753 1538 317.678" stroke="white"/>
<path opacity="0.12" d="M143 -315C354.497 150.559 929.592 936.324 1538 354.913" stroke="white"/>
<path opacity="0.12" d="M143 -279C354.497 187.091 929.592 973.753 1538 391.678" stroke="white"/>
<path opacity="0.12" d="M143 -242C354.497 224.091 929.592 1010.75 1538 428.678" stroke="white"/>
<path opacity="0.12" d="M143 -206C354.497 260.091 929.592 1046.75 1538 464.678" stroke="white"/>
<path opacity="0.12" d="M143 -168C354.497 298.091 929.592 1084.75 1538 502.678" stroke="white"/>
<path opacity="0.12" d="M143 -132C354.497 335.153 929.592 1123.61 1538 540.208" stroke="white"/>
<path opacity="0.12" d="M143 -94C354.497 372.091 929.592 1158.75 1538 576.678" stroke="white"/>
</g>
<defs>
<filter id="filter0_f_1_2293" x="853" y="-435" width="1212" height="1212" filterUnits="userSpaceOnUse" color-interpolation-filters="sRGB">
<feFlood flood-opacity="0" result="BackgroundImageFix"/>
<feBlend mode="normal" in="SourceGraphic" in2="BackgroundImageFix" result="shape"/>
<feGaussianBlur stdDeviation="220" result="effect1_foregroundBlur_1_2293"/>
</filter>
<filter id="filter1_f_1_2293" x="-469" y="258" width="1224" height="1224" filterUnits="userSpaceOnUse" color-interpolation-filters="sRGB">
<feFlood flood-opacity="0" result="BackgroundImageFix"/>
<feBlend mode="normal" in="SourceGraphic" in2="BackgroundImageFix" result="shape"/>
<feGaussianBlur stdDeviation="220" result="effect1_foregroundBlur_1_2293"/>
</filter>
<clipPath id="clip0_1_2293">
<rect width="1512" height="982" fill="white"/>
</clipPath>
</defs>
</svg>
