<svg width="16" height="17" viewBox="0 0 16 17" fill="none" xmlns="http://www.w3.org/2000/svg">
<g id="Group">
<path id="Vector" d="M14.2857 2.30426H12.5714V1.16636C12.5714 0.852126 12.3156 0.597397 12 0.597397C11.6844 0.597397 11.4286 0.852126 11.4286 1.16636V2.30426H4.57141V1.16636C4.57141 0.852126 4.31558 0.597397 4.00001 0.597397C3.68444 0.597397 3.42857 0.852126 3.42857 1.16636V2.30426H1.71428C0.767511 2.30426 0 3.06845 0 4.01112V14.8213C0 15.7639 0.767511 16.5281 1.71428 16.5281H14.2857C15.2325 16.5281 16 15.7639 16 14.8213V4.01112C16 3.06845 15.2325 2.30426 14.2857 2.30426ZM14.8571 14.8213C14.8571 15.1355 14.6013 15.3902 14.2857 15.3902H1.71428C1.39868 15.3902 1.14285 15.1355 1.14285 14.8213V7.42485H14.8571V14.8213ZM14.8571 6.28695H1.14285V4.01112C1.14285 3.69689 1.39868 3.44216 1.71428 3.44216H3.42857V4.58006C3.42857 4.89429 3.68441 5.14902 4.00001 5.14902C4.31561 5.14902 4.57145 4.89429 4.57145 4.58006V3.44216H11.4286V4.58006C11.4286 4.89429 11.6844 5.14902 12 5.14902C12.3156 5.14902 12.5715 4.89429 12.5715 4.58006V3.44216H14.2857C14.6014 3.44216 14.8572 3.69689 14.8572 4.01112V6.28695H14.8571Z" fill="#525076"/>
<path id="Vector_2" d="M4.57171 8.56273H3.42886C3.11326 8.56273 2.85742 8.81746 2.85742 9.13169C2.85742 9.44593 3.11326 9.70066 3.42886 9.70066H4.57171C4.88731 9.70066 5.14315 9.44593 5.14315 9.13169C5.14315 8.81746 4.88731 8.56273 4.57171 8.56273ZM8.57171 8.56273H7.42887C7.11327 8.56273 6.85743 8.81746 6.85743 9.13169C6.85743 9.44593 7.11327 9.70066 7.42887 9.70066H8.57171C8.88732 9.70066 9.14315 9.44593 9.14315 9.13169C9.14315 8.81746 8.88732 8.56273 8.57171 8.56273ZM12.5717 8.56273H11.4289C11.1133 8.56273 10.8574 8.81746 10.8574 9.13169C10.8574 9.44593 11.1133 9.70066 11.4289 9.70066H12.5717C12.8873 9.70066 13.1432 9.44593 13.1432 9.13169C13.1431 8.81746 12.8873 8.56273 12.5717 8.56273ZM4.57171 10.8386H3.42886C3.11326 10.8386 2.85742 11.0933 2.85742 11.4075C2.85742 11.7218 3.11326 11.9765 3.42886 11.9765H4.57171C4.88731 11.9765 5.14315 11.7218 5.14315 11.4075C5.14315 11.0933 4.88731 10.8386 4.57171 10.8386ZM8.57171 10.8386H7.42887C7.11327 10.8386 6.85743 11.0933 6.85743 11.4075C6.85743 11.7218 7.11327 11.9765 7.42887 11.9765H8.57171C8.88732 11.9765 9.14315 11.7218 9.14315 11.4075C9.14315 11.0933 8.88732 10.8386 8.57171 10.8386ZM12.5717 10.8386H11.4289C11.1133 10.8386 10.8574 11.0933 10.8574 11.4075C10.8574 11.7218 11.1133 11.9765 11.4289 11.9765H12.5717C12.8873 11.9765 13.1432 11.7218 13.1432 11.4075C13.1431 11.0933 12.8873 10.8386 12.5717 10.8386ZM4.57171 13.1144H3.42886C3.11326 13.1144 2.85742 13.3691 2.85742 13.6834C2.85742 13.9976 3.11326 14.2523 3.42886 14.2523H4.57171C4.88731 14.2523 5.14315 13.9976 5.14315 13.6833C5.14315 13.3691 4.88731 13.1144 4.57171 13.1144ZM8.57171 13.1144H7.42887C7.11327 13.1144 6.85743 13.3691 6.85743 13.6834C6.85743 13.9976 7.11327 14.2523 7.42887 14.2523H8.57171C8.88732 14.2523 9.14315 13.9976 9.14315 13.6834C9.14315 13.3691 8.88732 13.1144 8.57171 13.1144ZM12.5717 13.1144H11.4289C11.1133 13.1144 10.8574 13.3691 10.8574 13.6834C10.8574 13.9976 11.1133 14.2523 11.4289 14.2523H12.5717C12.8873 14.2523 13.1432 13.9976 13.1432 13.6834C13.1432 13.3691 12.8873 13.1144 12.5717 13.1144Z" fill="#525076"/>
</g>
</svg>
