<svg width="24" height="24" viewBox="0 0 24 24" fill="none" xmlns="http://www.w3.org/2000/svg">
<g clip-path="url(#clip0_350_1231)">
<path d="M10.6807 17.6644H6.33563V15.0169L6.59016 15.2714C6.86461 15.5459 7.30973 15.5459 7.58438 15.2714C7.85906 14.9967 7.85906 14.5516 7.58438 14.2769L6.12966 12.8221C6.03129 12.7238 5.906 12.6569 5.7696 12.6298C5.6332 12.6027 5.49183 12.6166 5.36334 12.6698C5.23487 12.723 5.12506 12.8131 5.04781 12.9287C4.97056 13.0443 4.92935 13.1802 4.92938 13.3193V18.3675C4.92938 18.7559 5.24414 19.0706 5.6325 19.0706H10.6807C11.0689 19.0706 11.3838 18.7559 11.3838 18.3675C11.3838 17.9793 11.0691 17.6644 10.6807 17.6644ZM13.3193 6.33563H17.6644V8.98312L17.4098 8.72859C17.1354 8.45414 16.6903 8.45414 16.4156 8.72859C16.1409 9.00328 16.1409 9.44841 16.4156 9.72309L17.8703 11.1779C18.0023 11.3097 18.1812 11.3838 18.3677 11.3838C18.4583 11.3838 18.5497 11.3662 18.6365 11.3302C18.765 11.277 18.8748 11.1869 18.9521 11.0713C19.0294 10.9557 19.0706 10.8198 19.0706 10.6807V5.6325C19.0706 5.24414 18.7559 4.92938 18.3675 4.92938H13.3193C12.9311 4.92938 12.6162 5.24414 12.6162 5.6325C12.6162 6.02067 12.9309 6.33563 13.3193 6.33563ZM11.2648 10.5617V0.703125C11.2648 0.314766 10.9501 0 10.5617 0H0.703125C0.314766 0 0 0.314766 0 0.703125V10.5617C0 10.9501 0.314766 11.2648 0.703125 11.2648H10.5617C10.9501 11.2648 11.2648 10.9501 11.2648 10.5617ZM7.98173 8.29856C7.93218 8.37019 7.866 8.42873 7.78885 8.46916C7.71171 8.50959 7.62591 8.5307 7.53881 8.53069H7.35609C7.13231 8.53069 6.92944 8.38987 6.85144 8.18025L6.42464 7.03528H4.82902L4.41412 8.17622C4.3761 8.27997 4.30719 8.36958 4.21667 8.43296C4.12615 8.49634 4.01838 8.53045 3.90787 8.53069H3.72638C3.63922 8.53068 3.55336 8.50951 3.47618 8.46902C3.399 8.42852 3.3328 8.3699 3.28327 8.29819C3.23371 8.22647 3.20231 8.14379 3.19178 8.05725C3.18125 7.97072 3.19189 7.88292 3.2228 7.80141L5.01305 3.08166C5.09198 2.87386 5.2943 2.73412 5.51663 2.73412H5.75812C5.98078 2.73412 6.18328 2.87419 6.26203 3.08259L8.04253 7.80211C8.07338 7.88359 8.08397 7.97134 8.07338 8.05781C8.06278 8.14429 8.03133 8.22694 7.98173 8.29856Z" fill="#272454"/>
<path d="M5.26593 5.84079H5.98973L5.62663 4.82397C5.50689 5.16309 5.38666 5.50203 5.26593 5.84079Z" fill="#272454"/>
<path fill-rule="evenodd" clip-rule="evenodd" d="M13.4531 12.75H23.3117C23.7 12.75 24.0148 13.0647 24.0148 13.4531V23.3117C24.0148 23.7 23.7 24.0148 23.3117 24.0148H13.4531C13.0647 24.0148 12.75 23.7 12.75 23.3117V13.4531C12.75 13.0647 13.0647 12.75 13.4531 12.75ZM20.9521 16.8491H21.4213V16.2188H15.3281V16.8491H20.2167V19.7807L19.4584 19.2445C19.4783 19.1388 19.4883 19.029 19.4883 18.9152V18.3409C19.4883 18.0187 19.3739 17.7432 19.1451 17.5144C18.9163 17.281 18.6385 17.1642 18.3117 17.1642H18.2417C17.9475 17.1642 17.6954 17.2693 17.4853 17.4794C17.2751 17.6895 17.1701 17.9417 17.1701 18.2358V18.9012H17.9055V18.1798C17.9055 18.0911 17.9382 18.0047 18.0035 17.9206C18.0736 17.8366 18.1529 17.7946 18.2417 17.7946H18.3117C18.4378 17.7946 18.5428 17.8459 18.6269 17.9487C18.7109 18.0514 18.7529 18.1658 18.7529 18.2918V18.9642C18.7529 19.221 18.6642 19.4498 18.4868 19.6506C18.3094 19.8467 18.0922 19.9447 17.8354 19.9447H17.3732C17.1211 19.9447 16.904 19.8467 16.7219 19.6506C16.5444 19.4498 16.4557 19.221 16.4557 18.9642V17.5074H15.7203V18.9152C15.7203 19.3727 15.8814 19.7649 16.2036 20.0918C16.5304 20.414 16.9203 20.575 17.3732 20.575H17.8354C18.293 20.575 18.6829 20.414 19.0051 20.0918C19.0778 20.018 19.1422 19.941 19.1985 19.8605L20.2167 20.575H20.9521V16.8491Z" fill="#272454"/>
</g>
<defs>
<clipPath id="clip0_350_1231">
<rect width="24" height="24" fill="white"/>
</clipPath>
</defs>
</svg>
