<svg width="21" height="21" viewBox="0 0 21 21" fill="none" xmlns="http://www.w3.org/2000/svg">
<g id="Frame">
<g id="Group">
<path id="Vector" d="M8.13828 2.96824C8.4623 3.44402 8.75351 4.21101 8.75351 5.34304V9.01804H9.73379L11.3785 10.6956H8.75351V15.4534C8.75351 15.8266 8.89297 16.163 9.17187 16.4665C9.45078 16.77 9.90605 16.9218 10.5377 16.9218C11.3539 16.9218 12.2152 16.4665 13.1258 15.5559C14.0568 14.6249 14.549 13.6692 14.5941 12.6889L14.1758 12.7259C12.6828 12.7259 11.9363 11.9343 11.9363 10.3469C11.9363 9.80964 12.1127 9.33386 12.4613 8.9114C12.81 8.49304 13.3924 8.27976 14.2086 8.27976C15.0699 8.27976 15.7959 8.653 16.3783 9.39949C16.9853 10.146 17.2889 11.0565 17.2889 12.127C17.2889 13.7143 16.6121 15.2278 15.2586 16.6757C13.9297 18.1194 11.3867 18.8454 10.5008 18.8454C9.08164 18.8454 8.53613 18.5665 8.07266 18.2507C7.60918 17.9307 7.00215 17.1761 7.00215 16.2245V10.6956H5.32461L3.7168 9.01804H7.00625V5.69578C7.00625 4.9534 6.26387 4.54734 5.77988 4.50633C5.48457 4.48172 5.16055 4.56375 5.0457 4.68269C4.83652 4.33406 4.63555 3.9116 4.45098 3.42351C4.45098 3.42351 4.61504 2.83289 5.15234 2.48015C5.52148 2.23816 5.87012 2.16433 6.41152 2.16433C7.44102 2.16023 7.9168 2.64422 8.13828 2.96824Z" fill="#272454"/>
</g>
</g>
</svg>
