<svg width="16" height="16" viewBox="0 0 16 16" fill="none" xmlns="http://www.w3.org/2000/svg">
<g id="Frame" clip-path="url(#clip0_358_302)">
<g id="Group">
<path id="Vector" d="M10.8501 9.41291L8.61926 7.73979V4.3316C8.61926 3.98891 8.34226 3.71191 7.99957 3.71191C7.65688 3.71191 7.37988 3.98891 7.37988 4.3316V8.04966C7.37988 8.24485 7.4716 8.42891 7.62776 8.54541L10.1064 10.4044C10.2134 10.485 10.3437 10.5285 10.4776 10.5284C10.6666 10.5284 10.8525 10.4435 10.974 10.2799C11.1798 10.0066 11.124 9.61804 10.8501 9.41291Z" fill="#525076"/>
<path id="Vector_2" d="M8 0C3.58853 0 0 3.58853 0 8C0 12.4115 3.58853 16 8 16C12.4115 16 16 12.4115 16 8C16 3.58853 12.4115 0 8 0ZM8 14.7607C4.27266 14.7607 1.23934 11.7273 1.23934 8C1.23934 4.27266 4.27266 1.23934 8 1.23934C11.728 1.23934 14.7607 4.27266 14.7607 8C14.7607 11.7273 11.7273 14.7607 8 14.7607Z" fill="#525076"/>
</g>
</g>
<defs>
<clipPath id="clip0_358_302">
<rect width="16" height="16" fill="white"/>
</clipPath>
</defs>
</svg>
