<svg width="24" height="24" viewBox="0 0 24 24" fill="none" xmlns="http://www.w3.org/2000/svg">
  <g clip-path="url(#clip0_229_2511)">
    <path d="M24 3L24 12L18 12C18 15.3075 20.6895 18 24 18L24 21C19.0373 21 15 16.9628 15 12L15 3L24 3ZM9 3L9 12L3 12C3 15.3075 5.6895 18 9 18L9 21C4.03725 21 1.22066e-06 16.9628 7.86805e-07 12L0 3L9 3Z" fill="#E9E9EE" />
  </g>
  <defs>
    <clipPath id="clip0_229_2511">
      <rect width="24" height="24" fill="white" transform="matrix(-1 8.74228e-08 8.74228e-08 1 24 0)" />
    </clipPath>
  </defs>
</svg>