<svg width="524" height="524" viewBox="0 0 524 524" fill="none" xmlns="http://www.w3.org/2000/svg">
<g clip-path="url(#clip0_356_3177)">
<path opacity="0.44" d="M267.414 60.0222C177.841 61.5877 80.4828 174.338 114.002 264.76C144.578 347.254 75.2628 420.611 83.5926 463.868" fill="#C1152E"/>
<path opacity="0.44" d="M419.461 463.868C441.385 437.909 499.615 360.866 459.566 316.888C410.887 263.438 370.981 238.856 394.127 190.115C417.262 141.373 356.976 58.4566 267.414 60.0221" fill="#C1152E"/>
<path style="mix-blend-mode:overlay" opacity="0.8" d="M370.115 119.212C370.426 119.889 244.035 119.212 244.035 119.212C244.035 119.212 250.211 105.055 273.045 106.066C273.045 106.066 282.619 81.6727 302.499 81.3951C322.38 81.1175 327.356 98.7156 327.356 98.7156C327.356 98.7156 348.891 97.2944 353.311 112.239C353.311 112.239 366.494 111.217 370.115 119.2V119.212Z" fill="url(#paint0_linear_356_3177)"/>
<path d="M263.827 241.299C315.02 241.299 356.521 206.1 356.521 162.679C356.521 119.259 315.02 84.0598 263.827 84.0598C212.634 84.0598 171.133 119.259 171.133 162.679C171.133 206.1 212.634 241.299 263.827 241.299Z" stroke="url(#paint1_linear_356_3177)" stroke-width="1.13" stroke-miterlimit="10" stroke-linecap="round"/>
<path d="M59.0029 464.601C59.0029 453.775 153.218 445.004 269.436 445.004C385.653 445.004 479.868 453.775 479.868 464.601" fill="url(#paint2_linear_356_3177)"/>
<path d="M396.448 457.251C396.448 457.251 382.421 418.624 446.594 375.022C446.594 375.022 442.895 442.839 396.448 457.251Z" fill="url(#paint3_linear_356_3177)"/>
<path style="mix-blend-mode:overlay" opacity="0.8" d="M465.041 324.049C447.649 326.991 439.241 348.387 439.241 348.387C416.407 347.365 410.231 361.532 410.231 361.532C410.231 361.532 441.463 361.699 472.838 361.788" fill="url(#paint4_linear_356_3177)"/>
<path d="M124.975 455.852C124.975 455.852 119.566 415.437 40 391.166L124.975 455.852Z" fill="url(#paint5_linear_356_3177)"/>
<path d="M40 391.166C40 391.166 75.5071 454.552 124.975 455.852L40 391.166Z" fill="url(#paint6_linear_356_3177)"/>
<path d="M133.616 452.743C133.616 452.743 145.355 410.141 75.1516 356.081L133.616 452.743Z" fill="url(#paint7_linear_356_3177)"/>
<path d="M75.1516 356.081C75.1516 356.081 84.0923 432.991 133.616 452.743L75.1516 356.081Z" fill="url(#paint8_linear_356_3177)"/>
<path style="mix-blend-mode:overlay" opacity="0.8" d="M198.999 342.091C195.367 334.108 182.195 335.13 182.195 335.13C177.775 320.185 156.239 321.606 156.239 321.606C156.239 321.606 151.264 304.008 131.383 304.286C127.874 304.33 124.686 305.152 121.81 306.44C122.032 318.731 120.577 330.711 118.1 342.302C154.351 342.436 199.188 342.513 198.999 342.102V342.091Z" fill="url(#paint9_linear_356_3177)"/>
<path d="M85.4473 259.041C85.0142 259.208 84.8143 259.719 84.992 260.185C105.539 313.834 141.912 360.122 189.448 392.82C189.858 393.109 190.403 393.031 190.669 392.654C190.925 392.276 190.803 391.743 190.392 391.455C143.134 358.956 106.972 312.935 86.5469 259.597C86.3692 259.13 85.8805 258.886 85.4473 259.053V259.041Z" fill="url(#paint10_linear_356_3177)"/>
<path d="M149.042 333.564C148.931 333.52 148.831 333.487 148.72 333.453C145.666 332.443 144.333 335.874 143.789 338.25C142.323 344.401 143.256 351.951 143.278 351.951C143.278 351.951 147.876 346.366 150.32 340.603C150.964 339.082 151.686 337.128 151.153 335.452C150.831 334.452 149.975 333.908 149.042 333.564Z" fill="url(#paint11_linear_356_3177)"/>
<path d="M141.068 323.949C140.968 323.905 140.857 323.86 140.757 323.827C137.758 322.683 136.259 326.036 135.615 328.39C133.86 334.464 134.438 342.047 134.46 342.047C134.46 342.047 139.313 336.684 142.023 331.044C142.745 329.556 143.545 327.646 143.101 325.948C142.834 324.937 141.99 324.349 141.079 323.96L141.068 323.949Z" fill="url(#paint12_linear_356_3177)"/>
<path d="M133.56 313.957C133.46 313.912 133.36 313.857 133.249 313.812C130.306 312.524 128.651 315.811 127.896 318.131C125.863 324.116 126.074 331.71 126.097 331.71C126.097 331.71 131.194 326.581 134.171 321.074C134.96 319.619 135.859 317.743 135.482 316.033C135.259 315 134.449 314.39 133.549 313.957H133.56Z" fill="url(#paint13_linear_356_3177)"/>
<path d="M126.519 303.631C126.419 303.575 126.319 303.52 126.219 303.475C123.342 302.054 121.543 305.263 120.666 307.539C118.356 313.423 118.222 321.018 118.233 321.018C118.233 321.018 123.565 316.133 126.796 310.77C127.652 309.36 128.629 307.528 128.34 305.796C128.163 304.763 127.385 304.108 126.508 303.631H126.519Z" fill="url(#paint14_linear_356_3177)"/>
<path d="M119.966 292.983C119.866 292.927 119.766 292.872 119.677 292.816C116.867 291.262 114.913 294.382 113.946 296.614C111.37 302.387 110.87 309.97 110.892 309.97C110.892 309.97 116.445 305.341 119.922 300.133C120.843 298.757 121.91 296.98 121.699 295.226C121.576 294.182 120.821 293.494 119.977 292.972L119.966 292.983Z" fill="url(#paint15_linear_356_3177)"/>
<path d="M113.913 282.014C113.824 281.947 113.724 281.891 113.624 281.836C110.892 280.148 108.793 283.168 107.716 285.356C104.872 291.007 104.028 298.568 104.039 298.568C104.039 298.568 109.804 294.205 113.524 289.164C114.502 287.831 115.657 286.099 115.523 284.345C115.446 283.29 114.735 282.569 113.902 282.014H113.913Z" fill="url(#paint16_linear_356_3177)"/>
<path d="M108.371 270.755C108.282 270.689 108.193 270.622 108.093 270.555C105.439 268.734 103.206 271.666 102.029 273.797C98.9194 279.315 97.731 286.843 97.7532 286.843C97.7532 286.843 103.717 282.757 107.66 277.883C108.704 276.595 109.926 274.919 109.881 273.153C109.859 272.099 109.171 271.332 108.371 270.744V270.755Z" fill="url(#paint17_linear_356_3177)"/>
<path d="M103.351 259.23C103.262 259.164 103.173 259.086 103.084 259.019C100.519 257.065 98.1529 259.896 96.8757 261.973C93.5216 267.346 91.9778 274.819 92 274.83C92 274.83 98.1529 271.022 102.318 266.347C103.417 265.115 104.728 263.494 104.761 261.728C104.783 260.674 104.139 259.874 103.362 259.241L103.351 259.23Z" fill="url(#paint18_linear_356_3177)"/>
<path d="M120.277 350.94C120.244 350.818 120.221 350.696 120.199 350.585C119.5 347.154 123.265 346.621 125.752 346.521C132.227 346.321 139.624 347.965 139.635 347.954C139.635 347.954 133.694 352.095 127.529 353.683C125.908 354.105 123.809 354.504 122.076 353.583C121.043 353.039 120.555 352.006 120.288 350.94H120.277Z" fill="url(#paint19_linear_356_3177)"/>
<path d="M111.514 339.948C111.492 339.826 111.47 339.704 111.447 339.582C110.914 336.118 114.702 335.763 117.178 335.774C123.653 335.874 130.973 337.861 130.973 337.85C130.973 337.85 124.853 341.714 118.611 343.013C116.967 343.357 114.857 343.657 113.169 342.669C112.169 342.08 111.725 341.025 111.514 339.948Z" fill="url(#paint20_linear_356_3177)"/>
<path d="M103.284 328.568C103.262 328.446 103.251 328.324 103.24 328.201C102.873 324.715 106.672 324.537 109.148 324.671C115.612 325.07 122.82 327.402 122.831 327.391C122.831 327.391 116.534 330.955 110.237 331.976C108.582 332.243 106.45 332.443 104.817 331.377C103.84 330.744 103.451 329.667 103.284 328.579V328.568Z" fill="url(#paint21_linear_356_3177)"/>
<path d="M95.5986 316.81C95.5875 316.688 95.5764 316.566 95.5653 316.443C95.3543 312.946 99.1638 312.946 101.629 313.19C108.071 313.901 115.168 316.566 115.168 316.543C115.168 316.543 108.715 319.819 102.374 320.529C100.708 320.718 98.5751 320.818 96.9869 319.674C96.0429 318.986 95.6986 317.898 95.5875 316.81H95.5986Z" fill="url(#paint22_linear_356_3177)"/>
<path d="M88.4571 304.686C88.4571 304.563 88.4459 304.441 88.4459 304.319C88.4015 300.811 92.1999 300.988 94.6544 301.355C101.052 302.365 108.027 305.363 108.027 305.352C108.027 305.352 101.418 308.316 95.0542 308.727C93.3772 308.838 91.2448 308.838 89.7121 307.617C88.8013 306.884 88.5126 305.785 88.4459 304.686H88.4571Z" fill="url(#paint23_linear_356_3177)"/>
<path d="M81.8821 292.228C81.8821 292.106 81.8821 291.984 81.8821 291.862C81.9931 288.353 85.7915 288.708 88.2238 289.197C94.5767 290.518 101.396 293.849 101.407 293.827C101.407 293.827 94.6655 296.48 88.2905 296.591C86.6134 296.625 84.481 296.514 83.0038 295.226C82.1264 294.46 81.8932 293.327 81.8821 292.239V292.228Z" fill="url(#paint24_linear_356_3177)"/>
<path d="M75.907 279.071C76.1846 275.563 79.9608 276.107 82.3709 276.706C88.6571 278.327 95.3209 281.991 95.3321 281.969C95.3321 281.969 88.4794 284.301 82.1043 284.112C80.4273 284.056 78.2949 283.856 76.8843 282.491" fill="url(#paint25_linear_356_3177)"/>
<path d="M77.0953 263.927C83.3038 265.859 89.7899 269.833 89.8011 269.822C89.8011 269.822 82.8485 271.832 76.4734 271.321" fill="url(#paint26_linear_356_3177)"/>
<path d="M80.6604 245.44C80.7604 245.407 80.8714 245.374 80.9825 245.34C84.0256 244.474 85.3695 248.194 86.0248 250.692C87.6796 257.176 87.8462 264.904 87.8685 264.915C87.8685 264.937 82.5041 259.252 79.6719 252.957C78.9167 251.314 78.0948 249.16 78.5835 247.372C78.8723 246.295 79.7386 245.762 80.6715 245.451L80.6604 245.44Z" fill="url(#paint27_linear_356_3177)"/>
<path d="M76.4511 213.631L79.3943 214.785C79.7275 214.919 79.983 215.207 80.0607 215.563L80.7826 218.638C80.9937 219.526 82.1265 219.793 82.704 219.082L84.7143 216.64C84.9475 216.362 85.2918 216.207 85.6583 216.24L88.8125 216.506C89.7233 216.584 90.323 215.585 89.8343 214.819L88.124 212.154C87.924 211.854 87.8907 211.466 88.0351 211.133L89.2568 208.224C89.6122 207.38 88.8459 206.503 87.9685 206.736L84.9142 207.535C84.5588 207.624 84.1923 207.535 83.9146 207.302L81.5268 205.237C80.8382 204.637 79.7608 205.093 79.7053 206.003L79.5165 209.156C79.4943 209.523 79.2944 209.845 78.9834 210.033L76.2734 211.666" fill="url(#paint28_linear_356_3177)"/>
<path d="M333.414 311.359L318.609 314.405L324.513 343.082L339.318 340.036L333.414 311.359Z" fill="url(#paint29_linear_356_3177)"/>
<path d="M287.995 140.174L293.248 119.833C292.626 116.791 289.638 114.826 286.595 115.459L128.818 142.983C120.732 144.648 115.512 152.498 117.167 160.526L117.189 160.614L117.212 160.703L161.137 367.25L193.835 360.522L155.207 168.275L287.995 140.174Z" fill="#C1152E"/>
<path d="M292.87 117.99C292.448 115.97 290.471 114.66 288.45 115.081L128.062 143.15L172.299 351.196L334.719 317.787L292.87 117.99Z" fill="#272454"/>
<path style="mix-blend-mode:multiply" opacity="0.3" d="M172.299 351.196L334.719 317.787L332.62 307.772C321.369 301.355 309.808 295.026 297.113 292.45C273.579 287.676 249.544 296.325 225.543 296.98C205.063 297.535 185.005 292.173 166.269 284.267C163.225 282.979 160.171 281.436 157.117 279.771L172.299 351.196Z" fill="url(#paint30_linear_356_3177)"/>
<path d="M173.055 351.04C164.969 352.706 159.549 359.578 160.949 366.385L160.982 366.54C162.381 373.357 170.078 377.532 178.164 375.866L334.986 343.612L329.877 318.786L173.055 351.04Z" fill="url(#paint31_linear_356_3177)"/>
<path d="M336.285 340.692L284.085 351.429L177.641 373.324C171.233 374.645 165.113 371.325 164.003 365.918L163.969 365.763C162.859 360.367 167.168 354.904 173.576 353.583L280.02 331.688L332.22 320.951L335.241 320.33L334.719 317.787L173.066 351.04C164.98 352.706 159.56 359.578 160.96 366.385L160.993 366.54C162.392 373.357 170.089 377.532 178.174 375.866L339.828 342.613L339.306 340.071L336.285 340.692Z" fill="url(#paint32_linear_356_3177)"/>
<path d="M175.131 167.132L167.646 219.549L177.919 217.439L179.219 207.491L198.633 203.494L203.753 212.121L214.093 209.989L186.516 164.778L175.131 167.121V167.132ZM180.263 199.119L183.117 177.28L194.368 196.221L180.263 199.119Z" fill="url(#paint33_linear_356_3177)"/>
<path d="M264.693 191.225L277.044 164.956L275.422 157.062L247.345 162.835L249 170.862L265.826 167.409L253.609 193.646L255.231 201.54L283.596 195.711L281.942 187.672L264.693 191.225Z" fill="url(#paint34_linear_356_3177)"/>
<path d="M221.778 202.306C220.157 202.639 219.113 204.227 219.446 205.848C219.779 207.469 221.367 208.512 222.989 208.179C224.61 207.846 225.654 206.258 225.321 204.637C224.988 203.016 223.4 201.973 221.778 202.306Z" fill="url(#paint35_linear_356_3177)"/>
<path d="M232.607 200.074C230.985 200.407 229.941 201.995 230.275 203.616C230.608 205.237 232.196 206.281 233.818 205.948C235.439 205.614 236.483 204.027 236.15 202.406C235.817 200.785 234.228 199.741 232.607 200.074Z" fill="url(#paint36_linear_356_3177)"/>
<path d="M243.425 197.854C241.803 198.187 240.759 199.774 241.092 201.396C241.425 203.017 243.014 204.06 244.635 203.727C246.257 203.394 247.301 201.806 246.968 200.185C246.634 198.564 245.046 197.521 243.425 197.854Z" fill="url(#paint37_linear_356_3177)"/>
<path d="M293.725 335.574C255.064 342.402 216.07 350.43 177.853 359.412C216.503 352.573 255.519 344.567 293.725 335.574Z" fill="url(#paint38_linear_356_3177)"/>
<path d="M329.943 335.041C291.282 341.869 252.288 349.897 214.071 358.879C252.721 352.04 291.738 344.034 329.943 335.041Z" fill="url(#paint39_linear_356_3177)"/>
<path d="M393.872 457.939C397.404 442.883 395.538 429.549 393.872 422.243C393.083 418.779 390.118 416.336 386.697 416.336H225.443V463.868" fill="url(#paint40_linear_356_3177)"/>
<path d="M176.92 458.738C181.973 439.608 177.808 424.253 176.931 421.422C176.842 421.144 176.597 420.955 176.309 420.955H113.08C111.858 420.955 110.87 419.923 110.87 418.646C110.87 417.369 111.858 416.336 113.08 416.336H237.905C238.182 416.336 238.427 416.525 238.527 416.792C239.626 420.056 245.835 440.374 238.527 463.391" fill="url(#paint41_linear_356_3177)"/>
<path d="M259.884 453.242C264.016 440.263 260.506 428.805 259.884 426.962C259.829 426.806 259.696 426.707 259.54 426.707H374.647C374.802 426.707 374.946 426.806 374.991 426.962C375.613 428.805 379.111 440.263 374.991 453.242" fill="url(#paint42_linear_356_3177)"/>
<path d="M113.602 459.249V420.955H234.195C234.195 420.955 240.026 437.787 234.195 459.249" fill="url(#paint43_linear_356_3177)"/>
<path d="M221.334 429.504C188.026 427.706 154.229 427.717 120.932 429.504C154.24 431.292 188.037 431.303 221.334 429.504Z" fill="url(#paint44_linear_356_3177)"/>
<path d="M157.805 439.364C181.651 440.874 205.574 440.885 229.419 439.364C205.574 437.843 181.651 437.854 157.805 439.364Z" fill="url(#paint45_linear_356_3177)"/>
<path d="M408.154 374.7C407.366 371.236 404.4 368.794 400.98 368.794H239.726V416.325H400.98C404.4 416.325 407.344 413.86 408.154 410.396C411.686 395.341 409.82 382.006 408.154 374.7Z" fill="url(#paint46_linear_356_3177)"/>
<path d="M274.167 405.7C278.299 392.72 274.789 381.262 274.167 379.419C274.112 379.264 273.978 379.164 273.823 379.164H388.929C389.085 379.164 389.229 379.264 389.274 379.419C389.896 381.262 393.394 392.72 389.274 405.7C389.218 405.855 389.085 405.966 388.918 405.966H273.812C273.967 405.966 274.112 405.855 274.167 405.7Z" fill="url(#paint47_linear_356_3177)"/>
<path d="M390.273 463.279L391.306 434.179L405.711 434.334L403.679 447.802" fill="url(#paint48_linear_356_3177)"/>
<path d="M479.857 418.979L455.701 430.459L444.25 435.5L426.247 409.908C430.201 407.387 438.464 406.377 442.418 403.69L448.993 415.048C450.059 417.469 452.602 418.868 455.39 418.557L478.591 415.981" fill="url(#paint49_linear_356_3177)"/>
<path d="M476.781 414.56L457.978 416.969C456.712 417.136 455.579 417.935 455.012 419.079C453.935 421.233 451.769 424.73 448.504 426.373C445.683 427.806 442.484 428.25 440.274 428.383C439.019 428.45 438.153 429.76 438.641 430.859L441.796 438.065L482.29 418.757" fill="url(#paint50_linear_356_3177)"/>
<path d="M483.034 418.024L440.941 438.098C440.785 438.176 440.707 438.353 440.774 438.498L441.551 440.274C441.618 440.418 441.796 440.485 441.951 440.407L484.011 420.333" fill="white"/>
<path d="M460.588 420.322C460.954 420.289 461.243 419.978 461.243 419.634V416.292C461.243 415.937 460.954 415.681 460.588 415.703C460.221 415.737 459.932 416.048 459.932 416.392V419.734C459.932 420.089 460.221 420.345 460.588 420.322Z" fill="white"/>
<path d="M363.429 276.484L378.378 306.173L404.934 302.087C404.934 302.087 407.055 318.853 406.589 318.997C406.122 319.141 380.189 335.141 368.582 334.863C356.965 334.586 352.823 316.044 352.823 316.044L363.429 276.495V276.484Z" fill="url(#paint51_linear_356_3177)"/>
<path d="M408.876 332.243L418.117 331.21C418.317 331.188 418.572 330.744 418.683 330.222L426.769 293.871C426.891 293.35 426.835 292.861 426.658 292.783L418.228 289.341C417.861 289.164 417.706 289.652 417.573 290.252L408.654 331.222C408.532 331.81 408.632 332.276 408.876 332.243Z" fill="url(#paint52_linear_356_3177)"/>
<path d="M376.29 326.503L401.524 329.956C401.602 329.956 401.668 329.922 401.679 329.845L410.398 289.164C410.409 289.097 410.365 289.031 410.287 289.019L384.553 285.566C384.476 285.566 384.409 285.6 384.387 285.677L376.179 326.358C376.168 326.425 376.213 326.492 376.29 326.503Z" fill="white"/>
<path d="M381.188 328.568L407.122 332.121C407.843 332.221 408.543 331.754 408.688 331.077L417.539 290.407C417.684 289.73 417.217 289.108 416.484 289.008L389.996 285.455C389.263 285.355 388.552 285.822 388.407 286.499L380.122 327.169C379.989 327.846 380.466 328.468 381.177 328.568H381.188Z" fill="url(#paint53_linear_356_3177)"/>
<path d="M418.05 312.402C418.25 311.492 419.35 310.881 420.505 311.037C419.361 310.881 418.583 310.015 418.783 309.105C418.983 308.194 420.094 307.584 421.238 307.739L425.303 308.294C426.458 308.45 427.224 309.316 427.024 310.226C426.824 311.136 425.714 311.747 424.57 311.592L425.136 311.669C426.28 311.825 427.057 312.691 426.858 313.601C426.658 314.512 425.547 315.122 424.403 314.967L423.837 314.889C424.981 315.045 425.758 315.911 425.547 316.821C425.347 317.732 424.248 318.342 423.104 318.187H422.992C423.181 318.475 423.248 318.82 423.17 319.175C422.97 320.085 421.871 320.696 420.727 320.541L418.483 320.23C417.339 320.074 416.562 319.208 416.762 318.298C416.873 317.765 417.306 317.343 417.872 317.11C417.439 316.743 417.217 316.222 417.339 315.7C417.539 314.789 418.639 314.179 419.783 314.334C418.639 314.179 417.861 313.313 418.061 312.402H418.05Z" fill="url(#paint54_linear_356_3177)"/>
<g style="mix-blend-mode:overlay" opacity="0.6">
<path d="M420.871 311.081L424.359 311.558C424.359 311.558 423.326 311.925 420.871 311.081Z" fill="#213138"/>
</g>
<g style="mix-blend-mode:overlay" opacity="0.6">
<path d="M420.138 314.39L423.614 314.867C423.614 314.867 422.582 315.233 420.138 314.39Z" fill="#213138"/>
</g>
<g style="mix-blend-mode:overlay" opacity="0.6">
<path d="M418.417 317.421L422.437 318.009C422.437 318.009 421.26 318.342 418.417 317.421Z" fill="#213138"/>
</g>
<path d="M409.199 332.865C410.276 333.009 411.32 332.298 411.531 331.288L420.083 290.574C420.294 289.563 419.583 288.631 418.483 288.486C417.384 288.342 416.318 289.053 416.107 290.063L407.633 330.777C407.422 331.788 408.132 332.72 409.21 332.865H409.199Z" fill="url(#paint55_linear_356_3177)"/>
<path d="M407.621 330.789C411.098 317.365 413.963 303.675 416.096 290.074C412.553 303.498 409.709 317.187 407.621 330.789Z" fill="url(#paint56_linear_356_3177)"/>
<path d="M379.644 326.07C379.7 326.07 379.755 326.036 379.766 325.981L387.63 287.321C387.641 287.265 387.596 287.21 387.541 287.198C387.474 287.198 387.419 287.232 387.408 287.287L379.555 325.948C379.544 326.003 379.589 326.059 379.644 326.07Z" fill="#1C1C1C"/>
<path d="M378.834 325.859C378.889 325.859 378.945 325.825 378.956 325.77L386.797 287.11C386.808 287.054 386.764 286.999 386.708 286.988C386.653 286.988 386.597 287.021 386.575 287.076L378.734 325.737C378.723 325.792 378.767 325.848 378.823 325.859H378.834Z" fill="#1C1C1C"/>
<path d="M378.023 325.659C378.078 325.659 378.134 325.626 378.145 325.57L385.975 286.91C385.986 286.854 385.942 286.799 385.886 286.788C385.819 286.788 385.764 286.821 385.753 286.877L377.923 325.537C377.912 325.592 377.956 325.648 378.012 325.659H378.023Z" fill="#1C1C1C"/>
<path d="M377.212 325.448C377.268 325.448 377.323 325.415 377.334 325.359L385.153 286.699C385.164 286.644 385.12 286.588 385.064 286.577C384.998 286.577 384.942 286.61 384.931 286.666L377.123 325.326C377.112 325.382 377.157 325.437 377.212 325.448Z" fill="#1C1C1C"/>
<path d="M333.853 312.025V312.169C333.853 312.169 333.742 312.213 333.753 312.169V312.025C333.753 312.025 333.864 311.98 333.853 312.025Z" fill="#213138"/>
<path d="M306.22 360.877L362.385 338.15C362.818 337.972 363.041 337.506 362.863 337.106L360.508 331.577C360.331 331.177 359.842 330.988 359.398 331.155L301.822 354.193C301.389 354.371 301.189 354.837 301.378 355.237L305.121 360.455C305.298 360.855 305.798 361.044 306.22 360.877Z" fill="#213138"/>
<path d="M304.998 354.149C305.309 354.948 305.654 355.726 305.998 356.514C306.298 357.213 306.675 357.913 306.742 358.679C306.742 358.757 306.653 358.812 306.587 358.746C305.476 357.624 305.109 355.703 304.643 354.26C304.576 354.071 304.921 353.96 304.998 354.149Z" fill="#324952"/>
<path d="M309.474 352.283C309.974 353.649 310.752 354.959 311.096 356.369C311.118 356.469 310.985 356.525 310.918 356.447C309.908 355.348 309.485 353.782 309.152 352.383C309.108 352.206 309.419 352.095 309.485 352.272L309.474 352.283Z" fill="#324952"/>
<path d="M315.505 349.985C315.805 350.596 315.961 351.262 316.227 351.884C316.494 352.517 316.816 353.116 317.049 353.771C317.082 353.86 316.971 353.938 316.893 353.871C315.916 352.961 315.194 351.362 315.283 350.03C315.283 349.919 315.45 349.896 315.505 349.985Z" fill="#324952"/>
<path d="M320.858 347.876C321.325 348.342 321.558 349.03 321.858 349.597C322.169 350.196 322.469 350.774 322.624 351.429C322.646 351.518 322.513 351.573 322.458 351.506C321.936 350.985 321.614 350.374 321.314 349.708C321.058 349.153 320.714 348.542 320.703 347.92C320.703 347.842 320.814 347.82 320.858 347.865V347.876Z" fill="#324952"/>
<path d="M327.589 344.967C328.633 346.01 329.344 347.631 329.633 349.03C329.655 349.13 329.51 349.164 329.466 349.086C329.011 348.42 328.644 347.72 328.278 347.01C327.955 346.377 327.567 345.755 327.356 345.078C327.311 344.945 327.511 344.878 327.6 344.967H327.589Z" fill="#324952"/>
<path d="M333.831 343.523C334.242 344.012 334.497 344.589 334.786 345.156C335.086 345.722 335.375 346.255 335.563 346.865C335.586 346.954 335.463 346.988 335.408 346.932C334.53 346.11 333.786 344.767 333.675 343.59C333.675 343.512 333.775 343.446 333.831 343.523Z" fill="#324952"/>
<path d="M343.238 340.248C343.715 340.981 344.282 341.814 344.271 342.702C344.271 342.78 344.171 342.791 344.126 342.746C343.66 342.28 343.415 341.658 343.105 341.092C342.949 340.814 342.794 340.537 342.638 340.259C342.505 340.037 342.349 339.449 342.116 339.304C342.094 339.293 342.094 339.26 342.116 339.238C342.56 338.994 343.049 339.971 343.238 340.248Z" fill="#324952"/>
<path d="M348.247 336.939C348.713 337.317 348.946 337.928 349.191 338.449C349.48 339.071 349.779 339.693 349.824 340.392C349.824 340.481 349.713 340.559 349.635 340.481C349.18 339.948 348.935 339.327 348.68 338.694C348.469 338.161 348.158 337.561 348.191 336.973C348.191 336.951 348.225 336.939 348.247 336.951V336.939Z" fill="#324952"/>
<path d="M353.156 335.74C353.689 336.651 354.3 337.639 354.444 338.694C354.455 338.805 354.3 338.893 354.211 338.793C353.5 337.961 353.178 336.85 352.856 335.829C352.8 335.662 353.078 335.596 353.156 335.729V335.74Z" fill="#324952"/>
<path d="M323.924 303.076C314.728 300.045 306.498 293.982 301.533 286.122C303.51 279.86 299.634 277.261 303.266 273.975C310.396 267.591 330.599 262.872 330.599 262.872C346.603 263.405 363.34 268.579 363.696 278.294C363.829 282.202 362.674 286.666 361.463 291.562C361.419 291.728 361.374 291.906 361.341 292.084C361.274 292.35 361.208 292.606 361.152 292.872C361.052 293.294 360.952 293.716 360.852 294.138C360.819 294.293 360.775 294.46 360.741 294.615C360.675 294.926 360.597 295.237 360.53 295.548C360.486 295.726 360.453 295.903 360.408 296.081C360.364 296.281 360.33 296.469 360.286 296.669C348.091 300.844 335.896 306.973 323.924 303.065V303.076Z" fill="url(#paint57_linear_356_3177)"/>
<path d="M298.401 317.743C298.423 317.132 298.434 316.521 298.445 315.9C298.445 315.789 298.445 315.677 298.445 315.555C298.445 315.022 298.457 314.501 298.445 313.957C298.445 313.668 298.445 313.379 298.445 313.091C298.445 312.702 298.445 312.302 298.423 311.914C298.401 311.214 298.379 310.526 298.346 309.815C298.346 309.804 298.346 309.782 298.346 309.771C298.301 308.994 298.279 308.194 298.279 307.373C298.246 300.888 299.345 293.083 301.522 286.122C306.487 293.971 316.704 288.309 322.269 295.681C330.654 306.895 348.069 300.855 360.275 296.68C360.253 296.803 360.219 296.936 360.197 297.058C360.164 297.213 360.13 297.369 360.097 297.524C360.008 297.991 359.919 298.457 359.83 298.934C359.808 299.045 359.797 299.145 359.775 299.256C359.708 299.634 359.642 300.011 359.586 300.4C359.564 300.566 359.531 300.733 359.508 300.9C359.453 301.233 359.408 301.577 359.364 301.921C359.342 302.088 359.32 302.254 359.297 302.432C359.242 302.865 359.197 303.298 359.153 303.731C359.153 303.797 359.142 303.875 359.131 303.942C359.086 304.441 359.053 304.941 359.02 305.441C359.02 305.596 359.009 305.751 358.998 305.907C358.975 306.273 358.964 306.64 358.964 307.006C358.964 307.184 358.964 307.361 358.964 307.528C358.964 307.917 358.964 308.305 358.964 308.694C358.964 308.827 358.964 308.96 358.964 309.105C358.986 309.626 359.009 310.148 359.042 310.67C359.042 310.781 359.064 310.903 359.075 311.014C359.109 311.436 359.153 311.847 359.197 312.269C359.22 312.447 359.242 312.613 359.264 312.791C359.32 313.179 359.375 313.557 359.442 313.945C359.475 314.112 359.497 314.279 359.531 314.445C359.631 314.989 359.742 315.533 359.864 316.077C360.086 317.01 360.264 317.887 360.419 318.72C361.885 326.703 360.519 330.1 359.364 331.521C358.709 332.31 358.12 332.487 358.12 332.487L333.742 342.98L328.799 345.122C316.46 344.878 305.009 340.848 297.501 331.299C297.79 326.925 298.212 322.439 298.368 317.754L298.401 317.743Z" fill="url(#paint58_linear_356_3177)"/>
<path d="M328.833 345.122L302.577 353.894C302.577 353.894 298.168 354.182 297.39 343.546C297.09 339.504 297.257 335.452 297.524 331.299C305.032 340.848 316.482 344.878 328.821 345.122H328.833Z" fill="url(#paint59_linear_356_3177)"/>
<path d="M369.06 304.031C369.06 304.031 373.836 298.901 376.212 297.646C377.845 296.792 380.077 296.636 381.332 296.625C381.854 296.625 382.254 297.003 382.243 297.48L382.21 298.801C382.199 299.212 382.499 299.567 382.943 299.645L390.229 301C390.229 301 396.437 301.988 399.436 302.343C400.224 302.432 400.602 303.253 400.158 303.875L399.336 305.019C399.825 305.94 398.747 307.028 397.081 308.183C397.081 309.216 396.926 310.226 395.171 310.859L393.972 312.547C393.35 313.424 392.394 314.057 391.306 314.301L387.508 315.167C386.786 315.333 386.042 315.333 385.331 315.167L375.513 312.968C374.713 312.791 373.869 312.824 373.08 313.057L329.155 336.018L324.534 320.885L369.093 304.008L369.06 304.031Z" fill="url(#paint60_linear_356_3177)"/>
<path style="mix-blend-mode:multiply" opacity="0.4" d="M398.925 304.875C396.448 304.708 393.983 304.775 391.539 304.775C390.318 304.797 389.163 304.686 387.952 304.519L386.142 304.275L385.22 304.175C384.92 304.153 384.598 304.075 384.287 304.175C384.864 304.264 385.442 304.508 386.019 304.686C386.597 304.863 387.186 305.03 387.785 305.174C388.385 305.33 388.996 305.43 389.618 305.518C390.251 305.596 390.884 305.607 391.506 305.618C393.994 305.596 396.471 305.374 398.936 304.875H398.925Z" fill="url(#paint61_linear_356_3177)"/>
<path style="mix-blend-mode:multiply" opacity="0.4" d="M396.548 308.005C395.449 308.05 394.36 308.15 393.283 308.272C392.206 308.383 391.128 308.527 390.073 308.616C389.04 308.749 388.041 308.616 386.963 308.483C385.908 308.338 384.853 308.172 383.765 308.05C384.72 308.516 385.742 308.871 386.786 309.138C387.308 309.282 387.852 309.371 388.407 309.449C388.962 309.515 389.573 309.515 390.118 309.46C391.228 309.349 392.305 309.16 393.383 308.916C394.449 308.672 395.515 308.383 396.548 308.005Z" fill="url(#paint62_linear_356_3177)"/>
<path style="mix-blend-mode:multiply" opacity="0.4" d="M394.371 310.859C393.483 311.026 392.616 311.248 391.761 311.481C390.906 311.703 390.062 311.958 389.229 312.136C388.429 312.336 387.585 312.358 386.708 312.402C385.842 312.425 384.953 312.436 384.053 312.48C384.886 312.78 385.753 312.957 386.641 313.057C387.519 313.157 388.474 313.168 389.396 312.957C390.295 312.747 391.139 312.447 391.972 312.091C392.794 311.736 393.605 311.348 394.36 310.848L394.371 310.859Z" fill="url(#paint63_linear_356_3177)"/>
<path d="M311.984 270.733C311.984 270.733 320.736 272.62 321.547 287.632C322.347 302.643 324.879 314.256 324.879 314.256C324.879 314.256 348.558 301.754 366.406 303.387L369.593 318.076C369.593 318.076 356.821 338.605 321.103 339.204C292.604 339.682 290.993 296.625 295.758 282.047C297.768 275.951 304.843 272.498 311.984 270.733Z" fill="url(#paint64_linear_356_3177)"/>
<path d="M324.601 314.223C324.746 314.19 324.79 314.367 324.679 314.434C318.848 317.587 317.06 324.804 316.06 330.466C316.027 330.644 315.772 330.633 315.76 330.455C315.416 325.015 318.093 315.999 324.601 314.223Z" fill="#BA5044"/>
<path d="M320.281 314.978C320.381 314.978 320.381 315.111 320.281 315.133C315.772 316.21 312.229 318.542 309.663 322.139C309.574 322.262 309.374 322.162 309.419 322.028C311.074 317.909 315.505 315.022 320.27 314.978H320.281Z" fill="#BA5044"/>
<path d="M331.332 252.424C331.332 252.424 328.81 252.702 327.144 251.036C325.478 249.371 329.121 243.386 328.388 235.292C327.655 227.198 334.697 231.506 334.697 231.506L337.385 243.575L331.32 252.413L331.332 252.424Z" fill="url(#paint65_linear_356_3177)"/>
<path d="M327.045 267.291C325.801 272.387 342.638 275.119 343.915 270.022L351.779 239.323L334.641 236.592L327.989 263.372L327.034 267.291H327.045Z" fill="#EEBE9D"/>
<path d="M351.412 239.267C351.534 239.301 351.656 239.345 351.779 239.378L344.704 266.936C327.267 259.108 334.131 242.243 336.863 236.947L351.401 239.267H351.412Z" fill="#E9A785"/>
<path d="M330.865 243.964C329.721 254.134 338.195 262.894 346.636 263.349C352.889 263.694 357.576 255.7 360.108 245.651C363.473 232.461 357.132 226.788 348.547 226.344C339.961 225.899 332.031 233.794 330.865 243.964Z" fill="#EEBE9D"/>
<path d="M335.93 224.7C335.93 224.7 342.194 220.237 348.424 221.825C354.633 223.412 359.953 228.864 359.953 228.864C359.953 228.864 360.341 223.479 364.617 225.3C367.816 226.666 368.838 232.939 366.994 236.858C367.438 236.314 367.805 235.703 368.072 235.082C369.249 232.306 368.527 229.486 367.594 226.854C367.572 226.799 367.661 226.765 367.683 226.821C369.315 229.908 370.015 233.838 367.705 237.025C367.072 237.902 366.095 238.745 365.006 239.29C364.751 239.456 364.484 239.612 364.195 239.723C359.12 241.799 353.2 237.047 353.2 237.047C353.2 237.047 352.534 239.301 349.224 237.957C345.903 236.614 344.637 234.748 344.637 234.748C344.637 234.748 343.826 236.869 340.617 233.794C340.617 233.794 340.805 237.824 337.751 239.767C335.574 241.144 334.908 243.453 334.708 244.663C334.641 245.085 334.186 245.374 333.731 245.274L332.376 244.996C332.376 244.996 331.021 242.01 330.354 240.633C329.699 239.256 323.357 227.698 335.941 224.689L335.93 224.7Z" fill="url(#paint66_linear_356_3177)"/>
<path d="M324.768 243.753C324.479 246.351 326.2 248.571 328.622 248.694C331.032 248.827 332.931 249.415 333.231 246.817C333.531 244.208 332.109 239.389 329.688 239.267C327.267 239.145 325.056 241.144 324.768 243.753Z" fill="#EEBE9D"/>
<path d="M330.632 243.975C330.632 243.553 330.554 243.153 330.41 242.743C330.254 242.343 330.065 241.932 329.632 241.61C329.41 241.455 329.099 241.332 328.766 241.355C328.599 241.355 328.455 241.41 328.3 241.432C328.155 241.499 328 241.566 327.877 241.654C327.389 242.032 327.2 242.498 327.056 242.931C326.811 243.82 326.878 244.73 327.256 245.54C327.444 245.951 327.766 246.307 328.166 246.573C328.577 246.828 329.088 246.895 329.543 246.839C329.11 246.706 328.733 246.54 328.477 246.251C328.233 245.973 328.055 245.651 327.955 245.296C327.766 244.597 327.755 243.808 327.966 243.12C328.055 242.776 328.222 242.432 328.433 242.254C328.488 242.21 328.533 242.187 328.588 242.143C328.655 242.143 328.722 242.087 328.788 242.087C328.91 242.065 329.044 242.087 329.188 242.154C329.788 242.487 330.221 243.264 330.621 243.964L330.632 243.975Z" fill="#E9A785"/>
<path d="M352.323 223.335C362.274 228.065 363.607 218.827 363.607 218.827C363.607 218.827 377.268 227.01 370.593 238.845C363.907 250.692 340.594 233.805 340.594 233.805L352.323 223.335Z" fill="url(#paint67_linear_356_3177)"/>
<path d="M412.375 380.385L409.754 436.699C409.754 436.699 404.889 442.384 387.619 436.544L384.187 360.755L393.316 356.669C402.446 352.606 412.53 358.424 412.464 367.75L412.364 380.374L412.375 380.385Z" fill="url(#paint68_linear_356_3177)"/>
<path d="M307.164 360.489C307.164 360.489 310.94 370.193 319.081 371.247C346.036 374.778 390.506 361.244 395.76 364.763C396.471 365.241 426.447 416.003 426.447 416.003C426.447 416.003 449.692 404.59 448.693 404.9C447.704 405.211 418.428 338.427 413.352 335.663C408.254 332.898 362.385 338.15 362.385 338.15C362.385 338.15 334.108 344.301 307.164 360.489Z" fill="url(#paint69_linear_356_3177)"/>
<path d="M401.057 348.697C401.157 348.62 401.268 348.72 401.213 348.82C400.002 351.096 398.581 353.239 397.692 355.637C396.804 358.035 396.382 360.5 396.104 362.987C396.093 363.12 395.86 363.165 395.837 363.02C395.349 358.213 397.026 352.162 401.046 348.697H401.057Z" fill="url(#paint70_linear_356_3177)"/>
<path d="M392.017 349.93C392.039 349.752 392.295 349.763 392.306 349.93C392.55 353.405 392.817 356.914 392.728 360.411C392.728 360.622 392.372 360.677 392.328 360.467C391.584 357.036 391.606 353.45 392.017 349.93Z" fill="url(#paint71_linear_356_3177)"/>
<path d="M324.09 362.798C326.089 360.999 328.4 359.345 329.966 357.169C331.776 354.671 331.943 351.828 333.186 349.153C333.198 349.13 333.242 349.13 333.242 349.153C333.664 355.281 329.743 360.233 324.246 362.987C324.124 363.053 323.979 362.898 324.09 362.798Z" fill="url(#paint72_linear_356_3177)"/>
<path d="M190.603 373.423H127.374C126.152 373.423 125.164 372.391 125.164 371.114C125.164 369.837 126.152 368.805 127.374 368.805H252.199C252.476 368.805 252.721 368.993 252.821 369.26C253.92 372.524 260.129 392.842 252.821 415.859C252.732 416.136 252.476 416.325 252.199 416.325H127.374C126.152 416.325 125.164 415.293 125.164 414.016C125.164 412.739 126.152 411.706 127.374 411.706H190.569C190.869 411.706 191.125 411.495 191.202 411.196C196.256 392.065 192.091 376.71 191.213 373.879C191.125 373.601 190.88 373.412 190.592 373.412L190.603 373.423Z" fill="url(#paint73_linear_356_3177)"/>
<path d="M248.478 373.424C248.478 373.424 254.309 390.256 248.478 411.717H127.885V373.424H248.478Z" fill="url(#paint74_linear_356_3177)"/>
<path d="M235.617 381.973C202.309 380.174 168.512 380.185 135.215 381.973C168.523 383.76 202.32 383.771 235.617 381.973Z" fill="url(#paint75_linear_356_3177)"/>
<path d="M172.088 391.832C195.934 393.342 219.857 393.353 243.702 391.832C219.857 390.311 195.934 390.322 172.088 391.832Z" fill="url(#paint76_linear_356_3177)"/>
<path d="M150.242 403.002C174.087 404.512 198.011 404.523 221.856 403.002C198.011 401.481 174.087 401.492 150.242 403.002Z" fill="url(#paint77_linear_356_3177)"/>
<path d="M382.066 137.698H377.268L327.033 164.745L386.164 147.702L382.066 137.698Z" fill="url(#paint78_linear_356_3177)"/>
<path d="M367.139 129.038L327.033 164.745L382.066 137.698L367.139 129.038Z" fill="url(#paint79_linear_356_3177)"/>
<path d="M327.033 164.745L390.151 142.672L411.309 155.496L327.033 164.745Z" fill="url(#paint80_linear_356_3177)"/>
</g>
<defs>
<linearGradient id="paint0_linear_356_3177" x1="313.228" y1="68.9932" x2="306.591" y2="123.187" gradientUnits="userSpaceOnUse">
<stop stop-color="white"/>
<stop offset="1" stop-color="white" stop-opacity="0"/>
</linearGradient>
<linearGradient id="paint1_linear_356_3177" x1="170.5" y1="162.679" x2="357.143" y2="162.679" gradientUnits="userSpaceOnUse">
<stop stop-color="#72B2F9"/>
<stop offset="1" stop-color="#9BC8F9"/>
</linearGradient>
<linearGradient id="paint2_linear_356_3177" x1="68.7321" y1="471.917" x2="470.349" y2="446.809" gradientUnits="userSpaceOnUse">
<stop stop-color="#94A744"/>
<stop offset="0.39" stop-color="#9BAE49"/>
<stop offset="0.99" stop-color="#AFC459"/>
<stop offset="1" stop-color="#B0C55A"/>
</linearGradient>
<linearGradient id="paint3_linear_356_3177" x1="410.141" y1="443.455" x2="440.906" y2="378.331" gradientUnits="userSpaceOnUse">
<stop stop-color="#94A744"/>
<stop offset="0.39" stop-color="#9BAE49"/>
<stop offset="0.99" stop-color="#AFC459"/>
<stop offset="1" stop-color="#B0C55A"/>
</linearGradient>
<linearGradient id="paint4_linear_356_3177" x1="441.54" y1="320.396" x2="441.54" y2="360.611" gradientUnits="userSpaceOnUse">
<stop stop-color="white"/>
<stop offset="1" stop-color="white" stop-opacity="0"/>
</linearGradient>
<linearGradient id="paint5_linear_356_3177" x1="43.9791" y1="385.913" x2="127.547" y2="450.901" gradientUnits="userSpaceOnUse">
<stop stop-color="#94A744"/>
<stop offset="1" stop-color="#738034"/>
</linearGradient>
<linearGradient id="paint6_linear_356_3177" x1="36.4193" y1="395.637" x2="119.987" y2="460.625" gradientUnits="userSpaceOnUse">
<stop stop-color="#94A744"/>
<stop offset="1" stop-color="#738034"/>
</linearGradient>
<linearGradient id="paint7_linear_356_3177" x1="128.087" y1="445.463" x2="93.0388" y2="368.446" gradientUnits="userSpaceOnUse">
<stop stop-color="#94A744"/>
<stop offset="0.39" stop-color="#9BAE49"/>
<stop offset="0.99" stop-color="#AFC459"/>
<stop offset="1" stop-color="#B0C55A"/>
</linearGradient>
<linearGradient id="paint8_linear_356_3177" x1="120.369" y1="448.974" x2="85.3108" y2="371.962" gradientUnits="userSpaceOnUse">
<stop stop-color="#94A744"/>
<stop offset="0.39" stop-color="#9BAE49"/>
<stop offset="0.99" stop-color="#AFC459"/>
<stop offset="1" stop-color="#B0C55A"/>
</linearGradient>
<linearGradient id="paint9_linear_356_3177" x1="158.55" y1="300.589" x2="158.55" y2="341.203" gradientUnits="userSpaceOnUse">
<stop stop-color="white"/>
<stop offset="1" stop-color="white" stop-opacity="0"/>
</linearGradient>
<linearGradient id="paint10_linear_356_3177" x1="117.286" y1="225.728" x2="127.239" y2="273.991" gradientUnits="userSpaceOnUse">
<stop stop-color="#94A744"/>
<stop offset="1" stop-color="#738034"/>
</linearGradient>
<linearGradient id="paint11_linear_356_3177" x1="147.746" y1="344.244" x2="81.5058" y2="248.472" gradientUnits="userSpaceOnUse">
<stop stop-color="#94A744"/>
<stop offset="0.39" stop-color="#9BAE49"/>
<stop offset="0.99" stop-color="#AFC459"/>
<stop offset="1" stop-color="#B0C55A"/>
</linearGradient>
<linearGradient id="paint12_linear_356_3177" x1="146.591" y1="345.036" x2="80.3581" y2="249.274" gradientUnits="userSpaceOnUse">
<stop stop-color="#94A744"/>
<stop offset="0.39" stop-color="#9BAE49"/>
<stop offset="0.99" stop-color="#AFC459"/>
<stop offset="1" stop-color="#B0C55A"/>
</linearGradient>
<linearGradient id="paint13_linear_356_3177" x1="145.938" y1="345.497" x2="79.7065" y2="249.719" gradientUnits="userSpaceOnUse">
<stop stop-color="#94A744"/>
<stop offset="0.39" stop-color="#9BAE49"/>
<stop offset="0.99" stop-color="#AFC459"/>
<stop offset="1" stop-color="#B0C55A"/>
</linearGradient>
<linearGradient id="paint14_linear_356_3177" x1="145.78" y1="345.601" x2="79.5554" y2="249.832" gradientUnits="userSpaceOnUse">
<stop stop-color="#94A744"/>
<stop offset="0.39" stop-color="#9BAE49"/>
<stop offset="0.99" stop-color="#AFC459"/>
<stop offset="1" stop-color="#B0C55A"/>
</linearGradient>
<linearGradient id="paint15_linear_356_3177" x1="146.131" y1="345.366" x2="79.8911" y2="249.595" gradientUnits="userSpaceOnUse">
<stop stop-color="#94A744"/>
<stop offset="0.39" stop-color="#9BAE49"/>
<stop offset="0.99" stop-color="#AFC459"/>
<stop offset="1" stop-color="#B0C55A"/>
</linearGradient>
<linearGradient id="paint16_linear_356_3177" x1="146.97" y1="344.782" x2="80.7297" y2="249.01" gradientUnits="userSpaceOnUse">
<stop stop-color="#94A744"/>
<stop offset="0.39" stop-color="#9BAE49"/>
<stop offset="0.99" stop-color="#AFC459"/>
<stop offset="1" stop-color="#B0C55A"/>
</linearGradient>
<linearGradient id="paint17_linear_356_3177" x1="148.302" y1="343.856" x2="82.0776" y2="248.087" gradientUnits="userSpaceOnUse">
<stop stop-color="#94A744"/>
<stop offset="0.39" stop-color="#9BAE49"/>
<stop offset="0.99" stop-color="#AFC459"/>
<stop offset="1" stop-color="#B0C55A"/>
</linearGradient>
<linearGradient id="paint18_linear_356_3177" x1="150.152" y1="342.585" x2="83.9124" y2="246.813" gradientUnits="userSpaceOnUse">
<stop stop-color="#94A744"/>
<stop offset="0.39" stop-color="#9BAE49"/>
<stop offset="0.99" stop-color="#AFC459"/>
<stop offset="1" stop-color="#B0C55A"/>
</linearGradient>
<linearGradient id="paint19_linear_356_3177" x1="133.177" y1="354.319" x2="66.9504" y2="258.565" gradientUnits="userSpaceOnUse">
<stop stop-color="#94A744"/>
<stop offset="0.39" stop-color="#9BAE49"/>
<stop offset="0.99" stop-color="#AFC459"/>
<stop offset="1" stop-color="#B0C55A"/>
</linearGradient>
<linearGradient id="paint20_linear_356_3177" x1="132.19" y1="355.001" x2="65.9632" y2="259.248" gradientUnits="userSpaceOnUse">
<stop stop-color="#94A744"/>
<stop offset="0.39" stop-color="#9BAE49"/>
<stop offset="0.99" stop-color="#AFC459"/>
<stop offset="1" stop-color="#B0C55A"/>
</linearGradient>
<linearGradient id="paint21_linear_356_3177" x1="131.723" y1="355.322" x2="65.4959" y2="259.569" gradientUnits="userSpaceOnUse">
<stop stop-color="#94A744"/>
<stop offset="0.39" stop-color="#9BAE49"/>
<stop offset="0.99" stop-color="#AFC459"/>
<stop offset="1" stop-color="#B0C55A"/>
</linearGradient>
<linearGradient id="paint22_linear_356_3177" x1="131.776" y1="355.283" x2="65.5582" y2="259.522" gradientUnits="userSpaceOnUse">
<stop stop-color="#94A744"/>
<stop offset="0.39" stop-color="#9BAE49"/>
<stop offset="0.99" stop-color="#AFC459"/>
<stop offset="1" stop-color="#B0C55A"/>
</linearGradient>
<linearGradient id="paint23_linear_356_3177" x1="132.359" y1="354.875" x2="66.1319" y2="259.121" gradientUnits="userSpaceOnUse">
<stop stop-color="#94A744"/>
<stop offset="0.39" stop-color="#9BAE49"/>
<stop offset="0.99" stop-color="#AFC459"/>
<stop offset="1" stop-color="#B0C55A"/>
</linearGradient>
<linearGradient id="paint24_linear_356_3177" x1="133.468" y1="354.115" x2="67.2351" y2="258.353" gradientUnits="userSpaceOnUse">
<stop stop-color="#94A744"/>
<stop offset="0.39" stop-color="#9BAE49"/>
<stop offset="0.99" stop-color="#AFC459"/>
<stop offset="1" stop-color="#B0C55A"/>
</linearGradient>
<linearGradient id="paint25_linear_356_3177" x1="135.119" y1="352.966" x2="68.9011" y2="257.206" gradientUnits="userSpaceOnUse">
<stop stop-color="#94A744"/>
<stop offset="0.39" stop-color="#9BAE49"/>
<stop offset="0.99" stop-color="#AFC459"/>
<stop offset="1" stop-color="#B0C55A"/>
</linearGradient>
<linearGradient id="paint26_linear_356_3177" x1="127.564" y1="334.674" x2="74.9679" y2="258.62" gradientUnits="userSpaceOnUse">
<stop stop-color="#94A744"/>
<stop offset="0.39" stop-color="#9BAE49"/>
<stop offset="0.99" stop-color="#AFC459"/>
<stop offset="1" stop-color="#B0C55A"/>
</linearGradient>
<linearGradient id="paint27_linear_356_3177" x1="147.279" y1="344.565" x2="81.0543" y2="248.795" gradientUnits="userSpaceOnUse">
<stop stop-color="#94A744"/>
<stop offset="0.39" stop-color="#9BAE49"/>
<stop offset="0.99" stop-color="#AFC459"/>
<stop offset="1" stop-color="#B0C55A"/>
</linearGradient>
<linearGradient id="paint28_linear_356_3177" x1="93.0441" y1="190.415" x2="66.9912" y2="251.62" gradientUnits="userSpaceOnUse">
<stop stop-color="#D5E7FB"/>
<stop offset="0.24" stop-color="#D0E4FB"/>
<stop offset="0.51" stop-color="#C3DEFB"/>
<stop offset="0.79" stop-color="#ADD3FB"/>
<stop offset="1" stop-color="#98C9FC"/>
</linearGradient>
<linearGradient id="paint29_linear_356_3177" x1="337.198" y1="284.52" x2="334.314" y2="299.419" gradientUnits="userSpaceOnUse">
<stop stop-color="#E093E3"/>
<stop offset="0.28" stop-color="#D78FE6"/>
<stop offset="0.74" stop-color="#BE86F0"/>
<stop offset="1" stop-color="#AE80F7"/>
</linearGradient>
<linearGradient id="paint30_linear_356_3177" x1="227.742" y1="371.181" x2="250.042" y2="282.254" gradientUnits="userSpaceOnUse">
<stop stop-color="#CC3D76"/>
<stop offset="0.99" stop-color="#DB719F"/>
</linearGradient>
<linearGradient id="paint31_linear_356_3177" x1="337.601" y1="341.8" x2="127.452" y2="355.991" gradientUnits="userSpaceOnUse">
<stop stop-color="#D5E7FB"/>
<stop offset="0.24" stop-color="#D0E4FB"/>
<stop offset="0.51" stop-color="#C3DEFB"/>
<stop offset="0.79" stop-color="#ADD3FB"/>
<stop offset="1" stop-color="#98C9FC"/>
</linearGradient>
<linearGradient id="paint32_linear_356_3177" x1="272.17" y1="317.548" x2="333.438" y2="221.623" gradientUnits="userSpaceOnUse">
<stop stop-color="#A0325E"/>
<stop offset="0.99" stop-color="#AE5B80"/>
</linearGradient>
<linearGradient id="paint33_linear_356_3177" x1="209.564" y1="121.771" x2="175.984" y2="272.285" gradientUnits="userSpaceOnUse">
<stop stop-color="white"/>
<stop offset="0.28" stop-color="#F9FCFE"/>
<stop offset="0.64" stop-color="#EAF4FE"/>
<stop offset="1" stop-color="#D3E9FD"/>
</linearGradient>
<linearGradient id="paint34_linear_356_3177" x1="275.076" y1="136.39" x2="241.485" y2="286.905" gradientUnits="userSpaceOnUse">
<stop stop-color="white"/>
<stop offset="0.28" stop-color="#F9FCFE"/>
<stop offset="0.64" stop-color="#EAF4FE"/>
<stop offset="1" stop-color="#D3E9FD"/>
</linearGradient>
<linearGradient id="paint35_linear_356_3177" x1="239.561" y1="128.463" x2="205.97" y2="278.978" gradientUnits="userSpaceOnUse">
<stop stop-color="white"/>
<stop offset="0.28" stop-color="#F9FCFE"/>
<stop offset="0.64" stop-color="#EAF4FE"/>
<stop offset="1" stop-color="#D3E9FD"/>
</linearGradient>
<linearGradient id="paint36_linear_356_3177" x1="249.397" y1="130.665" x2="215.805" y2="281.169" gradientUnits="userSpaceOnUse">
<stop stop-color="white"/>
<stop offset="0.28" stop-color="#F9FCFE"/>
<stop offset="0.64" stop-color="#EAF4FE"/>
<stop offset="1" stop-color="#D3E9FD"/>
</linearGradient>
<linearGradient id="paint37_linear_356_3177" x1="259.232" y1="132.857" x2="225.641" y2="283.372" gradientUnits="userSpaceOnUse">
<stop stop-color="white"/>
<stop offset="0.28" stop-color="#F9FCFE"/>
<stop offset="0.64" stop-color="#EAF4FE"/>
<stop offset="1" stop-color="#D3E9FD"/>
</linearGradient>
<linearGradient id="paint38_linear_356_3177" x1="177.928" y1="359.435" x2="293.805" y2="335.599" gradientUnits="userSpaceOnUse">
<stop stop-color="#B3C2D2"/>
<stop offset="0.27" stop-color="#AEBFD2"/>
<stop offset="0.56" stop-color="#A1B9D2"/>
<stop offset="0.87" stop-color="#8BADD2"/>
<stop offset="1" stop-color="#80A8D3"/>
</linearGradient>
<linearGradient id="paint39_linear_356_3177" x1="214.146" y1="358.893" x2="330.023" y2="335.057" gradientUnits="userSpaceOnUse">
<stop stop-color="#B3C2D2"/>
<stop offset="0.27" stop-color="#AEBFD2"/>
<stop offset="0.56" stop-color="#A1B9D2"/>
<stop offset="0.87" stop-color="#8BADD2"/>
<stop offset="1" stop-color="#80A8D3"/>
</linearGradient>
<linearGradient id="paint40_linear_356_3177" x1="321.158" y1="456.174" x2="466.365" y2="630.334" gradientUnits="userSpaceOnUse">
<stop stop-color="#72B2F9"/>
<stop offset="1" stop-color="#9BC8F9"/>
</linearGradient>
<linearGradient id="paint41_linear_356_3177" x1="163.203" y1="397.062" x2="197.039" y2="458.758" gradientUnits="userSpaceOnUse">
<stop stop-color="#72B2F9"/>
<stop offset="1" stop-color="#9BC8F9"/>
</linearGradient>
<linearGradient id="paint42_linear_356_3177" x1="301.178" y1="410.452" x2="327.354" y2="458.179" gradientUnits="userSpaceOnUse">
<stop stop-color="white"/>
<stop offset="0.28" stop-color="#F9FCFE"/>
<stop offset="0.64" stop-color="#EAF4FE"/>
<stop offset="1" stop-color="#D3E9FD"/>
</linearGradient>
<linearGradient id="paint43_linear_356_3177" x1="179.685" y1="399.826" x2="170.706" y2="466.011" gradientUnits="userSpaceOnUse">
<stop stop-color="white"/>
<stop offset="0.28" stop-color="#F9FCFE"/>
<stop offset="0.64" stop-color="#EAF4FE"/>
<stop offset="1" stop-color="#D3E9FD"/>
</linearGradient>
<linearGradient id="paint44_linear_356_3177" x1="120.932" y1="429.515" x2="221.334" y2="429.515" gradientUnits="userSpaceOnUse">
<stop stop-color="#D5E7FB"/>
<stop offset="0.24" stop-color="#D0E4FB"/>
<stop offset="0.51" stop-color="#C3DEFB"/>
<stop offset="0.79" stop-color="#ADD3FB"/>
<stop offset="1" stop-color="#98C9FC"/>
</linearGradient>
<linearGradient id="paint45_linear_356_3177" x1="157.805" y1="439.364" x2="229.419" y2="439.364" gradientUnits="userSpaceOnUse">
<stop stop-color="#D5E7FB"/>
<stop offset="0.24" stop-color="#D0E4FB"/>
<stop offset="0.51" stop-color="#C3DEFB"/>
<stop offset="0.79" stop-color="#ADD3FB"/>
<stop offset="1" stop-color="#98C9FC"/>
</linearGradient>
<linearGradient id="paint46_linear_356_3177" x1="337.429" y1="345.7" x2="312.043" y2="428.443" gradientUnits="userSpaceOnUse">
<stop stop-color="#DFA23E"/>
<stop offset="0.28" stop-color="#DE9E3C"/>
<stop offset="0.52" stop-color="#DB9335"/>
<stop offset="0.76" stop-color="#D8812B"/>
<stop offset="0.98" stop-color="#D2681D"/>
<stop offset="1" stop-color="#D2661C"/>
</linearGradient>
<linearGradient id="paint47_linear_356_3177" x1="315.272" y1="363.031" x2="341.481" y2="410.825" gradientUnits="userSpaceOnUse">
<stop stop-color="white"/>
<stop offset="0.28" stop-color="#F9FCFE"/>
<stop offset="0.64" stop-color="#EAF4FE"/>
<stop offset="1" stop-color="#D3E9FD"/>
</linearGradient>
<linearGradient id="paint48_linear_356_3177" x1="396.648" y1="436.677" x2="398.835" y2="456.518" gradientUnits="userSpaceOnUse">
<stop stop-color="#E9A78D"/>
<stop offset="1" stop-color="#ECCDB8"/>
</linearGradient>
<linearGradient id="paint49_linear_356_3177" x1="442.684" y1="404.556" x2="459.604" y2="423.703" gradientUnits="userSpaceOnUse">
<stop stop-color="#E9A78D"/>
<stop offset="1" stop-color="#ECCDB8"/>
</linearGradient>
<linearGradient id="paint50_linear_356_3177" x1="466.096" y1="419.356" x2="426.79" y2="451.9" gradientUnits="userSpaceOnUse">
<stop stop-color="#CF4D4C"/>
<stop offset="0.35" stop-color="#CC4948"/>
<stop offset="0.63" stop-color="#C4403F"/>
<stop offset="0.87" stop-color="#B72F2E"/>
<stop offset="1" stop-color="#AE2423"/>
</linearGradient>
<linearGradient id="paint51_linear_356_3177" x1="345.848" y1="223.412" x2="377.595" y2="306.213" gradientUnits="userSpaceOnUse">
<stop stop-color="#D89D3C"/>
<stop offset="0.28" stop-color="#D7993A"/>
<stop offset="0.53" stop-color="#D48E33"/>
<stop offset="0.77" stop-color="#D07C29"/>
<stop offset="0.99" stop-color="#CB631B"/>
<stop offset="1" stop-color="#CB631B"/>
</linearGradient>
<linearGradient id="paint52_linear_356_3177" x1="406.5" y1="285.089" x2="414.914" y2="305.665" gradientUnits="userSpaceOnUse">
<stop stop-color="#557ABF"/>
<stop offset="0.33" stop-color="#5377BD"/>
<stop offset="0.56" stop-color="#4D6EB9"/>
<stop offset="0.76" stop-color="#435EB1"/>
<stop offset="0.94" stop-color="#3549A6"/>
<stop offset="1" stop-color="#2F40A2"/>
</linearGradient>
<linearGradient id="paint53_linear_356_3177" x1="398.414" y1="279.671" x2="399.125" y2="328.435" gradientUnits="userSpaceOnUse">
<stop stop-color="#597FC8"/>
<stop offset="0.33" stop-color="#577CC6"/>
<stop offset="0.56" stop-color="#5173C2"/>
<stop offset="0.75" stop-color="#4763BA"/>
<stop offset="0.93" stop-color="#384EB0"/>
<stop offset="1" stop-color="#3244AB"/>
</linearGradient>
<linearGradient id="paint54_linear_356_3177" x1="427.057" y1="314.134" x2="416.729" y2="314.134" gradientUnits="userSpaceOnUse">
<stop stop-color="#E9A78D"/>
<stop offset="1" stop-color="#ECCDB8"/>
</linearGradient>
<linearGradient id="paint55_linear_356_3177" x1="413.397" y1="279.504" x2="414.107" y2="328.224" gradientUnits="userSpaceOnUse">
<stop stop-color="#597FC8"/>
<stop offset="0.33" stop-color="#577CC6"/>
<stop offset="0.56" stop-color="#5173C2"/>
<stop offset="0.75" stop-color="#4763BA"/>
<stop offset="0.93" stop-color="#384EB0"/>
<stop offset="1" stop-color="#3244AB"/>
</linearGradient>
<linearGradient id="paint56_linear_356_3177" x1="395.915" y1="283.224" x2="403.531" y2="296.227" gradientUnits="userSpaceOnUse">
<stop stop-color="#557ABF"/>
<stop offset="0.33" stop-color="#5377BD"/>
<stop offset="0.56" stop-color="#4D6EB9"/>
<stop offset="0.76" stop-color="#435EB1"/>
<stop offset="0.94" stop-color="#3549A6"/>
<stop offset="1" stop-color="#2F40A2"/>
</linearGradient>
<linearGradient id="paint57_linear_356_3177" x1="312.295" y1="251.347" x2="369.846" y2="335.568" gradientUnits="userSpaceOnUse">
<stop stop-color="#DFA23E"/>
<stop offset="0.28" stop-color="#DE9E3C"/>
<stop offset="0.52" stop-color="#DB9335"/>
<stop offset="0.76" stop-color="#D8812B"/>
<stop offset="0.98" stop-color="#D2681D"/>
<stop offset="1" stop-color="#D2661C"/>
</linearGradient>
<linearGradient id="paint58_linear_356_3177" x1="300.789" y1="240.7" x2="332.536" y2="323.501" gradientUnits="userSpaceOnUse">
<stop stop-color="#D89D3C"/>
<stop offset="0.28" stop-color="#D7993A"/>
<stop offset="0.53" stop-color="#D48E33"/>
<stop offset="0.77" stop-color="#D07C29"/>
<stop offset="0.99" stop-color="#CB631B"/>
<stop offset="1" stop-color="#CB631B"/>
</linearGradient>
<linearGradient id="paint59_linear_356_3177" x1="268.336" y1="281.381" x2="325.887" y2="365.613" gradientUnits="userSpaceOnUse">
<stop stop-color="#DFA23E"/>
<stop offset="0.28" stop-color="#DE9E3C"/>
<stop offset="0.52" stop-color="#DB9335"/>
<stop offset="0.76" stop-color="#D8812B"/>
<stop offset="0.98" stop-color="#D2681D"/>
<stop offset="1" stop-color="#D2661C"/>
</linearGradient>
<linearGradient id="paint60_linear_356_3177" x1="388.907" y1="294.404" x2="367.399" y2="310.677" gradientUnits="userSpaceOnUse">
<stop stop-color="#E9A78D"/>
<stop offset="1" stop-color="#ECCDB8"/>
</linearGradient>
<linearGradient id="paint61_linear_356_3177" x1="398.925" y1="304.874" x2="384.276" y2="304.874" gradientUnits="userSpaceOnUse">
<stop stop-color="#E9A78D"/>
<stop offset="1" stop-color="#ECCDB8"/>
</linearGradient>
<linearGradient id="paint62_linear_356_3177" x1="396.548" y1="308.76" x2="383.765" y2="308.76" gradientUnits="userSpaceOnUse">
<stop stop-color="#E9A78D"/>
<stop offset="1" stop-color="#ECCDB8"/>
</linearGradient>
<linearGradient id="paint63_linear_356_3177" x1="394.371" y1="311.992" x2="384.065" y2="311.992" gradientUnits="userSpaceOnUse">
<stop stop-color="#E9A78D"/>
<stop offset="1" stop-color="#ECCDB8"/>
</linearGradient>
<linearGradient id="paint64_linear_356_3177" x1="296.857" y1="261.895" x2="354.419" y2="346.116" gradientUnits="userSpaceOnUse">
<stop stop-color="#DFA23E"/>
<stop offset="0.28" stop-color="#DE9E3C"/>
<stop offset="0.52" stop-color="#DB9335"/>
<stop offset="0.76" stop-color="#D8812B"/>
<stop offset="0.98" stop-color="#D2681D"/>
<stop offset="1" stop-color="#D2661C"/>
</linearGradient>
<linearGradient id="paint65_linear_356_3177" x1="359.458" y1="257.724" x2="326.657" y2="238.422" gradientUnits="userSpaceOnUse">
<stop stop-color="#5E2D15"/>
<stop offset="1" stop-color="#7D4911"/>
</linearGradient>
<linearGradient id="paint66_linear_356_3177" x1="366.743" y1="245.336" x2="333.932" y2="226.046" gradientUnits="userSpaceOnUse">
<stop stop-color="#5E2D15"/>
<stop offset="1" stop-color="#7D4911"/>
</linearGradient>
<linearGradient id="paint67_linear_356_3177" x1="371.416" y1="237.401" x2="338.604" y2="218.1" gradientUnits="userSpaceOnUse">
<stop stop-color="#5E2D15"/>
<stop offset="1" stop-color="#7D4911"/>
</linearGradient>
<linearGradient id="paint68_linear_356_3177" x1="398.303" y1="368.805" x2="397.171" y2="453.642" gradientUnits="userSpaceOnUse">
<stop stop-color="#36366B"/>
<stop offset="1" stop-color="#484883"/>
</linearGradient>
<linearGradient id="paint69_linear_356_3177" x1="356.432" y1="346.621" x2="413.094" y2="392.538" gradientUnits="userSpaceOnUse">
<stop stop-color="#676795"/>
<stop offset="1" stop-color="#484883"/>
</linearGradient>
<linearGradient id="paint70_linear_356_3177" x1="401.235" y1="355.892" x2="395.76" y2="355.892" gradientUnits="userSpaceOnUse">
<stop stop-color="#36366B"/>
<stop offset="1" stop-color="#484883"/>
</linearGradient>
<linearGradient id="paint71_linear_356_3177" x1="392.75" y1="355.193" x2="391.739" y2="355.193" gradientUnits="userSpaceOnUse">
<stop stop-color="#36366B"/>
<stop offset="1" stop-color="#484883"/>
</linearGradient>
<linearGradient id="paint72_linear_356_3177" x1="333.275" y1="356.07" x2="324.057" y2="356.07" gradientUnits="userSpaceOnUse">
<stop stop-color="#36366B"/>
<stop offset="1" stop-color="#484883"/>
</linearGradient>
<linearGradient id="paint73_linear_356_3177" x1="197.1" y1="316.521" x2="195.113" y2="337.506" gradientUnits="userSpaceOnUse">
<stop stop-color="#DFA23E"/>
<stop offset="0.28" stop-color="#DE9E3C"/>
<stop offset="0.52" stop-color="#DB9335"/>
<stop offset="0.76" stop-color="#D8812B"/>
<stop offset="0.98" stop-color="#D2681D"/>
<stop offset="1" stop-color="#D2661C"/>
</linearGradient>
<linearGradient id="paint74_linear_356_3177" x1="193.968" y1="352.295" x2="184.988" y2="418.48" gradientUnits="userSpaceOnUse">
<stop stop-color="white"/>
<stop offset="0.28" stop-color="#F9FCFE"/>
<stop offset="0.64" stop-color="#EAF4FE"/>
<stop offset="1" stop-color="#D3E9FD"/>
</linearGradient>
<linearGradient id="paint75_linear_356_3177" x1="135.215" y1="381.973" x2="235.617" y2="381.973" gradientUnits="userSpaceOnUse">
<stop stop-color="#D5E7FB"/>
<stop offset="0.24" stop-color="#D0E4FB"/>
<stop offset="0.51" stop-color="#C3DEFB"/>
<stop offset="0.79" stop-color="#ADD3FB"/>
<stop offset="1" stop-color="#98C9FC"/>
</linearGradient>
<linearGradient id="paint76_linear_356_3177" x1="172.088" y1="391.832" x2="243.702" y2="391.832" gradientUnits="userSpaceOnUse">
<stop stop-color="#D5E7FB"/>
<stop offset="0.24" stop-color="#D0E4FB"/>
<stop offset="0.51" stop-color="#C3DEFB"/>
<stop offset="0.79" stop-color="#ADD3FB"/>
<stop offset="1" stop-color="#98C9FC"/>
</linearGradient>
<linearGradient id="paint77_linear_356_3177" x1="150.242" y1="403.002" x2="221.867" y2="403.002" gradientUnits="userSpaceOnUse">
<stop stop-color="#D5E7FB"/>
<stop offset="0.24" stop-color="#D0E4FB"/>
<stop offset="0.51" stop-color="#C3DEFB"/>
<stop offset="0.79" stop-color="#ADD3FB"/>
<stop offset="1" stop-color="#98C9FC"/>
</linearGradient>
<linearGradient id="paint78_linear_356_3177" x1="378.089" y1="91.621" x2="350.328" y2="175.12" gradientUnits="userSpaceOnUse">
<stop/>
<stop offset="1" stop-color="#474747"/>
</linearGradient>
<linearGradient id="paint79_linear_356_3177" x1="376.946" y1="83.8935" x2="346.931" y2="174.199" gradientUnits="userSpaceOnUse">
<stop stop-color="white"/>
<stop offset="0.28" stop-color="#F9FCFE"/>
<stop offset="0.64" stop-color="#EAF4FE"/>
<stop offset="1" stop-color="#D3E9FD"/>
</linearGradient>
<linearGradient id="paint80_linear_356_3177" x1="389.218" y1="99.8594" x2="362.855" y2="179.15" gradientUnits="userSpaceOnUse">
<stop stop-color="white"/>
<stop offset="0.28" stop-color="#F9FCFE"/>
<stop offset="0.64" stop-color="#EAF4FE"/>
<stop offset="1" stop-color="#D3E9FD"/>
</linearGradient>
<clipPath id="clip0_356_3177">
<rect width="444" height="404.601" fill="white" transform="translate(40 60)"/>
</clipPath>
</defs>
</svg>
