<svg width="293" height="267" viewBox="0 0 293 267" fill="none" xmlns="http://www.w3.org/2000/svg">
<g clip-path="url(#clip0_1_2046)">
<path opacity="0.44" d="M150.073 0.0146484C90.9629 1.04774 26.715 75.4525 48.8346 135.123C69.0119 189.562 23.2703 237.971 28.7672 266.516" fill="#C1152E"/>
<path opacity="0.44" d="M250.41 266.517C264.878 249.386 303.305 198.545 276.876 169.523C244.752 134.251 218.418 118.029 233.692 85.8643C248.959 53.6992 209.176 -1.01819 150.073 0.0149091" fill="#C1152E"/>
<path style="mix-blend-mode:overlay" opacity="0.8" d="M217.846 39.0748C218.051 39.5217 134.645 39.0748 134.645 39.0748C134.645 39.0748 138.72 29.733 153.789 30.3997C153.789 30.3997 160.107 14.3025 173.226 14.1193C186.345 13.9362 189.629 25.5493 189.629 25.5493C189.629 25.5493 203.84 24.6115 206.757 34.4735C206.757 34.4735 215.457 33.7994 217.846 39.0675V39.0748Z" fill="url(#paint0_linear_1_2046)"/>
<path d="M147.706 119.641C181.489 119.641 208.875 96.4129 208.875 67.7593C208.875 39.1057 181.489 15.8774 147.706 15.8774C113.923 15.8774 86.536 39.1057 86.536 67.7593C86.536 96.4129 113.923 119.641 147.706 119.641Z" stroke="url(#paint1_linear_1_2046)" stroke-width="1.13" stroke-miterlimit="10" stroke-linecap="round"/>
<path d="M12.5403 267C12.5403 259.857 74.714 254.068 151.407 254.068C228.1 254.068 290.274 259.857 290.274 267" fill="url(#paint2_linear_1_2046)"/>
<path d="M235.224 262.15C235.224 262.15 225.967 236.66 268.315 207.887C268.315 207.887 265.875 252.639 235.224 262.15Z" fill="url(#paint3_linear_1_2046)"/>
<path style="mix-blend-mode:overlay" opacity="0.8" d="M280.489 174.249C269.011 176.191 263.463 190.31 263.463 190.31C248.394 189.636 244.319 198.985 244.319 198.985C244.319 198.985 264.929 199.095 285.634 199.153" fill="url(#paint4_linear_1_2046)"/>
<path d="M56.0758 261.227C56.0758 261.227 52.5065 234.557 0 218.54L56.0758 261.227Z" fill="url(#paint5_linear_1_2046)"/>
<path d="M0 218.54C0 218.54 23.4315 260.369 56.0758 261.227L0 218.54Z" fill="url(#paint6_linear_1_2046)"/>
<path d="M61.778 259.175C61.778 259.175 69.525 231.061 23.197 195.387L61.778 259.175Z" fill="url(#paint7_linear_1_2046)"/>
<path d="M23.197 195.387C23.197 195.387 29.097 246.14 61.778 259.175L23.197 195.387Z" fill="url(#paint8_linear_1_2046)"/>
<path style="mix-blend-mode:overlay" opacity="0.8" d="M104.925 186.155C102.528 180.887 93.836 181.561 93.836 181.561C90.9189 171.699 76.7076 172.637 76.7076 172.637C76.7076 172.637 73.4241 161.024 60.3048 161.207C57.9888 161.236 55.8853 161.778 53.987 162.628C54.1336 170.739 53.1735 178.645 51.5391 186.294C75.4616 186.382 105.05 186.433 104.925 186.162V186.155Z" fill="url(#paint9_linear_1_2046)"/>
<path d="M29.9912 131.349C29.7053 131.459 29.5734 131.796 29.6907 132.104C43.2497 167.508 67.2529 198.054 98.6219 219.631C98.8931 219.822 99.2522 219.771 99.4281 219.522C99.5967 219.272 99.5161 218.921 99.2449 218.73C68.0591 197.284 44.1952 166.914 30.7168 131.716C30.5995 131.408 30.277 131.247 29.9912 131.357V131.349Z" fill="url(#paint10_linear_1_2046)"/>
<path d="M71.9582 180.528C71.8849 180.499 71.819 180.477 71.7457 180.455C69.7301 179.788 68.8506 182.052 68.4915 183.62C67.5241 187.679 68.1397 192.661 68.1544 192.661C68.1544 192.661 71.1887 188.976 72.8011 185.173C73.2262 184.169 73.7026 182.88 73.3508 181.774C73.1382 181.114 72.5739 180.755 71.9582 180.528Z" fill="url(#paint11_linear_1_2046)"/>
<path d="M66.6959 174.183C66.6299 174.153 66.5566 174.124 66.4906 174.102C64.5118 173.347 63.5223 175.56 63.0972 177.114C61.9392 181.121 62.3203 186.126 62.335 186.126C62.335 186.126 65.5378 182.587 67.3262 178.865C67.8026 177.883 68.3303 176.623 68.0371 175.502C67.8612 174.835 67.3042 174.447 66.7032 174.19L66.6959 174.183Z" fill="url(#paint12_linear_1_2046)"/>
<path d="M61.7413 167.589C61.6754 167.559 61.6094 167.523 61.5361 167.494C59.5939 166.644 58.5018 168.812 58.0034 170.344C56.6622 174.293 56.8014 179.304 56.8161 179.304C56.8161 179.304 60.1802 175.919 62.1444 172.285C62.6648 171.325 63.2585 170.087 63.0093 168.959C62.8627 168.277 62.3277 167.874 61.734 167.589H61.7413Z" fill="url(#paint13_linear_1_2046)"/>
<path d="M57.0945 160.774C57.0286 160.738 56.9626 160.701 56.8967 160.672C54.9984 159.734 53.8111 161.852 53.232 163.354C51.7076 167.237 51.6196 172.248 51.627 172.248C51.627 172.248 55.145 169.025 57.2778 165.486C57.8421 164.555 58.4871 163.346 58.2965 162.203C58.1793 161.522 57.6662 161.09 57.0872 160.774H57.0945Z" fill="url(#paint14_linear_1_2046)"/>
<path d="M52.7703 153.748C52.7043 153.711 52.6384 153.675 52.5797 153.638C50.7254 152.612 49.4355 154.671 48.7979 156.144C47.0975 159.954 46.7677 164.958 46.7823 164.958C46.7823 164.958 50.4469 161.903 52.741 158.467C53.3493 157.558 54.0529 156.386 53.9136 155.228C53.833 154.539 53.3346 154.085 52.7776 153.741L52.7703 153.748Z" fill="url(#paint15_linear_1_2046)"/>
<path d="M48.7759 146.509C48.7172 146.465 48.6513 146.428 48.5853 146.392C46.7823 145.278 45.3971 147.271 44.6862 148.714C42.8099 152.444 42.2529 157.433 42.2602 157.433C42.2602 157.433 46.0641 154.554 48.5194 151.227C49.1643 150.348 49.9266 149.205 49.8386 148.048C49.7873 147.351 49.3182 146.875 48.7685 146.509H48.7759Z" fill="url(#paint16_linear_1_2046)"/>
<path d="M45.1186 139.079C45.06 139.035 45.0014 138.992 44.9354 138.948C43.1837 137.746 41.7105 139.68 40.9336 141.087C38.8815 144.728 38.0972 149.696 38.1119 149.696C38.1119 149.696 42.0477 147 44.6496 143.783C45.3385 142.933 46.1447 141.827 46.1154 140.662C46.1007 139.966 45.6463 139.46 45.1186 139.072V139.079Z" fill="url(#paint17_linear_1_2046)"/>
<path d="M41.8058 131.474C41.7472 131.431 41.6885 131.379 41.6299 131.335C39.9368 130.046 38.3757 131.914 37.5329 133.284C35.3194 136.83 34.3007 141.761 34.3153 141.769C34.3153 141.769 38.3757 139.256 41.1242 136.171C41.8498 135.358 42.7146 134.288 42.7366 133.123C42.7513 132.427 42.3262 131.899 41.8131 131.482L41.8058 131.474Z" fill="url(#paint18_linear_1_2046)"/>
<path d="M52.9756 191.995C52.9536 191.914 52.9389 191.833 52.9243 191.76C52.4625 189.496 54.9472 189.144 56.5889 189.079C60.8618 188.947 65.7431 190.031 65.7504 190.024C65.7504 190.024 61.8293 192.757 57.7616 193.804C56.6915 194.083 55.3063 194.347 54.1629 193.738C53.4813 193.379 53.1588 192.698 52.9829 191.995H52.9756Z" fill="url(#paint19_linear_1_2046)"/>
<path d="M47.1928 184.741C47.1782 184.66 47.1635 184.58 47.1488 184.499C46.797 182.213 49.2963 181.979 50.9307 181.986C55.2036 182.052 60.0336 183.363 60.0336 183.356C60.0336 183.356 55.9952 185.906 51.8762 186.763C50.7915 186.99 49.3989 187.188 48.2849 186.536C47.6252 186.148 47.3321 185.452 47.1928 184.741Z" fill="url(#paint20_linear_1_2046)"/>
<path d="M41.7619 177.231C41.7473 177.15 41.7399 177.07 41.7326 176.989C41.4907 174.688 43.9973 174.571 45.6317 174.659C49.8973 174.923 54.654 176.462 54.6613 176.454C54.6613 176.454 50.5057 178.806 46.35 179.48C45.2579 179.656 43.8507 179.788 42.7733 179.085C42.1284 178.667 41.8719 177.956 41.7619 177.238V177.231Z" fill="url(#paint21_linear_1_2046)"/>
<path d="M36.69 169.472C36.6827 169.391 36.6754 169.311 36.668 169.23C36.5288 166.922 39.0427 166.922 40.6698 167.083C44.9207 167.552 49.6041 169.311 49.6041 169.296C49.6041 169.296 45.3458 171.457 41.1608 171.926C40.0615 172.051 38.6542 172.117 37.6062 171.362C36.9832 170.908 36.756 170.19 36.6827 169.472H36.69Z" fill="url(#paint22_linear_1_2046)"/>
<path d="M31.9773 161.471C31.9773 161.39 31.97 161.31 31.97 161.229C31.9407 158.914 34.4473 159.031 36.067 159.273C40.2886 159.939 44.8914 161.918 44.8914 161.91C44.8914 161.91 40.5305 163.867 36.3309 164.138C35.2242 164.211 33.8169 164.211 32.8055 163.405C32.2045 162.921 32.014 162.196 31.97 161.471H31.9773Z" fill="url(#paint23_linear_1_2046)"/>
<path d="M27.6384 153.25C27.6384 153.169 27.6384 153.089 27.6384 153.008C27.7117 150.693 30.2183 150.927 31.8234 151.25C36.0157 152.122 40.5159 154.32 40.5232 154.305C40.5232 154.305 36.0744 156.056 31.8674 156.13C30.7607 156.152 29.3535 156.078 28.3787 155.228C27.7997 154.723 27.6458 153.975 27.6384 153.257V153.25Z" fill="url(#paint24_linear_1_2046)"/>
<path d="M23.6953 144.568C23.8785 142.252 26.3705 142.611 27.9609 143.007C32.1093 144.077 36.5068 146.494 36.5141 146.48C36.5141 146.48 31.992 148.018 27.785 147.894C26.6783 147.857 25.2711 147.725 24.3403 146.824" fill="url(#paint25_linear_1_2046)"/>
<path d="M24.4795 134.574C28.5766 135.849 32.8568 138.472 32.8641 138.464C32.8641 138.464 28.2761 139.79 24.0691 139.453" fill="url(#paint26_linear_1_2046)"/>
<path d="M26.8322 122.374C26.8982 122.352 26.9715 122.33 27.0448 122.308C29.053 121.737 29.9398 124.191 30.3722 125.84C31.4643 130.119 31.5742 135.218 31.5889 135.225C31.5889 135.24 28.0489 131.489 26.1799 127.334C25.6815 126.25 25.1392 124.829 25.4617 123.649C25.6522 122.938 26.2239 122.587 26.8396 122.381L26.8322 122.374Z" fill="url(#paint27_linear_1_2046)"/>
<path d="M24.0545 101.383L25.9968 102.145C26.2166 102.233 26.3852 102.423 26.4365 102.658L26.9129 104.687C27.0522 105.273 27.7998 105.449 28.1809 104.98L29.5075 103.368C29.6614 103.185 29.8886 103.083 30.1304 103.105L32.2119 103.28C32.8129 103.332 33.2087 102.672 32.8862 102.167L31.7575 100.408C31.6256 100.21 31.6036 99.954 31.6989 99.7342L32.5051 97.8146C32.7396 97.2577 32.2339 96.6789 31.6549 96.8328L29.6394 97.3603C29.4048 97.4189 29.163 97.3603 28.9798 97.2064L27.404 95.8436C26.9496 95.448 26.2386 95.7484 26.202 96.3492L26.0774 98.43C26.0627 98.6718 25.9308 98.8843 25.7256 99.0089L23.9373 100.086" fill="url(#paint28_linear_1_2046)"/>
<path d="M193.627 165.875L183.856 167.885L187.753 186.809L197.523 184.799L193.627 165.875Z" fill="url(#paint29_linear_1_2046)"/>
<path d="M163.654 52.9079L167.121 39.485C166.71 37.4775 164.739 36.1806 162.73 36.5982L58.6117 54.7616C53.276 55.8607 49.8313 61.0408 50.9233 66.3382L50.938 66.3968L50.9527 66.4554L79.9397 202.758L101.517 198.318L76.0259 71.4524L163.654 52.9079Z" fill="#C1152E"/>
<path d="M166.871 38.2687C166.593 36.9352 165.288 36.0706 163.954 36.349L58.1133 54.8715L87.3055 192.163L194.488 170.116L166.871 38.2687Z" fill="#272454"/>
<path style="mix-blend-mode:multiply" opacity="0.3" d="M87.3055 192.163L194.488 170.117L193.103 163.508C185.678 159.273 178.049 155.096 169.671 153.397C154.141 150.246 138.28 155.954 122.442 156.386C108.927 156.752 95.6902 153.213 83.3258 147.997C81.3176 147.147 79.302 146.128 77.2865 145.029L87.3055 192.163Z" fill="url(#paint30_linear_1_2046)"/>
<path d="M87.804 192.061C82.4683 193.16 78.8917 197.695 79.8152 202.186L79.8371 202.289C80.7606 206.788 85.8398 209.543 91.1754 208.444L194.664 187.159L191.293 170.776L87.804 192.061Z" fill="url(#paint31_linear_1_2046)"/>
<path d="M195.521 185.232L161.074 192.317L90.831 206.765C86.602 207.637 82.5636 205.447 81.8307 201.878L81.8087 201.776C81.0758 198.215 83.9195 194.61 88.1485 193.738L158.392 179.29L192.839 172.204L194.833 171.794L194.488 170.116L87.8113 192.06C82.4757 193.159 78.899 197.695 79.8225 202.186L79.8445 202.289C80.768 206.787 85.8471 209.542 91.1828 208.443L197.859 186.499L197.515 184.821L195.521 185.232Z" fill="url(#paint32_linear_1_2046)"/>
<path d="M89.1745 70.6978L84.2346 105.288L91.0141 103.896L91.8717 97.3312L104.683 94.6935L108.062 100.386L114.885 98.9797L96.687 69.1445L89.1745 70.6905V70.6978ZM92.5606 91.8067L94.4442 77.3946L101.869 89.8943L92.5606 91.8067Z" fill="url(#paint33_linear_1_2046)"/>
<path d="M148.277 86.5972L156.427 69.2617L155.357 64.0522L136.829 67.8622L137.921 73.1596L149.025 70.8809L140.963 88.1944L142.033 93.4039L160.752 89.5572L159.66 84.2525L148.277 86.5972Z" fill="url(#paint34_linear_1_2046)"/>
<path d="M119.957 93.9095C118.887 94.1293 118.198 95.1771 118.418 96.2468C118.638 97.3165 119.686 98.0053 120.756 97.7855C121.826 97.5657 122.515 96.5179 122.295 95.4482C122.075 94.3785 121.027 93.6897 119.957 93.9095Z" fill="url(#paint35_linear_1_2046)"/>
<path d="M127.103 92.4369C126.033 92.6567 125.344 93.7044 125.564 94.7742C125.784 95.8439 126.832 96.5326 127.902 96.3128C128.972 96.093 129.661 95.0452 129.441 93.9755C129.221 92.9058 128.173 92.2171 127.103 92.4369Z" fill="url(#paint36_linear_1_2046)"/>
<path d="M134.242 90.9715C133.172 91.1913 132.483 92.2391 132.703 93.3088C132.923 94.3785 133.971 95.0673 135.041 94.8475C136.111 94.6277 136.8 93.5799 136.58 92.5102C136.36 91.4405 135.312 90.7517 134.242 90.9715Z" fill="url(#paint37_linear_1_2046)"/>
<path d="M167.436 181.854C141.923 186.36 116.19 191.657 90.9702 197.585C116.476 193.072 142.223 187.789 167.436 181.854Z" fill="url(#paint38_linear_1_2046)"/>
<path d="M191.336 181.502C165.823 186.008 140.091 191.306 114.871 197.233C140.376 192.72 166.124 187.437 191.336 181.502Z" fill="url(#paint39_linear_1_2046)"/>
<path d="M233.523 262.604C235.854 252.669 234.623 243.869 233.523 239.048C233.003 236.762 231.046 235.15 228.789 235.15H122.376V266.516" fill="url(#paint40_linear_1_2046)"/>
<path d="M90.3545 263.131C93.6893 250.507 90.9409 240.374 90.3619 238.506C90.3032 238.322 90.142 238.198 89.9514 238.198H48.2262C47.42 238.198 46.7677 237.516 46.7677 236.674C46.7677 235.831 47.42 235.15 48.2262 235.15H130.599C130.782 235.15 130.944 235.274 131.01 235.45C131.735 237.604 135.832 251.013 131.01 266.201" fill="url(#paint41_linear_1_2046)"/>
<path d="M145.104 259.505C147.83 250.94 145.514 243.378 145.104 242.162C145.067 242.06 144.979 241.994 144.876 241.994H220.836C220.939 241.994 221.034 242.06 221.064 242.162C221.474 243.378 223.783 250.94 221.064 259.505" fill="url(#paint42_linear_1_2046)"/>
<path d="M48.5707 263.469V238.198H128.151C128.151 238.198 131.999 249.306 128.151 263.469" fill="url(#paint43_linear_1_2046)"/>
<path d="M119.664 243.84C97.6837 242.653 75.3809 242.66 53.408 243.84C75.3883 245.019 97.6911 245.027 119.664 243.84Z" fill="url(#paint44_linear_1_2046)"/>
<path d="M77.741 250.346C93.4768 251.343 109.264 251.35 125 250.346C109.264 249.342 93.4768 249.35 77.741 250.346Z" fill="url(#paint45_linear_1_2046)"/>
<path d="M242.949 207.674C242.428 205.388 240.472 203.776 238.214 203.776H131.801V235.143H238.214C240.472 235.143 242.414 233.516 242.949 231.23C245.28 221.295 244.048 212.495 242.949 207.674Z" fill="url(#paint46_linear_1_2046)"/>
<path d="M154.529 228.131C157.256 219.566 154.94 212.004 154.529 210.788C154.493 210.686 154.405 210.62 154.302 210.62H230.262C230.365 210.62 230.46 210.686 230.489 210.788C230.9 212.004 233.208 219.566 230.489 228.131C230.453 228.234 230.365 228.307 230.255 228.307H154.295C154.397 228.307 154.493 228.234 154.529 228.131Z" fill="url(#paint47_linear_1_2046)"/>
<path d="M231.149 266.128L231.83 246.924L241.336 247.027L239.995 255.914" fill="url(#paint48_linear_1_2046)"/>
<path d="M290.266 236.894L274.325 244.47L266.769 247.796L254.888 230.908C257.497 229.245 262.95 228.578 265.56 226.805L269.898 234.3C270.602 235.897 272.28 236.821 274.12 236.615L289.431 234.916" fill="url(#paint49_linear_1_2046)"/>
<path d="M288.236 233.978L275.828 235.567C274.992 235.677 274.245 236.205 273.871 236.96C273.16 238.381 271.731 240.689 269.576 241.773C267.714 242.719 265.603 243.012 264.145 243.1C263.317 243.144 262.745 244.008 263.067 244.733L265.149 249.489L291.871 236.747" fill="url(#paint50_linear_1_2046)"/>
<path d="M292.362 236.264L264.585 249.511C264.482 249.562 264.431 249.679 264.475 249.775L264.988 250.947C265.032 251.042 265.149 251.086 265.252 251.035L293.007 237.788" fill="white"/>
<path d="M277.55 237.78C277.792 237.758 277.983 237.553 277.983 237.326V235.121C277.983 234.886 277.792 234.718 277.55 234.732C277.308 234.754 277.118 234.959 277.118 235.187V237.392C277.118 237.626 277.308 237.795 277.55 237.78Z" fill="white"/>
<path d="M213.434 142.86L223.299 162.453L240.823 159.756C240.823 159.756 242.223 170.82 241.915 170.915C241.607 171.01 224.494 181.568 216.835 181.385C209.168 181.202 206.435 168.966 206.435 168.966L213.434 142.868V142.86Z" fill="url(#paint51_linear_1_2046)"/>
<path d="M243.425 179.656L249.523 178.974C249.655 178.96 249.824 178.667 249.897 178.322L255.232 154.334C255.313 153.99 255.276 153.667 255.159 153.616L249.596 151.345C249.354 151.227 249.252 151.55 249.164 151.946L243.279 178.982C243.198 179.37 243.264 179.678 243.425 179.656Z" fill="url(#paint52_linear_1_2046)"/>
<path d="M221.921 175.868L238.573 178.147C238.625 178.147 238.669 178.125 238.676 178.073L244.429 151.227C244.437 151.183 244.407 151.14 244.356 151.132L227.374 148.854C227.323 148.854 227.279 148.875 227.264 148.927L221.848 175.773C221.841 175.817 221.87 175.861 221.921 175.868Z" fill="white"/>
<path d="M225.153 177.231L242.267 179.575C242.744 179.641 243.205 179.334 243.301 178.887L249.142 152.048C249.237 151.601 248.929 151.191 248.446 151.125L230.965 148.78C230.482 148.714 230.013 149.022 229.917 149.469L224.45 176.308C224.362 176.755 224.677 177.165 225.146 177.231H225.153Z" fill="url(#paint53_linear_1_2046)"/>
<path d="M249.479 166.563C249.611 165.962 250.337 165.559 251.099 165.662C250.344 165.559 249.831 164.988 249.963 164.387C250.095 163.786 250.828 163.383 251.583 163.486L254.265 163.852C255.027 163.955 255.533 164.526 255.401 165.127C255.269 165.728 254.536 166.131 253.782 166.028L254.155 166.079C254.91 166.182 255.423 166.753 255.291 167.354C255.159 167.955 254.426 168.358 253.672 168.255L253.298 168.204C254.053 168.307 254.566 168.878 254.427 169.479C254.295 170.08 253.569 170.483 252.814 170.38H252.741C252.865 170.571 252.909 170.798 252.858 171.032C252.726 171.633 252.001 172.036 251.246 171.934L249.765 171.728C249.01 171.626 248.497 171.054 248.629 170.454C248.702 170.102 248.988 169.823 249.362 169.67C249.076 169.428 248.93 169.083 249.01 168.739C249.142 168.138 249.868 167.735 250.623 167.838C249.868 167.735 249.355 167.164 249.487 166.563H249.479Z" fill="url(#paint54_linear_1_2046)"/>
<g style="mix-blend-mode:overlay" opacity="0.6">
<path d="M251.341 165.691L253.642 166.006C253.642 166.006 252.961 166.248 251.341 165.691Z" fill="#213138"/>
</g>
<g style="mix-blend-mode:overlay" opacity="0.6">
<path d="M250.857 167.875L253.151 168.19C253.151 168.19 252.47 168.431 250.857 167.875Z" fill="#213138"/>
</g>
<g style="mix-blend-mode:overlay" opacity="0.6">
<path d="M249.721 169.875L252.374 170.263C252.374 170.263 251.597 170.483 249.721 169.875Z" fill="#213138"/>
</g>
<path d="M243.638 180.067C244.349 180.162 245.038 179.693 245.177 179.026L250.82 152.158C250.96 151.492 250.491 150.876 249.765 150.781C249.039 150.686 248.336 151.155 248.197 151.821L242.604 178.689C242.465 179.356 242.934 179.971 243.645 180.067H243.638Z" fill="url(#paint55_linear_1_2046)"/>
<path d="M242.597 178.696C244.891 169.838 246.782 160.804 248.189 151.829C245.851 160.687 243.975 169.721 242.597 178.696Z" fill="url(#paint56_linear_1_2046)"/>
<path d="M224.135 175.582C224.171 175.582 224.208 175.56 224.215 175.524L229.404 150.011C229.412 149.975 229.382 149.938 229.346 149.931C229.302 149.931 229.265 149.953 229.258 149.989L224.076 175.502C224.069 175.538 224.098 175.575 224.135 175.582Z" fill="#1C1C1C"/>
<path d="M223.6 175.443C223.636 175.443 223.673 175.421 223.68 175.384L228.855 149.872C228.862 149.835 228.833 149.799 228.796 149.792C228.76 149.792 228.723 149.813 228.708 149.85L223.534 175.362C223.527 175.399 223.556 175.436 223.592 175.443H223.6Z" fill="#1C1C1C"/>
<path d="M223.065 175.311C223.101 175.311 223.138 175.289 223.145 175.253L228.312 149.74C228.32 149.704 228.29 149.667 228.254 149.66C228.21 149.66 228.173 149.682 228.166 149.718L222.999 175.231C222.991 175.267 223.021 175.304 223.057 175.311H223.065Z" fill="#1C1C1C"/>
<path d="M222.53 175.172C222.566 175.172 222.603 175.15 222.61 175.113L227.77 149.601C227.777 149.564 227.748 149.528 227.711 149.521C227.668 149.521 227.631 149.542 227.624 149.579L222.471 175.091C222.464 175.128 222.493 175.165 222.53 175.172Z" fill="#1C1C1C"/>
<path d="M193.916 166.314V166.409C193.916 166.409 193.843 166.438 193.85 166.409V166.314C193.85 166.314 193.924 166.284 193.916 166.314Z" fill="#213138"/>
<path d="M175.681 198.552L212.745 183.554C213.031 183.437 213.178 183.129 213.06 182.865L211.506 179.216C211.389 178.953 211.067 178.828 210.774 178.938L172.779 194.141C172.493 194.258 172.361 194.566 172.486 194.83L174.956 198.274C175.073 198.537 175.403 198.662 175.681 198.552Z" fill="#213138"/>
<path d="M174.875 194.112C175.08 194.639 175.307 195.152 175.535 195.672C175.732 196.134 175.982 196.596 176.026 197.101C176.026 197.152 175.967 197.189 175.923 197.145C175.19 196.405 174.948 195.138 174.64 194.185C174.596 194.061 174.824 193.987 174.875 194.112Z" fill="#324952"/>
<path d="M177.829 192.881C178.159 193.782 178.672 194.647 178.899 195.577C178.913 195.643 178.825 195.68 178.781 195.629C178.115 194.903 177.836 193.87 177.616 192.947C177.587 192.83 177.792 192.757 177.836 192.874L177.829 192.881Z" fill="#324952"/>
<path d="M181.808 191.364C182.006 191.767 182.109 192.207 182.285 192.617C182.461 193.035 182.673 193.43 182.827 193.863C182.849 193.921 182.776 193.973 182.725 193.929C182.08 193.328 181.603 192.273 181.662 191.394C181.662 191.32 181.772 191.306 181.808 191.364Z" fill="#324952"/>
<path d="M185.341 189.972C185.649 190.28 185.803 190.734 186.001 191.108C186.206 191.504 186.404 191.885 186.506 192.317C186.521 192.376 186.433 192.412 186.397 192.368C186.052 192.024 185.84 191.621 185.642 191.181C185.473 190.815 185.246 190.412 185.239 190.002C185.239 189.95 185.312 189.936 185.341 189.965V189.972Z" fill="#324952"/>
<path d="M189.783 188.053C190.472 188.741 190.941 189.811 191.131 190.734C191.146 190.8 191.051 190.822 191.021 190.771C190.721 190.331 190.479 189.87 190.237 189.401C190.024 188.983 189.768 188.573 189.629 188.126C189.599 188.038 189.731 187.994 189.79 188.053H189.783Z" fill="#324952"/>
<path d="M193.902 187.1C194.173 187.422 194.341 187.803 194.532 188.177C194.73 188.551 194.92 188.902 195.045 189.305C195.06 189.364 194.979 189.386 194.942 189.349C194.363 188.807 193.872 187.921 193.799 187.144C193.799 187.093 193.865 187.049 193.902 187.1Z" fill="#324952"/>
<path d="M200.109 184.938C200.425 185.422 200.798 185.972 200.791 186.558C200.791 186.609 200.725 186.616 200.696 186.587C200.388 186.279 200.227 185.869 200.021 185.495C199.919 185.312 199.816 185.129 199.714 184.946C199.626 184.799 199.523 184.411 199.369 184.316C199.354 184.308 199.354 184.286 199.369 184.272C199.662 184.111 199.985 184.755 200.109 184.938Z" fill="#324952"/>
<path d="M203.415 182.755C203.723 183.004 203.877 183.407 204.038 183.752C204.229 184.162 204.426 184.572 204.456 185.034C204.456 185.093 204.382 185.144 204.331 185.093C204.031 184.741 203.869 184.331 203.701 183.913C203.562 183.561 203.356 183.166 203.378 182.777C203.378 182.763 203.4 182.755 203.415 182.763V182.755Z" fill="#324952"/>
<path d="M206.655 181.964C207.006 182.565 207.41 183.217 207.505 183.913C207.512 183.986 207.41 184.045 207.351 183.979C206.882 183.429 206.669 182.696 206.457 182.022C206.42 181.912 206.603 181.869 206.655 181.956V181.964Z" fill="#324952"/>
<path d="M187.364 160.408C181.295 158.408 175.865 154.407 172.588 149.22C173.893 145.088 171.335 143.373 173.732 141.204C178.437 136.991 191.769 133.877 191.769 133.877C202.33 134.229 213.375 137.643 213.61 144.055C213.698 146.634 212.936 149.579 212.137 152.81C212.108 152.92 212.078 153.037 212.056 153.155C212.012 153.33 211.968 153.499 211.932 153.675C211.866 153.953 211.8 154.232 211.734 154.51C211.712 154.613 211.682 154.723 211.66 154.825C211.616 155.03 211.565 155.235 211.521 155.441C211.492 155.558 211.47 155.675 211.441 155.792C211.411 155.924 211.389 156.049 211.36 156.181C203.312 158.935 195.265 162.98 187.364 160.401V160.408Z" fill="url(#paint57_linear_1_2046)"/>
<path d="M170.521 170.087C170.536 169.684 170.543 169.281 170.551 168.871C170.551 168.798 170.551 168.724 170.551 168.644C170.551 168.292 170.558 167.948 170.551 167.589C170.551 167.398 170.551 167.208 170.551 167.017C170.551 166.761 170.551 166.497 170.536 166.241C170.521 165.779 170.507 165.325 170.485 164.856C170.485 164.849 170.485 164.834 170.485 164.827C170.455 164.314 170.441 163.786 170.441 163.244C170.419 158.965 171.144 153.814 172.581 149.22C175.857 154.4 182.6 150.664 186.272 155.529C191.805 162.929 203.298 158.943 211.352 156.188C211.338 156.269 211.316 156.357 211.301 156.437C211.279 156.54 211.257 156.642 211.235 156.745C211.177 157.053 211.118 157.36 211.059 157.675C211.045 157.749 211.037 157.815 211.023 157.888C210.979 158.137 210.935 158.386 210.898 158.643C210.883 158.753 210.861 158.862 210.847 158.972C210.81 159.192 210.781 159.419 210.751 159.646C210.737 159.756 210.722 159.866 210.707 159.983C210.671 160.269 210.642 160.555 210.612 160.841C210.612 160.885 210.605 160.936 210.598 160.98C210.568 161.31 210.546 161.639 210.524 161.969C210.524 162.072 210.517 162.174 210.51 162.277C210.495 162.519 210.488 162.76 210.488 163.002C210.488 163.119 210.488 163.237 210.488 163.346C210.488 163.603 210.488 163.859 210.488 164.116C210.488 164.204 210.488 164.292 210.488 164.387C210.502 164.731 210.517 165.076 210.539 165.42C210.539 165.493 210.554 165.574 210.561 165.647C210.583 165.926 210.612 166.197 210.642 166.475C210.656 166.592 210.671 166.702 210.685 166.819C210.722 167.076 210.759 167.325 210.803 167.581C210.825 167.691 210.839 167.801 210.861 167.911C210.927 168.27 211.001 168.629 211.081 168.988C211.228 169.604 211.345 170.183 211.448 170.732C212.415 176 211.514 178.242 210.751 179.18C210.319 179.7 209.931 179.817 209.931 179.817L193.843 186.741L190.581 188.155C182.439 187.994 174.882 185.335 169.928 179.033C170.118 176.147 170.397 173.187 170.499 170.095L170.521 170.087Z" fill="url(#paint58_linear_1_2046)"/>
<path d="M190.604 188.155L173.277 193.943C173.277 193.943 170.368 194.134 169.855 187.115C169.657 184.448 169.767 181.773 169.942 179.033C174.897 185.334 182.453 187.994 190.596 188.155H190.604Z" fill="url(#paint59_linear_1_2046)"/>
<path d="M217.15 161.038C217.15 161.038 220.301 157.653 221.87 156.825C222.947 156.261 224.42 156.159 225.249 156.151C225.593 156.151 225.857 156.4 225.85 156.716L225.828 157.587C225.82 157.859 226.018 158.093 226.311 158.144L231.119 159.038C231.119 159.038 235.216 159.69 237.195 159.925C237.716 159.983 237.965 160.526 237.672 160.936L237.129 161.691C237.452 162.299 236.741 163.017 235.642 163.779C235.642 164.46 235.539 165.127 234.381 165.544L233.589 166.658C233.179 167.237 232.549 167.655 231.83 167.816L229.324 168.387C228.847 168.497 228.356 168.497 227.887 168.387L221.408 166.937C220.88 166.819 220.323 166.841 219.803 166.995L190.816 182.147L187.767 172.161L217.172 161.024L217.15 161.038Z" fill="url(#paint60_linear_1_2046)"/>
<path style="mix-blend-mode:multiply" opacity="0.4" d="M236.858 161.595C235.224 161.485 233.597 161.529 231.984 161.529C231.178 161.544 230.416 161.47 229.617 161.361L228.422 161.199L227.814 161.133C227.616 161.119 227.403 161.067 227.198 161.133C227.579 161.192 227.96 161.353 228.342 161.47C228.723 161.588 229.111 161.698 229.507 161.793C229.903 161.895 230.306 161.961 230.716 162.02C231.134 162.071 231.552 162.079 231.962 162.086C233.604 162.071 235.238 161.925 236.865 161.595H236.858Z" fill="url(#paint61_linear_1_2046)"/>
<path style="mix-blend-mode:multiply" opacity="0.4" d="M235.29 163.662C234.564 163.691 233.846 163.757 233.135 163.837C232.424 163.911 231.713 164.006 231.017 164.065C230.335 164.153 229.676 164.065 228.965 163.977C228.268 163.881 227.572 163.772 226.854 163.691C227.484 163.999 228.158 164.233 228.847 164.409C229.192 164.504 229.551 164.563 229.917 164.614C230.284 164.658 230.687 164.658 231.046 164.621C231.779 164.548 232.49 164.424 233.201 164.262C233.904 164.101 234.608 163.911 235.29 163.662Z" fill="url(#paint62_linear_1_2046)"/>
<path style="mix-blend-mode:multiply" opacity="0.4" d="M233.853 165.544C233.267 165.654 232.695 165.801 232.131 165.955C231.567 166.101 231.01 166.27 230.46 166.387C229.932 166.519 229.375 166.534 228.796 166.563C228.224 166.578 227.638 166.585 227.044 166.614C227.594 166.812 228.166 166.929 228.752 166.995C229.331 167.061 229.961 167.068 230.57 166.929C231.163 166.79 231.72 166.592 232.27 166.358C232.813 166.123 233.348 165.867 233.846 165.537L233.853 165.544Z" fill="url(#paint63_linear_1_2046)"/>
<path d="M179.485 139.065C179.485 139.065 185.26 140.311 185.796 150.217C186.323 160.122 187.994 167.786 187.994 167.786C187.994 167.786 203.62 159.536 215.398 160.613L217.502 170.307C217.502 170.307 209.073 183.854 185.502 184.25C166.696 184.565 165.633 156.151 168.777 146.531C170.104 142.509 174.772 140.23 179.485 139.065Z" fill="url(#paint64_linear_1_2046)"/>
<path d="M187.811 167.764C187.906 167.742 187.936 167.86 187.862 167.904C184.015 169.984 182.835 174.747 182.175 178.484C182.153 178.601 181.984 178.594 181.977 178.476C181.75 174.886 183.516 168.937 187.811 167.764Z" fill="#BA5044"/>
<path d="M184.96 168.263C185.026 168.263 185.026 168.351 184.96 168.365C181.984 169.076 179.646 170.615 177.953 172.989C177.895 173.069 177.763 173.003 177.792 172.915C178.884 170.197 181.808 168.292 184.953 168.263H184.96Z" fill="#BA5044"/>
<path d="M192.253 126.983C192.253 126.983 190.589 127.166 189.49 126.067C188.39 124.968 190.794 121.018 190.31 115.677C189.827 110.336 194.473 113.179 194.473 113.179L196.247 121.143L192.245 126.975L192.253 126.983Z" fill="url(#paint65_linear_1_2046)"/>
<path d="M189.423 136.794C188.603 140.157 199.714 141.959 200.557 138.596L205.746 118.337L194.437 116.535L190.046 134.207L189.416 136.794H189.423Z" fill="#EEBE9D"/>
<path d="M205.504 118.3C205.584 118.322 205.665 118.352 205.746 118.374L201.077 136.559C189.57 131.394 194.1 120.264 195.903 116.769L205.496 118.3H205.504Z" fill="#E9A785"/>
<path d="M191.945 121.4C191.19 128.111 196.782 133.892 202.352 134.193C206.479 134.42 209.571 129.144 211.243 122.514C213.463 113.809 209.278 110.065 203.613 109.772C197.947 109.479 192.714 114.688 191.945 121.4Z" fill="#EEBE9D"/>
<path d="M195.287 108.687C195.287 108.687 199.421 105.742 203.532 106.79C207.629 107.838 211.14 111.435 211.14 111.435C211.14 111.435 211.396 107.882 214.218 109.083C216.329 109.984 217.003 114.124 215.787 116.71C216.08 116.351 216.322 115.948 216.498 115.538C217.275 113.706 216.798 111.845 216.182 110.109C216.168 110.072 216.226 110.05 216.241 110.087C217.318 112.124 217.78 114.718 216.256 116.82C215.838 117.399 215.193 117.956 214.475 118.315C214.306 118.425 214.13 118.528 213.94 118.601C210.59 119.971 206.684 116.835 206.684 116.835C206.684 116.835 206.244 118.322 204.06 117.436C201.869 116.549 201.033 115.318 201.033 115.318C201.033 115.318 200.498 116.718 198.38 114.688C198.38 114.688 198.504 117.348 196.489 118.63C195.052 119.539 194.613 121.063 194.481 121.861C194.437 122.14 194.136 122.33 193.836 122.264L192.942 122.081C192.942 122.081 192.047 120.11 191.608 119.202C191.175 118.293 186.99 110.666 195.294 108.68L195.287 108.687Z" fill="url(#paint66_linear_1_2046)"/>
<path d="M187.921 121.26C187.73 122.975 188.866 124.44 190.464 124.521C192.055 124.609 193.308 124.997 193.506 123.283C193.704 121.561 192.766 118.381 191.168 118.3C189.57 118.22 188.112 119.539 187.921 121.26Z" fill="#EEBE9D"/>
<path d="M191.791 121.407C191.791 121.129 191.74 120.865 191.644 120.594C191.542 120.33 191.417 120.059 191.131 119.847C190.985 119.744 190.78 119.663 190.56 119.678C190.45 119.678 190.354 119.715 190.252 119.729C190.157 119.773 190.054 119.817 189.973 119.876C189.651 120.125 189.526 120.433 189.431 120.718C189.27 121.305 189.314 121.905 189.563 122.44C189.687 122.711 189.9 122.946 190.164 123.122C190.435 123.29 190.772 123.334 191.073 123.297C190.787 123.21 190.538 123.1 190.369 122.909C190.208 122.726 190.091 122.514 190.025 122.279C189.9 121.817 189.893 121.297 190.032 120.843C190.091 120.616 190.201 120.389 190.34 120.271C190.376 120.242 190.406 120.228 190.442 120.198C190.486 120.198 190.53 120.162 190.574 120.162C190.655 120.147 190.743 120.162 190.838 120.206C191.234 120.425 191.52 120.938 191.784 121.4L191.791 121.407Z" fill="#E9A785"/>
<path d="M206.105 107.786C212.672 110.908 213.551 104.812 213.551 104.812C213.551 104.812 222.566 110.211 218.161 118.022C213.749 125.84 198.365 114.696 198.365 114.696L206.105 107.786Z" fill="url(#paint67_linear_1_2046)"/>
<path d="M245.734 211.426L244.004 248.588C244.004 248.588 240.794 252.339 229.397 248.485L227.132 198.472L233.157 195.776C239.182 193.094 245.836 196.933 245.792 203.088L245.727 211.419L245.734 211.426Z" fill="url(#paint68_linear_1_2046)"/>
<path d="M176.304 198.296C176.304 198.296 178.796 204.7 184.168 205.396C201.956 207.726 231.303 198.794 234.769 201.117C235.238 201.432 255.02 234.93 255.02 234.93C255.02 234.93 270.36 227.398 269.7 227.604C269.048 227.809 249.728 183.737 246.379 181.913C243.015 180.089 212.745 183.554 212.745 183.554C212.745 183.554 194.085 187.613 176.304 198.296Z" fill="url(#paint69_linear_1_2046)"/>
<path d="M238.265 190.515C238.331 190.464 238.405 190.53 238.368 190.596C237.569 192.098 236.631 193.512 236.044 195.094C235.458 196.677 235.18 198.303 234.996 199.945C234.989 200.033 234.835 200.062 234.821 199.967C234.498 196.794 235.605 192.801 238.258 190.515H238.265Z" fill="url(#paint70_linear_1_2046)"/>
<path d="M232.299 191.328C232.314 191.211 232.483 191.218 232.49 191.328C232.651 193.621 232.827 195.937 232.768 198.244C232.768 198.384 232.534 198.42 232.505 198.281C232.013 196.017 232.028 193.651 232.299 191.328Z" fill="url(#paint71_linear_1_2046)"/>
<path d="M187.474 199.82C188.793 198.633 190.318 197.541 191.351 196.105C192.546 194.457 192.656 192.581 193.477 190.815C193.484 190.801 193.513 190.801 193.513 190.815C193.792 194.86 191.205 198.127 187.577 199.945C187.496 199.988 187.401 199.886 187.474 199.82Z" fill="url(#paint72_linear_1_2046)"/>
<path d="M99.3842 206.832H57.659C56.8527 206.832 56.2004 206.15 56.2004 205.308C56.2004 204.465 56.8527 203.784 57.659 203.784H140.032C140.215 203.784 140.376 203.908 140.442 204.084C141.168 206.238 145.265 219.646 140.442 234.835C140.384 235.018 140.215 235.143 140.032 235.143H57.659C56.8527 235.143 56.2004 234.461 56.2004 233.619C56.2004 232.776 56.8527 232.095 57.659 232.095H99.3622C99.5601 232.095 99.7286 231.956 99.7799 231.758C103.115 219.134 100.366 209 99.7873 207.132C99.7286 206.949 99.5674 206.824 99.3768 206.824L99.3842 206.832Z" fill="url(#paint73_linear_1_2046)"/>
<path d="M137.577 206.832C137.577 206.832 141.425 217.939 137.577 232.102H57.9961V206.832H137.577Z" fill="url(#paint74_linear_1_2046)"/>
<path d="M129.089 212.473C107.109 211.286 84.8064 211.294 62.8334 212.473C84.8137 213.653 107.116 213.66 129.089 212.473Z" fill="url(#paint75_linear_1_2046)"/>
<path d="M87.1664 218.98C102.902 219.976 118.689 219.983 134.425 218.98C118.689 217.976 102.902 217.983 87.1664 218.98Z" fill="url(#paint76_linear_1_2046)"/>
<path d="M72.7498 226.351C88.4856 227.347 104.273 227.354 120.009 226.351C104.273 225.347 88.4856 225.354 72.7498 226.351Z" fill="url(#paint77_linear_1_2046)"/>
<path d="M225.733 51.2739H222.566L189.416 69.1223L228.437 57.8755L225.733 51.2739Z" fill="url(#paint78_linear_1_2046)"/>
<path d="M215.882 45.5591L189.416 69.1224L225.733 51.2741L215.882 45.5591Z" fill="url(#paint79_linear_1_2046)"/>
<path d="M189.416 69.1225L231.068 54.5566L245.03 63.0192L189.416 69.1225Z" fill="url(#paint80_linear_1_2046)"/>
</g>
<defs>
<linearGradient id="paint0_linear_1_2046" x1="180.306" y1="5.93517" x2="175.926" y2="41.6982" gradientUnits="userSpaceOnUse">
<stop stop-color="white"/>
<stop offset="1" stop-color="white" stop-opacity="0"/>
</linearGradient>
<linearGradient id="paint1_linear_1_2046" x1="86.1182" y1="67.7593" x2="209.286" y2="67.7593" gradientUnits="userSpaceOnUse">
<stop stop-color="#72B2F9"/>
<stop offset="1" stop-color="#9BC8F9"/>
</linearGradient>
<linearGradient id="paint2_linear_1_2046" x1="18.9607" y1="271.829" x2="283.992" y2="255.26" gradientUnits="userSpaceOnUse">
<stop stop-color="#94A744"/>
<stop offset="0.39" stop-color="#9BAE49"/>
<stop offset="0.99" stop-color="#AFC459"/>
<stop offset="1" stop-color="#B0C55A"/>
</linearGradient>
<linearGradient id="paint3_linear_1_2046" x1="244.26" y1="253.046" x2="264.562" y2="210.07" gradientUnits="userSpaceOnUse">
<stop stop-color="#94A744"/>
<stop offset="0.39" stop-color="#9BAE49"/>
<stop offset="0.99" stop-color="#AFC459"/>
<stop offset="1" stop-color="#B0C55A"/>
</linearGradient>
<linearGradient id="paint4_linear_1_2046" x1="264.98" y1="171.838" x2="264.98" y2="198.377" gradientUnits="userSpaceOnUse">
<stop stop-color="white"/>
<stop offset="1" stop-color="white" stop-opacity="0"/>
</linearGradient>
<linearGradient id="paint5_linear_1_2046" x1="2.62587" y1="215.074" x2="57.7731" y2="257.96" gradientUnits="userSpaceOnUse">
<stop stop-color="#94A744"/>
<stop offset="1" stop-color="#738034"/>
</linearGradient>
<linearGradient id="paint6_linear_1_2046" x1="-2.36293" y1="221.49" x2="52.7843" y2="264.377" gradientUnits="userSpaceOnUse">
<stop stop-color="#94A744"/>
<stop offset="1" stop-color="#738034"/>
</linearGradient>
<linearGradient id="paint7_linear_1_2046" x1="58.1298" y1="254.371" x2="35.001" y2="203.547" gradientUnits="userSpaceOnUse">
<stop stop-color="#94A744"/>
<stop offset="0.39" stop-color="#9BAE49"/>
<stop offset="0.99" stop-color="#AFC459"/>
<stop offset="1" stop-color="#B0C55A"/>
</linearGradient>
<linearGradient id="paint8_linear_1_2046" x1="53.0363" y1="256.688" x2="29.9011" y2="205.867" gradientUnits="userSpaceOnUse">
<stop stop-color="#94A744"/>
<stop offset="0.39" stop-color="#9BAE49"/>
<stop offset="0.99" stop-color="#AFC459"/>
<stop offset="1" stop-color="#B0C55A"/>
</linearGradient>
<linearGradient id="paint9_linear_1_2046" x1="78.2321" y1="158.767" x2="78.2321" y2="185.569" gradientUnits="userSpaceOnUse">
<stop stop-color="white"/>
<stop offset="1" stop-color="white" stop-opacity="0"/>
</linearGradient>
<linearGradient id="paint10_linear_1_2046" x1="51.002" y1="109.366" x2="57.5699" y2="141.215" gradientUnits="userSpaceOnUse">
<stop stop-color="#94A744"/>
<stop offset="1" stop-color="#738034"/>
</linearGradient>
<linearGradient id="paint11_linear_1_2046" x1="71.1026" y1="187.575" x2="27.3901" y2="124.375" gradientUnits="userSpaceOnUse">
<stop stop-color="#94A744"/>
<stop offset="0.39" stop-color="#9BAE49"/>
<stop offset="0.99" stop-color="#AFC459"/>
<stop offset="1" stop-color="#B0C55A"/>
</linearGradient>
<linearGradient id="paint12_linear_1_2046" x1="70.3408" y1="188.098" x2="26.6328" y2="124.904" gradientUnits="userSpaceOnUse">
<stop stop-color="#94A744"/>
<stop offset="0.39" stop-color="#9BAE49"/>
<stop offset="0.99" stop-color="#AFC459"/>
<stop offset="1" stop-color="#B0C55A"/>
</linearGradient>
<linearGradient id="paint13_linear_1_2046" x1="69.9093" y1="188.403" x2="26.2028" y2="125.198" gradientUnits="userSpaceOnUse">
<stop stop-color="#94A744"/>
<stop offset="0.39" stop-color="#9BAE49"/>
<stop offset="0.99" stop-color="#AFC459"/>
<stop offset="1" stop-color="#B0C55A"/>
</linearGradient>
<linearGradient id="paint14_linear_1_2046" x1="69.8051" y1="188.471" x2="26.1029" y2="125.272" gradientUnits="userSpaceOnUse">
<stop stop-color="#94A744"/>
<stop offset="0.39" stop-color="#9BAE49"/>
<stop offset="0.99" stop-color="#AFC459"/>
<stop offset="1" stop-color="#B0C55A"/>
</linearGradient>
<linearGradient id="paint15_linear_1_2046" x1="70.0369" y1="188.316" x2="26.3245" y2="125.116" gradientUnits="userSpaceOnUse">
<stop stop-color="#94A744"/>
<stop offset="0.39" stop-color="#9BAE49"/>
<stop offset="0.99" stop-color="#AFC459"/>
<stop offset="1" stop-color="#B0C55A"/>
</linearGradient>
<linearGradient id="paint16_linear_1_2046" x1="70.5903" y1="187.93" x2="26.8779" y2="124.73" gradientUnits="userSpaceOnUse">
<stop stop-color="#94A744"/>
<stop offset="0.39" stop-color="#9BAE49"/>
<stop offset="0.99" stop-color="#AFC459"/>
<stop offset="1" stop-color="#B0C55A"/>
</linearGradient>
<linearGradient id="paint17_linear_1_2046" x1="71.4695" y1="187.319" x2="27.7674" y2="124.12" gradientUnits="userSpaceOnUse">
<stop stop-color="#94A744"/>
<stop offset="0.39" stop-color="#9BAE49"/>
<stop offset="0.99" stop-color="#AFC459"/>
<stop offset="1" stop-color="#B0C55A"/>
</linearGradient>
<linearGradient id="paint18_linear_1_2046" x1="72.6907" y1="186.481" x2="28.9783" y2="123.28" gradientUnits="userSpaceOnUse">
<stop stop-color="#94A744"/>
<stop offset="0.39" stop-color="#9BAE49"/>
<stop offset="0.99" stop-color="#AFC459"/>
<stop offset="1" stop-color="#B0C55A"/>
</linearGradient>
<linearGradient id="paint19_linear_1_2046" x1="61.4886" y1="194.225" x2="17.7848" y2="131.036" gradientUnits="userSpaceOnUse">
<stop stop-color="#94A744"/>
<stop offset="0.39" stop-color="#9BAE49"/>
<stop offset="0.99" stop-color="#AFC459"/>
<stop offset="1" stop-color="#B0C55A"/>
</linearGradient>
<linearGradient id="paint20_linear_1_2046" x1="60.8369" y1="194.675" x2="17.1333" y2="131.486" gradientUnits="userSpaceOnUse">
<stop stop-color="#94A744"/>
<stop offset="0.39" stop-color="#9BAE49"/>
<stop offset="0.99" stop-color="#AFC459"/>
<stop offset="1" stop-color="#B0C55A"/>
</linearGradient>
<linearGradient id="paint21_linear_1_2046" x1="60.5287" y1="194.887" x2="16.825" y2="131.698" gradientUnits="userSpaceOnUse">
<stop stop-color="#94A744"/>
<stop offset="0.39" stop-color="#9BAE49"/>
<stop offset="0.99" stop-color="#AFC459"/>
<stop offset="1" stop-color="#B0C55A"/>
</linearGradient>
<linearGradient id="paint22_linear_1_2046" x1="60.5638" y1="194.86" x2="16.866" y2="131.667" gradientUnits="userSpaceOnUse">
<stop stop-color="#94A744"/>
<stop offset="0.39" stop-color="#9BAE49"/>
<stop offset="0.99" stop-color="#AFC459"/>
<stop offset="1" stop-color="#B0C55A"/>
</linearGradient>
<linearGradient id="paint23_linear_1_2046" x1="60.9484" y1="194.591" x2="17.2447" y2="131.402" gradientUnits="userSpaceOnUse">
<stop stop-color="#94A744"/>
<stop offset="0.39" stop-color="#9BAE49"/>
<stop offset="0.99" stop-color="#AFC459"/>
<stop offset="1" stop-color="#B0C55A"/>
</linearGradient>
<linearGradient id="paint24_linear_1_2046" x1="61.6808" y1="194.09" x2="17.9728" y2="130.896" gradientUnits="userSpaceOnUse">
<stop stop-color="#94A744"/>
<stop offset="0.39" stop-color="#9BAE49"/>
<stop offset="0.99" stop-color="#AFC459"/>
<stop offset="1" stop-color="#B0C55A"/>
</linearGradient>
<linearGradient id="paint25_linear_1_2046" x1="62.7699" y1="193.332" x2="19.072" y2="130.138" gradientUnits="userSpaceOnUse">
<stop stop-color="#94A744"/>
<stop offset="0.39" stop-color="#9BAE49"/>
<stop offset="0.99" stop-color="#AFC459"/>
<stop offset="1" stop-color="#B0C55A"/>
</linearGradient>
<linearGradient id="paint26_linear_1_2046" x1="57.7843" y1="181.261" x2="23.0756" y2="131.072" gradientUnits="userSpaceOnUse">
<stop stop-color="#94A744"/>
<stop offset="0.39" stop-color="#9BAE49"/>
<stop offset="0.99" stop-color="#AFC459"/>
<stop offset="1" stop-color="#B0C55A"/>
</linearGradient>
<linearGradient id="paint27_linear_1_2046" x1="70.7943" y1="187.787" x2="27.0922" y2="124.588" gradientUnits="userSpaceOnUse">
<stop stop-color="#94A744"/>
<stop offset="0.39" stop-color="#9BAE49"/>
<stop offset="0.99" stop-color="#AFC459"/>
<stop offset="1" stop-color="#B0C55A"/>
</linearGradient>
<linearGradient id="paint28_linear_1_2046" x1="35.0044" y1="86.0622" x2="17.8118" y2="126.452" gradientUnits="userSpaceOnUse">
<stop stop-color="#D5E7FB"/>
<stop offset="0.24" stop-color="#D0E4FB"/>
<stop offset="0.51" stop-color="#C3DEFB"/>
<stop offset="0.79" stop-color="#ADD3FB"/>
<stop offset="1" stop-color="#98C9FC"/>
</linearGradient>
<linearGradient id="paint29_linear_1_2046" x1="196.124" y1="148.163" x2="194.221" y2="157.996" gradientUnits="userSpaceOnUse">
<stop stop-color="#E093E3"/>
<stop offset="0.28" stop-color="#D78FE6"/>
<stop offset="0.74" stop-color="#BE86F0"/>
<stop offset="1" stop-color="#AE80F7"/>
</linearGradient>
<linearGradient id="paint30_linear_1_2046" x1="123.893" y1="205.352" x2="138.609" y2="146.668" gradientUnits="userSpaceOnUse">
<stop stop-color="#CC3D76"/>
<stop offset="0.99" stop-color="#DB719F"/>
</linearGradient>
<linearGradient id="paint31_linear_1_2046" x1="196.39" y1="185.963" x2="57.7106" y2="195.328" gradientUnits="userSpaceOnUse">
<stop stop-color="#D5E7FB"/>
<stop offset="0.24" stop-color="#D0E4FB"/>
<stop offset="0.51" stop-color="#C3DEFB"/>
<stop offset="0.79" stop-color="#ADD3FB"/>
<stop offset="1" stop-color="#98C9FC"/>
</linearGradient>
<linearGradient id="paint32_linear_1_2046" x1="153.211" y1="169.959" x2="193.642" y2="106.657" gradientUnits="userSpaceOnUse">
<stop stop-color="#A0325E"/>
<stop offset="0.99" stop-color="#AE5B80"/>
</linearGradient>
<linearGradient id="paint33_linear_1_2046" x1="111.897" y1="40.764" x2="89.7371" y2="140.09" gradientUnits="userSpaceOnUse">
<stop stop-color="white"/>
<stop offset="0.28" stop-color="#F9FCFE"/>
<stop offset="0.64" stop-color="#EAF4FE"/>
<stop offset="1" stop-color="#D3E9FD"/>
</linearGradient>
<linearGradient id="paint34_linear_1_2046" x1="155.129" y1="50.4108" x2="132.962" y2="149.737" gradientUnits="userSpaceOnUse">
<stop stop-color="white"/>
<stop offset="0.28" stop-color="#F9FCFE"/>
<stop offset="0.64" stop-color="#EAF4FE"/>
<stop offset="1" stop-color="#D3E9FD"/>
</linearGradient>
<linearGradient id="paint35_linear_1_2046" x1="131.692" y1="45.1797" x2="109.525" y2="144.506" gradientUnits="userSpaceOnUse">
<stop stop-color="white"/>
<stop offset="0.28" stop-color="#F9FCFE"/>
<stop offset="0.64" stop-color="#EAF4FE"/>
<stop offset="1" stop-color="#D3E9FD"/>
</linearGradient>
<linearGradient id="paint36_linear_1_2046" x1="138.183" y1="46.6333" x2="116.015" y2="145.952" gradientUnits="userSpaceOnUse">
<stop stop-color="white"/>
<stop offset="0.28" stop-color="#F9FCFE"/>
<stop offset="0.64" stop-color="#EAF4FE"/>
<stop offset="1" stop-color="#D3E9FD"/>
</linearGradient>
<linearGradient id="paint37_linear_1_2046" x1="144.673" y1="48.0795" x2="122.507" y2="147.406" gradientUnits="userSpaceOnUse">
<stop stop-color="white"/>
<stop offset="0.28" stop-color="#F9FCFE"/>
<stop offset="0.64" stop-color="#EAF4FE"/>
<stop offset="1" stop-color="#D3E9FD"/>
</linearGradient>
<linearGradient id="paint38_linear_1_2046" x1="91.0199" y1="197.6" x2="167.489" y2="181.871" gradientUnits="userSpaceOnUse">
<stop stop-color="#B3C2D2"/>
<stop offset="0.27" stop-color="#AEBFD2"/>
<stop offset="0.56" stop-color="#A1B9D2"/>
<stop offset="0.87" stop-color="#8BADD2"/>
<stop offset="1" stop-color="#80A8D3"/>
</linearGradient>
<linearGradient id="paint39_linear_1_2046" x1="114.92" y1="197.242" x2="191.389" y2="181.513" gradientUnits="userSpaceOnUse">
<stop stop-color="#B3C2D2"/>
<stop offset="0.27" stop-color="#AEBFD2"/>
<stop offset="0.56" stop-color="#A1B9D2"/>
<stop offset="0.87" stop-color="#8BADD2"/>
<stop offset="1" stop-color="#80A8D3"/>
</linearGradient>
<linearGradient id="paint40_linear_1_2046" x1="185.539" y1="261.439" x2="281.362" y2="376.369" gradientUnits="userSpaceOnUse">
<stop stop-color="#72B2F9"/>
<stop offset="1" stop-color="#9BC8F9"/>
</linearGradient>
<linearGradient id="paint41_linear_1_2046" x1="81.303" y1="222.43" x2="103.632" y2="263.145" gradientUnits="userSpaceOnUse">
<stop stop-color="#72B2F9"/>
<stop offset="1" stop-color="#9BC8F9"/>
</linearGradient>
<linearGradient id="paint42_linear_1_2046" x1="172.354" y1="231.267" x2="189.628" y2="262.763" gradientUnits="userSpaceOnUse">
<stop stop-color="white"/>
<stop offset="0.28" stop-color="#F9FCFE"/>
<stop offset="0.64" stop-color="#EAF4FE"/>
<stop offset="1" stop-color="#D3E9FD"/>
</linearGradient>
<linearGradient id="paint43_linear_1_2046" x1="92.1795" y1="224.255" x2="86.2538" y2="267.931" gradientUnits="userSpaceOnUse">
<stop stop-color="white"/>
<stop offset="0.28" stop-color="#F9FCFE"/>
<stop offset="0.64" stop-color="#EAF4FE"/>
<stop offset="1" stop-color="#D3E9FD"/>
</linearGradient>
<linearGradient id="paint44_linear_1_2046" x1="53.408" y1="243.847" x2="119.664" y2="243.847" gradientUnits="userSpaceOnUse">
<stop stop-color="#D5E7FB"/>
<stop offset="0.24" stop-color="#D0E4FB"/>
<stop offset="0.51" stop-color="#C3DEFB"/>
<stop offset="0.79" stop-color="#ADD3FB"/>
<stop offset="1" stop-color="#98C9FC"/>
</linearGradient>
<linearGradient id="paint45_linear_1_2046" x1="77.741" y1="250.346" x2="125" y2="250.346" gradientUnits="userSpaceOnUse">
<stop stop-color="#D5E7FB"/>
<stop offset="0.24" stop-color="#D0E4FB"/>
<stop offset="0.51" stop-color="#C3DEFB"/>
<stop offset="0.79" stop-color="#ADD3FB"/>
<stop offset="1" stop-color="#98C9FC"/>
</linearGradient>
<linearGradient id="paint46_linear_1_2046" x1="196.276" y1="188.536" x2="179.524" y2="243.139" gradientUnits="userSpaceOnUse">
<stop stop-color="#DFA23E"/>
<stop offset="0.28" stop-color="#DE9E3C"/>
<stop offset="0.52" stop-color="#DB9335"/>
<stop offset="0.76" stop-color="#D8812B"/>
<stop offset="0.98" stop-color="#D2681D"/>
<stop offset="1" stop-color="#D2661C"/>
</linearGradient>
<linearGradient id="paint47_linear_1_2046" x1="181.655" y1="199.974" x2="198.951" y2="231.513" gradientUnits="userSpaceOnUse">
<stop stop-color="white"/>
<stop offset="0.28" stop-color="#F9FCFE"/>
<stop offset="0.64" stop-color="#EAF4FE"/>
<stop offset="1" stop-color="#D3E9FD"/>
</linearGradient>
<linearGradient id="paint48_linear_1_2046" x1="235.356" y1="248.573" x2="236.799" y2="261.666" gradientUnits="userSpaceOnUse">
<stop stop-color="#E9A78D"/>
<stop offset="1" stop-color="#ECCDB8"/>
</linearGradient>
<linearGradient id="paint49_linear_1_2046" x1="265.735" y1="227.376" x2="276.901" y2="240.011" gradientUnits="userSpaceOnUse">
<stop stop-color="#E9A78D"/>
<stop offset="1" stop-color="#ECCDB8"/>
</linearGradient>
<linearGradient id="paint50_linear_1_2046" x1="281.185" y1="237.143" x2="255.246" y2="258.619" gradientUnits="userSpaceOnUse">
<stop stop-color="#CF4D4C"/>
<stop offset="0.35" stop-color="#CC4948"/>
<stop offset="0.63" stop-color="#C4403F"/>
<stop offset="0.87" stop-color="#B72F2E"/>
<stop offset="1" stop-color="#AE2423"/>
</linearGradient>
<linearGradient id="paint51_linear_1_2046" x1="201.832" y1="107.838" x2="222.782" y2="162.479" gradientUnits="userSpaceOnUse">
<stop stop-color="#D89D3C"/>
<stop offset="0.28" stop-color="#D7993A"/>
<stop offset="0.53" stop-color="#D48E33"/>
<stop offset="0.77" stop-color="#D07C29"/>
<stop offset="0.99" stop-color="#CB631B"/>
<stop offset="1" stop-color="#CB631B"/>
</linearGradient>
<linearGradient id="paint52_linear_1_2046" x1="241.857" y1="148.539" x2="247.409" y2="162.116" gradientUnits="userSpaceOnUse">
<stop stop-color="#557ABF"/>
<stop offset="0.33" stop-color="#5377BD"/>
<stop offset="0.56" stop-color="#4D6EB9"/>
<stop offset="0.76" stop-color="#435EB1"/>
<stop offset="0.94" stop-color="#3549A6"/>
<stop offset="1" stop-color="#2F40A2"/>
</linearGradient>
<linearGradient id="paint53_linear_1_2046" x1="236.521" y1="144.963" x2="236.99" y2="177.143" gradientUnits="userSpaceOnUse">
<stop stop-color="#597FC8"/>
<stop offset="0.33" stop-color="#577CC6"/>
<stop offset="0.56" stop-color="#5173C2"/>
<stop offset="0.75" stop-color="#4763BA"/>
<stop offset="0.93" stop-color="#384EB0"/>
<stop offset="1" stop-color="#3244AB"/>
</linearGradient>
<linearGradient id="paint54_linear_1_2046" x1="255.423" y1="167.706" x2="248.607" y2="167.706" gradientUnits="userSpaceOnUse">
<stop stop-color="#E9A78D"/>
<stop offset="1" stop-color="#ECCDB8"/>
</linearGradient>
<linearGradient id="paint55_linear_1_2046" x1="246.408" y1="144.853" x2="246.877" y2="177.004" gradientUnits="userSpaceOnUse">
<stop stop-color="#597FC8"/>
<stop offset="0.33" stop-color="#577CC6"/>
<stop offset="0.56" stop-color="#5173C2"/>
<stop offset="0.75" stop-color="#4763BA"/>
<stop offset="0.93" stop-color="#384EB0"/>
<stop offset="1" stop-color="#3244AB"/>
</linearGradient>
<linearGradient id="paint56_linear_1_2046" x1="234.872" y1="147.308" x2="239.897" y2="155.889" gradientUnits="userSpaceOnUse">
<stop stop-color="#557ABF"/>
<stop offset="0.33" stop-color="#5377BD"/>
<stop offset="0.56" stop-color="#4D6EB9"/>
<stop offset="0.76" stop-color="#435EB1"/>
<stop offset="0.94" stop-color="#3549A6"/>
<stop offset="1" stop-color="#2F40A2"/>
</linearGradient>
<linearGradient id="paint57_linear_1_2046" x1="179.69" y1="126.272" x2="217.669" y2="181.851" gradientUnits="userSpaceOnUse">
<stop stop-color="#DFA23E"/>
<stop offset="0.28" stop-color="#DE9E3C"/>
<stop offset="0.52" stop-color="#DB9335"/>
<stop offset="0.76" stop-color="#D8812B"/>
<stop offset="0.98" stop-color="#D2681D"/>
<stop offset="1" stop-color="#D2661C"/>
</linearGradient>
<linearGradient id="paint58_linear_1_2046" x1="172.097" y1="119.246" x2="193.047" y2="173.887" gradientUnits="userSpaceOnUse">
<stop stop-color="#D89D3C"/>
<stop offset="0.28" stop-color="#D7993A"/>
<stop offset="0.53" stop-color="#D48E33"/>
<stop offset="0.77" stop-color="#D07C29"/>
<stop offset="0.99" stop-color="#CB631B"/>
<stop offset="1" stop-color="#CB631B"/>
</linearGradient>
<linearGradient id="paint59_linear_1_2046" x1="150.681" y1="146.091" x2="188.66" y2="201.677" gradientUnits="userSpaceOnUse">
<stop stop-color="#DFA23E"/>
<stop offset="0.28" stop-color="#DE9E3C"/>
<stop offset="0.52" stop-color="#DB9335"/>
<stop offset="0.76" stop-color="#D8812B"/>
<stop offset="0.98" stop-color="#D2681D"/>
<stop offset="1" stop-color="#D2661C"/>
</linearGradient>
<linearGradient id="paint60_linear_1_2046" x1="230.247" y1="154.686" x2="216.054" y2="165.424" gradientUnits="userSpaceOnUse">
<stop stop-color="#E9A78D"/>
<stop offset="1" stop-color="#ECCDB8"/>
</linearGradient>
<linearGradient id="paint61_linear_1_2046" x1="236.858" y1="161.595" x2="227.191" y2="161.595" gradientUnits="userSpaceOnUse">
<stop stop-color="#E9A78D"/>
<stop offset="1" stop-color="#ECCDB8"/>
</linearGradient>
<linearGradient id="paint62_linear_1_2046" x1="235.29" y1="164.16" x2="226.854" y2="164.16" gradientUnits="userSpaceOnUse">
<stop stop-color="#E9A78D"/>
<stop offset="1" stop-color="#ECCDB8"/>
</linearGradient>
<linearGradient id="paint63_linear_1_2046" x1="233.853" y1="166.292" x2="227.052" y2="166.292" gradientUnits="userSpaceOnUse">
<stop stop-color="#E9A78D"/>
<stop offset="1" stop-color="#ECCDB8"/>
</linearGradient>
<linearGradient id="paint64_linear_1_2046" x1="169.503" y1="133.233" x2="207.488" y2="188.811" gradientUnits="userSpaceOnUse">
<stop stop-color="#DFA23E"/>
<stop offset="0.28" stop-color="#DE9E3C"/>
<stop offset="0.52" stop-color="#DB9335"/>
<stop offset="0.76" stop-color="#D8812B"/>
<stop offset="0.98" stop-color="#D2681D"/>
<stop offset="1" stop-color="#D2661C"/>
</linearGradient>
<linearGradient id="paint65_linear_1_2046" x1="210.814" y1="130.48" x2="189.168" y2="117.742" gradientUnits="userSpaceOnUse">
<stop stop-color="#5E2D15"/>
<stop offset="1" stop-color="#7D4911"/>
</linearGradient>
<linearGradient id="paint66_linear_1_2046" x1="215.621" y1="122.305" x2="193.968" y2="109.576" gradientUnits="userSpaceOnUse">
<stop stop-color="#5E2D15"/>
<stop offset="1" stop-color="#7D4911"/>
</linearGradient>
<linearGradient id="paint67_linear_1_2046" x1="218.705" y1="117.069" x2="197.052" y2="104.332" gradientUnits="userSpaceOnUse">
<stop stop-color="#5E2D15"/>
<stop offset="1" stop-color="#7D4911"/>
</linearGradient>
<linearGradient id="paint68_linear_1_2046" x1="236.448" y1="203.784" x2="235.701" y2="259.769" gradientUnits="userSpaceOnUse">
<stop stop-color="#36366B"/>
<stop offset="1" stop-color="#484883"/>
</linearGradient>
<linearGradient id="paint69_linear_1_2046" x1="208.817" y1="189.145" x2="246.208" y2="219.446" gradientUnits="userSpaceOnUse">
<stop stop-color="#676795"/>
<stop offset="1" stop-color="#484883"/>
</linearGradient>
<linearGradient id="paint70_linear_1_2046" x1="238.383" y1="195.263" x2="234.769" y2="195.263" gradientUnits="userSpaceOnUse">
<stop stop-color="#36366B"/>
<stop offset="1" stop-color="#484883"/>
</linearGradient>
<linearGradient id="paint71_linear_1_2046" x1="232.783" y1="194.801" x2="232.116" y2="194.801" gradientUnits="userSpaceOnUse">
<stop stop-color="#36366B"/>
<stop offset="1" stop-color="#484883"/>
</linearGradient>
<linearGradient id="paint72_linear_1_2046" x1="193.535" y1="195.38" x2="187.452" y2="195.38" gradientUnits="userSpaceOnUse">
<stop stop-color="#36366B"/>
<stop offset="1" stop-color="#484883"/>
</linearGradient>
<linearGradient id="paint73_linear_1_2046" x1="103.672" y1="169.281" x2="102.361" y2="183.129" gradientUnits="userSpaceOnUse">
<stop stop-color="#DFA23E"/>
<stop offset="0.28" stop-color="#DE9E3C"/>
<stop offset="0.52" stop-color="#DB9335"/>
<stop offset="0.76" stop-color="#D8812B"/>
<stop offset="0.98" stop-color="#D2681D"/>
<stop offset="1" stop-color="#D2661C"/>
</linearGradient>
<linearGradient id="paint74_linear_1_2046" x1="101.605" y1="192.888" x2="95.6793" y2="236.565" gradientUnits="userSpaceOnUse">
<stop stop-color="white"/>
<stop offset="0.28" stop-color="#F9FCFE"/>
<stop offset="0.64" stop-color="#EAF4FE"/>
<stop offset="1" stop-color="#D3E9FD"/>
</linearGradient>
<linearGradient id="paint75_linear_1_2046" x1="62.8334" y1="212.473" x2="129.089" y2="212.473" gradientUnits="userSpaceOnUse">
<stop stop-color="#D5E7FB"/>
<stop offset="0.24" stop-color="#D0E4FB"/>
<stop offset="0.51" stop-color="#C3DEFB"/>
<stop offset="0.79" stop-color="#ADD3FB"/>
<stop offset="1" stop-color="#98C9FC"/>
</linearGradient>
<linearGradient id="paint76_linear_1_2046" x1="87.1664" y1="218.98" x2="134.425" y2="218.98" gradientUnits="userSpaceOnUse">
<stop stop-color="#D5E7FB"/>
<stop offset="0.24" stop-color="#D0E4FB"/>
<stop offset="0.51" stop-color="#C3DEFB"/>
<stop offset="0.79" stop-color="#ADD3FB"/>
<stop offset="1" stop-color="#98C9FC"/>
</linearGradient>
<linearGradient id="paint77_linear_1_2046" x1="72.7498" y1="226.351" x2="120.016" y2="226.351" gradientUnits="userSpaceOnUse">
<stop stop-color="#D5E7FB"/>
<stop offset="0.24" stop-color="#D0E4FB"/>
<stop offset="0.51" stop-color="#C3DEFB"/>
<stop offset="0.79" stop-color="#ADD3FB"/>
<stop offset="1" stop-color="#98C9FC"/>
</linearGradient>
<linearGradient id="paint78_linear_1_2046" x1="223.109" y1="20.8673" x2="204.789" y2="75.9691" gradientUnits="userSpaceOnUse">
<stop/>
<stop offset="1" stop-color="#474747"/>
</linearGradient>
<linearGradient id="paint79_linear_1_2046" x1="222.354" y1="15.7679" x2="202.547" y2="75.3614" gradientUnits="userSpaceOnUse">
<stop stop-color="white"/>
<stop offset="0.28" stop-color="#F9FCFE"/>
<stop offset="0.64" stop-color="#EAF4FE"/>
<stop offset="1" stop-color="#D3E9FD"/>
</linearGradient>
<linearGradient id="paint80_linear_1_2046" x1="230.453" y1="26.3041" x2="213.055" y2="78.6288" gradientUnits="userSpaceOnUse">
<stop stop-color="white"/>
<stop offset="0.28" stop-color="#F9FCFE"/>
<stop offset="0.64" stop-color="#EAF4FE"/>
<stop offset="1" stop-color="#D3E9FD"/>
</linearGradient>
<clipPath id="clip0_1_2046">
<rect width="293" height="267" fill="white"/>
</clipPath>
</defs>
</svg>
