<svg width="524" height="524" viewBox="0 0 524 524" fill="none" xmlns="http://www.w3.org/2000/svg">
<g clip-path="url(#clip0_356_3178)">
<path d="M54.3444 388.742H472.049C472.049 388.742 519.443 235.165 401.685 186.254C283.929 137.346 253.282 222.25 156.691 234.13C60.101 246.009 9.56714 297.855 54.3444 388.742Z" fill="#F7F7F7"/>
<path d="M304.126 165.88H298.645C297.883 161.719 296.256 157.789 293.854 154.307L297.73 150.428C298.218 149.94 298.218 149.148 297.73 148.66L291.724 142.65C291.235 142.161 290.444 142.161 289.956 142.65L286.08 146.528C282.6 144.125 278.673 142.498 274.513 141.734V136.249C274.513 135.559 273.954 135 273.265 135H264.769C264.079 135 263.52 135.559 263.52 136.249V141.735C259.362 142.498 255.434 144.126 251.954 146.53L248.077 142.651C247.589 142.163 246.798 142.163 246.31 142.651L240.304 148.661C239.815 149.15 239.815 149.941 240.304 150.43L244.18 154.308C241.778 157.791 240.152 161.719 239.388 165.882H233.907C233.218 165.882 232.659 166.441 232.659 167.131V175.632C232.659 176.322 233.218 176.881 233.907 176.881H239.388C240.151 181.042 241.778 184.973 244.18 188.455L240.304 192.333C239.815 192.822 239.815 193.613 240.304 194.102L246.31 200.112C246.798 200.6 247.589 200.6 248.077 200.112L251.954 196.233C255.434 198.637 259.36 200.264 263.52 201.028V206.512C263.52 207.202 264.079 207.761 264.769 207.761H273.265C273.954 207.761 274.513 207.202 274.513 206.512V201.028C278.672 200.265 282.6 198.637 286.08 196.233L289.956 200.112C290.444 200.6 291.235 200.6 291.724 200.112L297.73 194.102C298.218 193.613 298.218 192.822 297.73 192.333L293.854 188.455C296.256 184.973 297.881 181.044 298.645 176.881H304.126C304.816 176.881 305.375 176.322 305.375 175.632V167.131C305.375 166.441 304.816 165.882 304.126 165.882V165.88ZM269.016 185.071C261.46 185.071 255.334 178.942 255.334 171.381C255.334 163.82 261.46 157.691 269.016 157.691C276.572 157.691 282.698 163.82 282.698 171.381C282.698 178.942 276.572 185.071 269.016 185.071Z" fill="#D1D1D1"/>
<path d="M269.017 191.502C257.929 191.502 248.908 182.475 248.908 171.381C248.908 160.286 257.929 151.26 269.017 151.26C280.104 151.26 289.125 160.286 289.125 171.381C289.125 182.475 280.104 191.502 269.017 191.502ZM269.017 152.201C258.447 152.201 249.847 160.805 249.847 171.382C249.847 181.959 258.446 190.563 269.017 190.563C279.587 190.563 288.186 181.959 288.186 171.382C288.186 160.805 279.587 152.201 269.017 152.201Z" fill="white"/>
<path d="M348.06 203.546H344.283C343.758 200.678 342.636 197.972 340.982 195.573L343.653 192.9C343.99 192.563 343.99 192.018 343.653 191.681L339.514 187.54C339.177 187.203 338.633 187.203 338.296 187.54L335.625 190.212C333.227 188.557 330.522 187.435 327.656 186.909V183.13C327.656 182.655 327.271 182.27 326.796 182.27H320.942C320.467 182.27 320.082 182.655 320.082 183.13V186.909C317.216 187.435 314.511 188.557 312.113 190.212L309.442 187.54C309.105 187.203 308.561 187.203 308.224 187.54L304.085 191.681C303.748 192.018 303.748 192.563 304.085 192.9L306.756 195.573C305.101 197.972 303.98 200.678 303.455 203.546H299.678C299.203 203.546 298.818 203.932 298.818 204.407V210.264C298.818 210.74 299.203 211.125 299.678 211.125H303.455C303.98 213.993 305.101 216.7 306.756 219.098L304.085 221.771C303.748 222.108 303.748 222.653 304.085 222.99L308.224 227.132C308.561 227.469 309.105 227.469 309.442 227.132L312.113 224.459C314.511 226.114 317.216 227.236 320.082 227.762V231.541C320.082 232.016 320.467 232.402 320.942 232.402H326.796C327.271 232.402 327.656 232.016 327.656 231.541V227.762C330.522 227.236 333.227 226.114 335.625 224.459L338.296 227.132C338.633 227.469 339.177 227.469 339.514 227.132L343.653 222.99C343.99 222.653 343.99 222.108 343.653 221.771L340.982 219.098C342.636 216.7 343.758 213.993 344.283 211.125H348.06C348.535 211.125 348.92 210.74 348.92 210.264V204.407C348.92 203.932 348.535 203.546 348.06 203.546ZM323.87 216.767C318.664 216.767 314.443 212.545 314.443 207.335C314.443 202.124 318.662 197.902 323.87 197.902C329.077 197.902 333.297 202.124 333.297 207.335C333.297 212.545 329.077 216.767 323.87 216.767Z" fill="#E8E8E8"/>
<path d="M323.871 221.197C316.232 221.197 310.017 214.979 310.017 207.334C310.017 199.69 316.231 193.472 323.871 193.472C331.511 193.472 337.725 199.69 337.725 207.334C337.725 214.979 331.511 221.197 323.871 221.197ZM323.871 194.12C316.589 194.12 310.664 200.048 310.664 207.334C310.664 214.621 316.589 220.549 323.871 220.549C331.153 220.549 337.078 214.621 337.078 207.334C337.078 200.048 331.153 194.12 323.871 194.12Z" fill="white"/>
<path d="M120.319 152.842H74.1467C72.6162 152.842 71.3755 154.083 71.3755 155.614V179.496C71.3755 181.028 72.6162 182.269 74.1467 182.269H120.319C121.85 182.269 123.09 181.028 123.09 179.496V155.614C123.09 154.083 121.85 152.842 120.319 152.842Z" fill="#E8E8E8"/>
<path d="M75.7827 157.971H118.685C119.124 157.971 119.48 158.327 119.48 158.767V160.969C119.48 161.41 119.124 161.766 118.685 161.766H75.7827C75.3429 161.766 74.9868 161.41 74.9868 160.969V158.767C74.9868 158.327 75.3429 157.971 75.7827 157.971Z" fill="#D1D1D1"/>
<path d="M118.685 165.657H75.7827C75.3432 165.657 74.9868 166.014 74.9868 166.454V168.656C74.9868 169.096 75.3432 169.452 75.7827 169.452H118.685C119.124 169.452 119.48 169.096 119.48 168.656V166.454C119.48 166.014 119.124 165.657 118.685 165.657Z" fill="#F7F7F7"/>
<path d="M98.9479 173.344H75.5781C75.2515 173.344 74.9868 173.609 74.9868 173.936V176.548C74.9868 176.875 75.2515 177.139 75.5781 177.139H98.9479C99.2745 177.139 99.5392 176.875 99.5392 176.548V173.936C99.5392 173.609 99.2745 173.344 98.9479 173.344Z" fill="#F7F7F7"/>
<path d="M401.97 164.768H373.274C371.984 164.768 370.938 165.814 370.938 167.105V200.541C370.938 201.832 371.984 202.878 373.274 202.878H401.97C403.261 202.878 404.307 201.832 404.307 200.541V167.105C404.307 165.814 403.261 164.768 401.97 164.768Z" fill="#E8E8E8"/>
<path d="M381.691 167.962H375.834C375.564 167.962 375.344 168.181 375.344 168.452V174.312C375.344 174.583 375.564 174.802 375.834 174.802H381.691C381.961 174.802 382.18 174.583 382.18 174.312V168.452C382.18 168.181 381.961 167.962 381.691 167.962Z" fill="white"/>
<path d="M390.55 167.962H384.694C384.423 167.962 384.204 168.181 384.204 168.452V174.312C384.204 174.582 384.423 174.802 384.694 174.802H390.55C390.821 174.802 391.04 174.582 391.04 174.312V168.452C391.04 168.181 390.821 167.962 390.55 167.962Z" fill="white"/>
<path d="M399.411 167.962H393.554C393.284 167.962 393.064 168.181 393.064 168.452V174.312C393.064 174.582 393.284 174.802 393.554 174.802H399.411C399.681 174.802 399.901 174.582 399.901 174.312V168.452C399.901 168.181 399.681 167.962 399.411 167.962Z" fill="white"/>
<path d="M398.603 180.784H376.641C375.924 180.784 375.344 180.204 375.344 179.486C375.344 178.769 375.924 178.188 376.641 178.188H398.603C399.32 178.188 399.9 178.769 399.9 179.486C399.9 180.204 399.32 180.784 398.603 180.784Z" fill="#D1D1D1"/>
<path d="M398.603 185.372H376.641C375.924 185.372 375.344 184.792 375.344 184.074C375.344 183.357 375.924 182.776 376.641 182.776H398.603C399.32 182.776 399.9 183.357 399.9 184.074C399.9 184.792 399.32 185.372 398.603 185.372Z" fill="#D1D1D1"/>
<path d="M398.603 189.96H376.641C375.924 189.96 375.344 189.38 375.344 188.663C375.344 187.945 375.924 187.365 376.641 187.365H398.603C399.32 187.365 399.9 187.945 399.9 188.663C399.9 189.38 399.32 189.96 398.603 189.96Z" fill="#D1D1D1"/>
<path d="M398.603 194.545H376.641C375.924 194.545 375.344 193.965 375.344 193.248C375.344 192.53 375.924 191.95 376.641 191.95H398.603C399.32 191.95 399.9 192.53 399.9 193.248C399.9 193.965 399.32 194.545 398.603 194.545Z" fill="#D1D1D1"/>
<path d="M398.603 199.135H376.641C375.924 199.135 375.344 198.554 375.344 197.837C375.344 197.12 375.924 196.539 376.641 196.539H398.603C399.32 196.539 399.9 197.12 399.9 197.837C399.9 198.554 399.32 199.135 398.603 199.135Z" fill="#D1D1D1"/>
<path d="M358.663 314.493H234.932C234.43 314.493 234.022 314.901 234.022 315.404V318.275C234.022 318.778 234.43 319.186 234.932 319.186H358.663C359.165 319.186 359.573 318.778 359.573 318.275V315.404C359.573 314.901 359.165 314.493 358.663 314.493Z" fill="#FE6D60"/>
<path d="M241.989 388.742H239.608L254.493 319.187H256.876L241.989 388.742Z" fill="#E63E36"/>
<path d="M351.606 388.742H353.989L339.101 319.187H336.72L351.606 388.742Z" fill="#E63E36"/>
<path d="M377.429 285.665L350.858 369.168L366.14 371.667L392.63 304.696C392.63 304.696 405.239 299.608 404.745 285.665H377.429Z" fill="#373660"/>
<path d="M352.598 376.467L350.869 378.962L339.733 382.875C337.843 383.539 336.219 385.161 335.639 386.966H359.547L361.576 376.486L352.598 376.467Z" fill="#4F5285"/>
<path d="M349.528 379.435L349.809 381.066C349.872 381.426 349.573 381.86 349.155 382.021C348.774 382.168 348.426 382.032 348.356 381.71L347.982 379.977L349.528 379.433V379.435Z" fill="#373660"/>
<path d="M346.807 380.394L347.089 382.025C347.152 382.385 346.852 382.818 346.435 382.98C346.053 383.126 345.705 382.991 345.636 382.668L345.262 380.935L346.807 380.392V380.394Z" fill="#373660"/>
<path d="M343.736 381.473L344.017 383.105C344.08 383.464 343.781 383.898 343.363 384.059C342.982 384.206 342.633 384.07 342.564 383.748L342.19 382.015L343.736 381.472V381.473Z" fill="#373660"/>
<path d="M359.548 386.967L358.977 388.741H335.069L335.64 386.967H359.548Z" fill="#373660"/>
<path d="M361.575 376.487L363.461 371.228L354.217 369.718L352.598 376.467L361.575 376.487Z" fill="#FFD1C1"/>
<mask id="mask0_356_3178" style="mask-type:luminance" maskUnits="userSpaceOnUse" x="352" y="369" width="12" height="8">
<path d="M361.575 376.487L363.461 371.228L354.217 369.718L352.598 376.467L361.575 376.487Z" fill="white"/>
</mask>
<g mask="url(#mask0_356_3178)">
<path d="M351.946 369.347L363.461 374.549L365.447 367.996L351.946 369.347Z" fill="#FFB2A0"/>
</g>
<path d="M400.158 293.8L412.528 361.749L399.086 366.067L381.17 301.227L400.158 293.8Z" fill="#373660"/>
<path d="M403.184 370.624L402.559 373.595L393.814 381.525C392.329 382.871 391.462 384.996 391.628 386.886L413.662 377.601L411.466 367.155L403.184 370.624Z" fill="#4F5285"/>
<path d="M401.505 374.552L402.398 375.946C402.594 376.253 402.488 376.77 402.164 377.08C401.869 377.363 401.496 377.373 401.307 377.104L400.291 375.653L401.504 374.552H401.505Z" fill="#373660"/>
<path d="M399.372 376.49L400.265 377.884C400.461 378.191 400.355 378.708 400.031 379.018C399.736 379.302 399.362 379.311 399.174 379.042L398.157 377.591L399.37 376.49H399.372Z" fill="#373660"/>
<path d="M396.959 378.677L397.852 380.072C398.048 380.378 397.942 380.896 397.618 381.205C397.323 381.489 396.949 381.498 396.761 381.229L395.744 379.778L396.957 378.677H396.959Z" fill="#373660"/>
<path d="M413.662 377.602L413.824 379.459L391.79 388.743L391.627 386.886L413.662 377.602Z" fill="#373660"/>
<path d="M411.465 367.155L411.196 362.178L401.816 365.19L403.184 370.624L411.465 367.155Z" fill="#FFD1C1"/>
<mask id="mask1_356_3178" style="mask-type:luminance" maskUnits="userSpaceOnUse" x="401" y="362" width="11" height="9">
<path d="M411.465 367.156L411.196 362.179L401.815 365.19L403.183 370.625L411.465 367.156Z" fill="white"/>
</mask>
<g mask="url(#mask1_356_3178)">
<path d="M399.167 365.86L412.722 365.615L411.407 360.037L399.167 365.86Z" fill="#FFB2A0"/>
</g>
<path d="M386.175 319.638C386.135 319.638 386.095 319.63 386.054 319.612C385.903 319.546 385.835 319.369 385.901 319.217L392.401 304.476L392.499 304.427C392.56 304.397 398.608 301.392 400.68 297.918C400.764 297.776 400.948 297.729 401.091 297.814C401.233 297.9 401.28 298.082 401.194 298.226C399.155 301.645 393.693 304.497 392.861 304.916L386.449 319.459C386.399 319.57 386.29 319.638 386.175 319.638Z" fill="#4F5285"/>
<path d="M380.455 262.721C379.019 263.955 344.756 266.698 344.756 266.698C344.756 266.698 340.503 270.076 339.784 269.02C339.264 268.256 338.94 268.077 338.202 266.366C337.977 265.844 337.506 264.035 337.587 263.471C337.898 261.322 339.364 260.927 339.364 260.927C340.427 260.49 344.249 260.835 344.249 260.835L375.618 252.995L380.455 262.723V262.721Z" fill="#FFD1C1"/>
<mask id="mask2_356_3178" style="mask-type:luminance" maskUnits="userSpaceOnUse" x="337" y="252" width="44" height="18">
<path d="M380.454 262.722C379.019 263.956 344.756 266.699 344.756 266.699C344.756 266.699 340.502 270.077 339.784 269.021C339.264 268.257 338.94 268.078 338.202 266.367C337.976 265.845 337.506 264.036 337.586 263.472C337.897 261.323 339.363 260.928 339.363 260.928C340.427 260.491 344.248 260.836 344.248 260.836L375.618 252.996L380.454 262.724V262.722Z" fill="white"/>
</mask>
<g mask="url(#mask2_356_3178)">
<path d="M356.23 265.716C356.436 265.697 368.067 260.707 368.067 260.707C368.067 260.707 368.675 255.353 370.769 252.995L374.281 252.395L373.875 266.612C373.875 266.612 356.415 267.009 356.23 265.716Z" fill="#FFB2A0"/>
<path d="M341.239 264.565C340.339 263.637 339.477 262.673 338.616 261.709C337.385 262.044 336.52 263.258 336.343 264.522C336.166 265.786 336.58 267.074 337.227 268.175C337.625 268.852 338.143 269.502 338.861 269.819C339.701 270.19 340.68 270.047 341.55 269.75C342.615 269.387 343.604 268.804 344.437 268.046C344.71 267.798 345.011 267.427 344.963 267.034C344.921 266.689 344.576 266.703 344.305 266.64C343.524 266.461 342.834 266.013 342.228 265.5C341.882 265.209 341.558 264.889 341.242 264.565H341.239Z" fill="#FFB2A0"/>
</g>
<path d="M382.439 218.145C382.439 218.145 378.782 217.724 376.93 221.258C375.68 223.647 377.924 228.591 379.252 231.909C380.219 234.326 382.845 235.688 385.35 234.988C385.535 234.937 385.711 234.875 385.874 234.806L382.437 218.145H382.439Z" fill="#373660"/>
<path d="M389.683 227.41C390.441 227.552 391.224 226.775 391.43 225.672C391.638 224.57 391.19 223.561 390.433 223.419C389.977 223.333 389.514 223.582 389.171 224.031C388.404 220.855 386.435 218.595 384.126 218.595C381.151 218.595 378.739 222.35 378.739 226.981C378.739 231.613 381.151 235.368 384.126 235.368V241.607L391.001 241.629L389.951 235.882C389.659 234.289 389.514 232.674 389.514 231.055V227.359C389.569 227.38 389.624 227.397 389.682 227.407L389.683 227.41Z" fill="#FFD1C1"/>
<mask id="mask3_356_3178" style="mask-type:luminance" maskUnits="userSpaceOnUse" x="378" y="218" width="14" height="24">
<path d="M389.683 227.411C390.441 227.553 391.224 226.776 391.43 225.673C391.638 224.57 391.19 223.561 390.433 223.419C389.977 223.334 389.514 223.582 389.171 224.032C388.404 220.856 386.435 218.596 384.126 218.596C381.151 218.596 378.739 222.351 378.739 226.982C378.739 231.614 381.151 235.368 384.126 235.368V241.607L391.001 241.63L389.951 235.883C389.659 234.29 389.514 232.675 389.514 231.056V227.359C389.569 227.38 389.624 227.398 389.682 227.408L389.683 227.411Z" fill="white"/>
</mask>
<g mask="url(#mask3_356_3178)">
<path d="M386.254 218.597C386.254 218.597 386.917 223.798 384.129 225.878C381.846 227.579 377.922 226.669 377.922 226.669C377.922 226.669 380.038 218.593 381.77 218.074C383.5 217.554 386.254 218.597 386.254 218.597Z" fill="#FFB2A0"/>
<path d="M380.535 231.774C380.535 231.774 381.788 232.146 383.195 230.383C383.195 230.383 383.299 232.641 382.118 232.746C380.937 232.851 380.535 231.774 380.535 231.774Z" fill="white"/>
</g>
<path d="M384.127 235.369C384.127 235.369 386.277 235.045 387.62 232.187C387.62 232.187 387.184 236.179 384.127 236.43V235.368V235.369Z" fill="#FFB2A0"/>
<path d="M381.892 219.352C381.892 219.352 380.943 225.22 389.173 224.03C389.173 224.03 390.367 222.684 391.221 224.039C392.075 225.391 390.852 227.397 389.516 227.361C389.516 227.361 389.181 233.837 390.086 236.608C390.086 236.608 390.768 234.385 392.448 231.836C394.723 228.386 394.748 223.871 392.31 220.535C391.25 219.086 389.748 217.809 387.621 217.077C380.183 214.519 381.892 219.35 381.892 219.35V219.352Z" fill="#373660"/>
<path d="M405.596 285.664L399.723 247.902C398.641 242.306 393.567 238.389 387.883 238.758C384.686 238.966 381.841 240.499 379.908 242.832L379.897 242.846C379.655 243.139 379.428 243.446 379.215 243.763L373.188 251.874C370.249 255.828 370.302 261.256 373.32 265.151L378.656 267.905L377.433 285.662H405.598L405.596 285.664Z" fill="#FE6D60"/>
<mask id="mask4_356_3178" style="mask-type:luminance" maskUnits="userSpaceOnUse" x="371" y="238" width="35" height="48">
<path d="M405.596 285.664L399.723 247.902C398.641 242.306 393.567 238.389 387.883 238.758C384.686 238.966 381.841 240.499 379.908 242.832L379.897 242.846C379.655 243.139 379.428 243.446 379.215 243.763L373.188 251.874C370.249 255.828 370.302 261.256 373.32 265.151L378.656 267.905L377.433 285.662H405.598L405.596 285.664Z" fill="white"/>
</mask>
<g mask="url(#mask4_356_3178)">
<path d="M391.38 250.811C391.38 250.811 390.407 269.661 382.897 273.35L376.343 275.262L375.797 268.294L391.378 250.809" fill="#E63E36"/>
</g>
<path d="M399.404 221.87C401.778 222.405 403.846 224.144 404.781 226.392C405.506 228.137 405.561 230.082 405.535 231.973C405.466 236.996 404.927 242.197 406.693 246.899C405.775 247.001 404.853 246.79 403.956 246.572C401.231 245.91 398.219 244.923 396.965 242.414C396.081 240.643 396.317 238.523 396.825 236.609C397.331 234.696 398.091 232.824 398.201 230.847C398.312 228.871 397.598 226.68 395.86 225.734C395.164 225.355 391.935 224.655 393.074 223.311C393.504 222.803 394.305 222.477 394.909 222.24C395.581 221.976 396.29 221.805 397.01 221.733C397.809 221.652 398.623 221.695 399.406 221.873L399.404 221.87Z" fill="#373660"/>
<path d="M393.563 222.886L394.092 225.186C394.092 225.186 394.507 225.921 395.411 225.542C395.411 225.542 394.833 222.525 394.712 222.313C394.591 222.102 393.554 222.26 393.562 222.884L393.563 222.886Z" fill="#FFC967"/>
<path d="M345.08 280.545L344.974 280.577C344.502 280.721 344.004 280.453 343.86 279.981L335.935 253.787C335.792 253.315 336.059 252.817 336.531 252.673L336.638 252.641C337.11 252.498 337.608 252.765 337.751 253.238L345.676 279.431C345.82 279.904 345.552 280.402 345.08 280.545Z" fill="#373660"/>
<path d="M387.411 245.514C387.11 245.416 386.792 245.34 386.462 245.285C383.13 244.737 379.879 246.659 378.619 249.795L373.927 261.473L346.51 271.287C346.51 271.287 342.663 270.607 341.648 271.144C341.648 271.144 339.816 271.832 340.159 274.816C340.159 274.816 340.766 277.017 341.585 277.999C342.402 278.98 347.569 276.374 347.569 276.374C347.569 276.374 368.222 274.5 379.929 270.987C379.929 270.987 381.411 270.354 382.723 268.99C382.995 268.708 383.259 268.394 383.501 268.047C384.011 267.317 390.727 253.657 390.727 253.657C392.375 250.501 390.794 246.62 387.411 245.514Z" fill="#FFD1C1"/>
<mask id="mask5_356_3178" style="mask-type:luminance" maskUnits="userSpaceOnUse" x="340" y="245" width="52" height="34">
<path d="M387.411 245.514C387.11 245.416 386.792 245.34 386.462 245.285C383.13 244.737 379.879 246.659 378.619 249.795L373.927 261.473L346.51 271.287C346.51 271.287 342.663 270.607 341.648 271.144C341.648 271.144 339.816 271.832 340.159 274.816C340.159 274.816 340.766 277.017 341.585 277.999C342.402 278.98 347.569 276.374 347.569 276.374C347.569 276.374 368.222 274.5 379.929 270.987C379.929 270.987 381.411 270.354 382.723 268.99C382.995 268.708 383.259 268.394 383.501 268.047C384.011 267.317 390.727 253.657 390.727 253.657C392.375 250.501 390.794 246.62 387.411 245.514Z" fill="white"/>
</mask>
<g mask="url(#mask5_356_3178)">
<path d="M361.317 275.069C367.5 274.64 378.097 273.679 381.061 271.994C385.326 269.57 392.277 255.12 392.277 255.12C392.277 255.12 398.877 246.89 389.902 247.692C389.902 247.692 383.204 265.992 381.168 267.835C379.133 269.678 356.739 275.341 356.739 275.341C356.739 275.341 358.602 275.256 361.313 275.067L361.317 275.069Z" fill="#FFB2A0"/>
</g>
<path d="M282.153 225.65C282.153 225.65 284.892 216.805 285.685 216.971C286.478 217.138 285.477 221.515 286.561 221.309C287.646 221.102 289.273 212.421 289.898 212.923C290.523 213.424 294.235 218.181 293.694 220.853C293.151 223.524 286.376 228.891 286.376 228.891L282.155 225.65H282.153Z" fill="#FFD1C1"/>
<path d="M215.088 217.875C215.088 217.875 220.343 210.252 219.722 209.733C219.101 209.212 216.28 212.707 215.773 211.725C215.265 210.743 221.078 204.098 220.297 203.916C219.517 203.734 213.485 203.755 211.722 205.833C209.96 207.911 209.932 216.557 209.932 216.557L215.088 217.874V217.875Z" fill="#FFD1C1"/>
<path d="M225.75 205.326C222.203 206.045 220.23 211.104 221.347 216.625L222.33 221.484C222.72 223.414 222.936 225.376 222.973 227.344L223.106 234.449L231.299 232.763L229.794 225.323C233.342 224.604 235.314 219.545 234.198 214.024C233.081 208.5 229.3 204.606 225.752 205.325L225.75 205.326Z" fill="#FFD1C1"/>
<mask id="mask6_356_3178" style="mask-type:luminance" maskUnits="userSpaceOnUse" x="221" y="205" width="14" height="30">
<path d="M225.751 205.325C222.203 206.044 220.231 211.103 221.347 216.625L222.33 221.483C222.72 223.413 222.936 225.375 222.973 227.344L223.107 234.448L231.3 232.762L229.795 225.322C233.343 224.603 235.315 219.544 234.198 214.023C233.082 208.499 229.3 204.605 225.752 205.324L225.751 205.325Z" fill="white"/>
</mask>
<g mask="url(#mask6_356_3178)">
<path d="M233.483 222.084C233.483 222.084 230.069 223.822 229.183 222.9L229.795 225.326C229.795 225.326 233.269 224.869 233.483 222.084Z" fill="#FFB2A0"/>
</g>
<path d="M248.211 275.09L239.609 372.433H218.685L229.626 286.337L214.265 372.433H191.625L215.854 275.09H248.211Z" fill="#373660"/>
<mask id="mask7_356_3178" style="mask-type:luminance" maskUnits="userSpaceOnUse" x="191" y="275" width="58" height="98">
<path d="M248.211 275.089L239.609 372.432H218.685L229.626 286.337L214.265 372.432H191.625L215.854 275.089H248.211Z" fill="white"/>
</mask>
<g mask="url(#mask7_356_3178)">
<path d="M201.808 372.603C201.771 372.603 201.732 372.59 201.702 372.566C201.628 372.508 201.615 372.402 201.671 372.327C202.528 370.991 217.1 306.795 224.687 273.027C224.708 272.934 224.799 272.877 224.893 272.897C224.985 272.918 225.044 273.009 225.023 273.101C224.123 277.109 202.962 371.252 201.945 372.537C201.911 372.581 201.861 372.601 201.81 372.601L201.808 372.603Z" fill="#4F5285"/>
<path d="M231.049 372.603C231.049 372.603 231.04 372.603 231.035 372.603C230.94 372.595 230.869 372.512 230.877 372.417L238.928 272.161C238.936 272.066 239.018 271.997 239.113 272.003C239.208 272.011 239.279 272.093 239.271 272.188L231.22 372.445C231.212 372.535 231.138 372.603 231.049 372.603Z" fill="#4F5285"/>
</g>
<path d="M236.203 372.432L235.764 375.729L248.219 380.936C250.332 381.82 251.512 383.978 251.191 386.38H219.374L221.23 372.432H236.203Z" fill="#4F5285"/>
<path d="M230.005 380.273C229.81 381.735 228.468 382.922 227.007 382.922C225.546 382.922 224.518 381.737 224.713 380.273C224.908 378.811 226.25 377.624 227.711 377.624C229.172 377.624 230.2 378.809 230.005 380.273Z" fill="#373660"/>
<path d="M237.264 376.356L235.901 378.527C235.602 379.004 235.735 379.583 236.195 379.798C236.614 379.993 237.158 379.812 237.446 379.385L238.993 377.08L237.264 376.357V376.356Z" fill="#373660"/>
<path d="M240.303 377.633L238.939 379.805C238.64 380.282 238.774 380.861 239.233 381.075C239.652 381.27 240.196 381.089 240.485 380.662L242.031 378.357L240.303 377.635V377.633Z" fill="#373660"/>
<path d="M243.739 379.067L242.376 381.239C242.076 381.716 242.21 382.295 242.669 382.509C243.088 382.704 243.633 382.524 243.921 382.097L245.468 379.791L243.739 379.069V379.067Z" fill="#373660"/>
<path d="M219.372 386.38L219.058 388.742H250.875L251.189 386.38H219.372Z" fill="#373660"/>
<path d="M196.656 372.432L196.218 375.729L182.378 380.936C180.029 381.82 178.275 383.978 177.956 386.38H209.773L211.629 372.432H196.656Z" fill="#4F5285"/>
<path d="M200.765 380.273C200.57 381.735 201.598 382.922 203.059 382.922C204.521 382.922 205.863 381.737 206.058 380.273C206.253 378.811 205.225 377.624 203.763 377.624C202.302 377.624 200.96 378.809 200.765 380.273Z" fill="#373660"/>
<path d="M194.55 376.356L195.335 378.527C195.507 379.004 195.219 379.583 194.703 379.798C194.231 379.993 193.735 379.812 193.563 379.385L192.63 377.08L194.55 376.357V376.356Z" fill="#373660"/>
<path d="M191.171 377.633L191.956 379.805C192.128 380.282 191.84 380.861 191.325 381.075C190.852 381.27 190.356 381.089 190.184 380.662L189.251 378.357L191.171 377.635V377.633Z" fill="#373660"/>
<path d="M187.351 379.067L188.136 381.239C188.308 381.716 188.021 382.295 187.504 382.509C187.032 382.704 186.536 382.524 186.364 382.097L185.431 379.791L187.351 379.069V379.067Z" fill="#373660"/>
<path d="M209.772 386.38L209.458 388.742H177.641L177.955 386.38H209.772Z" fill="#373660"/>
<path d="M280.296 222.986L262.715 246.744L262.663 246.812L247.393 234.379C242.86 230.689 237.334 228.639 231.926 228.639H217.778C217.237 228.639 216.702 228.659 216.173 228.701L219.468 217.602L208.66 214.589L194.434 247.65C193.174 250.579 193.29 253.92 194.753 256.754C196.19 259.538 198.778 261.548 201.829 262.25C204.459 262.851 207.204 261.924 208.931 259.851L210.386 258.105L211.068 277.989H252.428L247.304 257.065L251.885 261.063L251.867 261.086L253.14 262.158L254.366 263.228L254.383 263.206L255.234 263.923C257.628 265.941 260.789 266.804 263.876 266.28C267.018 265.746 269.757 263.833 271.339 261.065L289.199 229.819L280.297 222.986H280.296Z" fill="#FE6C61"/>
<path d="M216.172 228.701C216.172 228.701 207.444 229.941 202.849 235.772L195.019 246.29L201.264 231.777C201.264 231.777 207.082 225.219 216.172 228.701Z" fill="#E63E36"/>
<path d="M247.301 257.065L238.992 249.53C238.992 249.53 237.415 261.294 252.425 277.987L247.301 257.063V257.065Z" fill="#E63E36"/>
<path d="M230.783 207.235C230.783 207.235 233.052 212.773 232.362 214.59C232.362 214.59 231.193 212.558 229.934 213.766C228.676 214.972 230.353 216.861 232.03 216.913C232.03 216.913 228.233 222.315 227.772 222.524C227.313 222.734 222.645 223.311 222.645 223.311C222.645 223.311 215.676 214.709 216.566 210.093C217.457 205.478 222.019 201.859 226.946 201.701C231.872 201.543 237.22 205.241 237.22 205.241C237.22 205.241 234.935 207.996 230.783 207.235Z" fill="#373660"/>
<path d="M210.384 258.106L209.933 248.069C209.933 248.069 205.364 262.414 201.829 262.25C201.829 262.25 206.824 264.187 210.386 258.106H210.384Z" fill="#E63E36"/>
<path d="M303.869 299.839H291.041V312.675H303.869V299.839Z" fill="#373660"/>
<mask id="mask8_356_3178" style="mask-type:luminance" maskUnits="userSpaceOnUse" x="291" y="299" width="13" height="14">
<path d="M303.87 299.84H291.042V312.676H303.87V299.84Z" fill="white"/>
</mask>
<g mask="url(#mask8_356_3178)">
<path d="M303.87 302.238H291.042V304.353H303.87V302.238Z" fill="#4F5285"/>
</g>
<path d="M325.795 269.187V297.709C325.795 300.208 323.767 302.237 321.27 302.237H273.639C271.142 302.237 269.113 300.208 269.113 297.709V269.187C269.113 266.688 271.142 264.659 273.639 264.659H321.27C323.767 264.659 325.795 266.688 325.795 269.187Z" fill="#373660"/>
<path d="M321.27 266.304H273.641C272.05 266.304 270.76 267.594 270.76 269.186V297.708C270.76 299.3 272.05 300.59 273.641 300.59H321.27C322.861 300.59 324.151 299.3 324.151 297.708V269.186C324.151 267.594 322.861 266.304 321.27 266.304Z" fill="white"/>
<path d="M289.365 311.95H304.739C305.987 311.95 307.002 312.964 307.002 314.215V314.557H287.103V314.215C287.103 312.966 288.116 311.95 289.367 311.95H289.365Z" fill="#4F5285"/>
<path d="M287.001 273.172H282.101V293.724H287.001V273.172Z" fill="#FE6D60"/>
<path d="M295.604 278.685H290.705V293.723H295.604V278.685Z" fill="#E8E8E8"/>
<path d="M304.208 281.174H299.308V293.723H304.208V281.174Z" fill="#E8E8E8"/>
<path d="M312.812 287.105H307.912V293.724H312.812V287.105Z" fill="#E8E8E8"/>
<path d="M329.54 309.177C332.113 309.177 334.202 311.268 334.202 313.842V314.558H324.877V313.842C324.877 311.268 326.967 309.177 329.54 309.177Z" fill="#373660"/>
<path d="M146.086 259.705L160.638 219.573L165.438 222.654C165.438 222.654 164.9 259.763 159.433 262.812C154.07 265.802 146.086 259.705 146.086 259.705Z" fill="#FFD1C1"/>
<mask id="mask9_356_3178" style="mask-type:luminance" maskUnits="userSpaceOnUse" x="146" y="219" width="20" height="45">
<path d="M146.086 259.705L160.638 219.573L165.438 222.653C165.438 222.653 164.899 259.763 159.433 262.811C154.069 265.802 146.086 259.705 146.086 259.705Z" fill="white"/>
</mask>
<g mask="url(#mask9_356_3178)">
<path d="M161.194 262.127C164.856 258.326 167.305 252.956 167.305 252.956C150.99 251.605 148.928 251.447 148.928 251.447L144.14 257.062C144.14 257.062 146.16 262.883 151.894 265.319C155.315 266.772 158.566 264.853 161.194 262.127Z" fill="#FFB2A0"/>
</g>
<path d="M127.224 203.178C123.715 203.889 121.767 208.891 122.87 214.352L123.842 219.157C123.845 219.177 123.85 219.196 123.853 219.215C124.425 222.069 124.47 225.003 124.056 227.882L123.647 230.742H132.927L131.223 222.956C134.732 222.245 136.68 217.242 135.576 211.782C134.472 206.32 130.733 202.47 127.224 203.18V203.178Z" fill="#FFD1C1"/>
<mask id="mask10_356_3178" style="mask-type:luminance" maskUnits="userSpaceOnUse" x="122" y="203" width="14" height="28">
<path d="M127.224 203.18C123.715 203.891 121.767 208.893 122.87 214.353L123.842 219.159C123.845 219.178 123.85 219.198 123.853 219.217C124.425 222.071 124.47 225.005 124.056 227.884L123.647 230.744H132.927L131.223 222.957C134.732 222.246 136.68 217.244 135.576 211.784C134.472 206.322 130.733 202.472 127.224 203.181V203.18Z" fill="white"/>
</mask>
<g mask="url(#mask10_356_3178)">
<path d="M126.884 210.092C126.884 210.092 131.089 211.796 136.652 211.171C136.652 211.171 136.198 206.741 133.586 204.638C133.586 204.638 126.036 205.377 125.865 205.888C125.695 206.399 126.882 210.091 126.882 210.091L126.884 210.092Z" fill="#FFB2A0"/>
<path d="M131.221 222.955C131.221 222.955 129.376 222.941 128.216 221.781C128.216 221.781 128.513 224.35 131.569 224.55L131.22 222.955" fill="#FFB2A0"/>
</g>
<path d="M145.229 261.931L151.894 244.022L135.51 230.578C135.428 230.508 135.343 230.44 135.257 230.372L135.128 230.267C133.267 228.816 130.928 227.956 128.4 227.956H127.723C122.097 227.956 118.105 231.452 116.622 237.719L111.085 262.519L116.047 263.321C115.955 264.198 115.828 265.071 115.665 265.94L112.541 282.573H147.252L143.316 260.504L145.229 261.934V261.931Z" fill="#FE6C61"/>
<mask id="mask11_356_3178" style="mask-type:luminance" maskUnits="userSpaceOnUse" x="111" y="227" width="41" height="56">
<path d="M145.229 261.93L151.894 244.021L135.511 230.578C135.428 230.507 135.343 230.439 135.258 230.371L135.129 230.266C133.268 228.815 130.928 227.955 128.401 227.955H127.724C122.098 227.955 118.105 231.451 116.623 237.718L111.085 262.518L116.048 263.32C115.956 264.197 115.829 265.07 115.666 265.939L112.542 282.572H147.253L143.317 260.503L145.229 261.933V261.93Z" fill="white"/>
</mask>
<g mask="url(#mask11_356_3178)">
<path d="M143.316 260.499L138.849 240.343L150.676 252.977L146.769 261.452L143.316 260.499Z" fill="#E63E36"/>
</g>
<path d="M116.046 263.317L130.049 265.272L131.958 246.925C131.958 246.925 133.938 275.944 133.06 276.921C130.5 279.77 112.893 281.353 112.893 281.353L116.046 263.317Z" fill="#E63E36"/>
<path d="M160.64 219.574C160.64 219.574 159.695 210.029 160.209 209.587C160.723 209.147 161.605 214.651 162.779 214.58C163.954 214.509 166.304 204.883 167.186 205.031C168.067 205.178 171.665 210.175 171.518 211.937C171.371 213.701 165.439 222.653 165.439 222.653C165.439 222.653 160.722 220.44 160.64 219.572V219.574Z" fill="#FFD1C1"/>
<mask id="mask12_356_3178" style="mask-type:luminance" maskUnits="userSpaceOnUse" x="160" y="205" width="12" height="18">
<path d="M160.639 219.575C160.639 219.575 159.695 210.03 160.209 209.588C160.723 209.148 161.604 214.651 162.779 214.581C163.953 214.51 166.304 204.884 167.185 205.032C168.066 205.179 171.664 210.176 171.518 211.938C171.371 213.702 165.439 222.654 165.439 222.654C165.439 222.654 160.721 220.441 160.639 219.573V219.575Z" fill="white"/>
</mask>
<g mask="url(#mask12_356_3178)">
<path d="M167.184 205.032C167.184 205.032 164.952 217.336 163.597 216.918C162.244 216.501 160.208 209.588 160.208 209.588C160.208 209.588 162.357 213.702 162.864 213.24C163.372 212.777 165.466 204.458 167.184 205.032Z" fill="#FFB2A0"/>
</g>
<path d="M164.744 253.372C163.679 253.317 113.434 262.82 113.434 262.82C113.434 262.82 113.931 272.458 118.307 274.599C123.727 277.252 155.792 262.114 155.792 262.114L155.799 262.034L161.709 259.279C161.709 259.279 166.064 260.107 167.878 259.351C169.694 258.595 172.59 255.916 172.59 255.916C172.59 255.916 165.807 253.425 164.744 253.37V253.372Z" fill="#FFD1C1"/>
<mask id="mask13_356_3178" style="mask-type:luminance" maskUnits="userSpaceOnUse" x="113" y="253" width="60" height="22">
<path d="M164.745 253.374C163.68 253.319 113.434 262.822 113.434 262.822C113.434 262.822 113.932 272.46 118.308 274.6C123.728 277.254 155.793 262.116 155.793 262.116L155.799 262.036L161.709 259.28C161.709 259.28 166.064 260.109 167.878 259.353C169.694 258.597 172.591 255.918 172.591 255.918C172.591 255.918 165.808 253.427 164.745 253.372V253.374Z" fill="white"/>
</mask>
<g mask="url(#mask13_356_3178)">
<path d="M129.098 259.872C129.098 259.872 116.196 269.962 113.148 269.811C110.1 269.659 111.811 262.14 111.811 262.14C111.811 262.14 128.302 260.02 129.098 259.872Z" fill="#FFB2A0"/>
</g>
<path d="M123.621 218.199C124.119 216.825 124.588 215.442 125.028 214.049C125.028 214.049 123.038 212.047 124.324 210.465C125.609 208.882 126.757 211.768 126.602 212.264C126.602 212.264 128.339 208.076 130.043 207.207C131.75 206.338 130.967 210.275 134.986 209.656C139.005 209.037 138.845 202.282 138.845 202.282C138.845 202.282 129.394 199.612 123.889 200.78C118.385 201.948 121.609 204.452 121.609 204.452C121.609 204.452 116.995 205.787 116.995 208.347C116.995 210.907 123.62 218.199 123.62 218.199H123.621Z" fill="#373660"/>
<path d="M108.668 368.466L107.413 371.268L116.6 380.7C118.159 382.301 118.583 384.693 117.67 386.734L90.6377 374.609L95.9465 362.759L108.667 368.464L108.668 368.466Z" fill="#4F5285"/>
<path d="M101.306 373.165C100.75 374.408 99.2919 374.963 98.0497 374.407C96.8075 373.85 96.2533 372.391 96.8092 371.149C97.365 369.906 98.8231 369.351 100.065 369.907C101.307 370.463 101.862 371.922 101.306 373.165Z" fill="#373660"/>
<path d="M108.52 372.405L106.781 373.841C106.4 374.157 106.358 374.729 106.691 375.097C106.996 375.432 107.506 375.477 107.864 375.202L109.794 373.715L108.52 372.406V372.405Z" fill="#373660"/>
<path d="M110.761 374.711L109.023 376.147C108.641 376.463 108.599 377.035 108.932 377.403C109.237 377.738 109.748 377.783 110.105 377.508L112.036 376.021L110.761 374.712V374.711Z" fill="#373660"/>
<path d="M113.296 377.311L111.558 378.747C111.176 379.063 111.134 379.635 111.468 380.003C111.772 380.338 112.283 380.383 112.641 380.108L114.571 378.621L113.296 377.312V377.311Z" fill="#373660"/>
<path d="M90.6406 374.592L89.7412 376.6L116.773 388.722L117.673 386.714L90.6406 374.592Z" fill="#373660"/>
<path d="M144.644 282.569H114.519L109.869 323.442C109.335 328.042 108.03 332.519 106.007 336.683L93.1401 363.165L112.65 370.337L124.852 339.986C125.698 337.882 126.199 335.654 126.338 333.391L130.076 293.953L129.259 373.544H148.741L144.644 282.57V282.569Z" fill="#373660"/>
<path d="M145.569 373.542V376.612L157.809 381.459C159.887 382.283 161.252 384.292 161.252 386.528H131.629V373.542H145.569Z" fill="#4F5285"/>
<path d="M140.704 381.386C141.014 380.061 140.192 378.734 138.867 378.424C137.543 378.113 136.217 378.936 135.907 380.261C135.596 381.587 136.419 382.913 137.743 383.224C139.068 383.534 140.393 382.712 140.704 381.386Z" fill="#373660"/>
<path d="M147.043 377.195L146.044 379.217C145.825 379.662 146.02 380.2 146.474 380.398C146.888 380.58 147.373 380.413 147.587 380.013L148.741 377.866L147.043 377.193V377.195Z" fill="#373660"/>
<path d="M150.03 378.385L149.031 380.407C148.81 380.852 149.007 381.39 149.461 381.588C149.875 381.771 150.36 381.603 150.575 381.203L151.728 379.056L150.03 378.384V378.385Z" fill="#373660"/>
<path d="M153.409 379.719L152.41 381.741C152.191 382.186 152.386 382.724 152.841 382.923C153.255 383.105 153.74 382.937 153.954 382.537L155.107 380.39L153.409 379.718V379.719Z" fill="#373660"/>
<path d="M161.252 386.528H131.629V388.728H161.252V386.528Z" fill="#373660"/>
<path d="M213.559 151.274H148.369C147.122 151.274 146.111 152.286 146.111 153.533V191.018C146.111 192.265 147.122 193.277 148.369 193.277H213.559C214.806 193.277 215.816 192.265 215.816 191.018V153.533C215.816 152.286 214.806 151.274 213.559 151.274Z" fill="#E8E8E8"/>
<mask id="mask14_356_3178" style="mask-type:luminance" maskUnits="userSpaceOnUse" x="146" y="151" width="70" height="43">
<path d="M213.559 151.274H148.369C147.122 151.274 146.111 152.286 146.111 153.533V191.018C146.111 192.265 147.122 193.277 148.369 193.277H213.559C214.806 193.277 215.816 192.265 215.816 191.018V153.533C215.816 152.286 214.806 151.274 213.559 151.274Z" fill="white"/>
</mask>
<g mask="url(#mask14_356_3178)">
<path d="M142.848 193.443C143.549 191.175 144.493 188.983 145.66 186.914C147.421 183.795 149.747 180.914 152.797 179.041C155.849 177.167 159.693 176.403 163.089 177.533C165.509 178.339 167.523 180.01 169.685 181.364C171.846 182.718 174.414 183.8 176.898 183.223C179.091 182.713 180.786 181.019 182.299 179.352C184.978 176.402 187.519 173.274 190.701 170.875C193.883 168.476 197.872 166.843 201.817 167.406C205.506 167.933 208.669 170.279 211.425 172.789C214.214 175.326 216.779 178.114 219.077 181.104V201.844H143.517L142.847 193.442L142.848 193.443Z" fill="#FE6C61"/>
<path d="M218.448 149.391H143.012V160.232H218.448V149.391Z" fill="#373660"/>
</g>
<path d="M153.681 155.04C153.681 155.914 152.974 156.62 152.103 156.62C151.231 156.62 150.522 155.912 150.522 155.04C150.522 154.168 151.229 153.459 152.103 153.459C152.976 153.459 153.681 154.166 153.681 155.04Z" fill="#FE6C61"/>
<path d="M159.875 155.04C159.875 155.914 159.168 156.62 158.295 156.62C157.422 156.62 156.714 155.912 156.714 155.04C156.714 154.168 157.422 153.459 158.295 153.459C159.168 153.459 159.875 154.166 159.875 155.04Z" fill="white"/>
<path d="M166.067 155.04C166.067 155.914 165.359 156.62 164.488 156.62C163.616 156.62 162.909 155.912 162.909 155.04C162.909 154.168 163.616 153.459 164.488 153.459C165.359 153.459 166.067 154.166 166.067 155.04Z" fill="white"/>
<path d="M448.585 351.229C448.991 337.629 443.351 320.568 443.351 320.568C435.844 331.269 434.97 340.463 436.415 347.473C433.412 343.528 429.643 340.118 425.266 339.274C425.266 339.274 427.877 358.471 435.915 362.243H452.552C467.821 357.439 465.225 330.018 465.225 330.018C452.687 339.195 451.104 343.019 448.585 351.231V351.229Z" fill="#E8E8E8"/>
<mask id="mask15_356_3178" style="mask-type:luminance" maskUnits="userSpaceOnUse" x="425" y="320" width="41" height="43">
<path d="M448.585 351.23C448.991 337.63 443.351 320.569 443.351 320.569C435.844 331.27 434.97 340.464 436.415 347.473C433.412 343.528 429.643 340.119 425.266 339.274C425.266 339.274 427.877 358.471 435.915 362.244H452.552C467.821 357.439 465.225 330.019 465.225 330.019C452.687 339.195 451.104 343.019 448.585 351.231V351.23Z" fill="white"/>
</mask>
<g mask="url(#mask15_356_3178)">
<path d="M430.801 359.42C430.801 359.42 437.073 361.295 438.082 356.173C438.082 356.173 440.605 359.707 444.138 359.131C447.67 358.554 448.247 354.948 448.247 354.948C448.247 354.948 450.77 360.935 459.42 359.347C459.42 359.347 452.428 364.035 449.328 364.18C446.228 364.324 436.208 364.037 435.775 363.892C435.343 363.748 430.801 359.42 430.801 359.42Z" fill="#B5B5B5"/>
</g>
<path d="M427.034 362.241H462.143L454.248 388.741H433.89L427.034 362.241Z" fill="#D1D1D1"/>
<mask id="mask16_356_3178" style="mask-type:luminance" maskUnits="userSpaceOnUse" x="427" y="362" width="36" height="27">
<path d="M427.034 362.241H462.143L454.248 388.741H433.89L427.034 362.241Z" fill="white"/>
</mask>
<g mask="url(#mask16_356_3178)">
<path d="M427.733 379.333C427.733 379.333 451.714 372.005 462.143 358.905H465.699L456.534 390.999H429.86L427.733 379.333Z" fill="#B5B5B5"/>
</g>
<path d="M107.697 188.075H73.6714C72.4034 188.075 71.3755 189.103 71.3755 190.372V208.65C71.3755 209.919 72.4034 210.947 73.6714 210.947H107.697C108.965 210.947 109.993 209.919 109.993 208.65V190.372C109.993 189.103 108.965 188.075 107.697 188.075Z" fill="#E8E8E8"/>
<path d="M90.7976 192.421H75.2596C75.0229 192.421 74.8311 192.613 74.8311 192.85V194.641C74.8311 194.878 75.0229 195.07 75.2596 195.07H90.7976C91.0343 195.07 91.2262 194.878 91.2262 194.641V192.85C91.2262 192.613 91.0343 192.421 90.7976 192.421Z" fill="#D1D1D1"/>
<path d="M90.7976 200.464H75.2596C75.0229 200.464 74.8311 200.656 74.8311 200.892V202.684C74.8311 202.92 75.0229 203.112 75.2596 203.112H90.7976C91.0343 203.112 91.2262 202.92 91.2262 202.684V200.892C91.2262 200.656 91.0343 200.464 90.7976 200.464Z" fill="#F7F7F7"/>
<path d="M106.856 200.464H93.1225C92.9001 200.464 92.7197 200.644 92.7197 200.867V202.709C92.7197 202.932 92.9001 203.112 93.1225 203.112H106.856C107.078 203.112 107.259 202.932 107.259 202.709V200.867C107.259 200.644 107.078 200.464 106.856 200.464Z" fill="#F7F7F7"/>
<path d="M99.9941 192.421H93.0113C92.8503 192.421 92.7197 192.552 92.7197 192.713V194.778C92.7197 194.939 92.8503 195.07 93.0113 195.07H99.9941C100.155 195.07 100.286 194.939 100.286 194.778V192.713C100.286 192.552 100.155 192.421 99.9941 192.421Z" fill="#F7F7F7"/>
<path d="M83.1253 196.415H75.142C74.9703 196.415 74.8311 196.554 74.8311 196.726V198.752C74.8311 198.924 74.9703 199.063 75.142 199.063H83.1253C83.297 199.063 83.4362 198.924 83.4362 198.752V196.726C83.4362 196.554 83.297 196.415 83.1253 196.415Z" fill="#F7F7F7"/>
<path d="M99.8746 196.415H85.5321C85.3043 196.415 85.1196 196.599 85.1196 196.827V198.651C85.1196 198.878 85.3043 199.063 85.5321 199.063H99.8746C100.102 199.063 100.287 198.878 100.287 198.651V196.827C100.287 196.599 100.102 196.415 99.8746 196.415Z" fill="#F7F7F7"/>
<path d="M107.005 196.415H101.756C101.615 196.415 101.501 196.529 101.501 196.669V198.809C101.501 198.949 101.615 199.063 101.756 199.063H107.005C107.145 199.063 107.259 198.949 107.259 198.809V196.669C107.259 196.529 107.145 196.415 107.005 196.415Z" fill="#F7F7F7"/>
<path d="M107.005 192.421H101.756C101.615 192.421 101.501 192.535 101.501 192.676V194.815C101.501 194.956 101.615 195.07 101.756 195.07H107.005C107.145 195.07 107.259 194.956 107.259 194.815V192.676C107.259 192.535 107.145 192.421 107.005 192.421Z" fill="#F7F7F7"/>
<path d="M91.1126 207.163H96.2506C96.3894 207.163 96.502 207.05 96.502 206.911V204.765C96.502 204.626 96.3894 204.514 96.2506 204.514H91.1126C90.9738 204.514 90.8613 204.626 90.8613 204.765V206.911C90.8613 207.05 90.9738 207.163 91.1126 207.163Z" fill="#D1D1D1"/>
<path d="M98.0863 207.163H103.224C103.363 207.163 103.476 207.05 103.476 206.911V204.765C103.476 204.626 103.363 204.514 103.224 204.514H98.0863C97.9475 204.514 97.8349 204.626 97.8349 204.765V206.911C97.8349 207.05 97.9475 207.163 98.0863 207.163Z" fill="#D1D1D1"/>
<path d="M105.391 207.163H106.674C106.997 207.163 107.259 206.901 107.259 206.577V205.099C107.259 204.776 106.997 204.514 106.674 204.514H105.391C105.068 204.514 104.807 204.776 104.807 205.099V206.577C104.807 206.901 105.068 207.163 105.391 207.163Z" fill="#D1D1D1"/>
<path d="M82.0943 207.163H89.077C89.2381 207.163 89.3687 207.032 89.3687 206.871V204.806C89.3687 204.645 89.2381 204.514 89.077 204.514H82.0943C81.9332 204.514 81.8027 204.645 81.8027 204.806V206.871C81.8027 207.032 81.9332 207.163 82.0943 207.163Z" fill="#F7F7F7"/>
<path d="M75.0852 207.163H80.3343C80.4749 207.163 80.5889 207.049 80.5889 206.908V204.769C80.5889 204.628 80.4749 204.514 80.3343 204.514H75.0852C74.9446 204.514 74.8306 204.628 74.8306 204.769V206.908C74.8306 207.049 74.9446 207.163 75.0852 207.163Z" fill="#F7F7F7"/>
</g>
<defs>
<clipPath id="clip0_356_3178">
<rect width="447.147" height="256" fill="white" transform="translate(39 135)"/>
</clipPath>
</defs>
</svg>
