<svg width="393" height="225" viewBox="0 0 393 225" fill="none" xmlns="http://www.w3.org/2000/svg">
<g clip-path="url(#clip0_1_1771)">
<path d="M13.4862 223.015H380.609C380.609 223.015 422.264 88.035 318.766 45.0476C215.27 2.06156 188.333 76.6842 103.44 87.1254C18.5457 97.5665 -25.8688 143.134 13.4862 223.015Z" fill="#F7F7F7"/>
<path d="M233.021 27.1408H228.204C227.534 23.4838 226.104 20.0293 223.993 16.9688L227.4 13.5598C227.829 13.1304 227.829 12.4347 227.4 12.0054L222.121 6.72321C221.691 6.29388 220.996 6.29388 220.567 6.72321L217.16 10.1323C214.101 8.01967 210.65 6.59002 206.994 5.91841V1.0981C206.994 0.491665 206.503 0 205.897 0H198.43C197.824 0 197.333 0.491665 197.333 1.0981V5.91982C193.678 6.59002 190.225 8.02109 187.167 10.1337L183.76 6.72462C183.331 6.2953 182.635 6.2953 182.206 6.72462L176.927 12.0068C176.498 12.4362 176.498 13.1319 176.927 13.5612L180.334 16.9703C178.223 20.0308 176.794 23.4838 176.123 27.1422H171.305C170.699 27.1422 170.208 27.6339 170.208 28.2403V35.7116C170.208 36.3181 170.699 36.8097 171.305 36.8097H176.123C176.793 40.4668 178.223 43.9212 180.334 46.9817L176.927 50.3908C176.498 50.8201 176.498 51.5158 176.927 51.9451L182.206 57.2273C182.635 57.6566 183.331 57.6566 183.76 57.2273L187.167 53.8182C190.225 55.9308 193.676 57.3605 197.333 58.0321V62.8524C197.333 63.4588 197.824 63.9505 198.43 63.9505H205.897C206.503 63.9505 206.994 63.4588 206.994 62.8524V58.0321C210.649 57.3619 214.101 55.9308 217.16 53.8182L220.567 57.2273C220.996 57.6566 221.691 57.6566 222.121 57.2273L227.4 51.9451C227.829 51.5158 227.829 50.8201 227.4 50.3908L223.993 46.9817C226.104 43.9212 227.533 40.4682 228.204 36.8097H233.021C233.627 36.8097 234.119 36.3181 234.119 35.7116V28.2403C234.119 27.6339 233.627 27.1422 233.021 27.1422V27.1408ZM202.163 44.0076C195.521 44.0076 190.138 38.6205 190.138 31.9753C190.138 25.33 195.521 19.9429 202.163 19.9429C208.804 19.9429 214.188 25.33 214.188 31.9753C214.188 38.6205 208.804 44.0076 202.163 44.0076Z" fill="#D1D1D1"/>
<path d="M202.163 49.6598C192.418 49.6598 184.489 41.7265 184.489 31.9754C184.489 22.2243 192.418 14.291 202.163 14.291C211.908 14.291 219.837 22.2243 219.837 31.9754C219.837 41.7265 211.908 49.6598 202.163 49.6598ZM202.163 15.1185C192.874 15.1185 185.315 22.6805 185.315 31.9768C185.315 41.2731 192.872 48.8351 202.163 48.8351C211.454 48.8351 219.011 41.2731 219.011 31.9768C219.011 22.6805 211.454 15.1185 202.163 15.1185Z" fill="white"/>
<path d="M271.634 60.2452H268.315C267.853 57.7245 266.868 55.3456 265.414 53.2372L267.761 50.888C268.057 50.5918 268.057 50.1129 267.761 49.8168L264.124 46.1768C263.828 45.8806 263.349 45.8806 263.053 46.1768L260.705 48.526C258.598 47.0708 256.221 46.0847 253.701 45.6228V42.3015C253.701 41.8836 253.363 41.5449 252.945 41.5449H247.801C247.383 41.5449 247.045 41.8836 247.045 42.3015V45.6228C244.525 46.0847 242.148 47.0708 240.041 48.526L237.693 46.1768C237.397 45.8806 236.918 45.8806 236.622 46.1768L232.985 49.8168C232.689 50.1129 232.689 50.5918 232.985 50.888L235.332 53.2372C233.878 55.3456 232.892 57.7245 232.431 60.2452H229.112C228.694 60.2452 228.355 60.5839 228.355 61.0018V66.1494C228.355 66.5674 228.694 66.9061 229.112 66.9061H232.431C232.892 69.4267 233.878 71.8057 235.332 73.9141L232.985 76.2633C232.689 76.5594 232.689 77.0383 232.985 77.3345L236.622 80.9745C236.918 81.2706 237.397 81.2706 237.693 80.9745L240.041 78.6253C242.148 80.0804 244.525 81.0666 247.045 81.5285V84.8497C247.045 85.2677 247.383 85.6064 247.801 85.6064H252.945C253.363 85.6064 253.701 85.2677 253.701 84.8497V81.5285C256.221 81.0666 258.598 80.0804 260.705 78.6253L263.053 80.9745C263.349 81.2706 263.828 81.2706 264.124 80.9745L267.761 77.3345C268.057 77.0383 268.057 76.5594 267.761 76.2633L265.414 73.9141C266.868 71.8057 267.853 69.4267 268.315 66.9061H271.634C272.052 66.9061 272.39 66.5674 272.39 66.1494V61.0018C272.39 60.5839 272.052 60.2452 271.634 60.2452ZM250.374 71.8652C245.798 71.8652 242.088 68.1544 242.088 63.5749C242.088 58.9955 245.797 55.2846 250.374 55.2846C254.95 55.2846 258.659 58.9955 258.659 63.5749C258.659 68.1544 254.95 71.8652 250.374 71.8652Z" fill="#E8E8E8"/>
<path d="M250.375 75.759C243.662 75.759 238.198 70.294 238.198 63.5751C238.198 56.8561 243.66 51.3911 250.375 51.3911C257.09 51.3911 262.552 56.8561 262.552 63.5751C262.552 70.294 257.09 75.759 250.375 75.759ZM250.375 51.9607C243.975 51.9607 238.768 57.1707 238.768 63.5751C238.768 69.9795 243.975 75.1894 250.375 75.1894C256.776 75.1894 261.983 69.9795 261.983 63.5751C261.983 57.1707 256.776 51.9607 250.375 51.9607Z" fill="white"/>
<path d="M71.472 15.6807H30.8907C29.5455 15.6807 28.4551 16.7718 28.4551 18.1177V39.1077C28.4551 40.4537 29.5455 41.5448 30.8907 41.5448H71.472C72.8171 41.5448 73.9076 40.4537 73.9076 39.1077V18.1177C73.9076 16.7718 72.8171 15.6807 71.472 15.6807Z" fill="#E8E8E8"/>
<path d="M32.3284 20.1895H70.0351C70.4217 20.1895 70.7347 20.5026 70.7347 20.8894V22.8249C70.7347 23.2117 70.4217 23.5248 70.0351 23.5248H32.3284C31.9419 23.5248 31.6289 23.2117 31.6289 22.8249V20.8894C31.6289 20.5026 31.9419 20.1895 32.3284 20.1895Z" fill="#D1D1D1"/>
<path d="M70.0351 26.9453H32.3284C31.9421 26.9453 31.6289 27.2587 31.6289 27.6453V29.5808C31.6289 29.9673 31.9421 30.2807 32.3284 30.2807H70.0351C70.4215 30.2807 70.7347 29.9673 70.7347 29.5808V27.6453C70.7347 27.2587 70.4215 26.9453 70.0351 26.9453Z" fill="#F7F7F7"/>
<path d="M52.6885 33.7012H32.1486C31.8616 33.7012 31.6289 33.934 31.6289 34.2212V36.5166C31.6289 36.8037 31.8616 37.0366 32.1486 37.0366H52.6885C52.9755 37.0366 53.2082 36.8037 53.2082 36.5166V34.2212C53.2082 33.934 52.9755 33.7012 52.6885 33.7012Z" fill="#F7F7F7"/>
<path d="M319.017 26.1631H293.795C292.661 26.1631 291.742 27.0829 291.742 28.2176V57.6042C291.742 58.7388 292.661 59.6587 293.795 59.6587H319.017C320.151 59.6587 321.07 58.7388 321.07 57.6042V28.2176C321.07 27.0829 320.151 26.1631 319.017 26.1631Z" fill="#E8E8E8"/>
<path d="M301.193 28.9702H296.046C295.808 28.9702 295.615 29.1631 295.615 29.401V34.5514C295.615 34.7893 295.808 34.9821 296.046 34.9821H301.193C301.431 34.9821 301.623 34.7893 301.623 34.5514V29.401C301.623 29.1631 301.431 28.9702 301.193 28.9702Z" fill="white"/>
<path d="M308.98 28.9702H303.832C303.595 28.9702 303.402 29.1631 303.402 29.401V34.5514C303.402 34.7893 303.595 34.9821 303.832 34.9821H308.98C309.218 34.9821 309.41 34.7893 309.41 34.5514V29.401C309.41 29.1631 309.218 28.9702 308.98 28.9702Z" fill="white"/>
<path d="M316.767 28.9702H311.62C311.382 28.9702 311.189 29.1631 311.189 29.401V34.5514C311.189 34.7893 311.382 34.9821 311.62 34.9821H316.767C317.005 34.9821 317.198 34.7893 317.198 34.5514V29.401C317.198 29.1631 317.005 28.9702 316.767 28.9702Z" fill="white"/>
<path d="M316.057 40.2402H296.755C296.125 40.2402 295.615 39.7301 295.615 39.0996C295.615 38.4691 296.125 37.959 296.755 37.959H316.057C316.687 37.959 317.197 38.4691 317.197 39.0996C317.197 39.7301 316.687 40.2402 316.057 40.2402Z" fill="#D1D1D1"/>
<path d="M316.057 44.2729H296.755C296.125 44.2729 295.615 43.7628 295.615 43.1323C295.615 42.5018 296.125 41.9917 296.755 41.9917H316.057C316.687 41.9917 317.197 42.5018 317.197 43.1323C317.197 43.7628 316.687 44.2729 316.057 44.2729Z" fill="#D1D1D1"/>
<path d="M316.057 48.3051H296.755C296.125 48.3051 295.615 47.7951 295.615 47.1645C295.615 46.534 296.125 46.0239 296.755 46.0239H316.057C316.687 46.0239 317.197 46.534 317.197 47.1645C317.197 47.7951 316.687 48.3051 316.057 48.3051Z" fill="#D1D1D1"/>
<path d="M316.057 52.3364H296.755C296.125 52.3364 295.615 51.8263 295.615 51.1958C295.615 50.5653 296.125 50.0552 296.755 50.0552H316.057C316.687 50.0552 317.197 50.5653 317.197 51.1958C317.197 51.8263 316.687 52.3364 316.057 52.3364Z" fill="#D1D1D1"/>
<path d="M316.057 56.3686H296.755C296.125 56.3686 295.615 55.8585 295.615 55.228C295.615 54.5975 296.125 54.0874 296.755 54.0874H316.057C316.687 54.0874 317.197 54.5975 317.197 55.228C317.197 55.8585 316.687 56.3686 316.057 56.3686Z" fill="#D1D1D1"/>
<path d="M280.954 157.758H172.206C171.764 157.758 171.406 158.116 171.406 158.558V161.082C171.406 161.524 171.764 161.882 172.206 161.882H280.954C281.395 161.882 281.754 161.524 281.754 161.082V158.558C281.754 158.116 281.395 157.758 280.954 157.758Z" fill="#FE6D60"/>
<path d="M178.408 223.015H176.315L189.398 161.882H191.493L178.408 223.015Z" fill="#E63E36"/>
<path d="M274.751 223.015H276.845L263.761 161.882H261.668L274.751 223.015Z" fill="#E63E36"/>
<path d="M297.448 132.419L274.095 205.811L287.526 208.007L310.809 149.146C310.809 149.146 321.891 144.674 321.456 132.419H297.448Z" fill="#373660"/>
<path d="M275.624 212.227L274.105 214.42L264.317 217.859C262.656 218.443 261.229 219.868 260.719 221.455H281.732L283.514 212.244L275.624 212.227Z" fill="#4F5285"/>
<path d="M272.926 214.835L273.173 216.269C273.229 216.585 272.965 216.966 272.598 217.108C272.263 217.237 271.957 217.118 271.896 216.834L271.568 215.311L272.926 214.833V214.835Z" fill="#373660"/>
<path d="M270.535 215.678L270.783 217.112C270.838 217.428 270.574 217.809 270.208 217.951C269.872 218.08 269.566 217.961 269.505 217.677L269.177 216.154L270.535 215.677V215.678Z" fill="#373660"/>
<path d="M267.835 216.626L268.082 218.06C268.138 218.376 267.874 218.757 267.508 218.899C267.172 219.028 266.866 218.909 266.805 218.625L266.477 217.102L267.835 216.625V216.626Z" fill="#373660"/>
<path d="M281.732 221.455L281.231 223.015H260.218L260.719 221.455H281.732Z" fill="#373660"/>
<path d="M283.514 212.244L285.171 207.622L277.047 206.294L275.624 212.227L283.514 212.244Z" fill="#FFD1C1"/>
<mask id="mask0_1_1771" style="mask-type:luminance" maskUnits="userSpaceOnUse" x="275" y="206" width="11" height="7">
<path d="M283.514 212.244L285.171 207.622L277.047 206.294L275.624 212.227L283.514 212.244Z" fill="white"/>
</mask>
<g mask="url(#mask0_1_1771)">
<path d="M275.051 205.968L285.171 210.54L286.917 204.781L275.051 205.968Z" fill="#FFB2A0"/>
</g>
<path d="M317.425 139.569L328.297 199.29L316.483 203.085L300.736 146.097L317.425 139.569Z" fill="#373660"/>
<path d="M320.084 207.091L319.535 209.702L311.849 216.672C310.543 217.855 309.781 219.722 309.927 221.383L329.293 213.223L327.363 204.042L320.084 207.091Z" fill="#4F5285"/>
<path d="M318.609 210.542L319.393 211.768C319.566 212.037 319.472 212.492 319.188 212.764C318.929 213.014 318.6 213.022 318.435 212.785L317.541 211.51L318.607 210.542H318.609Z" fill="#373660"/>
<path d="M316.734 212.247L317.518 213.472C317.691 213.741 317.598 214.196 317.313 214.468C317.054 214.718 316.725 214.726 316.56 214.49L315.666 213.214L316.733 212.247H316.734Z" fill="#373660"/>
<path d="M314.613 214.168L315.397 215.394C315.57 215.663 315.476 216.118 315.192 216.39C314.933 216.639 314.604 216.648 314.438 216.411L313.545 215.136L314.611 214.168H314.613Z" fill="#373660"/>
<path d="M329.293 213.223L329.436 214.855L310.07 223.015L309.927 221.383L329.293 213.223Z" fill="#373660"/>
<path d="M327.362 204.041L327.126 199.667L318.882 202.314L320.084 207.091L327.362 204.041Z" fill="#FFD1C1"/>
<mask id="mask1_1_1771" style="mask-type:luminance" maskUnits="userSpaceOnUse" x="318" y="199" width="10" height="9">
<path d="M327.362 204.041L327.126 199.667L318.882 202.314L320.084 207.091L327.362 204.041Z" fill="white"/>
</mask>
<g mask="url(#mask1_1_1771)">
<path d="M316.554 202.902L328.467 202.687L327.311 197.784L316.554 202.902Z" fill="#FFB2A0"/>
</g>
<path d="M305.135 162.278C305.1 162.278 305.064 162.271 305.029 162.255C304.896 162.197 304.836 162.041 304.894 161.908L310.607 148.952L310.693 148.909C310.747 148.882 316.063 146.241 317.884 143.188C317.957 143.063 318.119 143.022 318.245 143.097C318.369 143.172 318.411 143.332 318.336 143.458C316.543 146.464 311.742 148.97 311.012 149.339L305.376 162.12C305.332 162.218 305.236 162.278 305.135 162.278Z" fill="#4F5285"/>
<path d="M300.107 112.254C298.845 113.338 268.731 115.75 268.731 115.75C268.731 115.75 264.993 118.718 264.361 117.79C263.904 117.118 263.619 116.961 262.971 115.458C262.773 114.999 262.359 113.409 262.43 112.913C262.703 111.024 263.992 110.677 263.992 110.677C264.926 110.293 268.285 110.596 268.285 110.596L295.856 103.706L300.107 112.256V112.254Z" fill="#FFD1C1"/>
<mask id="mask2_1_1771" style="mask-type:luminance" maskUnits="userSpaceOnUse" x="262" y="103" width="39" height="15">
<path d="M300.107 112.254C298.845 113.338 268.731 115.75 268.731 115.75C268.731 115.75 264.993 118.718 264.361 117.79C263.904 117.118 263.619 116.961 262.971 115.458C262.773 114.999 262.359 113.409 262.43 112.913C262.703 111.024 263.992 110.677 263.992 110.677C264.926 110.293 268.285 110.596 268.285 110.596L295.856 103.706L300.107 112.256V112.254Z" fill="white"/>
</mask>
<g mask="url(#mask2_1_1771)">
<path d="M278.816 114.886C278.997 114.869 289.22 110.483 289.22 110.483C289.22 110.483 289.754 105.778 291.595 103.705L294.682 103.178L294.325 115.673C294.325 115.673 278.979 116.022 278.816 114.886Z" fill="#FFB2A0"/>
<path d="M265.64 113.874C264.849 113.058 264.091 112.211 263.335 111.363C262.253 111.658 261.492 112.725 261.337 113.836C261.181 114.947 261.545 116.079 262.114 117.046C262.464 117.642 262.918 118.213 263.55 118.492C264.288 118.818 265.149 118.692 265.913 118.431C266.849 118.112 267.719 117.599 268.451 116.933C268.69 116.715 268.955 116.389 268.913 116.043C268.876 115.74 268.573 115.753 268.335 115.698C267.648 115.54 267.042 115.146 266.51 114.696C266.205 114.439 265.92 114.159 265.643 113.874H265.64Z" fill="#FFB2A0"/>
</g>
<path d="M301.851 73.0752C301.851 73.0752 298.637 72.7054 297.01 75.8112C295.911 77.9111 297.883 82.2567 299.05 85.1727C299.9 87.2967 302.208 88.4939 304.41 87.879C304.573 87.8337 304.727 87.7798 304.87 87.7189L301.85 73.0752H301.851Z" fill="#373660"/>
<path d="M308.218 81.2183C308.884 81.343 309.572 80.6601 309.753 79.6909C309.936 78.7217 309.542 77.8348 308.877 77.7101C308.476 77.635 308.069 77.8532 307.768 78.2485C307.094 75.4572 305.363 73.4707 303.334 73.4707C300.719 73.4707 298.599 76.7707 298.599 80.8414C298.599 84.9122 300.719 88.2122 303.334 88.2122V93.6956L309.376 93.7154L308.453 88.6642C308.197 87.2643 308.069 85.8445 308.069 84.4219V81.173C308.118 81.1914 308.166 81.207 308.217 81.2155L308.218 81.2183Z" fill="#FFD1C1"/>
<mask id="mask3_1_1771" style="mask-type:luminance" maskUnits="userSpaceOnUse" x="298" y="73" width="12" height="21">
<path d="M308.218 81.2183C308.884 81.343 309.572 80.6601 309.753 79.6909C309.936 78.7217 309.542 77.8348 308.877 77.7101C308.476 77.635 308.069 77.8532 307.768 78.2485C307.094 75.4572 305.363 73.4707 303.334 73.4707C300.719 73.4707 298.599 76.7707 298.599 80.8414C298.599 84.9122 300.719 88.2122 303.334 88.2122V93.6956L309.376 93.7154L308.453 88.6642C308.197 87.2643 308.069 85.8445 308.069 84.4219V81.173C308.118 81.1914 308.166 81.207 308.217 81.2155L308.218 81.2183Z" fill="white"/>
</mask>
<g mask="url(#mask3_1_1771)">
<path d="M305.203 73.4721C305.203 73.4721 305.787 78.043 303.336 79.8708C301.329 81.3657 297.881 80.5665 297.881 80.5665C297.881 80.5665 299.74 73.4678 301.263 73.0116C302.783 72.5553 305.203 73.4721 305.203 73.4721Z" fill="#FFB2A0"/>
<path d="M300.177 85.0524C300.177 85.0524 301.279 85.3797 302.515 83.8296C302.515 83.8296 302.607 85.8147 301.569 85.9068C300.531 85.9989 300.177 85.0524 300.177 85.0524Z" fill="white"/>
</g>
<path d="M303.335 88.2135C303.335 88.2135 305.224 87.9287 306.405 85.4165C306.405 85.4165 306.021 88.9247 303.335 89.1458V88.2121V88.2135Z" fill="#FFB2A0"/>
<path d="M301.371 74.1365C301.371 74.1365 300.537 79.2941 307.77 78.2484C307.77 78.2484 308.819 77.0653 309.57 78.2555C310.32 79.4443 309.246 81.2069 308.072 81.1757C308.072 81.1757 307.777 86.8674 308.573 89.3031C308.573 89.3031 309.172 87.3492 310.649 85.109C312.648 82.0769 312.67 78.1081 310.527 75.1765C309.595 73.9027 308.276 72.7806 306.406 72.1373C299.868 69.8887 301.371 74.1351 301.371 74.1351V74.1365Z" fill="#373660"/>
<path d="M322.204 132.419L317.043 99.2297C316.091 94.3116 311.632 90.8685 306.636 91.193C303.827 91.3758 301.326 92.7233 299.627 94.7735L299.617 94.7863C299.404 95.0442 299.205 95.3134 299.018 95.5925L293.72 102.721C291.137 106.197 291.184 110.967 293.836 114.391L298.526 116.811L297.451 132.418H322.205L322.204 132.419Z" fill="#FE6D60"/>
<mask id="mask4_1_1771" style="mask-type:luminance" maskUnits="userSpaceOnUse" x="291" y="91" width="32" height="42">
<path d="M322.204 132.419L317.043 99.2297C316.091 94.3116 311.632 90.8685 306.636 91.193C303.827 91.3758 301.326 92.7233 299.627 94.7735L299.617 94.7863C299.404 95.0442 299.205 95.3134 299.018 95.5925L293.72 102.721C291.137 106.197 291.184 110.967 293.836 114.391L298.526 116.811L297.451 132.418H322.205L322.204 132.419Z" fill="white"/>
</mask>
<g mask="url(#mask4_1_1771)">
<path d="M309.71 101.787C309.71 101.787 308.855 118.355 302.254 121.597L296.494 123.277L296.014 117.153L309.708 101.786" fill="#E63E36"/>
</g>
<path d="M316.762 76.35C318.848 76.8204 320.666 78.3492 321.487 80.3244C322.125 81.8589 322.173 83.5677 322.15 85.2297C322.089 89.6448 321.616 94.2157 323.168 98.3488C322.361 98.4381 321.551 98.2525 320.762 98.0612C318.368 97.4788 315.72 96.6117 314.618 94.407C313.841 92.8498 314.049 90.9866 314.495 89.3047C314.939 87.6229 315.608 85.9778 315.704 84.2407C315.802 82.5036 315.175 80.578 313.647 79.7463C313.035 79.4133 310.197 78.7984 311.198 77.6167C311.576 77.1704 312.28 76.8841 312.811 76.6759C313.402 76.4435 314.025 76.2933 314.658 76.2295C315.36 76.1587 316.075 76.1969 316.763 76.3528L316.762 76.35Z" fill="#373660"/>
<path d="M311.628 77.2429L312.093 79.2648C312.093 79.2648 312.458 79.9109 313.253 79.5779C313.253 79.5779 312.744 76.9255 312.638 76.7399C312.532 76.5542 311.62 76.6931 311.627 77.2414L311.628 77.2429Z" fill="#FFC967"/>
<path d="M269.016 127.921L268.922 127.949C268.507 128.075 268.07 127.84 267.944 127.425L260.978 104.403C260.852 103.988 261.087 103.55 261.502 103.424L261.596 103.395C262.011 103.269 262.448 103.504 262.574 103.92L269.54 126.941C269.666 127.357 269.431 127.794 269.016 127.921Z" fill="#373660"/>
<path d="M306.221 97.1316C305.956 97.0452 305.677 96.9786 305.387 96.9304C302.459 96.4486 299.601 98.1376 298.494 100.893L294.37 111.158L270.273 119.784C270.273 119.784 266.892 119.186 266 119.658C266 119.658 264.389 120.263 264.691 122.885C264.691 122.885 265.225 124.819 265.944 125.682C266.662 126.545 271.204 124.254 271.204 124.254C271.204 124.254 289.356 122.608 299.645 119.52C299.645 119.52 300.948 118.963 302.1 117.765C302.34 117.517 302.572 117.24 302.784 116.936C303.233 116.294 309.135 104.288 309.135 104.288C310.584 101.514 309.195 98.1036 306.221 97.1316Z" fill="#FFD1C1"/>
<mask id="mask5_1_1771" style="mask-type:luminance" maskUnits="userSpaceOnUse" x="264" y="96" width="46" height="30">
<path d="M306.221 97.1316C305.956 97.0452 305.677 96.9786 305.387 96.9304C302.459 96.4486 299.601 98.1376 298.494 100.893L294.37 111.158L270.273 119.784C270.273 119.784 266.892 119.186 266 119.658C266 119.658 264.389 120.263 264.691 122.885C264.691 122.885 265.225 124.819 265.944 125.682C266.662 126.545 271.204 124.254 271.204 124.254C271.204 124.254 289.356 122.608 299.645 119.52C299.645 119.52 300.948 118.963 302.1 117.765C302.34 117.517 302.572 117.24 302.784 116.936C303.233 116.294 309.135 104.288 309.135 104.288C310.584 101.514 309.195 98.1036 306.221 97.1316Z" fill="white"/>
</mask>
<g mask="url(#mask5_1_1771)">
<path d="M283.287 123.108C288.722 122.731 298.035 121.886 300.64 120.406C304.389 118.275 310.498 105.575 310.498 105.575C310.498 105.575 316.299 98.3416 308.41 99.0458C308.41 99.0458 302.524 115.131 300.734 116.75C298.945 118.37 279.264 123.347 279.264 123.347C279.264 123.347 280.901 123.272 283.284 123.106L283.287 123.108Z" fill="#FFB2A0"/>
</g>
<path d="M213.709 79.6726C213.709 79.6726 216.116 71.898 216.813 72.044C217.51 72.1913 216.63 76.0382 217.583 75.8569C218.536 75.6755 219.967 68.0455 220.516 68.4861C221.065 68.9268 224.328 73.1081 223.852 75.4559C223.375 77.8037 217.421 82.5206 217.421 82.5206L213.711 79.6726H213.709Z" fill="#FFD1C1"/>
<path d="M154.765 72.8387C154.765 72.8387 159.384 66.1382 158.837 65.6819C158.292 65.2243 155.813 68.2961 155.367 67.4332C154.921 66.5703 160.03 60.7298 159.343 60.5697C158.657 60.4096 153.356 60.428 151.807 62.2544C150.257 64.0808 150.233 71.6797 150.233 71.6797L154.765 72.8373V72.8387Z" fill="#FFD1C1"/>
<path d="M164.136 61.8095C161.018 62.4414 159.284 66.8877 160.266 71.7406L161.13 76.0111C161.472 77.7071 161.662 79.4315 161.695 81.1615L161.812 87.4058L169.013 85.9238L167.69 79.3847C170.808 78.7528 172.542 74.3066 171.56 69.4537C170.579 64.5994 167.255 61.1761 164.137 61.8081L164.136 61.8095Z" fill="#FFD1C1"/>
<mask id="mask6_1_1771" style="mask-type:luminance" maskUnits="userSpaceOnUse" x="159" y="61" width="13" height="27">
<path d="M164.136 61.8095C161.018 62.4414 159.284 66.8877 160.266 71.7406L161.13 76.0111C161.472 77.7071 161.662 79.4315 161.695 81.1615L161.812 87.4058L169.013 85.9238L167.69 79.3847C170.808 78.7528 172.542 74.3066 171.56 69.4537C170.579 64.5994 167.255 61.1761 164.137 61.8081L164.136 61.8095Z" fill="white"/>
</mask>
<g mask="url(#mask6_1_1771)">
<path d="M170.932 76.5381C170.932 76.5381 167.931 78.0655 167.152 77.255L167.691 79.3875C167.691 79.3875 170.744 78.9851 170.932 76.5381Z" fill="#FFB2A0"/>
</g>
<path d="M183.877 123.125L176.316 208.68H157.926L167.543 133.01L154.042 208.68H134.144L155.438 123.125H183.877Z" fill="#373660"/>
<mask id="mask7_1_1771" style="mask-type:luminance" maskUnits="userSpaceOnUse" x="134" y="123" width="50" height="86">
<path d="M183.877 123.125L176.316 208.68H157.926L167.543 133.01L154.042 208.68H134.144L155.438 123.125H183.877Z" fill="white"/>
</mask>
<g mask="url(#mask7_1_1771)">
<path d="M143.094 208.83C143.061 208.83 143.027 208.819 143 208.798C142.935 208.747 142.924 208.653 142.973 208.588C143.726 207.413 156.533 150.991 163.201 121.312C163.22 121.23 163.301 121.181 163.383 121.198C163.463 121.216 163.516 121.297 163.497 121.378C162.706 124.9 144.107 207.643 143.214 208.772C143.184 208.81 143.14 208.829 143.095 208.829L143.094 208.83Z" fill="#4F5285"/>
<path d="M168.793 208.83C168.793 208.83 168.785 208.83 168.781 208.83C168.697 208.823 168.635 208.751 168.642 208.667L175.718 120.551C175.725 120.468 175.797 120.407 175.881 120.412C175.964 120.42 176.027 120.492 176.02 120.575L168.944 208.691C168.936 208.771 168.871 208.83 168.793 208.83Z" fill="#4F5285"/>
</g>
<path d="M173.322 208.68L172.937 211.578L183.883 216.154C185.741 216.931 186.778 218.828 186.496 220.939H158.531L160.163 208.68H173.322Z" fill="#4F5285"/>
<path d="M167.876 215.572C167.704 216.857 166.525 217.9 165.24 217.9C163.956 217.9 163.053 216.859 163.224 215.572C163.395 214.287 164.575 213.244 165.859 213.244C167.144 213.244 168.047 214.286 167.876 215.572Z" fill="#373660"/>
<path d="M174.256 212.129L173.058 214.037C172.794 214.457 172.912 214.966 173.315 215.154C173.684 215.325 174.162 215.167 174.416 214.791L175.775 212.765L174.256 212.13V212.129Z" fill="#373660"/>
<path d="M176.926 213.251L175.728 215.16C175.464 215.579 175.582 216.088 175.985 216.276C176.354 216.448 176.832 216.289 177.086 215.913L178.445 213.887L176.926 213.252V213.251Z" fill="#373660"/>
<path d="M179.946 214.512L178.748 216.421C178.485 216.84 178.602 217.349 179.006 217.537C179.374 217.709 179.853 217.55 180.106 217.175L181.466 215.148L179.946 214.514V214.512Z" fill="#373660"/>
<path d="M158.53 220.939L158.254 223.015H186.218L186.494 220.939H158.53Z" fill="#373660"/>
<path d="M138.565 208.68L138.18 211.578L126.016 216.154C123.951 216.931 122.409 218.828 122.129 220.939H150.093L151.724 208.68H138.565Z" fill="#4F5285"/>
<path d="M142.176 215.572C142.005 216.857 142.908 217.9 144.193 217.9C145.477 217.9 146.657 216.859 146.828 215.572C146.999 214.287 146.096 213.244 144.811 213.244C143.527 213.244 142.347 214.286 142.176 215.572Z" fill="#373660"/>
<path d="M136.714 212.129L137.404 214.037C137.555 214.457 137.302 214.966 136.849 215.154C136.434 215.325 135.998 215.167 135.846 214.791L135.026 212.765L136.714 212.13V212.129Z" fill="#373660"/>
<path d="M133.745 213.251L134.434 215.16C134.586 215.579 134.332 216.088 133.879 216.276C133.464 216.448 133.028 216.289 132.877 215.913L132.057 213.887L133.745 213.252V213.251Z" fill="#373660"/>
<path d="M130.387 214.512L131.077 216.421C131.228 216.84 130.976 217.349 130.522 217.537C130.107 217.709 129.671 217.55 129.519 217.175L128.699 215.148L130.387 214.514V214.512Z" fill="#373660"/>
<path d="M150.093 220.939L149.817 223.015H121.853L122.129 220.939H150.093Z" fill="#373660"/>
<path d="M212.076 77.3318L196.624 98.2127L196.579 98.2722L183.157 87.3451C179.174 84.1018 174.317 82.2995 169.563 82.2995H157.129C156.653 82.2995 156.183 82.3179 155.718 82.3547L158.614 72.5994L149.115 69.9512L136.612 99.009C135.504 101.584 135.606 104.519 136.892 107.01C138.155 109.457 140.429 111.224 143.111 111.841C145.422 112.369 147.835 111.554 149.353 109.732L150.632 108.198L151.231 125.674H187.582L183.079 107.284L187.105 110.798L187.09 110.817L188.208 111.76L189.286 112.701L189.302 112.681L190.049 113.311C192.153 115.085 194.932 115.843 197.645 115.383C200.406 114.914 202.814 113.232 204.204 110.799L219.901 83.3367L212.077 77.3318H212.076Z" fill="#FE6C61"/>
<path d="M155.717 82.3547C155.717 82.3547 148.047 83.4443 144.008 88.5693L137.126 97.8132L142.615 85.0582C142.615 85.0582 147.728 79.2942 155.717 82.3547Z" fill="#E63E36"/>
<path d="M183.077 107.284L175.774 100.661C175.774 100.661 174.388 111 187.58 125.672L183.077 107.282V107.284Z" fill="#E63E36"/>
<path d="M168.56 63.4872C168.56 63.4872 170.553 68.3543 169.947 69.9511C169.947 69.9511 168.919 68.1658 167.813 69.2271C166.707 70.2869 168.182 71.9475 169.656 71.9929C169.656 71.9929 166.318 76.7409 165.913 76.9251C165.509 77.1093 161.407 77.6166 161.407 77.6166C161.407 77.6166 155.281 70.056 156.064 65.9994C156.847 61.9428 160.856 58.7618 165.187 58.623C169.517 58.4841 174.217 61.7345 174.217 61.7345C174.217 61.7345 172.209 64.156 168.56 63.4872Z" fill="#373660"/>
<path d="M150.631 108.198L150.234 99.376C150.234 99.376 146.218 111.984 143.111 111.839C143.111 111.839 147.501 113.542 150.632 108.198H150.631Z" fill="#E63E36"/>
<path d="M232.795 144.878H221.521V156.159H232.795V144.878Z" fill="#373660"/>
<mask id="mask8_1_1771" style="mask-type:luminance" maskUnits="userSpaceOnUse" x="221" y="144" width="12" height="13">
<path d="M232.795 144.878H221.521V156.159H232.795V144.878Z" fill="white"/>
</mask>
<g mask="url(#mask8_1_1771)">
<path d="M232.795 146.986H221.521V148.845H232.795V146.986Z" fill="#4F5285"/>
</g>
<path d="M252.066 117.939V143.006C252.066 145.203 250.283 146.987 248.089 146.987H206.226C204.031 146.987 202.248 145.203 202.248 143.006V117.939C202.248 115.742 204.031 113.958 206.226 113.958H248.089C250.283 113.958 252.066 115.742 252.066 117.939Z" fill="#373660"/>
<path d="M248.089 115.405H206.227C204.829 115.405 203.695 116.54 203.695 117.939V143.007C203.695 144.406 204.829 145.54 206.227 145.54H248.089C249.487 145.54 250.621 144.406 250.621 143.007V117.939C250.621 116.54 249.487 115.405 248.089 115.405Z" fill="white"/>
<path d="M220.048 155.523H233.56C234.657 155.523 235.549 156.415 235.549 157.514V157.815H218.06V157.514C218.06 156.416 218.95 155.523 220.049 155.523H220.048Z" fill="#4F5285"/>
<path d="M217.969 121.441H213.663V139.504H217.969V121.441Z" fill="#FE6D60"/>
<path d="M225.531 126.287H221.225V139.504H225.531V126.287Z" fill="#E8E8E8"/>
<path d="M233.092 128.475H228.786V139.504H233.092V128.475Z" fill="#E8E8E8"/>
<path d="M240.655 133.687H236.348V139.504H240.655V133.687Z" fill="#E8E8E8"/>
<path d="M255.357 153.085C257.618 153.085 259.455 154.923 259.455 157.185V157.815H251.259V157.185C251.259 154.923 253.095 153.085 255.357 153.085Z" fill="#373660"/>
<path d="M94.1193 109.603L106.909 74.3306L111.127 77.0383C111.127 77.0383 110.655 109.654 105.85 112.333C101.136 114.962 94.1193 109.603 94.1193 109.603Z" fill="#FFD1C1"/>
<mask id="mask9_1_1771" style="mask-type:luminance" maskUnits="userSpaceOnUse" x="94" y="74" width="18" height="40">
<path d="M94.1193 109.603L106.909 74.3306L111.127 77.0383C111.127 77.0383 110.655 109.654 105.85 112.333C101.136 114.962 94.1193 109.603 94.1193 109.603Z" fill="white"/>
</mask>
<g mask="url(#mask9_1_1771)">
<path d="M107.397 111.731C110.616 108.39 112.768 103.67 112.768 103.67C98.4294 102.483 96.6168 102.344 96.6168 102.344L92.4083 107.279C92.4083 107.279 94.1841 112.396 99.2238 114.537C102.23 115.813 105.088 114.127 107.397 111.731Z" fill="#FFB2A0"/>
</g>
<path d="M77.5401 59.9207C74.4559 60.5456 72.7439 64.9422 73.7139 69.7413L74.5678 73.9651C74.5706 73.9821 74.5749 73.9991 74.5777 74.0161C75.0804 76.524 75.1201 79.1028 74.7561 81.6334L74.3965 84.147H82.5529L81.0548 77.3033C84.1389 76.6785 85.8509 72.2818 84.8809 67.4828C83.9109 62.6823 80.6243 59.2987 77.5401 59.9222V59.9207Z" fill="#FFD1C1"/>
<mask id="mask10_1_1771" style="mask-type:luminance" maskUnits="userSpaceOnUse" x="73" y="59" width="13" height="26">
<path d="M77.5401 59.9207C74.4559 60.5456 72.7439 64.9422 73.7139 69.7413L74.5678 73.9651C74.5706 73.9821 74.5749 73.9991 74.5777 74.0161C75.0804 76.524 75.1201 79.1028 74.7561 81.6334L74.3965 84.147H82.5529L81.0548 77.3033C84.1389 76.6785 85.8509 72.2818 84.8809 67.4828C83.9109 62.6823 80.6243 59.2987 77.5401 59.9222V59.9207Z" fill="white"/>
</mask>
<g mask="url(#mask10_1_1771)">
<path d="M77.2409 65.998C77.2409 65.998 80.9368 67.4956 85.8264 66.9459C85.8264 66.9459 85.4271 63.0522 83.1317 61.2046C83.1317 61.2046 76.496 61.8535 76.3459 62.3027C76.1958 62.7518 77.2395 65.9966 77.2395 65.9966L77.2409 65.998Z" fill="#FFB2A0"/>
<path d="M81.0532 77.3035C81.0532 77.3035 79.4318 77.2907 78.4122 76.272C78.4122 76.272 78.6728 78.5291 81.359 78.7048L81.0518 77.3035" fill="#FFB2A0"/>
</g>
<path d="M93.3645 111.559L99.2227 95.8191L84.8228 84.0035C84.7506 83.9412 84.6756 83.8817 84.6005 83.8222L84.4872 83.7301C82.8517 82.4549 80.7956 81.6982 78.5738 81.6982H77.9791C73.0342 81.6982 69.5252 84.7715 68.2224 90.279L63.3555 112.077L67.7169 112.781C67.6362 113.552 67.5243 114.32 67.3813 115.083L64.6356 129.702H95.1431L91.6836 110.306L93.3645 111.562V111.559Z" fill="#FE6C61"/>
<mask id="mask11_1_1771" style="mask-type:luminance" maskUnits="userSpaceOnUse" x="63" y="81" width="37" height="49">
<path d="M93.3645 111.559L99.2227 95.8191L84.8228 84.0035C84.7506 83.9412 84.6756 83.8817 84.6005 83.8222L84.4872 83.7301C82.8517 82.4549 80.7956 81.6982 78.5738 81.6982H77.9791C73.0342 81.6982 69.5252 84.7715 68.2224 90.279L63.3555 112.077L67.7169 112.781C67.6362 113.552 67.5243 114.32 67.3813 115.083L64.6356 129.702H95.1431L91.6836 110.306L93.3645 111.562V111.559Z" fill="white"/>
</mask>
<g mask="url(#mask11_1_1771)">
<path d="M91.6837 110.301L87.757 92.5859L98.1522 103.69L94.7183 111.139L91.6837 110.301Z" fill="#E63E36"/>
</g>
<path d="M67.7165 112.778L80.0235 114.497L81.7015 98.3711C81.7015 98.3711 83.4418 123.877 82.6701 124.735C80.4199 127.239 64.9453 128.63 64.9453 128.63L67.7165 112.778Z" fill="#E63E36"/>
<path d="M106.91 74.3322C106.91 74.3322 106.08 65.9427 106.532 65.5545C106.984 65.1677 107.758 70.005 108.791 69.9426C109.823 69.8803 111.889 61.42 112.664 61.5503C113.438 61.6793 116.6 66.0717 116.471 67.6203C116.343 69.1704 111.129 77.0385 111.129 77.0385C111.129 77.0385 106.982 75.0931 106.91 74.3308V74.3322Z" fill="#FFD1C1"/>
<mask id="mask12_1_1771" style="mask-type:luminance" maskUnits="userSpaceOnUse" x="106" y="61" width="11" height="17">
<path d="M106.91 74.3322C106.91 74.3322 106.08 65.9427 106.532 65.5545C106.984 65.1677 107.758 70.005 108.791 69.9426C109.823 69.8803 111.889 61.42 112.664 61.5503C113.438 61.6793 116.6 66.0717 116.471 67.6203C116.343 69.1704 111.129 77.0385 111.129 77.0385C111.129 77.0385 106.982 75.0931 106.91 74.3308V74.3322Z" fill="white"/>
</mask>
<g mask="url(#mask12_1_1771)">
<path d="M112.662 61.5503C112.662 61.5503 110.701 72.3641 109.51 71.9972C108.32 71.6302 106.53 65.5545 106.53 65.5545C106.53 65.5545 108.419 69.1704 108.865 68.7638C109.311 68.3571 111.152 61.0459 112.662 61.5503Z" fill="#FFB2A0"/>
</g>
<path d="M110.517 104.036C109.581 103.988 65.4202 112.341 65.4202 112.341C65.4202 112.341 65.8577 120.811 69.7037 122.692C74.4673 125.025 102.65 111.72 102.65 111.72L102.655 111.649L107.849 109.228C107.849 109.228 111.677 109.956 113.271 109.291C114.867 108.627 117.413 106.272 117.413 106.272C117.413 106.272 111.452 104.083 110.517 104.035V104.036Z" fill="#FFD1C1"/>
<mask id="mask13_1_1771" style="mask-type:luminance" maskUnits="userSpaceOnUse" x="65" y="104" width="53" height="19">
<path d="M110.517 104.036C109.581 103.988 65.4202 112.341 65.4202 112.341C65.4202 112.341 65.8577 120.811 69.7037 122.692C74.4673 125.025 102.65 111.72 102.65 111.72L102.655 111.649L107.849 109.228C107.849 109.228 111.677 109.956 113.271 109.291C114.867 108.627 117.413 106.272 117.413 106.272C117.413 106.272 111.452 104.083 110.517 104.035V104.036Z" fill="white"/>
</mask>
<g mask="url(#mask13_1_1771)">
<path d="M79.1885 109.748C79.1885 109.748 67.8488 118.616 65.1696 118.483C62.4904 118.35 63.9943 111.741 63.9943 111.741C63.9943 111.741 78.489 109.878 79.1885 109.748Z" fill="#FFB2A0"/>
</g>
<path d="M74.3738 73.1234C74.8114 71.9162 75.2234 70.7005 75.61 69.4763C75.61 69.4763 73.8612 67.7165 74.9912 66.3265C76.1212 64.9351 77.1294 67.4713 76.9935 67.9077C76.9935 67.9077 78.52 64.2266 80.0182 63.4629C81.5178 62.6992 80.8296 66.1593 84.3626 65.6152C87.8943 65.0711 87.7541 59.1343 87.7541 59.1343C87.7541 59.1343 79.4475 56.7879 74.6089 57.8137C69.7716 58.841 72.6051 61.0414 72.6051 61.0414C72.6051 61.0414 68.5496 62.2146 68.5496 64.4647C68.5496 66.7147 74.3724 73.1234 74.3724 73.1234H74.3738Z" fill="#373660"/>
<path d="M61.2318 205.195L60.1287 207.657L68.2031 215.947C69.5738 217.354 69.9462 219.457 69.1433 221.251L45.3848 210.594L50.0507 200.179L61.2304 205.193L61.2318 205.195Z" fill="#4F5285"/>
<path d="M54.7611 209.325C54.2726 210.417 52.991 210.905 51.8993 210.416C50.8075 209.927 50.3204 208.645 50.8089 207.552C51.2974 206.46 52.579 205.973 53.6707 206.461C54.7625 206.95 55.2496 208.232 54.7611 209.325Z" fill="#373660"/>
<path d="M61.1011 208.656L59.5732 209.919C59.2376 210.196 59.2008 210.699 59.4939 211.022C59.7615 211.317 60.2104 211.357 60.5248 211.115L62.2212 209.808L61.1011 208.658V208.656Z" fill="#373660"/>
<path d="M63.0709 210.684L61.5429 211.946C61.2073 212.224 61.1705 212.727 61.4636 213.05C61.7313 213.345 62.1802 213.384 62.4945 213.142L64.191 211.836L63.0709 210.685V210.684Z" fill="#373660"/>
<path d="M65.2995 212.969L63.7716 214.232C63.436 214.509 63.3991 215.012 63.6923 215.335C63.9599 215.63 64.4088 215.67 64.7232 215.428L66.4196 214.121L65.2995 212.971V212.969Z" fill="#373660"/>
<path d="M45.3872 210.579L44.5967 212.344L68.3554 222.998L69.1459 221.233L45.3872 210.579Z" fill="#373660"/>
<path d="M92.851 129.699H66.3736L62.2869 165.623C61.8182 169.665 60.6712 173.6 58.8926 177.26L47.584 200.535L64.731 206.839L75.4562 180.163C76.1996 178.314 76.64 176.356 76.7618 174.367L80.047 139.705L79.3291 209.657H96.452L92.851 129.7V129.699Z" fill="#373660"/>
<path d="M93.6638 209.656V212.354L104.422 216.615C106.248 217.339 107.448 219.104 107.448 221.069H81.4121V209.656H93.6638Z" fill="#4F5285"/>
<path d="M89.3878 216.55C89.6607 215.385 88.9381 214.22 87.7738 213.947C86.6096 213.674 85.4446 214.397 85.1718 215.562C84.8989 216.727 85.6215 217.892 86.7858 218.165C87.95 218.438 89.115 217.715 89.3878 216.55Z" fill="#373660"/>
<path d="M94.9591 212.867L94.0811 214.644C93.8885 215.035 94.0599 215.508 94.4592 215.683C94.8231 215.843 95.2494 215.695 95.4377 215.344L96.4516 213.457L94.9591 212.866V212.867Z" fill="#373660"/>
<path d="M97.5848 213.913L96.7069 215.689C96.5129 216.08 96.6856 216.554 97.0849 216.728C97.4489 216.888 97.8751 216.741 98.0634 216.389L99.0773 214.502L97.5848 213.911V213.913Z" fill="#373660"/>
<path d="M100.555 215.086L99.6768 216.863C99.4842 217.254 99.6556 217.727 100.055 217.901C100.419 218.061 100.845 217.914 101.033 217.563L102.047 215.675L100.555 215.084V215.086Z" fill="#373660"/>
<path d="M107.448 221.069H81.4121V223.003H107.448V221.069Z" fill="#373660"/>
<path d="M153.421 14.3037H96.1245C95.0288 14.3037 94.1406 15.1925 94.1406 16.2888V49.2346C94.1406 50.331 95.0288 51.2197 96.1245 51.2197H153.421C154.517 51.2197 155.405 50.331 155.405 49.2346V16.2888C155.405 15.1925 154.517 14.3037 153.421 14.3037Z" fill="#E8E8E8"/>
<mask id="mask14_1_1771" style="mask-type:luminance" maskUnits="userSpaceOnUse" x="94" y="14" width="62" height="38">
<path d="M153.421 14.3037H96.1245C95.0288 14.3037 94.1406 15.1925 94.1406 16.2888V49.2346C94.1406 50.331 95.0288 51.2197 96.1245 51.2197H153.421C154.517 51.2197 155.405 50.331 155.405 49.2346V16.2888C155.405 15.1925 154.517 14.3037 153.421 14.3037Z" fill="white"/>
</mask>
<g mask="url(#mask14_1_1771)">
<path d="M91.2731 51.367C91.8891 49.3734 92.7189 47.4465 93.7442 45.6286C95.2919 42.8869 97.3367 40.3549 100.017 38.7084C102.699 37.062 106.078 36.3904 109.063 37.3836C111.19 38.0921 112.96 39.56 114.86 40.7502C116.759 41.9404 119.016 42.8911 121.2 42.3839C123.127 41.9361 124.617 40.447 125.947 38.9819C128.302 36.3889 130.535 33.6401 133.331 31.5318C136.128 29.4234 139.634 27.9881 143.101 28.4826C146.343 28.946 149.123 31.0075 151.546 33.2137C153.997 35.4439 156.252 37.8937 158.271 40.522V58.7505H91.8608L91.2717 51.3656L91.2731 51.367Z" fill="#FE6C61"/>
<path d="M157.718 12.6489H91.4172V22.1776H157.718V12.6489Z" fill="#373660"/>
</g>
<path d="M100.795 17.6136C100.795 18.3816 100.173 19.0022 99.407 19.0022C98.6409 19.0022 98.0178 18.3802 98.0178 17.6136C98.0178 16.8471 98.6395 16.2236 99.407 16.2236C100.174 16.2236 100.795 16.8457 100.795 17.6136Z" fill="#FE6C61"/>
<path d="M106.238 17.6136C106.238 18.3816 105.617 19.0022 104.849 19.0022C104.082 19.0022 103.46 18.3802 103.46 17.6136C103.46 16.8471 104.082 16.2236 104.849 16.2236C105.617 16.2236 106.238 16.8457 106.238 17.6136Z" fill="white"/>
<path d="M111.68 17.6136C111.68 18.3816 111.058 19.0022 110.292 19.0022C109.526 19.0022 108.904 18.3802 108.904 17.6136C108.904 16.8471 109.526 16.2236 110.292 16.2236C111.058 16.2236 111.68 16.8457 111.68 17.6136Z" fill="white"/>
<path d="M359.987 190.045C360.344 178.092 355.386 163.097 355.386 163.097C348.789 172.502 348.02 180.583 349.29 186.743C346.651 183.276 343.339 180.279 339.491 179.537C339.491 179.537 341.787 196.409 348.851 199.725H363.474C376.893 195.503 374.612 171.403 374.612 171.403C363.592 179.468 362.2 182.828 359.987 190.046V190.045Z" fill="#E8E8E8"/>
<mask id="mask15_1_1771" style="mask-type:luminance" maskUnits="userSpaceOnUse" x="339" y="163" width="36" height="37">
<path d="M359.987 190.045C360.344 178.092 355.386 163.097 355.386 163.097C348.789 172.502 348.02 180.583 349.29 186.743C346.651 183.276 343.339 180.279 339.491 179.537C339.491 179.537 341.787 196.409 348.851 199.725H363.474C376.893 195.503 374.612 171.403 374.612 171.403C363.592 179.468 362.2 182.828 359.987 190.046V190.045Z" fill="white"/>
</mask>
<g mask="url(#mask15_1_1771)">
<path d="M344.356 197.244C344.356 197.244 349.869 198.892 350.756 194.39C350.756 194.39 352.973 197.496 356.079 196.99C359.182 196.483 359.689 193.313 359.689 193.313C359.689 193.313 361.907 198.576 369.51 197.18C369.51 197.18 363.364 201.301 360.64 201.428C357.915 201.554 349.109 201.302 348.728 201.174C348.348 201.048 344.356 197.244 344.356 197.244Z" fill="#B5B5B5"/>
</g>
<path d="M341.046 199.724H371.903L364.965 223.015H347.071L341.046 199.724Z" fill="#D1D1D1"/>
<mask id="mask16_1_1771" style="mask-type:luminance" maskUnits="userSpaceOnUse" x="341" y="199" width="31" height="25">
<path d="M341.046 199.724H371.903L364.965 223.015H347.071L341.046 199.724Z" fill="white"/>
</mask>
<g mask="url(#mask16_1_1771)">
<path d="M341.66 214.747C341.66 214.747 362.737 208.306 371.903 196.792H375.028L366.974 225H343.529L341.66 214.747Z" fill="#B5B5B5"/>
</g>
<path d="M60.3786 46.6475H30.473C29.3585 46.6475 28.4551 47.5514 28.4551 48.6665V64.7314C28.4551 65.8465 29.3585 66.7505 30.473 66.7505H60.3786C61.493 66.7505 62.3965 65.8465 62.3965 64.7314V48.6665C62.3965 47.5514 61.493 46.6475 60.3786 46.6475Z" fill="#E8E8E8"/>
<path d="M45.5253 50.4688H31.8689C31.6608 50.4688 31.4922 50.6375 31.4922 50.8456V52.4198C31.4922 52.628 31.6608 52.7967 31.8689 52.7967H45.5253C45.7333 52.7967 45.902 52.628 45.902 52.4198V50.8456C45.902 50.6375 45.7333 50.4688 45.5253 50.4688Z" fill="#D1D1D1"/>
<path d="M45.5253 57.5376H31.8689C31.6608 57.5376 31.4922 57.7063 31.4922 57.9145V59.4887C31.4922 59.6968 31.6608 59.8656 31.8689 59.8656H45.5253C45.7333 59.8656 45.902 59.6968 45.902 59.4887V57.9145C45.902 57.7063 45.7333 57.5376 45.5253 57.5376Z" fill="#F7F7F7"/>
<path d="M59.6393 57.5376H47.5689C47.3733 57.5376 47.2148 57.6962 47.2148 57.8918V59.5113C47.2148 59.707 47.3733 59.8656 47.5689 59.8656H59.6393C59.8348 59.8656 59.9933 59.707 59.9933 59.5113V57.8918C59.9933 57.6962 59.8348 57.5376 59.6393 57.5376Z" fill="#F7F7F7"/>
<path d="M53.6083 50.4688H47.4711C47.3296 50.4688 47.2148 50.5836 47.2148 50.7252V52.5403C47.2148 52.6819 47.3296 52.7967 47.4711 52.7967H53.6083C53.7499 52.7967 53.8646 52.6819 53.8646 52.5403V50.7252C53.8646 50.5836 53.7499 50.4688 53.6083 50.4688Z" fill="#F7F7F7"/>
<path d="M38.782 53.9785H31.7655C31.6145 53.9785 31.4922 54.101 31.4922 54.252V56.033C31.4922 56.1841 31.6145 56.3065 31.7655 56.3065H38.782C38.933 56.3065 39.0553 56.1841 39.0553 56.033V54.252C39.0553 54.101 38.933 53.9785 38.782 53.9785Z" fill="#F7F7F7"/>
<path d="M53.5034 53.9785H40.8977C40.6975 53.9785 40.5352 54.1409 40.5352 54.3412V55.9438C40.5352 56.1441 40.6975 56.3065 40.8977 56.3065H53.5034C53.7036 56.3065 53.8659 56.1441 53.8659 55.9438V54.3412C53.8659 54.1409 53.7036 53.9785 53.5034 53.9785Z" fill="#F7F7F7"/>
<path d="M59.7699 53.9785H55.1564C55.0328 53.9785 54.9326 54.0787 54.9326 54.2024V56.0826C54.9326 56.2063 55.0328 56.3065 55.1564 56.3065H59.7699C59.8934 56.3065 59.9936 56.2063 59.9936 56.0826V54.2024C59.9936 54.0787 59.8934 53.9785 59.7699 53.9785Z" fill="#F7F7F7"/>
<path d="M59.7699 50.4688H55.1564C55.0328 50.4688 54.9326 50.569 54.9326 50.6926V52.5729C54.9326 52.6965 55.0328 52.7967 55.1564 52.7967H59.7699C59.8934 52.7967 59.9936 52.6965 59.9936 52.5729V50.6926C59.9936 50.569 59.8934 50.4688 59.7699 50.4688Z" fill="#F7F7F7"/>
<path d="M45.8024 63.4248H50.3182C50.4402 63.4248 50.5391 63.3258 50.5391 63.2038V61.3179C50.5391 61.1958 50.4402 61.0968 50.3182 61.0968H45.8024C45.6804 61.0968 45.5815 61.1958 45.5815 61.3179V63.2038C45.5815 63.3258 45.6804 63.4248 45.8024 63.4248Z" fill="#D1D1D1"/>
<path d="M51.9313 63.4248H56.4471C56.5691 63.4248 56.668 63.3258 56.668 63.2038V61.3179C56.668 61.1958 56.5691 61.0968 56.4471 61.0968H51.9313C51.8093 61.0968 51.7104 61.1958 51.7104 61.3179V63.2038C51.7104 63.3258 51.8093 63.4248 51.9313 63.4248Z" fill="#D1D1D1"/>
<path d="M58.352 63.4248H59.4791C59.763 63.4248 59.9932 63.1945 59.9932 62.9105V61.6112C59.9932 61.3271 59.763 61.0968 59.4791 61.0968H58.352C58.0681 61.0968 57.8379 61.3271 57.8379 61.6112V62.9105C57.8379 63.1945 58.0681 63.4248 58.352 63.4248Z" fill="#D1D1D1"/>
<path d="M37.876 63.4248H44.0132C44.1548 63.4248 44.2695 63.31 44.2695 63.1683V61.3533C44.2695 61.2117 44.1548 61.0968 44.0132 61.0968H37.876C37.7345 61.0968 37.6197 61.2117 37.6197 61.3533V63.1683C37.6197 63.31 37.7345 63.4248 37.876 63.4248Z" fill="#F7F7F7"/>
<path d="M31.7155 63.4248H36.329C36.4526 63.4248 36.5527 63.3246 36.5527 63.2009V61.3207C36.5527 61.1971 36.4526 61.0968 36.329 61.0968H31.7155C31.5919 61.0968 31.4918 61.1971 31.4918 61.3207V63.2009C31.4918 63.3246 31.5919 63.4248 31.7155 63.4248Z" fill="#F7F7F7"/>
</g>
<defs>
<clipPath id="clip0_1_1771">
<rect width="393" height="225" fill="white"/>
</clipPath>
</defs>
</svg>
