<svg width="281" height="283" viewBox="0 0 281 283" fill="none" xmlns="http://www.w3.org/2000/svg">
<g clip-path="url(#clip0_1_1711)">
<path d="M33.0616 255.23C-15.4373 210.416 -7.96864 116.741 38.4594 61.5914C44.4384 54.4896 85.8235 6.90542 150.314 7.54197C197.531 8.00782 230.672 34.0695 234.702 37.317C239.793 41.4181 251.02 51.1649 261.14 66.6273C284.916 102.958 287.007 153.677 269.218 194.304C240.752 259.318 165.609 287.243 106.735 282.482" fill="url(#paint0_linear_1_1711)"/>
<path d="M103.426 218.213C111.318 215.667 116.216 207.625 116.523 198.255C116.698 192.953 117.914 187.754 119.915 182.836C124.638 171.227 125.227 156.631 120.551 142.144C115.925 127.815 107.059 116.408 96.5903 109.717C87.2319 103.735 80.4649 94.3973 77.9218 83.5996C77.6543 82.4643 77.3375 81.3259 76.9702 80.1885C71.4078 62.9553 56.3348 52.393 43.3048 56.5959C30.2747 60.7988 24.2216 78.176 29.784 95.4092C30.9218 98.9334 32.4567 102.177 34.2909 105.073C40.1445 114.314 42.4735 125.41 40.3903 136.152C38.5293 145.752 39.1013 156.555 42.5692 167.298C47.7407 183.319 58.2163 195.689 70.304 201.899C74.8757 204.248 79.0041 207.411 82.4287 211.237C88.1197 217.597 96.1099 220.572 103.425 218.213" fill="#91B3FA"/>
<path d="M53.7845 73.4565C59.1628 84.2965 64.1892 95.3009 69.0994 106.358C70.3287 109.121 71.5128 111.905 72.7061 114.683L74.4951 118.852L76.2491 123.037C77.4074 125.831 78.6049 128.608 79.7324 131.416L83.1149 139.836C85.2979 145.479 87.5282 151.103 89.6062 156.785C90.6494 159.625 91.747 162.444 92.7326 165.305L95.7272 173.874C99.6045 185.337 103.195 196.904 106.194 208.629L105.69 208.764L103.113 200.076L102.473 197.904L101.779 195.748L100.383 191.438L98.9966 187.126C98.5367 185.688 98.0234 184.267 97.5399 182.837C96.5533 179.982 95.5894 177.12 94.5833 174.273C90.4879 162.907 86.2423 151.596 81.7631 140.374C79.4804 134.78 77.247 129.167 74.9251 123.589L73.1958 119.4L71.4315 115.226C70.2567 112.443 69.0819 109.66 67.8793 106.888C65.5204 101.325 63.1224 95.7781 60.6791 90.2507C58.2647 84.7109 55.7967 79.1917 53.3134 73.6838L53.7845 73.4586V73.4565Z" fill="#BDD0FB"/>
<path d="M108.024 215.177C102.264 203.968 93.4054 195.742 83.8679 191.623C75.3417 187.942 68.4945 181.142 64.9309 172.568C64.5564 171.667 64.1408 170.769 63.683 169.88C56.7555 156.399 42.8974 149.703 32.7293 154.924C22.5613 160.145 19.9349 175.306 26.8614 188.787C28.278 191.544 29.9847 194.015 31.8899 196.16C37.9708 203.004 41.3985 211.852 41.1424 221.001" fill="#BDD0FB"/>
<path d="M75.816 218.925C73.1742 214.613 70.5704 210.278 67.8988 205.985L65.9041 202.759L63.8826 199.55C62.536 197.41 61.1894 195.27 59.8211 193.143C57.1207 188.866 54.3904 184.609 51.6252 180.374C48.8815 176.125 46.0978 171.899 43.3027 167.685L43.6596 167.436C49.5667 175.663 55.2042 184.074 60.7542 192.542C62.143 194.659 63.4968 196.798 64.8589 198.932L66.8999 202.133L68.9142 205.352C70.2495 207.503 71.6136 209.636 72.9242 211.801" fill="url(#paint1_linear_1_1711)"/>
<path d="M161.064 223.777C160.591 218.209 159.028 212.806 156.654 207.742C151.052 195.787 149.634 180.466 153.761 164.97C157.845 149.645 166.548 137.161 177.195 129.549C186.713 122.745 193.322 112.554 195.407 101.056C195.626 99.8474 195.897 98.6329 196.221 97.4153C201.131 78.9831 216.409 67.049 230.345 70.7583C244.281 74.4675 251.599 92.4175 246.688 110.85C245.684 114.619 244.246 118.115 242.476 121.261C236.823 131.302 234.979 143.101 237.758 154.288C240.24 164.285 240.228 175.681 237.167 187.17C232.603 204.307 222.259 217.891 209.883 225.083" fill="#91B3FA"/>
<path d="M177.669 215.721L178.892 211.11C179.298 209.572 179.76 208.049 180.191 206.518C181.072 203.462 181.93 200.398 182.833 197.348C186.52 185.168 190.367 173.038 194.466 160.989C196.561 154.98 198.604 148.953 200.741 142.957L202.331 138.457L203.96 133.971C205.043 130.978 206.127 127.987 207.241 125.005C209.418 119.024 211.638 113.058 213.907 107.11C216.144 101.15 218.438 95.2097 220.75 89.2801L220.243 89.0693C215.177 100.766 210.491 112.617 205.93 124.516C204.788 127.49 203.694 130.482 202.591 133.471L200.936 137.954L199.319 142.451C198.253 145.454 197.145 148.442 196.113 151.456L193.015 160.498C191.027 166.553 188.988 172.591 187.112 178.683C186.17 181.726 185.169 184.752 184.289 187.816L181.607 196.992C178.155 209.263 175.01 221.627 172.497 234.124" fill="#BDD0FB"/>
<path d="M182.885 216.119C189.212 205.47 198.398 197.935 208.004 194.471C216.591 191.373 223.718 185.117 227.731 176.921C228.153 176.059 228.615 175.204 229.117 174.359C236.726 161.553 250.725 155.82 260.384 161.556C270.043 167.291 271.705 182.323 264.096 195.129C262.539 197.748 260.716 200.07 258.719 202.058C252.34 208.404 248.444 216.877 248.142 225.868" fill="#BDD0FB"/>
<path d="M214.254 221.739C217.106 217.669 219.923 213.574 222.802 209.523L224.954 206.479L227.131 203.453C228.582 201.434 230.031 199.416 231.502 197.412C234.409 193.38 237.345 189.368 240.313 185.38C243.261 181.377 246.247 177.4 249.244 173.435L248.909 173.168C242.618 180.883 236.579 188.793 230.623 196.766C229.133 198.759 227.675 200.775 226.21 202.786L224.014 205.803L221.843 208.839C220.404 210.869 218.937 212.878 217.521 214.924" fill="url(#paint2_linear_1_1711)"/>
<path d="M175.229 165.207L166.685 75.7128C146.166 68.1318 120.293 76.6044 120.293 76.6044L116.298 165.206H175.229V165.207Z" fill="white"/>
<path d="M134.567 60.5527L134.182 73.256C134.144 74.5127 134.924 75.6439 136.109 76.0624C139.358 77.208 146.085 78.9501 152.46 76.6681C153.746 76.2074 154.521 74.8922 154.321 73.5409L152.411 60.5527H134.567Z" fill="url(#paint3_linear_1_1711)"/>
<path d="M138.187 165.207C140.449 162.947 141.705 161.329 141.705 161.329L139.028 153.749C139.028 153.749 117.17 166.234 110.033 159.991C102.895 153.749 114.94 117.183 114.94 117.183L97.5429 85.5234C97.5429 85.5234 82.941 134.189 87.8512 160.784C88.3234 163.343 90.5568 165.207 93.1605 165.207H138.188H138.187Z" fill="#272454"/>
<path d="M134.335 68.2192L144.266 77.7377L137.095 82.6276L130.755 74.0973L134.335 68.2192Z" fill="white"/>
<path d="M153.355 68.2192L143.424 77.7377L150.596 82.6276L156.936 74.0973L153.355 68.2192Z" fill="white"/>
<path d="M128.068 37.3653C128.068 37.3653 130.298 60.1074 135.205 65.9032C135.205 65.9032 149.925 67.2411 155.279 64.1201C155.279 64.1201 159.071 52.7495 158.624 37.5884C158.624 37.5884 159.356 23.792 144.127 22.6505C126.284 21.3126 128.069 37.3653 128.069 37.3653H128.068Z" fill="url(#paint4_linear_1_1711)"/>
<path d="M157.064 44.5C157.064 44.5 158.402 40.4863 160.632 40.4863C162.863 40.4863 160.187 51.1884 157.064 51.1884V44.5Z" fill="url(#paint5_linear_1_1711)"/>
<path d="M130.098 45.5543C130.098 45.5543 128.231 41.7586 126.02 42.0589C123.811 42.3592 127.906 52.6027 131.001 52.1821L130.098 45.5543Z" fill="url(#paint6_linear_1_1711)"/>
<path d="M129.608 49.3631C129.608 49.3631 130.108 62.9477 136.085 69.8367C136.633 70.4692 137.426 70.8373 138.263 70.8774C141.314 71.0245 149.113 71.2867 153.509 70.4105C154.604 70.1925 155.505 69.4213 155.865 68.3651C156.946 65.1968 158.823 60.201 158.178 48.7358L154.591 57.2815C151.933 64.3432 150.49 55.7708 149.257 55.8706H141.227C140.381 55.9385 139.443 61.2211 136.307 59.6735L129.608 49.3631Z" fill="#1E1E1E"/>
<path d="M152.602 32.0137C152.602 32.0137 141.237 43.6979 128.854 43.6526C128.854 43.6526 121.823 24.8789 135.652 21.7579C149.48 18.6368 149.926 22.6495 149.926 22.6495C149.926 22.6495 165.841 18.6615 158.648 41.6052L152.603 32.0137H152.602Z" fill="#1E1E1E"/>
<path d="M156.371 165.207H197.786C199.65 165.207 201.384 164.246 202.371 162.666C220.215 134.128 194.789 87.3066 194.789 87.3066L181.406 122.534C181.406 122.534 193.004 134.128 186.759 152.41C180.514 170.692 155.088 156.424 155.088 156.424L155.979 164.896C155.979 164.896 156.117 165.009 156.371 165.207Z" fill="#272454"/>
<path d="M142.798 78.5509L139.093 81.0714L141.705 86.1494H145.963L148.809 81.4292L143.96 78.1128L142.798 78.5509Z" fill="url(#paint7_linear_1_1711)"/>
<path d="M141.705 86.1494L138.814 134.256L146.165 147.544L153.565 134.735L145.963 86.1494H141.705Z" fill="url(#paint8_linear_1_1711)"/>
<path d="M110.586 117.141C113.751 124.811 115.262 133.063 115.021 141.358L114.33 165.206H147.871L146.165 131.231L130.754 74.1011C116.479 76.3306 97.5419 85.523 97.5419 85.523L110.585 117.141H110.586Z" fill="#272454"/>
<path d="M178.597 165.207L179.621 145.421C179.621 135.292 181.35 125.235 184.733 115.687L194.788 87.3076C181.851 75.7138 156.378 73.1841 156.378 73.1841L146.165 131.232V165.207H178.597Z" fill="#272454"/>
<path d="M143.339 129.234C143.27 129.234 143.201 129.205 143.153 129.148L129.421 113.318C129.392 113.284 129.372 113.242 129.364 113.195L127.98 104.711L122.898 103.688C122.786 103.666 122.705 103.57 122.701 103.456L121.608 76.5942C121.603 76.4574 121.709 76.3433 121.845 76.3371C121.987 76.332 122.096 76.4379 122.102 76.5736L123.187 103.242L128.247 104.26C128.347 104.281 128.425 104.361 128.442 104.463L129.842 113.047L143.528 128.826C143.617 128.928 143.606 129.085 143.503 129.174C143.457 129.214 143.399 129.235 143.341 129.235L143.339 129.234Z" fill="#91B3FA"/>
<path d="M147.945 129.233C147.887 129.233 147.83 129.214 147.783 129.173C147.681 129.082 147.669 128.925 147.759 128.822L161.444 112.91L162.844 104.253C162.861 104.15 162.939 104.068 163.04 104.048L168.099 103.022L169.184 76.1269C169.189 75.9891 169.293 75.8832 169.441 75.8884C169.577 75.8945 169.683 76.0097 169.678 76.1475L168.586 103.238C168.581 103.353 168.499 103.448 168.388 103.471L163.306 104.501L161.922 113.058C161.915 113.104 161.896 113.147 161.866 113.182L148.134 129.147C148.085 129.204 148.017 129.233 147.948 129.233H147.945Z" fill="#91B3FA"/>
<path d="M76.4991 171.1L80.2355 179.605H210.798L215.911 171.1H76.4991Z" fill="url(#paint9_linear_1_1711)"/>
<path d="M192.02 282.673L202.245 179.605H90.1649L99.9965 282.673" fill="url(#paint10_linear_1_1711)"/>
<path d="M191.696 145.478C191.044 145.478 190.335 144.949 190.335 144.298V131.244C190.335 129.318 189.523 127.543 187.904 126.499L184.814 124.454C184.267 124.101 184.148 123.37 184.501 122.824C184.855 122.277 185.603 122.118 186.152 122.474L189.356 124.518C191.651 125.999 193.057 128.514 193.057 131.244V144.298C193.057 144.949 192.347 145.478 191.696 145.478Z" fill="url(#paint11_linear_1_1711)"/>
<path d="M185.396 116.213C188.098 118.542 188.4 122.619 186.07 125.321C183.74 128.021 179.661 128.324 176.958 125.995L165.629 116.228C162.928 113.899 162.625 109.822 164.955 107.12C167.285 104.42 171.364 104.117 174.067 106.446L185.396 116.213Z" fill="url(#paint12_linear_1_1711)"/>
<path d="M194.118 140.486H189.53C188.841 140.486 188.293 140.925 188.293 141.613V151.712H195.779V141.613C195.779 140.925 194.805 140.486 194.118 140.486Z" fill="url(#paint13_linear_1_1711)"/>
<path d="M195.691 150.35H187.17C186.047 150.35 184.89 151.498 184.89 152.62V154.433H197.481V152.62C197.481 151.498 196.813 150.35 195.691 150.35Z" fill="url(#paint14_linear_1_1711)"/>
<path d="M100.839 145.478C101.491 145.478 102.2 144.949 102.2 144.298V131.244C102.2 129.318 103.086 127.543 104.704 126.499L107.83 124.454C108.378 124.101 108.514 123.37 108.162 122.824C107.808 122.277 107.069 122.118 106.52 122.474L103.247 124.518C100.952 125.999 99.477 128.514 99.477 131.244V144.298C99.477 144.949 100.187 145.478 100.838 145.478H100.839Z" fill="url(#paint15_linear_1_1711)"/>
<path d="M107.286 116.213C104.585 118.542 104.282 122.619 106.612 125.321C108.942 128.021 113.021 128.324 115.724 125.995L127.053 116.228C129.755 113.899 130.057 109.822 127.727 107.12C125.397 104.42 121.318 104.117 118.616 106.446L107.286 116.213Z" fill="url(#paint16_linear_1_1711)"/>
<path d="M98.5645 140.486H103.153C103.841 140.486 103.902 140.925 103.902 141.613V151.712H96.4155V141.613C96.4155 140.925 97.8773 140.486 98.5645 140.486Z" fill="url(#paint17_linear_1_1711)"/>
<path d="M96.9916 150.35H105.513C106.635 150.35 107.305 151.498 107.305 152.62V154.433H94.3734V152.62C94.3734 151.498 95.8692 150.35 96.9916 150.35Z" fill="url(#paint18_linear_1_1711)"/>
<path d="M76.2049 171.781L72.4685 154.433H219.941L216.795 171.781H76.2049Z" fill="url(#paint19_linear_1_1711)"/>
<path d="M207.337 15.811C189.252 15.811 174.59 26.9831 174.59 40.7631C174.59 44.5845 175.719 48.2043 177.734 51.4416C178.731 53.0417 179.065 54.9863 178.602 56.8148C177.7 60.3749 178.173 64.9758 182.237 70.4354C183.008 71.473 184.646 71.0832 184.883 69.8122C185.179 68.2192 185.69 66.2469 186.566 64.3423C187.383 62.5664 189.462 61.7303 191.258 62.5036C196.008 64.548 201.494 65.7152 207.338 65.7152C225.423 65.7152 240.085 54.5431 240.085 40.7631C240.085 26.9831 225.423 15.811 207.338 15.811H207.337Z" fill="#91B3FA"/>
<g opacity="0.68">
<path d="M199.274 47.0683C199.547 45.3848 198.403 43.7985 196.719 43.5252C195.035 43.252 193.448 44.3952 193.175 46.0787C192.901 47.7622 194.045 49.3485 195.729 49.6218C197.413 49.895 199 48.7518 199.274 47.0683Z" fill="white"/>
<path d="M209.521 48.754C210.728 47.548 210.728 45.5927 209.521 44.3867C208.315 43.1807 206.359 43.1807 205.153 44.3867C203.946 45.5927 203.946 47.548 205.153 48.754C206.359 49.96 208.315 49.96 209.521 48.754Z" fill="white"/>
<path d="M220.644 48.7535C221.85 47.5475 221.85 45.5922 220.644 44.3862C219.437 43.1802 217.481 43.1802 216.275 44.3862C215.068 45.5922 215.068 47.5475 216.275 48.7535C217.481 49.9595 219.437 49.9595 220.644 48.7535Z" fill="white"/>
</g>
<path d="M232.546 0C250.632 0 265.293 11.1721 265.293 24.9521C265.293 40.1543 245.834 49.9042 232.546 49.9042C214.461 49.9042 199.8 38.7321 199.8 24.9521C199.8 11.1721 214.46 0 232.546 0Z" fill="url(#paint20_linear_1_1711)"/>
<path opacity="0.64" d="M247.596 43.5003C243.312 45.7154 238.491 46.8888 233.645 47.0996C228.798 47.3032 223.877 46.5813 219.322 44.8105C218.749 44.6007 218.19 44.3508 217.632 44.105C217.354 43.9785 217.081 43.8387 216.807 43.707C216.531 43.5754 216.257 43.4386 215.991 43.2885C214.905 42.726 213.871 42.0658 212.865 41.3696C210.875 39.9443 209.053 38.2578 207.579 36.2885C206.094 34.3325 204.969 32.0907 204.356 29.7152C203.776 27.3366 203.657 24.8387 204.16 22.4663L204.497 22.5198C204.365 23.6983 204.36 24.8819 204.465 26.0522C204.581 27.2214 204.82 28.3722 205.169 29.4859C205.501 30.6047 205.984 31.6732 206.541 32.6944C207.095 33.7165 207.738 34.6925 208.477 35.5933C209.935 37.4104 211.685 38.9869 213.608 40.3114C215.528 41.6431 217.621 42.727 219.805 43.5764C224.173 45.2948 228.903 46.0476 233.616 46.0075C238.33 45.9345 243.061 45.048 247.453 43.1929L247.598 43.5003H247.596Z" fill="white"/>
<g opacity="0.68">
<path d="M226.835 26.2877C227.227 24.6278 226.198 22.9645 224.538 22.5728C222.877 22.181 221.213 23.209 220.821 24.8689C220.429 26.5289 221.458 28.1921 223.118 28.5839C224.779 28.9757 226.443 27.9476 226.835 26.2877Z" fill="white"/>
<path d="M237.144 27.7662C238.35 26.5602 238.35 24.6049 237.144 23.3989C235.937 22.1929 233.981 22.1929 232.775 23.3989C231.568 24.6049 231.568 26.5602 232.775 27.7662C233.981 28.9722 235.937 28.9722 237.144 27.7662Z" fill="white"/>
<path d="M247.986 28.0236C249.331 26.974 249.57 25.0334 248.52 23.689C247.47 22.3447 245.529 22.1057 244.184 23.1553C242.839 24.2048 242.6 26.1455 243.65 27.4898C244.7 28.8342 246.641 29.0732 247.986 28.0236Z" fill="white"/>
</g>
</g>
<defs>
<linearGradient id="paint0_linear_1_1711" x1="296.233" y1="320.705" x2="91.6352" y2="99.7883" gradientUnits="userSpaceOnUse">
<stop stop-color="#DAE3FE"/>
<stop offset="1" stop-color="#E9EFFD"/>
</linearGradient>
<linearGradient id="paint1_linear_1_1711" x1="43.3027" y1="193.181" x2="75.816" y2="193.181" gradientUnits="userSpaceOnUse">
<stop stop-color="#DAE3FE"/>
<stop offset="1" stop-color="#E9EFFD"/>
</linearGradient>
<linearGradient id="paint2_linear_1_1711" x1="214.254" y1="197.454" x2="249.244" y2="197.454" gradientUnits="userSpaceOnUse">
<stop stop-color="#DAE3FE"/>
<stop offset="1" stop-color="#E9EFFD"/>
</linearGradient>
<linearGradient id="paint3_linear_1_1711" x1="141.464" y1="92.9635" x2="144.476" y2="67.1844" gradientUnits="userSpaceOnUse">
<stop stop-color="#FEBBBA"/>
<stop offset="1" stop-color="#FF928E"/>
</linearGradient>
<linearGradient id="paint4_linear_1_1711" x1="144.273" y1="64.1077" x2="143.121" y2="30.8938" gradientUnits="userSpaceOnUse">
<stop stop-color="#FEBBBA"/>
<stop offset="1" stop-color="#FF928E"/>
</linearGradient>
<linearGradient id="paint5_linear_1_1711" x1="159.845" y1="63.5678" x2="158.694" y2="30.3539" gradientUnits="userSpaceOnUse">
<stop stop-color="#FEBBBA"/>
<stop offset="1" stop-color="#FF928E"/>
</linearGradient>
<linearGradient id="paint6_linear_1_1711" x1="128.784" y1="64.6458" x2="127.631" y2="31.4318" gradientUnits="userSpaceOnUse">
<stop stop-color="#FEBBBA"/>
<stop offset="1" stop-color="#FF928E"/>
</linearGradient>
<linearGradient id="paint7_linear_1_1711" x1="147.31" y1="74.4704" x2="128.984" y2="111.482" gradientUnits="userSpaceOnUse">
<stop stop-color="#FF928E"/>
<stop offset="1" stop-color="#FE7062"/>
</linearGradient>
<linearGradient id="paint8_linear_1_1711" x1="161.883" y1="81.6863" x2="143.557" y2="118.698" gradientUnits="userSpaceOnUse">
<stop stop-color="#FF928E"/>
<stop offset="1" stop-color="#FE7062"/>
</linearGradient>
<linearGradient id="paint9_linear_1_1711" x1="145.956" y1="147.723" x2="146.472" y2="196.288" gradientUnits="userSpaceOnUse">
<stop stop-color="#09005D"/>
<stop offset="1" stop-color="#1A0F91"/>
</linearGradient>
<linearGradient id="paint10_linear_1_1711" x1="146.566" y1="174.125" x2="139.086" y2="287.738" gradientUnits="userSpaceOnUse">
<stop stop-color="#09005D"/>
<stop offset="1" stop-color="#1A0F91"/>
</linearGradient>
<linearGradient id="paint11_linear_1_1711" x1="188.655" y1="122.269" x2="188.763" y2="145.492" gradientUnits="userSpaceOnUse">
<stop stop-color="#FF928E"/>
<stop offset="1" stop-color="#FE7062"/>
</linearGradient>
<linearGradient id="paint12_linear_1_1711" x1="153.744" y1="97.6112" x2="188.368" y2="127.197" gradientUnits="userSpaceOnUse">
<stop stop-color="#FF928E"/>
<stop offset="1" stop-color="#FE7062"/>
</linearGradient>
<linearGradient id="paint13_linear_1_1711" x1="191.98" y1="134.553" x2="192.065" y2="152.939" gradientUnits="userSpaceOnUse">
<stop stop-color="#FF928E"/>
<stop offset="1" stop-color="#FE7062"/>
</linearGradient>
<linearGradient id="paint14_linear_1_1711" x1="191.16" y1="148.159" x2="191.192" y2="154.906" gradientUnits="userSpaceOnUse">
<stop stop-color="#FF928E"/>
<stop offset="1" stop-color="#FE7062"/>
</linearGradient>
<linearGradient id="paint15_linear_1_1711" x1="116.251" y1="111.026" x2="99.4718" y2="139.152" gradientUnits="userSpaceOnUse">
<stop stop-color="#FF928E"/>
<stop offset="1" stop-color="#FE7062"/>
</linearGradient>
<linearGradient id="paint16_linear_1_1711" x1="138.934" y1="97.625" x2="104.31" y2="127.211" gradientUnits="userSpaceOnUse">
<stop stop-color="#FF928E"/>
<stop offset="1" stop-color="#FE7062"/>
</linearGradient>
<linearGradient id="paint17_linear_1_1711" x1="100.215" y1="134.549" x2="100.129" y2="152.939" gradientUnits="userSpaceOnUse">
<stop stop-color="#FF928E"/>
<stop offset="1" stop-color="#FE7062"/>
</linearGradient>
<linearGradient id="paint18_linear_1_1711" x1="100.864" y1="148.154" x2="100.832" y2="154.907" gradientUnits="userSpaceOnUse">
<stop stop-color="#FF928E"/>
<stop offset="1" stop-color="#FE7062"/>
</linearGradient>
<linearGradient id="paint19_linear_1_1711" x1="160.31" y1="56.317" x2="143.989" y2="169.933" gradientUnits="userSpaceOnUse">
<stop stop-color="#09005D"/>
<stop offset="1" stop-color="#1A0F91"/>
</linearGradient>
<linearGradient id="paint20_linear_1_1711" x1="254.982" y1="-24.043" x2="204.651" y2="85.5036" gradientUnits="userSpaceOnUse">
<stop stop-color="#FEBBBA"/>
<stop offset="1" stop-color="#FF928E"/>
</linearGradient>
<clipPath id="clip0_1_1711">
<rect width="281" height="283" fill="white"/>
</clipPath>
</defs>
</svg>
