<svg width="524" height="524" viewBox="0 0 524 524" fill="none" xmlns="http://www.w3.org/2000/svg">
<g clip-path="url(#clip0_356_3181)">
<path d="M92.24 441.282C15.6084 370.473 27.4094 222.46 100.769 135.319C110.216 124.098 175.608 48.9112 277.507 49.917C352.114 50.6531 404.479 91.8324 410.846 96.9637C418.89 103.444 436.631 118.844 452.62 143.276C490.189 200.681 493.492 280.82 465.384 345.014C420.405 447.741 301.675 491.865 208.649 484.341" fill="url(#paint0_linear_356_3181)"/>
<path d="M203.421 382.792C215.89 378.77 223.629 366.062 224.115 351.258C224.391 342.88 226.313 334.664 229.474 326.894C236.937 308.551 237.868 285.489 230.479 262.598C223.171 239.957 209.161 221.934 192.62 211.36C177.833 201.909 167.14 187.155 163.122 170.093C162.7 168.3 162.199 166.501 161.619 164.704C152.83 137.474 129.013 120.785 108.425 127.426C87.8365 134.067 78.2722 161.524 87.0611 188.754C88.8589 194.322 91.2841 199.447 94.1824 204.022C103.431 218.624 107.111 236.156 103.82 253.13C100.879 268.299 101.783 285.369 107.263 302.342C115.434 327.658 131.986 347.202 151.086 357.015C158.309 360.726 164.832 365.724 170.243 371.77C179.236 381.818 191.861 386.519 203.42 382.792" fill="#91B3FA"/>
<path d="M124.984 154.067C133.482 171.195 141.424 188.583 149.182 206.054C151.125 210.42 152.996 214.818 154.881 219.209L157.708 225.796L160.479 232.407C162.31 236.822 164.202 241.211 165.983 245.647L171.328 258.951C174.777 267.867 178.301 276.754 181.585 285.733C183.233 290.219 184.967 294.674 186.524 299.195L191.256 312.733C197.383 330.846 203.056 349.122 207.794 367.649L206.997 367.862L202.926 354.135L201.914 350.703L200.819 347.296L198.613 340.486L196.422 333.673C195.695 331.402 194.884 329.156 194.12 326.896C192.561 322.385 191.038 317.863 189.449 313.364C182.978 295.406 176.269 277.534 169.192 259.801C165.585 250.962 162.056 242.093 158.387 233.28L155.655 226.662L152.867 220.066C151.011 215.668 149.155 211.271 147.254 206.892C143.527 198.101 139.738 189.337 135.878 180.603C132.063 171.85 128.163 163.129 124.239 154.426L124.984 154.07V154.067Z" fill="#BDD0FB"/>
<path d="M210.685 377.994C201.584 360.283 187.587 347.285 172.517 340.778C159.045 334.961 148.226 324.217 142.595 310.669C142.004 309.245 141.347 307.827 140.624 306.421C129.678 285.121 107.781 274.541 91.7147 282.791C75.6484 291.04 71.4986 314.996 82.4429 336.296C84.6812 340.653 87.3779 344.557 90.3883 347.947C99.9965 358.76 105.413 372.741 105.008 387.197" fill="#BDD0FB"/>
<path d="M159.795 383.917C155.62 377.104 151.506 370.255 147.285 363.471L144.133 358.374L140.939 353.303C138.811 349.922 136.684 346.54 134.522 343.18C130.255 336.422 125.941 329.695 121.572 323.004C117.236 316.29 112.838 309.613 108.421 302.955L108.985 302.561C118.319 315.56 127.227 328.85 135.996 342.231C138.19 345.575 140.33 348.955 142.482 352.326L145.707 357.385L148.889 362.471C150.999 365.87 153.155 369.24 155.225 372.662" fill="url(#paint1_linear_356_3181)"/>
<path d="M294.493 391.583C293.745 382.786 291.274 374.249 287.524 366.246C278.672 347.357 276.432 323.148 282.954 298.664C289.405 274.449 303.157 254.724 319.98 242.697C335.019 231.945 345.461 215.843 348.756 197.675C349.103 195.766 349.53 193.847 350.042 191.923C357.8 162.798 381.94 143.942 403.961 149.803C425.981 155.664 437.543 184.026 429.785 213.15C428.198 219.105 425.926 224.63 423.129 229.6C414.197 245.466 411.284 264.11 415.674 281.785C419.596 297.582 419.577 315.587 414.741 333.742C407.529 360.819 391.185 382.282 371.63 393.647" fill="#91B3FA"/>
<path d="M320.73 378.855L322.663 371.569C323.303 369.14 324.033 366.733 324.714 364.314C326.107 359.485 327.463 354.644 328.888 349.825C334.714 330.58 340.793 311.413 347.269 292.374C350.58 282.88 353.809 273.356 357.185 263.883L359.698 256.773L362.271 249.683C363.982 244.955 365.696 240.228 367.456 235.518C370.896 226.067 374.403 216.64 377.988 207.242C381.523 197.825 385.148 188.438 388.8 179.069L387.999 178.736C379.995 197.218 372.591 215.943 365.384 234.744C363.579 239.443 361.851 244.172 360.107 248.894L357.494 255.978L354.938 263.084C353.254 267.828 351.504 272.549 349.872 277.311L344.977 291.599C341.837 301.166 338.614 310.706 335.65 320.332C334.161 325.141 332.58 329.922 331.19 334.764L326.952 349.262C321.497 368.651 316.528 388.186 312.557 407.934" fill="#BDD0FB"/>
<path d="M328.972 379.483C338.968 362.658 353.484 350.752 368.661 345.278C382.229 340.384 393.49 330.498 399.831 317.548C400.498 316.186 401.228 314.836 402.021 313.5C414.044 293.266 436.164 284.207 451.426 293.27C466.687 302.332 469.314 326.083 457.29 346.318C454.831 350.456 451.951 354.125 448.794 357.266C438.716 367.293 432.559 380.682 432.082 394.889" fill="#BDD0FB"/>
<path d="M378.537 388.364C383.043 381.932 387.494 375.462 392.043 369.062L395.444 364.252L398.883 359.47C401.175 356.28 403.466 353.092 405.79 349.925C410.384 343.554 415.023 337.216 419.712 330.914C424.369 324.589 429.088 318.305 433.823 312.04L433.293 311.619C423.353 323.809 413.812 336.307 404.4 348.905C402.046 352.054 399.743 355.239 397.428 358.417L393.958 363.184L390.528 367.981C388.254 371.189 385.936 374.364 383.698 377.595" fill="url(#paint2_linear_356_3181)"/>
<path d="M316.874 299.039L303.375 157.632C270.953 145.654 230.072 159.041 230.072 159.041L223.759 299.037H316.874V299.039Z" fill="white"/>
<path d="M252.626 133.678L252.018 153.75C251.958 155.736 253.19 157.523 255.063 158.185C260.196 159.995 270.825 162.747 280.898 159.142C282.93 158.414 284.154 156.336 283.839 154.2L280.82 133.678H252.626Z" fill="url(#paint3_linear_356_3181)"/>
<path d="M258.346 299.038C261.919 295.469 263.904 292.911 263.904 292.911L259.674 280.934C259.674 280.934 225.138 300.662 213.86 290.797C202.583 280.934 221.614 223.158 221.614 223.158L194.125 173.133C194.125 173.133 171.053 250.029 178.811 292.05C179.558 296.094 183.087 299.038 187.201 299.038H258.348H258.346Z" fill="#272454"/>
<path d="M252.259 145.792L267.952 160.832L256.62 168.559L246.603 155.08L252.259 145.792Z" fill="white"/>
<path d="M282.312 145.792L266.62 160.832L277.953 168.559L287.971 155.08L282.312 145.792Z" fill="white"/>
<path d="M242.357 97.0403C242.357 97.0403 245.881 132.975 253.635 142.132C253.635 142.132 276.894 144.246 285.353 139.315C285.353 139.315 291.344 121.349 290.639 97.3929C290.639 97.3929 291.794 75.5936 267.732 73.79C239.538 71.676 242.359 97.0403 242.359 97.0403H242.357Z" fill="url(#paint4_linear_356_3181)"/>
<path d="M288.172 108.313C288.172 108.313 290.287 101.971 293.811 101.971C297.335 101.971 293.107 118.881 288.172 118.881V108.313Z" fill="url(#paint5_linear_356_3181)"/>
<path d="M245.566 109.98C245.566 109.98 242.615 103.983 239.122 104.457C235.631 104.932 242.102 121.117 246.991 120.453L245.566 109.98Z" fill="url(#paint6_linear_356_3181)"/>
<path d="M244.791 115.999C244.791 115.999 245.581 137.463 255.025 148.348C255.891 149.348 257.144 149.929 258.466 149.993C263.287 150.225 275.61 150.64 282.557 149.255C284.286 148.911 285.71 147.692 286.279 146.023C287.988 141.017 290.953 133.123 289.933 115.008L284.265 128.51C280.067 139.668 277.786 126.123 275.837 126.281H263.15C261.813 126.388 260.332 134.735 255.376 132.29L244.791 115.999Z" fill="#1E1E1E"/>
<path d="M281.122 88.5846C281.122 88.5846 263.164 107.046 243.598 106.975C243.598 106.975 232.49 77.3112 254.339 72.3797C276.189 67.4482 276.894 73.7884 276.894 73.7884C276.894 73.7884 302.041 67.4872 290.675 103.74L281.124 88.5846H281.122Z" fill="#1E1E1E"/>
<path d="M287.078 299.038H352.516C355.462 299.038 358.201 297.52 359.761 295.023C387.955 249.931 347.78 175.95 347.78 175.95L326.634 231.612C326.634 231.612 344.96 249.931 335.093 278.818C325.225 307.705 285.049 285.16 285.049 285.16L286.459 298.547C286.459 298.547 286.676 298.726 287.078 299.038Z" fill="#272454"/>
<path d="M265.631 162.116L259.776 166.099L263.903 174.122H270.631L275.129 166.664L267.467 161.424L265.631 162.116Z" fill="url(#paint7_linear_356_3181)"/>
<path d="M263.904 174.123L259.336 250.135L270.952 271.132L282.644 250.892L270.632 174.123H263.904Z" fill="url(#paint8_linear_356_3181)"/>
<path d="M214.735 223.091C219.735 235.211 222.122 248.249 221.742 261.355L220.65 299.038H273.647L270.952 245.355L246.601 155.085C224.045 158.607 194.124 173.132 194.124 173.132L214.733 223.091H214.735Z" fill="#272454"/>
<path d="M322.197 299.039L323.814 267.776C323.814 251.771 326.547 235.882 331.891 220.795L347.779 175.953C327.338 157.634 287.088 153.637 287.088 153.637L270.952 245.356V299.039H322.197Z" fill="#272454"/>
<path d="M266.487 242.198C266.378 242.198 266.269 242.153 266.193 242.063L244.496 217.05C244.449 216.996 244.418 216.93 244.405 216.857L242.218 203.45L234.189 201.835C234.011 201.799 233.883 201.648 233.876 201.467L232.15 159.024C232.142 158.808 232.309 158.627 232.524 158.618C232.748 158.61 232.921 158.777 232.93 158.991L234.645 201.129L242.639 202.738C242.799 202.771 242.921 202.897 242.948 203.058L245.161 216.623L266.784 241.553C266.926 241.716 266.908 241.963 266.745 242.104C266.672 242.167 266.581 242.2 266.49 242.2L266.487 242.198Z" fill="#91B3FA"/>
<path d="M273.764 242.199C273.673 242.199 273.582 242.168 273.509 242.103C273.346 241.96 273.328 241.711 273.47 241.549L295.093 216.407L297.306 202.727C297.332 202.565 297.455 202.436 297.614 202.404L305.608 200.782L307.323 158.287C307.331 158.069 307.496 157.902 307.73 157.91C307.944 157.92 308.112 158.102 308.104 158.319L306.377 201.124C306.371 201.306 306.241 201.457 306.065 201.492L298.035 203.121L295.849 216.641C295.838 216.713 295.807 216.781 295.76 216.836L274.063 242.062C273.985 242.152 273.877 242.199 273.769 242.199H273.764Z" fill="#91B3FA"/>
<path d="M160.874 308.35L166.778 321.788H373.076L381.154 308.35H160.874Z" fill="url(#paint9_linear_356_3181)"/>
<path d="M343.406 484.644L359.561 321.789H182.467L198.002 484.644" fill="url(#paint10_linear_356_3181)"/>
<path d="M342.894 267.865C341.863 267.865 340.743 267.03 340.743 266.002V245.375C340.743 242.332 339.461 239.528 336.902 237.877L332.019 234.646C331.155 234.089 330.968 232.934 331.525 232.071C332.084 231.207 333.266 230.955 334.134 231.517L339.196 234.747C342.822 237.087 345.044 241.061 345.044 245.375V266.002C345.044 267.03 343.923 267.865 342.894 267.865Z" fill="url(#paint11_linear_356_3181)"/>
<path d="M332.939 221.624C337.208 225.304 337.686 231.747 334.004 236.016C330.322 240.283 323.877 240.76 319.607 237.08L301.706 221.648C297.437 217.968 296.959 211.526 300.641 207.257C304.323 202.99 310.768 202.512 315.038 206.193L332.939 221.624Z" fill="url(#paint12_linear_356_3181)"/>
<path d="M346.72 259.977H339.47C338.383 259.977 337.517 260.671 337.517 261.758V277.714H349.345V261.758C349.345 260.671 347.806 259.977 346.72 259.977Z" fill="url(#paint13_linear_356_3181)"/>
<path d="M349.206 275.564H335.742C333.968 275.564 332.14 277.378 332.14 279.15V282.015H352.034V279.15C352.034 277.378 350.979 275.564 349.206 275.564Z" fill="url(#paint14_linear_356_3181)"/>
<path d="M199.333 267.865C200.363 267.865 201.483 267.03 201.483 266.002V245.375C201.483 242.332 202.883 239.528 205.44 237.877L210.38 234.646C211.244 234.089 211.461 232.934 210.903 232.071C210.344 231.207 209.177 230.955 208.309 231.517L203.138 234.747C199.512 237.087 197.181 241.061 197.181 245.375V266.002C197.181 267.03 198.302 267.865 199.331 267.865H199.333Z" fill="url(#paint15_linear_356_3181)"/>
<path d="M209.52 221.624C205.251 225.304 204.773 231.747 208.455 236.016C212.137 240.283 218.582 240.76 222.852 237.08L240.753 221.648C245.022 217.968 245.5 211.526 241.818 207.257C238.136 202.99 231.691 202.512 227.421 206.193L209.52 221.624Z" fill="url(#paint16_linear_356_3181)"/>
<path d="M195.738 259.977H202.988C204.076 259.977 204.171 260.671 204.171 261.758V277.714H192.343V261.758C192.343 260.671 194.653 259.977 195.738 259.977Z" fill="url(#paint17_linear_356_3181)"/>
<path d="M193.254 275.564H206.717C208.491 275.564 209.549 277.378 209.549 279.15V282.015H189.117V279.15C189.117 277.378 191.48 275.564 193.254 275.564Z" fill="url(#paint18_linear_356_3181)"/>
<path d="M160.409 309.425L154.505 282.014H387.523L382.552 309.425H160.409Z" fill="url(#paint19_linear_356_3181)"/>
<path d="M367.608 62.9829C339.032 62.9829 315.865 80.6356 315.865 102.409C315.865 108.447 317.648 114.167 320.833 119.282C322.408 121.81 322.936 124.883 322.205 127.772C320.779 133.397 321.527 140.667 327.947 149.293C329.167 150.933 331.754 150.317 332.128 148.309C332.596 145.792 333.404 142.675 334.787 139.666C336.078 136.86 339.363 135.539 342.201 136.761C349.706 139.991 358.375 141.835 367.609 141.835C396.185 141.835 419.351 124.182 419.351 102.409C419.351 80.6356 396.185 62.9829 367.609 62.9829H367.608Z" fill="#91B3FA"/>
<g opacity="0.68">
<path d="M354.866 112.373C355.298 109.713 353.491 107.207 350.83 106.775C348.169 106.343 345.662 108.149 345.23 110.81C344.798 113.47 346.605 115.976 349.266 116.408C351.927 116.84 354.434 115.033 354.866 112.373Z" fill="white"/>
<path d="M371.059 115.036C372.965 113.13 372.965 110.041 371.059 108.135C369.153 106.23 366.062 106.23 364.156 108.135C362.249 110.041 362.249 113.13 364.156 115.036C366.062 116.941 369.153 116.941 371.059 115.036Z" fill="white"/>
<path d="M388.633 115.036C390.539 113.13 390.539 110.041 388.633 108.135C386.727 106.23 383.636 106.23 381.73 108.135C379.824 110.041 379.824 113.13 381.73 115.036C383.636 116.941 386.727 116.941 388.633 115.036Z" fill="white"/>
</g>
<path d="M407.44 38C436.016 38 459.182 55.6527 459.182 77.4261C459.182 101.447 428.435 116.852 407.44 116.852C378.864 116.852 355.698 99.1994 355.698 77.4261C355.698 55.6527 378.862 38 407.44 38Z" fill="url(#paint20_linear_356_3181)"/>
<path opacity="0.64" d="M431.219 106.733C424.451 110.233 416.834 112.087 409.176 112.42C401.517 112.742 393.742 111.601 386.545 108.803C385.639 108.472 384.757 108.077 383.874 107.689C383.435 107.489 383.004 107.268 382.57 107.06C382.135 106.852 381.702 106.636 381.281 106.398C379.565 105.51 377.931 104.466 376.341 103.366C373.198 101.114 370.319 98.4494 367.99 95.3378C365.644 92.2473 363.866 88.705 362.897 84.9516C361.98 81.1932 361.793 77.2464 362.588 73.4978L363.12 73.5823C362.912 75.4444 362.904 77.3146 363.069 79.1638C363.253 81.0112 363.63 82.8295 364.181 84.5892C364.706 86.3571 365.47 88.0453 366.35 89.6588C367.226 91.274 368.242 92.816 369.409 94.2394C371.712 97.1105 374.477 99.6015 377.517 101.694C380.55 103.799 383.858 105.511 387.309 106.853C394.21 109.568 401.683 110.758 409.131 110.695C416.579 110.579 424.054 109.179 430.993 106.247L431.223 106.733H431.219Z" fill="white"/>
<g opacity="0.68">
<path d="M398.415 79.5357C399.034 76.9129 397.409 74.2849 394.785 73.6658C392.162 73.0468 389.533 74.6711 388.913 77.2939C388.294 79.9168 389.919 82.5448 392.543 83.1638C395.167 83.7829 397.796 82.1585 398.415 79.5357Z" fill="white"/>
<path d="M414.703 81.8732C416.609 79.9676 416.609 76.8781 414.703 74.9725C412.797 73.0669 409.706 73.0669 407.8 74.9725C405.893 76.8781 405.893 79.9676 407.8 81.8732C409.706 83.7788 412.797 83.7787 414.703 81.8732Z" fill="white"/>
<path d="M431.835 82.2786C433.96 80.6202 434.338 77.5539 432.679 75.4297C431.02 73.3055 427.953 72.9279 425.828 74.5863C423.703 76.2447 423.325 79.3111 424.984 81.4353C426.643 83.5594 429.71 83.937 431.835 82.2786Z" fill="white"/>
</g>
</g>
<defs>
<linearGradient id="paint0_linear_356_3181" x1="508.069" y1="544.736" x2="184.79" y2="195.673" gradientUnits="userSpaceOnUse">
<stop stop-color="#DAE3FE"/>
<stop offset="1" stop-color="#E9EFFD"/>
</linearGradient>
<linearGradient id="paint1_linear_356_3181" x1="108.421" y1="343.24" x2="159.795" y2="343.24" gradientUnits="userSpaceOnUse">
<stop stop-color="#DAE3FE"/>
<stop offset="1" stop-color="#E9EFFD"/>
</linearGradient>
<linearGradient id="paint2_linear_356_3181" x1="378.537" y1="349.992" x2="433.823" y2="349.992" gradientUnits="userSpaceOnUse">
<stop stop-color="#DAE3FE"/>
<stop offset="1" stop-color="#E9EFFD"/>
</linearGradient>
<linearGradient id="paint3_linear_356_3181" x1="263.523" y1="184.89" x2="268.283" y2="144.157" gradientUnits="userSpaceOnUse">
<stop stop-color="#FEBBBA"/>
<stop offset="1" stop-color="#FF928E"/>
</linearGradient>
<linearGradient id="paint4_linear_356_3181" x1="267.963" y1="139.295" x2="266.142" y2="86.8149" gradientUnits="userSpaceOnUse">
<stop stop-color="#FEBBBA"/>
<stop offset="1" stop-color="#FF928E"/>
</linearGradient>
<linearGradient id="paint5_linear_356_3181" x1="292.568" y1="138.442" x2="290.748" y2="85.9612" gradientUnits="userSpaceOnUse">
<stop stop-color="#FEBBBA"/>
<stop offset="1" stop-color="#FF928E"/>
</linearGradient>
<linearGradient id="paint6_linear_356_3181" x1="243.488" y1="140.146" x2="241.667" y2="87.6659" gradientUnits="userSpaceOnUse">
<stop stop-color="#FEBBBA"/>
<stop offset="1" stop-color="#FF928E"/>
</linearGradient>
<linearGradient id="paint7_linear_356_3181" x1="272.761" y1="155.669" x2="243.804" y2="214.15" gradientUnits="userSpaceOnUse">
<stop stop-color="#FF928E"/>
<stop offset="1" stop-color="#FE7062"/>
</linearGradient>
<linearGradient id="paint8_linear_356_3181" x1="295.788" y1="167.071" x2="266.831" y2="225.553" gradientUnits="userSpaceOnUse">
<stop stop-color="#FF928E"/>
<stop offset="1" stop-color="#FE7062"/>
</linearGradient>
<linearGradient id="paint9_linear_356_3181" x1="270.622" y1="271.414" x2="271.437" y2="348.149" gradientUnits="userSpaceOnUse">
<stop stop-color="#09005D"/>
<stop offset="1" stop-color="#1A0F91"/>
</linearGradient>
<linearGradient id="paint10_linear_356_3181" x1="271.585" y1="313.13" x2="259.765" y2="492.647" gradientUnits="userSpaceOnUse">
<stop stop-color="#09005D"/>
<stop offset="1" stop-color="#1A0F91"/>
</linearGradient>
<linearGradient id="paint11_linear_356_3181" x1="338.089" y1="231.194" x2="338.259" y2="267.888" gradientUnits="userSpaceOnUse">
<stop stop-color="#FF928E"/>
<stop offset="1" stop-color="#FE7062"/>
</linearGradient>
<linearGradient id="paint12_linear_356_3181" x1="282.926" y1="192.232" x2="337.634" y2="238.98" gradientUnits="userSpaceOnUse">
<stop stop-color="#FF928E"/>
<stop offset="1" stop-color="#FE7062"/>
</linearGradient>
<linearGradient id="paint13_linear_356_3181" x1="343.342" y1="250.601" x2="343.477" y2="279.653" gradientUnits="userSpaceOnUse">
<stop stop-color="#FF928E"/>
<stop offset="1" stop-color="#FE7062"/>
</linearGradient>
<linearGradient id="paint14_linear_356_3181" x1="342.047" y1="272.102" x2="342.097" y2="282.762" gradientUnits="userSpaceOnUse">
<stop stop-color="#FF928E"/>
<stop offset="1" stop-color="#FE7062"/>
</linearGradient>
<linearGradient id="paint15_linear_356_3181" x1="223.684" y1="213.429" x2="197.172" y2="257.87" gradientUnits="userSpaceOnUse">
<stop stop-color="#FF928E"/>
<stop offset="1" stop-color="#FE7062"/>
</linearGradient>
<linearGradient id="paint16_linear_356_3181" x1="259.526" y1="192.254" x2="204.817" y2="239.002" gradientUnits="userSpaceOnUse">
<stop stop-color="#FF928E"/>
<stop offset="1" stop-color="#FE7062"/>
</linearGradient>
<linearGradient id="paint17_linear_356_3181" x1="198.346" y1="250.595" x2="198.211" y2="279.653" gradientUnits="userSpaceOnUse">
<stop stop-color="#FF928E"/>
<stop offset="1" stop-color="#FE7062"/>
</linearGradient>
<linearGradient id="paint18_linear_356_3181" x1="199.372" y1="272.093" x2="199.321" y2="282.764" gradientUnits="userSpaceOnUse">
<stop stop-color="#FF928E"/>
<stop offset="1" stop-color="#FE7062"/>
</linearGradient>
<linearGradient id="paint19_linear_356_3181" x1="293.302" y1="126.984" x2="267.513" y2="306.505" gradientUnits="userSpaceOnUse">
<stop stop-color="#09005D"/>
<stop offset="1" stop-color="#1A0F91"/>
</linearGradient>
<linearGradient id="paint20_linear_356_3181" x1="442.89" y1="0.0103401" x2="363.363" y2="173.102" gradientUnits="userSpaceOnUse">
<stop stop-color="#FEBBBA"/>
<stop offset="1" stop-color="#FF928E"/>
</linearGradient>
<clipPath id="clip0_356_3181">
<rect width="444" height="447.16" fill="white" transform="translate(40 38)"/>
</clipPath>
</defs>
</svg>
