<svg width="643" height="475" viewBox="0 0 643 475" fill="none" xmlns="http://www.w3.org/2000/svg">
<path d="M218.224 218.806C258.35 178.648 258.35 113.539 218.224 73.3808C178.098 33.2228 113.04 33.2228 72.9142 73.3808C32.788 113.539 32.788 178.648 72.9142 218.806C113.04 258.964 178.098 258.964 218.224 218.806Z" fill="#C1152E"/>
<path d="M569.443 401.855C609.569 361.697 609.569 296.588 569.443 256.43C529.317 216.272 464.259 216.272 424.133 256.43C384.007 296.588 384.007 361.697 424.133 401.855C464.259 442.013 529.317 442.012 569.443 401.855Z" fill="#C1152E"/>
<path d="M284.7 17.1115C253.818 0.396109 214.636 7.00007 188.051 29.204C162.829 50.2633 152.887 81.4046 157.286 113.426C158.459 121.909 160.058 130.391 160.072 138.962C160.087 156.338 150.321 172.906 139.367 185.821C127.504 199.806 113.28 212.075 97.6483 221.57C83.0138 230.463 68.2326 239.269 58.9504 254.208C43.964 278.335 36.2654 305.939 38.8023 334.468C41.6031 365.859 55.4751 397.191 82.2219 415.169C144.661 457.155 239.066 408.198 284.436 360.972C303.485 341.146 323.031 315.566 349.925 306.306C382.361 295.138 420.253 313.233 451.648 321.348C504.614 335.041 562.859 323.579 586.438 268.385C597.832 241.734 592.186 212.295 570.704 192.777C558.723 181.902 542.505 177.001 526.551 174.344C503.001 170.441 478.967 170.764 455.255 167.99C424.886 164.438 395.969 153.916 374.12 131.815C340.804 98.12 329.308 43.5126 287.237 18.5937C286.401 18.0947 285.551 17.6104 284.686 17.1555L284.7 17.1115Z" stroke="white" stroke-linecap="round" stroke-linejoin="round"/>
<path d="M200.412 24.948C200.412 22.0863 198.096 19.7822 195.251 19.7822C192.406 19.7822 190.089 22.1009 190.089 24.948C190.089 27.795 192.406 30.1138 195.251 30.1138C198.096 30.1138 200.412 27.795 200.412 24.948Z" fill="#FEC10F"/>
<path d="M557.785 181.007C557.785 178.145 555.468 175.841 552.623 175.841C549.778 175.841 547.461 178.16 547.461 181.007C547.461 183.854 549.778 186.173 552.623 186.173C555.468 186.173 557.785 183.854 557.785 181.007Z" fill="#14ACC3"/>
<path d="M576.452 296.547C576.452 293.685 574.135 291.381 571.29 291.381C568.446 291.381 566.129 293.7 566.129 296.547C566.129 299.394 568.446 301.713 571.29 301.713C574.135 301.713 576.452 299.394 576.452 296.547Z" fill="#F9F9F9"/>
<path d="M316.755 38.0974C316.755 35.2357 314.439 32.9316 311.594 32.9316C308.749 32.9316 306.432 35.2504 306.432 38.0974C306.432 40.9444 308.749 43.2632 311.594 43.2632C314.439 43.2632 316.755 40.9444 316.755 38.0974Z" fill="#EF4323"/>
<path d="M43.9786 329.273C43.9786 326.411 41.6617 324.107 38.8169 324.107C35.9722 324.107 33.6553 326.426 33.6553 329.273C33.6553 332.12 35.9722 334.439 38.8169 334.439C41.6617 334.439 43.9786 332.12 43.9786 329.273Z" fill="#EF4323"/>
<g style="mix-blend-mode:overlay">
<path d="M257.821 77.9409L253.936 81.8299L250.05 77.9409C249.184 77.075 247.791 77.075 246.941 77.9409C246.076 78.8067 246.076 80.2009 246.941 81.0521L250.827 84.9411L246.941 88.8301C246.076 89.6959 246.076 91.0901 246.941 91.9413C247.806 92.8071 249.199 92.8071 250.05 91.9413L253.936 88.0523L257.821 91.9413C258.687 92.8071 260.08 92.8071 260.93 91.9413C261.795 91.0754 261.795 89.6813 260.93 88.8301L257.044 84.9411L260.93 81.0521C261.795 80.1862 261.795 78.7921 260.93 77.9409C260.065 77.0897 258.672 77.075 257.821 77.9409Z" fill="#2B2B2A"/>
<path d="M557.844 110.814L553.958 114.703L550.072 110.814C549.207 109.948 547.814 109.948 546.963 110.814C546.098 111.68 546.098 113.074 546.963 113.925L550.849 117.814L546.963 121.703C546.098 122.569 546.098 123.963 546.963 124.814C547.828 125.68 549.221 125.68 550.072 124.814L553.958 120.925L557.844 124.814C558.709 125.68 560.102 125.68 560.952 124.814C561.818 123.948 561.818 122.554 560.952 121.703L557.066 117.814L560.952 113.925C561.818 113.059 561.818 111.665 560.952 110.814C560.087 109.948 558.694 109.948 557.844 110.814Z" fill="#2B2B2A"/>
<path d="M86.1813 120.045L82.2954 123.934L78.4095 120.045C77.5443 119.179 76.1512 119.179 75.3007 120.045C74.4356 120.911 74.4356 122.305 75.3007 123.156L79.1867 127.045L75.3007 130.934C74.4356 131.8 74.4356 133.194 75.3007 134.045C76.1659 134.911 77.559 134.911 78.4095 134.045L82.2954 130.156L86.1813 134.045C87.0465 134.911 88.4395 134.911 89.29 134.045C90.1552 133.179 90.1552 131.785 89.29 130.934L85.4041 127.045L89.29 123.156C90.1552 122.29 90.1552 120.896 89.29 120.045C88.4249 119.179 87.0318 119.179 86.1813 120.045Z" fill="#2B2B2A"/>
<path d="M514.013 207.305L510.128 203.416L514.013 199.527C514.879 198.661 514.879 197.267 514.013 196.416C513.148 195.565 511.755 195.55 510.905 196.416L507.019 200.305L503.133 196.416C502.268 195.55 500.875 195.55 500.024 196.416C499.159 197.282 499.159 198.676 500.024 199.527L503.91 203.416L500.024 207.305C499.159 208.171 499.159 209.565 500.024 210.416C500.889 211.268 502.282 211.282 503.133 210.416L507.019 206.527L510.905 210.416C511.77 211.282 513.163 211.282 514.013 210.416C514.879 209.551 514.879 208.156 514.013 207.305Z" fill="#2B2B2A"/>
<path d="M385.353 43.9087L381.467 47.7977L377.581 43.9087C376.716 43.0428 375.323 43.0428 374.472 43.9087C373.607 44.7745 373.607 46.1687 374.472 47.0199L378.358 50.9089L374.472 54.7979C373.607 55.6637 373.607 57.0579 374.472 57.9091C375.338 58.7602 376.731 58.7749 377.581 57.9091L381.467 54.0201L385.353 57.9091C386.218 58.7749 387.611 58.7749 388.462 57.9091C389.312 57.0432 389.327 55.649 388.462 54.7979L384.576 50.9089L388.462 47.0199C389.327 46.154 389.327 44.7598 388.462 43.9087C387.596 43.0428 386.203 43.0428 385.353 43.9087Z" fill="#2B2B2A"/>
<path d="M52.997 232.342L49.1111 236.231L45.2251 232.342C44.36 231.476 42.9669 231.476 42.1164 232.342C41.2512 233.208 41.2512 234.602 42.1164 235.453L46.0023 239.342L42.1164 243.231C41.2512 244.097 41.2512 245.491 42.1164 246.342C42.9816 247.193 44.3746 247.208 45.2251 246.342L49.1111 242.453L52.997 246.342C53.8621 247.208 55.2552 247.208 56.1057 246.342C56.9709 245.476 56.9709 244.082 56.1057 243.231L52.2198 239.342L56.1057 235.453C56.9709 234.587 56.9709 233.193 56.1057 232.342C55.2405 231.476 53.8475 231.476 52.997 232.342Z" fill="#2B2B2A"/>
</g>
<g style="mix-blend-mode:multiply">
<path d="M544.529 454.866C544.529 458.241 525.187 460.985 501.329 460.985C477.471 460.985 458.129 458.241 458.129 454.866C458.129 451.49 477.471 448.746 501.329 448.746C525.187 448.746 544.529 451.49 544.529 454.866Z" fill="#E6E3DA"/>
</g>
<path d="M498.484 398.189C498.367 398.101 498.25 398.013 498.147 397.91C471.913 376.44 498.484 260.827 498.484 260.827C517.694 391.306 498.484 398.189 498.484 398.189Z" fill="#86D342"/>
<g style="mix-blend-mode:multiply">
<path d="M498.484 398.189C498.367 398.101 498.25 398.013 498.147 397.91L498.484 260.827C517.694 391.306 498.484 398.189 498.484 398.189Z" fill="#86D342"/>
</g>
<path d="M560.952 324.915C560.952 324.915 526.492 400.596 499.393 398.057C499.115 398.042 498.836 398.013 498.557 397.969C498.557 397.969 488.938 383.382 560.952 324.915Z" fill="#67AA26"/>
<g style="mix-blend-mode:multiply">
<path d="M560.952 324.915C560.952 324.915 526.492 400.596 499.393 398.057L560.952 324.915Z" fill="#67AA26"/>
</g>
<path d="M499.657 397.969C499.085 398.057 498.528 398.116 497.942 398.116C470.975 398.967 437.263 324.915 437.263 324.915C509.277 383.382 499.657 397.969 499.657 397.969Z" fill="#447510"/>
<g style="mix-blend-mode:multiply">
<path d="M499.657 397.969C499.085 398.057 498.528 398.116 497.942 398.116L437.263 324.915C509.277 383.382 499.657 397.969 499.657 397.969Z" fill="#447510"/>
</g>
<path d="M539.059 286.788C539.059 286.788 492.105 376.719 499.701 398.365C499.701 398.365 511.388 396.193 539.059 286.788Z" fill="#9AF23D"/>
<path d="M458.745 286.186C458.745 286.186 478.879 385.627 498.396 397.661C498.396 397.661 506.109 388.606 458.745 286.186Z" fill="#67AA26"/>
<path d="M534 396.707H468.658V403.545H534V396.707Z" fill="#96190F"/>
<path d="M474.553 396.707H530.246C530.217 396.619 530.217 396.531 530.173 396.428C529.748 395.063 528.384 392.466 527.006 391.923C526.756 392.451 526.228 392.642 525.935 393.023C525.378 391.893 524.659 392.466 523.765 392.099C523.002 391.791 522.621 390.704 521.404 390.925C520.363 391.101 519.835 392.201 518.999 392.363C518.134 392.524 517.929 391.541 516.946 392.319C516.052 393.023 516.653 393.684 516.228 394.447C515.773 395.254 515.084 395.665 515.128 394.006C513.544 393.977 513.793 391.688 512.298 391.159C512.034 391.071 510.875 391.35 510.611 391.394C509.526 391.57 508.822 391.306 508.221 392.451C507.693 393.419 508.426 394.843 508.001 395.782C507.341 397.264 506.212 396.34 504.643 396.017C503.015 395.679 501.27 395.327 499.599 395.68C498.939 395.826 498.308 396.311 497.634 396.252C496.71 396.164 496.05 395.151 495.112 395.004C493.616 394.755 492.56 395.342 490.932 394.682C489.393 394.065 489.422 393.698 488.542 392.055C487.897 390.822 487.369 389.178 485.712 389.765C484.055 390.367 484.187 392.818 482.061 390.499C480.961 391.042 481.372 392.377 480.448 393.126C478.791 392.744 477.823 390.514 476.151 392.612C476.049 392.524 475.975 392.407 475.931 392.275C473.908 392.612 473.864 393.757 474.362 395.489C474.421 395.914 474.48 396.311 474.553 396.677V396.707Z" fill="#BD651A"/>
<path d="M532.827 403.56L530.231 434.716L528.692 453.207C528.692 455.658 516.433 457.654 501.329 457.654C486.225 457.654 473.966 455.658 473.966 453.207L469.831 403.56H532.827Z" fill="#EF4323"/>
<g style="mix-blend-mode:multiply">
<path d="M532.827 403.56L529.073 448.746L511.3 403.56H532.827Z" fill="#EF4323"/>
</g>
<path d="M475.536 174.007V380.872C475.536 391.086 467.28 399.363 457.074 399.363H156.582C146.391 399.363 138.121 391.086 138.121 380.872V174.007C138.121 163.807 146.391 155.53 156.582 155.53H457.059C467.265 155.53 475.521 163.807 475.521 174.007H475.536Z" fill="black"/>
<path d="M458.32 164.335H155.336C150.687 164.335 146.919 168.107 146.919 172.759V333.191C146.919 337.844 150.687 341.615 155.336 341.615H458.32C462.969 341.615 466.737 337.844 466.737 333.191V172.759C466.737 168.107 462.969 164.335 458.32 164.335Z" fill="#272454"/>
<path d="M475.536 351.609V380.872C475.536 391.086 467.28 399.363 457.074 399.363H156.582C146.391 399.363 138.121 391.086 138.121 380.872V351.609H475.521H475.536Z" fill="#CBCACC"/>
<path d="M371.848 448.746H241.809C236.5 448.746 232.204 444.446 232.204 439.134H381.467C381.467 444.446 377.171 448.746 371.862 448.746H371.848Z" fill="#D3D2D6"/>
<path d="M381.467 439.119H232.189L253.54 422.536C255.681 420.878 257.191 418.588 257.895 416.035C258.188 414.949 258.35 413.833 258.35 412.689V399.363H355.307V412.689C355.307 413.833 355.468 414.949 355.761 416.035C356.465 418.588 357.976 420.878 360.117 422.536L381.467 439.119Z" fill="#A5A5A5"/>
<path d="M381.467 439.119H232.189L253.54 422.535C255.681 420.877 257.191 418.588 257.895 416.034H355.761C356.465 418.588 357.976 420.877 360.117 422.535L381.467 439.119Z" fill="#757575"/>
<path d="M306.828 157.585C305.611 157.585 304.614 158.583 304.614 159.801C304.614 161.019 305.611 162.017 306.828 162.017C308.045 162.017 309.042 161.019 309.042 159.801C309.042 158.583 308.045 157.585 306.828 157.585Z" fill="#6FFF40"/>
<path d="M301.813 181.932H210.545C207.776 181.932 205.53 184.179 205.53 186.951V315.258C205.53 318.03 207.776 320.277 210.545 320.277H301.813C304.583 320.277 306.828 318.03 306.828 315.258V186.951C306.828 184.179 304.583 181.932 301.813 181.932Z" fill="#FFEEA9"/>
<path d="M268.145 194.641H213.977V200.027H268.145V194.641Z" fill="#CEB752"/>
<path d="M299.819 216.727H213.977V222.113H299.819V216.727Z" fill="#CEB752"/>
<path d="M299.819 229.011H213.977V234.397H299.819V229.011Z" fill="#CEB752"/>
<path d="M299.819 241.309H213.977V246.694H299.819V241.309Z" fill="#CEB752"/>
<path d="M299.819 253.592H213.977V258.978H299.819V253.592Z" fill="#CEB752"/>
<path d="M299.819 265.89H213.977V271.276H299.819V265.89Z" fill="#CEB752"/>
<path d="M299.819 296.327H213.977V301.713H299.819V296.327Z" fill="#CEB752"/>
<path d="M403.111 181.932H311.843C309.073 181.932 306.828 184.179 306.828 186.951V315.258C306.828 318.03 309.073 320.277 311.843 320.277H403.111C405.881 320.277 408.126 318.03 408.126 315.258V186.951C408.126 184.179 405.881 181.932 403.111 181.932Z" fill="#EFDC8E"/>
<path d="M369.443 194.641H315.274V200.027H369.443V194.641Z" fill="#CEB752"/>
<path d="M401.117 216.727H315.274V222.113H401.117V216.727Z" fill="#CEB752"/>
<path d="M401.117 229.011H315.274V234.397H401.117V229.011Z" fill="#CEB752"/>
<path d="M401.117 241.309H315.274V246.694H401.117V241.309Z" fill="#CEB752"/>
<path d="M401.117 253.592H315.274V258.978H401.117V253.592Z" fill="#CEB752"/>
<path d="M401.117 265.89H315.274V271.276H401.117V265.89Z" fill="#CEB752"/>
<path d="M401.117 296.327H315.274V301.713H401.117V296.327Z" fill="#CEB752"/>
<path d="M214.856 258.978C214.856 253.827 210.677 249.659 205.545 249.659C200.413 249.659 196.233 253.841 196.233 258.978C196.233 264.114 200.413 268.297 205.545 268.297C210.677 268.297 214.856 264.114 214.856 258.978Z" fill="white"/>
<path d="M208.375 265.64C207.964 265.64 207.568 265.493 207.231 265.215L201.542 260.298C201.16 259.961 200.94 259.477 200.94 258.978C200.94 258.479 201.16 257.98 201.542 257.657L207.231 252.741C207.964 252.109 209.064 252.183 209.695 252.917C210.325 253.65 210.252 254.751 209.519 255.382L205.369 258.978L209.519 262.573C210.252 263.204 210.325 264.305 209.695 265.039C209.343 265.435 208.859 265.64 208.375 265.64Z" fill="#C1152E"/>
<path d="M408.126 268.297C413.269 268.297 417.438 264.124 417.438 258.978C417.438 253.831 413.269 249.659 408.126 249.659C402.983 249.659 398.814 253.831 398.814 258.978C398.814 264.124 402.983 268.297 408.126 268.297Z" fill="white"/>
<path d="M405.281 265.64C405.692 265.64 406.088 265.493 406.425 265.215L412.114 260.298C412.496 259.961 412.716 259.477 412.716 258.978C412.716 258.479 412.496 257.98 412.114 257.657L406.425 252.741C405.692 252.109 404.592 252.183 403.961 252.917C403.331 253.65 403.404 254.751 404.137 255.382L408.287 258.978L404.137 262.573C403.404 263.204 403.331 264.305 403.961 265.039C404.313 265.435 404.797 265.64 405.281 265.64Z" fill="#C1152E"/>
<g style="mix-blend-mode:overlay" opacity="0.34">
<path d="M146.919 228.232V329.141L311.594 164.335H210.751L146.919 228.232Z" fill="white"/>
</g>
<g style="mix-blend-mode:overlay" opacity="0.34">
<path d="M163.401 341.615H227.511L404.665 164.335H340.526L163.401 341.615Z" fill="white"/>
</g>
<g style="mix-blend-mode:multiply">
<path d="M128.398 458.124C190.474 458.124 240.797 453.925 240.797 448.746C240.797 443.567 190.474 439.369 128.398 439.369C66.3225 439.369 16 443.567 16 448.746C16 453.925 66.3225 458.124 128.398 458.124Z" fill="#E6E3DA"/>
</g>
<path d="M172.067 384.233V416.49H52.0584C47.366 416.49 43.1282 414.479 40.1807 411.265C37.5559 408.389 35.9282 404.558 35.9282 400.361C35.9282 396.164 37.5412 392.334 40.1661 389.472C40.3274 389.296 40.4887 389.12 40.65 388.958C43.5827 386.038 47.6006 384.233 52.0584 384.233H172.067Z" fill="#0D979E"/>
<path d="M111.022 389.472V411.265H40.1954C37.5559 408.389 35.9429 404.559 35.9429 400.361C35.9429 396.164 37.5412 392.349 40.1807 389.472H111.022Z" fill="#1BCFE2"/>
<path d="M172.067 389.472V411.265H104.452C103.25 411.265 102.077 411.074 100.992 410.708C99.0267 410.032 97.311 408.829 96.0353 407.259C94.9941 405.953 94.2023 404.397 93.8504 402.665C93.6744 401.932 93.6011 401.154 93.6011 400.361C93.6011 399.569 93.6744 398.806 93.8504 398.057C94.2023 396.34 94.9941 394.755 96.0499 393.435C96.2846 393.17 96.5192 392.906 96.7831 392.657C98.7481 390.69 101.476 389.472 104.467 389.472H172.082H172.067Z" fill="#F9F9F9"/>
<path d="M172.067 391.967V394.917L152.594 394.535L111.007 393.743L104.614 393.61L96.0352 393.434L104.687 393.258L111.007 393.141L153.18 392.334L172.067 391.967Z" fill="#CBCACC"/>
<path d="M172.067 396.575V399.524L151.347 399.143L111.007 398.38L103.631 398.248L93.8357 398.057L103.719 397.866L111.007 397.719L151.934 396.956L172.067 396.575Z" fill="#CBCACC"/>
<path d="M172.067 401.183V404.133L150.116 403.722L111.007 402.988L102.663 402.827L93.8357 402.665L102.737 402.489L111.007 402.328L150.687 401.579L172.067 401.183Z" fill="#CBCACC"/>
<path d="M172.067 405.791V408.741L148.884 408.286L111.007 407.552L101.695 407.376L96.0352 407.259L101.739 407.141L111.007 406.965L149.441 406.231L172.067 405.791Z" fill="#CBCACC"/>
<path d="M190.734 378.979H49.0964V384.218H190.734V378.979Z" fill="#FFC40E"/>
<path d="M190.734 351.947H49.0964V357.186H190.734V351.947Z" fill="#FFC40E"/>
<path d="M183.901 357.186H55.9443V378.979H183.901V357.186Z" fill="#F9F9F9"/>
<path d="M183.901 359.182V363.159L139.059 362.484L111.3 362.059L55.9443 361.222V361.105L111.682 360.268L137.109 359.887L183.901 359.182Z" fill="#CBCACC"/>
<path d="M183.901 363.805V367.752L142.564 367.151L110.318 366.681L55.9443 365.889V365.668L110.699 364.876L140.525 364.436L183.901 363.805Z" fill="#CBCACC"/>
<path d="M183.901 368.398V372.361L146.054 371.803L109.35 371.275L55.9443 370.497V370.277L109.731 369.484L143.927 368.985L183.901 368.398Z" fill="#CBCACC"/>
<path d="M183.901 373.006V376.969L149.529 376.455L108.382 375.839L55.9443 375.046V374.929L108.734 374.136L147.359 373.549L183.901 373.006Z" fill="#CBCACC"/>
<path d="M211.132 432.618C211.132 437.064 209.328 441.1 206.425 444.02C206.322 444.108 206.234 444.211 206.131 444.285C203.257 447.044 199.313 448.746 195.016 448.746H42.615V416.489H195.016C199.313 416.489 203.257 418.177 206.131 420.936C209.211 423.871 211.132 428.039 211.132 432.618Z" fill="#D3562E"/>
<path d="M211.132 432.618C211.132 437.064 209.328 441.1 206.425 444.021C206.322 444.109 206.234 444.211 206.131 444.285H93.5571V420.936H206.131C209.211 423.871 211.132 428.039 211.132 432.618Z" fill="#F1582E"/>
<g style="mix-blend-mode:overlay">
<path d="M145.027 444.285C143.825 447.117 142.637 448.746 142.637 448.746H129.63C130.657 447.22 131.507 445.723 132.226 444.285C137.461 433.777 135.217 425.617 132.739 420.936C131.228 418.06 129.63 416.489 129.63 416.489H142.637C143.546 418.001 144.294 419.483 144.91 420.936C145.027 421.215 145.144 421.508 145.247 421.787C149.001 431.326 147.021 439.515 145.027 444.285Z" fill="#FEC10F"/>
</g>
<g style="mix-blend-mode:overlay">
<path d="M194.092 444.285C192.89 447.117 191.702 448.746 191.702 448.746H178.695C179.722 447.22 180.572 445.723 181.291 444.285C186.526 433.777 184.282 425.617 181.804 420.936C180.294 418.06 178.695 416.489 178.695 416.489H191.702C192.611 418.001 193.359 419.483 193.975 420.936C198.184 430.842 196.145 439.368 194.092 444.285Z" fill="#FEC10F"/>
</g>
<path d="M122.196 432.618C122.196 433.395 122.122 434.173 121.961 434.922C121.638 436.609 120.905 438.18 119.908 439.53C119.585 439.999 119.19 440.454 118.779 440.865C116.667 442.979 113.749 444.285 110.538 444.285H42.615V420.936H110.523C114.38 420.936 117.797 422.814 119.908 425.706C120.905 427.056 121.624 428.626 121.961 430.314C122.108 431.047 122.181 431.825 122.181 432.603L122.196 432.618Z" fill="#F9F9F9"/>
<path d="M119.908 439.53L42.615 441.041V438.033L119.908 439.53Z" fill="#CBCACC"/>
<path d="M121.961 434.922L42.615 436.433V433.425L121.961 434.922Z" fill="#CBCACC"/>
<path d="M121.976 430.328L42.615 431.84V428.816L121.976 430.328Z" fill="#CBCACC"/>
<path d="M119.923 425.72L42.615 427.217V424.208L119.923 425.72Z" fill="#CBCACC"/>
<g style="mix-blend-mode:overlay">
<path d="M139.059 362.484L137.109 359.886L135.085 357.186L131.155 351.947H190.734V357.186H183.901V378.979H190.734V384.218H155.351L151.421 378.979L149.529 376.455L147.359 373.549L146.054 371.803L143.927 368.985L142.564 367.151L140.525 364.436L139.059 362.484Z" fill="#232323"/>
</g>
<g style="mix-blend-mode:overlay">
<path d="M211.132 432.618C211.132 437.065 209.328 441.1 206.425 444.021C206.322 444.109 206.234 444.212 206.131 444.285C203.257 447.044 199.313 448.746 195.016 448.746H137.989L139.191 444.285L145.247 421.787L145.482 420.936L146.67 416.49L148.077 411.265L148.884 408.286L149.441 406.231L150.116 403.722L150.687 401.579L151.347 399.143L151.934 396.957L152.594 394.535L153.18 392.334L153.957 389.472L155.365 384.233H172.067V416.49H195.016C199.313 416.49 203.257 418.177 206.131 420.936C209.211 423.871 211.132 428.039 211.132 432.618Z" fill="#232323"/>
</g>
<path d="M232.746 297.457L180.191 317.738L132.827 336.024L126.873 338.328L73.5557 317.738L21.0005 297.457L126.873 256.585L167.83 272.406L232.746 297.457Z" fill="black"/>
<path d="M169.208 269.94C168.768 270.733 168.313 271.555 167.829 272.406L126.873 256.586V253.592L169.208 269.94Z" fill="#3F3F3F"/>
<path d="M126.873 253.592V256.586L21.0151 297.457V294.463L126.873 253.592Z" fill="#4F4F4F"/>
<path d="M180.191 295.563V350.67C180.191 352.886 166.084 354.794 146.186 355.542C143.605 355.645 141.127 356.731 139.294 358.565L130.29 367.576C128.398 369.469 125.348 369.469 123.457 367.576L118.383 362.498L114.453 358.565C112.62 356.731 110.142 355.645 107.561 355.542C87.6623 354.794 73.5557 352.886 73.5557 350.67V295.563C73.5557 289.429 97.4284 284.469 126.873 284.469C139.323 284.469 150.761 285.349 159.838 286.846C172.229 288.871 180.191 292.027 180.191 295.563Z" fill="#3A3A3A"/>
<path d="M120.568 358.477C119.805 359.886 119.072 361.222 118.383 362.499L114.453 358.566C112.62 356.731 110.142 355.645 107.561 355.542C87.6623 354.794 73.5557 352.886 73.5557 350.67V344.462C73.5557 346.678 87.6623 348.572 107.561 349.335C110.142 349.437 112.62 350.509 114.453 352.343L120.568 358.477Z" fill="#FCDE32"/>
<path d="M180.191 344.462V350.67C180.191 352.886 166.085 354.794 146.186 355.542C143.605 355.645 141.127 356.731 139.294 358.566L130.29 367.576C128.398 369.469 125.348 369.469 123.457 367.576L118.383 362.499C119.072 361.222 119.805 359.886 120.568 358.477L123.457 361.369C125.348 363.262 128.398 363.262 130.29 361.369L139.294 352.343C141.127 350.509 143.605 349.437 146.186 349.335C166.085 348.572 180.191 346.678 180.191 344.462Z" fill="#B79B13"/>
<path d="M232.746 294.463V297.457L167.83 272.406C168.313 271.555 168.768 270.733 169.208 269.94L232.746 294.463Z" fill="#2B2B2A"/>
<g style="mix-blend-mode:multiply">
<path d="M232.746 297.457L180.191 317.738V344.462C180.191 346.678 166.084 348.571 146.186 349.335C143.605 349.437 141.127 350.509 139.294 352.343L130.29 361.368C128.398 363.262 125.348 363.262 123.457 361.368L120.568 358.477C124.058 352.064 128.296 344.315 132.827 336.024C141.684 319.852 151.714 301.551 159.838 286.846C162.814 281.461 165.527 276.544 167.829 272.406L232.746 297.457Z" fill="#3A3A3A"/>
</g>
<path d="M163.841 270.865C163.21 269.456 162.507 268.209 161.715 267.049C160.674 265.494 159.515 264.173 158.239 263.087C152.11 257.818 145.804 260.768 145.584 260.812L151.553 263.116C151.553 263.116 151.523 263.116 151.509 263.102L153.738 263.968C153.738 263.968 153.664 263.938 153.62 263.909L153.782 263.968C154.5 264.393 155.263 264.965 156.025 265.729C156.905 266.609 157.946 267.563 158.899 268.942C162.507 274.226 165.571 284.425 164.618 304.031L164.721 376.015H168.181L168.079 304.12C168.783 289.488 167.346 278.408 163.856 270.88L163.841 270.865Z" fill="#FCDE32"/>
<path d="M170.014 362.66C170.014 360.723 168.445 359.152 166.51 359.152C164.574 359.152 163.005 360.723 163.005 362.66C163.005 364.597 164.574 366.167 166.51 366.167C168.445 366.167 170.014 364.597 170.014 362.66Z" fill="#FAA821"/>
<path d="M170.117 378.92H162.917V369.778C162.917 367.782 164.53 366.167 166.525 366.167C168.519 366.167 170.132 367.782 170.132 369.778V378.92H170.117Z" fill="#FAA821"/>
<path d="M485.507 81.0083V283.456C485.507 285.012 484.392 286.333 482.926 286.656H482.897C482.691 286.7 482.457 286.714 482.237 286.714H338.678V81.0083H485.507Z" fill="#F9F9F9"/>
<path d="M478.952 272.582V95.1262C478.952 90.944 475.564 87.5537 471.386 87.5537L352.799 87.5537C348.62 87.5537 345.233 90.944 345.233 95.1262V272.582C345.233 276.764 348.62 280.154 352.799 280.154H471.386C475.564 280.154 478.952 276.764 478.952 272.582Z" stroke="#A8BBC1" stroke-width="0.89" stroke-miterlimit="10"/>
<path d="M323.017 96.667H338.678V80.9937C330.026 80.9937 323.017 88.0085 323.017 96.667Z" fill="#A8BBC1"/>
<path d="M497.091 271.056C497.091 279.201 490.859 285.907 482.926 286.656H482.897C482.413 286.7 481.929 286.714 481.445 286.714H338.678C343.986 286.714 348.664 284.073 351.494 280.037C353.283 277.498 354.324 274.402 354.324 271.056H497.091Z" fill="#A8BBC1"/>
<path d="M438.964 113.955H385.221V121.028H438.964V113.955Z" fill="#A8BBC1"/>
<path d="M463.482 198.75H432.101V205.823H463.482V198.75Z" fill="#A8BBC1"/>
<path d="M463.482 151.054H360.688V155.868H463.482V151.054Z" fill="#A8BBC1"/>
<path d="M463.482 160.754H360.688V165.568H463.482V160.754Z" fill="#A8BBC1"/>
<path d="M463.482 170.44H360.688V175.254H463.482V170.44Z" fill="#A8BBC1"/>
<path d="M463.482 180.141H360.688V184.955H463.482V180.141Z" fill="#A8BBC1"/>
<path d="M503.206 166.904L491.24 158.847L485.507 167.682L483.381 170.954L480.389 156.294V156.279L478.952 149.191L475.785 133.693L475.667 133.077L474.362 126.62L474.084 125.284L478.952 124.286L485.507 122.966L486.02 122.834L493.924 121.234L494.056 121.924L495.038 126.767L495.405 128.528L503.206 166.904Z" fill="#B51A06"/>
<path d="M478.6 166.875L470.33 155.046L458.643 163.499L466.385 117.55L486.343 120.926L478.6 166.875Z" fill="#EF4323"/>
<path d="M510.538 111.445L505.508 114.307L506.652 119.986L501.006 121.307L500.508 127.06L495.038 126.766L494.73 126.752L492.619 132.138L487.178 130.215L485.507 132.373L484.128 134.148L483.63 134.794L478.952 131.389L475.785 133.693L474.26 134.794L470.711 130.215L465.256 132.138L464.699 130.685L464.332 129.76L463.159 126.752L457.382 127.075L456.883 121.307L451.252 119.986L452.381 114.307L447.352 111.445L450.035 106.338L446.017 102.17L450.035 98.0026L447.352 92.8809L452.367 90.0338L451.883 87.5683L451.252 84.3544L456.883 83.0336L457.059 81.0084L457.382 77.2808L463.159 77.589L465.256 72.2031L470.711 74.1256L474.26 69.5469L478.952 72.9516L481.943 70.7649L483.63 69.5469L487.164 74.1256L492.619 72.2031L494.73 77.589L500.493 77.2808L501.006 83.0336L506.652 84.3397L505.508 90.0338L510.538 92.8809L507.84 98.0026L511.858 102.17L507.84 106.338L510.538 111.445Z" fill="#FCDE32"/>
<path d="M478.938 127.045C492.665 127.045 503.793 115.908 503.793 102.17C503.793 88.4323 492.665 77.2954 478.938 77.2954C465.21 77.2954 454.082 88.4323 454.082 102.17C454.082 115.908 465.21 127.045 478.938 127.045Z" fill="white"/>
<g style="mix-blend-mode:overlay">
<path d="M510.538 111.445L505.508 114.307L506.652 119.972L501.021 121.293L500.523 127.045L495.053 126.737L495.405 128.498L503.221 166.875L491.255 158.818L485.507 167.667V271.041H497.091C497.091 279.186 490.859 285.893 482.926 286.641H482.897C482.691 286.685 482.457 286.7 482.237 286.7H419.974L421.851 280.14L424.461 271.041L443.172 205.794L445.196 198.735L449.155 184.94L450.534 180.126L451.941 175.24L453.32 170.426L454.727 165.539L456.106 160.74L457.514 155.853L458.892 151.054L463.452 135.117L464.728 130.685L464.948 129.878L466.708 123.787L468.394 117.873L476.503 89.5495L478.952 80.9937L480.008 77.3102L481.958 70.7649L483.63 69.5469L487.164 74.1256L492.619 72.2031L494.73 77.589L500.493 77.2808L501.007 83.0336L506.637 84.3397L505.494 90.0191L510.523 92.8809L507.825 98.0026L511.843 102.17L507.825 106.324L510.523 111.445H510.538Z" fill="#2B2B2A"/>
</g>
<path d="M279.231 116.802V216.242C279.231 220.718 275.594 224.358 271.121 224.358H119.219C114.746 224.358 111.124 220.718 111.124 216.242V116.802C111.124 112.326 114.746 108.701 119.219 108.701H271.121C271.371 108.701 271.62 108.715 271.855 108.745C275.726 109.141 278.791 112.208 279.187 116.068C279.216 116.317 279.231 116.552 279.231 116.802Z" fill="white"/>
<path d="M274.831 116.919V216.257C274.831 218.297 273.174 219.956 271.136 219.956H119.233C117.195 219.956 115.538 218.297 115.538 216.257V116.816C115.538 114.776 117.195 113.118 119.233 113.118L271.033 113.118C273.13 113.118 274.831 114.821 274.831 116.919Z" fill="#C1152E"/>
<path d="M279.231 116.802V117.168H111.124V116.802C111.124 112.326 114.746 108.701 119.219 108.701H271.121C271.371 108.701 271.62 108.715 271.855 108.745C275.755 109.082 278.849 112.179 279.187 116.068C279.216 116.317 279.231 116.552 279.231 116.802Z" fill="#4C4C4E"/>
<path d="M120.231 112.942C120.231 111.958 119.439 111.166 118.456 111.166C117.474 111.166 116.682 111.958 116.682 112.942C116.682 113.925 117.474 114.717 118.456 114.717C119.439 114.717 120.231 113.925 120.231 112.942Z" fill="#F9195F"/>
<path d="M126.316 114.717C127.296 114.717 128.09 113.922 128.09 112.942C128.09 111.961 127.296 111.166 126.316 111.166C125.336 111.166 124.542 111.961 124.542 112.942C124.542 113.922 125.336 114.717 126.316 114.717Z" fill="#F7D71C"/>
<path d="M135.98 112.942C135.98 111.958 135.188 111.166 134.205 111.166C133.223 111.166 132.431 111.958 132.431 112.942C132.431 113.925 133.223 114.717 134.205 114.717C135.188 114.717 135.98 113.925 135.98 112.942Z" fill="#52F71C"/>
<path d="M179.861 142V133.273H185.452V134.598H181.442V136.967H185.068V138.293H181.442V142H179.861ZM186.73 142V135.455H188.226V136.545H188.294C188.413 136.168 188.618 135.876 188.908 135.672C189.2 135.464 189.534 135.361 189.909 135.361C189.994 135.361 190.089 135.365 190.195 135.374C190.303 135.379 190.392 135.389 190.463 135.403V136.822C190.398 136.8 190.294 136.78 190.152 136.763C190.013 136.743 189.878 136.733 189.747 136.733C189.466 136.733 189.213 136.794 188.989 136.916C188.767 137.036 188.592 137.202 188.464 137.415C188.337 137.628 188.273 137.874 188.273 138.152V142H186.73ZM194.116 142.128C193.46 142.128 192.893 141.991 192.416 141.719C191.941 141.443 191.576 141.054 191.321 140.551C191.065 140.045 190.937 139.45 190.937 138.766C190.937 138.092 191.065 137.501 191.321 136.993C191.579 136.482 191.94 136.084 192.403 135.8C192.866 135.513 193.41 135.369 194.035 135.369C194.439 135.369 194.819 135.435 195.177 135.565C195.538 135.693 195.856 135.892 196.132 136.162C196.41 136.432 196.629 136.776 196.788 137.193C196.947 137.608 197.027 138.102 197.027 138.676V139.149H191.662V138.109H195.548C195.545 137.814 195.481 137.551 195.356 137.321C195.231 137.088 195.056 136.905 194.832 136.771C194.61 136.638 194.352 136.571 194.056 136.571C193.741 136.571 193.464 136.648 193.225 136.801C192.987 136.952 192.801 137.151 192.667 137.398C192.537 137.642 192.47 137.911 192.467 138.203V139.111C192.467 139.491 192.537 139.818 192.676 140.091C192.815 140.361 193.01 140.568 193.26 140.713C193.51 140.855 193.802 140.926 194.137 140.926C194.362 140.926 194.565 140.895 194.747 140.832C194.929 140.767 195.086 140.672 195.22 140.547C195.353 140.422 195.454 140.267 195.522 140.082L196.963 140.244C196.872 140.625 196.699 140.957 196.443 141.241C196.19 141.523 195.866 141.741 195.471 141.898C195.076 142.051 194.625 142.128 194.116 142.128ZM201.229 142.128C200.573 142.128 200.006 141.991 199.529 141.719C199.055 141.443 198.69 141.054 198.434 140.551C198.178 140.045 198.05 139.45 198.05 138.766C198.05 138.092 198.178 137.501 198.434 136.993C198.692 136.482 199.053 136.084 199.516 135.8C199.979 135.513 200.523 135.369 201.148 135.369C201.552 135.369 201.933 135.435 202.29 135.565C202.651 135.693 202.969 135.892 203.245 136.162C203.523 136.432 203.742 136.776 203.901 137.193C204.06 137.608 204.14 138.102 204.14 138.676V139.149H198.775V138.109H202.661C202.658 137.814 202.594 137.551 202.469 137.321C202.344 137.088 202.17 136.905 201.945 136.771C201.724 136.638 201.465 136.571 201.17 136.571C200.854 136.571 200.577 136.648 200.339 136.801C200.1 136.952 199.914 137.151 199.781 137.398C199.65 137.642 199.583 137.911 199.58 138.203V139.111C199.58 139.491 199.65 139.818 199.789 140.091C199.928 140.361 200.123 140.568 200.373 140.713C200.623 140.855 200.915 140.926 201.251 140.926C201.475 140.926 201.678 140.895 201.86 140.832C202.042 140.767 202.2 140.672 202.333 140.547C202.467 140.422 202.567 140.267 202.636 140.082L204.076 140.244C203.985 140.625 203.812 140.957 203.556 141.241C203.303 141.523 202.979 141.741 202.585 141.898C202.19 142.051 201.738 142.128 201.229 142.128Z" fill="#F9F9F9"/>
<path d="M177.331 147.217H175.737C175.692 146.956 175.608 146.724 175.486 146.523C175.364 146.318 175.212 146.145 175.03 146.003C174.848 145.861 174.641 145.754 174.408 145.683C174.178 145.609 173.929 145.572 173.662 145.572C173.188 145.572 172.767 145.692 172.401 145.93C172.034 146.166 171.747 146.513 171.54 146.97C171.332 147.425 171.229 147.98 171.229 148.636C171.229 149.304 171.332 149.866 171.54 150.324C171.75 150.778 172.037 151.122 172.401 151.355C172.767 151.585 173.186 151.7 173.658 151.7C173.919 151.7 174.163 151.666 174.391 151.598C174.621 151.527 174.827 151.423 175.009 151.287C175.193 151.151 175.348 150.983 175.473 150.784C175.601 150.585 175.689 150.358 175.737 150.102L177.331 150.111C177.271 150.526 177.142 150.915 176.943 151.278C176.747 151.642 176.49 151.963 176.172 152.241C175.854 152.517 175.482 152.733 175.055 152.889C174.629 153.043 174.156 153.119 173.636 153.119C172.869 153.119 172.185 152.942 171.582 152.587C170.98 152.232 170.506 151.719 170.159 151.048C169.813 150.378 169.639 149.574 169.639 148.636C169.639 147.696 169.814 146.892 170.163 146.224C170.513 145.554 170.989 145.041 171.591 144.686C172.193 144.331 172.875 144.153 173.636 144.153C174.122 144.153 174.574 144.222 174.991 144.358C175.409 144.494 175.781 144.695 176.108 144.959C176.435 145.22 176.703 145.541 176.913 145.922C177.126 146.3 177.266 146.732 177.331 147.217ZM180.253 144.273V153H178.711V144.273H180.253ZM183.723 153.132C183.308 153.132 182.935 153.058 182.602 152.911C182.273 152.76 182.011 152.538 181.818 152.246C181.628 151.953 181.533 151.592 181.533 151.163C181.533 150.794 181.601 150.489 181.737 150.247C181.874 150.006 182.06 149.812 182.295 149.668C182.531 149.523 182.797 149.413 183.092 149.339C183.391 149.263 183.699 149.207 184.017 149.173C184.401 149.134 184.712 149.098 184.95 149.067C185.189 149.033 185.362 148.982 185.47 148.913C185.581 148.842 185.636 148.733 185.636 148.585V148.56C185.636 148.239 185.541 147.99 185.351 147.814C185.161 147.638 184.886 147.55 184.528 147.55C184.151 147.55 183.851 147.632 183.629 147.797C183.411 147.962 183.263 148.156 183.186 148.381L181.746 148.176C181.859 147.778 182.047 147.446 182.308 147.179C182.57 146.909 182.889 146.707 183.267 146.574C183.645 146.438 184.063 146.369 184.52 146.369C184.835 146.369 185.149 146.406 185.462 146.48C185.774 146.554 186.06 146.676 186.318 146.847C186.577 147.014 186.784 147.243 186.94 147.533C187.099 147.822 187.179 148.185 187.179 148.619V153H185.696V152.101H185.645C185.551 152.283 185.419 152.453 185.249 152.612C185.081 152.768 184.869 152.895 184.614 152.991C184.361 153.085 184.064 153.132 183.723 153.132ZM184.124 151.999C184.433 151.999 184.702 151.937 184.929 151.815C185.156 151.69 185.331 151.526 185.453 151.321C185.578 151.116 185.641 150.893 185.641 150.652V149.881C185.592 149.92 185.51 149.957 185.393 149.991C185.28 150.026 185.152 150.055 185.01 150.081C184.868 150.107 184.727 150.129 184.588 150.149C184.449 150.169 184.328 150.186 184.226 150.2C183.996 150.232 183.79 150.283 183.608 150.354C183.426 150.425 183.283 150.524 183.178 150.652C183.072 150.777 183.02 150.939 183.02 151.138C183.02 151.422 183.124 151.636 183.331 151.781C183.538 151.926 183.803 151.999 184.124 151.999ZM193.903 148.185L192.497 148.338C192.457 148.196 192.388 148.062 192.288 147.938C192.192 147.812 192.061 147.712 191.896 147.635C191.732 147.558 191.53 147.52 191.291 147.52C190.97 147.52 190.7 147.589 190.482 147.729C190.266 147.868 190.159 148.048 190.162 148.27C190.159 148.46 190.229 148.615 190.371 148.734C190.516 148.854 190.754 148.952 191.087 149.028L192.203 149.267C192.822 149.401 193.283 149.612 193.584 149.902C193.888 150.192 194.041 150.571 194.044 151.04C194.041 151.452 193.92 151.815 193.682 152.131C193.446 152.443 193.118 152.687 192.697 152.864C192.277 153.04 191.794 153.128 191.249 153.128C190.447 153.128 189.803 152.96 189.314 152.625C188.825 152.287 188.534 151.817 188.44 151.214L189.945 151.07C190.013 151.365 190.158 151.588 190.379 151.739C190.601 151.889 190.889 151.964 191.244 151.964C191.611 151.964 191.905 151.889 192.126 151.739C192.351 151.588 192.463 151.402 192.463 151.18C192.463 150.993 192.391 150.838 192.246 150.716C192.104 150.594 191.882 150.5 191.581 150.435L190.464 150.2C189.837 150.07 189.372 149.849 189.071 149.54C188.77 149.227 188.621 148.832 188.624 148.355C188.621 147.952 188.73 147.602 188.952 147.307C189.176 147.009 189.487 146.778 189.885 146.616C190.286 146.452 190.747 146.369 191.27 146.369C192.037 146.369 192.641 146.533 193.081 146.859C193.524 147.186 193.798 147.628 193.903 148.185ZM200.489 148.185L199.083 148.338C199.043 148.196 198.974 148.062 198.874 147.938C198.778 147.812 198.647 147.712 198.482 147.635C198.317 147.558 198.116 147.52 197.877 147.52C197.556 147.52 197.286 147.589 197.067 147.729C196.852 147.868 196.745 148.048 196.748 148.27C196.745 148.46 196.815 148.615 196.957 148.734C197.102 148.854 197.34 148.952 197.673 149.028L198.789 149.267C199.408 149.401 199.869 149.612 200.17 149.902C200.474 150.192 200.627 150.571 200.63 151.04C200.627 151.452 200.506 151.815 200.268 152.131C200.032 152.443 199.704 152.687 199.283 152.864C198.863 153.04 198.38 153.128 197.835 153.128C197.033 153.128 196.388 152.96 195.9 152.625C195.411 152.287 195.12 151.817 195.026 151.214L196.531 151.07C196.599 151.365 196.744 151.588 196.965 151.739C197.187 151.889 197.475 151.964 197.83 151.964C198.197 151.964 198.491 151.889 198.712 151.739C198.937 151.588 199.049 151.402 199.049 151.18C199.049 150.993 198.977 150.838 198.832 150.716C198.69 150.594 198.468 150.5 198.167 150.435L197.05 150.2C196.423 150.07 195.958 149.849 195.657 149.54C195.356 149.227 195.207 148.832 195.21 148.355C195.207 147.952 195.316 147.602 195.538 147.307C195.762 147.009 196.073 146.778 196.471 146.616C196.871 146.452 197.333 146.369 197.856 146.369C198.623 146.369 199.227 146.533 199.667 146.859C200.11 147.186 200.384 147.628 200.489 148.185ZM204.8 153.128C204.143 153.128 203.577 152.991 203.099 152.719C202.625 152.443 202.26 152.054 202.004 151.551C201.749 151.045 201.621 150.45 201.621 149.766C201.621 149.092 201.749 148.501 202.004 147.993C202.263 147.482 202.624 147.084 203.087 146.8C203.55 146.513 204.094 146.369 204.719 146.369C205.122 146.369 205.503 146.435 205.861 146.565C206.222 146.693 206.54 146.892 206.815 147.162C207.094 147.432 207.313 147.776 207.472 148.193C207.631 148.608 207.71 149.102 207.71 149.676V150.149H202.345V149.109H206.232C206.229 148.814 206.165 148.551 206.04 148.321C205.915 148.088 205.74 147.905 205.516 147.771C205.294 147.638 205.036 147.571 204.74 147.571C204.425 147.571 204.148 147.648 203.909 147.801C203.67 147.952 203.484 148.151 203.351 148.398C203.22 148.642 203.153 148.911 203.151 149.203V150.111C203.151 150.491 203.22 150.818 203.359 151.091C203.499 151.361 203.693 151.568 203.943 151.713C204.193 151.855 204.486 151.926 204.821 151.926C205.045 151.926 205.249 151.895 205.43 151.832C205.612 151.767 205.77 151.672 205.903 151.547C206.037 151.422 206.138 151.267 206.206 151.082L207.646 151.244C207.555 151.625 207.382 151.957 207.126 152.241C206.874 152.523 206.55 152.741 206.155 152.898C205.76 153.051 205.308 153.128 204.8 153.128ZM214.189 148.185L212.782 148.338C212.743 148.196 212.673 148.062 212.574 147.938C212.477 147.812 212.346 147.712 212.181 147.635C212.017 147.558 211.815 147.52 211.576 147.52C211.255 147.52 210.985 147.589 210.767 147.729C210.551 147.868 210.444 148.048 210.447 148.27C210.444 148.46 210.514 148.615 210.656 148.734C210.801 148.854 211.039 148.952 211.372 149.028L212.488 149.267C213.108 149.401 213.568 149.612 213.869 149.902C214.173 150.192 214.326 150.571 214.329 151.04C214.326 151.452 214.206 151.815 213.967 152.131C213.731 152.443 213.403 152.687 212.983 152.864C212.562 153.04 212.079 153.128 211.534 153.128C210.733 153.128 210.088 152.96 209.599 152.625C209.11 152.287 208.819 151.817 208.725 151.214L210.23 151.07C210.298 151.365 210.443 151.588 210.664 151.739C210.886 151.889 211.174 151.964 211.529 151.964C211.896 151.964 212.19 151.889 212.412 151.739C212.636 151.588 212.748 151.402 212.748 151.18C212.748 150.993 212.676 150.838 212.531 150.716C212.389 150.594 212.167 150.5 211.866 150.435L210.75 150.2C210.122 150.07 209.657 149.849 209.356 149.54C209.055 149.227 208.906 148.832 208.909 148.355C208.906 147.952 209.015 147.602 209.237 147.307C209.461 147.009 209.772 146.778 210.17 146.616C210.571 146.452 211.032 146.369 211.555 146.369C212.322 146.369 212.926 146.533 213.366 146.859C213.809 147.186 214.083 147.628 214.189 148.185Z" fill="#F9F9F9"/>
<path d="M257.279 164.467H126.873V181.007H257.279V164.467Z" fill="#FEC10F"/>
<path d="M172.932 187.288H126.873V213.146H172.932V187.288Z" fill="#F1582E"/>
<path d="M224.314 196.959H257.293V187.288H224.314V196.959Z" fill="#14ACC3"/>
<path d="M224.314 211.502H257.293V201.831H224.314V211.502Z" fill="#14ACC3"/>
<path d="M217.862 187.288H179.238V190.502H217.862V187.288Z" fill="#F6911D"/>
<path d="M217.862 193.745H179.238V196.959H217.862V193.745Z" fill="#F6911D"/>
<path d="M217.862 200.202H179.238V203.416H217.862V200.202Z" fill="#F6911D"/>
<path d="M217.862 206.659H179.238V209.873H217.862V206.659Z" fill="#F6911D"/>
<g style="mix-blend-mode:overlay">
<path d="M279.23 116.802V216.242C279.23 220.718 275.594 224.358 271.121 224.358H180.939L183.813 219.955L190.368 209.873L192.464 206.659L194.576 203.416L196.673 200.202L198.785 196.959L200.882 193.745L202.993 190.487L205.09 187.288L209.181 181.007L219.945 164.467L250.753 117.168L253.393 113.103L256.267 108.701H271.121C271.371 108.701 271.62 108.715 271.855 108.745C275.755 109.082 278.849 112.179 279.186 116.068C279.216 116.317 279.23 116.552 279.23 116.802Z" fill="#4F4F4F"/>
</g>
<path d="M471.371 58.3346C443.642 57.6742 443.114 57.1312 442.439 29.3799C441.779 57.1312 441.237 57.6595 413.507 58.3346C441.237 58.995 441.765 59.538 442.439 87.2892C443.099 59.538 443.642 59.0096 471.371 58.3346Z" fill="white"/>
<path d="M212.833 96.6671C185.103 96.0067 184.576 95.4637 183.901 67.7124C183.241 95.4637 182.699 95.992 154.969 96.6671C182.699 97.3275 183.226 97.8705 183.901 125.622C184.561 97.8705 185.103 97.3422 212.833 96.6671Z" fill="#BAD9E0"/>
<path d="M550.996 153.461C523.266 152.801 522.738 152.258 522.064 124.506C521.404 152.258 520.861 152.786 493.132 153.461C520.861 154.121 521.389 154.664 522.064 182.416C522.724 154.664 523.266 154.136 550.996 153.461Z" fill="white"/>
<path d="M122.489 197.326C94.7594 196.665 94.2315 196.122 93.557 168.371C92.8971 196.122 92.3546 196.651 64.6252 197.326C92.3546 197.986 92.8825 198.529 93.557 226.28C94.2169 198.529 94.7594 198.001 122.489 197.326Z" fill="#BAD9E0"/>
</svg>
