<svg width="500" height="389" viewBox="0 0 500 389" fill="none" xmlns="http://www.w3.org/2000/svg">
<g clip-path="url(#clip0_1_1120)">
<path d="M173.271 181.481C207.652 147.073 207.652 91.2856 173.271 56.8771C138.89 22.4686 83.1469 22.4686 48.7656 56.8771C14.3844 91.2856 14.3844 147.073 48.7656 181.481C83.1469 215.89 138.89 215.89 173.271 181.481Z" fill="#C1152E"/>
<path d="M474.206 338.323C508.587 303.914 508.587 248.127 474.206 213.718C439.824 179.31 384.081 179.31 349.7 213.718C315.319 248.127 315.319 303.914 349.7 338.323C384.081 372.731 439.824 372.731 474.206 338.323Z" fill="#C1152E"/>
<path d="M230.23 8.66363C203.769 -5.65855 170.197 -9.60257e-05 147.418 19.0249C125.807 37.0691 117.289 63.7518 121.058 91.1891C122.063 98.457 123.433 105.725 123.445 113.068C123.458 127.956 115.09 142.153 105.704 153.218C95.5397 165.202 83.3522 175.714 69.9586 183.849C57.4193 191.47 44.7544 199.014 36.8011 211.815C23.9603 232.487 17.364 256.139 19.5377 280.584C21.9375 307.48 33.8234 334.327 56.7408 349.73C110.24 385.705 191.13 343.757 230.004 303.293C246.325 286.305 263.073 264.388 286.116 256.454C313.909 246.885 346.375 262.389 373.276 269.342C418.658 281.074 468.564 271.254 488.767 223.962C498.53 201.127 493.693 175.902 475.286 159.179C465.021 149.861 451.125 145.661 437.454 143.385C417.276 140.04 396.683 140.317 376.366 137.94C350.346 134.897 325.569 125.882 306.848 106.945C278.301 78.074 268.451 31.2849 232.404 9.93364C231.687 9.50611 230.959 9.09116 230.217 8.70135L230.23 8.66363Z" stroke="white" stroke-linecap="round" stroke-linejoin="round"/>
<path d="M158.01 15.3783C158.01 12.9263 156.025 10.9521 153.587 10.9521C151.15 10.9521 149.164 12.9389 149.164 15.3783C149.164 17.8177 151.15 19.8045 153.587 19.8045C156.025 19.8045 158.01 17.8177 158.01 15.3783Z" fill="#FEC10F"/>
<path d="M464.217 149.094C464.217 146.642 462.232 144.668 459.794 144.668C457.357 144.668 455.371 146.654 455.371 149.094C455.371 151.533 457.357 153.52 459.794 153.52C462.232 153.52 464.217 151.533 464.217 149.094Z" fill="#14ACC3"/>
<path d="M480.211 248.092C480.211 245.64 478.226 243.666 475.788 243.666C473.351 243.666 471.366 245.652 471.366 248.092C471.366 250.531 473.351 252.518 475.788 252.518C478.226 252.518 480.211 250.531 480.211 248.092Z" fill="#F9F9F9"/>
<path d="M257.696 26.6449C257.696 24.1929 255.711 22.2188 253.273 22.2188C250.836 22.2188 248.85 24.2055 248.85 26.6449C248.85 29.0843 250.836 31.0711 253.273 31.0711C255.711 31.0711 257.696 29.0843 257.696 26.6449Z" fill="#EF4323"/>
<path d="M23.9729 276.133C23.9729 273.681 21.9877 271.707 19.5502 271.707C17.1127 271.707 15.1276 273.693 15.1276 276.133C15.1276 278.572 17.1127 280.559 19.5502 280.559C21.9877 280.559 23.9729 278.572 23.9729 276.133Z" fill="#EF4323"/>
<g style="mix-blend-mode:overlay">
<path d="M207.199 60.7842L203.87 64.1164L200.54 60.7842C199.799 60.0423 198.605 60.0423 197.877 60.7842C197.135 61.5261 197.135 62.7206 197.877 63.45L201.206 66.7822L197.877 70.1144C197.135 70.8562 197.135 72.0508 197.877 72.7801C198.618 73.522 199.812 73.522 200.54 72.7801L203.87 69.4479L207.199 72.7801C207.941 73.522 209.134 73.522 209.863 72.7801C210.604 72.0382 210.604 70.8437 209.863 70.1144L206.534 66.7822L209.863 63.45C210.604 62.7081 210.604 61.5135 209.863 60.7842C209.122 60.0549 207.928 60.0423 207.199 60.7842Z" fill="#2B2B2A"/>
<path d="M464.267 88.9507L460.937 92.2829L457.608 88.9507C456.867 88.2088 455.673 88.2088 454.944 88.9507C454.203 89.6926 454.203 90.8872 454.944 91.6165L458.274 94.9487L454.944 98.2809C454.203 99.0228 454.203 100.217 454.944 100.947C455.685 101.689 456.879 101.689 457.608 100.947L460.937 97.6144L464.267 100.947C465.008 101.689 466.202 101.689 466.931 100.947C467.672 100.205 467.672 99.0102 466.931 98.2809L463.601 94.9487L466.931 91.6165C467.672 90.8746 467.672 89.68 466.931 88.9507C466.189 88.2088 464.996 88.2088 464.267 88.9507Z" fill="#2B2B2A"/>
<path d="M60.1332 96.8601L56.8036 100.192L53.4741 96.8601C52.7328 96.1182 51.5392 96.1182 50.8104 96.8601C50.0691 97.602 50.0691 98.7966 50.8104 99.5259L54.14 102.858L50.8104 106.19C50.0691 106.932 50.0691 108.127 50.8104 108.856C51.5517 109.598 52.7453 109.598 53.4741 108.856L56.8036 105.524L60.1332 108.856C60.8745 109.598 62.0681 109.598 62.7969 108.856C63.5382 108.114 63.5382 106.92 62.7969 106.19L59.4673 102.858L62.7969 99.5259C63.5382 98.784 63.5382 97.5894 62.7969 96.8601C62.0556 96.1182 60.8619 96.1182 60.1332 96.8601Z" fill="#2B2B2A"/>
<path d="M426.712 171.627L423.382 168.295L426.712 164.963C427.453 164.221 427.453 163.026 426.712 162.297C425.971 161.568 424.777 161.555 424.048 162.297L420.719 165.629L417.389 162.297C416.648 161.555 415.454 161.555 414.725 162.297C413.984 163.039 413.984 164.233 414.725 164.963L418.055 168.295L414.725 171.627C413.984 172.369 413.984 173.564 414.725 174.293C415.467 175.022 416.66 175.035 417.389 174.293L420.719 170.961L424.048 174.293C424.79 175.035 425.983 175.035 426.712 174.293C427.453 173.551 427.453 172.356 426.712 171.627Z" fill="#2B2B2A"/>
<path d="M316.472 31.6243L313.142 34.9565L309.813 31.6243C309.071 30.8824 307.878 30.8824 307.149 31.6243C306.408 32.3662 306.408 33.5607 307.149 34.29L310.479 37.6223L307.149 40.9545C306.408 41.6963 306.408 42.8909 307.149 43.6202C307.89 44.3495 309.084 44.3621 309.813 43.6202L313.142 40.288L316.472 43.6202C317.213 44.3621 318.407 44.3621 319.136 43.6202C319.864 42.8783 319.877 41.6838 319.136 40.9545L315.806 37.6223L319.136 34.29C319.877 33.5482 319.877 32.3536 319.136 31.6243C318.394 30.8824 317.201 30.8824 316.472 31.6243Z" fill="#2B2B2A"/>
<path d="M31.7 193.079L28.3704 196.411L25.0409 193.079C24.2996 192.337 23.1059 192.337 22.3772 193.079C21.6359 193.821 21.6359 195.015 22.3772 195.745L25.7068 199.077L22.3772 202.409C21.6359 203.151 21.6359 204.345 22.3772 205.075C23.1185 205.804 24.3121 205.817 25.0409 205.075L28.3704 201.743L31.7 205.075C32.4413 205.817 33.6349 205.817 34.3636 205.075C35.1049 204.333 35.1049 203.138 34.3636 202.409L31.0341 199.077L34.3636 195.745C35.1049 195.003 35.1049 193.808 34.3636 193.079C33.6223 192.337 32.4287 192.337 31.7 193.079Z" fill="#2B2B2A"/>
</g>
<g style="mix-blend-mode:multiply">
<path d="M452.858 383.744C452.858 386.636 436.286 388.987 415.844 388.987C395.401 388.987 378.829 386.636 378.829 383.744C378.829 380.852 395.401 378.5 415.844 378.5C436.286 378.5 452.858 380.852 452.858 383.744Z" fill="#E6E3DA"/>
</g>
<path d="M413.406 335.182C413.306 335.106 413.205 335.031 413.117 334.943C390.639 316.547 413.406 217.486 413.406 217.486C429.865 329.284 413.406 335.182 413.406 335.182Z" fill="#86D342"/>
<g style="mix-blend-mode:multiply">
<path d="M413.406 335.182C413.306 335.106 413.205 335.031 413.117 334.943L413.406 217.486C429.865 329.284 413.406 335.182 413.406 335.182Z" fill="#86D342"/>
</g>
<path d="M466.931 272.398C466.931 272.398 437.404 337.244 414.185 335.068C413.946 335.056 413.708 335.031 413.469 334.993C413.469 334.993 405.227 322.494 466.931 272.398Z" fill="#67AA26"/>
<g style="mix-blend-mode:multiply">
<path d="M466.931 272.398C466.931 272.398 437.404 337.244 414.185 335.068L466.931 272.398Z" fill="#67AA26"/>
</g>
<path d="M414.411 334.993C413.921 335.068 413.444 335.119 412.941 335.119C389.835 335.848 360.95 272.398 360.95 272.398C422.654 322.494 414.411 334.993 414.411 334.993Z" fill="#447510"/>
<g style="mix-blend-mode:multiply">
<path d="M414.411 334.993C413.921 335.068 413.444 335.119 412.941 335.119L360.95 272.398C422.654 322.494 414.411 334.993 414.411 334.993Z" fill="#447510"/>
</g>
<path d="M448.172 239.73C448.172 239.73 407.941 316.785 414.449 335.332C414.449 335.332 424.463 333.471 448.172 239.73Z" fill="#9AF23D"/>
<path d="M379.357 239.214C379.357 239.214 396.608 324.418 413.331 334.729C413.331 334.729 419.94 326.971 379.357 239.214Z" fill="#67AA26"/>
<path d="M443.837 333.912H387.85V339.771H443.837V333.912Z" fill="#96190F"/>
<path d="M392.901 333.912H440.621C440.595 333.836 440.595 333.761 440.558 333.673C440.193 332.503 439.025 330.278 437.844 329.812C437.63 330.265 437.178 330.429 436.927 330.756C436.449 329.787 435.834 330.278 435.067 329.963C434.414 329.699 434.087 328.769 433.044 328.957C432.152 329.108 431.7 330.051 430.984 330.19C430.242 330.328 430.067 329.486 429.225 330.152C428.458 330.756 428.973 331.321 428.609 331.975C428.22 332.667 427.629 333.019 427.667 331.598C426.31 331.573 426.523 329.611 425.242 329.159C425.016 329.083 424.023 329.322 423.797 329.36C422.867 329.511 422.264 329.284 421.749 330.265C421.297 331.095 421.925 332.315 421.56 333.12C420.995 334.39 420.028 333.597 418.683 333.321C417.289 333.031 415.793 332.73 414.361 333.031C413.796 333.157 413.255 333.572 412.677 333.522C411.886 333.446 411.32 332.579 410.516 332.453C409.235 332.239 408.33 332.742 406.935 332.176C405.616 331.648 405.641 331.334 404.887 329.926C404.335 328.869 403.882 327.461 402.463 327.964C401.043 328.48 401.156 330.579 399.334 328.593C398.392 329.058 398.744 330.202 397.952 330.844C396.532 330.517 395.703 328.605 394.271 330.403C394.183 330.328 394.12 330.227 394.082 330.114C392.348 330.403 392.311 331.384 392.738 332.868C392.788 333.233 392.838 333.572 392.901 333.887V333.912Z" fill="#BD651A"/>
<path d="M442.832 339.784L440.608 366.479L439.289 382.323C439.289 384.423 428.785 386.133 415.844 386.133C402.902 386.133 392.399 384.423 392.399 382.323L388.855 339.784H442.832Z" fill="#EF4323"/>
<g style="mix-blend-mode:multiply">
<path d="M442.832 339.784L439.616 378.5L424.387 339.784H442.832Z" fill="#EF4323"/>
</g>
<path d="M393.743 143.096V320.344C393.743 329.096 386.669 336.188 377.924 336.188H120.455C111.723 336.188 104.636 329.096 104.636 320.344V143.096C104.636 134.357 111.723 127.265 120.455 127.265H377.912C386.657 127.265 393.73 134.357 393.73 143.096H393.743Z" fill="black"/>
<path d="M378.992 134.81H119.387C115.404 134.81 112.175 138.041 112.175 142.027V279.49C112.175 283.476 115.404 286.708 119.387 286.708H378.992C382.975 286.708 386.204 283.476 386.204 279.49V142.027C386.204 138.041 382.975 134.81 378.992 134.81Z" fill="#272454"/>
<path d="M393.743 295.271V320.344C393.743 329.096 386.669 336.188 377.924 336.188H120.455C111.723 336.188 104.636 329.096 104.636 320.344V295.271H393.73H393.743Z" fill="#CBCACC"/>
<path d="M304.9 378.5H193.479C188.931 378.5 185.249 374.816 185.249 370.264H313.142C313.142 374.816 309.461 378.5 304.913 378.5H304.9Z" fill="#D3D2D6"/>
<path d="M313.142 370.252H185.237L203.531 356.043C205.365 354.622 206.659 352.66 207.262 350.472C207.514 349.542 207.652 348.586 207.652 347.605V336.188H290.727V347.605C290.727 348.586 290.866 349.542 291.117 350.472C291.72 352.66 293.014 354.622 294.849 356.043L313.142 370.252Z" fill="#A5A5A5"/>
<path d="M313.142 370.252H185.237L203.531 356.043C205.365 354.622 206.659 352.66 207.262 350.472H291.117C291.72 352.66 293.014 354.622 294.849 356.043L313.142 370.252Z" fill="#757575"/>
<path d="M249.19 129.025C248.147 129.025 247.292 129.88 247.292 130.924C247.292 131.968 248.147 132.823 249.19 132.823C250.232 132.823 251.087 131.968 251.087 130.924C251.087 129.88 250.232 129.025 249.19 129.025Z" fill="#6FFF40"/>
<path d="M244.893 149.886H166.692C164.319 149.886 162.395 151.812 162.395 154.187V264.124C162.395 266.499 164.319 268.425 166.692 268.425H244.893C247.266 268.425 249.19 266.499 249.19 264.124V154.187C249.19 151.812 247.266 149.886 244.893 149.886Z" fill="#FFEEA9"/>
<path d="M216.045 160.776H169.632V165.39H216.045V160.776Z" fill="#CEB752"/>
<path d="M243.184 179.7H169.632V184.315H243.184V179.7Z" fill="#CEB752"/>
<path d="M243.184 190.225H169.632V194.84H243.184V190.225Z" fill="#CEB752"/>
<path d="M243.184 200.762H169.632V205.377H243.184V200.762Z" fill="#CEB752"/>
<path d="M243.184 211.287H169.632V215.902H243.184V211.287Z" fill="#CEB752"/>
<path d="M243.184 221.824H169.632V226.439H243.184V221.824Z" fill="#CEB752"/>
<path d="M243.184 247.903H169.632V252.518H243.184V247.903Z" fill="#CEB752"/>
<path d="M331.687 149.886H253.487C251.113 149.886 249.19 151.812 249.19 154.187V264.124C249.19 266.499 251.113 268.425 253.487 268.425H331.687C334.061 268.425 335.984 266.499 335.984 264.124V154.187C335.984 151.812 334.061 149.886 331.687 149.886Z" fill="#EFDC8E"/>
<path d="M302.84 160.776H256.427V165.39H302.84V160.776Z" fill="#CEB752"/>
<path d="M329.979 179.7H256.427V184.315H329.979V179.7Z" fill="#CEB752"/>
<path d="M329.979 190.225H256.427V194.84H329.979V190.225Z" fill="#CEB752"/>
<path d="M329.979 200.762H256.427V205.377H329.979V200.762Z" fill="#CEB752"/>
<path d="M329.979 211.287H256.427V215.902H329.979V211.287Z" fill="#CEB752"/>
<path d="M329.979 221.824H256.427V226.439H329.979V221.824Z" fill="#CEB752"/>
<path d="M329.979 247.903H256.427V252.518H329.979V247.903Z" fill="#CEB752"/>
<path d="M170.386 215.901C170.386 211.488 166.805 207.917 162.407 207.917C158.01 207.917 154.429 211.5 154.429 215.901C154.429 220.302 158.01 223.886 162.407 223.886C166.805 223.886 170.386 220.302 170.386 215.901Z" fill="white"/>
<path d="M164.832 221.61C164.48 221.61 164.141 221.485 163.852 221.246L158.977 217.033C158.651 216.744 158.462 216.329 158.462 215.902C158.462 215.474 158.651 215.046 158.977 214.77L163.852 210.557C164.48 210.017 165.423 210.08 165.963 210.708C166.503 211.337 166.44 212.28 165.812 212.821L162.257 215.902L165.812 218.982C166.44 219.523 166.503 220.466 165.963 221.095C165.661 221.434 165.247 221.61 164.832 221.61Z" fill="#C1152E"/>
<path d="M335.984 223.886C340.391 223.886 343.963 220.311 343.963 215.901C343.963 211.492 340.391 207.917 335.984 207.917C331.578 207.917 328.006 211.492 328.006 215.901C328.006 220.311 331.578 223.886 335.984 223.886Z" fill="white"/>
<path d="M333.547 221.61C333.899 221.61 334.238 221.485 334.527 221.246L339.402 217.033C339.729 216.744 339.917 216.329 339.917 215.902C339.917 215.474 339.729 215.046 339.402 214.77L334.527 210.557C333.899 210.017 332.956 210.08 332.416 210.708C331.876 211.337 331.939 212.28 332.567 212.821L336.123 215.902L332.567 218.982C331.939 219.523 331.876 220.466 332.416 221.095C332.718 221.434 333.132 221.61 333.547 221.61Z" fill="#C1152E"/>
<g style="mix-blend-mode:overlay" opacity="0.34">
<path d="M112.175 189.558V276.019L253.273 134.81H166.868L112.175 189.558Z" fill="white"/>
</g>
<g style="mix-blend-mode:overlay" opacity="0.34">
<path d="M126.297 286.708H181.229L333.019 134.81H278.063L126.297 286.708Z" fill="white"/>
</g>
<g style="mix-blend-mode:multiply">
<path d="M96.3061 386.535C149.494 386.535 192.612 382.938 192.612 378.5C192.612 374.063 149.494 370.465 96.3061 370.465C43.1177 370.465 0 374.063 0 378.5C0 382.938 43.1177 386.535 96.3061 386.535Z" fill="#E6E3DA"/>
</g>
<path d="M133.723 323.223V350.862H30.8958C26.8752 350.862 23.2441 349.139 20.7187 346.385C18.4697 343.921 17.075 340.639 17.075 337.043C17.075 333.446 18.4571 330.164 20.7061 327.712C20.8443 327.562 20.9825 327.411 21.1207 327.272C23.6336 324.77 27.0763 323.223 30.8958 323.223H133.723Z" fill="#0D979E"/>
<path d="M81.4173 327.712V346.385H20.7313C18.4697 343.921 17.0876 340.639 17.0876 337.043C17.0876 333.446 18.4571 330.177 20.7187 327.712H81.4173Z" fill="#1BCFE2"/>
<path d="M133.723 327.712V346.385H75.7884C74.7582 346.385 73.753 346.222 72.8232 345.907C71.1396 345.329 69.6696 344.298 68.5765 342.953C67.6844 341.833 67.0059 340.501 66.7044 339.017C66.5536 338.388 66.4908 337.722 66.4908 337.043C66.4908 336.364 66.5536 335.71 66.7044 335.068C67.0059 333.597 67.6844 332.239 68.589 331.107C68.7901 330.881 68.9911 330.655 69.2173 330.441C70.9009 328.756 73.2379 327.712 75.801 327.712H133.735H133.723Z" fill="#F9F9F9"/>
<path d="M133.723 329.85V332.378L117.037 332.051L81.4047 331.372L75.9266 331.258L68.5765 331.108L75.9895 330.957L81.4047 330.856L117.54 330.164L133.723 329.85Z" fill="#CBCACC"/>
<path d="M133.723 333.798V336.326L115.969 335.999L81.4047 335.345L75.0848 335.232L66.6918 335.068L75.1602 334.905L81.4047 334.779L116.472 334.125L133.723 333.798Z" fill="#CBCACC"/>
<path d="M133.723 337.747V340.274L114.914 339.922L81.4047 339.293L74.2556 339.155L66.6918 339.017L74.3184 338.866L81.4047 338.728L115.404 338.086L133.723 337.747Z" fill="#CBCACC"/>
<path d="M133.723 341.695V344.223L113.859 343.833L81.4047 343.204L73.4263 343.053L68.5765 342.953L73.464 342.852L81.4047 342.701L114.336 342.072L133.723 341.695Z" fill="#CBCACC"/>
<path d="M149.717 318.722H28.3578V323.211H149.717V318.722Z" fill="#FFC40E"/>
<path d="M149.717 295.56H28.3578V300.049H149.717V295.56Z" fill="#FFC40E"/>
<path d="M143.862 300.049H34.2254V318.722H143.862V300.049Z" fill="#F9F9F9"/>
<path d="M143.862 301.759V305.167L105.44 304.588L81.656 304.224L34.2254 303.507V303.406L81.9827 302.69L103.769 302.363L143.862 301.759Z" fill="#CBCACC"/>
<path d="M143.862 305.72V309.102L108.443 308.587L80.8142 308.185L34.2254 307.506V307.317L81.1408 306.638L106.697 306.261L143.862 305.72Z" fill="#CBCACC"/>
<path d="M143.862 309.656V313.051L111.434 312.573L79.9849 312.12L34.2254 311.454V311.265L80.3116 310.586L109.612 310.159L143.862 309.656Z" fill="#CBCACC"/>
<path d="M143.862 313.604V316.999L114.411 316.559L79.1557 316.031L34.2254 315.352V315.251L79.4572 314.572L112.552 314.069L143.862 313.604Z" fill="#CBCACC"/>
<path d="M167.194 364.681C167.194 368.491 165.649 371.949 163.161 374.451C163.073 374.527 162.998 374.615 162.91 374.678C160.447 377.042 157.067 378.5 153.386 378.5H22.8044V350.862H153.386C157.067 350.862 160.447 352.308 162.91 354.672C165.548 357.187 167.194 360.758 167.194 364.681Z" fill="#D3562E"/>
<path d="M167.194 364.681C167.194 368.491 165.649 371.949 163.161 374.451C163.073 374.527 162.998 374.615 162.91 374.678H66.4531V354.672H162.91C165.548 357.187 167.194 360.758 167.194 364.681Z" fill="#F1582E"/>
<g style="mix-blend-mode:overlay">
<path d="M110.554 374.678C109.524 377.104 108.506 378.5 108.506 378.5H97.3615C98.241 377.193 98.9698 375.91 99.5854 374.678C104.071 365.674 102.149 358.683 100.025 354.672C98.731 352.207 97.3615 350.862 97.3615 350.862H108.506C109.285 352.157 109.926 353.427 110.454 354.672C110.554 354.911 110.655 355.162 110.743 355.401C113.959 363.575 112.263 370.591 110.554 374.678Z" fill="#FEC10F"/>
</g>
<g style="mix-blend-mode:overlay">
<path d="M152.595 374.678C151.564 377.104 150.547 378.5 150.547 378.5H139.402C140.281 377.193 141.01 375.91 141.626 374.678C146.111 365.674 144.189 358.683 142.066 354.672C140.771 352.207 139.402 350.862 139.402 350.862H150.547C151.326 352.157 151.966 353.427 152.494 354.672C156.1 363.16 154.354 370.465 152.595 374.678Z" fill="#FEC10F"/>
</g>
<path d="M90.9913 364.681C90.9913 365.347 90.9285 366.014 90.7903 366.655C90.5139 368.101 89.8857 369.447 89.0313 370.604C88.7549 371.006 88.4156 371.396 88.0638 371.748C86.2546 373.559 83.7542 374.678 81.0026 374.678H22.8044V354.672H80.9901C84.2945 354.672 87.222 356.281 89.0313 358.759C89.8857 359.915 90.5013 361.261 90.7903 362.707C90.916 363.336 90.9788 364.002 90.9788 364.668L90.9913 364.681Z" fill="#F9F9F9"/>
<path d="M89.0313 370.604L22.8044 371.899V369.321L89.0313 370.604Z" fill="#CBCACC"/>
<path d="M90.7903 366.655L22.8044 367.951V365.373L90.7903 366.655Z" fill="#CBCACC"/>
<path d="M90.8029 362.719L22.8044 364.015V361.424L90.8029 362.719Z" fill="#CBCACC"/>
<path d="M89.0439 358.771L22.8044 360.054V357.476L89.0439 358.771Z" fill="#CBCACC"/>
<g style="mix-blend-mode:overlay">
<path d="M105.44 304.588L103.769 302.363L102.035 300.049L98.6682 295.56H149.717V300.049H143.862V318.722H149.717V323.211H119.399L116.032 318.722L114.411 316.559L112.552 314.069L111.434 312.573L109.612 310.159L108.443 308.587L106.697 306.261L105.44 304.588Z" fill="#232323"/>
</g>
<g style="mix-blend-mode:overlay">
<path d="M167.194 364.681C167.194 368.491 165.649 371.949 163.161 374.451C163.073 374.527 162.998 374.615 162.91 374.678C160.447 377.042 157.067 378.5 153.386 378.5H104.523L105.553 374.678L110.743 355.401L110.944 354.672L111.961 350.862L113.167 346.385L113.859 343.833L114.336 342.072L114.914 339.922L115.404 338.086L115.969 335.999L116.472 334.125L117.037 332.051L117.54 330.164L118.206 327.712L119.412 323.223H133.723V350.862H153.386C157.067 350.862 160.447 352.308 162.91 354.672C165.548 357.187 167.194 360.758 167.194 364.681Z" fill="#232323"/>
</g>
<path d="M185.714 248.871L140.684 266.249L100.101 281.917L94.9994 283.891L49.3153 266.249L4.28448 248.871L94.9994 213.852L130.092 227.407L185.714 248.871Z" fill="black"/>
<path d="M131.273 225.294C130.896 225.973 130.506 226.678 130.092 227.407L94.9994 213.852V211.287L131.273 225.294Z" fill="#3F3F3F"/>
<path d="M94.9994 211.287V213.852L4.29706 248.871V246.306L94.9994 211.287Z" fill="#4F4F4F"/>
<path d="M140.684 247.249V294.466C140.684 296.365 128.597 297.999 111.547 298.641C109.335 298.729 107.212 299.659 105.641 301.231L97.9269 308.952C96.3061 310.574 93.6927 310.574 92.0719 308.952L87.7246 304.601L84.3573 301.231C82.7868 299.659 80.6634 298.729 78.4521 298.641C61.4022 297.999 49.3152 296.365 49.3152 294.466V247.249C49.3152 241.993 69.7701 237.743 94.9994 237.743C105.667 237.743 115.467 238.498 123.244 239.78C133.861 241.515 140.684 244.219 140.684 247.249Z" fill="#3A3A3A"/>
<path d="M89.5967 301.155C88.9433 302.363 88.3151 303.507 87.7246 304.601L84.3573 301.231C82.7868 299.659 80.6634 298.729 78.4521 298.641C61.4022 297.999 49.3152 296.365 49.3152 294.466V289.147C49.3152 291.046 61.4022 292.668 78.4521 293.322C80.6634 293.41 82.7868 294.328 84.3573 295.899L89.5967 301.155Z" fill="#FCDE32"/>
<path d="M140.684 289.147V294.466C140.684 296.365 128.597 297.999 111.547 298.641C109.335 298.729 107.212 299.659 105.641 301.231L97.9269 308.952C96.3061 310.574 93.6927 310.574 92.0719 308.952L87.7246 304.601C88.3151 303.507 88.9434 302.363 89.5967 301.155L92.0719 303.633C93.6927 305.255 96.3061 305.255 97.9269 303.633L105.641 295.899C107.212 294.328 109.335 293.41 111.547 293.322C128.597 292.668 140.684 291.046 140.684 289.147Z" fill="#B79B13"/>
<path d="M185.714 246.306V248.871L130.092 227.407C130.506 226.678 130.896 225.973 131.273 225.294L185.714 246.306Z" fill="#2B2B2A"/>
<g style="mix-blend-mode:multiply">
<path d="M185.714 248.871L140.684 266.249V289.147C140.684 291.046 128.597 292.668 111.547 293.322C109.335 293.41 107.212 294.328 105.641 295.899L97.9269 303.633C96.3061 305.255 93.6927 305.255 92.0719 303.633L89.5967 301.156C92.587 295.661 96.2181 289.021 100.101 281.917C107.689 268.06 116.283 252.38 123.244 239.78C125.795 235.165 128.119 230.953 130.092 227.407L185.714 248.871Z" fill="#3A3A3A"/>
</g>
<path d="M126.674 226.087C126.134 224.879 125.531 223.811 124.852 222.817C123.96 221.484 122.968 220.353 121.875 219.422C116.623 214.908 111.22 217.435 111.032 217.473L116.145 219.447C116.145 219.447 116.12 219.447 116.108 219.435L118.017 220.177C118.017 220.177 117.955 220.152 117.917 220.126L118.055 220.177C118.671 220.541 119.324 221.032 119.977 221.686C120.731 222.44 121.623 223.257 122.44 224.439C125.531 228.966 128.157 237.705 127.34 254.505L127.428 316.182H130.393L130.305 254.58C130.908 242.043 129.677 232.55 126.687 226.099L126.674 226.087Z" fill="#FCDE32"/>
<path d="M131.964 304.739C131.964 303.079 130.619 301.734 128.961 301.734C127.302 301.734 125.958 303.079 125.958 304.739C125.958 306.399 127.302 307.744 128.961 307.744C130.619 307.744 131.964 306.399 131.964 304.739Z" fill="#FAA821"/>
<path d="M132.052 318.671H125.883V310.838C125.883 309.128 127.265 307.744 128.974 307.744C130.682 307.744 132.064 309.128 132.064 310.838V318.671H132.052Z" fill="#FAA821"/>
<path d="M402.287 63.4126V236.876C402.287 238.209 401.332 239.34 400.075 239.617H400.05C399.874 239.655 399.673 239.667 399.485 239.667H276.479V63.4126H402.287Z" fill="#F9F9F9"/>
<path d="M396.67 227.558V75.5091C396.67 71.9257 393.768 69.0208 390.187 69.0208H288.579C284.998 69.0208 282.096 71.9257 282.096 75.5091V227.558C282.096 231.142 284.998 234.046 288.579 234.046H390.187C393.768 234.046 396.67 231.142 396.67 227.558Z" stroke="#A8BBC1" stroke-width="0.89" stroke-miterlimit="10"/>
<path d="M263.061 76.8293H276.479V63.3999C269.066 63.3999 263.061 69.4104 263.061 76.8293Z" fill="#A8BBC1"/>
<path d="M412.213 226.25C412.213 233.229 406.873 238.975 400.075 239.617H400.05C399.636 239.655 399.221 239.667 398.806 239.667H276.479C281.028 239.667 285.036 237.404 287.461 233.946C288.994 231.77 289.886 229.117 289.886 226.25H412.213Z" fill="#A8BBC1"/>
<path d="M362.407 91.6418H316.359V97.7027H362.407V91.6418Z" fill="#A8BBC1"/>
<path d="M383.415 164.296H356.527V170.357H383.415V164.296Z" fill="#A8BBC1"/>
<path d="M383.415 123.43H295.339V127.554H383.415V123.43Z" fill="#A8BBC1"/>
<path d="M383.415 131.741H295.339V135.866H383.415V131.741Z" fill="#A8BBC1"/>
<path d="M383.415 140.041H295.339V144.165H383.415V140.041Z" fill="#A8BBC1"/>
<path d="M383.415 148.352H295.339V152.476H383.415V148.352Z" fill="#A8BBC1"/>
<path d="M417.452 137.01L407.199 130.107L402.287 137.676L400.465 140.481L397.902 127.919V127.906L396.67 121.833L393.956 108.554L393.856 108.026L392.738 102.493L392.499 101.349L396.67 100.494L402.287 99.3624L402.726 99.2493L409.499 97.8787L409.612 98.4697L410.454 102.619L410.768 104.128L417.452 137.01Z" fill="#B51A06"/>
<path d="M396.369 136.985L389.282 126.85L379.269 134.093L385.903 94.7224L403.003 97.6145L396.369 136.985Z" fill="#EF4323"/>
<path d="M423.734 89.4916L419.425 91.9436L420.405 96.8098L415.567 97.9415L415.14 102.871L410.454 102.619L410.19 102.607L408.38 107.221L403.719 105.574L402.287 107.423L401.106 108.944L400.678 109.497L396.67 106.58L393.957 108.554L392.65 109.497L389.609 105.574L384.935 107.221L384.458 105.977L384.144 105.184L383.139 102.607L378.188 102.883L377.761 97.9415L372.936 96.8098L373.904 91.9436L369.594 89.4916L371.893 85.1157L368.451 81.5446L371.893 77.9735L369.594 73.585L373.891 71.1456L373.477 69.0331L372.936 66.2793L377.761 65.1476L377.912 63.4124L378.188 60.2185L383.139 60.4825L384.935 55.8678L389.609 57.515L392.65 53.5918L396.67 56.509L399.234 54.6355L400.678 53.5918L403.706 57.515L408.38 55.8678L410.19 60.4825L415.128 60.2185L415.567 65.1476L420.405 66.2667L419.425 71.1456L423.734 73.585L421.422 77.9735L424.865 81.5446L421.422 85.1157L423.734 89.4916Z" fill="#FCDE32"/>
<path d="M396.658 102.858C408.42 102.858 417.954 93.3156 417.954 81.5445C417.954 69.7733 408.42 60.231 396.658 60.231C384.896 60.231 375.361 69.7733 375.361 81.5445C375.361 93.3156 384.896 102.858 396.658 102.858Z" fill="white"/>
<g style="mix-blend-mode:overlay">
<path d="M423.734 89.4916L419.425 91.9436L420.405 96.7973L415.58 97.9289L415.153 102.858L410.466 102.594L410.768 104.103L417.465 136.985L407.212 130.082L402.287 137.664V226.238H412.213C412.213 233.216 406.873 238.963 400.075 239.604H400.05C399.874 239.642 399.673 239.654 399.485 239.654H346.136L347.745 234.034L349.981 226.238L366.013 170.332L367.747 164.284L371.14 152.464L372.321 148.34L373.527 144.152L374.708 140.028L375.914 135.841L377.095 131.729L378.301 127.542L379.482 123.43L383.39 109.774L384.483 105.977L384.671 105.285L386.179 100.067L387.624 94.9991L394.572 70.7306L396.67 63.3998L397.575 60.2436L399.246 54.6355L400.679 53.5918L403.707 57.515L408.38 55.8678L410.19 60.4825L415.128 60.2185L415.567 65.1476L420.392 66.2667L419.412 71.133L423.722 73.585L421.41 77.9735L424.852 81.5446L421.41 85.1031L423.722 89.4916H423.734Z" fill="#2B2B2A"/>
</g>
<path d="M225.543 94.0812V179.285C225.543 183.12 222.427 186.239 218.595 186.239H88.4408C84.6086 186.239 81.5052 183.12 81.5052 179.285V94.0812C81.5052 90.246 84.6086 87.1401 88.4408 87.1401H218.595C218.809 87.1401 219.023 87.1527 219.224 87.1779C222.541 87.5174 225.167 90.1454 225.506 93.4525C225.531 93.6662 225.543 93.8674 225.543 94.0812Z" fill="white"/>
<path d="M221.774 94.1818V179.298C221.774 181.045 220.354 182.466 218.608 182.466H88.4534C86.7069 182.466 85.2871 181.045 85.2871 179.298V94.0938C85.2871 92.3459 86.7069 90.925 88.4534 90.925L218.52 90.925C220.317 90.925 221.774 92.3837 221.774 94.1818Z" fill="#C1152E"/>
<path d="M225.543 94.0812V94.3955H81.5052V94.0812C81.5052 90.246 84.6086 87.1401 88.4408 87.1401H218.595C218.809 87.1401 219.023 87.1527 219.224 87.1779C222.566 87.4671 225.217 90.1203 225.506 93.4525C225.531 93.6662 225.543 93.8674 225.543 94.0812Z" fill="#4C4C4E"/>
<path d="M89.3077 90.7742C89.3077 89.9317 88.6293 89.2527 87.7874 89.2527C86.9456 89.2527 86.2672 89.9317 86.2672 90.7742C86.2672 91.6167 86.9456 92.2957 87.7874 92.2957C88.6293 92.2957 89.3077 91.6167 89.3077 90.7742Z" fill="#F9195F"/>
<path d="M94.5219 92.2957C95.3616 92.2957 96.0422 91.6145 96.0422 90.7742C96.0422 89.9339 95.3616 89.2527 94.5219 89.2527C93.6823 89.2527 93.0016 89.9339 93.0016 90.7742C93.0016 91.6145 93.6823 92.2957 94.5219 92.2957Z" fill="#F7D71C"/>
<path d="M102.802 90.7742C102.802 89.9317 102.123 89.2527 101.282 89.2527C100.44 89.2527 99.7613 89.9317 99.7613 90.7742C99.7613 91.6167 100.44 92.2957 101.282 92.2957C102.123 92.2957 102.802 91.6167 102.802 90.7742Z" fill="#52F71C"/>
<path d="M138.861 114V105.272H144.452V106.598H140.442V108.967H144.068V110.292H140.442V114H138.861ZM145.73 114V107.454H147.226V108.545H147.294C147.414 108.167 147.618 107.876 147.908 107.671C148.2 107.464 148.534 107.36 148.909 107.36C148.995 107.36 149.09 107.365 149.195 107.373C149.303 107.379 149.392 107.389 149.463 107.403V108.822C149.398 108.799 149.294 108.779 149.152 108.762C149.013 108.742 148.878 108.732 148.747 108.732C148.466 108.732 148.213 108.794 147.989 108.916C147.767 109.035 147.593 109.201 147.465 109.414C147.337 109.627 147.273 109.873 147.273 110.152V114H145.73ZM153.116 114.127C152.46 114.127 151.893 113.991 151.416 113.718C150.942 113.443 150.577 113.053 150.321 112.551C150.065 112.045 149.937 111.45 149.937 110.765C149.937 110.092 150.065 109.501 150.321 108.992C150.579 108.481 150.94 108.083 151.403 107.799C151.866 107.512 152.41 107.369 153.035 107.369C153.439 107.369 153.819 107.434 154.177 107.565C154.538 107.693 154.856 107.892 155.132 108.161C155.41 108.431 155.629 108.775 155.788 109.193C155.947 109.607 156.027 110.102 156.027 110.676V111.149H150.662V110.109H154.548C154.545 109.813 154.481 109.551 154.356 109.321C154.231 109.088 154.057 108.904 153.832 108.771C153.611 108.637 153.352 108.571 153.057 108.571C152.741 108.571 152.464 108.647 152.226 108.801C151.987 108.951 151.801 109.15 151.667 109.397C151.537 109.642 151.47 109.91 151.467 110.203V111.11C151.467 111.491 151.537 111.818 151.676 112.09C151.815 112.36 152.01 112.568 152.26 112.713C152.51 112.855 152.802 112.926 153.138 112.926C153.362 112.926 153.565 112.894 153.747 112.832C153.929 112.767 154.086 112.671 154.22 112.546C154.354 112.421 154.454 112.267 154.523 112.082L155.963 112.244C155.872 112.625 155.699 112.957 155.443 113.241C155.19 113.522 154.866 113.741 154.471 113.897C154.077 114.051 153.625 114.127 153.116 114.127ZM160.23 114.127C159.573 114.127 159.007 113.991 158.529 113.718C158.055 113.443 157.69 113.053 157.434 112.551C157.178 112.045 157.051 111.45 157.051 110.765C157.051 110.092 157.178 109.501 157.434 108.992C157.693 108.481 158.053 108.083 158.517 107.799C158.98 107.512 159.524 107.369 160.149 107.369C160.552 107.369 160.933 107.434 161.291 107.565C161.651 107.693 161.97 107.892 162.245 108.161C162.524 108.431 162.742 108.775 162.901 109.193C163.061 109.607 163.14 110.102 163.14 110.676V111.149H157.775V110.109H161.661C161.659 109.813 161.595 109.551 161.47 109.321C161.345 109.088 161.17 108.904 160.945 108.771C160.724 108.637 160.465 108.571 160.17 108.571C159.855 108.571 159.578 108.647 159.339 108.801C159.1 108.951 158.914 109.15 158.781 109.397C158.65 109.642 158.583 109.91 158.58 110.203V111.11C158.58 111.491 158.65 111.818 158.789 112.09C158.928 112.36 159.123 112.568 159.373 112.713C159.623 112.855 159.916 112.926 160.251 112.926C160.475 112.926 160.678 112.894 160.86 112.832C161.042 112.767 161.2 112.671 161.333 112.546C161.467 112.421 161.568 112.267 161.636 112.082L163.076 112.244C162.985 112.625 162.812 112.957 162.556 113.241C162.303 113.522 161.98 113.741 161.585 113.897C161.19 114.051 160.738 114.127 160.23 114.127Z" fill="#F9F9F9"/>
<path d="M136.331 119.217H134.737C134.692 118.955 134.608 118.724 134.486 118.522C134.364 118.318 134.212 118.144 134.03 118.002C133.848 117.86 133.641 117.754 133.408 117.683C133.178 117.609 132.929 117.572 132.662 117.572C132.188 117.572 131.767 117.691 131.401 117.93C131.034 118.166 130.747 118.512 130.54 118.97C130.333 119.424 130.229 119.98 130.229 120.636C130.229 121.303 130.333 121.866 130.54 122.323C130.75 122.778 131.037 123.122 131.401 123.355C131.767 123.585 132.186 123.7 132.658 123.7C132.919 123.7 133.164 123.666 133.391 123.598C133.621 123.527 133.827 123.423 134.009 123.286C134.193 123.15 134.348 122.982 134.473 122.784C134.601 122.585 134.689 122.357 134.737 122.102L136.331 122.11C136.271 122.525 136.142 122.914 135.943 123.278C135.747 123.642 135.49 123.963 135.172 124.241C134.854 124.517 134.482 124.732 134.056 124.889C133.629 125.042 133.156 125.119 132.637 125.119C131.87 125.119 131.185 124.941 130.583 124.586C129.98 124.231 129.506 123.718 129.159 123.048C128.813 122.377 128.639 121.573 128.639 120.636C128.639 119.696 128.814 118.892 129.164 118.224C129.513 117.553 129.989 117.041 130.591 116.686C131.193 116.33 131.875 116.153 132.637 116.153C133.122 116.153 133.574 116.221 133.992 116.357C134.409 116.494 134.781 116.694 135.108 116.958C135.435 117.22 135.703 117.541 135.914 117.921C136.127 118.299 136.266 118.731 136.331 119.217ZM139.253 116.272V125H137.711V116.272H139.253ZM142.723 125.132C142.308 125.132 141.935 125.058 141.602 124.91C141.273 124.759 141.012 124.538 140.818 124.245C140.628 123.953 140.533 123.592 140.533 123.163C140.533 122.794 140.601 122.488 140.737 122.247C140.874 122.005 141.06 121.812 141.296 121.667C141.531 121.522 141.797 121.413 142.093 121.339C142.391 121.262 142.699 121.207 143.017 121.173C143.401 121.133 143.712 121.098 143.95 121.066C144.189 121.032 144.362 120.981 144.47 120.913C144.581 120.842 144.637 120.732 144.637 120.585V120.559C144.637 120.238 144.541 119.99 144.351 119.813C144.161 119.637 143.887 119.549 143.529 119.549C143.151 119.549 142.851 119.632 142.629 119.796C142.411 119.961 142.263 120.156 142.186 120.38L140.746 120.176C140.86 119.778 141.047 119.446 141.308 119.178C141.57 118.909 141.889 118.707 142.267 118.573C142.645 118.437 143.063 118.369 143.52 118.369C143.835 118.369 144.149 118.406 144.462 118.48C144.774 118.553 145.06 118.676 145.318 118.846C145.577 119.014 145.784 119.242 145.941 119.532C146.1 119.822 146.179 120.184 146.179 120.619V125H144.696V124.1H144.645C144.551 124.282 144.419 124.453 144.249 124.612C144.081 124.768 143.87 124.894 143.614 124.991C143.361 125.085 143.064 125.132 142.723 125.132ZM143.124 123.998C143.433 123.998 143.702 123.937 143.929 123.815C144.156 123.69 144.331 123.525 144.453 123.321C144.578 123.116 144.641 122.893 144.641 122.652V121.88C144.593 121.92 144.51 121.957 144.394 121.991C144.28 122.025 144.152 122.055 144.01 122.08C143.868 122.106 143.727 122.129 143.588 122.149C143.449 122.169 143.328 122.186 143.226 122.2C142.996 122.231 142.79 122.282 142.608 122.353C142.426 122.424 142.283 122.524 142.178 122.652C142.073 122.777 142.02 122.938 142.02 123.137C142.02 123.421 142.124 123.636 142.331 123.781C142.539 123.926 142.803 123.998 143.124 123.998ZM152.904 120.184L151.497 120.338C151.458 120.196 151.388 120.062 151.289 119.937C151.192 119.812 151.061 119.711 150.896 119.634C150.732 119.558 150.53 119.519 150.291 119.519C149.97 119.519 149.7 119.589 149.482 119.728C149.266 119.867 149.159 120.048 149.162 120.269C149.159 120.46 149.229 120.615 149.371 120.734C149.516 120.853 149.754 120.951 150.087 121.028L151.203 121.267C151.823 121.4 152.283 121.612 152.584 121.902C152.888 122.191 153.041 122.571 153.044 123.039C153.041 123.451 152.921 123.815 152.682 124.13C152.446 124.443 152.118 124.687 151.698 124.863C151.277 125.039 150.794 125.127 150.249 125.127C149.448 125.127 148.803 124.96 148.314 124.625C147.825 124.286 147.534 123.816 147.441 123.214L148.945 123.069C149.013 123.365 149.158 123.588 149.379 123.738C149.601 123.889 149.889 123.964 150.245 123.964C150.611 123.964 150.905 123.889 151.127 123.738C151.351 123.588 151.463 123.402 151.463 123.18C151.463 122.992 151.391 122.838 151.246 122.715C151.104 122.593 150.882 122.5 150.581 122.434L149.465 122.2C148.837 122.069 148.372 121.849 148.071 121.539C147.77 121.227 147.621 120.832 147.624 120.355C147.621 119.951 147.73 119.602 147.952 119.306C148.176 119.008 148.487 118.778 148.885 118.616C149.286 118.451 149.747 118.369 150.27 118.369C151.037 118.369 151.641 118.532 152.081 118.859C152.524 119.186 152.798 119.627 152.904 120.184ZM159.49 120.184L158.083 120.338C158.044 120.196 157.974 120.062 157.874 119.937C157.778 119.812 157.647 119.711 157.482 119.634C157.318 119.558 157.116 119.519 156.877 119.519C156.556 119.519 156.286 119.589 156.068 119.728C155.852 119.867 155.745 120.048 155.748 120.269C155.745 120.46 155.815 120.615 155.957 120.734C156.102 120.853 156.34 120.951 156.673 121.028L157.789 121.267C158.409 121.4 158.869 121.612 159.17 121.902C159.474 122.191 159.627 122.571 159.63 123.039C159.627 123.451 159.507 123.815 159.268 124.13C159.032 124.443 158.704 124.687 158.284 124.863C157.863 125.039 157.38 125.127 156.835 125.127C156.034 125.127 155.389 124.96 154.9 124.625C154.411 124.286 154.12 123.816 154.026 123.214L155.531 123.069C155.599 123.365 155.744 123.588 155.965 123.738C156.187 123.889 156.475 123.964 156.83 123.964C157.197 123.964 157.491 123.889 157.713 123.738C157.937 123.588 158.049 123.402 158.049 123.18C158.049 122.992 157.977 122.838 157.832 122.715C157.69 122.593 157.468 122.5 157.167 122.434L156.051 122.2C155.423 122.069 154.958 121.849 154.657 121.539C154.356 121.227 154.207 120.832 154.21 120.355C154.207 119.951 154.316 119.602 154.538 119.306C154.762 119.008 155.073 118.778 155.471 118.616C155.872 118.451 156.333 118.369 156.856 118.369C157.623 118.369 158.227 118.532 158.667 118.859C159.11 119.186 159.384 119.627 159.49 120.184ZM163.8 125.127C163.144 125.127 162.577 124.991 162.1 124.718C161.625 124.443 161.26 124.053 161.004 123.551C160.749 123.045 160.621 122.45 160.621 121.765C160.621 121.092 160.749 120.501 161.004 119.992C161.263 119.481 161.624 119.083 162.087 118.799C162.55 118.512 163.094 118.369 163.719 118.369C164.122 118.369 164.503 118.434 164.861 118.565C165.222 118.693 165.54 118.892 165.816 119.161C166.094 119.431 166.313 119.775 166.472 120.193C166.631 120.607 166.71 121.102 166.71 121.676V122.149H161.345V121.109H165.232C165.229 120.813 165.165 120.551 165.04 120.321C164.915 120.088 164.74 119.904 164.516 119.771C164.294 119.637 164.036 119.571 163.74 119.571C163.425 119.571 163.148 119.647 162.909 119.801C162.671 119.951 162.485 120.15 162.351 120.397C162.22 120.642 162.154 120.91 162.151 121.203V122.11C162.151 122.491 162.22 122.818 162.36 123.09C162.499 123.36 162.693 123.568 162.943 123.713C163.193 123.855 163.486 123.926 163.821 123.926C164.046 123.926 164.249 123.894 164.431 123.832C164.612 123.767 164.77 123.671 164.904 123.546C165.037 123.421 165.138 123.267 165.206 123.082L166.646 123.244C166.556 123.625 166.382 123.957 166.127 124.241C165.874 124.522 165.55 124.741 165.155 124.897C164.76 125.051 164.308 125.127 163.8 125.127ZM173.189 120.184L171.782 120.338C171.743 120.196 171.673 120.062 171.574 119.937C171.477 119.812 171.346 119.711 171.182 119.634C171.017 119.558 170.815 119.519 170.577 119.519C170.256 119.519 169.986 119.589 169.767 119.728C169.551 119.867 169.444 120.048 169.447 120.269C169.444 120.46 169.514 120.615 169.656 120.734C169.801 120.853 170.04 120.951 170.372 121.028L171.488 121.267C172.108 121.4 172.568 121.612 172.869 121.902C173.173 122.191 173.327 122.571 173.329 123.039C173.327 123.451 173.206 123.815 172.967 124.13C172.731 124.443 172.403 124.687 171.983 124.863C171.562 125.039 171.079 125.127 170.534 125.127C169.733 125.127 169.088 124.96 168.599 124.625C168.111 124.286 167.819 123.816 167.726 123.214L169.23 123.069C169.298 123.365 169.443 123.588 169.665 123.738C169.886 123.889 170.175 123.964 170.53 123.964C170.896 123.964 171.19 123.889 171.412 123.738C171.636 123.588 171.748 123.402 171.748 123.18C171.748 122.992 171.676 122.838 171.531 122.715C171.389 122.593 171.167 122.5 170.866 122.434L169.75 122.2C169.122 122.069 168.657 121.849 168.356 121.539C168.055 121.227 167.906 120.832 167.909 120.355C167.906 119.951 168.015 119.602 168.237 119.306C168.461 119.008 168.773 118.778 169.17 118.616C169.571 118.451 170.032 118.369 170.555 118.369C171.322 118.369 171.926 118.532 172.366 118.859C172.809 119.186 173.084 119.627 173.189 120.184Z" fill="#F9F9F9"/>
<path d="M206.735 134.923H94.9994V149.094H206.735V134.923Z" fill="#FEC10F"/>
<path d="M134.464 154.476H94.9994V176.632H134.464V154.476Z" fill="#F1582E"/>
<path d="M178.49 162.762H206.747V154.476H178.49V162.762Z" fill="#14ACC3"/>
<path d="M178.49 175.223H206.747V166.937H178.49V175.223Z" fill="#14ACC3"/>
<path d="M172.961 154.476H139.867V157.23H172.961V154.476Z" fill="#F6911D"/>
<path d="M172.961 160.009H139.867V162.762H172.961V160.009Z" fill="#F6911D"/>
<path d="M172.961 165.541H139.867V168.295H172.961V165.541Z" fill="#F6911D"/>
<path d="M172.961 171.074H139.867V173.828H172.961V171.074Z" fill="#F6911D"/>
<g style="mix-blend-mode:overlay">
<path d="M225.543 94.0812V179.285C225.543 183.12 222.427 186.239 218.595 186.239H141.324L143.787 182.466L149.403 173.828L151.2 171.074L153.009 168.295L154.806 165.541L156.615 162.762L158.412 160.008L160.221 157.217L162.018 154.476L165.523 149.094L174.746 134.923L201.143 94.3955L203.405 90.9124L205.868 87.1401H218.595C218.809 87.1401 219.023 87.1527 219.224 87.1779C222.566 87.4671 225.217 90.1203 225.506 93.4525C225.531 93.6662 225.543 93.8674 225.543 94.0812Z" fill="#4F4F4F"/>
</g>
<path d="M390.175 43.985C366.415 43.4191 365.963 42.9539 365.385 19.1758C364.82 42.9539 364.355 43.4065 340.595 43.985C364.355 44.5508 364.807 45.0161 365.385 68.7942C365.95 45.0161 366.415 44.5634 390.175 43.985Z" fill="white"/>
<path d="M168.652 76.8292C144.893 76.2634 144.44 75.7981 143.862 52.02C143.297 75.7981 142.832 76.2508 119.073 76.8292C142.832 77.3951 143.284 77.8603 143.862 101.638C144.428 77.8603 144.893 77.4076 168.652 76.8292Z" fill="#BAD9E0"/>
<path d="M458.399 125.492C434.64 124.926 434.188 124.461 433.61 100.683C433.044 124.461 432.579 124.913 408.82 125.492C432.579 126.058 433.032 126.523 433.61 150.301C434.175 126.523 434.64 126.07 458.399 125.492Z" fill="white"/>
<path d="M91.2426 163.077C67.4833 162.511 67.031 162.045 66.4531 138.267C65.8877 162.045 65.4228 162.498 41.6635 163.077C65.4228 163.642 65.8751 164.108 66.4531 187.886C67.0185 164.108 67.4833 163.655 91.2426 163.077Z" fill="#BAD9E0"/>
</g>
<defs>
<clipPath id="clip0_1_1120">
<rect width="500" height="389" fill="white"/>
</clipPath>
</defs>
</svg>
