<svg width="418" height="454" viewBox="0 0 418 454" fill="none" xmlns="http://www.w3.org/2000/svg">
<path d="M211.555 48.4619C289.477 48.4619 352.645 111.629 352.645 189.552C352.645 267.474 289.477 330.641 211.555 330.641C133.633 330.641 70.4653 267.474 70.4653 189.552C70.4653 111.629 133.633 48.4619 211.555 48.4619Z" fill="#F9F9FC"/>
<path d="M211.555 48.4619C133.633 48.4619 70.4653 111.629 70.4653 189.552C70.4653 267.474 133.633 330.641 211.555 330.641C212.09 330.641 212.625 330.625 213.16 330.625C137.746 329.763 76.8774 268.377 76.8774 192.762C76.8774 117.147 138.615 54.8823 214.765 54.8823" fill="#AAA5BA"/>
<path d="M214.765 54.8827C290.38 54.8827 351.767 115.751 352.628 191.165C352.628 190.63 352.645 190.095 352.645 189.56C352.645 111.638 289.477 48.4707 211.555 48.4707" fill="#AAA5BA"/>
<path d="M134.441 321.754L115.081 308.026L91.6188 341.114L110.979 354.842L134.441 321.754Z" fill="#AAA5BA"/>
<path d="M111.086 313.671C116.252 319.849 121.887 325.626 127.923 330.951L134.444 321.755L115.082 308.028L111.078 313.671H111.086Z" fill="#001552"/>
<path d="M58.6527 454L122.949 363.32L79.6528 332.623L15.3569 423.302" fill="#272454"/>
<path d="M58.6526 454L122.948 363.32L108.436 353.029L44.1399 443.709" fill="#001552"/>
<path d="M53.6375 189.552C53.6375 276.771 124.337 347.47 211.556 347.47C298.774 347.47 369.474 276.771 369.474 189.552C369.474 102.333 298.774 31.6338 211.556 31.6338" fill="#C0C0DE"/>
<path d="M211.556 31.6338C124.337 31.6338 53.6375 102.333 53.6375 189.552L211.556 31.6338Z" fill="#C0C0DE"/>
<path d="M211.555 48.4619C289.477 48.4619 352.645 111.629 352.645 189.552C352.645 267.474 289.477 330.641 211.555 330.641C133.633 330.641 70.4653 267.474 70.4653 189.552C70.4653 111.629 133.633 48.4619 211.555 48.4619Z" fill="#C0C0DE"/>
<path d="M71.9956 357.878C71.7365 357.878 71.4773 357.803 71.2516 357.636C70.6915 357.226 70.5745 356.44 70.9841 355.88L80.2385 343.282C80.6481 342.722 81.434 342.604 81.9941 343.014C82.5542 343.424 82.6712 344.21 82.2616 344.77L73.0072 357.368C72.7648 357.702 72.3802 357.878 71.9956 357.878Z" fill="white"/>
<path d="M23.5 420.519L62.6828 367.183C63.0924 366.622 63.8782 366.505 64.4383 366.915C64.9984 367.325 65.1155 368.11 64.7058 368.671L25.5231 422.007" fill="white"/>
<path d="M328.476 309.416C328.15 309.416 327.832 309.29 327.582 309.04C327.097 308.546 327.105 307.752 327.598 307.267C334.972 300.003 341.685 292.011 347.57 283.509C347.963 282.94 348.749 282.798 349.317 283.191C349.886 283.584 350.028 284.37 349.635 284.938C343.666 293.565 336.844 301.675 329.362 309.056C329.12 309.299 328.802 309.416 328.484 309.416H328.476Z" fill="#C1152E"/>
<path d="M211.555 357.36C206.439 357.36 201.272 357.126 196.206 356.666C195.512 356.599 195.011 355.997 195.069 355.303C195.128 354.618 195.746 354.108 196.432 354.166C201.431 354.618 206.514 354.852 211.555 354.852C246.993 354.852 280.783 343.8 309.257 322.9C309.817 322.491 310.603 322.608 311.013 323.168C311.422 323.728 311.305 324.514 310.745 324.923C281.828 346.149 247.536 357.36 211.555 357.36Z" fill="#C1152E"/>
<path d="M260.962 361.172C260.418 361.172 259.917 360.813 259.758 360.269C259.566 359.601 259.95 358.907 260.611 358.714C271.738 355.496 282.597 351.14 292.888 345.773C293.499 345.456 294.259 345.69 294.577 346.308C294.895 346.919 294.661 347.679 294.042 347.997C283.6 353.439 272.59 357.862 261.305 361.13C261.188 361.164 261.071 361.181 260.954 361.181L260.962 361.172Z" fill="#C1152E"/>
<path d="M366.246 51.0454L385.014 81.467L304.759 106.062L366.246 51.0454Z" fill="#FFCD4C"/>
<path d="M255.896 56.981L275.123 69.2282L243.306 102.133L255.896 56.981Z" fill="#C1152E"/>
<path d="M322.139 328.844L341.994 377.206L368.495 350.613L322.139 328.844Z" fill="#C1152E"/>
<path d="M43.4961 311.121L96.7819 267.015L30.5132 286.15" fill="#FFCD4C"/>
<path d="M43.7136 111.028L74.3525 142.954L31.6335 132.17" fill="#C1152E"/>
<path d="M179.846 395.372C175.44 395.372 171.862 391.803 171.862 387.388C171.862 382.974 175.432 379.405 179.846 379.405C184.26 379.405 187.83 382.974 187.83 387.388C187.83 391.803 184.26 395.372 179.846 395.372Z" stroke="#3919A4" stroke-width="2" stroke-miterlimit="10"/>
<path d="M388.218 296.17C389.428 291.071 386.276 285.957 381.177 284.747C376.078 283.537 370.964 286.69 369.754 291.788C368.544 296.887 371.696 302.001 376.795 303.211C381.894 304.421 387.008 301.269 388.218 296.17Z" stroke="#3919A4" stroke-width="2" stroke-miterlimit="10"/>
<path d="M232.271 380.701C232.271 382.849 230.532 384.588 228.383 384.588C226.235 384.588 224.496 382.849 224.496 380.701C224.496 378.552 226.235 376.813 228.383 376.813C230.532 376.813 232.271 378.552 232.271 380.701Z" fill="#272454"/>
<path d="M257.192 344.561L192.47 352.327L180.173 322.558L169.815 346.5L165.15 344.636L163.979 344.168L111.563 323.201L116.746 298.932C116.746 298.932 233.567 278.225 236.476 282.756C239.386 287.287 257.192 344.561 257.192 344.561Z" fill="#272454"/>
<path d="M242.228 298.071C239.561 290.205 237.354 284.11 236.476 282.748C233.567 278.217 116.738 298.924 116.738 298.924C116.738 298.924 206.297 303.522 242.219 298.063L242.228 298.071Z" fill="#001552"/>
<path d="M174.939 316.94L165.15 344.636L163.979 344.168L173.752 316.522C173.869 316.196 174.228 316.028 174.555 316.137C174.881 316.254 175.048 316.614 174.939 316.94Z" fill="#001552"/>
<path d="M162.8 334.078C162.758 334.078 162.708 334.078 162.666 334.061C162.332 333.986 162.115 333.651 162.19 333.317L164.991 320.585C165.066 320.25 165.392 320.033 165.735 320.108C166.069 320.183 166.286 320.518 166.211 320.852L163.411 333.584C163.344 333.877 163.084 334.078 162.8 334.078Z" fill="#001552"/>
<path d="M181.785 116.745C181.785 116.745 199.584 123.868 207.994 129.369C216.404 134.869 230.323 153.32 230.323 153.32L202.493 162.056L181.785 116.753V116.745Z" fill="#C1152E"/>
<path d="M122.247 130.656C122.247 130.656 99.2737 143.923 95.3863 148.455C91.499 152.986 108.979 220.943 111.889 231.945C114.798 242.946 116.746 298.932 116.746 298.932C116.746 298.932 208.972 295.697 242.303 284.695C242.303 284.695 231.945 258.161 229.036 243.924C226.126 229.687 207.033 161.078 204.441 153.964C201.849 146.849 187.939 118.693 181.786 116.745C175.641 114.806 147.485 119.655 142.302 122.246C137.127 124.838 122.238 130.656 122.238 130.656H122.247Z" fill="#C1152E"/>
<path d="M187.612 196.674C187.612 196.674 131.568 209.131 107.642 215.317C109.581 223.1 111.178 229.244 111.888 231.945C112.574 234.536 113.209 239.636 113.769 245.906C137.771 237.964 200.553 208.646 200.553 208.646L187.612 196.674Z" fill="#3D0B34"/>
<path d="M122.246 130.656C122.246 130.656 119.337 132.337 115.425 134.694C116.762 138.782 123.132 153.671 144.032 150.503C166.604 147.075 165.835 123.701 163.87 117.473C154.708 118.76 145.119 120.833 142.302 122.246C137.127 124.838 122.238 130.656 122.238 130.656H122.246Z" fill="#EAADA9"/>
<path d="M142.461 158.352C137.629 158.352 133.942 157.558 133.591 157.483C133.256 157.407 133.039 157.073 133.114 156.73C133.19 156.396 133.524 156.179 133.867 156.254C134.059 156.296 153.17 160.4 161.881 149.516C163.837 147.075 165.475 144.558 166.763 142.059C166.922 141.749 167.298 141.624 167.607 141.783C167.916 141.942 168.033 142.318 167.883 142.627C166.562 145.21 164.873 147.785 162.867 150.302C157.584 156.906 148.99 158.352 142.469 158.352H142.461Z" fill="white"/>
<path d="M169.588 137.428C169.53 137.428 169.463 137.419 169.405 137.403C169.07 137.302 168.886 136.951 168.987 136.617C170.207 132.604 169.998 130.096 169.998 130.071C169.965 129.728 170.224 129.419 170.567 129.394C170.909 129.369 171.219 129.611 171.252 129.962C171.26 130.071 171.495 132.721 170.19 136.993C170.107 137.261 169.856 137.436 169.588 137.436V137.428Z" fill="white"/>
<path d="M205.411 155.878C205.152 155.878 204.909 155.71 204.817 155.451C201.323 145.277 189.46 125.673 189.343 125.481C189.168 125.188 189.259 124.796 189.552 124.62C189.845 124.436 190.229 124.536 190.413 124.829C190.53 125.03 202.46 144.742 206.004 155.05C206.113 155.376 205.946 155.735 205.611 155.844C205.545 155.869 205.478 155.878 205.411 155.878Z" fill="#3D0B34"/>
<path d="M93.2375 61.7378C93.2375 61.7378 90.8132 61.8465 89.6679 65.1403C88.5226 68.4341 87.9207 76.401 89.0743 80.397C90.228 84.3931 97.4593 97.1837 97.4593 97.1837L96.8406 76.8023L93.2292 61.7462L93.2375 61.7378Z" fill="#200700"/>
<path d="M96.4981 84.4016C96.4981 84.4016 91.4654 81.1747 89.7851 86.0903C88.0964 90.9975 91.85 101.046 99.2234 102.793C99.2234 102.793 100.787 92.9872 96.4981 84.4016Z" fill="#C99185"/>
<path d="M149.901 81.2834C149.901 81.2834 153.797 76.5852 156.522 79.996C159.239 83.3985 158.245 95.4952 149.316 98.6385L149.901 81.2834Z" fill="#C99185"/>
<path d="M141.507 110.434C141.507 110.434 146.406 119.538 153.646 124.437C153.646 124.437 140.103 140.546 124.696 141.015C124.696 141.015 119.797 129.344 118.86 123.509C118.86 123.509 138.239 115.341 141.507 110.434Z" fill="#EAADA9"/>
<path d="M140.337 124.671C142.502 121.912 143.973 118.409 144.91 115.659C142.753 112.741 141.507 110.434 141.507 110.434C138.239 115.333 118.86 123.509 118.86 123.509C119.237 125.883 120.282 129.227 121.377 132.354C127.471 131.016 137.478 128.333 140.337 124.679V124.671Z" fill="#C99185"/>
<path d="M148.688 55.3673C149.274 56.9222 149.859 61.3613 150.302 66.812C151.155 77.22 151.556 91.2228 150.895 95.361C149.859 101.832 143.28 116.879 136.157 122.656C130.472 127.279 127.279 127.99 126.309 128.065C125.356 128.14 109.773 125.49 104.239 115.843C101.179 110.476 99.5574 107.157 98.9137 103.721C98.9137 103.721 95.946 81.2077 95.319 78.3486C94.7171 75.4895 90.8799 60.8765 101.196 54.2471" fill="#EAADA9"/>
<path d="M147.075 65.2988C147.075 65.2988 147.585 69.3784 148.137 71.9449C148.688 74.5114 149.081 80.7562 149.182 82.913C149.282 85.0699 149.449 93.3713 150.436 93.7642C151.422 94.1487 152.659 81.0237 152.668 78.8669C152.668 76.71 154.432 63.2339 154.432 63.2339L147.075 65.2988Z" fill="#360700"/>
<path d="M130.64 107.901C130.64 107.901 130.481 108.453 130.121 109.239C129.243 111.053 127.195 114.071 123.107 114.029C119.195 113.97 117.372 111.613 116.612 110.066C116.236 109.314 116.11 108.762 116.11 108.762C116.11 108.762 123.709 109.974 130.64 107.893V107.901Z" fill="#C1152E"/>
<path d="M134.118 87.5279C134.268 89.4172 133.683 90.9973 132.822 91.0641C131.961 91.131 131.142 89.6597 130.991 87.7704C130.841 85.881 131.426 84.301 132.287 84.2341C133.148 84.1672 133.967 85.6386 134.118 87.5279Z" fill="#591808"/>
<path d="M116.11 108.77C116.11 108.77 116.236 109.322 116.612 110.074C116.72 110.3 116.854 110.543 117.013 110.785L118.133 110.275C121.101 110.618 126.276 110.869 130.121 109.238C130.481 108.453 130.64 107.901 130.64 107.901C123.709 109.982 116.11 108.77 116.11 108.77Z" fill="white"/>
<path d="M115.191 88.9996C115.341 90.8889 114.756 92.469 113.895 92.5358C113.034 92.6027 112.215 91.1314 112.064 89.242C111.914 87.3527 112.499 85.7727 113.36 85.7058C114.221 85.6389 115.04 87.1103 115.191 88.9996Z" fill="#591808"/>
<path d="M120.684 100.637C120.684 100.637 122.222 101.105 123.727 101.029C125.24 100.963 127.539 100.586 127.539 100.586C127.539 100.586 124.889 102.183 123.576 102.108C122.264 102.033 120.684 100.628 120.684 100.628V100.637Z" fill="#FE656D"/>
<path d="M137.729 78.3406C137.645 78.2737 137.537 78.2236 137.445 78.1651C137.436 78.1567 137.428 78.1484 137.42 78.14C136.843 77.6886 136.024 77.4461 135.313 77.3124C134.527 77.1619 133.716 77.1452 132.922 77.2288C132.88 77.2288 132.838 77.2455 132.797 77.2538C132.078 77.304 131.375 77.4712 130.715 77.7387C130.682 77.7471 130.648 77.7554 130.606 77.7722C129.971 77.9979 129.051 78.3323 128.667 78.9175C128.617 79.0011 128.692 79.1181 128.792 79.1097C129.118 79.0679 129.403 78.884 129.703 78.767C130.021 78.6332 130.339 78.4995 130.665 78.3741C131.375 78.1066 132.128 77.9226 132.88 77.8307C133.198 77.7972 133.507 77.7805 133.825 77.7805C134.368 77.8307 134.912 77.9226 135.43 78.0731C136.132 78.2737 136.751 78.6583 137.436 78.884C137.729 78.976 137.955 78.5329 137.712 78.349L137.729 78.3406Z" fill="#591808"/>
<path d="M108.369 79.6946C108.453 79.6193 108.545 79.5608 108.637 79.4939C108.637 79.4855 108.645 79.4772 108.662 79.4605C109.197 78.9505 109.982 78.6412 110.685 78.4406C111.454 78.2149 112.256 78.1229 113.051 78.1396C113.092 78.1396 113.134 78.148 113.176 78.148C113.895 78.1313 114.614 78.2316 115.291 78.4406C115.324 78.4489 115.366 78.4489 115.4 78.4656C116.052 78.6328 116.996 78.8753 117.439 79.427C117.498 79.5023 117.431 79.636 117.339 79.6277C117.013 79.6193 116.712 79.4605 116.403 79.3685C116.068 79.2682 115.742 79.1595 115.408 79.0676C114.672 78.8669 113.912 78.7499 113.151 78.7332C112.833 78.7332 112.516 78.7415 112.206 78.7666C111.671 78.8669 111.144 79.009 110.635 79.2097C109.949 79.4772 109.372 79.9119 108.703 80.1961C108.419 80.3132 108.152 79.8952 108.377 79.6862L108.369 79.6946Z" fill="#591808"/>
<path d="M102.409 46.2471C96.3978 49.4405 91.3484 59.23 92.9451 65.8008C94.5419 72.3717 95.6454 83.3064 95.6036 84.7945C95.5618 86.2742 97.3341 96.6488 97.3341 96.6488C97.3341 96.6488 97.1418 101.84 98.4459 101.999C99.7501 102.158 98.354 81.2666 98.354 81.2666C98.354 81.2666 100.185 83.5572 100.778 82.2364C101.364 80.9155 99.4659 72.5807 99.4659 72.5807C99.4659 72.5807 105.543 68.6265 111.755 67.4812C117.966 66.3275 135.806 66.9127 140.58 67.339C145.353 67.7654 154.934 64.8394 161.028 61.1026" fill="#200700"/>
<path d="M147.853 61.0938C142.895 62.331 135.054 62.6236 128.851 62.6236C123.726 62.6236 119.713 62.4313 119.354 62.4063C119.011 62.3895 118.744 62.0969 118.76 61.7458C118.777 61.4031 119.078 61.1439 119.421 61.1523" fill="white"/>
<path d="M119.412 61.1526C119.605 61.161 138.682 62.0889 147.543 59.8735L119.412 61.1526Z" fill="white"/>
<path d="M230.633 154.197C230.633 154.197 223.435 152.776 224.02 146.49C224.02 146.49 226.16 145.478 226.938 145.879C227.715 146.289 235.297 147.911 236.66 148.513C238.023 149.123 241.325 153.988 241.325 153.988C241.325 153.988 232.38 155.209 230.633 154.189V154.197Z" fill="#EAADA9"/>
<path d="M399.251 151.154H184.804V253.847H399.251V151.154Z" fill="#272454"/>
<path d="M267.383 146.348C267.383 146.348 270.459 144.726 272.399 145.537C274.338 146.348 274.823 149.583 274.505 151.196C274.188 152.81 270.785 162.524 268.361 161.554C265.936 160.584 265.61 153.303 265.61 153.303L267.391 146.348H267.383Z" fill="#EAADA9"/>
<path d="M257.677 146.03C257.677 146.03 261.882 142.953 263.821 142.953C265.761 142.953 267.709 146.673 268.026 147.643C268.352 148.613 266.404 161.562 266.087 162.85C265.761 164.145 263.821 166.896 262.367 166.896C260.912 166.896 257.836 161.395 257.836 159.614C257.836 157.834 257.677 146.021 257.677 146.021V146.03Z" fill="#EAADA9"/>
<path d="M247.319 147.209C247.319 147.209 250.88 142.795 253.146 142.636C255.411 142.477 256.707 145.06 257.677 146.03C258.647 147 257.518 155.418 257.351 157.843C257.192 160.267 254.927 169.17 252.82 169.814C250.713 170.458 248.13 168.033 247.963 166.253C247.804 164.472 246.667 153.311 246.667 153.311L247.311 147.209H247.319Z" fill="#EAADA9"/>
<path d="M238.416 157.658C238.416 157.658 236.794 149.039 237.287 147.2C237.772 145.369 241.007 144.082 242.947 144.082C244.886 144.082 247.319 147.2 247.319 147.2C247.319 147.2 247.16 158.938 246.508 161.696C245.864 164.447 242.947 165.918 241.977 165.55C241.007 165.182 239.068 163.168 238.416 157.658Z" fill="#EAADA9"/>
<path d="M224.555 215.341C223.067 215.325 221.688 215.015 220.417 214.405C219.146 213.803 218.118 212.934 217.316 211.789L219.857 208.837C220.501 209.749 221.211 210.434 221.98 210.894C222.758 211.354 223.619 211.588 224.564 211.605C227.005 211.638 228.242 210.192 228.275 207.283L228.426 195.052L219.991 194.943L220.041 191.215L232.848 191.374L232.648 207.099C232.614 209.899 231.912 211.981 230.533 213.343C229.162 214.706 227.164 215.367 224.539 215.333L224.555 215.341Z" fill="#F9F9FC"/>
<path d="M249.861 215.659C248.03 215.634 246.333 215.308 244.77 214.681C243.206 214.054 241.86 213.176 240.715 212.056C239.57 210.936 238.7 209.631 238.09 208.143C237.48 206.655 237.179 205.042 237.204 203.303C237.229 201.539 237.563 199.926 238.215 198.454C238.867 196.983 239.779 195.704 240.941 194.625C242.103 193.547 243.474 192.711 245.037 192.117C246.6 191.524 248.314 191.24 250.162 191.265C251.992 191.29 253.681 191.607 255.236 192.226C256.791 192.845 258.129 193.706 259.257 194.818C260.386 195.93 261.255 197.234 261.865 198.73C262.476 200.227 262.777 201.857 262.752 203.621C262.727 205.385 262.392 206.998 261.74 208.469C261.088 209.941 260.185 211.22 259.031 212.315C257.878 213.41 256.515 214.246 254.952 214.823C253.389 215.4 251.692 215.684 249.861 215.659ZM249.911 211.797C251.106 211.813 252.21 211.621 253.221 211.228C254.233 210.835 255.111 210.267 255.871 209.531C256.624 208.795 257.217 207.918 257.652 206.914C258.078 205.903 258.304 204.791 258.321 203.57C258.338 202.35 258.145 201.23 257.752 200.21C257.36 199.19 256.791 198.295 256.039 197.543C255.286 196.791 254.417 196.205 253.414 195.779C252.41 195.361 251.315 195.144 250.12 195.127C248.924 195.11 247.804 195.303 246.776 195.695C245.739 196.088 244.853 196.657 244.092 197.409C243.34 198.162 242.738 199.031 242.295 200.034C241.852 201.037 241.626 202.141 241.61 203.361C241.593 204.557 241.793 205.669 242.211 206.689C242.629 207.709 243.206 208.603 243.942 209.372C244.678 210.141 245.555 210.735 246.584 211.153C247.604 211.571 248.715 211.788 249.911 211.805V211.797Z" fill="#F9F9FC"/>
<path d="M267.283 215.534L267.584 191.817L271.989 191.875L271.688 215.592L267.283 215.534Z" fill="#F9F9FC"/>
<path d="M278.092 215.676L278.393 191.959L282.021 192.001L296.667 210.484L294.87 210.459L295.104 192.16L299.443 192.21L299.142 215.927L295.514 215.885L280.901 197.401L282.698 197.426L282.472 215.726L278.1 215.668L278.092 215.676Z" fill="#F9F9FC"/>
<path d="M325.049 216.604C321.822 216.562 319.297 215.617 317.475 213.761C315.661 211.905 314.766 209.247 314.816 205.761L314.984 192.41L319.389 192.469L319.222 205.686C319.189 208.127 319.699 209.907 320.727 211.028C321.764 212.148 323.243 212.716 325.158 212.741C327.08 212.766 328.568 212.231 329.622 211.136C330.675 210.041 331.219 208.277 331.244 205.836L331.411 192.619L335.75 192.678L335.582 206.028C335.541 209.506 334.588 212.148 332.723 213.954C330.859 215.759 328.301 216.645 325.049 216.604Z" fill="#F9F9FC"/>
<path d="M348.967 216.905C347.111 216.88 345.347 216.595 343.675 216.044C341.995 215.492 340.657 214.79 339.654 213.945L341.217 210.543C342.153 211.304 343.324 211.939 344.72 212.449C346.116 212.967 347.546 213.226 349.017 213.252C350.262 213.268 351.266 213.143 352.035 212.884C352.804 212.625 353.372 212.265 353.74 211.805C354.108 211.345 354.292 210.827 354.3 210.234C354.309 209.515 354.058 208.929 353.54 208.478C353.021 208.035 352.361 207.676 351.533 207.4C350.714 207.132 349.803 206.881 348.8 206.656C347.796 206.43 346.793 206.154 345.798 205.82C344.795 205.494 343.884 205.076 343.048 204.582C342.22 204.089 341.551 203.429 341.058 202.609C340.565 201.79 340.323 200.745 340.331 199.483C340.348 198.195 340.707 197.017 341.409 195.955C342.112 194.893 343.173 194.049 344.595 193.422C346.016 192.795 347.813 192.494 349.978 192.527C351.399 192.544 352.812 192.745 354.208 193.121C355.604 193.497 356.817 194.032 357.845 194.726L356.415 198.129C355.362 197.485 354.275 197 353.147 196.682C352.018 196.365 350.94 196.197 349.903 196.181C348.708 196.164 347.721 196.298 346.952 196.582C346.183 196.866 345.614 197.251 345.263 197.727C344.904 198.212 344.728 198.739 344.72 199.332C344.712 200.06 344.954 200.636 345.456 201.088C345.957 201.531 346.618 201.89 347.445 202.15C348.264 202.409 349.184 202.66 350.196 202.894C351.207 203.136 352.21 203.412 353.197 203.73C354.183 204.047 355.094 204.457 355.922 204.95C356.75 205.443 357.419 206.095 357.912 206.906C358.413 207.717 358.647 208.737 358.639 209.983C358.622 211.245 358.263 212.416 357.561 213.477C356.858 214.539 355.788 215.383 354.359 216.01C352.929 216.637 351.132 216.938 348.958 216.905H348.967Z" fill="#F9F9FC"/>
<path d="M364.491 216.997C363.696 216.988 363.053 216.721 362.534 216.194C362.024 215.667 361.774 215.04 361.782 214.322C361.79 213.603 362.058 212.984 362.584 212.482C363.111 211.981 363.772 211.738 364.557 211.747C365.352 211.755 365.987 212.023 366.48 212.533C366.973 213.042 367.216 213.669 367.199 214.388C367.191 215.116 366.932 215.726 366.43 216.244C365.928 216.754 365.276 217.013 364.491 216.997ZM362.902 208.879L362.284 193.012L367.299 193.079L366.221 208.921L362.902 208.879Z" fill="#F9F9FC"/>
<path d="M63.6685 190.848C63.6685 190.848 64.797 199.818 73.8591 200.671C82.9213 201.523 83.2473 187.83 83.2473 187.83C83.2473 187.83 71.1087 183.892 63.6685 190.848Z" fill="#3D0B34"/>
<path d="M104.339 185.021C103.043 184.377 87.7279 164.096 79.1005 178.333C76.8517 182.045 74.6279 186.81 72.5714 191.817C72.5714 191.817 64.6462 209.406 63.3504 214.147C62.0547 218.895 62.272 222.13 62.272 222.13L106.496 206.598L106.713 199.91C106.713 199.91 105.635 185.673 104.339 185.021Z" fill="#EAADA9"/>
<path d="M95.3858 148.455C95.3858 148.455 71.7608 171.428 63.6685 190.848C63.6685 190.848 86.3237 184.653 106.705 200.67C106.705 200.67 111.88 176.285 110.592 169.162C109.297 162.039 95.3858 148.455 95.3858 148.455Z" fill="#C1152E"/>
<path d="M108.001 196.44C107.943 196.44 107.884 196.44 107.826 196.415C107.491 196.323 107.299 195.972 107.399 195.638C107.449 195.479 112.114 179.227 111.688 169.956C111.671 169.614 111.939 169.321 112.281 169.304C112.641 169.304 112.917 169.555 112.933 169.898C113.368 179.386 108.787 195.312 108.595 195.989C108.519 196.265 108.269 196.44 107.993 196.44H108.001Z" fill="#3D0B34"/>
<path d="M110.158 188.457C110.024 188.457 109.882 188.415 109.765 188.323C109.497 188.106 109.447 187.713 109.665 187.445L114.839 180.975C115.057 180.707 115.45 180.657 115.717 180.874C115.985 181.092 116.035 181.485 115.817 181.752L110.643 188.223C110.517 188.381 110.333 188.457 110.149 188.457H110.158Z" fill="#3D0B34"/>
<path d="M62.2637 222.13C62.2637 222.13 70.0301 229.253 74.3438 230.54C78.6575 231.828 142.519 222.13 176.384 208.963L173.793 193.648C173.793 193.648 133.665 198.823 126.543 199.257C119.42 199.692 93.538 199.475 81.8844 205.511C70.2307 211.555 62.2554 218.243 62.2554 222.122L62.2637 222.13Z" fill="#EAADA9"/>
<path d="M67.1291 215.768C66.9619 215.768 66.8031 215.701 66.6777 215.576C66.4353 215.325 66.4436 214.932 66.6944 214.69C66.8365 214.556 80.8644 201.314 101.965 200.043C102.316 200.027 102.608 200.286 102.625 200.628C102.642 200.971 102.383 201.272 102.04 201.289C81.4078 202.526 67.6976 215.451 67.5638 215.584C67.4384 215.701 67.288 215.76 67.1291 215.76V215.768Z" fill="#FE656D"/>
<path d="M173.158 193.782C173.158 193.782 177.53 187.88 181.033 185.255C184.536 182.63 190.22 174.755 191.09 172.13C191.968 169.505 191.968 168.193 193.054 167.975C194.141 167.758 196.331 169.07 196.774 171.035C197.209 172.999 195.679 177.154 195.245 178.91C194.81 180.657 195.462 181.97 195.462 181.97C195.462 181.97 215.141 178.467 219.956 177.38C224.772 176.285 229.579 175.415 230.674 176.728C231.769 178.04 231.986 179.353 230.674 180.231C229.361 181.109 216.019 185.263 216.019 185.263C216.019 185.263 218.209 189.201 217.549 190.513C216.897 191.826 214.924 194.016 214.924 194.016C214.924 194.016 217.114 196.206 216.019 198.171C214.924 200.136 213.177 201.231 213.177 201.231C213.177 201.231 213.177 205.168 211.647 206.481C210.117 207.793 208.804 208.228 203.989 209.106C199.174 209.984 179.712 209.54 175.774 209.323C171.837 209.106 173.149 193.799 173.149 193.799L173.158 193.782Z" fill="#EAADA9"/>
</svg>
