<svg width="500" height="544" viewBox="0 0 500 544" fill="none" xmlns="http://www.w3.org/2000/svg">
<g clip-path="url(#clip0_1_990)">
<path d="M253.06 57.97C346.27 57.97 421.83 133.53 421.83 226.74C421.83 319.95 346.27 395.51 253.06 395.51C159.85 395.51 84.29 319.95 84.29 226.74C84.29 133.53 159.85 57.97 253.06 57.97Z" fill="#F9F9FC"/>
<path d="M253.06 57.97C159.85 57.97 84.29 133.53 84.29 226.74C84.29 319.95 159.85 395.51 253.06 395.51C253.7 395.51 254.34 395.49 254.98 395.49C164.77 394.46 91.96 321.03 91.96 230.58C91.96 140.13 165.81 65.65 256.9 65.65" fill="#AAA5BA"/>
<path d="M256.9 65.65C347.35 65.65 420.78 138.46 421.81 228.67C421.81 228.03 421.83 227.39 421.83 226.75C421.83 133.54 346.27 57.98 253.06 57.98" fill="#AAA5BA"/>
<path d="M160.818 384.879L137.659 368.458L109.594 408.037L132.753 424.458L160.818 384.879Z" fill="#AAA5BA"/>
<path d="M132.88 375.21C139.06 382.6 145.8 389.51 153.02 395.88L160.82 384.88L137.66 368.46L132.87 375.21H132.88Z" fill="#001552"/>
<path d="M70.16 543.07L147.07 434.6L95.28 397.88L18.37 506.35" fill="#272454"/>
<path d="M70.16 543.07L147.07 434.6L129.71 422.29L52.8 530.76" fill="#001552"/>
<path d="M64.16 226.74C64.16 331.07 148.73 415.64 253.06 415.64C357.39 415.64 441.96 331.07 441.96 226.74C441.96 122.41 357.39 37.8401 253.06 37.8401" fill="#C0C0DE"/>
<path d="M253.06 37.8401C148.73 37.8401 64.16 122.41 64.16 226.74L253.06 37.8401Z" fill="#C0C0DE"/>
<path d="M253.06 57.97C346.27 57.97 421.83 133.53 421.83 226.74C421.83 319.95 346.27 395.51 253.06 395.51C159.85 395.51 84.29 319.95 84.29 226.74C84.29 133.53 159.85 57.97 253.06 57.97Z" fill="#C0C0DE"/>
<path d="M86.12 428.09C85.81 428.09 85.5 428 85.23 427.8C84.56 427.31 84.42 426.37 84.91 425.7L95.98 410.63C96.47 409.96 97.41 409.82 98.08 410.31C98.75 410.8 98.89 411.74 98.4 412.41L87.33 427.48C87.04 427.88 86.58 428.09 86.12 428.09Z" fill="white"/>
<path d="M28.11 503.02L74.98 439.22C75.47 438.55 76.41 438.41 77.08 438.9C77.75 439.39 77.89 440.33 77.4 441L30.53 504.8" fill="white"/>
<path d="M392.92 370.12C392.53 370.12 392.15 369.97 391.85 369.67C391.27 369.08 391.28 368.13 391.87 367.55C400.69 358.86 408.72 349.3 415.76 339.13C416.23 338.45 417.17 338.28 417.85 338.75C418.53 339.22 418.7 340.16 418.23 340.84C411.09 351.16 402.93 360.86 393.98 369.69C393.69 369.98 393.31 370.12 392.93 370.12H392.92Z" fill="#C1152E"/>
<path d="M253.06 427.47C246.94 427.47 240.76 427.19 234.7 426.64C233.87 426.56 233.27 425.84 233.34 425.01C233.41 424.19 234.15 423.58 234.97 423.65C240.95 424.19 247.03 424.47 253.06 424.47C295.45 424.47 335.87 411.25 369.93 386.25C370.6 385.76 371.54 385.9 372.03 386.57C372.52 387.24 372.38 388.18 371.71 388.67C337.12 414.06 296.1 427.47 253.06 427.47Z" fill="#C1152E"/>
<path d="M312.16 432.03C311.51 432.03 310.91 431.6 310.72 430.95C310.49 430.15 310.95 429.32 311.74 429.09C325.05 425.24 338.04 420.03 350.35 413.61C351.08 413.23 351.99 413.51 352.37 414.25C352.75 414.98 352.47 415.89 351.73 416.27C339.24 422.78 326.07 428.07 312.57 431.98C312.43 432.02 312.29 432.04 312.15 432.04L312.16 432.03Z" fill="#C1152E"/>
<path d="M438.1 61.0601L460.55 97.4501L364.55 126.87L438.1 61.0601Z" fill="#FFCD4C"/>
<path d="M306.1 68.1599L329.1 82.8099L291.04 122.17L306.1 68.1599Z" fill="#C1152E"/>
<path d="M385.34 393.36L409.09 451.21L440.79 419.4L385.34 393.36Z" fill="#C1152E"/>
<path d="M52.03 372.16L115.77 319.4L36.5 342.29" fill="#FFCD4C"/>
<path d="M52.29 132.81L88.94 171L37.84 158.1" fill="#C1152E"/>
<path d="M215.13 472.94C209.86 472.94 205.58 468.67 205.58 463.39C205.58 458.11 209.85 453.84 215.13 453.84C220.41 453.84 224.68 458.11 224.68 463.39C224.68 468.67 220.41 472.94 215.13 472.94Z" stroke="#3919A4" stroke-width="2" stroke-miterlimit="10"/>
<path d="M464.382 354.276C465.829 348.177 462.058 342.06 455.959 340.612C449.86 339.165 443.743 342.936 442.295 349.035C440.848 355.134 444.619 361.251 450.718 362.699C456.817 364.146 462.935 360.375 464.382 354.276Z" stroke="#3919A4" stroke-width="2" stroke-miterlimit="10"/>
<path d="M277.84 455.39C277.84 457.96 275.76 460.04 273.19 460.04C270.62 460.04 268.54 457.96 268.54 455.39C268.54 452.82 270.62 450.74 273.19 450.74C275.76 450.74 277.84 452.82 277.84 455.39Z" fill="#272454"/>
<path d="M307.65 412.16L230.23 421.45L215.52 385.84L203.13 414.48L197.55 412.25L196.15 411.69L133.45 386.61L139.65 357.58C139.65 357.58 279.39 332.81 282.87 338.23C286.35 343.65 307.65 412.16 307.65 412.16Z" fill="#272454"/>
<path d="M289.75 356.55C286.56 347.14 283.92 339.85 282.87 338.22C279.39 332.8 139.64 357.57 139.64 357.57C139.64 357.57 246.77 363.07 289.74 356.54L289.75 356.55Z" fill="#001552"/>
<path d="M209.26 379.12L197.55 412.25L196.15 411.69L207.84 378.62C207.98 378.23 208.41 378.03 208.8 378.16C209.19 378.3 209.39 378.73 209.26 379.12Z" fill="#001552"/>
<path d="M194.74 399.62C194.69 399.62 194.63 399.62 194.58 399.6C194.18 399.51 193.92 399.11 194.01 398.71L197.36 383.48C197.45 383.08 197.84 382.82 198.25 382.91C198.65 383 198.91 383.4 198.82 383.8L195.47 399.03C195.39 399.38 195.08 399.62 194.74 399.62Z" fill="#001552"/>
<path d="M217.45 139.65C217.45 139.65 238.74 148.17 248.8 154.75C258.86 161.33 275.51 183.4 275.51 183.4L242.22 193.85L217.45 139.66V139.65Z" fill="#C1152E"/>
<path d="M146.23 156.29C146.23 156.29 118.75 172.16 114.1 177.58C109.45 183 130.36 264.29 133.84 277.45C137.32 290.61 139.65 357.58 139.65 357.58C139.65 357.58 249.97 353.71 289.84 340.55C289.84 340.55 277.45 308.81 273.97 291.78C270.49 274.75 247.65 192.68 244.55 184.17C241.45 175.66 224.81 141.98 217.45 139.65C210.1 137.33 176.42 143.13 170.22 146.23C164.03 149.33 146.22 156.29 146.22 156.29H146.23Z" fill="#C1152E"/>
<path d="M224.42 235.26C224.42 235.26 157.38 250.16 128.76 257.56C131.08 266.87 132.99 274.22 133.84 277.45C134.66 280.55 135.42 286.65 136.09 294.15C164.8 284.65 239.9 249.58 239.9 249.58L224.42 235.26Z" fill="#3D0B34"/>
<path d="M146.23 156.29C146.23 156.29 142.75 158.3 138.07 161.12C139.67 166.01 147.29 183.82 172.29 180.03C199.29 175.93 198.37 147.97 196.02 140.52C185.06 142.06 173.59 144.54 170.22 146.23C164.03 149.33 146.22 156.29 146.22 156.29H146.23Z" fill="#EAADA9"/>
<path d="M170.41 189.42C164.63 189.42 160.22 188.47 159.8 188.38C159.4 188.29 159.14 187.89 159.23 187.48C159.32 187.08 159.72 186.82 160.13 186.91C160.36 186.96 183.22 191.87 193.64 178.85C195.98 175.93 197.94 172.92 199.48 169.93C199.67 169.56 200.12 169.41 200.49 169.6C200.86 169.79 201 170.24 200.82 170.61C199.24 173.7 197.22 176.78 194.82 179.79C188.5 187.69 178.22 189.42 170.42 189.42H170.41Z" fill="white"/>
<path d="M202.86 164.39C202.79 164.39 202.71 164.38 202.64 164.36C202.24 164.24 202.02 163.82 202.14 163.42C203.6 158.62 203.35 155.62 203.35 155.59C203.31 155.18 203.62 154.81 204.03 154.78C204.44 154.75 204.81 155.04 204.85 155.46C204.86 155.59 205.14 158.76 203.58 163.87C203.48 164.19 203.18 164.4 202.86 164.4V164.39Z" fill="white"/>
<path d="M245.71 186.46C245.4 186.46 245.11 186.26 245 185.95C240.82 173.78 226.63 150.33 226.49 150.1C226.28 149.75 226.39 149.28 226.74 149.07C227.09 148.85 227.55 148.97 227.77 149.32C227.91 149.56 242.18 173.14 246.42 185.47C246.55 185.86 246.35 186.29 245.95 186.42C245.87 186.45 245.79 186.46 245.71 186.46Z" fill="#3D0B34"/>
<path d="M111.53 73.8501C111.53 73.8501 108.63 73.9801 107.26 77.9201C105.89 81.8601 105.17 91.3901 106.55 96.1701C107.93 100.95 116.58 116.25 116.58 116.25L115.84 91.8701L111.52 73.8601L111.53 73.8501Z" fill="#200700"/>
<path d="M115.43 100.96C115.43 100.96 109.41 97.1001 107.4 102.98C105.38 108.85 109.87 120.87 118.69 122.96C118.69 122.96 120.56 111.23 115.43 100.96Z" fill="#C99185"/>
<path d="M179.31 97.2298C179.31 97.2298 183.97 91.6098 187.23 95.6898C190.48 99.7598 189.29 114.23 178.61 117.99L179.31 97.2298Z" fill="#C99185"/>
<path d="M169.27 132.1C169.27 132.1 175.13 142.99 183.79 148.85C183.79 148.85 167.59 168.12 149.16 168.68C149.16 168.68 143.3 154.72 142.18 147.74C142.18 147.74 165.36 137.97 169.27 132.1Z" fill="#EAADA9"/>
<path d="M167.87 149.13C170.46 145.83 172.22 141.64 173.34 138.35C170.76 134.86 169.27 132.1 169.27 132.1C165.36 137.96 142.18 147.74 142.18 147.74C142.63 150.58 143.88 154.58 145.19 158.32C152.48 156.72 164.45 153.51 167.87 149.14V149.13Z" fill="#C99185"/>
<path d="M177.86 66.2299C178.56 68.0899 179.26 73.3999 179.79 79.9199C180.81 92.3699 181.29 109.12 180.5 114.07C179.26 121.81 171.39 139.81 162.87 146.72C156.07 152.25 152.25 153.1 151.09 153.19C149.95 153.28 131.31 150.11 124.69 138.57C121.03 132.15 119.09 128.18 118.32 124.07C118.32 124.07 114.77 97.1399 114.02 93.7199C113.3 90.2999 108.71 72.8199 121.05 64.8899" fill="#EAADA9"/>
<path d="M175.93 78.1099C175.93 78.1099 176.54 82.9899 177.2 86.0599C177.86 89.1299 178.33 96.5999 178.45 99.1799C178.57 101.76 178.77 111.69 179.95 112.16C181.13 112.62 182.61 96.9199 182.62 94.3399C182.62 91.7599 184.73 75.6399 184.73 75.6399L175.93 78.1099Z" fill="#360700"/>
<path d="M156.27 129.07C156.27 129.07 156.08 129.73 155.65 130.67C154.6 132.84 152.15 136.45 147.26 136.4C142.58 136.33 140.4 133.51 139.49 131.66C139.04 130.76 138.89 130.1 138.89 130.1C138.89 130.1 147.98 131.55 156.27 129.06V129.07Z" fill="#C1152E"/>
<path d="M160.43 104.7C160.61 106.96 159.91 108.85 158.88 108.93C157.85 109.01 156.87 107.25 156.69 104.99C156.51 102.73 157.21 100.84 158.24 100.76C159.27 100.68 160.25 102.44 160.43 104.7Z" fill="#591808"/>
<path d="M138.89 130.11C138.89 130.11 139.04 130.77 139.49 131.67C139.62 131.94 139.78 132.23 139.97 132.52L141.31 131.91C144.86 132.32 151.05 132.62 155.65 130.67C156.08 129.73 156.27 129.07 156.27 129.07C147.98 131.56 138.89 130.11 138.89 130.11Z" fill="white"/>
<path d="M137.79 106.46C137.97 108.72 137.27 110.61 136.24 110.69C135.21 110.77 134.23 109.01 134.05 106.75C133.87 104.49 134.57 102.6 135.6 102.52C136.63 102.44 137.61 104.2 137.79 106.46Z" fill="#591808"/>
<path d="M144.36 120.38C144.36 120.38 146.2 120.94 148 120.85C149.81 120.77 152.56 120.32 152.56 120.32C152.56 120.32 149.39 122.23 147.82 122.14C146.25 122.05 144.36 120.37 144.36 120.37V120.38Z" fill="#FE656D"/>
<path d="M164.75 93.7102C164.65 93.6302 164.52 93.5702 164.41 93.5002C164.4 93.4902 164.39 93.4802 164.38 93.4702C163.69 92.9302 162.71 92.6402 161.86 92.4802C160.92 92.3002 159.95 92.2802 159 92.3802C158.95 92.3802 158.9 92.4002 158.85 92.4102C157.99 92.4702 157.15 92.6702 156.36 92.9902C156.32 93.0002 156.28 93.0102 156.23 93.0302C155.47 93.3002 154.37 93.7002 153.91 94.4002C153.85 94.5002 153.94 94.6402 154.06 94.6302C154.45 94.5802 154.79 94.3602 155.15 94.2202C155.53 94.0602 155.91 93.9002 156.3 93.7502C157.15 93.4302 158.05 93.2102 158.95 93.1002C159.33 93.0602 159.7 93.0402 160.08 93.0402C160.73 93.1002 161.38 93.2102 162 93.3902C162.84 93.6302 163.58 94.0902 164.4 94.3602C164.75 94.4702 165.02 93.9402 164.73 93.7202L164.75 93.7102Z" fill="#591808"/>
<path d="M129.63 95.3301C129.73 95.2401 129.84 95.1701 129.95 95.0901C129.95 95.0801 129.96 95.0701 129.98 95.0501C130.62 94.4401 131.56 94.0701 132.4 93.8301C133.32 93.5601 134.28 93.4501 135.23 93.4701C135.28 93.4701 135.33 93.4801 135.38 93.4801C136.24 93.4601 137.1 93.5801 137.91 93.8301C137.95 93.8401 138 93.8401 138.04 93.8601C138.82 94.0601 139.95 94.3501 140.48 95.0101C140.55 95.1001 140.47 95.2601 140.36 95.2501C139.97 95.2401 139.61 95.0501 139.24 94.9401C138.84 94.8201 138.45 94.6901 138.05 94.5801C137.17 94.3401 136.26 94.2001 135.35 94.1801C134.97 94.1801 134.59 94.1901 134.22 94.2201C133.58 94.3401 132.95 94.5101 132.34 94.7501C131.52 95.0701 130.83 95.5901 130.03 95.9301C129.69 96.0701 129.37 95.5701 129.64 95.3201L129.63 95.3301Z" fill="#591808"/>
<path d="M122.5 55.3201C115.31 59.1401 109.27 70.8501 111.18 78.7101C113.09 86.5701 114.41 99.6501 114.36 101.43C114.31 103.2 116.43 115.61 116.43 115.61C116.43 115.61 116.2 121.82 117.76 122.01C119.32 122.2 117.65 97.2101 117.65 97.2101C117.65 97.2101 119.84 99.9501 120.55 98.3701C121.25 96.7901 118.98 86.8201 118.98 86.8201C118.98 86.8201 126.25 82.0901 133.68 80.7201C141.11 79.3401 162.45 80.0401 168.16 80.5501C173.87 81.0601 185.33 77.5601 192.62 73.0901" fill="#200700"/>
<path d="M176.86 73.0801C170.93 74.5601 161.55 74.9101 154.13 74.9101C148 74.9101 143.2 74.6801 142.77 74.6501C142.36 74.6301 142.04 74.2801 142.06 73.8601C142.08 73.4501 142.44 73.1401 142.85 73.1501" fill="white"/>
<path d="M142.84 73.1501C143.07 73.1601 165.89 74.2701 176.49 71.6201L142.84 73.1501Z" fill="white"/>
<path d="M275.88 184.45C275.88 184.45 267.27 182.75 267.97 175.23C267.97 175.23 270.53 174.02 271.46 174.5C272.39 174.99 281.46 176.93 283.09 177.65C284.72 178.38 288.67 184.2 288.67 184.2C288.67 184.2 277.97 185.66 275.88 184.44V184.45Z" fill="#EAADA9"/>
<path d="M477.58 180.81H221.06V303.65H477.58V180.81Z" fill="#272454"/>
<path d="M319.84 175.06C319.84 175.06 323.52 173.12 325.84 174.09C328.16 175.06 328.74 178.93 328.36 180.86C327.98 182.79 323.91 194.41 321.01 193.25C318.11 192.09 317.72 183.38 317.72 183.38L319.85 175.06H319.84Z" fill="#EAADA9"/>
<path d="M308.23 174.68C308.23 174.68 313.26 171 315.58 171C317.9 171 320.23 175.45 320.61 176.61C321 177.77 318.67 193.26 318.29 194.8C317.9 196.35 315.58 199.64 313.84 199.64C312.1 199.64 308.42 193.06 308.42 190.93C308.42 188.8 308.23 174.67 308.23 174.67V174.68Z" fill="#EAADA9"/>
<path d="M295.84 176.09C295.84 176.09 300.1 170.81 302.81 170.62C305.52 170.43 307.07 173.52 308.23 174.68C309.39 175.84 308.04 185.91 307.84 188.81C307.65 191.71 304.94 202.36 302.42 203.13C299.9 203.9 296.81 201 296.61 198.87C296.42 196.74 295.06 183.39 295.06 183.39L295.83 176.09H295.84Z" fill="#EAADA9"/>
<path d="M285.19 188.59C285.19 188.59 283.25 178.28 283.84 176.08C284.42 173.89 288.29 172.35 290.61 172.35C292.93 172.35 295.84 176.08 295.84 176.08C295.84 176.08 295.65 190.12 294.87 193.42C294.1 196.71 290.61 198.47 289.45 198.03C288.29 197.59 285.97 195.18 285.19 188.59Z" fill="#EAADA9"/>
<path d="M268.61 257.59C266.83 257.57 265.18 257.2 263.66 256.47C262.14 255.75 260.91 254.71 259.95 253.34L262.99 249.81C263.76 250.9 264.61 251.72 265.53 252.27C266.46 252.82 267.49 253.1 268.62 253.12C271.54 253.16 273.02 251.43 273.06 247.95L273.24 233.32L263.15 233.19L263.21 228.73L278.53 228.92L278.29 247.73C278.25 251.08 277.41 253.57 275.76 255.2C274.12 256.83 271.73 257.62 268.59 257.58L268.61 257.59Z" fill="#F9F9FC"/>
<path d="M298.88 257.97C296.69 257.94 294.66 257.55 292.79 256.8C290.92 256.05 289.31 255 287.94 253.66C286.57 252.32 285.53 250.76 284.8 248.98C284.07 247.2 283.71 245.27 283.74 243.19C283.77 241.08 284.17 239.15 284.95 237.39C285.73 235.63 286.82 234.1 288.21 232.81C289.6 231.52 291.24 230.52 293.11 229.81C294.98 229.1 297.03 228.76 299.24 228.79C301.43 228.82 303.45 229.2 305.31 229.94C307.17 230.68 308.77 231.71 310.12 233.04C311.47 234.37 312.51 235.93 313.24 237.72C313.97 239.51 314.33 241.46 314.3 243.57C314.27 245.68 313.87 247.61 313.09 249.37C312.31 251.13 311.23 252.66 309.85 253.97C308.47 255.28 306.84 256.28 304.97 256.97C303.1 257.66 301.07 258 298.88 257.97ZM298.94 253.35C300.37 253.37 301.69 253.14 302.9 252.67C304.11 252.2 305.16 251.52 306.07 250.64C306.97 249.76 307.68 248.71 308.2 247.51C308.71 246.3 308.98 244.97 309 243.51C309.02 242.05 308.79 240.71 308.32 239.49C307.85 238.27 307.17 237.2 306.27 236.3C305.37 235.4 304.33 234.7 303.13 234.19C301.93 233.69 300.62 233.43 299.19 233.41C297.76 233.39 296.42 233.62 295.19 234.09C293.95 234.56 292.89 235.24 291.98 236.14C291.08 237.04 290.36 238.08 289.83 239.28C289.3 240.48 289.03 241.8 289.01 243.26C288.99 244.69 289.23 246.02 289.73 247.24C290.23 248.46 290.92 249.53 291.8 250.45C292.68 251.37 293.73 252.08 294.96 252.58C296.18 253.08 297.51 253.34 298.94 253.36V253.35Z" fill="#F9F9FC"/>
<path d="M319.72 257.82L320.08 229.45L325.35 229.52L324.99 257.89L319.72 257.82Z" fill="#F9F9FC"/>
<path d="M332.65 257.99L333.01 229.62L337.35 229.67L354.87 251.78L352.72 251.75L353 229.86L358.19 229.92L357.83 258.29L353.49 258.24L336.01 236.13L338.16 236.16L337.89 258.05L332.66 257.98L332.65 257.99Z" fill="#F9F9FC"/>
<path d="M388.82 259.1C384.96 259.05 381.94 257.92 379.76 255.7C377.59 253.48 376.52 250.3 376.58 246.13L376.78 230.16L382.05 230.23L381.85 246.04C381.81 248.96 382.42 251.09 383.65 252.43C384.89 253.77 386.66 254.45 388.95 254.48C391.25 254.51 393.03 253.87 394.29 252.56C395.55 251.25 396.2 249.14 396.23 246.22L396.43 230.41L401.62 230.48L401.42 246.45C401.37 250.61 400.23 253.77 398 255.93C395.77 258.09 392.71 259.15 388.82 259.1Z" fill="#F9F9FC"/>
<path d="M417.43 259.46C415.21 259.43 413.1 259.09 411.1 258.43C409.09 257.77 407.49 256.93 406.29 255.92L408.16 251.85C409.28 252.76 410.68 253.52 412.35 254.13C414.02 254.75 415.73 255.06 417.49 255.09C418.98 255.11 420.18 254.96 421.1 254.65C422.02 254.34 422.7 253.91 423.14 253.36C423.58 252.81 423.8 252.19 423.81 251.48C423.82 250.62 423.52 249.92 422.9 249.38C422.28 248.85 421.49 248.42 420.5 248.09C419.52 247.77 418.43 247.47 417.23 247.2C416.03 246.93 414.83 246.6 413.64 246.2C412.44 245.81 411.35 245.31 410.35 244.72C409.36 244.13 408.56 243.34 407.97 242.36C407.38 241.38 407.09 240.13 407.1 238.62C407.12 237.08 407.55 235.67 408.39 234.4C409.23 233.13 410.5 232.12 412.2 231.37C413.9 230.62 416.05 230.26 418.64 230.3C420.34 230.32 422.03 230.56 423.7 231.01C425.37 231.46 426.82 232.1 428.05 232.93L426.34 237C425.08 236.23 423.78 235.65 422.43 235.27C421.08 234.89 419.79 234.69 418.55 234.67C417.12 234.65 415.94 234.81 415.02 235.15C414.1 235.49 413.42 235.95 413 236.52C412.57 237.1 412.36 237.73 412.35 238.44C412.34 239.31 412.63 240 413.23 240.54C413.83 241.07 414.62 241.5 415.61 241.81C416.59 242.12 417.69 242.42 418.9 242.7C420.11 242.99 421.31 243.32 422.49 243.7C423.67 244.08 424.76 244.57 425.75 245.16C426.74 245.75 427.54 246.53 428.13 247.5C428.73 248.47 429.01 249.69 429 251.18C428.98 252.69 428.55 254.09 427.71 255.36C426.87 256.63 425.59 257.64 423.88 258.39C422.17 259.14 420.02 259.5 417.42 259.46H417.43Z" fill="#F9F9FC"/>
<path d="M436 259.57C435.05 259.56 434.28 259.24 433.66 258.61C433.05 257.98 432.75 257.23 432.76 256.37C432.77 255.51 433.09 254.77 433.72 254.17C434.35 253.57 435.14 253.28 436.08 253.29C437.03 253.3 437.79 253.62 438.38 254.23C438.97 254.84 439.26 255.59 439.24 256.45C439.23 257.32 438.92 258.05 438.32 258.67C437.72 259.28 436.94 259.59 436 259.57ZM434.1 249.86L433.36 230.88L439.36 230.96L438.07 249.91L434.1 249.86Z" fill="#F9F9FC"/>
<path d="M76.16 228.29C76.16 228.29 77.51 239.02 88.35 240.04C99.19 241.06 99.58 224.68 99.58 224.68C99.58 224.68 85.06 219.97 76.16 228.29Z" fill="#3D0B34"/>
<path d="M124.81 221.32C123.26 220.55 104.94 196.29 94.62 213.32C91.93 217.76 89.27 223.46 86.81 229.45C86.81 229.45 77.33 250.49 75.78 256.16C74.23 261.84 74.49 265.71 74.49 265.71L127.39 247.13L127.65 239.13C127.65 239.13 126.36 222.1 124.81 221.32Z" fill="#EAADA9"/>
<path d="M114.1 177.58C114.1 177.58 85.84 205.06 76.16 228.29C76.16 228.29 103.26 220.88 127.64 240.04C127.64 240.04 133.83 210.87 132.29 202.35C130.74 193.83 114.1 177.58 114.1 177.58Z" fill="#C1152E"/>
<path d="M129.19 234.98C129.12 234.98 129.05 234.98 128.98 234.95C128.58 234.84 128.35 234.42 128.47 234.02C128.53 233.83 134.11 214.39 133.6 203.3C133.58 202.89 133.9 202.54 134.31 202.52C134.74 202.52 135.07 202.82 135.09 203.23C135.61 214.58 130.13 233.63 129.9 234.44C129.81 234.77 129.51 234.98 129.18 234.98H129.19Z" fill="#3D0B34"/>
<path d="M131.77 225.43C131.61 225.43 131.44 225.38 131.3 225.27C130.98 225.01 130.92 224.54 131.18 224.22L137.37 216.48C137.63 216.16 138.1 216.1 138.42 216.36C138.74 216.62 138.8 217.09 138.54 217.41L132.35 225.15C132.2 225.34 131.98 225.43 131.76 225.43H131.77Z" fill="#3D0B34"/>
<path d="M74.48 265.71C74.48 265.71 83.77 274.23 88.93 275.77C94.09 277.31 170.48 265.71 210.99 249.96L207.89 231.64C207.89 231.64 159.89 237.83 151.37 238.35C142.85 238.87 111.89 238.61 97.95 245.83C84.01 253.06 74.47 261.06 74.47 265.7L74.48 265.71Z" fill="#EAADA9"/>
<path d="M80.3 258.1C80.1 258.1 79.91 258.02 79.76 257.87C79.47 257.57 79.48 257.1 79.78 256.81C79.95 256.65 96.73 240.81 121.97 239.29C122.39 239.27 122.74 239.58 122.76 239.99C122.78 240.4 122.47 240.76 122.06 240.78C97.38 242.26 80.98 257.72 80.82 257.88C80.67 258.02 80.49 258.09 80.3 258.09V258.1Z" fill="#FE656D"/>
<path d="M207.13 231.8C207.13 231.8 212.36 224.74 216.55 221.6C220.74 218.46 227.54 209.04 228.58 205.9C229.63 202.76 229.63 201.19 230.93 200.93C232.23 200.67 234.85 202.24 235.38 204.59C235.9 206.94 234.07 211.91 233.55 214.01C233.03 216.1 233.81 217.67 233.81 217.67C233.81 217.67 257.35 213.48 263.11 212.18C268.87 210.87 274.62 209.83 275.93 211.4C277.24 212.97 277.5 214.54 275.93 215.59C274.36 216.64 258.4 221.61 258.4 221.61C258.4 221.61 261.02 226.32 260.23 227.89C259.45 229.46 257.09 232.08 257.09 232.08C257.09 232.08 259.71 234.7 258.4 237.05C257.09 239.4 255 240.71 255 240.71C255 240.71 255 245.42 253.17 246.99C251.34 248.56 249.77 249.08 244.01 250.13C238.25 251.18 214.97 250.65 210.26 250.39C205.55 250.13 207.12 231.82 207.12 231.82L207.13 231.8Z" fill="#EAADA9"/>
</g>
<defs>
<clipPath id="clip0_1_990">
<rect width="500" height="543.07" fill="white"/>
</clipPath>
</defs>
</svg>
