<svg width="529" height="529" viewBox="0 0 529 529" fill="none" xmlns="http://www.w3.org/2000/svg">
<path d="M294.589 488.86C276.36 480.226 269.081 459.701 266.51 440.594C266.076 437.399 265.166 434.119 266.203 431.082C267.24 428.046 270.446 425.549 273.504 426.406C276.043 427.115 277.534 429.686 279.238 431.728C281.502 434.447 284.538 436.499 287.882 437.578C290.082 438.287 292.685 438.499 294.494 437.071C296.981 435.103 296.663 431.262 296.102 428.109C295.066 422.237 294.039 416.355 293.002 410.483C292.452 407.33 291.892 404.114 292.368 400.95C292.844 397.787 294.537 394.645 297.404 393.291C300.26 391.947 304.27 393.047 305.423 396.031C305.91 397.269 305.868 398.655 306.175 399.945C306.481 401.236 307.338 402.59 308.65 402.738C309.973 402.897 311.084 401.786 311.867 400.707C314.586 396.972 316.099 392.486 317.474 388.064C318.849 383.631 320.151 379.113 322.51 375.135C324.88 371.157 328.498 367.719 332.974 366.692C337.449 365.677 342.739 367.645 344.633 371.887C346.527 376.14 344.696 381.092 342.485 385.176C339.195 391.227 335.037 396.792 330.181 401.638C329.302 402.516 328.361 403.458 328.17 404.696C327.842 406.918 330.191 408.663 332.381 409.012C334.868 409.393 337.375 408.727 339.882 408.6C342.39 408.473 345.246 409.108 346.569 411.277C348.41 414.281 346.283 418.122 343.998 420.788C339.438 426.12 333.958 430.648 327.885 434.119C325.705 435.357 323.388 436.52 321.791 438.467C320.193 440.414 319.548 443.44 321.05 445.471C322.563 447.502 325.578 447.725 327.938 446.868C330.297 446.011 332.244 444.318 334.413 443.048C338.475 440.678 344.125 440.033 347.532 443.302C349.775 445.46 350.515 448.857 350.092 451.957C349.669 455.046 348.219 457.892 346.632 460.569C341.057 469.9 333.27 477.973 323.801 483.157C314.363 488.299 305.201 490.828 294.589 488.86Z" fill="#F5F5F5"/>
<path d="M297.478 476.111C298.652 466.049 300.853 455.12 303.55 443.768C304.238 440.932 304.915 438.128 305.582 435.367C306.259 432.616 306.915 429.887 307.74 427.252C309.348 421.983 311.306 417.043 313.295 412.398C315.294 407.764 317.357 403.437 319.315 399.395C321.283 395.364 323.187 391.64 325.07 388.328C328.815 381.674 332.466 376.68 335.1 373.347C336.423 371.675 337.48 370.416 338.221 369.57C338.57 369.168 338.856 368.851 339.057 368.618C339.247 368.406 339.353 368.3 339.353 368.311C339.364 368.322 339.279 368.438 339.099 368.66C338.898 368.904 338.634 369.232 338.306 369.655C337.607 370.522 336.571 371.813 335.28 373.495C332.698 376.86 329.112 381.885 325.43 388.54C323.578 391.862 321.695 395.586 319.748 399.617C317.812 403.659 315.77 407.986 313.792 412.62C311.813 417.254 309.877 422.184 308.29 427.421C307.486 430.035 306.82 432.743 306.153 435.505C305.487 438.266 304.809 441.059 304.132 443.895C301.434 455.236 299.223 466.134 298.028 476.164" fill="#E0E0E0"/>
<path d="M307.899 427.21C307.857 427.22 307.677 426.766 307.36 425.919C307.042 425.073 306.629 423.835 306.143 422.301C305.169 419.233 303.963 414.958 302.651 410.229C301.339 405.5 300.08 401.247 299.054 398.21C298.546 396.687 298.123 395.459 297.827 394.613C297.531 393.767 297.383 393.29 297.414 393.269C297.457 393.259 297.668 393.703 298.039 394.528C298.409 395.353 298.896 396.56 299.446 398.073C300.578 401.088 301.9 405.341 303.212 410.07C304.492 414.736 305.656 418.957 306.545 422.184C306.957 423.634 307.296 424.861 307.582 425.845C307.814 426.713 307.931 427.199 307.899 427.21Z" fill="#E0E0E0"/>
<path d="M347.183 412.758C347.193 412.8 346.622 412.959 345.596 413.223C344.569 413.488 343.088 413.869 341.268 414.398C337.618 415.424 332.635 417.021 327.208 419.032C321.78 421.042 316.945 423.084 313.496 424.65C311.761 425.422 310.375 426.089 309.423 426.543C308.46 426.998 307.92 427.231 307.91 427.199C307.889 427.157 308.396 426.861 309.327 426.332C310.258 425.813 311.623 425.094 313.337 424.269C316.755 422.597 321.579 420.492 327.017 418.471C332.466 416.461 337.491 414.916 341.173 413.996C343.014 413.519 344.516 413.191 345.564 413.001C346.601 412.811 347.172 412.715 347.183 412.758Z" fill="#E0E0E0"/>
<path d="M297.848 475.286C297.827 475.296 297.711 475.148 297.489 474.841C297.235 474.471 296.928 474.026 296.547 473.487C295.732 472.313 294.6 470.577 293.236 468.419C290.495 464.102 286.888 458.019 283.005 451.258C279.122 444.487 275.578 438.382 272.933 434.013C271.642 431.886 270.573 430.141 269.78 428.85C269.441 428.289 269.156 427.824 268.933 427.443C268.743 427.115 268.658 426.945 268.669 426.924C268.69 426.914 268.806 427.072 269.029 427.369C269.282 427.739 269.589 428.183 269.97 428.723C270.785 429.897 271.917 431.632 273.282 433.791C276.022 438.107 279.63 444.191 283.513 450.962C287.395 457.723 290.94 463.838 293.585 468.208C294.886 470.324 295.944 472.08 296.738 473.371C297.076 473.931 297.362 474.397 297.584 474.778C297.774 475.095 297.87 475.275 297.848 475.286Z" fill="#E0E0E0"/>
<path d="M348.823 448.783C348.833 448.804 348.664 448.91 348.325 449.089C347.923 449.301 347.437 449.566 346.844 449.883C345.479 450.592 343.628 451.555 341.385 452.729C336.783 455.131 330.456 458.527 323.473 462.293C316.49 466.06 310.121 469.392 305.466 471.71C303.138 472.863 301.244 473.783 299.922 474.386C299.308 474.661 298.811 474.894 298.398 475.074C298.049 475.222 297.859 475.296 297.848 475.275C297.838 475.254 298.007 475.148 298.345 474.958C298.747 474.746 299.234 474.481 299.827 474.164C301.191 473.455 303.043 472.492 305.286 471.318C309.888 468.916 316.215 465.52 323.208 461.754C330.191 457.987 336.55 454.655 341.216 452.338C343.543 451.184 345.437 450.264 346.759 449.661C347.373 449.386 347.87 449.153 348.283 448.973C348.622 448.836 348.812 448.761 348.823 448.783Z" fill="#E0E0E0"/>
<path d="M162.297 261.76C162.297 261.76 149.728 263.506 156.785 291.035C163.842 318.564 169.83 332.752 169.83 332.752C169.83 332.752 170.782 338.983 165.746 338.793C160.721 338.603 150.469 334.519 146.988 339.946C143.38 345.575 146.533 352.346 154.415 359.445C162.297 366.544 179.003 382.721 180.505 384.192C181.987 385.631 183.108 388.688 179.659 389.101C176.21 389.513 151.749 386.646 151.072 398.337C150.405 410.028 175.617 426.184 178.337 428.004C181.056 429.823 181.489 431.241 180.876 432.828C180.262 434.404 172.137 432.669 165.143 432.14C158.15 431.611 149.95 432.214 150.13 438.996C150.31 445.778 163.546 462.907 202.173 475.635L220.456 480.364L233.966 467.054C261.157 436.806 264.13 415.371 260.924 409.393C257.708 403.426 250.291 406.97 244.483 410.906C238.674 414.842 232.485 420.396 231.173 419.328C229.861 418.259 229.523 416.81 230.983 413.879C232.443 410.949 246.292 384.393 239.902 374.585C233.511 364.767 213.705 379.42 210.51 380.774C207.315 382.129 206.765 378.912 207.336 376.934C207.908 374.913 214.372 352.568 217.684 342.496C220.995 332.424 220.371 324.975 214.446 321.886C208.733 318.903 201.866 327.546 197.603 330.202C193.339 332.868 191.064 326.986 191.064 326.986C191.064 326.986 189.213 311.698 181.648 284.295C174.094 256.893 162.043 261.802 162.043 261.802" fill="#EBEBEB"/>
<path d="M220.456 484.935C214.986 464.79 205.866 428.829 197.867 397.988C189.879 367.158 182.621 339.259 177.247 319.082C174.559 309.021 172.38 300.864 170.867 295.203C170.116 292.4 169.534 290.22 169.132 288.707C168.941 287.977 168.804 287.417 168.698 287.015C168.603 286.634 168.571 286.433 168.571 286.433C168.571 286.433 168.645 286.623 168.762 287.004C168.878 287.406 169.047 287.967 169.248 288.686C169.672 290.188 170.296 292.368 171.089 295.151C172.676 300.769 174.919 308.915 177.649 318.987C183.119 339.132 190.44 367.02 198.428 397.851C206.416 428.691 215.483 464.674 220.847 484.839" fill="#E0E0E0"/>
<path d="M161.101 346.241C161.123 346.209 161.546 346.442 162.308 346.887C163.069 347.331 164.138 348.008 165.46 348.854C168.095 350.558 171.681 352.991 175.585 355.763C179.426 358.503 182.896 360.979 185.562 362.873C186.768 363.719 187.784 364.439 188.599 365.01C189.318 365.507 189.71 365.804 189.689 365.835C189.667 365.867 189.234 365.645 188.482 365.2C187.731 364.756 186.652 364.079 185.34 363.211C182.716 361.487 179.172 359.001 175.268 356.229C171.406 353.52 167.915 351.066 165.249 349.193C164.043 348.347 163.027 347.638 162.202 347.066C161.461 346.569 161.08 346.273 161.101 346.241Z" fill="#E0E0E0"/>
<path d="M201.698 347.975C195.756 357.277 191.05 364.889 191.188 364.977C191.326 365.065 196.255 357.596 202.198 348.294C208.14 338.993 212.846 331.381 212.708 331.293C212.57 331.205 207.641 338.674 201.698 347.975Z" fill="#E0E0E0"/>
<path d="M201.338 412.853C201.317 412.821 201.676 412.483 202.343 411.88C203.105 411.213 204.057 410.377 205.199 409.383C207.601 407.277 210.913 404.347 214.446 400.982C217.991 397.628 221.091 394.475 223.312 392.18C224.36 391.1 225.249 390.191 225.947 389.461C226.571 388.826 226.931 388.477 226.963 388.508C226.994 388.54 226.687 388.932 226.116 389.619C225.545 390.307 224.688 391.28 223.609 392.465C221.461 394.835 218.393 398.041 214.848 401.416C211.304 404.791 207.94 407.679 205.464 409.711C204.226 410.726 203.21 411.53 202.491 412.07C201.772 412.599 201.359 412.885 201.338 412.853Z" fill="#E0E0E0"/>
<path d="M170.391 401.924C170.402 401.882 170.846 401.998 171.64 402.231C172.55 402.516 173.671 402.855 174.983 403.267C177.797 404.167 181.68 405.447 185.955 406.896C190.229 408.346 194.091 409.69 196.873 410.684C198.164 411.16 199.264 411.562 200.163 411.901C200.936 412.197 201.359 412.387 201.348 412.419C201.338 412.462 200.894 412.345 200.1 412.112C199.19 411.827 198.069 411.488 196.757 411.076C193.942 410.176 190.06 408.896 185.785 407.447C181.511 405.997 177.649 404.653 174.867 403.659C173.576 403.183 172.476 402.781 171.576 402.442C170.793 402.146 170.37 401.966 170.391 401.924Z" fill="#E0E0E0"/>
<path d="M173.967 445.355C173.978 445.312 174.549 445.461 175.565 445.757C176.686 446.095 178.125 446.54 179.86 447.069C183.479 448.201 188.462 449.798 193.964 451.608C199.465 453.406 204.427 455.078 208.014 456.305C209.728 456.908 211.146 457.405 212.246 457.797C213.24 458.157 213.791 458.379 213.769 458.421C213.759 458.463 213.187 458.315 212.172 458.019C211.05 457.68 209.611 457.236 207.876 456.707C204.258 455.575 199.275 453.977 193.773 452.168C188.282 450.37 183.31 448.698 179.723 447.471C178.009 446.868 176.591 446.37 175.491 445.979C174.496 445.609 173.946 445.387 173.967 445.355Z" fill="#E0E0E0"/>
<path d="M212.912 457.829C212.88 457.797 213.325 457.353 214.15 456.57C215.049 455.723 216.234 454.612 217.652 453.279C220.604 450.497 224.666 446.635 229.036 442.244C233.405 437.864 237.267 433.791 240.039 430.818C241.372 429.39 242.473 428.215 243.319 427.305C244.102 426.48 244.546 426.036 244.578 426.057C244.61 426.089 244.218 426.575 243.499 427.453C242.769 428.332 241.7 429.58 240.346 431.093C237.648 434.14 233.839 438.256 229.459 442.657C225.09 447.058 220.963 450.878 217.937 453.586C216.425 454.94 215.176 456.019 214.309 456.749C213.43 457.469 212.933 457.86 212.912 457.829Z" fill="#E0E0E0"/>
<path d="M107.704 97.5899L97.3784 94.3736C97.3784 94.3736 94.6699 103.039 85.6134 100.383C80.9053 99.0076 79.4347 95.1777 79.1913 92.5221C78.8951 89.4433 80.2176 86.4386 82.5346 84.3861C85.1902 82.0479 89.8454 80.6196 96.4156 84.0158L103.673 60.7398L93.4638 57.5552L89.2106 71.1928C89.2106 71.1928 73.7321 70.431 68.8124 86.2058C64.1043 101.303 76.5463 109.037 82.3442 110.847C86.7878 112.222 102.213 115.862 107.704 97.5899Z" fill="#F5F5F5"/>
<path d="M94.8428 52.7259L105.205 55.9585L108.223 46.283L97.8612 43.0504L94.8428 52.7259Z" fill="#F5F5F5"/>
<path d="M136.196 71.3093L140.332 70.2195C140.332 70.2195 139.412 66.7493 143.009 65.7336C144.871 65.2046 146.173 66.178 146.807 67.0138C147.559 67.9872 147.738 69.2673 147.4 70.4417C147.008 71.7854 145.739 73.2348 142.829 73.4782L145.284 82.7992L149.368 81.72L147.929 76.2607C147.929 76.2607 153.272 73.2666 151.6 66.9503C150.002 60.9091 144.215 60.9303 141.888 61.5439C140.131 62.0095 134.196 64.0302 136.196 71.3093Z" fill="#EBEBEB"/>
<path d="M149.939 83.6203L145.785 84.7161L146.808 88.5932L150.962 87.4974L149.939 83.6203Z" fill="#EBEBEB"/>
<path d="M477.729 178.389L481.75 179.849C481.75 179.849 482.977 176.474 486.5 177.681C488.331 178.305 488.849 179.849 488.902 180.897C488.965 182.124 488.394 183.277 487.431 184.05C486.342 184.928 484.48 185.404 481.94 183.944L478.661 193.011L482.639 194.45L484.564 189.139C484.564 189.139 490.658 189.721 492.891 183.574C495.017 177.691 490.246 174.422 487.982 173.597C486.257 172.972 480.226 171.269 477.729 178.389Z" fill="#EBEBEB"/>
<path d="M482.018 196.333L477.979 194.87L476.614 198.64L480.652 200.103L482.018 196.333Z" fill="#EBEBEB"/>
<path d="M51.0587 224.434L59.565 221.154C59.565 221.154 56.8142 214.012 64.1885 211.018C68.0185 209.463 70.9914 211.219 72.5467 212.849C74.3559 214.732 75.0542 217.398 74.5992 219.969C74.0702 222.9 71.7426 226.285 65.6168 227.481L73.0016 246.673L81.4127 243.435L77.0855 232.199C77.0855 232.199 87.7078 224.603 82.7035 211.6C77.9108 199.158 65.638 200.565 60.8664 202.406C57.2163 203.803 45.1128 209.484 51.0587 224.434Z" fill="#F5F5F5"/>
<path d="M83.0382 247.334L74.4988 250.624L77.572 258.601L86.1115 255.311L83.0382 247.334Z" fill="#F5F5F5"/>
<path d="M481.04 256.713L475.009 259.041C475.009 259.041 476.956 264.108 471.729 266.224C469.01 267.325 466.905 266.076 465.805 264.934C464.524 263.601 464.027 261.707 464.355 259.887C464.726 257.803 466.376 255.412 470.714 254.565L465.477 240.97L459.51 243.266L462.578 251.233C462.578 251.233 455.045 256.618 458.6 265.833C461.996 274.646 470.693 273.652 474.078 272.35C476.681 271.324 485.251 267.304 481.04 256.713Z" fill="#F5F5F5"/>
<path d="M458.389 240.488L464.44 238.156L462.265 232.509L456.213 234.841L458.389 240.488Z" fill="#F5F5F5"/>
<path d="M498.075 490.669C498.075 490.817 393.492 490.944 264.511 490.944C135.488 490.944 30.9258 490.817 30.9258 490.669C30.9258 490.52 135.488 490.394 264.511 490.394C393.492 490.394 498.075 490.52 498.075 490.669Z" fill="#263238"/>
<path d="M98.0128 463.192C99.0179 459.299 96.4681 455.395 93.6009 452.57C90.7443 449.745 87.327 447.217 85.8352 443.482C83.423 437.43 86.6605 429.601 82.5554 424.554C80.1326 421.581 75.7948 420.597 73.6471 417.423C72.5256 415.762 72.1553 413.72 71.7109 411.752C69.4574 401.754 64.453 392.402 57.3962 384.964C56.9095 393.862 58.8668 402.886 63.0142 410.779C64.6752 413.953 66.7277 417.042 67.2779 420.587C68.1772 426.332 64.9609 432.256 66.3786 437.906C67.9973 444.36 75.2446 448.687 75.5938 455.331C75.8794 460.949 70.9915 465.88 71.3512 471.498C71.5099 473.889 72.6208 476.111 73.8481 478.163C78.1965 485.389 84.5762 490.362 94.2463 490.193L106.096 490.605L98.0128 463.192Z" fill="#E8505B"/>
<g opacity="0.3">
<path d="M98.0128 463.192C99.0179 459.299 96.4681 455.395 93.6009 452.57C90.7443 449.745 87.327 447.217 85.8352 443.482C83.423 437.43 86.6605 429.601 82.5554 424.554C80.1326 421.581 75.7948 420.597 73.6471 417.423C72.5256 415.762 72.1553 413.72 71.7109 411.752C69.4574 401.754 64.453 392.402 57.3962 384.964C56.9095 393.862 58.8668 402.886 63.0142 410.779C64.6752 413.953 66.7277 417.042 67.2779 420.587C68.1772 426.332 64.9609 432.256 66.3786 437.906C67.9973 444.36 75.2446 448.687 75.5938 455.331C75.8794 460.949 70.9915 465.88 71.3512 471.498C71.5099 473.889 72.6208 476.111 73.8481 478.163C78.1965 485.389 84.5762 490.362 94.2463 490.193L106.096 490.605L98.0128 463.192Z" fill="black"/>
</g>
<path d="M108.488 490.923C108.488 490.923 109.62 491.187 111.746 490.849C112.804 490.69 114.116 490.415 115.597 489.875C117.068 489.336 118.75 488.574 120.348 487.272C121.12 486.595 121.892 485.77 122.305 484.67C122.718 483.569 122.792 482.363 122.866 481.125C122.929 479.888 122.929 478.597 123.141 477.296C123.342 475.994 123.85 474.714 124.59 473.487C125.987 471.032 128.304 468.715 129.055 465.382C129.87 462.103 129.288 458.558 128.738 454.993C128.188 451.438 127.659 447.566 129.013 443.863C130.282 440.16 132.885 436.816 134.176 432.637C135.467 428.416 134.864 423.877 135.139 419.402C135.266 417.159 135.699 414.905 136.683 412.821C137.646 410.726 138.969 408.748 140.005 406.536C142.111 402.072 142.481 397.015 143.052 392.063C143.338 389.566 143.613 387.038 143.899 384.498C144.185 381.938 144.407 379.388 145.211 376.923C145.941 374.437 146.999 372.035 148.046 369.591C148.554 368.364 149.104 367.126 149.422 365.761C149.654 364.365 149.718 363.053 149.802 361.688C149.94 358.969 149.824 356.218 149.485 353.488C149.168 350.759 148.67 348.04 148.374 345.299C148.353 345.141 148.342 344.971 148.321 344.823L148.258 344.273L147.771 344.517C145.232 345.786 143.063 347.68 141.391 349.902C139.699 352.102 138.461 354.589 137.477 357.128C135.498 362.217 134.789 367.549 133.784 372.638C132.811 377.727 131.531 382.731 128.918 386.963C127.616 389.069 126.05 390.994 124.675 393.058C123.3 395.1 122.093 397.342 121.734 399.808C121.035 404.823 123.797 409.224 123.215 413.657C123.014 415.857 122.136 417.921 121.057 419.804C119.977 421.698 118.718 423.454 117.512 425.221C116.317 426.988 115.174 428.776 114.328 430.691C113.471 432.595 113.005 434.637 112.868 436.626C112.582 440.625 113.143 444.413 112.857 447.989C112.614 451.576 111.355 454.824 109.937 457.723C108.509 460.643 106.911 463.277 105.578 465.827C104.901 467.107 104.287 468.355 103.779 469.604C103.24 470.852 102.986 472.132 102.743 473.349C102.351 475.804 102.394 478.089 102.658 480.11C103.176 484.173 104.689 487.093 106.044 488.733C106.35 489.166 106.721 489.484 107.006 489.769C107.281 490.066 107.557 490.267 107.789 490.425C108.255 490.774 108.488 490.923 108.488 490.923C108.541 490.859 107.514 490.32 106.192 488.658C104.89 487.008 103.441 484.109 102.975 480.089C102.743 478.1 102.722 475.835 103.124 473.423C103.377 472.228 103.642 470.979 104.171 469.763C104.679 468.535 105.303 467.297 105.98 466.038C107.324 463.51 108.932 460.875 110.403 457.945C111.852 455.025 113.164 451.713 113.428 448.042C113.735 444.392 113.185 440.583 113.492 436.679C113.629 434.732 114.084 432.785 114.92 430.945C115.745 429.093 116.867 427.337 118.062 425.591C119.258 423.835 120.538 422.078 121.649 420.142C122.76 418.227 123.68 416.08 123.913 413.741C124.485 409.012 121.744 404.579 122.453 399.924C122.792 397.618 123.945 395.47 125.289 393.47C126.643 391.449 128.219 389.524 129.552 387.355C132.24 383.007 133.552 377.896 134.536 372.786C135.541 367.666 136.26 362.386 138.196 357.403C139.159 354.927 140.376 352.504 142.016 350.367C143.634 348.22 145.708 346.421 148.12 345.204L147.591 344.908C147.612 345.056 147.623 345.225 147.644 345.384C147.94 348.156 148.438 350.875 148.755 353.573C149.083 356.271 149.199 358.969 149.072 361.646C148.998 362.968 148.914 364.354 148.713 365.602C148.427 366.851 147.888 368.078 147.38 369.295C146.343 371.728 145.264 374.172 144.523 376.711C143.698 379.24 143.465 381.885 143.19 384.414C142.904 386.963 142.629 389.492 142.354 391.989C141.783 396.972 141.413 401.945 139.392 406.251C138.387 408.399 137.064 410.377 136.08 412.546C135.065 414.704 134.61 417.085 134.493 419.37C134.239 423.941 134.832 428.416 133.594 432.457C132.367 436.488 129.785 439.853 128.473 443.672C127.077 447.534 127.659 451.533 128.219 455.078C128.791 458.643 129.362 462.113 128.6 465.266C127.912 468.451 125.659 470.746 124.241 473.275C123.501 474.524 122.972 475.888 122.771 477.232C122.559 478.586 122.57 479.877 122.517 481.115C122.453 482.332 122.39 483.527 122.009 484.553C121.639 485.58 120.909 486.384 120.168 487.05C118.623 488.33 116.973 489.113 115.523 489.664C114.063 490.214 112.773 490.521 111.725 490.69C110.678 490.88 109.863 490.912 109.313 490.923C108.773 490.912 108.488 490.923 108.488 490.923Z" fill="#263238"/>
<path d="M145.919 351.362C145.909 351.362 145.866 351.478 145.803 351.722C145.729 352.007 145.644 352.356 145.538 352.79C145.306 353.721 145.031 355.128 144.576 356.895C144.11 358.651 143.031 360.64 142.121 363.084C141.169 365.507 140.196 368.322 139.307 371.485C138.407 374.648 137.603 378.15 136.768 381.906C135.9 385.662 135.043 389.683 132.98 393.481C132.007 395.406 130.917 397.353 130.049 399.48C129.161 401.606 128.674 403.944 128.346 406.283C127.775 410.98 126.918 415.741 125.796 420.618C123.416 430.331 121.162 439.578 119.099 447.989C116.994 456.379 115.089 463.944 113.481 470.313C111.926 476.629 110.656 481.76 109.757 485.379C109.344 487.114 109.016 488.489 108.783 489.484C108.688 489.917 108.614 490.267 108.551 490.552C108.498 490.796 108.487 490.923 108.498 490.923C108.508 490.923 108.551 490.806 108.625 490.573C108.709 490.298 108.805 489.949 108.932 489.515C109.207 488.532 109.577 487.167 110.043 485.442C110.995 481.834 112.338 476.724 113.999 470.429C115.65 464.071 117.607 456.516 119.776 448.148C121.86 439.726 124.135 430.479 126.537 420.767C127.658 415.9 128.526 411.044 129.087 406.378C129.414 404.061 129.869 401.807 130.726 399.744C131.562 397.67 132.641 395.734 133.615 393.788C135.699 389.926 136.567 385.779 137.392 382.044C138.206 378.277 138.968 374.775 139.836 371.623C140.693 368.47 141.613 365.655 142.534 363.233C143.401 360.789 144.449 358.789 144.882 356.969C145.295 355.171 145.517 353.774 145.708 352.822C145.782 352.388 145.845 352.028 145.898 351.743C145.919 351.489 145.94 351.362 145.919 351.362Z" fill="#263238"/>
<path d="M110.582 490.965C118.316 486.363 120.538 472.408 117.311 463.996C114.084 455.596 108.434 447.915 107.567 438.954C106.9 432.066 109.154 424.999 107.546 418.27C105.377 409.181 96.5107 402.146 96.6165 392.814C96.6694 387.577 99.653 382.647 99.4202 377.41C99.124 370.988 94.2043 365.899 91.1467 360.238C86.4703 351.584 86.1635 341.343 84.5659 331.641C82.9683 321.939 79.2653 311.539 70.6638 306.767C69.3942 315.009 67.2253 320.648 67.9024 331.821C68.1458 335.83 72.801 343.501 73.4358 352.293C73.8166 357.541 74.0811 362.809 74.3985 368.057C74.7159 373.167 75.0439 378.383 76.8743 383.165C78.2814 386.837 80.5349 390.159 81.5824 393.946C83.5397 401.067 80.9687 408.779 82.5557 415.995C83.8994 422.11 88.1314 427.368 88.9989 433.568C90.2156 442.276 84.5765 451.332 87.4648 459.637C88.8931 463.764 92.2893 467.075 93.2521 471.328C94.0033 474.629 93.1886 478.131 93.8657 481.443C94.9555 486.786 105.155 490.944 110.593 490.605" fill="#E8505B"/>
<path d="M72.801 314.935C72.7904 314.935 72.801 315.093 72.8327 315.4C72.875 315.749 72.9385 316.194 73.002 316.755C73.1818 317.94 73.3829 319.696 73.7849 321.949C74.2187 324.224 75.3931 326.784 76.3241 329.863C77.308 332.942 78.292 336.486 79.1595 340.464C80.0377 344.432 80.7783 348.833 81.5612 353.562C82.3653 358.26 83.1799 363.444 85.5287 368.364C86.6184 370.84 87.8351 373.315 88.745 375.95C89.6866 378.573 90.1098 381.409 90.3743 384.308C90.7764 390.148 91.5487 396.221 92.649 402.336C95.019 414.545 97.2725 426.173 99.3356 436.764C101.505 447.312 103.451 456.813 105.091 464.811C106.752 472.746 108.096 479.189 109.037 483.707C109.514 485.897 109.884 487.611 110.148 488.838C110.275 489.388 110.381 489.833 110.455 490.171C110.529 490.468 110.572 490.626 110.582 490.616C110.593 490.616 110.572 490.457 110.529 490.15C110.466 489.812 110.392 489.367 110.296 488.807C110.064 487.579 109.736 485.855 109.323 483.654C108.434 479.136 107.175 472.672 105.61 464.716C104.012 456.707 102.118 447.195 100.013 436.637C97.9814 426.057 95.7384 414.429 93.3896 402.22C92.2999 396.094 91.5276 390.116 91.115 384.255C90.8399 381.335 90.3955 378.415 89.4221 375.727C88.4805 373.03 87.2427 370.543 86.1635 368.099C83.8359 363.243 83.0107 358.186 82.1748 353.467C81.3708 348.748 80.5984 344.337 79.678 340.359C78.7681 336.38 77.7524 332.826 76.7156 329.747C75.7316 326.647 74.5255 324.118 74.06 321.896C73.6156 319.675 73.3723 317.908 73.1395 316.733C73.0337 316.173 72.9491 315.739 72.8856 315.39C72.8539 315.094 72.8115 314.935 72.801 314.935Z" fill="#263238"/>
<path d="M445.915 93.9187H441.704C441.704 93.9187 441.704 97.4524 438.033 97.5159C436.129 97.5476 435.134 96.2992 434.732 95.3364C434.267 94.2255 434.404 92.9559 435.028 91.9296C435.748 90.7553 437.303 89.6761 440.149 90.1839V80.6831H435.981V86.2482C435.981 86.2482 430.14 87.7611 430.14 94.1938C430.14 100.351 435.663 101.78 438.023 101.78C439.842 101.79 446 101.356 445.915 93.9187Z" fill="#E8505B"/>
<path d="M440.16 74.79H435.938V78.7364H440.16V74.79Z" fill="#E8505B"/>
<path d="M468.99 88.2901C469.001 88.2901 469.001 88.1102 469.001 87.7611C468.99 87.3696 468.98 86.8512 468.958 86.1953C468.937 85.8461 468.948 85.4652 468.906 85.042C468.842 84.6188 468.779 84.1533 468.715 83.6561C468.641 83.1588 468.567 82.6192 468.482 82.0479C468.345 81.4872 468.197 80.8841 468.038 80.2493C467.382 77.7207 466.271 74.6525 464.229 71.5208C462.219 68.3891 459.341 65.1305 455.437 62.4961C451.523 59.904 446.603 57.9043 441.07 57.3753C439.684 57.3224 438.276 57.1532 436.848 57.2907C436.139 57.3436 435.409 57.3224 434.69 57.4282C433.97 57.534 433.24 57.6504 432.51 57.7562C429.622 58.3487 426.67 59.2057 423.919 60.6869C421.158 62.1363 418.534 64.009 416.196 66.2943C413.911 68.6219 411.922 71.3515 410.388 74.3774C408.843 77.4033 407.774 80.7466 407.362 84.2274C407.192 85.0949 407.192 85.9731 407.14 86.8512C407.087 87.7294 407.044 88.6181 407.087 89.5068C407.161 91.2842 407.383 93.0723 407.764 94.8285C408.578 98.6585 410.134 102.256 412.218 105.419L412.186 105.102C410.716 108.773 409.266 112.381 407.859 115.893L407.605 116.528L408.272 116.348C412.229 115.259 416.08 114.201 419.814 113.174L419.529 113.121C423.549 116.147 428.151 118.083 432.711 118.877C434.986 119.279 437.271 119.448 439.461 119.3C440.562 119.258 441.651 119.205 442.709 118.993C443.238 118.909 443.767 118.835 444.286 118.75C444.804 118.655 445.312 118.496 445.809 118.369C453.935 116.285 459.934 111.28 463.362 106.329C465.107 103.853 466.366 101.399 467.139 99.1663C467.34 98.6056 467.53 98.066 467.721 97.5476C467.858 97.0186 467.985 96.5002 468.112 96.0135C468.228 95.5268 468.345 95.0613 468.461 94.6064C468.546 94.1514 468.599 93.7176 468.652 93.3156C468.757 92.5009 468.895 91.7815 468.927 91.1573C468.948 90.5436 468.969 90.0146 468.98 89.5703C468.99 89.1682 469.001 88.8508 469.001 88.5969C469.001 88.3959 468.99 88.2901 468.99 88.2901C468.98 88.2901 468.969 88.3959 468.948 88.6181C468.927 88.8614 468.906 89.1788 468.874 89.5809C468.842 90.0146 468.81 90.5436 468.768 91.1573C468.715 91.7815 468.567 92.4904 468.44 93.2944C467.858 96.4684 466.589 101.229 463.034 106.096C459.595 110.952 453.66 115.83 445.672 117.829C445.175 117.946 444.677 118.105 444.17 118.189C443.651 118.263 443.143 118.348 442.614 118.422C441.577 118.623 440.509 118.665 439.43 118.708C437.271 118.845 435.039 118.676 432.807 118.274C428.342 117.47 423.845 115.565 419.91 112.592L419.783 112.497L419.624 112.539C415.9 113.555 412.038 114.603 408.081 115.692L408.483 116.147C409.901 112.635 411.35 109.027 412.832 105.356L412.895 105.186L412.789 105.038C410.747 101.938 409.234 98.4152 408.43 94.6804C408.06 92.9559 407.848 91.2208 407.774 89.4751C407.732 88.6075 407.764 87.7399 407.817 86.8724C407.87 86.0154 407.87 85.1478 408.028 84.3014C408.43 80.8947 409.467 77.6255 410.98 74.6631C412.472 71.7007 414.408 69.0345 416.651 66.7386C418.936 64.4957 421.497 62.6548 424.194 61.2265C426.882 59.7664 429.781 58.9094 432.606 58.3275C433.325 58.2217 434.034 58.1054 434.732 57.9996C435.441 57.8938 436.15 57.9043 436.848 57.8514C438.255 57.7139 439.631 57.8726 440.996 57.9149C446.423 58.4122 451.269 60.3483 455.141 62.8664C459.003 65.4373 461.87 68.6219 463.88 71.7007C465.933 74.7794 467.065 77.7947 467.752 80.2916C467.922 80.9158 468.08 81.5083 468.228 82.0691C468.324 82.6404 468.408 83.1694 468.493 83.6666C468.578 84.1639 468.652 84.6188 468.715 85.0315C468.757 85.4547 468.768 85.8355 468.8 86.1741C468.853 86.8301 468.884 87.3485 468.916 87.7294C468.948 88.1102 468.969 88.2901 468.99 88.2901Z" fill="#263238"/>
<path d="M153.484 213.06H214.584C214.584 213.06 214.584 161.758 267.896 160.837C295.584 160.361 309.941 178.495 315.771 192.397C322.542 208.532 320.489 226.92 311.422 241.89C301.054 258.977 278.741 276.149 237.563 268.891L237.172 405.023H297.594V324.319C297.594 324.319 382.329 302.419 382.329 209.029C382.329 119.681 310.079 100.383 271.239 99.1345C249.635 98.4468 241.795 97.5158 215.07 101.314C181.024 106.149 152.765 145.697 153.484 213.06Z" fill="#E8505B"/>
<path d="M298.325 433.399H237.003V490.668H298.325V433.399Z" fill="#E8505B"/>
<path opacity="0.1" d="M298.325 433.399H237.003V490.668H298.325V433.399Z" fill="black"/>
<path opacity="0.1" d="M153.484 213.06H214.584C214.584 213.06 214.584 161.758 267.896 160.837C295.584 160.361 309.941 178.495 315.771 192.397C322.542 208.532 320.489 226.92 311.422 241.89C301.054 258.977 278.741 276.149 237.563 268.891L237.172 405.023H297.594V324.319C297.594 324.319 382.329 302.419 382.329 209.029C382.329 119.681 310.079 100.383 271.239 99.1345C249.635 98.4468 241.795 97.5158 215.07 101.314C181.024 106.149 152.765 145.697 153.484 213.06Z" fill="black"/>
<path d="M128.166 213.06H189.266C189.266 213.06 189.266 161.758 242.578 160.837C270.266 160.361 284.623 178.495 290.453 192.397C297.224 208.532 295.171 226.92 286.104 241.891C275.736 258.977 253.031 274.509 211.854 267.251V405.024H272.276V324.319C272.276 324.319 357.012 302.419 357.012 209.029C357.012 119.681 276.889 98.923 242.589 98.9336C216.372 98.9336 127.013 105.271 128.166 213.06Z" fill="#E8505B"/>
<path opacity="0.3" d="M128.166 213.06H189.266C189.266 213.06 189.266 161.758 242.578 160.837C270.266 160.361 284.623 178.495 290.453 192.397C297.224 208.532 295.171 226.92 286.104 241.891C275.736 258.977 253.031 274.509 211.854 267.251V405.024H272.276V324.319C272.276 324.319 357.012 302.419 357.012 209.029C357.012 119.681 276.889 98.923 242.589 98.9336C216.372 98.9336 127.013 105.271 128.166 213.06Z" fill="black"/>
<path d="M273.017 433.399H211.695V490.669H273.017V433.399Z" fill="#E8505B"/>
<path opacity="0.3" d="M273.017 433.399H211.695V490.669H273.017V433.399Z" fill="black"/>
<path d="M249.487 161.123C249.487 161.144 249.17 161.123 248.577 161.07C247.974 161.038 247.107 160.869 245.975 160.858C243.711 160.71 240.42 160.763 236.389 161.26C232.369 161.768 227.618 162.763 222.561 164.508C220.043 165.418 217.43 166.455 214.859 167.82C212.267 169.132 209.696 170.74 207.326 172.697C204.935 174.634 202.914 176.898 201.158 179.215C199.391 181.532 197.857 183.891 196.534 186.219C193.932 190.906 192.165 195.423 191.065 199.327C189.943 203.221 189.446 206.479 189.224 208.733C189.097 209.865 189.054 210.743 189.033 211.336C189.001 211.928 188.97 212.245 188.949 212.245C188.927 212.245 188.917 211.928 188.917 211.336C188.917 210.732 188.917 209.854 189.012 208.712C189.171 206.437 189.604 203.147 190.684 199.211C191.742 195.275 193.487 190.705 196.09 185.965C197.413 183.616 198.947 181.225 200.724 178.876C202.491 176.538 204.533 174.231 206.966 172.264C209.378 170.275 211.981 168.656 214.605 167.333C217.208 165.958 219.853 164.921 222.392 164.022C227.502 162.276 232.295 161.313 236.347 160.858C240.399 160.414 243.721 160.414 245.985 160.636C247.128 160.678 247.996 160.89 248.588 160.954C249.18 161.049 249.498 161.112 249.487 161.123Z" fill="#263238"/>
<path d="M341.554 150.215C341.544 150.215 341.48 150.141 341.353 149.971C341.216 149.781 341.036 149.538 340.814 149.231C340.327 148.543 339.66 147.591 338.803 146.374C338.359 145.761 337.904 145.052 337.343 144.322C336.751 143.613 336.116 142.841 335.439 142.005C334.751 141.169 334.021 140.28 333.249 139.339C332.455 138.418 331.524 137.519 330.604 136.524C329.652 135.561 328.71 134.493 327.641 133.477C326.541 132.483 325.409 131.456 324.224 130.388C323.632 129.859 323.05 129.298 322.415 128.769C321.77 128.261 321.114 127.743 320.447 127.214C319.103 126.177 317.77 125.056 316.321 124.008C310.523 119.808 303.741 115.766 296.303 112.18C294.42 111.333 292.558 110.487 290.728 109.662C288.855 108.932 287.004 108.212 285.184 107.514C283.385 106.763 281.544 106.234 279.767 105.652C277.979 105.102 276.254 104.456 274.509 104.044C272.774 103.589 271.091 103.144 269.451 102.711C267.812 102.277 266.182 102.023 264.627 101.684C263.061 101.388 261.569 101.007 260.099 100.817C258.639 100.605 257.232 100.404 255.888 100.203C253.211 99.7482 250.757 99.653 248.619 99.4414C247.551 99.3567 246.546 99.2403 245.625 99.198C244.705 99.1769 243.869 99.1557 243.107 99.1345C241.626 99.0816 240.452 99.0499 239.616 99.0182C239.246 98.997 238.939 98.9864 238.706 98.9758C238.505 98.9653 238.399 98.9547 238.399 98.9441C238.399 98.9335 238.505 98.9229 238.706 98.9229C238.939 98.9229 239.246 98.9124 239.616 98.9124C240.452 98.9124 241.626 98.9124 243.107 98.9229C243.869 98.9335 244.715 98.9335 245.636 98.9441C246.556 98.9758 247.561 99.0711 248.63 99.1451C250.778 99.3356 253.243 99.399 255.93 99.8328C257.274 100.013 258.692 100.203 260.152 100.404C261.622 100.573 263.125 100.954 264.701 101.24C266.267 101.568 267.896 101.822 269.547 102.245C271.197 102.668 272.89 103.113 274.636 103.557C276.392 103.959 278.116 104.594 279.915 105.155C281.703 105.736 283.555 106.265 285.364 107.017C287.184 107.725 289.046 108.434 290.929 109.164C292.77 110 294.642 110.836 296.526 111.693C303.995 115.29 310.798 119.363 316.607 123.606C318.067 124.653 319.4 125.796 320.743 126.844C321.41 127.373 322.066 127.902 322.711 128.409C323.346 128.938 323.928 129.51 324.52 130.039C325.695 131.118 326.837 132.165 327.927 133.16C328.996 134.186 329.937 135.265 330.879 136.239C331.799 137.233 332.72 138.154 333.513 139.085C334.275 140.037 335.005 140.936 335.672 141.783C336.349 142.629 336.973 143.412 337.544 144.131C338.084 144.882 338.539 145.591 338.962 146.226C339.787 147.464 340.433 148.448 340.888 149.146C341.089 149.464 341.247 149.718 341.374 149.908C341.512 150.12 341.565 150.215 341.554 150.215Z" fill="#263238"/>
<path d="M335.185 281.407C335.196 281.417 335.037 281.639 334.719 282.041C334.36 282.486 333.894 283.068 333.312 283.798C332.699 284.559 331.937 285.48 331.006 286.506C330.075 287.543 329.059 288.749 327.821 289.987C326.615 291.257 325.293 292.632 323.79 294.039C322.33 295.489 320.68 296.938 318.955 298.483C315.453 301.498 311.465 304.661 307.084 307.709C302.683 310.724 298.303 313.327 294.24 315.527C292.188 316.585 290.241 317.622 288.368 318.468C286.517 319.368 284.761 320.119 283.142 320.796C281.544 321.505 280.053 322.034 278.762 322.531C277.471 323.039 276.339 323.42 275.408 323.727C274.519 324.012 273.81 324.245 273.271 324.425C272.784 324.573 272.52 324.647 272.509 324.626C272.498 324.605 272.752 324.499 273.228 324.319C273.757 324.118 274.456 323.854 275.334 323.526C276.254 323.198 277.365 322.785 278.645 322.245C279.926 321.716 281.407 321.166 282.983 320.436C284.581 319.738 286.327 318.976 288.157 318.056C290.019 317.199 291.944 316.151 293.986 315.083C298.028 312.872 302.366 310.258 306.757 307.254C311.126 304.228 315.104 301.085 318.606 298.102C320.331 296.578 321.992 295.15 323.452 293.711C324.954 292.325 326.298 290.96 327.514 289.723C328.763 288.506 329.8 287.321 330.741 286.305C331.694 285.3 332.476 284.401 333.111 283.66C333.725 282.962 334.222 282.401 334.603 281.978C334.984 281.587 335.174 281.396 335.185 281.407Z" fill="#263238"/>
<path d="M271.218 400.22C271.07 400.22 270.943 383.229 270.943 362.27C270.943 341.3 271.07 324.309 271.218 324.309C271.366 324.309 271.493 341.3 271.493 362.27C271.493 383.229 271.366 400.22 271.218 400.22Z" fill="#263238"/>
<path d="M273.546 486.786C273.698 486.786 273.821 474.863 273.821 460.156C273.821 445.448 273.698 433.526 273.546 433.526C273.394 433.526 273.271 445.448 273.271 460.156C273.271 474.863 273.394 486.786 273.546 486.786Z" fill="#263238"/>
<path d="M333.693 204.945C332.625 207.072 336.582 208.796 338.856 209.484C341.142 210.172 343.575 210.098 345.945 209.971C349.098 209.801 352.367 209.505 355.107 207.939C357.541 206.543 359.36 204.247 360.63 201.75C361.899 199.243 362.672 196.524 363.434 193.826C363.444 193.826 338.444 195.455 333.693 204.945Z" fill="#E8505B"/>
<g opacity="0.4">
<path d="M333.693 204.945C332.625 207.072 336.582 208.796 338.856 209.484C341.142 210.172 343.575 210.098 345.945 209.971C349.098 209.801 352.367 209.505 355.107 207.939C357.541 206.543 359.36 204.247 360.63 201.75C361.899 199.243 362.672 196.524 363.434 193.826C363.444 193.826 338.444 195.455 333.693 204.945Z" fill="black"/>
</g>
<path d="M404.304 198.174C408.388 201.084 413.403 202.66 418.418 202.607C420.82 202.575 423.369 202.11 425.136 200.491C425.951 199.75 426.564 198.788 427.4 198.079C427.972 197.592 428.638 197.222 429.178 196.693C429.717 196.164 430.119 195.413 429.961 194.683C429.791 193.931 429.167 192.725 428.501 192.345C425.633 190.715 422.205 190.779 418.905 190.853C415.604 190.927 412.356 191.699 409.224 192.747C406.663 193.604 403.987 194.82 402.685 197.19" fill="#E8505B"/>
<g opacity="0.4">
<path d="M429.95 194.683C429.781 193.932 428.744 192.937 428.077 192.556C425.21 190.927 422.195 190.779 418.894 190.853C415.593 190.927 412.345 191.699 409.213 192.747C406.653 193.604 403.976 194.82 402.675 197.19L404.304 198.164C408.388 201.073 413.403 202.649 418.418 202.597C420.82 202.565 423.359 202.099 425.136 200.481C425.951 199.74 426.564 198.777 427.4 198.068C427.972 197.582 428.638 197.211 429.178 196.682C429.707 196.164 430.119 195.413 429.95 194.683Z" fill="black"/>
</g>
<path d="M355.509 236.146L408.25 236.833C408.716 236.844 409.044 236.389 408.906 235.945L402.717 216.647C402.717 216.647 403.627 207.008 404.886 195.402C406.801 177.797 409.34 155.653 409.372 155.706C405.775 145.591 384.488 143.877 384.488 143.877L360.228 145.316L359.371 143.888L352.388 147.136C350.865 147.845 349.404 148.67 348.008 149.601C343.406 152.691 332.286 159.758 330.255 167.651C325.568 185.891 333.503 206.257 333.503 206.257L338.592 202.279C339.925 201.274 341.184 200.396 342.633 199.581L352.854 226.973C352.854 226.973 350.727 228.264 350.632 230.485C350.568 232.718 351.753 235.384 355.509 236.146Z" fill="#E8505B"/>
<g opacity="0.3">
<path d="M378.119 203.856C379.79 194.863 378.912 185.616 378.013 176.517C375.082 183.965 375.188 192.355 372.088 199.729C371.749 200.523 371.379 201.316 371.263 202.173C371.146 203.03 371.326 203.972 371.972 204.554C372.818 205.326 374.066 204.914 375.199 204.776C376.405 204.638 377.039 204.226 378.119 203.856Z" fill="black"/>
</g>
<g opacity="0.4">
<path d="M358.694 224.677C362.947 226.158 367.433 223.418 371.908 222.931C374.871 222.614 377.833 223.291 380.774 223.767C386.71 224.73 392.782 224.878 398.76 224.211C399.67 224.105 400.612 223.979 401.405 223.524C402.209 223.069 402.844 221.81 402.791 220.9C392.835 219.873 382.869 219.27 372.913 218.244C370.416 217.99 367.835 217.736 365.444 218.477C362.428 219.408 360.111 221.778 357.995 224.105" fill="black"/>
</g>
<path d="M428.427 191.202C424.11 181.511 408.938 154.68 408.938 154.68L397.184 169.418L399.924 198.354C399.924 198.354 406.134 191.424 423.496 191.286C427.538 191.255 429.961 194.693 429.961 194.693L428.427 191.202Z" fill="#E8505B"/>
<path d="M355.882 179.749C356.829 183.282 357.715 186.114 357.862 186.075C358.009 186.036 357.36 183.14 356.413 179.607C355.466 176.074 354.579 173.241 354.433 173.281C354.286 173.32 354.935 176.216 355.882 179.749Z" fill="#263238"/>
<path d="M396.295 167.45C396.317 167.418 396.708 167.757 397.385 168.37C398.041 169.005 398.983 169.957 400.009 171.248C402.062 173.787 404.569 177.765 405.627 182.738C406.156 185.214 406.241 187.647 405.966 189.826C405.691 191.995 405.278 193.9 405.013 195.508C404.738 197.116 404.569 198.428 404.484 199.338C404.4 200.248 404.379 200.756 404.336 200.756C404.305 200.756 404.252 200.248 404.273 199.327C404.294 198.407 404.4 197.074 404.633 195.455C404.855 193.826 405.225 191.911 405.468 189.774C405.712 187.647 405.606 185.277 405.098 182.865C404.072 178.009 401.67 174.073 399.713 171.502C397.734 168.889 396.211 167.534 396.295 167.45Z" fill="#263238"/>
<path d="M385.525 233.839C385.535 233.881 385.123 233.998 384.371 234.178C384.001 234.273 383.536 234.379 382.996 234.442C382.456 234.516 381.843 234.633 381.144 234.664C379.769 234.802 378.119 234.791 376.299 234.633C374.479 234.442 372.501 234.082 370.48 233.469C368.47 232.834 366.629 232.009 365.021 231.131C363.434 230.231 362.069 229.3 361.011 228.412C360.461 227.999 360.016 227.555 359.614 227.184C359.202 226.825 358.884 226.475 358.63 226.179C358.112 225.608 357.847 225.28 357.868 225.259C357.943 225.185 359.085 226.454 361.244 228.105C362.312 228.941 363.677 229.819 365.253 230.686C366.84 231.522 368.66 232.316 370.628 232.94C372.606 233.543 374.553 233.913 376.341 234.125C378.129 234.305 379.748 234.347 381.113 234.273C383.842 234.135 385.503 233.733 385.525 233.839Z" fill="#263238"/>
<path d="M401.808 227.808C401.871 227.798 402.083 228.369 402.21 229.353C402.337 230.327 402.358 231.734 401.924 233.204C401.501 234.685 400.623 235.849 399.85 236.484C399.078 237.129 398.485 237.33 398.454 237.278C398.411 237.204 398.919 236.876 399.586 236.198C400.242 235.532 401.004 234.432 401.395 233.046C402.21 230.252 401.607 227.819 401.808 227.808Z" fill="#263238"/>
<path d="M398.94 231.533C399.077 231.501 399.352 233.046 398.675 234.791C398.009 236.537 396.76 237.489 396.676 237.373C396.559 237.256 397.543 236.209 398.157 234.59C398.802 232.982 398.781 231.543 398.94 231.533Z" fill="#263238"/>
<path d="M389.503 196.724C389.62 196.841 388.636 197.941 387.62 199.433C386.594 200.914 385.917 202.226 385.768 202.163C385.631 202.11 386.107 200.66 387.165 199.126C388.212 197.581 389.397 196.619 389.503 196.724Z" fill="#263238"/>
<path d="M353.297 171.1C353.234 171.163 352.398 170.497 350.959 169.555C349.52 168.614 347.436 167.45 344.971 166.519C342.506 165.609 340.168 165.122 338.464 164.889C336.761 164.657 335.682 164.614 335.682 164.53C335.682 164.466 336.761 164.371 338.507 164.508C340.252 164.646 342.654 165.08 345.161 166.011C347.669 166.952 349.774 168.201 351.171 169.238C352.589 170.275 353.34 171.057 353.297 171.1Z" fill="#263238"/>
<path d="M408.938 154.32C409.044 154.468 406.187 156.203 403.595 159.324C400.971 162.414 399.734 165.524 399.575 165.45C399.511 165.429 399.734 164.625 400.315 163.398C400.887 162.181 401.85 160.562 403.172 158.975C404.505 157.399 405.933 156.171 407.044 155.399C408.155 154.616 408.906 154.256 408.938 154.32Z" fill="#263238"/>
<path d="M387.164 145.602C387.185 145.591 387.259 145.761 387.408 146.089C387.566 146.417 387.725 146.914 387.905 147.57C388.243 148.882 388.423 150.903 387.884 153.304C387.333 155.674 386.011 158.425 383.567 160.594C381.144 162.773 377.568 164.075 373.833 164.064C370.088 164.043 366.565 162.752 364.005 160.784C361.412 158.827 359.688 156.394 358.598 154.225C357.519 152.035 357.022 150.109 356.8 148.776C356.694 148.109 356.62 147.58 356.609 147.231C356.588 146.872 356.577 146.692 356.599 146.692C356.651 146.681 356.715 147.432 357.011 148.744C357.297 150.056 357.847 151.929 358.947 154.055C360.069 156.15 361.772 158.51 364.311 160.382C366.808 162.276 370.215 163.493 373.844 163.525C377.462 163.535 380.901 162.297 383.239 160.224C385.609 158.16 386.931 155.516 387.513 153.22C388.085 150.903 387.968 148.935 387.704 147.623C387.418 146.3 387.101 145.623 387.164 145.602Z" fill="#263238"/>
<g opacity="0.3">
<path d="M390.868 198.597C390.846 198.068 390.783 197.444 390.328 197.179C390.042 197.01 389.672 197.052 389.365 197.201C389.069 197.349 388.826 197.592 388.603 197.835C387.323 199.221 386.424 200.576 385.779 202.353L390.963 201.909C390.92 200.808 390.899 199.687 390.868 198.597Z" fill="black"/>
</g>
<g opacity="0.3">
<path d="M408.081 187.689C407.679 184.727 406.166 182.008 404.325 179.648C406.558 186.97 405.806 191.107 404.558 196.111L404.833 195.413C406.261 192.493 408.473 190.652 408.081 187.689Z" fill="black"/>
</g>
<path d="M397.723 433.632L394.56 481.083L373.929 480.84L370.67 431.505L397.723 433.632Z" fill="#FFBE9D"/>
<path d="M395.142 474.841V476.217C395.142 476.217 418.397 485.58 418.64 489.992L372.448 489.717L373.167 474.354C380.023 477.571 387.207 477.973 395.142 474.841Z" fill="#E8505B"/>
<path d="M377.822 479.295C376.923 479.539 376.299 480.533 376.51 481.443C376.711 482.353 377.727 482.988 378.626 482.766C379.526 482.543 380.309 481.359 380.012 480.491C379.706 479.613 378.478 478.925 377.664 479.359" fill="white"/>
<path d="M372.458 489.717L372.628 486.024L416.841 487.632C416.841 487.632 418.894 488.542 418.651 489.981L372.458 489.717Z" fill="#263238"/>
<path d="M395.311 476.344C395.3 476.566 394.179 476.661 393.058 477.38C391.925 478.068 391.344 479.041 391.143 478.957C390.931 478.915 391.28 477.56 392.645 476.714C393.999 475.857 395.364 476.132 395.311 476.344Z" fill="#263238"/>
<path d="M400.146 478.375C400.199 478.597 399.215 478.967 398.443 479.92C397.638 480.851 397.448 481.877 397.215 481.866C397.004 481.898 396.855 480.576 397.839 479.412C398.813 478.248 400.135 478.163 400.146 478.375Z" fill="#263238"/>
<path d="M402.866 484.194C402.665 484.236 402.358 483.115 402.94 481.877C403.522 480.639 404.58 480.163 404.675 480.343C404.802 480.533 404.114 481.189 403.649 482.205C403.151 483.221 403.088 484.173 402.866 484.194Z" fill="#263238"/>
<path d="M393.957 86.5974C395.142 83.635 393.703 80.0378 391.132 78.144C388.562 76.2502 385.123 75.8376 381.97 76.3454C378.817 76.8427 375.855 78.1652 372.935 79.4665C370.29 76.8109 366.1 75.7952 362.535 76.959C358.969 78.1228 356.187 81.4026 355.615 85.1162C353.341 84.5343 350.78 85.3172 349.204 87.0524C347.628 88.7981 347.12 91.4219 347.934 93.6225L362.238 98.648L377.855 126.124C382.425 130.018 389.884 129.912 394.338 125.892C398.792 121.871 399.649 114.444 396.232 109.514C397.11 108.741 397.84 107.81 398.422 106.805C400.898 105.271 402.834 102.891 403.479 100.034C404.844 94.0034 400.104 87.3169 393.957 86.5974Z" fill="#263238"/>
<path d="M384.488 143.888C383.6 139.413 382.986 136.355 382.986 136.387C382.986 136.387 391.418 133.107 390.836 121.321C390.551 115.46 388.308 106.234 386.245 98.7326C384.382 91.9825 378.087 84.5448 371.422 86.6925L351.278 96.5319C349.257 97.1879 348.897 99.0817 349.373 101.155L349.405 102.171L357.245 134.609L360.556 149.104C362.027 155.272 367.952 159.303 374.226 158.393C381.177 157.388 385.853 150.765 384.488 143.888Z" fill="#FFBE9D"/>
<path d="M386.118 106.562C386.308 107.323 385.811 108.117 385.018 108.329C384.224 108.54 383.42 108.096 383.23 107.323C383.039 106.562 383.536 105.768 384.33 105.557C385.123 105.345 385.927 105.8 386.118 106.562Z" fill="#263238"/>
<path d="M385.25 104.308C385.113 104.541 383.833 103.948 382.256 104.287C380.68 104.594 379.696 105.652 379.484 105.493C379.378 105.43 379.495 105.038 379.918 104.573C380.341 104.107 381.103 103.578 382.087 103.367C383.071 103.166 383.97 103.356 384.52 103.621C385.081 103.896 385.314 104.213 385.25 104.308Z" fill="#263238"/>
<path d="M370.809 110.074C371 110.836 370.502 111.63 369.709 111.841C368.915 112.053 368.111 111.608 367.921 110.836C367.73 110.074 368.228 109.281 369.021 109.069C369.815 108.858 370.619 109.313 370.809 110.074Z" fill="#263238"/>
<path d="M370.036 108.043C369.899 108.276 368.619 107.683 367.042 108.022C365.466 108.329 364.482 109.387 364.27 109.228C364.164 109.165 364.281 108.773 364.704 108.308C365.127 107.842 365.889 107.313 366.873 107.101C367.857 106.9 368.756 107.091 369.306 107.355C369.867 107.63 370.11 107.937 370.036 108.043Z" fill="#263238"/>
<path d="M378.003 117.988C377.982 117.903 378.923 117.523 380.457 116.994C380.849 116.867 381.208 116.708 381.219 116.422C381.251 116.115 380.997 115.713 380.701 115.29C380.119 114.402 379.505 113.46 378.87 112.476C376.31 108.466 374.363 105.133 374.522 105.038C374.681 104.932 376.892 108.106 379.452 112.116C380.076 113.111 380.669 114.052 381.24 114.952C381.484 115.375 381.854 115.84 381.78 116.486C381.737 116.814 381.484 117.089 381.24 117.216C380.997 117.353 380.775 117.396 380.574 117.449C379.018 117.872 378.024 118.083 378.003 117.988Z" fill="#263238"/>
<path d="M382.996 136.376C382.996 136.376 375.431 138.482 366.872 135.509C366.872 135.509 372.406 142.745 383.599 139.286L382.996 136.376Z" fill="#EB996E"/>
<path d="M370.332 105.8C370.226 106.255 368.608 106.244 366.767 106.699C364.915 107.112 363.466 107.853 363.17 107.493C363.032 107.324 363.254 106.879 363.804 106.382C364.354 105.885 365.275 105.377 366.386 105.112C367.497 104.848 368.544 104.901 369.264 105.102C369.983 105.282 370.375 105.588 370.332 105.8Z" fill="#263238"/>
<path d="M384.647 99.3146C384.393 99.7378 383.039 99.6425 381.494 99.9494C379.939 100.214 378.701 100.785 378.32 100.478C378.151 100.32 378.278 99.9282 378.786 99.4627C379.272 99.0078 380.161 98.5316 381.23 98.3412C382.298 98.1508 383.282 98.2777 383.896 98.5316C384.499 98.775 384.753 99.103 384.647 99.3146Z" fill="#263238"/>
<path d="M356.24 88.9567C356.705 91.242 358.229 93.2839 360.281 94.3843C362.334 95.4846 364.884 95.6221 367.042 94.744C368.714 94.0669 370.449 92.7867 372.141 93.4003C373.929 94.0457 374.49 96.4262 376.151 97.3572C378.521 98.6797 381.378 96.3839 384.086 96.6166C386.181 96.7965 387.8 98.4258 389.44 99.7377C391.08 101.05 393.354 102.15 395.206 101.155C394.709 99.4098 394.211 97.6429 393.333 96.0559C392.455 94.4689 391.143 93.0512 389.461 92.3952C388.53 92.0355 387.525 91.9085 386.636 91.4536C384.721 90.4697 383.875 88.2479 382.478 86.6185C380.679 84.5131 377.823 83.3599 375.072 83.6456C372.776 83.8783 370.607 85.0315 368.311 84.9363C366.608 84.8623 364.979 84.1111 363.275 84.1322C359.964 84.1851 357.467 87.0946 355.626 89.8454" fill="#263238"/>
<path d="M367.391 91.3794C365.878 91.263 362.757 90.9456 361.731 89.8665C359.509 87.5177 356.187 86.2904 353.224 87.0734C350.262 87.8563 347.871 90.8293 347.913 94.1196C344.284 94.9026 341.216 97.9179 340.19 101.706C339.164 105.493 340.211 109.916 342.835 112.815C343.522 113.576 344.57 115.333 344.57 115.333C344.57 115.333 343.205 117.036 342.687 118.189C340.274 123.543 346.834 125.595 346.834 125.595C346.855 129.192 350.167 129.182 352.293 129.161C354.335 129.15 355.594 134.821 357.255 134.599L355.573 117.078C355.774 117.163 356.028 117.216 356.345 117.216C360.355 117.29 359.308 109.704 358.006 107.736C359.139 106.223 360.281 104.678 361.011 102.901C361.741 101.113 361.794 96.6588 361.17 94.7862C362.577 94.5852 368.047 91.4217 367.391 91.3794Z" fill="#263238"/>
<path d="M356.166 118.01C355.541 115.608 352.558 114.539 350.706 116.19C349.691 117.1 349.088 118.623 349.722 121.173C351.426 127.986 357.911 124.865 357.88 124.664C357.869 124.548 356.906 120.824 356.166 118.01Z" fill="#FFBE9D"/>
<path d="M355.16 122.612C355.129 122.601 355.065 122.728 354.885 122.866C354.716 123.003 354.388 123.151 354.007 123.109C353.224 123.024 352.325 122.03 351.986 120.813C351.817 120.199 351.796 119.575 351.891 119.036C351.976 118.486 352.209 118.052 352.558 117.904C352.896 117.734 353.203 117.882 353.341 118.052C353.478 118.221 353.468 118.369 353.51 118.369C353.531 118.38 353.626 118.221 353.499 117.946C353.436 117.819 353.32 117.681 353.129 117.586C352.928 117.491 352.674 117.491 352.431 117.576C351.912 117.745 351.563 118.348 351.457 118.94C351.32 119.544 351.33 120.252 351.521 120.94C351.912 122.305 352.939 123.405 353.986 123.448C354.494 123.448 354.864 123.204 355.023 122.993C355.192 122.781 355.192 122.622 355.16 122.612Z" fill="#EB996E"/>
<path d="M392.699 108.498C392.656 108.445 393.312 108.022 394.18 106.964C395.026 105.906 396.063 104.118 396.306 101.674C396.423 100.468 396.359 99.1031 395.926 97.7488C395.492 96.4052 394.709 95.0403 393.503 93.9929C391.154 91.8558 387.271 90.8718 383.78 92.0991C383.462 92.2049 383.166 92.3636 382.859 92.4906C382.574 92.6387 382.299 92.808 382.023 92.9667L381.6 93.1994L381.59 92.7339C381.579 91.9087 381.272 91.1152 380.733 90.5121C380.204 89.8985 379.516 89.4329 378.775 89.1155C377.294 88.4596 375.697 88.449 374.237 88.7876C371.316 89.4541 368.841 90.7872 366.503 91.0517C364.186 91.3479 362.26 90.7766 361.223 89.9937C360.684 89.6234 360.387 89.2002 360.186 88.9357C360.017 88.6394 359.932 88.4913 359.954 88.4807C360.006 88.4384 360.292 89.1261 361.34 89.8244C362.366 90.5227 364.217 91.0094 366.45 90.6814C367.561 90.5227 368.746 90.1206 370.005 89.6551C371.264 89.1896 372.618 88.6394 374.131 88.3009C374.893 88.1422 375.686 88.0152 376.522 88.0575C377.347 88.0999 378.183 88.2903 378.987 88.6289C379.78 88.9674 380.542 89.4753 381.145 90.163C381.759 90.8401 382.129 91.7817 382.14 92.7445L381.717 92.5117C382.002 92.353 382.299 92.1626 382.605 92.0039C382.923 91.8663 383.24 91.6971 383.579 91.5913C387.292 90.2899 391.355 91.3479 393.831 93.6226C395.09 94.7441 395.915 96.2041 396.349 97.6219C396.783 99.0502 396.825 100.468 396.677 101.727C396.381 104.256 395.248 106.075 394.328 107.112C393.862 107.631 393.45 108.001 393.143 108.202C392.879 108.413 392.709 108.509 392.699 108.498Z" fill="#455A64"/>
<path d="M391.323 84.5766C391.281 84.6506 390.603 84.037 389.133 83.8254C388.413 83.7302 387.493 83.7302 386.53 84.0581C385.567 84.3544 384.552 84.9998 383.853 86.0049L383.6 86.3752L383.441 85.952C382.584 83.6667 380.087 81.4978 376.987 81.1592C374.659 80.8947 372.543 81.9421 370.787 82.9472C369.01 83.9841 367.391 84.9998 365.867 85.4864C364.365 86.0154 363.021 86.0789 362.143 85.9202C361.699 85.8462 361.371 85.7404 361.159 85.6451C360.948 85.5499 360.831 85.497 360.842 85.4759C360.863 85.423 361.318 85.6134 362.175 85.698C363.032 85.7827 364.291 85.6663 365.74 85.1056C367.2 84.5871 368.745 83.5715 370.533 82.4923C371.432 81.9633 372.406 81.4237 373.496 81.0428C374.585 80.6514 375.813 80.4609 377.05 80.5879C380.373 80.9582 383.018 83.2964 383.885 85.7615L383.462 85.7086C384.255 84.5977 385.388 83.9418 386.424 83.6561C387.461 83.3387 388.435 83.381 389.186 83.5186C389.948 83.6667 390.498 83.9418 390.847 84.1534C391.175 84.4179 391.333 84.566 391.323 84.5766Z" fill="#455A64"/>
<path d="M377.389 121.12C376.913 120.654 376.194 120.506 375.527 120.58C374.903 120.654 374.141 121.205 373.739 121.882C373.728 121.892 373.718 121.903 373.707 121.924C373.686 121.956 373.665 121.977 373.644 122.009L373.665 121.987C373.517 122.231 373.432 122.506 373.464 122.792C373.527 123.416 374.003 123.945 374.564 124.22C375.453 124.664 376.638 124.537 377.336 123.818C378.066 123.098 378.108 121.818 377.389 121.12Z" fill="#E8505B"/>
<path d="M377.918 124.41C377.833 124.432 377.727 124.093 377.452 123.649C377.177 123.204 376.68 122.654 375.982 122.326C375.273 122.009 374.532 121.998 374.024 122.083C373.506 122.157 373.188 122.305 373.146 122.231C373.104 122.178 373.368 121.903 373.929 121.712C374.479 121.511 375.357 121.448 376.214 121.829C377.061 122.22 377.59 122.929 377.801 123.469C378.024 124.029 377.992 124.4 377.918 124.41Z" fill="#263238"/>
<path d="M356.324 125.722C356.377 125.691 356.631 126.251 356.229 127.055C356.028 127.436 355.668 127.859 355.097 128.071C354.536 128.293 353.806 128.209 353.235 127.849C352.653 127.489 352.272 126.875 352.229 126.262C352.177 125.659 352.409 125.151 352.663 124.802C353.213 124.093 353.827 124.082 353.827 124.146C353.859 124.23 353.361 124.389 352.991 125.024C352.811 125.331 352.674 125.765 352.737 126.209C352.79 126.653 353.086 127.098 353.531 127.383C353.975 127.658 354.515 127.732 354.938 127.595C355.372 127.457 355.7 127.151 355.901 126.854C356.313 126.241 356.239 125.722 356.324 125.722Z" fill="#E8505B"/>
<path d="M352.759 125.31C352.822 125.341 352.727 125.669 352.262 125.892C352.039 125.997 351.722 126.061 351.383 125.976C351.034 125.892 350.706 125.638 350.516 125.288C350.325 124.939 350.294 124.516 350.41 124.188C350.526 123.86 350.749 123.627 350.96 123.5C351.405 123.236 351.733 123.342 351.722 123.405C351.733 123.49 351.457 123.543 351.204 123.807C350.928 124.061 350.738 124.558 351.003 125.024C351.256 125.5 351.775 125.606 352.135 125.521C352.494 125.458 352.685 125.267 352.759 125.31Z" fill="#E8505B"/>
<path d="M364.386 219.271C364.386 219.271 390.582 220.794 406.06 220.932C418.058 221.037 423.401 217.853 425.792 210.151C427.802 203.676 423.475 191.276 423.475 191.276C415.371 191.318 410.356 192.44 405.14 194.884L406.526 200.555L364.312 204.194L364.386 219.271Z" fill="#FFBE9D"/>
<path d="M415.35 206.606C415.202 206.702 413.975 204.406 411.393 202.681C408.843 200.914 406.251 200.607 406.294 200.438C406.304 200.375 406.949 200.354 407.976 200.586C408.991 200.808 410.377 201.327 411.7 202.237C413.022 203.147 414.017 204.236 414.588 205.104C415.191 205.972 415.413 206.575 415.35 206.606Z" fill="#EB996E"/>
<path d="M354.8 194.841C354.8 194.841 346.696 196.788 340.75 200.766L347.077 217.969C349.193 223.619 355.668 226.391 360.789 223.46C368.755 218.911 371.57 205.622 371.57 205.622L380.33 167.661L365.825 158.573L354.8 194.841Z" fill="#FFBE9D"/>
<path d="M365.814 158.573L366.396 146.089L363.158 133.446C362.978 132.747 362.894 131.869 363.454 131.446C364.047 131.002 364.936 131.023 365.412 131.51C366.3 132.419 370.532 143.518 370.532 143.518C370.532 143.518 376.955 139.656 378.097 139.476C379.24 139.286 380.668 142.745 380.763 143.01C380.848 143.285 380.774 145.327 380.774 145.327C380.774 145.327 384.741 145.443 385.101 145.994C385.461 146.533 385.556 149.358 385.556 149.358C385.556 149.358 387.238 149.898 387.503 151.167C387.778 152.437 388.317 154.532 387.524 154.997C386.73 155.452 385.059 156.373 385.059 156.373C385.059 156.373 384.382 162.847 384.212 163.44C384.043 164.032 380.319 167.661 380.319 167.661L365.814 158.573Z" fill="#FFBE9D"/>
<path d="M352.324 223.725C352.345 223.693 352.716 223.947 353.541 224.222C354.356 224.497 355.636 224.74 357.276 224.518C358.905 224.296 360.905 223.587 362.693 222.021C364.46 220.424 366.248 218.308 367.729 215.652C368.469 214.319 369.136 212.859 369.686 211.283C370.257 209.706 370.628 207.992 371.04 206.215C371.876 202.649 372.765 198.809 373.717 194.736C375.621 186.578 377.759 177.448 380.065 167.619L380.086 167.545L380.139 167.492C380.869 166.773 381.599 166.043 382.329 165.291C382.689 164.91 383.049 164.53 383.398 164.138C383.567 163.937 383.747 163.736 383.874 163.546C384.001 163.419 384.001 163.165 384.054 162.89C384.339 160.774 384.562 158.584 384.794 156.383L384.805 156.245L384.932 156.171C385.598 155.801 386.265 155.42 386.953 155.039C387.111 154.944 387.333 154.838 387.429 154.764C387.513 154.701 387.587 154.574 387.619 154.405C387.693 154.087 387.672 153.685 387.63 153.304C387.535 152.564 387.355 151.696 387.164 151.008C386.9 150.363 386.18 149.908 385.482 149.654L385.302 149.591L385.292 149.411C385.27 148.797 385.228 148.162 385.154 147.538C385.122 147.221 385.08 146.914 385.016 146.607C384.985 146.47 384.942 146.3 384.9 146.216C384.868 146.142 384.879 146.194 384.837 146.152C384.784 146.131 384.731 146.099 384.657 146.078C383.482 145.75 382.096 145.708 380.784 145.644L380.509 145.634L380.52 145.359C380.541 144.703 380.573 143.973 380.541 143.296C380.562 143.116 380.393 142.841 380.298 142.587C380.181 142.333 380.065 142.079 379.938 141.836C379.684 141.338 379.399 140.862 379.071 140.439C378.901 140.227 378.721 140.037 378.531 139.91C378.319 139.783 378.224 139.751 377.97 139.846C377.484 140.016 376.976 140.28 376.478 140.534C374.5 141.56 372.585 142.682 370.702 143.803L370.427 143.962L370.31 143.666C369.305 141.158 368.321 138.683 367.348 136.249C366.861 135.033 366.375 133.816 365.898 132.62C365.719 132.017 365.295 131.668 364.735 131.531C364.174 131.382 363.624 131.562 363.359 132.038C363.222 132.261 363.169 132.536 363.201 132.79C363.232 133.022 363.349 133.382 363.412 133.668C363.571 134.281 363.73 134.884 363.888 135.488C364.206 136.694 364.523 137.9 364.83 139.085C365.454 141.455 366.068 143.793 366.66 146.068L366.671 146.11V146.152C366.459 150.501 366.258 154.669 366.068 158.637V158.668L366.057 158.7C362.058 171.713 358.746 182.505 356.419 190.059C355.255 193.804 354.334 196.756 353.7 198.788C353.382 199.772 353.139 200.533 352.97 201.073C352.8 201.591 352.695 201.856 352.695 201.856C352.695 201.856 352.758 201.581 352.896 201.062C353.054 200.512 353.276 199.75 353.562 198.756C354.165 196.714 355.043 193.752 356.165 189.985C358.44 182.41 361.698 171.597 365.613 158.562L365.602 158.615C365.782 154.648 365.972 150.479 366.173 146.131L366.184 146.205C365.581 143.93 364.967 141.603 364.333 139.222C364.015 138.037 363.698 136.842 363.38 135.625C363.222 135.022 363.063 134.408 362.894 133.805C362.82 133.477 362.724 133.234 362.661 132.843C362.619 132.472 362.703 132.091 362.894 131.763C363.084 131.435 363.38 131.171 363.751 131.044C364.121 130.917 364.491 130.928 364.84 131.012C365.19 131.097 365.528 131.256 365.814 131.509C366.099 131.742 366.29 132.144 366.385 132.419C366.861 133.615 367.348 134.832 367.835 136.048C368.808 138.482 369.802 140.957 370.808 143.465L370.416 143.327C372.31 142.206 374.225 141.084 376.224 140.037C376.732 139.783 377.219 139.518 377.79 139.317C377.949 139.275 378.097 139.212 378.319 139.243C378.51 139.275 378.69 139.349 378.817 139.444C379.102 139.624 379.303 139.857 379.483 140.09C379.853 140.555 380.139 141.063 380.404 141.582C380.541 141.836 380.658 142.1 380.784 142.365C380.88 142.64 381.06 142.862 381.081 143.264C381.112 144.015 381.081 144.724 381.06 145.39L380.795 145.105C382.16 145.179 383.472 145.2 384.837 145.57C384.921 145.591 385.016 145.644 385.112 145.687C385.196 145.729 385.366 145.877 385.387 145.962C385.493 146.163 385.514 146.321 385.556 146.501C385.63 146.84 385.672 147.157 385.704 147.485C385.778 148.131 385.821 148.765 385.842 149.4L385.651 149.146C386.466 149.453 387.281 149.929 387.672 150.818C387.926 151.685 388.064 152.426 388.18 153.262C388.222 153.675 388.254 154.098 388.159 154.542C388.116 154.764 388 155.018 387.778 155.198C387.556 155.357 387.418 155.41 387.238 155.515C386.551 155.896 385.873 156.277 385.207 156.648L385.344 156.436C385.112 158.647 384.879 160.827 384.593 162.964L384.53 163.376C384.519 163.503 384.424 163.736 384.329 163.842C384.16 164.085 383.98 164.286 383.81 164.487C383.451 164.889 383.091 165.281 382.721 165.662C381.991 166.423 381.25 167.153 380.52 167.873L380.594 167.746C378.266 177.564 376.108 186.684 374.172 194.841C373.199 198.915 372.289 202.755 371.442 206.31C371.019 208.087 370.628 209.823 370.046 211.41C369.474 213.007 368.787 214.478 368.036 215.821C366.512 218.498 364.692 220.625 362.883 222.222C361.032 223.809 358.979 224.508 357.329 224.698C355.657 224.899 354.345 224.613 353.541 224.317C353.128 224.169 352.832 224.021 352.642 223.915C352.419 223.788 352.324 223.735 352.324 223.725Z" fill="#EB996E"/>
<path d="M380.774 145.316C380.774 145.39 380.414 145.433 379.853 145.464C379.293 145.496 378.531 145.517 377.748 145.718C376.965 145.919 376.33 146.311 375.949 146.681C375.558 147.041 375.389 147.348 375.315 147.316C375.251 147.295 375.293 146.914 375.653 146.427C376.002 145.94 376.711 145.422 377.6 145.189C378.489 144.967 379.303 145.02 379.864 145.083C380.435 145.147 380.774 145.242 380.774 145.316Z" fill="#EB996E"/>
<path d="M377.637 144.7C377.506 145.05 377.515 145.377 377.657 145.43C377.8 145.483 378.021 145.243 378.152 144.892C378.283 144.542 378.274 144.215 378.132 144.162C377.99 144.109 377.768 144.349 377.637 144.7Z" fill="#EB996E"/>
<path d="M385.726 149.273C385.726 149.432 384.308 149.601 382.583 149.707C381.726 149.781 381.092 150.088 380.838 150.543C380.563 150.977 380.647 151.336 380.573 151.357C380.52 151.41 380.235 150.998 380.489 150.363C380.605 150.067 380.869 149.739 381.25 149.527C381.621 149.315 382.076 149.21 382.52 149.157C384.297 149.04 385.736 149.125 385.726 149.273Z" fill="#EB996E"/>
<path d="M385.242 154.829C385.285 153.871 385.197 153.09 385.046 153.083C384.894 153.076 384.736 153.847 384.693 154.804C384.649 155.761 384.737 156.543 384.889 156.55C385.041 156.557 385.199 155.786 385.242 154.829Z" fill="#EB996E"/>
<path d="M389.418 181.574L390.36 178.326C390.55 177.67 391.365 177.469 391.841 177.956L393.068 179.204L393.83 176.157C394.031 175.353 395.131 175.247 395.491 175.988L397.226 179.596L389.418 181.574Z" fill="white"/>
<path d="M393.528 182.189C395.627 181.669 397.298 181.129 397.262 180.981C397.225 180.834 395.494 181.135 393.396 181.655C391.297 182.175 389.625 182.716 389.662 182.863C389.698 183.011 391.429 182.709 393.528 182.189Z" fill="white"/>
<path d="M334.328 162.911C334.349 162.932 333.937 163.313 333.386 164.17C332.847 165.016 332.244 166.381 331.948 168.169C331.641 169.947 331.62 172.115 331.757 174.507C331.873 176.898 332.064 179.532 332.36 182.283C332.942 187.784 333.831 192.725 334.593 196.27C334.973 198.047 335.312 199.475 335.545 200.459C335.651 200.893 335.735 201.274 335.82 201.591C335.883 201.856 335.904 201.993 335.904 201.993C335.904 201.993 335.852 201.866 335.777 201.602C335.693 201.285 335.587 200.914 335.46 200.48C335.196 199.497 334.836 198.079 334.444 196.301C333.64 192.757 332.73 187.816 332.149 182.304C331.852 179.553 331.672 176.919 331.567 174.517C331.44 172.126 331.471 169.936 331.81 168.137C332.127 166.339 332.752 164.963 333.323 164.128C333.894 163.271 334.328 162.911 334.328 162.911Z" fill="white"/>
<path d="M356.599 148.522C356.599 148.533 356.524 148.575 356.366 148.649C356.154 148.755 355.921 148.861 355.668 148.977C355.064 149.263 354.186 149.686 353.139 150.268C351.023 151.4 348.209 153.156 345.193 155.24C342.178 157.314 339.491 159.282 337.544 160.678C336.645 161.313 335.872 161.863 335.216 162.318C334.984 162.477 334.772 162.625 334.582 162.752C334.433 162.847 334.359 162.9 334.349 162.89C334.349 162.879 334.412 162.826 334.55 162.71C334.74 162.562 334.941 162.414 335.163 162.244C335.798 161.768 336.56 161.197 337.449 160.541C339.385 159.113 342.04 157.124 345.066 155.05C348.092 152.966 350.928 151.231 353.065 150.13C354.123 149.569 355.012 149.157 355.636 148.892C355.9 148.787 356.133 148.691 356.355 148.596C356.503 148.543 356.588 148.511 356.599 148.522Z" fill="white"/>
<path d="M407.055 155.41C407.044 155.42 406.991 155.367 406.875 155.272C406.727 155.145 406.568 155.008 406.399 154.859C405.986 154.51 405.362 154.013 404.547 153.474C402.929 152.373 400.516 151.135 397.745 150.035C394.973 148.924 392.38 148.141 390.497 147.623C389.556 147.358 388.783 147.168 388.254 147.041C388.043 146.988 387.842 146.935 387.641 146.882C387.503 146.84 387.429 146.819 387.429 146.808C387.429 146.798 387.503 146.808 387.651 146.829C387.852 146.861 388.053 146.903 388.275 146.946C388.815 147.051 389.587 147.221 390.54 147.464C392.444 147.94 395.047 148.713 397.829 149.823C400.612 150.934 403.035 152.204 404.632 153.336C406.251 154.468 407.055 155.41 407.055 155.41Z" fill="white"/>
<path d="M356.895 236.167C356.885 236.177 356.736 236.135 356.483 236.029C356.229 235.924 355.858 235.744 355.435 235.469C354.599 234.94 353.478 233.913 353.139 232.348C352.79 230.824 353.118 229.375 353.552 228.475C353.763 228.02 353.986 227.671 354.166 227.449C354.335 227.227 354.451 227.121 354.462 227.132C354.493 227.153 354.081 227.629 353.7 228.539C353.319 229.438 353.023 230.835 353.361 232.295C353.679 233.776 354.737 234.781 355.53 235.331C356.334 235.902 356.916 236.125 356.895 236.167Z" fill="white"/>
<path d="M354.024 226.038C353.804 225.286 353.581 224.69 353.525 224.707C353.468 224.723 353.601 225.346 353.821 226.097C354.041 226.849 354.264 227.445 354.32 227.428C354.377 227.412 354.244 226.789 354.024 226.038Z" fill="white"/>
<path d="M367.834 461.923L400.103 461.764L399.522 350.187L399.225 236.696L355.519 236.156L347.658 250.968C344.484 256.946 342.337 263.442 341.617 270.171C341.067 275.302 344.908 292.019 346.251 296.272L358.281 334.423L367.834 461.923Z" fill="#263238"/>
<path d="M408.684 236.844L444.148 333.513C448.317 346.474 446.92 359.318 439.779 371.284L398.612 451.639L375.463 422.682L409.912 350.695L379.547 301.498L384.657 236.95L398.961 236.717L408.684 236.844Z" fill="#263238"/>
<path d="M396.273 269.229C396.273 269.229 396.295 269.399 396.326 269.727C396.348 270.076 396.379 270.562 396.422 271.187C396.496 272.498 396.591 274.382 396.718 276.794C396.951 281.692 397.3 288.728 397.712 297.414C398.114 306.132 398.59 316.49 399.119 327.991C399.373 333.746 399.648 339.787 399.934 346.051C400.135 349.182 400.04 352.377 400.082 355.604C400.093 358.842 400.103 362.122 400.114 365.454C400.156 392.042 400.199 416.111 400.23 433.558C400.22 442.255 400.209 449.301 400.199 454.199C400.188 456.612 400.167 458.505 400.167 459.807C400.156 460.431 400.146 460.918 400.146 461.267C400.135 461.595 400.114 461.764 400.114 461.764C400.114 461.764 400.093 461.595 400.082 461.267C400.072 460.918 400.061 460.431 400.051 459.807C400.04 458.495 400.008 456.612 399.987 454.199C399.955 449.301 399.902 442.255 399.839 433.558C399.765 416.111 399.67 392.042 399.564 365.454C399.553 362.132 399.543 358.842 399.532 355.615C399.5 352.377 399.596 349.182 399.395 346.061C399.119 339.798 398.866 333.757 398.612 328.001C398.125 316.501 397.691 306.132 397.321 297.425C396.972 288.739 396.697 281.703 396.496 276.805C396.411 274.392 396.347 272.509 396.305 271.197C396.295 270.573 396.273 270.086 396.263 269.737C396.263 269.399 396.273 269.229 396.273 269.229Z" fill="#455A64"/>
<path d="M395.458 238.748C395.501 238.748 395.575 239.119 395.681 239.796C395.786 240.473 395.924 241.467 396.061 242.684C396.347 245.128 396.643 248.524 396.813 252.28C396.982 256.036 396.992 259.443 396.929 261.908C396.897 263.135 396.855 264.14 396.813 264.828C396.77 265.516 396.717 265.897 396.686 265.897C396.601 265.897 396.58 264.373 396.548 261.918C396.506 259.464 396.442 256.068 396.273 252.322C396.104 248.577 395.871 245.191 395.681 242.737C395.501 240.282 395.384 238.759 395.458 238.748Z" fill="#455A64"/>
<path d="M388.349 240.928C388.402 241.002 387.799 241.277 387.63 242.134C387.556 242.547 387.64 243.076 388.042 243.425C388.423 243.784 389.09 243.954 389.629 243.71C390.169 243.467 390.465 242.843 390.444 242.324C390.444 241.785 390.095 241.383 389.735 241.171C388.973 240.737 388.37 241.012 388.36 240.928C388.349 240.896 388.465 240.79 388.73 240.706C388.994 240.632 389.439 240.61 389.915 240.822C390.38 241.023 390.909 241.552 390.952 242.293C391.005 243.001 390.645 243.837 389.851 244.208C389.047 244.557 388.18 244.282 387.682 243.784C387.143 243.266 387.09 242.525 387.249 242.039C387.397 241.531 387.693 241.213 387.936 241.065C388.18 240.917 388.338 240.896 388.349 240.928Z" fill="#455A64"/>
<path d="M371.421 239.013C371.453 239.002 371.58 239.362 371.707 240.029C371.844 240.695 371.919 241.69 371.802 242.906C371.686 244.123 371.315 245.562 370.585 247.001C369.855 248.45 368.713 249.889 367.189 251C365.645 252.09 363.92 252.703 362.312 252.936C360.704 253.169 359.223 253.063 358.038 252.777C356.842 252.502 355.932 252.111 355.34 251.772C354.747 251.434 354.462 251.201 354.472 251.169C354.525 251.064 355.773 251.952 358.112 252.397C360.386 252.852 363.909 252.64 366.861 250.545C369.792 248.419 371.114 245.149 371.411 242.853C371.749 240.494 371.305 239.024 371.421 239.013Z" fill="#455A64"/>
<path d="M412.937 248.281C412.937 248.334 412.133 248.397 410.906 248.038C409.679 247.689 408.07 246.832 406.737 245.372C405.415 243.912 404.717 242.219 404.484 240.97C404.251 239.711 404.389 238.918 404.441 238.928C404.537 238.928 404.547 239.701 404.865 240.886C405.171 242.06 405.891 243.626 407.139 245.012C408.398 246.387 409.88 247.255 411.022 247.678C412.165 248.101 412.948 248.175 412.937 248.281Z" fill="#455A64"/>
<path d="M425.538 352.494C425.58 352.547 424.924 353.192 423.665 353.986C423.031 354.366 422.237 354.79 421.253 355.033C420.29 355.287 419.116 355.319 418.005 354.948C415.752 354.208 414.344 352.515 413.487 351.351C412.631 350.156 412.197 349.352 412.25 349.32C412.313 349.267 412.874 349.997 413.794 351.118C414.715 352.208 416.111 353.753 418.174 354.43C420.248 355.118 422.227 354.314 423.464 353.647C424.745 352.959 425.485 352.42 425.538 352.494Z" fill="#455A64"/>
<path d="M414.145 354.453C415.865 356.872 417.36 358.762 417.484 358.674C417.608 358.586 416.313 356.553 414.593 354.134C412.873 351.716 411.377 349.826 411.254 349.914C411.13 350.002 412.424 352.034 414.145 354.453Z" fill="#455A64"/>
<path d="M362.394 271.635C362.718 272.443 363.094 273.053 363.235 272.996C363.376 272.94 363.228 272.239 362.905 271.43C362.582 270.622 362.205 270.012 362.064 270.069C361.923 270.125 362.071 270.826 362.394 271.635Z" fill="#FAFAFA"/>
<path d="M383.726 275.916C383.878 275.916 384.001 275.39 384.001 274.742C384.001 274.093 383.878 273.567 383.726 273.567C383.574 273.567 383.451 274.093 383.451 274.742C383.451 275.39 383.574 275.916 383.726 275.916Z" fill="#FAFAFA"/>
<path d="M374.935 285.587C374.99 286.397 375.157 287.046 375.309 287.035C375.46 287.025 375.539 286.36 375.484 285.55C375.429 284.739 375.261 284.091 375.11 284.101C374.958 284.111 374.88 284.776 374.935 285.587Z" fill="#FAFAFA"/>
<path d="M359.92 295.224C359.793 295.319 359.36 294.928 358.788 294.515C358.227 294.103 357.72 293.807 357.773 293.658C357.815 293.521 358.471 293.606 359.116 294.071C359.762 294.537 360.047 295.14 359.92 295.224Z" fill="#FAFAFA"/>
<path d="M387.419 304.541C387.095 305.027 386.935 305.489 387.061 305.573C387.188 305.658 387.553 305.332 387.877 304.846C388.201 304.36 388.362 303.897 388.235 303.813C388.109 303.729 387.744 304.055 387.419 304.541Z" fill="#FAFAFA"/>
<path d="M370.258 308.492C370.41 308.492 370.533 307.62 370.533 306.545C370.533 305.47 370.41 304.598 370.258 304.598C370.106 304.598 369.983 305.47 369.983 306.545C369.983 307.62 370.106 308.492 370.258 308.492Z" fill="#FAFAFA"/>
<path d="M363.562 319.806C364.153 320.236 364.705 320.484 364.794 320.361C364.883 320.238 364.477 319.79 363.886 319.361C363.295 318.932 362.744 318.683 362.654 318.806C362.565 318.929 362.972 319.377 363.562 319.806Z" fill="#FAFAFA"/>
<path d="M380.985 325.144C381.471 324.928 381.815 324.641 381.753 324.502C381.692 324.363 381.248 324.426 380.762 324.641C380.276 324.857 379.932 325.145 379.994 325.284C380.055 325.423 380.499 325.36 380.985 325.144Z" fill="#FAFAFA"/>
<path d="M369.052 341.961C369.59 343.037 370.137 343.855 370.273 343.787C370.409 343.719 370.082 342.791 369.544 341.715C369.006 340.638 368.459 339.82 368.323 339.888C368.188 339.956 368.514 340.884 369.052 341.961Z" fill="#FAFAFA"/>
<path d="M389.513 340.463C389.081 341.273 388.84 341.987 388.974 342.059C389.108 342.13 389.566 341.532 389.998 340.722C390.43 339.913 390.671 339.199 390.537 339.127C390.403 339.056 389.944 339.654 389.513 340.463Z" fill="#FAFAFA"/>
<path d="M380.795 358.44C380.636 358.419 380.646 357.583 380.488 356.588C380.34 355.594 380.064 354.8 380.213 354.737C380.34 354.663 380.869 355.414 381.038 356.504C381.207 357.594 380.943 358.472 380.795 358.44Z" fill="#FAFAFA"/>
<path d="M370.844 366.912C371.383 367.504 371.911 367.901 372.023 367.799C372.135 367.697 371.79 367.134 371.251 366.541C370.713 365.949 370.185 365.552 370.073 365.654C369.96 365.756 370.306 366.319 370.844 366.912Z" fill="#FAFAFA"/>
<path d="M394.221 370.078C393.635 370.673 393.248 371.242 393.356 371.349C393.464 371.455 394.027 371.059 394.613 370.464C395.2 369.869 395.587 369.3 395.479 369.193C395.371 369.086 394.808 369.482 394.221 370.078Z" fill="#FAFAFA"/>
<path d="M381.054 383.576C380.906 384.546 380.909 385.351 381.059 385.374C381.209 385.397 381.45 384.629 381.598 383.658C381.745 382.688 381.743 381.882 381.592 381.86C381.442 381.837 381.201 382.605 381.054 383.576Z" fill="#FAFAFA"/>
<path d="M371.773 390.945C372.213 391.697 372.676 392.243 372.807 392.167C372.938 392.09 372.688 391.419 372.248 390.667C371.808 389.916 371.345 389.369 371.214 389.446C371.083 389.523 371.333 390.194 371.773 390.945Z" fill="#FAFAFA"/>
<path d="M391.483 401.931C392.239 401.39 392.779 400.852 392.691 400.728C392.602 400.605 391.918 400.943 391.163 401.484C390.407 402.024 389.867 402.563 389.955 402.687C390.044 402.81 390.728 402.472 391.483 401.931Z" fill="#FAFAFA"/>
<path d="M376.14 411.901C375.992 411.848 376.182 410.991 376.267 409.943C376.362 408.896 376.33 408.018 376.478 407.997C376.626 407.965 376.912 408.864 376.806 409.996C376.722 411.128 376.277 411.964 376.14 411.901Z" fill="#FAFAFA"/>
<path d="M381.742 427.102C382.173 427.641 382.618 428 382.737 427.905C382.855 427.81 382.602 427.297 382.172 426.759C381.741 426.22 381.296 425.861 381.177 425.956C381.058 426.05 381.311 426.564 381.742 427.102Z" fill="#FAFAFA"/>
<path d="M374.237 437.189C374.83 438.051 375.411 438.68 375.537 438.594C375.662 438.508 375.283 437.739 374.69 436.878C374.098 436.016 373.516 435.387 373.391 435.473C373.266 435.559 373.645 436.327 374.237 437.189Z" fill="#FAFAFA"/>
<path d="M395.484 424.284C395.322 424.716 395.305 425.11 395.448 425.163C395.59 425.217 395.837 424.909 395.999 424.477C396.161 424.045 396.177 423.651 396.035 423.598C395.892 423.545 395.646 423.852 395.484 424.284Z" fill="#FAFAFA"/>
<path d="M386.646 450.719C386.508 450.645 386.773 449.893 386.974 448.952C387.185 448.01 387.27 447.217 387.418 447.206C387.566 447.196 387.735 448.042 387.503 449.068C387.291 450.095 386.773 450.793 386.646 450.719Z" fill="#FAFAFA"/>
<path d="M391.613 286.225C391.888 286.812 392.222 287.236 392.36 287.172C392.497 287.108 392.386 286.579 392.111 285.992C391.836 285.404 391.502 284.98 391.364 285.045C391.227 285.109 391.338 285.638 391.613 286.225Z" fill="#FAFAFA"/>
<path d="M377.674 254.259C377.758 254.396 377.007 254.989 376.224 255.835C375.431 256.671 374.881 257.454 374.743 257.38C374.616 257.316 374.965 256.364 375.822 255.454C376.669 254.544 377.6 254.121 377.674 254.259Z" fill="#FAFAFA"/>
<path d="M390.751 253.867C390.603 253.899 390.349 253.275 389.979 252.545C389.619 251.815 389.27 251.243 389.386 251.137C389.492 251.032 390.074 251.497 390.476 252.301C390.878 253.095 390.889 253.835 390.751 253.867Z" fill="#FAFAFA"/>
<path d="M350.357 263.03C350.037 263.84 349.892 264.541 350.033 264.597C350.174 264.653 350.548 264.042 350.869 263.232C351.189 262.423 351.334 261.721 351.192 261.665C351.051 261.609 350.677 262.22 350.357 263.03Z" fill="#FAFAFA"/>
<path d="M349.967 279.831C350.613 280.37 351.216 280.712 351.313 280.595C351.411 280.479 350.965 279.947 350.319 279.409C349.673 278.87 349.07 278.528 348.973 278.645C348.875 278.761 349.32 279.293 349.967 279.831Z" fill="#FAFAFA"/>
<path d="M377.412 240.709C377.627 241.246 377.915 241.636 378.056 241.58C378.197 241.523 378.137 241.042 377.923 240.505C377.708 239.968 377.419 239.578 377.278 239.635C377.137 239.691 377.197 240.172 377.412 240.709Z" fill="#FAFAFA"/>
<path d="M403.695 247.944C403.53 248.697 403.517 249.334 403.665 249.367C403.813 249.399 404.068 248.815 404.233 248.062C404.398 247.308 404.411 246.671 404.263 246.639C404.114 246.606 403.86 247.191 403.695 247.944Z" fill="#FAFAFA"/>
<path d="M410.079 259.712C409.701 260.631 409.508 261.423 409.648 261.48C409.789 261.538 410.209 260.84 410.588 259.922C410.966 259.003 411.159 258.212 411.018 258.154C410.878 258.096 410.457 258.794 410.079 259.712Z" fill="#FAFAFA"/>
<path d="M404.258 269.583C404.744 270.555 405.248 271.288 405.384 271.22C405.52 271.152 405.236 270.309 404.75 269.337C404.264 268.365 403.76 267.632 403.624 267.7C403.488 267.768 403.772 268.611 404.258 269.583Z" fill="#FAFAFA"/>
<path d="M414.755 279.622C414.487 280.32 414.384 280.93 414.526 280.985C414.668 281.039 415 280.517 415.269 279.819C415.537 279.121 415.64 278.511 415.498 278.456C415.356 278.402 415.024 278.924 414.755 279.622Z" fill="#FAFAFA"/>
<path d="M405.634 289.912C405.903 290.343 406.226 290.627 406.355 290.547C406.484 290.466 406.37 290.052 406.1 289.621C405.831 289.19 405.508 288.905 405.379 288.986C405.25 289.066 405.364 289.481 405.634 289.912Z" fill="#FAFAFA"/>
<path d="M406.625 309.097C407.325 309.85 407.982 310.377 408.093 310.274C408.205 310.171 407.728 309.476 407.028 308.722C406.328 307.969 405.671 307.441 405.559 307.545C405.448 307.648 405.925 308.343 406.625 309.097Z" fill="#FAFAFA"/>
<path d="M417.551 297.723C418.143 298.476 418.72 299.011 418.839 298.917C418.959 298.823 418.575 298.136 417.983 297.383C417.391 296.629 416.815 296.095 416.695 296.189C416.576 296.282 416.959 296.969 417.551 297.723Z" fill="#FAFAFA"/>
<path d="M425.252 312.763C424.819 313.677 424.579 314.47 424.717 314.535C424.854 314.6 425.316 313.912 425.749 312.999C426.182 312.085 426.422 311.292 426.285 311.227C426.148 311.162 425.685 311.85 425.252 312.763Z" fill="#FAFAFA"/>
<path d="M412.207 327.419C412.069 327.504 411.582 326.912 410.895 326.287C410.217 325.663 409.593 325.219 409.667 325.071C409.731 324.933 410.524 325.187 411.275 325.875C412.016 326.573 412.333 327.345 412.207 327.419Z" fill="#FAFAFA"/>
<path d="M411.815 340.962C412.464 340.962 412.99 340.839 412.99 340.687C412.99 340.535 412.464 340.412 411.815 340.412C411.167 340.412 410.641 340.535 410.641 340.687C410.641 340.839 411.167 340.962 411.815 340.962Z" fill="#FAFAFA"/>
<path d="M425.865 336.973C425.728 336.888 426.003 336.233 426.204 335.397C426.416 334.571 426.49 333.863 426.648 333.852C426.796 333.831 426.976 334.614 426.744 335.534C426.511 336.465 425.982 337.058 425.865 336.973Z" fill="#FAFAFA"/>
<path d="M437.789 339.754C438.128 340.719 438.518 341.46 438.662 341.41C438.805 341.359 438.647 340.536 438.308 339.572C437.97 338.607 437.579 337.865 437.436 337.916C437.293 337.966 437.451 338.789 437.789 339.754Z" fill="#FAFAFA"/>
<path d="M437.337 357.625C436.8 358.65 436.474 359.538 436.608 359.608C436.743 359.679 437.287 358.906 437.824 357.881C438.362 356.856 438.688 355.968 438.553 355.898C438.419 355.827 437.874 356.601 437.337 357.625Z" fill="#FAFAFA"/>
<path d="M423.959 368.657C424.354 369.619 424.788 370.352 424.929 370.294C425.069 370.236 424.863 369.41 424.468 368.448C424.073 367.485 423.638 366.752 423.498 366.81C423.357 366.868 423.564 367.694 423.959 368.657Z" fill="#FAFAFA"/>
<path d="M411.032 374.712C411.57 374.712 412.006 374.589 412.006 374.437C412.006 374.285 411.57 374.162 411.032 374.162C410.495 374.162 410.059 374.285 410.059 374.437C410.059 374.589 410.495 374.712 411.032 374.712Z" fill="#FAFAFA"/>
<path d="M418.801 390.022C419.016 390.83 419.31 391.452 419.457 391.413C419.603 391.374 419.548 390.688 419.332 389.88C419.117 389.073 418.824 388.45 418.677 388.49C418.53 388.529 418.586 389.215 418.801 390.022Z" fill="#FAFAFA"/>
<path d="M410.409 384.65C410.085 385.191 409.927 385.693 410.057 385.771C410.188 385.849 410.556 385.474 410.881 384.933C411.206 384.392 411.363 383.89 411.233 383.812C411.103 383.733 410.734 384.109 410.409 384.65Z" fill="#FAFAFA"/>
<path d="M409.362 402.855C409.47 403.772 409.679 404.501 409.83 404.483C409.981 404.466 410.016 403.708 409.908 402.791C409.8 401.874 409.591 401.145 409.44 401.163C409.289 401.18 409.254 401.938 409.362 402.855Z" fill="#FAFAFA"/>
</svg>
