<svg width="500" height="500" viewBox="0 0 500 500" fill="none" xmlns="http://www.w3.org/2000/svg">
<path d="M112.046 346.3C110.486 349.051 109.265 352.159 109.591 355.305C109.917 358.451 112.18 361.562 115.314 361.988C117.627 362.303 119.939 361.13 121.586 359.476C123.233 357.821 124.343 355.721 125.478 353.681C130.844 344.042 138.634 336.241 146.059 328.082C132.526 327.114 118.739 334.498 112.046 346.3Z" fill="#EBEBEB"/>
<path d="M452.238 213.439C443.535 209.148 432.836 213.204 425.43 219.474C418.024 225.744 412.551 234.049 405.13 240.3C391.898 251.446 372.641 254.938 356.338 249.149L354.042 249.384C363.546 258.068 374.403 265.269 386.1 270.646C400.061 277.063 416.021 280.871 430.827 276.761C447.606 272.104 460.893 256.778 463.124 239.508C464.412 229.533 461.259 217.887 452.238 213.439Z" fill="#EBEBEB"/>
<path d="M91.0996 193.175C75.1376 187.609 61.6516 175.297 54.6586 159.906C47.6656 144.515 47.2616 126.259 53.5686 110.574C57.3336 101.211 65.3926 91.797 75.4336 92.805C85.0276 93.768 91.1596 103.94 92.4576 113.494C94.3326 127.294 89.5026 140.987 86.5966 154.607C83.6906 168.227 83.1486 183.843 92.0136 194.583" fill="#EBEBEB"/>
<path d="M270.804 104.46C272.369 100.957 277.31 99.785 280.926 98.501C284.542 97.217 288.413 96.334 291.46 94.002C297.069 89.708 298.282 81.955 300.555 75.268C302.093 70.743 304.4 66.307 308.151 63.345C311.902 60.383 317.327 59.2 321.573 61.395C326.399 63.89 328.367 69.741 329.147 75.117C330.202 82.389 329.666 90.486 324.858 96.042C318.696 103.161 307.926 103.661 298.557 102.729C289.187 101.796 279.149 100.099 270.804 104.46Z" fill="#EBEBEB"/>
<path d="M408.017 307.567C402.19 294.015 391.077 282.835 377.586 276.876C385.212 283.718 389.833 300.729 388.81 310.913C387.786 321.108 376.671 330.018 367.825 335.19C364.075 337.383 359.863 338.844 356.512 341.608C347.816 348.781 348.147 363.622 356.015 371.696C363.882 379.77 377.127 381.091 387.407 376.465C397.687 371.838 405.096 362.187 409.056 351.632C414.344 337.534 413.964 321.399 408.017 307.567Z" fill="#EBEBEB"/>
<path d="M101.534 203.823C68.6202 190.629 58.2843 233.431 58.2843 233.431C51.4133 256.093 50.3503 281.103 59.9993 300.659C65.9483 312.716 82.1353 324.893 95.5723 324.445C103.499 324.181 110.578 319.593 116.89 314.79C123.202 309.988 129.468 304.68 137.106 302.542C144.744 300.404 154.292 302.539 157.897 309.604C158.735 302.029 153.585 294.222 146.292 292.01C139.295 289.888 131.729 288.596 124.509 289.747C112.516 291.659 100.7 287.645 102.277 272.672C102.277 272.672 103.22 261.988 106.494 253.823C109.767 245.659 123.543 212.646 101.534 203.823Z" fill="#455A64"/>
<path d="M80.8832 214.044C76.8092 215.554 74.0102 219.893 72.1192 223.805C71.6002 224.877 71.1072 226.034 71.2382 227.218C71.3692 228.402 72.3622 229.573 73.5482 229.469C75.0542 229.337 75.6782 227.538 76.2032 226.121C77.1692 223.517 78.9542 221.223 81.2402 219.644C82.0282 219.1 82.8842 218.63 83.5292 217.924C84.1752 217.218 84.5792 216.188 84.2432 215.292C83.8392 214.217 82.5022 213.742 81.3712 213.94C80.2402 214.139 79.2722 214.841 78.3522 215.529" fill="#263238"/>
<path d="M95.1266 215.735C91.0526 217.245 88.2536 221.585 86.3626 225.496C85.8436 226.568 85.3496 227.725 85.4816 228.909C85.6126 230.093 86.6056 231.264 87.7916 231.16C89.2976 231.028 89.9216 229.229 90.4466 227.812C91.4126 225.208 93.1976 222.914 95.4836 221.335C96.2716 220.791 97.1276 220.321 97.7726 219.615C98.4186 218.909 98.8226 217.879 98.4866 216.983C98.0826 215.908 96.7456 215.433 95.6146 215.631C94.4836 215.83 93.5156 216.532 92.5956 217.22" fill="#263238"/>
<path d="M79.3559 233.113C76.7479 232.748 74.1509 234.251 72.5359 236.332C70.9219 238.413 70.1189 240.998 69.4469 243.544C69.2239 244.39 69.0859 245.467 69.7929 245.983C70.3569 246.395 71.1589 246.19 71.7699 245.852C73.7669 244.747 74.8779 242.541 76.6179 241.064C76.9389 240.792 77.2909 240.54 77.6959 240.426C78.1009 240.313 78.5709 240.36 78.8899 240.634C79.2079 240.908 79.3219 241.344 79.4199 241.752C79.6249 242.611 79.8289 243.47 80.0339 244.329C80.2799 245.36 80.6189 246.515 81.5619 246.998C82.5279 247.493 83.7619 247.023 84.4819 246.21C85.1559 245.449 85.4949 244.435 85.5849 243.422C85.6749 242.41 85.5329 241.391 85.3399 240.393C84.9619 238.439 84.3539 236.457 83.0439 234.958C81.7339 233.459 79.5799 232.558 77.6979 233.204" fill="#263238"/>
<path d="M345.116 267.229C337.054 256.961 324.738 250.571 311.945 247.969C293.478 244.213 274.323 247.819 255.536 246.342C219.796 243.532 186.469 220.656 170.342 188.745C161.081 157.996 170.415 147.871 180.698 136.416C190.988 124.951 204.358 116.67 218.188 109.882C228.293 104.922 240.249 99.7681 249.361 93.1591C250.994 91.9751 252.594 90.2971 254.12 88.2651C258.15 82.9011 260.361 76.8421 260.947 70.7221C262.752 51.8811 248.618 35.2291 229.804 33.1581L228.983 33.0681C215.324 31.4821 207.909 34.1941 198.096 36.3481C165.354 43.5351 136.195 65.6361 120.427 95.2171C104.659 124.798 99.2296 160.324 111.516 191.512C116.639 204.518 134.833 238.64 146.677 246.064C160.618 259.33 178.452 268.538 197.116 273.603C221.007 280.086 246.251 280.178 270.831 277.239C282.944 275.791 295.199 273.619 307.258 275.463C319.317 277.307 331.473 284.115 335.863 295.496C340.253 306.878 333.405 322.308 321.277 323.622C334.22 325.324 347.279 316.319 351.856 304.093C356.432 291.865 353.178 277.497 345.116 267.229Z" fill="#455A64"/>
<path d="M313.283 145.466C310.202 143.098 298.784 138.42 298.784 138.42C298.784 138.42 311.515 136.013 317.534 140.363C323.553 144.713 332.653 151.43 332.653 151.43C332.653 151.43 326.364 140.465 319.567 137.565C314.658 135.471 307.693 133.001 304.202 131.791C302.992 131.371 301.662 131.604 300.673 132.418C299.07 133.737 295.948 135.568 290.783 135.833C282.586 136.253 266.446 127.801 255.208 130.674C243.97 133.547 223.009 166.459 214.74 166.685C206.471 166.912 188.348 122.021 188.348 122.021L179.605 135.976C180.423 136.99 202.98 196.282 219.052 186.33C235.124 176.378 243.082 147.03 253.45 145.361C263.819 143.692 275.915 151.368 277.498 153.256C279.082 155.144 283.419 156.164 282.641 159.972C281.863 163.779 279.471 180.939 279.471 180.939C279.471 180.939 290.097 158.07 288.063 155.312C286.029 152.554 285.472 148.365 285.472 148.365C285.472 148.365 290.373 150.054 291.956 154.3C293.54 158.545 303.296 176.449 303.296 176.449C303.296 176.449 300.873 155.81 297.072 151.512C293.271 147.214 290.575 144.703 290.575 144.703L297.182 143.557L310.77 148.161L322.318 161.439C322.318 161.439 316.365 147.834 313.283 145.466Z" fill="#455A64"/>
<path d="M217.927 96.596C217.626 95.023 215.887 94.132 214.291 93.992C212.695 93.851 211.083 94.218 209.492 94.034C206.364 93.673 203.773 91.159 202.639 88.221C201.505 85.283 201.628 81.999 202.23 78.908C202.455 77.752 202.746 76.579 202.594 75.412C202.442 74.244 201.724 73.058 200.584 72.761C199.95 72.596 199.241 72.842 198.78 73.289C198.017 73.912 198.017 73.912 197.931 74.092C194.245 79.179 194.036 87.599 197.146 92.969C200.356 98.512 207.133 101.751 213.462 100.768C214.589 100.593 215.731 100.28 216.631 99.579C217.531 98.878 218.141 97.717 217.927 96.596Z" fill="#263238"/>
<path d="M215.233 57.7141C215.233 57.7141 201.892 69.274 208.336 74.1241C214.78 78.975 216.289 77.617 216.289 77.617L215.233 57.7141Z" fill="#263238"/>
<path d="M237.114 93.6881C237.114 93.6881 222.502 98.4001 220.9 91.2961C219.758 86.2311 222.705 84.1531 222.705 84.1531L237.114 93.6881Z" fill="#263238"/>
<path d="M426.906 142.835C424.911 127.598 421.094 112.195 412.356 99.554C403.618 86.913 389.207 77.415 373.845 77.803C358.483 78.191 343.362 90.491 342.783 105.848C342.354 117.232 349.239 127.452 355.934 136.669C362.629 145.886 369.721 155.871 369.803 167.263C369.885 178.655 358.991 190.604 348.213 186.913C342.214 184.859 338.478 178.951 333.205 175.429C323.103 168.684 307.419 173.117 302.344 184.153C303.603 182.257 313.085 176.886 321.651 179.67C344.589 187.123 340.188 205.943 358.286 213.873C380.172 223.462 408.564 214.103 420.456 193.378C429.065 178.377 429.152 159.985 426.906 142.835Z" fill="#455A64"/>
<path d="M394.08 110.22C386.739 111.11 382.968 115.485 381.576 121.889C381.39 122.743 381.285 123.664 381.668 124.543C382.051 125.422 383.064 126.22 384.057 126.153C385.411 126.062 385.809 124.634 386.08 123.475C386.683 120.899 388.032 118.448 390.442 117.075C392.852 115.701 396.457 115.641 399.084 117.412C400.222 118.18 401.303 119.306 402.632 119.347C403.881 119.385 404.739 118.323 404.696 117.215C404.653 116.107 403.915 115.014 403.039 114.107C400.756 111.745 397.326 110.257 394.08 110.22Z" fill="#263238"/>
<path d="M381.083 87.7289C386.803 89.0009 391.336 94.2869 394.58 99.1669C395.469 100.505 396.341 101.96 396.382 103.566C396.423 105.172 395.312 106.918 393.707 106.997C391.671 107.097 390.508 104.807 389.546 103.01C387.778 99.7069 384.974 96.9679 381.631 95.2779C380.479 94.6959 379.249 94.2239 378.257 93.3989C377.265 92.5729 376.536 91.2709 376.821 90.0129C377.164 88.5029 378.864 87.6229 380.411 87.6809C381.958 87.7389 383.381 88.5009 384.736 89.2509" fill="#263238"/>
<path d="M365.072 93.2999C370.792 94.5719 375.325 99.8579 378.569 104.738C379.458 106.076 380.33 107.531 380.371 109.137C380.412 110.743 379.301 112.489 377.696 112.568C375.66 112.668 374.497 110.378 373.535 108.581C371.767 105.278 368.963 102.539 365.62 100.849C364.468 100.267 363.238 99.7949 362.246 98.9699C361.254 98.1439 360.525 96.8419 360.81 95.5839C361.153 94.0739 362.853 93.1939 364.4 93.2519C365.948 93.3099 367.37 94.0719 368.725 94.8219" fill="#263238"/>
<path d="M439.427 450.825C439.427 450.969 355.05 451.085 250.989 451.085C146.892 451.085 62.533 450.968 62.533 450.825C62.533 450.681 146.892 450.565 250.989 450.565C355.049 450.565 439.427 450.681 439.427 450.825Z" fill="#263238"/>
<path d="M301.825 278.608C299.899 272.481 297.974 266.354 296.048 260.227C294.534 255.409 293.132 249.757 296.057 245.639C297.192 244.041 298.923 242.801 299.51 240.931C300.277 238.488 298.838 235.975 298.12 233.517C296.526 228.057 298.53 222.292 299.514 216.689C300.497 211.086 299.907 204.265 295.071 201.269C292.723 199.815 289.74 199.547 287.551 197.862C284.434 195.462 283.901 191.077 282.38 187.449C280.503 182.972 276.765 179.31 272.251 177.526C267.737 175.741 262.505 175.858 258.074 177.841L254.101 180.829C248.867 195.779 248.353 211.954 248.945 227.783C249.537 243.612 251.181 259.459 250.058 275.259C249.631 281.269 248.965 287.896 252.525 292.756C255.755 297.165 261.527 298.76 266.897 299.777C272.261 300.793 277.736 301.524 283.174 301.037C288.612 300.55 294.053 298.765 298.21 295.226C300.71 293.098 302.751 290.234 303.175 286.979C303.545 284.153 302.68 281.328 301.825 278.608Z" fill="#263238"/>
<path d="M293.883 276.882L324.317 249.678C324.317 249.678 299.7 251.509 284.754 253.18L283.142 239.288C283.142 239.288 314.343 232.127 324.317 229.57C334.291 227.013 343.93 226.912 353.393 226.579C362.856 226.246 364.47 231.616 364.981 233.917C365.493 236.219 366.206 247.687 357.13 258.521C350.252 266.732 313.576 305.782 313.576 305.782L293.883 276.882Z" fill="#FFBE9D"/>
<path d="M348.602 242.988C348.627 243.014 348.368 243.29 347.877 243.768C347.635 244.011 347.329 244.299 346.947 244.601C346.569 244.907 346.152 245.278 345.642 245.621C344.656 246.355 343.403 247.119 341.952 247.855C340.49 248.565 338.823 249.232 337.013 249.737C335.197 250.223 333.423 250.497 331.802 250.63C330.179 250.734 328.71 250.714 327.489 250.584C326.876 250.548 326.329 250.441 325.847 250.37C325.364 250.304 324.955 250.212 324.622 250.126C323.956 249.964 323.593 249.858 323.601 249.823C323.621 249.725 325.097 250.071 327.516 250.217C328.725 250.299 330.169 250.281 331.763 250.152C333.354 249.995 335.092 249.712 336.876 249.235C338.653 248.738 340.294 248.098 341.743 247.424C343.18 246.724 344.433 246.004 345.432 245.319C347.44 243.962 348.535 242.914 348.602 242.988Z" fill="#EB996E"/>
<path d="M133.605 223.328C133.605 223.328 129.275 226.691 127.387 233.588C124.616 243.711 135.202 253.364 135.202 253.364C135.202 253.364 181.087 297.206 181.398 297.828C181.709 298.45 192.902 265.182 192.902 265.182L165.23 245.594C165.23 245.594 180.262 246.028 188.86 246.216C198.158 246.42 210.897 248.428 210.897 248.428V231.328C210.897 231.328 148.529 216.177 133.605 223.328Z" fill="#FFBE9D"/>
<path d="M139.098 244.686C139.087 244.675 139.153 244.585 139.309 244.443C139.464 244.3 139.721 244.116 140.088 243.945C140.816 243.605 142.033 243.394 143.444 243.718C144.861 244.009 146.374 244.787 148.136 245.281C149.903 245.79 151.916 246.077 154.043 246.14C158.305 246.228 162.176 245.701 164.982 245.525C166.385 245.417 167.524 245.351 168.311 245.325C169.099 245.299 169.535 245.302 169.537 245.338C169.539 245.374 169.108 245.44 168.326 245.527C167.437 245.625 166.33 245.747 165.016 245.891C162.221 246.159 158.361 246.747 154.027 246.66C151.865 246.596 149.802 246.288 148 245.74C146.186 245.2 144.702 244.394 143.36 244.075C142.025 243.722 140.88 243.866 140.165 244.131C139.443 244.403 139.13 244.727 139.098 244.686Z" fill="#EB996E"/>
<path d="M359.354 258.468L324.317 249.678L294.443 270.782C294.443 270.782 289.38 267.746 286.392 269.126C283.403 270.506 277.671 274.646 277.671 274.646L267.671 269.402L230.134 272.162L223.15 278.234C223.15 278.234 221.693 274.646 219.427 276.302C217.161 277.958 215.268 277.682 215.268 277.682C215.268 277.682 213.021 271.334 208.329 268.85C203.637 266.366 193.484 262.554 191.768 262.959C190.053 263.365 178.071 251.954 178.071 251.954L170.592 246.382C170.592 246.382 132.505 250.616 131.953 253.365C131.401 256.114 140.927 270.339 142.859 270.339L149.262 272.438C149.262 272.438 150.985 280.166 156.748 285.411C162.51 290.655 182.107 304.091 182.107 304.091C182.107 304.091 173.173 359.934 168.946 370.146C164.719 380.358 161.407 393.607 162.511 406.303C163.615 418.999 168.946 455.433 168.946 455.433L197.288 446.601L309.072 443.289L330.325 448.257C330.325 448.257 328.945 418.448 327.841 402.439C326.737 386.43 325.357 353.033 320.665 333.16C315.973 313.287 317.077 304.09 317.077 304.09C317.077 304.09 351.578 271.334 354.338 266.917C357.097 262.501 360.478 261.568 359.354 258.468Z" fill="#FF725E"/>
<g opacity="0.3">
<path d="M297.191 335.018C297.191 335.018 309.36 356.444 310.321 368.581C311.282 380.718 300.477 400.372 300.477 400.372L289.562 384.574L297.191 335.018Z" fill="black"/>
</g>
<g opacity="0.3">
<path d="M208.112 333.338C197.192 343.398 190.876 357.377 185.021 371.022C179.369 384.193 173.837 397.576 171.449 411.708C169.068 425.802 169.914 440.432 173.903 454.158L218.893 437.557L215.112 382.037L208.112 333.338Z" fill="black"/>
</g>
<path d="M201.39 402.802L215.112 382.036L289.562 384.573L300.477 400.372L250.889 432.031L201.39 402.802Z" fill="#263238"/>
<path d="M234.276 281.274L225.558 295.56C225.558 295.56 225.569 306.881 223.533 311.682C221.496 316.483 207.846 333.68 207.846 333.68L215.112 382.036C215.112 382.036 247.833 408.207 289.562 384.573L297.191 335.018C297.191 335.018 289.688 324.655 284.06 319.485C278.432 314.315 275.055 301.44 274.044 294.297L270.385 283.016C270.385 283.016 244.154 292.619 234.276 281.274Z" fill="white"/>
<path d="M269.662 343.305C268.488 342.464 266.098 342.559 264.657 342.431C259.541 341.275 254.97 337.398 249.663 337.303C246.755 337.251 243.966 338.353 241.268 339.437C237.784 340.837 234.297 342.239 230.906 343.852C229.994 344.286 229.066 344.752 228.383 345.496C227.7 346.24 227.305 347.332 227.646 348.283C227.995 349.256 229.034 349.85 230.061 349.965C231.089 350.08 232.117 349.804 233.108 349.508C238.209 347.987 243.317 345.857 248.629 346.2C254.279 346.565 259.445 349.703 265.082 350.233C266.379 350.355 267.725 350.329 268.931 349.838C270.137 349.346 271.184 348.315 271.408 347.032C271.656 345.605 270.837 344.147 269.662 343.305ZM264.66 342.431L266.949 342.744C266.171 342.713 265.41 342.6 264.66 342.431Z" fill="#F5F5F5"/>
<path d="M244.603 337.866C244.623 337.896 244.345 338.107 243.823 338.463C243.306 338.826 242.52 339.295 241.52 339.822C239.524 340.878 236.594 342.056 233.2 342.734C229.802 343.402 226.644 343.429 224.396 343.212C223.271 343.107 222.366 342.972 221.749 342.833C221.131 342.702 220.794 342.614 220.801 342.578C220.817 342.488 222.189 342.728 224.421 342.844C226.651 342.964 229.753 342.879 233.098 342.222C236.44 341.555 239.34 340.452 241.356 339.491C243.377 338.533 244.554 337.789 244.603 337.866Z" fill="#263238"/>
<path d="M234.439 382.868C234.379 382.98 232.269 381.632 230.561 379.122C228.832 376.626 228.332 374.172 228.458 374.157C228.612 374.106 229.318 376.418 230.99 378.827C232.638 381.253 234.542 382.743 234.439 382.868Z" fill="#263238"/>
<path d="M265.308 350.906C265.294 350.939 264.838 350.79 264.025 350.492C263.215 350.189 262.038 349.764 260.576 349.269C257.655 348.296 253.539 347.055 248.855 346.725C246.515 346.585 244.281 346.736 242.286 347.084C241.791 347.186 241.307 347.285 240.835 347.381C240.369 347.495 239.927 347.645 239.493 347.767C238.616 347.989 237.854 348.351 237.134 348.618C235.731 349.237 234.616 349.803 233.889 350.265C233.146 350.704 232.724 350.933 232.703 350.904C232.682 350.875 233.066 350.588 233.781 350.093C234.48 349.575 235.581 348.952 236.986 348.28C237.708 347.987 238.476 347.599 239.363 347.354C239.802 347.22 240.25 347.06 240.723 346.935C241.202 346.829 241.694 346.721 242.198 346.61C244.228 346.229 246.509 346.06 248.889 346.203C253.654 346.539 257.796 347.853 260.7 348.919C262.154 349.461 263.315 349.94 264.103 350.301C264.892 350.661 265.321 350.873 265.308 350.906Z" fill="#263238"/>
<path d="M224.863 297.287C224.825 297.287 224.791 296.715 224.725 295.682C224.658 294.649 224.558 293.155 224.355 291.317C224.236 290.406 224.171 289.371 223.907 288.356C223.764 287.855 223.544 287.356 223.163 286.991C222.788 286.621 222.262 286.409 221.696 286.383C220.542 286.33 219.355 286.856 218.262 287.578C217.151 288.258 215.908 289.146 214.339 289.131L213.845 289.126L214.132 288.722C214.157 288.687 214.183 288.65 214.21 288.612C217.488 283.923 221.006 280.093 223.72 277.521C225.075 276.231 226.218 275.237 227.027 274.575C227.836 273.912 228.303 273.57 228.324 273.596C228.349 273.625 227.926 274.02 227.16 274.728C226.394 275.435 225.293 276.467 223.977 277.785C221.341 280.413 217.892 284.254 214.636 288.911C214.609 288.948 214.583 288.986 214.559 289.02L214.352 288.611C215.688 288.635 216.87 287.837 217.994 287.146C219.113 286.419 220.402 285.83 221.727 285.906C222.382 285.941 223.038 286.21 223.485 286.667C223.943 287.12 224.179 287.701 224.324 288.243C224.589 289.347 224.624 290.355 224.722 291.282C224.879 293.134 224.924 294.638 224.929 295.675C224.931 296.713 224.897 297.286 224.863 297.287Z" fill="#263238"/>
<path d="M215.111 323.801C215.125 323.812 214.963 324.047 214.643 324.484C214.289 324.955 213.816 325.586 213.221 326.378C211.964 328.006 210.191 330.395 208.014 333.356C203.713 339.311 197.906 347.663 192.432 357.449C189.687 362.337 187.254 367.094 185.194 371.493C183.165 375.906 181.412 379.916 180.078 383.341C179.379 385.04 178.8 386.599 178.281 387.963C177.753 389.324 177.319 390.505 176.974 391.473C176.63 392.402 176.356 393.141 176.152 393.694C175.959 394.2 175.849 394.463 175.832 394.457C175.815 394.451 175.891 394.177 176.053 393.66C176.235 393.1 176.478 392.349 176.783 391.406C177.099 390.427 177.505 389.235 178.008 387.863C178.502 386.487 179.057 384.917 179.735 383.206C181.028 379.759 182.749 375.725 184.759 371.291C186.799 366.87 189.226 362.093 191.978 357.193C197.466 347.381 203.335 339.043 207.718 333.137C209.936 330.2 211.755 327.843 213.062 326.253C213.689 325.486 214.189 324.875 214.562 324.419C214.908 324.003 215.097 323.79 215.111 323.801Z" fill="#263238"/>
<path d="M194.851 311.383C194.816 311.373 194.947 310.831 195.212 309.858C195.339 309.369 195.512 308.777 195.744 308.099C195.97 307.419 196.214 306.639 196.545 305.8C197.159 304.102 198.017 302.129 199.047 299.975C200.105 297.835 201.361 295.528 202.809 293.184C205.726 288.505 208.83 284.582 211.215 281.88C212.406 280.526 213.403 279.461 214.12 278.752C214.833 278.039 215.238 277.657 215.264 277.682C215.29 277.707 214.934 278.136 214.268 278.89C213.598 279.64 212.645 280.74 211.495 282.119C209.19 284.873 206.15 288.808 203.251 293.459C201.812 295.789 200.552 298.073 199.477 300.188C198.43 302.316 197.542 304.261 196.888 305.933C196.536 306.759 196.269 307.526 196.019 308.194C195.762 308.86 195.561 309.441 195.405 309.919C195.082 310.87 194.886 311.393 194.851 311.383Z" fill="#263238"/>
<path d="M197.146 275.343C197.173 275.366 196.881 275.776 196.329 276.495C195.771 277.209 194.987 278.261 194.048 279.579C192.165 282.211 189.747 285.984 187.547 290.404C185.355 294.83 183.812 299.037 182.854 302.128C182.372 303.673 182.009 304.934 181.777 305.809C181.538 306.683 181.388 307.164 181.353 307.156C181.318 307.148 181.4 306.653 181.58 305.761C181.752 304.868 182.063 303.588 182.501 302.022C183.373 298.889 184.873 294.629 187.081 290.171C189.296 285.719 191.783 281.949 193.751 279.36C194.733 278.064 195.565 277.042 196.172 276.365C196.773 275.685 197.118 275.319 197.146 275.343Z" fill="#263238"/>
<path d="M184.631 257.689C184.648 257.696 184.601 257.834 184.496 258.093C184.396 258.354 184.233 258.734 183.963 259.193C183.444 260.117 182.522 261.386 181.07 262.629C179.619 263.868 177.671 265.072 175.37 266.075C173.071 267.092 170.447 267.932 167.672 268.72C162.106 270.273 156.909 271.02 153.143 271.312C151.259 271.469 149.729 271.503 148.674 271.522C147.617 271.522 147.034 271.502 147.033 271.467C147.032 271.431 147.614 271.382 148.666 271.32C149.717 271.239 151.238 271.149 153.109 270.946C156.85 270.561 162.002 269.762 167.532 268.219C170.29 267.436 172.904 266.614 175.178 265.636C177.459 264.671 179.385 263.523 180.834 262.348C183.758 259.962 184.521 257.604 184.631 257.689Z" fill="#263238"/>
<path d="M277.67 274.645C277.704 274.632 277.906 275.081 278.245 275.904C278.575 276.73 279.037 277.932 279.554 279.437C280.598 282.442 281.875 286.654 283.002 291.378C283.459 293.292 283.859 295.141 284.196 296.841L284.355 297.642L283.781 297.066C282.554 295.834 281.383 294.725 280.148 294.021C279.541 293.657 278.911 293.436 278.317 293.213C277.728 292.999 277.177 292.833 276.67 292.776C275.634 292.625 274.909 293.154 274.565 293.585C274.208 294.023 274.083 294.318 274.043 294.297C274.03 294.291 274.054 294.216 274.113 294.076C274.165 293.931 274.272 293.733 274.435 293.485C274.617 293.256 274.851 292.954 275.246 292.748C275.63 292.535 276.147 292.423 276.696 292.471C277.247 292.511 277.83 292.667 278.437 292.867C279.033 293.071 279.705 293.287 280.353 293.656C281.663 294.367 282.885 295.494 284.126 296.715L283.711 296.94C283.358 295.249 282.95 293.407 282.494 291.499C281.371 286.791 280.155 282.579 279.203 279.552C278.741 278.115 278.356 276.914 278.053 275.973C277.775 275.131 277.636 274.658 277.67 274.645Z" fill="#263238"/>
<path d="M298.464 289.516C298.387 289.525 298.209 288.484 297.889 286.812C297.57 285.14 297.088 282.839 296.419 280.333C295.747 277.826 295.016 275.593 294.457 273.985C293.899 272.377 293.534 271.386 293.605 271.355C293.666 271.329 294.152 272.27 294.802 273.855C295.452 275.438 296.245 277.673 296.922 280.199C297.596 282.725 298.025 285.057 298.252 286.753C298.481 288.449 298.53 289.508 298.464 289.516Z" fill="#263238"/>
<path d="M303.903 291.072C303.816 291.081 303.663 289.835 303.219 287.869C302.778 285.903 301.981 283.225 300.686 280.439C299.383 277.655 297.845 275.323 296.623 273.721C295.402 272.116 294.546 271.198 294.61 271.137C294.636 271.112 294.874 271.318 295.284 271.713C295.699 272.104 296.259 272.71 296.912 273.492C298.222 275.052 299.836 277.391 301.159 280.219C302.474 283.049 303.228 285.789 303.581 287.795C303.76 288.798 303.864 289.617 303.897 290.186C303.934 290.754 303.939 291.069 303.903 291.072Z" fill="#263238"/>
<path d="M319.388 281.354C319.422 281.364 319.338 281.799 319.156 282.573C318.983 283.349 318.741 284.473 318.516 285.876C318.034 288.676 317.621 292.585 317.386 296.918C317.164 301.253 317.139 305.186 317.181 308.032C317.206 309.372 317.227 310.5 317.243 311.403C317.262 312.199 317.256 312.641 317.22 312.644C317.184 312.647 317.122 312.209 317.041 311.415C316.964 310.621 316.874 309.469 316.813 308.043C316.677 305.192 316.644 301.245 316.866 296.891C317.102 292.54 317.576 288.612 318.154 285.81C318.427 284.407 318.726 283.286 318.96 282.522C319.204 281.758 319.354 281.343 319.388 281.354Z" fill="#263238"/>
<path d="M352.277 269.241C352.271 269.276 351.694 269.21 350.655 269.059C349.529 268.883 348.05 268.652 346.265 268.373C342.562 267.771 337.454 266.905 331.817 265.917C329.001 265.425 326.296 264.963 323.902 264.231C321.506 263.519 319.446 262.518 317.906 261.411C316.359 260.308 315.322 259.144 314.724 258.274C314.419 257.842 314.216 257.484 314.091 257.236C313.967 256.987 313.91 256.853 313.926 256.845C314.014 256.759 315.007 259.01 318.116 261.109C319.65 262.154 321.672 263.096 324.039 263.772C326.402 264.467 329.087 264.912 331.907 265.405C337.544 266.393 342.643 267.317 346.329 268.011C348.102 268.356 349.571 268.642 350.69 268.86C351.717 269.072 352.283 269.206 352.277 269.241Z" fill="#263238"/>
<path d="M300.484 398.87C300.476 398.865 300.519 398.773 300.611 398.596C300.718 398.395 300.856 398.14 301.028 397.819C301.41 397.146 301.932 396.13 302.609 394.826C303.93 392.202 305.715 388.331 307.443 383.372C308.278 380.885 309.098 378.123 309.668 375.097C310.196 372.1 310.652 368.71 309.64 365.441C308.441 362.176 307.417 358.651 306.239 355.068C305.076 351.478 303.453 347.915 301.767 344.277C300.068 340.648 298.243 337.181 296.178 334.026C295.145 332.45 294.065 330.944 292.91 329.548C291.762 328.146 290.517 326.889 289.351 325.587C287.003 323.016 284.772 320.572 282.681 318.284C281.59 317.152 280.899 315.758 280.256 314.483C279.621 313.187 279.069 311.919 278.579 310.695C276.624 305.795 275.459 301.679 274.814 298.805C274.486 297.369 274.289 296.24 274.178 295.473C274.131 295.112 274.093 294.824 274.063 294.598C274.04 294.401 274.033 294.299 274.041 294.298C274.05 294.297 274.075 294.396 274.115 294.59C274.158 294.813 274.212 295.098 274.281 295.455C274.425 296.215 274.653 297.333 275.011 298.758C275.714 301.608 276.93 305.697 278.919 310.556C279.417 311.77 279.976 313.026 280.615 314.305C281.27 315.577 281.935 316.904 283.009 318.005C285.105 320.278 287.343 322.705 289.698 325.258C290.858 326.543 292.128 327.819 293.293 329.233C294.465 330.641 295.559 332.16 296.604 333.747C298.693 336.926 300.532 340.414 302.237 344.056C303.925 347.698 305.555 351.286 306.721 354.907C307.901 358.517 308.905 362.014 310.092 365.284C311.139 368.733 310.637 372.147 310.091 375.177C309.497 378.23 308.65 381.001 307.789 383.492C306.009 388.458 304.167 392.317 302.788 394.919C302.082 396.212 301.531 397.214 301.118 397.872C300.928 398.182 300.775 398.429 300.656 398.623C300.55 398.791 300.492 398.874 300.484 398.87Z" fill="#263238"/>
<g opacity="0.3">
<path d="M288.109 302.956C286.862 294.927 284.091 287.138 279.988 280.125C281.074 285.664 282.868 291.353 283.954 296.891C281.751 294.066 275.459 290.594 274.044 294.297L274.592 297.251C278.717 298.634 282.437 301.203 285.191 304.571C285.67 305.157 286.268 305.831 287.018 305.734C288.124 305.59 288.281 304.058 288.109 302.956Z" fill="black"/>
</g>
<g opacity="0.3">
<path d="M294.513 271.301C293.776 272.809 294.48 274.584 295.098 276.145C296.548 279.809 297.515 283.662 297.969 287.576C298.137 289.023 298.267 290.567 299.154 291.723C300.041 292.879 302.007 293.325 302.919 292.189C303.503 291.461 303.433 290.421 303.298 289.497C302.323 282.804 299.515 276.388 295.258 271.131" fill="black"/>
</g>
<g opacity="0.3">
<path d="M315.24 258.487C315.569 260.656 316.967 262.555 318.704 263.896C320.441 265.236 322.504 266.082 324.572 266.816C332.453 269.611 341.121 270.982 349.193 268.799C343.31 267.827 337.427 266.856 331.545 265.884C328.514 265.383 325.462 264.877 322.575 263.827C319.688 262.777 316.942 261.139 315.042 258.725" fill="black"/>
</g>
<g opacity="0.3">
<path d="M214.725 277.626C206.439 282.79 199.491 290.081 194.731 298.605C193.815 300.246 192.977 301.934 192.309 303.691C191.861 304.869 191.709 306.579 192.888 307.027C194.004 307.451 195.011 306.236 195.602 305.199C201.149 295.475 207.668 286.305 215.03 277.871" fill="black"/>
</g>
<g opacity="0.3">
<path d="M224.793 303.566C224.747 299.447 224.702 295.329 224.656 291.211C224.635 289.343 224.3 287.674 222.765 286.611C221.646 285.836 220.512 286.131 219.278 286.708C218.044 287.285 216.834 288.101 215.842 288.538L215.571 288.672C214.259 290.445 213.284 292.466 212.715 294.597C214.156 294.597 215.43 293.736 216.744 293.146C218.058 292.556 219.769 292.288 220.807 293.288C221.5 293.956 221.669 294.986 221.802 295.94C222.429 300.471 223.056 305.001 223.683 309.532C224.802 307.808 224.816 305.619 224.793 303.566Z" fill="black"/>
</g>
<g opacity="0.3">
<path d="M148.306 271.625C156.032 274.49 164.858 274.255 172.421 270.984C176.771 269.103 180.918 265.961 182.392 261.457C171.952 267.579 160.682 270.393 148.627 271.466" fill="black"/>
</g>
<path d="M158.752 270.313C158.66 270.326 158.466 268.976 157.868 266.873C157.276 264.771 156.194 261.932 154.468 259.081C152.732 256.235 150.709 253.967 149.116 252.474C147.524 250.975 146.415 250.181 146.469 250.106C146.49 250.077 146.782 250.252 147.296 250.596C147.815 250.932 148.526 251.478 149.363 252.202C151.04 253.643 153.146 255.915 154.912 258.811C156.669 261.712 157.716 264.627 158.223 266.779C158.48 267.855 158.637 268.738 158.697 269.353C158.767 269.967 158.788 270.308 158.752 270.313Z" fill="white"/>
<path d="M175.331 263.966C175.239 263.987 174.98 262.787 174.253 260.966C173.533 259.146 172.252 256.732 170.317 254.455C168.372 252.185 166.19 250.539 164.506 249.542C162.822 248.537 161.678 248.093 161.713 248.005C161.726 247.971 162.02 248.058 162.544 248.245C163.072 248.422 163.809 248.753 164.688 249.222C166.447 250.153 168.722 251.793 170.713 254.117C172.694 256.448 173.955 258.952 174.598 260.836C174.923 261.778 175.133 262.558 175.225 263.107C175.327 263.654 175.366 263.958 175.331 263.966Z" fill="white"/>
<path d="M186.806 288.469C186.789 288.5 186.393 288.317 185.693 287.957C184.991 287.601 183.993 287.051 182.776 286.344C180.341 284.932 177.053 282.843 173.594 280.29C170.137 277.733 167.173 275.204 165.108 273.292C164.074 272.336 163.256 271.544 162.709 270.978C162.16 270.414 161.868 270.091 161.893 270.065C161.918 270.039 162.257 270.313 162.848 270.831C163.521 271.418 164.359 272.15 165.353 273.018C167.475 274.855 170.462 277.327 173.904 279.872C177.347 282.413 180.588 284.541 182.967 286.029C184.089 286.724 185.034 287.31 185.793 287.781C186.461 288.194 186.823 288.437 186.806 288.469Z" fill="white"/>
<path d="M188.423 268.981C193.933 271.972 198.455 274.295 198.524 274.169C198.592 274.043 194.181 271.515 188.672 268.524C183.162 265.532 178.64 263.209 178.571 263.335C178.503 263.461 182.914 265.989 188.423 268.981Z" fill="white"/>
<path d="M203.332 292.471C203.204 292.591 201.179 289.622 197.443 287.479C193.735 285.284 190.154 284.987 190.196 284.816C190.2 284.758 191.09 284.749 192.496 285.028C193.899 285.303 195.807 285.926 197.706 287.029C199.601 288.137 201.084 289.49 202.014 290.575C202.949 291.66 203.38 292.439 203.332 292.471Z" fill="white"/>
<path d="M211.487 282.339C211.393 282.344 211.35 281.421 210.968 280.007C210.593 278.595 209.785 276.71 208.397 274.964C206.999 273.224 205.338 272.02 204.044 271.344C202.749 270.66 201.858 270.414 201.884 270.323C201.892 270.275 202.828 270.394 204.207 271.014C205.582 271.624 207.352 272.831 208.804 274.639C210.248 276.453 211.034 278.445 211.326 279.921C211.626 281.402 211.536 282.341 211.487 282.339Z" fill="white"/>
<path d="M192.402 318.648C192.325 318.691 191.913 317.992 191.08 317.005C190.252 316.018 188.946 314.782 187.253 313.787C185.554 312.799 183.837 312.266 182.571 312.029C181.303 311.787 180.491 311.77 180.491 311.682C180.488 311.627 181.307 311.511 182.628 311.665C183.944 311.814 185.752 312.311 187.516 313.338C189.275 314.371 190.594 315.703 191.369 316.777C192.151 317.853 192.452 318.624 192.402 318.648Z" fill="white"/>
<path d="M214.269 324.457C214.26 324.523 213.095 324.436 211.23 324.156C209.365 323.876 206.803 323.382 204.017 322.651C201.231 321.917 198.757 321.087 196.995 320.414C195.233 319.741 194.176 319.244 194.201 319.182C194.229 319.11 195.332 319.485 197.118 320.067C198.904 320.649 201.38 321.419 204.15 322.148C206.919 322.874 209.454 323.422 211.295 323.794C213.135 324.165 214.279 324.381 214.269 324.457Z" fill="white"/>
<path d="M224.027 304.608C224.026 304.644 223.687 304.662 223.071 304.663C222.456 304.671 221.566 304.624 220.47 304.514C218.281 304.298 215.268 303.723 212.102 302.57C208.938 301.408 206.264 299.903 204.453 298.656C203.545 298.034 202.835 297.495 202.37 297.092C201.901 296.694 201.653 296.461 201.676 296.433C201.731 296.364 202.805 297.192 204.654 298.347C206.5 299.505 209.161 300.935 212.281 302.081C215.403 303.218 218.359 303.842 220.516 304.149C222.674 304.459 224.03 304.52 224.027 304.608Z" fill="white"/>
<path d="M231.358 284.706C231.285 284.754 230.903 284.212 230.141 283.494C229.384 282.774 228.196 281.922 226.706 281.358C225.213 280.802 223.757 280.662 222.713 280.706C221.667 280.745 221.022 280.902 220.999 280.818C220.981 280.766 221.599 280.477 222.685 280.339C223.764 280.197 225.315 280.284 226.889 280.871C228.46 281.465 229.685 282.419 230.404 283.237C231.13 284.054 231.406 284.679 231.358 284.706Z" fill="white"/>
<path d="M195.135 349.591C195.123 349.625 194.8 349.537 194.225 349.348C193.648 349.165 192.83 348.847 191.84 348.409C189.858 347.537 187.213 346.086 184.585 344.066C181.961 342.038 179.884 339.849 178.536 338.155C177.86 337.309 177.345 336.599 177.021 336.087C176.692 335.579 176.524 335.289 176.554 335.269C176.625 335.219 177.407 336.301 178.818 337.918C180.226 339.536 182.314 341.653 184.903 343.654C187.496 345.647 190.074 347.128 191.998 348.077C193.92 349.029 195.165 349.509 195.135 349.591Z" fill="white"/>
<path d="M180.469 377.267C180.43 377.323 179.712 376.91 178.615 376.147C177.518 375.385 176.049 374.262 174.516 372.917C172.983 371.57 171.681 370.258 170.784 369.268C169.886 368.278 169.384 367.62 169.435 367.574C169.549 367.47 171.813 369.858 174.86 372.526C177.897 375.202 180.557 377.14 180.469 377.267Z" fill="white"/>
<path d="M171.379 410.237C171.34 410.286 170.621 409.816 169.588 408.891C168.555 407.969 167.238 406.562 166.007 404.841C164.777 403.119 163.848 401.443 163.234 400.208C162.622 398.97 162.312 398.174 162.373 398.144C162.53 398.062 164.018 401.137 166.43 404.538C168.833 407.955 171.484 410.116 171.379 410.237Z" fill="white"/>
<path d="M316.948 310.392C316.967 310.423 316.546 310.704 315.767 311.187C314.994 311.68 313.829 312.319 312.354 313.036C310.883 313.762 309.073 314.509 307.021 315.219C304.961 315.903 302.654 316.534 300.19 316.998C297.721 317.442 295.34 317.674 293.171 317.769C291.001 317.836 289.044 317.783 287.41 317.629C285.777 317.484 284.46 317.302 283.563 317.117C282.663 316.943 282.17 316.831 282.176 316.795C282.183 316.76 282.688 316.805 283.593 316.916C284.496 317.039 285.812 317.164 287.436 317.261C289.061 317.367 291.001 317.382 293.15 317.289C295.297 317.169 297.652 316.925 300.095 316.485C302.534 316.025 304.82 315.414 306.869 314.762C308.909 314.083 310.717 313.378 312.197 312.7C313.68 312.031 314.865 311.445 315.665 311.008C316.474 310.583 316.929 310.361 316.948 310.392Z" fill="white"/>
<path d="M286.258 298.704C286.309 298.822 283.839 299.815 280.595 300.053C277.352 300.312 274.76 299.707 274.792 299.582C274.814 299.424 277.388 299.788 280.555 299.533C283.723 299.303 286.212 298.551 286.258 298.704Z" fill="white"/>
<path d="M297.385 286.559C297.377 286.648 296.469 286.573 295.023 286.691C293.579 286.804 291.596 287.183 289.568 288.057C287.543 288.94 285.911 290.129 284.841 291.106C283.767 292.081 283.201 292.794 283.131 292.739C283.086 292.709 283.551 291.909 284.586 290.84C285.614 289.772 287.269 288.49 289.36 287.579C291.454 286.676 293.52 286.343 295.003 286.323C296.492 286.298 297.394 286.505 297.385 286.559Z" fill="white"/>
<path d="M301.794 282.856C301.878 282.964 301.058 283.633 299.805 283.791C298.553 283.959 297.589 283.523 297.642 283.397C297.684 283.251 298.614 283.43 299.737 283.274C300.863 283.137 301.716 282.726 301.794 282.856Z" fill="white"/>
<path d="M321.576 263.302C321.602 263.327 321.38 263.605 320.955 264.088C320.533 264.574 319.891 265.248 319.071 266.055C317.433 267.67 315.031 269.771 312.16 271.801C309.284 273.827 306.5 275.386 304.43 276.389C303.395 276.892 302.545 277.271 301.946 277.506C301.348 277.745 301.012 277.861 300.997 277.828C300.964 277.753 302.246 277.145 304.262 276.062C306.278 274.981 309.008 273.385 311.86 271.376C314.707 269.362 317.125 267.324 318.819 265.787C320.513 264.251 321.516 263.246 321.576 263.302Z" fill="white"/>
<path d="M340.571 268.136C340.604 268.151 340.429 268.59 340.085 269.375C339.75 270.163 339.194 271.273 338.447 272.611C336.959 275.288 334.564 278.821 331.346 282.231C328.118 285.634 324.723 288.221 322.132 289.854C320.838 290.674 319.76 291.29 318.992 291.668C318.228 292.055 317.799 292.253 317.782 292.222C317.765 292.191 318.162 291.931 318.893 291.492C319.628 291.061 320.67 290.4 321.929 289.547C324.45 287.846 327.772 285.241 330.967 281.873C334.152 278.497 336.57 275.037 338.128 272.426C338.91 271.122 339.512 270.044 339.902 269.287C340.301 268.531 340.538 268.121 340.571 268.136Z" fill="white"/>
<path d="M341.644 254.417C341.7 254.426 341.644 255.261 341.249 256.551C340.859 257.837 340.065 259.556 338.789 261.182C337.507 262.804 336.02 263.977 334.861 264.657C333.7 265.343 332.901 265.593 332.879 265.54C332.782 265.395 335.901 264.055 338.38 260.859C340.906 257.703 341.48 254.356 341.644 254.417Z" fill="white"/>
<path d="M292.375 272.699C292.361 272.786 291.532 272.672 290.199 272.701C288.868 272.726 287.029 272.961 285.118 273.642C283.209 274.331 281.64 275.32 280.597 276.147C279.55 276.972 278.982 277.587 278.916 277.529C278.872 277.495 279.346 276.786 280.36 275.865C281.368 274.944 282.965 273.865 284.942 273.152C286.92 272.446 288.839 272.263 290.202 272.333C291.571 272.399 292.387 272.645 292.375 272.699Z" fill="white"/>
<path d="M279.812 282.987C279.712 283.107 278.348 282.013 276.393 281.192C274.446 280.351 272.712 280.126 272.73 279.97C272.727 279.839 274.558 279.834 276.597 280.712C278.643 281.575 279.909 282.898 279.812 282.987Z" fill="white"/>
<path d="M321.762 338.725C321.782 338.755 321.559 338.938 321.137 339.246C320.719 339.559 320.08 339.966 319.266 340.425C317.642 341.347 315.252 342.398 312.469 343.068C309.682 343.73 307.076 343.874 305.21 343.786C304.276 343.744 303.523 343.67 303.008 343.58C302.492 343.497 302.211 343.434 302.215 343.398C302.225 343.312 303.37 343.428 305.215 343.417C307.059 343.41 309.61 343.211 312.347 342.561C315.081 341.903 317.446 340.926 319.094 340.099C320.746 339.275 321.714 338.653 321.762 338.725Z" fill="white"/>
<path d="M324.579 363.407C324.619 363.449 324.058 364.096 322.955 364.925C321.857 365.754 320.181 366.717 318.166 367.356C316.148 367.988 314.222 368.161 312.848 368.11C311.469 368.063 310.638 367.855 310.647 367.798C310.646 367.623 314.067 368.132 318.01 366.859C321.968 365.641 324.48 363.263 324.579 363.407Z" fill="white"/>
<path d="M327.324 398.572C327.331 398.607 326.997 398.704 326.382 398.849C325.769 399.002 324.868 399.158 323.747 399.293C321.507 399.568 318.355 399.636 314.939 399.093C311.524 398.54 308.55 397.489 306.509 396.526C305.487 396.047 304.68 395.616 304.146 395.279C303.608 394.949 303.32 394.753 303.338 394.722C303.383 394.643 304.596 395.325 306.657 396.189C308.715 397.055 311.657 398.033 315.021 398.578C318.385 399.113 321.486 399.105 323.711 398.926C325.941 398.751 327.307 398.483 327.324 398.572Z" fill="white"/>
<path d="M328.706 422.602C328.723 422.634 328.396 422.838 327.786 423.182C327.181 423.534 326.27 423.98 325.118 424.47C322.818 425.455 319.479 426.495 315.672 426.946C311.862 427.386 308.373 427.146 305.908 426.718C304.674 426.507 303.685 426.283 303.015 426.08C302.343 425.886 301.977 425.762 301.986 425.728C302.009 425.638 303.503 426.027 305.961 426.354C308.416 426.685 311.854 426.863 315.611 426.429C319.365 425.984 322.669 425.017 324.981 424.128C327.299 423.244 328.663 422.52 328.706 422.602Z" fill="white"/>
<path d="M265.569 184.012C264.441 181.567 262.545 179.327 259.983 178.498C257.421 177.669 254.192 178.654 253.078 181.105L259.122 187.918C259.744 188.902 260.575 189.791 261.637 190.268C262.699 190.745 264.015 190.75 264.972 190.087C265.883 189.457 266.347 188.316 266.372 187.208C266.397 186.1 266.033 185.018 265.569 184.012Z" fill="#FF725E"/>
<path d="M282.381 214.893C281.341 203.348 275.237 192.119 265.461 185.89C255.685 179.661 242.309 179.035 232.523 185.25C226.302 189.201 221.829 195.545 219.255 202.451C216.682 209.357 217.799 215.08 217.858 222.449C217.889 226.268 218.374 236.533 221.671 238.462L273.103 247.687C279.69 238.148 283.421 226.438 282.381 214.893Z" fill="#263238"/>
<path d="M280.567 206.04C279.413 199.176 272.71 192.51 267.486 187.911C261.524 182.662 260.685 182.899 252.743 182.698C244.369 182.486 235.221 182.521 228.687 187.762C225.067 190.666 222.716 194.853 220.829 199.093C216.468 208.891 217.141 220.078 218.474 230.72C219.807 241.362 222.063 251.406 230.773 257.664L267.383 251.993C275.459 249.001 278.153 239.773 280.437 231.469C282.722 223.165 281.995 214.533 280.567 206.04Z" fill="#263238"/>
<path d="M219.73 212.87C220.243 202.801 230.962 192.623 241.001 193.563L273.59 199.356L273.548 204.771L270.384 283.018C244.644 292.851 234.275 281.275 234.275 281.275L236.077 264.78C236.077 264.78 223.197 262.801 220.332 246.062C218.907 237.736 219.161 224.056 219.73 212.87Z" fill="#FFBE9D"/>
<path d="M227.213 225.305C227.186 226.441 228.127 227.4 229.313 227.45C230.497 227.499 231.48 226.621 231.506 225.484C231.533 224.348 230.593 223.387 229.409 223.338C228.223 223.288 227.239 224.169 227.213 225.305Z" fill="#263238"/>
<path d="M224.015 221.128C224.285 221.405 225.9 220.179 228.215 220.158C230.526 220.104 232.239 221.273 232.487 220.987C232.609 220.86 232.331 220.357 231.585 219.827C230.85 219.3 229.603 218.793 228.161 218.817C226.72 218.842 225.513 219.388 224.823 219.939C224.117 220.493 223.882 221.004 224.015 221.128Z" fill="#263238"/>
<path d="M249.236 225.305C249.209 226.441 250.15 227.4 251.336 227.45C252.52 227.499 253.503 226.621 253.529 225.484C253.556 224.348 252.615 223.387 251.431 223.338C250.246 223.288 249.262 224.169 249.236 225.305Z" fill="#263238"/>
<path d="M247.15 220.565C247.42 220.842 249.037 219.617 251.35 219.595C253.662 219.54 255.375 220.71 255.623 220.424C255.744 220.297 255.469 219.794 254.72 219.265C253.986 218.737 252.738 218.231 251.296 218.255C249.854 218.28 248.648 218.826 247.957 219.377C247.254 219.931 247.018 220.441 247.15 220.565Z" fill="#263238"/>
<path d="M237.926 237.374C237.935 237.242 236.493 237.011 234.158 236.741C233.566 236.687 233.006 236.577 232.901 236.174C232.757 235.749 232.996 235.109 233.275 234.417C233.813 232.98 234.377 231.474 234.969 229.896C237.319 223.459 239.012 218.169 238.752 218.077C238.492 217.985 236.376 223.127 234.026 229.564C233.461 231.151 232.92 232.664 232.406 234.112C232.19 234.786 231.815 235.553 232.127 236.435C232.292 236.874 232.73 237.19 233.11 237.287C233.49 237.398 233.822 237.4 234.115 237.414C236.463 237.513 237.919 237.506 237.926 237.374Z" fill="#263238"/>
<path d="M236.085 264.823C236.085 264.823 247.949 265.373 259.046 258.52C259.046 258.52 253.523 270.331 236.147 269.005L236.085 264.823Z" fill="#EB996E"/>
<path d="M238.972 242.941C239.791 241.83 241.242 241.208 242.692 241.347C243.697 241.443 244.718 241.915 245.338 242.726C245.958 243.536 246.1 244.696 245.555 245.483C244.941 246.369 243.638 246.587 242.53 246.287C241.421 245.986 240.462 245.27 239.55 244.557C239.298 244.359 239.04 244.153 238.88 243.88C238.721 243.607 238.684 243.248 238.873 243.018" fill="#EB996E"/>
<path d="M238.811 246.523C239.144 246.7 240.196 244.418 242.894 243.693C245.591 242.961 247.908 244.334 248.072 244.023C248.169 243.895 247.733 243.331 246.718 242.832C245.726 242.335 244.106 241.984 242.455 242.427C240.806 242.874 239.686 243.966 239.178 244.867C238.653 245.782 238.649 246.465 238.811 246.523Z" fill="#263238"/>
<path d="M255.9 215.352C255.862 214.683 253.563 214.305 251.056 213.211C248.527 212.167 246.658 210.776 246.151 211.213C245.919 211.426 246.115 212.102 246.788 212.94C247.454 213.775 248.629 214.731 250.138 215.374C251.648 216.013 253.152 216.194 254.215 216.093C255.286 215.996 255.908 215.666 255.9 215.352Z" fill="#263238"/>
<path d="M231.317 211.779C230.648 211.516 229.15 212.837 227.077 213.856C225.034 214.935 223.076 215.377 222.907 216.068C222.845 216.394 223.349 216.736 224.335 216.817C225.308 216.902 226.754 216.659 228.169 215.939C229.583 215.217 230.618 214.194 231.111 213.362C231.615 212.521 231.623 211.917 231.317 211.779Z" fill="#263238"/>
<path d="M230.995 188.89C224.818 193.074 220.546 199.964 218.474 207.513L219.492 213.717C220.938 210.714 221.119 207.496 224.081 204.415C226.071 202.345 229.748 200.398 233.657 199.403C244.831 196.559 248.596 192.502 253.531 185.202C246.295 183.389 237.172 184.706 230.995 188.89Z" fill="#263238"/>
<path d="M279.238 205.279C276.125 194.08 265.955 185.187 254.442 183.593L253.532 185.202C250.704 188.509 247.875 191.816 245.047 195.122C244.341 195.947 243.606 196.834 243.447 197.908C243.233 199.346 244.127 200.743 245.252 201.664C247.943 203.867 251.715 204.003 255.192 204.097C258.669 204.191 262.47 204.475 265.003 206.857C268.158 209.824 268.088 214.863 267.028 219.061C265.968 223.26 265.552 230.027 265.987 234.336C266.376 238.198 271.479 228.817 274.836 230.765C275.772 231.309 273.249 246.46 274.227 245.994C275.185 245.538 275.096 240.081 275.413 239.068C277.134 233.58 278.861 228.068 279.778 222.39C280.694 216.713 280.779 210.821 279.238 205.279Z" fill="#263238"/>
<path d="M272.395 240.8C272.443 240.77 272.567 240.938 272.861 241.098C273.148 241.253 273.652 241.381 274.204 241.215C275.321 240.887 276.355 239.217 276.528 237.359C276.617 236.421 276.48 235.513 276.196 234.751C275.931 233.975 275.478 233.414 274.935 233.28C274.397 233.117 273.986 233.42 273.841 233.702C273.683 233.981 273.735 234.192 273.679 234.206C273.649 234.23 273.469 234.018 273.58 233.597C273.636 233.395 273.774 233.159 274.029 232.977C274.29 232.792 274.661 232.713 275.041 232.78C275.833 232.888 276.501 233.668 276.813 234.505C277.168 235.349 277.345 236.371 277.245 237.424C277.041 239.5 275.846 241.376 274.325 241.708C273.586 241.849 272.995 241.59 272.699 241.325C272.397 241.05 272.358 240.816 272.395 240.8Z" fill="#EB996E"/>
<path d="M272.33 191.725C272.33 191.725 273.993 193.533 276.007 196.935C277.036 198.621 278.059 200.746 279.033 203.167C279.994 205.596 280.783 208.37 281.335 211.333C282.455 217.28 281.995 222.829 281.169 226.675C281.09 227.163 280.962 227.615 280.842 228.044C280.725 228.471 280.614 228.875 280.51 229.255C280.324 230.018 280.068 230.644 279.88 231.163C279.694 231.656 279.546 232.051 279.433 232.351C279.328 232.621 279.267 232.761 279.257 232.757C279.247 232.753 279.287 232.605 279.374 232.329C279.473 232.024 279.603 231.624 279.765 231.124C279.935 230.601 280.173 229.972 280.341 229.208C280.437 228.828 280.54 228.424 280.648 227.997C280.76 227.569 280.88 227.117 280.951 226.631C281.717 222.795 282.136 217.294 281.025 211.39C280.477 208.449 279.703 205.692 278.763 203.273C277.809 200.862 276.814 198.739 275.815 197.047C275.572 196.622 275.339 196.216 275.119 195.831C274.879 195.461 274.652 195.111 274.438 194.783C274.227 194.457 274.03 194.152 273.847 193.869C273.663 193.59 273.472 193.35 273.313 193.126C273.006 192.7 272.76 192.358 272.573 192.098C272.405 191.861 272.322 191.732 272.33 191.725Z" fill="#455A64"/>
<path d="M273.325 194.865C273.335 194.867 273.317 194.975 273.27 195.183C273.206 195.383 273.102 195.687 272.858 196.014C272.397 196.691 271.387 197.381 270.029 197.841C268.663 198.289 267.022 198.691 265.179 199.099C263.335 199.491 261.284 199.834 259.109 199.985C256.934 200.139 254.844 200.069 252.971 199.806C251.098 199.541 249.442 199.099 248.104 198.598C246.763 198.099 245.734 197.559 245.05 197.15C244.704 196.95 244.449 196.774 244.277 196.654C244.105 196.534 244.017 196.467 244.023 196.458C244.039 196.433 244.41 196.672 245.11 197.044C245.808 197.418 246.842 197.922 248.179 198.389C249.513 198.859 251.155 199.273 253.01 199.519C254.865 199.763 256.931 199.824 259.087 199.671C263.399 199.352 267.241 198.396 269.957 197.63C271.301 197.203 272.287 196.567 272.76 195.939C273.249 195.321 273.282 194.848 273.325 194.865Z" fill="#455A64"/>
<path d="M271.465 191.303C271.473 191.31 271.414 191.382 271.295 191.512C271.172 191.637 271.005 191.84 270.752 192.06C270.267 192.523 269.499 193.13 268.46 193.735C266.396 194.966 263.124 195.984 259.448 196.003C255.773 196.02 252.515 195.274 250.203 194.707C249.044 194.417 248.113 194.158 247.472 193.972C246.831 193.786 246.479 193.672 246.485 193.651C246.491 193.63 246.853 193.704 247.503 193.853C248.204 194.015 249.132 194.23 250.254 194.49C252.574 195.001 255.817 195.705 259.445 195.688C263.07 195.668 266.291 194.702 268.351 193.541C270.436 192.396 271.415 191.241 271.465 191.303Z" fill="#455A64"/>
<path d="M269.351 190.161C269.357 190.182 269.097 190.271 268.62 190.414C268.145 190.562 267.446 190.738 266.574 190.922C264.833 191.292 262.379 191.62 259.656 191.607C256.932 191.588 254.482 191.231 252.745 190.842C251.876 190.648 251.179 190.464 250.705 190.311C250.23 190.162 249.971 190.07 249.977 190.049C249.983 190.028 250.254 190.08 250.737 190.192C251.219 190.308 251.92 190.459 252.79 190.623C254.528 190.955 256.959 191.273 259.658 191.292C262.357 191.304 264.791 191.014 266.533 190.703C267.404 190.549 268.107 190.406 268.591 190.295C269.074 190.189 269.345 190.14 269.351 190.161Z" fill="#455A64"/>
<path d="M255.571 181.358C255.591 181.366 255.501 181.627 255.321 182.094C255.146 182.563 254.85 183.225 254.449 184.025C253.65 185.626 252.343 187.75 250.554 189.824C248.759 191.894 246.845 193.494 245.376 194.515C244.642 195.027 244.029 195.415 243.591 195.656C243.155 195.902 242.91 196.028 242.899 196.01C242.888 195.991 243.113 195.829 243.527 195.552C243.944 195.28 244.534 194.866 245.246 194.335C246.671 193.275 248.54 191.667 250.317 189.618C252.088 187.565 253.41 185.485 254.253 183.921C254.677 183.14 255.001 182.496 255.21 182.045C255.423 181.595 255.551 181.35 255.571 181.358Z" fill="#455A64"/>
<path d="M218.881 203.53C218.873 203.523 218.934 203.432 219.059 203.263C219.186 203.096 219.369 202.845 219.622 202.538C220.121 201.916 220.872 201.037 221.875 200.02C222.876 199.002 224.151 197.862 225.708 196.783C226.491 196.251 227.341 195.732 228.262 195.265C229.185 194.805 230.175 194.395 231.215 194.055C235.386 192.699 239.423 192.557 242.255 192.85C243.678 192.99 244.816 193.204 245.592 193.391C245.982 193.476 246.278 193.57 246.48 193.624C246.682 193.683 246.786 193.718 246.783 193.729C246.777 193.754 246.346 193.659 245.566 193.51C244.786 193.361 243.649 193.181 242.235 193.071C239.419 192.837 235.432 193.014 231.311 194.354C227.171 195.666 224.045 198.214 222.031 200.178C221.015 201.168 220.242 202.021 219.715 202.617C219.471 202.893 219.27 203.119 219.107 203.303C218.967 203.458 218.889 203.537 218.881 203.53Z" fill="#455A64"/>
<path d="M226.633 192.436C226.622 192.418 226.902 192.233 227.421 191.913C227.679 191.75 227.999 191.559 228.387 191.366C228.773 191.17 229.203 190.926 229.707 190.717C230.204 190.492 230.751 190.251 231.358 190.04C231.955 189.801 232.615 189.613 233.305 189.401C234.697 189.02 236.257 188.701 237.917 188.531C239.578 188.377 241.171 188.386 242.611 188.489C243.33 188.563 244.014 188.619 244.645 188.738C245.281 188.827 245.865 188.957 246.396 189.081C246.931 189.188 247.401 189.344 247.817 189.462C248.235 189.576 248.586 189.701 248.871 189.811C249.442 190.024 249.753 190.15 249.746 190.171C249.738 190.191 249.413 190.104 248.833 189.928C248.544 189.836 248.189 189.729 247.77 189.632C247.352 189.531 246.882 189.392 246.348 189.3C245.818 189.191 245.237 189.075 244.606 188.997C243.979 188.891 243.301 188.845 242.589 188.779C241.163 188.693 239.589 188.692 237.947 188.845C236.307 189.014 234.763 189.321 233.381 189.682C232.696 189.884 232.04 190.061 231.445 190.287C230.84 190.485 230.293 190.712 229.795 190.922C229.289 191.116 228.856 191.344 228.465 191.524C228.072 191.701 227.745 191.875 227.48 192.021C226.946 192.305 226.644 192.454 226.633 192.436Z" fill="#455A64"/>
<path d="M231.466 228.288C231.519 228.319 231.36 228.735 230.853 229.227C230.358 229.714 229.464 230.242 228.364 230.314C227.263 230.383 226.309 229.973 225.756 229.553C225.19 229.13 224.98 228.738 225.028 228.7C225.088 228.645 225.389 228.934 225.954 229.242C226.511 229.551 227.371 229.853 228.33 229.793C229.289 229.73 230.103 229.321 230.616 228.943C231.138 228.567 231.4 228.242 231.466 228.288Z" fill="#EB996E"/>
<path d="M254.46 227.589C254.514 227.624 254.374 227.988 253.948 228.442C253.53 228.893 252.789 229.408 251.843 229.613C250.897 229.817 250.01 229.652 249.443 229.413C248.867 229.175 248.589 228.901 248.625 228.847C248.681 228.706 250.026 229.476 251.734 229.104C253.441 228.739 254.351 227.484 254.46 227.589Z" fill="#EB996E"/>
<path d="M236.672 209.484C236.72 209.441 236.975 209.611 237.192 210.042C237.407 210.462 237.545 211.171 237.286 211.889C237.024 212.606 236.464 213.063 236.03 213.247C235.587 213.439 235.283 213.406 235.273 213.343C235.257 213.267 235.514 213.169 235.848 212.927C236.181 212.691 236.59 212.278 236.796 211.712C237 211.146 236.951 210.567 236.847 210.172C236.746 209.773 236.611 209.532 236.672 209.484Z" fill="#EB996E"/>
<path d="M240.047 213.626C240.008 213.674 239.733 213.544 239.447 213.157C239.161 212.776 238.924 212.12 238.969 211.385C239.016 210.65 239.334 210.028 239.666 209.687C239.998 209.339 240.287 209.245 240.32 209.297C240.411 209.406 239.546 210.13 239.489 211.418C239.384 212.702 240.151 213.529 240.047 213.626Z" fill="#EB996E"/>
<path d="M209.18 404.621C209.18 404.621 177.689 390.822 168.484 390.522C160.615 390.265 147.114 393.798 143.231 402.145C139.348 410.493 140.544 421.836 143.262 426.107C145.98 430.378 174.328 444.005 187.918 449.247C201.507 454.489 244.41 466.136 244.41 466.136L304.591 462.253C304.591 462.253 322.325 446.979 325.043 443.873C327.761 440.767 345.918 423.732 347.859 421.015C349.8 418.297 355.071 401.411 349.247 394.81C343.423 388.21 339.593 384.045 331.246 384.627C322.898 385.209 317.164 386.219 306.639 393.912C298.542 399.83 295.257 402.091 287.044 403.966C278.83 405.841 262.7 410.625 249.617 409.557C236.534 408.488 209.18 404.621 209.18 404.621Z" fill="#263238"/>
<path d="M179.638 402.803C179.642 402.795 179.733 402.831 179.908 402.91C180.107 403.003 180.36 403.121 180.676 403.269C181.379 403.611 182.36 404.089 183.607 404.696C186.173 405.978 189.828 407.804 194.332 410.053C198.849 412.337 204.225 415.061 210.154 418.17C216.07 421.306 222.569 424.751 229.391 428.367C238.968 433.455 247.906 438.205 255.409 442.191L255.596 442.29L255.502 442.478C251.954 449.581 249.001 455.491 246.918 459.663C245.89 461.703 245.077 463.317 244.503 464.455C244.233 464.982 244.02 465.399 243.86 465.712C243.713 465.994 243.64 466.137 243.627 466.137C243.617 466.138 243.67 465.978 243.799 465.683C243.945 465.363 244.139 464.937 244.385 464.397C244.933 463.247 245.711 461.615 246.693 459.552C248.737 455.361 251.634 449.423 255.115 442.286L255.208 442.573C247.693 438.605 238.74 433.878 229.148 428.813C222.331 425.189 215.808 421.77 209.934 418.583C204.022 415.454 198.663 412.697 194.168 410.372C189.696 408.062 186.065 406.187 183.517 404.871C182.288 404.228 181.321 403.721 180.629 403.359C180.322 403.193 180.076 403.06 179.883 402.955C179.718 402.863 179.634 402.811 179.638 402.803Z" fill="#455A64"/>
<path d="M297.189 405.73C297.194 405.737 297.121 405.793 296.975 405.894C296.803 406.009 296.587 406.154 296.319 406.333C295.742 406.718 294.879 407.269 293.757 407.962C291.509 409.336 288.234 411.307 283.999 413.392C279.776 415.486 274.571 417.701 268.516 419.274C265.491 420.055 262.253 420.655 258.866 420.98C255.478 421.295 251.947 421.34 248.347 421.14C241.139 420.703 234.375 419.303 228.374 417.607C222.365 415.912 217.093 413.952 212.708 412.225C208.324 410.491 204.821 408.984 202.403 407.937C201.225 407.418 200.296 407.008 199.627 406.713C199.334 406.578 199.098 406.469 198.91 406.382C198.75 406.305 198.669 406.262 198.673 406.253C198.676 406.245 198.764 406.272 198.931 406.334C199.124 406.409 199.367 406.502 199.667 406.618C200.345 406.892 201.286 407.272 202.48 407.754C204.921 408.744 208.444 410.2 212.839 411.889C217.234 413.571 222.508 415.491 228.501 417.155C234.487 418.82 241.218 420.198 248.378 420.632C251.954 420.831 255.459 420.789 258.821 420.484C262.182 420.168 265.394 419.583 268.401 418.82C274.419 417.283 279.614 415.115 283.842 413.069C288.082 411.032 291.379 409.113 293.656 407.792C294.763 407.136 295.636 406.619 296.266 406.246C296.545 406.084 296.769 405.953 296.948 405.849C297.103 405.763 297.185 405.722 297.189 405.73Z" fill="#455A64"/>
<path d="M254.429 437.556C254.394 437.561 254.319 437.214 254.214 436.58C254.101 435.947 253.997 435.022 253.912 433.876C253.733 431.583 253.747 428.402 253.977 424.91C254.208 421.417 254.514 418.271 254.692 415.99C254.877 413.71 254.964 412.297 255.04 412.299C255.075 412.3 255.096 412.654 255.105 413.296C255.117 413.938 255.097 414.866 255.051 416.012C254.964 418.304 254.715 421.461 254.485 424.942C254.256 428.423 254.186 431.576 254.272 433.857C254.347 436.138 254.512 437.544 254.429 437.556Z" fill="#455A64"/>
<path d="M284.058 406.629C284.079 406.706 282.839 407.082 280.874 407.786C278.909 408.489 276.229 409.559 273.387 410.987C270.546 412.421 268.091 413.937 266.356 415.098C264.62 416.258 263.58 417.03 263.531 416.968C263.509 416.941 263.745 416.717 264.191 416.335C264.635 415.95 265.303 415.425 266.15 414.804C267.842 413.561 270.291 411.981 273.158 410.534C276.026 409.092 278.753 408.065 280.76 407.446C281.763 407.135 282.583 406.911 283.157 406.783C283.729 406.651 284.049 406.595 284.058 406.629Z" fill="#455A64"/>
<path d="M320.007 390.822C320.016 390.837 319.768 391.003 319.287 391.305C318.767 391.625 318.063 392.057 317.176 392.602C316.249 393.147 315.141 393.856 313.863 394.694C312.576 395.517 311.118 396.465 309.54 397.564C306.346 399.705 302.648 402.41 298.558 405.43C294.49 408.483 290.054 411.888 285.411 415.482C280.766 419.078 276.325 422.484 272.248 425.534C268.149 428.555 264.439 431.251 261.229 433.383C259.643 434.475 258.177 435.417 256.88 436.229C255.593 437.056 254.474 437.752 253.536 438.282C252.633 438.802 251.917 439.215 251.388 439.521C250.894 439.799 250.631 439.938 250.622 439.923C250.613 439.908 250.86 439.739 251.336 439.433C251.853 439.108 252.552 438.668 253.433 438.114C254.354 437.559 255.456 436.84 256.726 435.991C258.006 435.157 259.455 434.197 261.026 433.087C264.204 430.921 267.888 428.198 271.967 425.16C276.025 422.092 280.455 418.677 285.1 415.081C289.744 411.487 294.191 408.09 298.279 405.055C302.39 402.051 306.114 399.373 309.34 397.266C310.933 396.184 312.408 395.255 313.712 394.454C315.006 393.638 316.131 392.952 317.076 392.432C317.984 391.921 318.705 391.515 319.238 391.216C319.734 390.943 319.999 390.807 320.007 390.822Z" fill="#455A64"/>
<path d="M345.013 412.425C345.021 412.428 345.003 412.503 344.96 412.648C344.905 412.821 344.837 413.032 344.755 413.289C344.57 413.851 344.306 414.684 343.852 415.714C342.994 417.788 341.524 420.724 339.122 423.962C337.924 425.579 336.502 427.275 334.815 428.938C333.14 430.61 331.237 432.293 329.076 433.851C324.784 437.009 319.512 439.714 313.698 441.681C307.889 443.682 302.196 445.009 297.06 446.316C291.915 447.608 287.265 448.714 283.336 449.535C279.406 450.355 276.203 450.903 273.981 451.223C272.87 451.382 272.006 451.496 271.418 451.558C271.15 451.585 270.93 451.608 270.749 451.627C270.598 451.64 270.52 451.642 270.519 451.633C270.518 451.624 270.593 451.605 270.742 451.575C270.921 451.543 271.138 451.504 271.403 451.457C272.027 451.352 272.877 451.209 273.949 451.028C276.158 450.649 279.345 450.048 283.259 449.184C287.172 448.32 291.807 447.179 296.944 445.863C302.076 444.531 307.758 443.191 313.531 441.202C319.312 439.245 324.53 436.582 328.8 433.473C330.949 431.939 332.844 430.283 334.517 428.639C336.202 427.003 337.627 425.336 338.833 423.746C341.251 420.562 342.759 417.674 343.669 415.635C344.148 414.623 344.441 413.804 344.657 413.255C344.758 413.005 344.841 412.801 344.909 412.632C344.97 412.492 345.004 412.422 345.013 412.425Z" fill="#455A64"/>
<path d="M347.859 412.134C347.918 412.151 347.781 412.914 347.363 414.094C346.948 415.272 346.216 416.855 345.148 418.444C344.076 420.031 342.883 421.304 341.947 422.131C341.01 422.961 340.354 423.375 340.316 423.326C340.208 423.204 342.64 421.288 344.726 418.16C346.842 415.054 347.705 412.08 347.859 412.134Z" fill="#455A64"/>
<path d="M240.749 464.481C240.715 464.474 240.76 464.107 240.873 463.45C240.982 462.792 241.175 461.847 241.442 460.684C241.976 458.361 242.858 455.178 244.125 451.762C245.396 448.346 246.807 445.359 247.919 443.251C248.476 442.196 248.946 441.354 249.293 440.785C249.637 440.214 249.842 439.906 249.872 439.923C249.94 439.961 249.266 441.269 248.24 443.412C247.214 445.554 245.865 448.545 244.601 451.939C243.343 455.334 242.411 458.48 241.79 460.772C241.169 463.065 240.825 464.497 240.749 464.481Z" fill="#455A64"/>
<path d="M165.635 399.963C165.615 399.91 166.32 399.572 167.546 399.294C168.768 399.014 170.525 398.852 172.435 399.109C174.345 399.373 175.995 400 177.097 400.598C178.204 401.195 178.792 401.709 178.759 401.755C178.685 401.907 176.103 400.095 172.367 399.613C168.64 399.076 165.666 400.129 165.635 399.963Z" fill="#455A64"/>
<path d="M190.287 449.71C187.919 449.703 184.953 451.539 183.444 453.364C181.935 455.189 181.005 457.412 180.118 459.607C179.423 461.326 178.737 463.262 179.428 464.983C180.082 466.61 181.841 467.57 183.579 467.802C185.317 468.034 187.072 467.673 188.801 467.382C206.866 464.338 225.529 468.786 243.643 466.054L190.287 449.71Z" fill="#455A64"/>
<path d="M190.174 467.081C190.14 467.051 190.438 466.741 190.819 466.086C191.194 465.438 191.654 464.407 191.704 463.066C191.764 461.744 191.312 460.109 190.145 458.789C189.567 458.138 188.818 457.557 187.933 457.255C187.059 456.943 186.023 456.972 185.245 457.554C184.454 458.096 184.094 459.146 184.611 459.887C184.836 460.258 185.202 460.539 185.591 460.641C185.98 460.752 186.385 460.641 186.698 460.4C187.346 459.897 187.52 459.029 187.434 458.274C187.352 457.505 187.13 456.783 186.901 456.152C185.917 453.611 184.545 452.466 184.639 452.402C184.658 452.381 185.002 452.641 185.515 453.225C186.026 453.805 186.699 454.729 187.235 456.021C187.494 456.671 187.743 457.393 187.852 458.23C187.965 459.043 187.807 460.11 186.986 460.769C186.593 461.09 186.007 461.261 185.47 461.111C184.938 460.975 184.48 460.619 184.188 460.15C183.888 459.694 183.767 459.053 183.948 458.503C184.111 457.947 184.486 457.476 184.946 457.142C185.878 456.444 187.131 456.425 188.095 456.785C189.085 457.133 189.885 457.773 190.498 458.482C191.733 459.919 192.174 461.682 192.063 463.085C191.962 464.505 191.424 465.557 190.986 466.193C190.54 466.835 190.191 467.099 190.174 467.081Z" fill="white"/>
<path d="M202.544 453.25C202.586 453.22 203.14 453.924 203.585 455.283C204.033 456.623 204.284 458.669 203.682 460.791C203.077 462.913 201.786 464.521 200.699 465.424C199.606 466.345 198.764 466.652 198.744 466.604C198.7 466.529 199.467 466.112 200.458 465.158C201.446 464.219 202.621 462.659 203.193 460.652C203.763 458.645 203.585 456.701 203.239 455.382C202.899 454.049 202.466 453.29 202.544 453.25Z" fill="white"/>
<path d="M212.597 456.381C212.623 456.419 212.339 456.602 211.949 457.044C211.565 457.48 211.088 458.223 210.915 459.25C210.747 460.242 210.897 461.622 211.887 462.535C212.354 462.981 213.071 463.236 213.672 462.949C214.269 462.678 214.693 461.929 214.59 461.236C214.492 460.528 213.894 459.951 213.243 459.733C212.588 459.502 211.861 459.656 211.305 459.998C210.143 460.695 209.781 462.038 209.821 463.047C209.856 464.087 210.211 464.896 210.461 465.429C210.722 465.964 210.899 466.249 210.867 466.271C210.842 466.289 210.61 466.043 210.288 465.524C209.979 465.006 209.551 464.19 209.463 463.065C209.424 462.508 209.48 461.879 209.72 461.251C209.953 460.625 210.409 460.008 211.06 459.6C211.698 459.191 212.574 458.981 213.403 459.261C214.203 459.525 214.953 460.214 215.094 461.163C215.219 462.108 214.695 463.025 213.881 463.402C213.027 463.795 212.097 463.407 211.569 462.879C210.434 461.78 210.339 460.246 210.563 459.185C210.798 458.083 211.36 457.324 211.808 456.908C212.262 456.486 212.586 456.36 212.597 456.381Z" fill="white"/>
<path d="M222.921 467.081C222.876 467.018 223.212 466.74 223.64 466.211C224.066 465.688 224.568 464.876 224.756 463.879C224.947 462.882 224.764 461.944 224.539 461.311C224.315 460.672 224.082 460.302 224.145 460.256C224.192 460.217 224.538 460.518 224.87 461.171C225.2 461.812 225.471 462.851 225.255 463.973C225.043 465.094 224.428 465.962 223.904 466.455C223.375 466.957 222.955 467.133 222.921 467.081Z" fill="white"/>
<path d="M322.414 453.042C319.553 449.111 314.038 448.292 309.183 448.555C305.35 448.762 301.543 449.435 297.872 450.555C295.951 451.141 293.96 451.857 291.986 451.491C290.26 451.171 288.783 450.058 287.098 449.568C284.033 448.676 280.814 449.931 277.668 450.474C269.621 451.862 261.592 448.533 254.104 445.276L245.176 462.633C253.731 466.421 261.296 468.133 270.284 470.324C278.258 472.268 286.599 471.595 294.801 471.887C299.49 472.054 304.202 472.539 308.86 471.968C313.517 471.397 318.234 469.625 321.27 466.047C324.307 462.469 325.176 456.836 322.414 453.042Z" fill="#455A64"/>
<path d="M254.989 466.25C254.973 466.257 254.916 466.157 254.821 465.958C254.721 465.762 254.606 465.459 254.474 465.062C254.227 464.267 253.968 463.059 254.044 461.552C254.121 460.056 254.544 458.246 255.628 456.547C256.168 455.71 256.896 454.869 257.923 454.37C258.928 453.896 260.261 453.752 261.329 454.52C261.804 454.929 262.183 455.533 262.034 456.245C261.951 456.596 261.669 456.879 261.36 457.002C261.046 457.129 260.731 457.128 260.445 457.099C259.321 456.94 258.338 456.45 257.549 455.808C255.957 454.513 255.271 452.607 255.362 451.088C255.429 449.552 256.022 448.41 256.529 447.749C256.784 447.413 257.016 447.183 257.182 447.038C257.352 446.897 257.446 446.831 257.458 446.844C257.492 446.879 257.136 447.179 256.691 447.863C256.249 448.536 255.739 449.651 255.721 451.097C255.682 452.526 256.353 454.26 257.843 455.445C258.574 456.029 259.506 456.471 260.497 456.605C260.98 456.673 261.453 456.514 261.544 456.121C261.644 455.732 261.377 455.215 261.008 454.916C260.209 454.329 259.013 454.397 258.136 454.822C257.229 455.253 256.541 456.016 256.02 456.805C254.968 458.407 254.522 460.134 254.403 461.578C254.193 464.513 255.11 466.229 254.989 466.25Z" fill="white"/>
<path d="M269.072 469.132C269.072 469.088 269.391 469.088 269.93 468.947C270.466 468.812 271.223 468.477 271.94 467.797C272.661 467.128 273.284 466.079 273.478 464.789C273.683 463.506 273.486 462.031 272.909 460.632C272.329 459.226 271.48 458.018 270.654 456.971C269.828 455.934 268.967 455.017 268.543 454.034C268.102 453.057 268.145 452.135 268.346 451.582C268.548 451.017 268.827 450.807 268.84 450.826C268.879 450.852 268.664 451.101 268.536 451.637C268.407 452.164 268.423 453.004 268.867 453.881C269.297 454.772 270.147 455.629 271.017 456.677C271.877 457.725 272.768 458.961 273.378 460.439C273.987 461.914 274.186 463.488 273.939 464.866C273.706 466.251 272.985 467.385 272.181 468.062C271.38 468.756 270.546 469.058 269.97 469.139C269.391 469.227 269.069 469.157 269.072 469.132Z" fill="white"/>
<path d="M292.333 451.505C292.35 451.5 292.409 451.641 292.507 451.916C292.597 452.193 292.728 452.604 292.848 453.146C293.09 454.225 293.33 455.838 293.175 457.83C293.093 458.82 292.939 459.917 292.518 461.034C292.106 462.138 291.362 463.291 290.166 463.989C288.989 464.672 287.472 464.938 286.028 464.529C285.311 464.327 284.614 463.967 284.057 463.406C283.5 462.861 283.114 462.034 283.216 461.19C283.27 460.349 283.934 459.549 284.756 459.385C285.554 459.176 286.413 459.422 287.004 459.913C288.203 460.911 288.594 462.463 288.503 463.799C288.26 466.556 286.407 468.531 284.708 469.516C282.975 470.542 281.388 470.929 280.321 471.194C279.782 471.321 279.36 471.399 279.073 471.448C278.786 471.495 278.633 471.511 278.629 471.494C278.62 471.455 279.214 471.309 280.27 471.003C281.314 470.683 282.868 470.242 284.518 469.211C285.33 468.684 286.164 468.01 286.806 467.079C287.451 466.162 287.956 465.019 288.035 463.768C288.113 462.546 287.719 461.14 286.694 460.303C286.193 459.893 285.513 459.712 284.88 459.875C284.241 460.016 283.779 460.572 283.721 461.244C283.641 461.916 283.938 462.573 284.417 463.051C284.893 463.535 285.52 463.866 286.163 464.049C287.461 464.426 288.855 464.193 289.929 463.583C291.014 462.964 291.715 461.924 292.124 460.88C292.54 459.828 292.713 458.765 292.816 457.797C293.013 455.853 292.833 454.262 292.653 453.184C292.468 452.103 292.292 451.517 292.333 451.505Z" fill="white"/>
<path d="M300.631 471.584C300.619 471.597 300.494 471.502 300.265 471.308C300.038 471.112 299.723 470.8 299.352 470.364C298.635 469.486 297.71 468.046 297.263 466.025C296.807 464.03 296.965 461.409 298.302 458.999C298.96 457.801 299.887 456.666 301.065 455.748C302.23 454.857 303.69 454.052 305.362 454.132C307.026 454.181 308.571 455.667 308.366 457.353C308.258 458.184 307.623 458.848 306.922 459.127C306.217 459.421 305.441 459.45 304.746 459.235C303.316 458.767 302.582 457.374 302.427 456.172C302.265 454.936 302.548 453.763 303.074 452.855C304.176 451.054 305.713 450.217 306.688 449.677C307.192 449.412 307.595 449.233 307.871 449.117C308.147 449.003 308.297 448.953 308.304 448.969C308.322 449.006 307.756 449.279 306.785 449.849C305.849 450.433 304.381 451.312 303.386 453.033C302.919 453.881 302.677 454.982 302.844 456.111C303.002 457.213 303.69 458.415 304.885 458.788C305.47 458.964 306.145 458.932 306.73 458.681C307.317 458.437 307.792 457.921 307.873 457.282C308.045 455.985 306.756 454.662 305.329 454.64C303.87 454.563 302.483 455.292 301.37 456.143C300.246 457.011 299.352 458.087 298.712 459.227C297.412 461.522 297.22 464.014 297.615 465.953C298.002 467.914 298.851 469.345 299.508 470.243C300.187 471.136 300.664 471.549 300.631 471.584Z" fill="white"/>
<path d="M316.871 449.68C316.899 449.666 317.089 449.971 317.367 450.558C317.647 451.144 317.989 452.024 318.283 453.151C318.881 455.387 319.149 458.722 318.138 462.17C317.126 465.619 315.097 468.28 313.386 469.839C312.529 470.629 311.765 471.184 311.214 471.526C310.663 471.869 310.338 472.023 310.322 471.996C310.267 471.916 311.518 471.196 313.136 469.581C314.75 467.987 316.668 465.37 317.65 462.028C318.63 458.686 318.43 455.448 317.933 453.235C317.445 451 316.781 449.719 316.871 449.68Z" fill="white"/>
<path d="M210.897 231.328C210.897 231.328 213.477 228.634 213.692 227.452C214.438 223.336 215.719 221.247 217.804 219.992C217.804 219.992 220.534 224.619 220.816 232.511C221.017 238.146 221.121 242.403 221.121 242.403C221.121 242.403 223.951 249.105 222.61 252.531C221.27 255.957 219.449 254.765 216.934 253.723C214.419 252.68 213.525 248.659 213.525 248.659L210.897 248.429V231.328Z" fill="#FFBE9D"/>
<path d="M217.805 219.992C217.821 219.983 217.896 220.085 218.026 220.29C218.159 220.493 218.345 220.8 218.545 221.216C218.96 222.04 219.455 223.289 219.867 224.887C220.285 226.483 220.613 228.422 220.861 230.58C220.972 231.663 221.088 232.794 221.208 233.966C221.343 235.137 221.378 236.388 221.369 237.633C221.367 238.883 221.366 240.096 221.511 241.245C221.646 242.393 221.975 243.467 222.313 244.492C222.651 245.517 222.997 246.497 223.219 247.45C223.468 248.391 223.517 249.355 223.396 250.177C223.171 251.836 222.603 253.099 222.043 253.85C221.469 254.624 220.875 254.72 220.887 254.689C220.866 254.646 221.385 254.5 221.878 253.733C222.362 252.985 222.861 251.736 223.031 250.136C223.276 248.527 222.565 246.689 221.86 244.645C221.508 243.62 221.155 242.507 221.007 241.31C220.85 240.118 220.849 238.882 220.85 237.633C220.859 236.378 220.83 235.187 220.702 234.013C220.593 232.843 220.487 231.714 220.386 230.633C220.166 228.484 219.878 226.561 219.511 224.975C219.15 223.387 218.715 222.14 218.362 221.301C218.016 220.457 217.761 220.017 217.805 219.992Z" fill="#EB996E"/>
<path d="M212.907 231.874C214.551 232.177 215.905 232.308 215.931 232.167C215.957 232.026 214.645 231.666 213.001 231.363C211.357 231.06 210.003 230.929 209.977 231.07C209.951 231.211 211.263 231.571 212.907 231.874Z" fill="#EB996E"/>
<path d="M250.515 410.46C250.512 410.478 250.339 410.47 250.01 410.439C249.623 410.395 249.15 410.341 248.577 410.276C247.334 410.125 245.54 409.883 243.325 409.566C238.895 408.934 232.784 407.988 226.054 406.832C219.322 405.674 213.246 404.524 208.859 403.64C206.665 403.199 204.893 402.827 203.671 402.555C203.11 402.425 202.646 402.318 202.267 402.23C201.947 402.15 201.781 402.1 201.784 402.082C201.788 402.064 201.961 402.081 202.287 402.127C202.672 402.189 203.141 402.265 203.71 402.356C205.02 402.588 206.784 402.9 208.927 403.279C213.405 404.07 219.454 405.138 226.141 406.319C232.836 407.439 238.895 408.452 243.379 409.202C245.526 409.561 247.293 409.856 248.605 410.075C249.172 410.179 249.64 410.264 250.023 410.334C250.349 410.399 250.518 410.442 250.515 410.46Z" fill="#455A64"/>
<path d="M277.872 218.253C277.872 218.253 280.669 225.246 280.647 227.997C280.625 230.748 278.764 237.706 278.764 237.706L277.872 218.253Z" fill="#FFBE9D"/>
<path d="M283.14 239.287L279.235 238.73C279.235 238.73 278.203 228.429 278.31 226.817C278.525 223.575 277.792 214.169 276.526 212.937C273.871 210.355 274.463 226.817 274.463 226.817C274.463 222.497 274.212 217.017 273.588 215.886C272.523 213.956 271.292 216.098 271.292 216.098C271.292 216.098 269.116 232.865 268.96 236.474C268.803 240.082 268.516 250.076 269.216 252.058C269.958 254.16 269.106 254.824 271.459 254.667C273.812 254.51 286.806 252.931 286.806 252.931L283.925 239.106" fill="#FFBE9D"/>
<path d="M271.293 216.098C271.329 216.101 271.302 216.692 271.223 217.759C271.142 218.825 270.996 220.365 270.788 222.265C270.378 226.066 269.65 231.295 268.93 237.074C268.576 239.965 268.277 242.722 268.077 245.235C267.92 247.74 267.604 250.042 268.115 251.841C268.309 252.782 268.907 253.349 269.561 253.719C270.202 254.083 270.824 254.28 271.336 254.394C272.369 254.623 272.964 254.522 272.967 254.573C272.969 254.587 272.825 254.631 272.541 254.655C272.257 254.683 271.834 254.679 271.298 254.594C270.764 254.507 270.113 254.335 269.419 253.974C269.074 253.793 268.721 253.55 268.412 253.213C268.087 252.874 267.9 252.403 267.762 251.945C267.178 250.03 267.472 247.709 267.599 245.2C267.774 242.675 268.059 239.907 268.414 237.011C269.135 231.222 269.92 226.005 270.424 222.22C270.668 220.395 270.87 218.885 271.023 217.738C271.162 216.679 271.257 216.094 271.293 216.098Z" fill="#EB996E"/>
<path d="M273.977 231.571C273.862 231.474 274.286 230.832 274.406 229.934C274.547 229.04 274.323 228.304 274.461 228.243C274.577 228.165 275.081 228.942 274.922 230.009C274.77 231.077 274.065 231.679 273.977 231.571Z" fill="#EB996E"/>
<path d="M274.295 218.978C274.432 218.956 274.798 220.647 274.827 222.77C274.863 224.894 274.549 226.595 274.412 226.577C274.264 226.561 274.342 224.864 274.306 222.778C274.278 220.693 274.147 218.999 274.295 218.978Z" fill="#EB996E"/>
<path d="M278.366 229.031C278.233 229.028 278.081 226.682 277.918 223.774C277.754 220.865 277.835 218.488 277.99 218.491C278.123 218.493 278.275 220.839 278.439 223.748C278.602 226.656 278.521 229.033 278.366 229.031Z" fill="#EB996E"/>
<path d="M279.914 239.628C282.341 239.688 284.311 239.62 284.314 239.477C284.318 239.333 282.353 239.168 279.927 239.108C277.5 239.047 275.53 239.115 275.527 239.259C275.523 239.402 277.487 239.567 279.914 239.628Z" fill="#EB996E"/>
</svg>
