<svg width="490" height="479" viewBox="0 0 490 479" fill="none" xmlns="http://www.w3.org/2000/svg">
<g opacity="0.25">
<path d="M108.41 2.19989C111.52 2.19989 114.04 -0.320751 114.04 -3.43011C114.04 -6.53948 111.52 -9.06006 108.41 -9.06006C105.301 -9.06006 102.78 -6.53948 102.78 -3.43011C102.78 -0.320751 105.301 2.19989 108.41 2.19989Z" fill="#F0C5CB"/>
<path d="M161.8 4.41974C166.136 4.41974 169.65 0.905138 169.65 -3.4303C169.65 -7.76573 166.136 -11.2803 161.8 -11.2803C157.465 -11.2803 153.95 -7.76573 153.95 -3.4303C153.95 0.905138 157.465 4.41974 161.8 4.41974Z" fill="#F0C5CB"/>
<path d="M215.18 6.63995C220.742 6.63995 225.25 2.13145 225.25 -3.43005C225.25 -8.99156 220.742 -13.5 215.18 -13.5C209.619 -13.5 205.11 -8.99156 205.11 -3.43005C205.11 2.13145 209.619 6.63995 215.18 6.63995Z" fill="#F0C5CB"/>
<path d="M268.57 8.56C275.192 8.56 280.56 3.19184 280.56 -3.43005C280.56 -10.0519 275.192 -15.42 268.57 -15.42C261.948 -15.42 256.58 -10.0519 256.58 -3.43005C256.58 3.19184 261.948 8.56 268.57 8.56Z" fill="#F0C5CB"/>
<path d="M321.96 10.04C329.399 10.04 335.43 4.00922 335.43 -3.43005C335.43 -10.8693 329.399 -16.9 321.96 -16.9C314.521 -16.9 308.49 -10.8693 308.49 -3.43005C308.49 4.00922 314.521 10.04 321.96 10.04Z" fill="#F0C5CB"/>
<path d="M375.35 10.6301C383.115 10.6301 389.41 4.33513 389.41 -3.42999C389.41 -11.1951 383.115 -17.49 375.35 -17.49C367.585 -17.49 361.29 -11.1951 361.29 -3.42999C361.29 4.33513 367.585 10.6301 375.35 10.6301Z" fill="#F0C5CB"/>
<path d="M428.74 10.1902C436.262 10.1902 442.36 4.09231 442.36 -3.42981C442.36 -10.9519 436.262 -17.0498 428.74 -17.0498C421.218 -17.0498 415.12 -10.9519 415.12 -3.42981C415.12 4.09231 421.218 10.1902 428.74 10.1902Z" fill="#F0C5CB"/>
<path d="M482.12 8.71014C488.825 8.71014 494.26 3.27487 494.26 -3.42987C494.26 -10.1346 488.825 -15.5698 482.12 -15.5698C475.416 -15.5698 469.98 -10.1346 469.98 -3.42987C469.98 3.27487 475.416 8.71014 482.12 8.71014Z" fill="#F0C5CB"/>
<path d="M1.63 51.29C2.36454 51.29 2.95999 50.6945 2.95999 49.96C2.95999 49.2254 2.36454 48.63 1.63 48.63C0.895466 48.63 0.299988 49.2254 0.299988 49.96C0.299988 50.6945 0.895466 51.29 1.63 51.29Z" fill="#F0C5CB"/>
<path d="M55.02 53.81C57.1463 53.81 58.87 52.0863 58.87 49.96C58.87 47.8337 57.1463 46.11 55.02 46.11C52.8937 46.11 51.17 47.8337 51.17 49.96C51.17 52.0863 52.8937 53.81 55.02 53.81Z" fill="#F0C5CB"/>
<path d="M108.41 56.33C111.928 56.33 114.78 53.478 114.78 49.96C114.78 46.4419 111.928 43.59 108.41 43.59C104.892 43.59 102.04 46.4419 102.04 49.96C102.04 53.478 104.892 56.33 108.41 56.33Z" fill="#F0C5CB"/>
<path d="M161.8 58.69C166.622 58.69 170.53 54.7814 170.53 49.96C170.53 45.1385 166.622 41.23 161.8 41.23C156.979 41.23 153.07 45.1385 153.07 49.96C153.07 54.7814 156.979 58.69 161.8 58.69Z" fill="#F0C5CB"/>
<path d="M215.18 61.06C221.31 61.06 226.28 56.0903 226.28 49.96C226.28 43.8296 221.31 38.86 215.18 38.86C209.05 38.86 204.08 43.8296 204.08 49.96C204.08 56.0903 209.05 61.06 215.18 61.06Z" fill="#F0C5CB"/>
<path d="M268.57 63.4302C276.009 63.4302 282.04 57.3995 282.04 49.9602C282.04 42.5209 276.009 36.4902 268.57 36.4902C261.13 36.4902 255.1 42.5209 255.1 49.9602C255.1 57.3995 261.13 63.4302 268.57 63.4302Z" fill="#F0C5CB"/>
<path d="M321.96 65.4999C330.543 65.4999 337.5 58.5424 337.5 49.9599C337.5 41.3774 330.543 34.4199 321.96 34.4199C313.378 34.4199 306.42 41.3774 306.42 49.9599C306.42 58.5424 313.378 65.4999 321.96 65.4999Z" fill="#F0C5CB"/>
<path d="M375.35 66.5399C384.506 66.5399 391.93 59.1167 391.93 49.9598C391.93 40.803 384.506 33.3799 375.35 33.3799C366.193 33.3799 358.77 40.803 358.77 49.9598C358.77 59.1167 366.193 66.5399 375.35 66.5399Z" fill="#F0C5CB"/>
<path d="M428.74 65.65C437.405 65.65 444.43 58.6254 444.43 49.96C444.43 41.2947 437.405 34.27 428.74 34.27C420.075 34.27 413.05 41.2947 413.05 49.96C413.05 58.6254 420.075 65.65 428.74 65.65Z" fill="#F0C5CB"/>
<path d="M482.12 63.58C489.642 63.58 495.74 57.4821 495.74 49.96C495.74 42.4378 489.642 36.34 482.12 36.34C474.598 36.34 468.5 42.4378 468.5 49.96C468.5 57.4821 474.598 63.58 482.12 63.58Z" fill="#F0C5CB"/>
<path d="M1.63 104.98C2.53023 104.98 3.25998 104.25 3.25998 103.35C3.25998 102.45 2.53023 101.72 1.63 101.72C0.729781 101.72 0 102.45 0 103.35C0 104.25 0.729781 104.98 1.63 104.98Z" fill="#F0C5CB"/>
<path d="M55.0195 107.35C57.2287 107.35 59.0195 105.559 59.0195 103.35C59.0195 101.141 57.2287 99.3501 55.0195 99.3501C52.8104 99.3501 51.0195 101.141 51.0195 103.35C51.0195 105.559 52.8104 107.35 55.0195 107.35Z" fill="#F0C5CB"/>
<path d="M108.41 110.01C112.088 110.01 115.07 107.028 115.07 103.35C115.07 99.6717 112.088 96.6899 108.41 96.6899C104.732 96.6899 101.75 99.6717 101.75 103.35C101.75 107.028 104.732 110.01 108.41 110.01Z" fill="#F0C5CB"/>
<path d="M161.8 112.53C166.87 112.53 170.98 108.42 170.98 103.35C170.98 98.2799 166.87 94.1699 161.8 94.1699C156.73 94.1699 152.62 98.2799 152.62 103.35C152.62 108.42 156.73 112.53 161.8 112.53Z" fill="#F0C5CB"/>
<path d="M215.18 114.9C221.559 114.9 226.73 109.729 226.73 103.35C226.73 96.9711 221.559 91.8 215.18 91.8C208.801 91.8 203.63 96.9711 203.63 103.35C203.63 109.729 208.801 114.9 215.18 114.9Z" fill="#F0C5CB"/>
<path d="M268.57 117.41C276.335 117.41 282.63 111.115 282.63 103.35C282.63 95.5849 276.335 89.29 268.57 89.29C260.805 89.29 254.51 95.5849 254.51 103.35C254.51 111.115 260.805 117.41 268.57 117.41Z" fill="#F0C5CB"/>
<path d="M321.96 119.93C331.117 119.93 338.54 112.507 338.54 103.35C338.54 94.1932 331.117 86.77 321.96 86.77C312.803 86.77 305.38 94.1932 305.38 103.35C305.38 112.507 312.803 119.93 321.96 119.93Z" fill="#F0C5CB"/>
<path d="M375.35 121.56C385.407 121.56 393.56 113.407 393.56 103.35C393.56 93.2931 385.407 85.1401 375.35 85.1401C365.293 85.1401 357.14 93.2931 357.14 103.35C357.14 113.407 365.293 121.56 375.35 121.56Z" fill="#F0C5CB"/>
<path d="M428.74 120.08C437.98 120.08 445.47 112.59 445.47 103.35C445.47 94.1103 437.98 86.62 428.74 86.62C419.5 86.62 412.01 94.1103 412.01 103.35C412.01 112.59 419.5 120.08 428.74 120.08Z" fill="#F0C5CB"/>
<path d="M482.12 117.56C489.968 117.56 496.33 111.198 496.33 103.35C496.33 95.5019 489.968 89.1399 482.12 89.1399C474.272 89.1399 467.91 95.5019 467.91 103.35C467.91 111.198 474.272 117.56 482.12 117.56Z" fill="#F0C5CB"/>
<path d="M1.6304 158.22C2.44778 158.22 3.11038 157.557 3.11038 156.74C3.11038 155.922 2.44778 155.26 1.6304 155.26C0.81302 155.26 0.150391 155.922 0.150391 156.74C0.150391 157.557 0.81302 158.22 1.6304 158.22Z" fill="#F0C5CB"/>
<path d="M55.02 160.59C57.1463 160.59 58.87 158.866 58.87 156.74C58.87 154.614 57.1463 152.89 55.02 152.89C52.8937 152.89 51.17 154.614 51.17 156.74C51.17 158.866 52.8937 160.59 55.02 160.59Z" fill="#F0C5CB"/>
<path d="M108.41 163.11C111.928 163.11 114.78 160.258 114.78 156.74C114.78 153.222 111.928 150.37 108.41 150.37C104.892 150.37 102.04 153.222 102.04 156.74C102.04 160.258 104.892 163.11 108.41 163.11Z" fill="#F0C5CB"/>
<path d="M161.8 165.62C166.704 165.62 170.68 161.644 170.68 156.74C170.68 151.836 166.704 147.86 161.8 147.86C156.896 147.86 152.92 151.836 152.92 156.74C152.92 161.644 156.896 165.62 161.8 165.62Z" fill="#F0C5CB"/>
<path d="M215.18 167.99C221.393 167.99 226.43 162.953 226.43 156.74C226.43 150.527 221.393 145.49 215.18 145.49C208.966 145.49 203.93 150.527 203.93 156.74C203.93 162.953 208.966 167.99 215.18 167.99Z" fill="#F0C5CB"/>
<path d="M268.57 170.36C276.092 170.36 282.19 164.262 282.19 156.74C282.19 149.218 276.092 143.12 268.57 143.12C261.048 143.12 254.95 149.218 254.95 156.74C254.95 164.262 261.048 170.36 268.57 170.36Z" fill="#F0C5CB"/>
<path d="M321.96 172.43C330.625 172.43 337.65 165.405 337.65 156.74C337.65 148.075 330.625 141.05 321.96 141.05C313.294 141.05 306.27 148.075 306.27 156.74C306.27 165.405 313.294 172.43 321.96 172.43Z" fill="#F0C5CB"/>
<path d="M375.35 173.47C384.59 173.47 392.08 165.979 392.08 156.74C392.08 147.5 384.59 140.01 375.35 140.01C366.11 140.01 358.62 147.5 358.62 156.74C358.62 165.979 366.11 173.47 375.35 173.47Z" fill="#F0C5CB"/>
<path d="M428.74 172.43C437.405 172.43 444.43 165.405 444.43 156.74C444.43 148.075 437.405 141.05 428.74 141.05C420.075 141.05 413.05 148.075 413.05 156.74C413.05 165.405 420.075 172.43 428.74 172.43Z" fill="#F0C5CB"/>
<path d="M482.12 170.51C489.725 170.51 495.89 164.345 495.89 156.74C495.89 149.135 489.725 142.97 482.12 142.97C474.515 142.97 468.35 149.135 468.35 156.74C468.35 164.345 474.515 170.51 482.12 170.51Z" fill="#F0C5CB"/>
<path d="M1.62997 211.16C2.20435 211.16 2.66995 210.694 2.66995 210.12C2.66995 209.546 2.20435 209.08 1.62997 209.08C1.0556 209.08 0.589966 209.546 0.589966 210.12C0.589966 210.694 1.0556 211.16 1.62997 211.16Z" fill="#F0C5CB"/>
<path d="M55.02 213.38C56.8205 213.38 58.28 211.92 58.28 210.12C58.28 208.32 56.8205 206.86 55.02 206.86C53.2196 206.86 51.76 208.32 51.76 210.12C51.76 211.92 53.2196 213.38 55.02 213.38Z" fill="#F0C5CB"/>
<path d="M108.41 215.75C111.52 215.75 114.04 213.23 114.04 210.12C114.04 207.011 111.52 204.49 108.41 204.49C105.301 204.49 102.78 207.011 102.78 210.12C102.78 213.23 105.301 215.75 108.41 215.75Z" fill="#F0C5CB"/>
<path d="M161.8 218.11C166.212 218.11 169.79 214.533 169.79 210.12C169.79 205.707 166.212 202.13 161.8 202.13C157.387 202.13 153.81 205.707 153.81 210.12C153.81 214.533 157.387 218.11 161.8 218.11Z" fill="#F0C5CB"/>
<path d="M215.18 220.19C220.742 220.19 225.25 215.681 225.25 210.12C225.25 204.558 220.742 200.05 215.18 200.05C209.619 200.05 205.11 204.558 205.11 210.12C205.11 215.681 209.619 220.19 215.18 220.19Z" fill="#F0C5CB"/>
<path d="M268.57 222.26C275.274 222.26 280.71 216.825 280.71 210.12C280.71 203.415 275.274 197.98 268.57 197.98C261.865 197.98 256.43 203.415 256.43 210.12C256.43 216.825 261.865 222.26 268.57 222.26Z" fill="#F0C5CB"/>
<path d="M321.96 223.74C329.482 223.74 335.58 217.642 335.58 210.12C335.58 202.598 329.482 196.5 321.96 196.5C314.438 196.5 308.34 202.598 308.34 210.12C308.34 217.642 314.438 223.74 321.96 223.74Z" fill="#F0C5CB"/>
<path d="M375.35 224.33C383.198 224.33 389.56 217.968 389.56 210.12C389.56 202.272 383.198 195.91 375.35 195.91C367.502 195.91 361.14 202.272 361.14 210.12C361.14 217.968 367.502 224.33 375.35 224.33Z" fill="#F0C5CB"/>
<path d="M428.74 223.89C436.345 223.89 442.51 217.725 442.51 210.12C442.51 202.515 436.345 196.35 428.74 196.35C421.135 196.35 414.97 202.515 414.97 210.12C414.97 217.725 421.135 223.89 428.74 223.89Z" fill="#F0C5CB"/>
<path d="M482.12 222.41C488.908 222.41 494.41 216.908 494.41 210.12C494.41 203.332 488.908 197.83 482.12 197.83C475.332 197.83 469.83 203.332 469.83 210.12C469.83 216.908 475.332 222.41 482.12 222.41Z" fill="#F0C5CB"/>
<path d="M1.62997 263.81C1.79566 263.81 1.92996 263.676 1.92996 263.51C1.92996 263.344 1.79566 263.21 1.62997 263.21C1.46429 263.21 1.32996 263.344 1.32996 263.51C1.32996 263.676 1.46429 263.81 1.62997 263.81Z" fill="#F0C5CB"/>
<path d="M55.0204 265.88C56.3293 265.88 57.3904 264.819 57.3904 263.51C57.3904 262.201 56.3293 261.14 55.0204 261.14C53.7115 261.14 52.6504 262.201 52.6504 263.51C52.6504 264.819 53.7115 265.88 55.0204 265.88Z" fill="#F0C5CB"/>
<path d="M108.41 268.1C110.945 268.1 113 266.045 113 263.51C113 260.975 110.945 258.92 108.41 258.92C105.875 258.92 103.82 260.975 103.82 263.51C103.82 266.045 105.875 268.1 108.41 268.1Z" fill="#F0C5CB"/>
<path d="M161.8 270.17C165.478 270.17 168.46 267.188 168.46 263.51C168.46 259.832 165.478 256.85 161.8 256.85C158.121 256.85 155.14 259.832 155.14 263.51C155.14 267.188 158.121 270.17 161.8 270.17Z" fill="#F0C5CB"/>
<path d="M215.18 272.1C219.924 272.1 223.77 268.254 223.77 263.51C223.77 258.766 219.924 254.92 215.18 254.92C210.436 254.92 206.59 258.766 206.59 263.51C206.59 268.254 210.436 272.1 215.18 272.1Z" fill="#F0C5CB"/>
<path d="M268.57 273.73C274.214 273.73 278.79 269.154 278.79 263.51C278.79 257.866 274.214 253.29 268.57 253.29C262.925 253.29 258.35 257.866 258.35 263.51C258.35 269.154 262.925 273.73 268.57 273.73Z" fill="#F0C5CB"/>
<path d="M321.96 274.76C328.173 274.76 333.21 269.723 333.21 263.51C333.21 257.297 328.173 252.26 321.96 252.26C315.747 252.26 310.71 257.297 310.71 263.51C310.71 269.723 315.747 274.76 321.96 274.76Z" fill="#F0C5CB"/>
<path d="M375.35 275.35C381.889 275.35 387.19 270.049 387.19 263.51C387.19 256.971 381.889 251.67 375.35 251.67C368.811 251.67 363.51 256.971 363.51 263.51C363.51 270.049 368.811 275.35 375.35 275.35Z" fill="#F0C5CB"/>
<path d="M428.74 274.91C435.036 274.91 440.14 269.806 440.14 263.51C440.14 257.214 435.036 252.11 428.74 252.11C422.444 252.11 417.34 257.214 417.34 263.51C417.34 269.806 422.444 274.91 428.74 274.91Z" fill="#F0C5CB"/>
<path d="M482.12 273.73C487.765 273.73 492.34 269.154 492.34 263.51C492.34 257.866 487.765 253.29 482.12 253.29C476.476 253.29 471.9 257.866 471.9 263.51C471.9 269.154 476.476 273.73 482.12 273.73Z" fill="#F0C5CB"/>
<path d="M55.0198 318.08C55.6715 318.08 56.1998 317.551 56.1998 316.9C56.1998 316.248 55.6715 315.72 55.0198 315.72C54.3681 315.72 53.8398 316.248 53.8398 316.9C53.8398 317.551 54.3681 318.08 55.0198 318.08Z" fill="#F0C5CB"/>
<path d="M108.41 320.01C110.128 320.01 111.52 318.618 111.52 316.9C111.52 315.182 110.128 313.79 108.41 313.79C106.692 313.79 105.3 315.182 105.3 316.9C105.3 318.618 106.692 320.01 108.41 320.01Z" fill="#F0C5CB"/>
<path d="M161.8 321.93C164.578 321.93 166.83 319.678 166.83 316.9C166.83 314.122 164.578 311.87 161.8 311.87C159.022 311.87 156.77 314.122 156.77 316.9C156.77 319.678 159.022 321.93 161.8 321.93Z" fill="#F0C5CB"/>
<path d="M215.18 323.56C218.858 323.56 221.84 320.578 221.84 316.9C221.84 313.222 218.858 310.24 215.18 310.24C211.501 310.24 208.52 313.222 208.52 316.9C208.52 320.578 211.501 323.56 215.18 323.56Z" fill="#F0C5CB"/>
<path d="M268.57 324.89C272.983 324.89 276.56 321.313 276.56 316.9C276.56 312.487 272.983 308.91 268.57 308.91C264.157 308.91 260.58 312.487 260.58 316.9C260.58 321.313 264.157 324.89 268.57 324.89Z" fill="#F0C5CB"/>
<path d="M321.96 325.78C326.864 325.78 330.84 321.804 330.84 316.9C330.84 311.996 326.864 308.02 321.96 308.02C317.056 308.02 313.08 311.996 313.08 316.9C313.08 321.804 317.056 325.78 321.96 325.78Z" fill="#F0C5CB"/>
<path d="M375.35 326.23C380.502 326.23 384.68 322.053 384.68 316.9C384.68 311.747 380.502 307.57 375.35 307.57C370.197 307.57 366.02 311.747 366.02 316.9C366.02 322.053 370.197 326.23 375.35 326.23Z" fill="#F0C5CB"/>
<path d="M428.74 325.93C433.727 325.93 437.77 321.887 437.77 316.9C437.77 311.913 433.727 307.87 428.74 307.87C423.753 307.87 419.71 311.913 419.71 316.9C419.71 321.887 423.753 325.93 428.74 325.93Z" fill="#F0C5CB"/>
<path d="M482.12 325.04C486.616 325.04 490.26 321.395 490.26 316.9C490.26 312.404 486.616 308.76 482.12 308.76C477.625 308.76 473.98 312.404 473.98 316.9C473.98 321.395 477.625 325.04 482.12 325.04Z" fill="#F0C5CB"/>
<path d="M55.02 370.44C55.1028 370.44 55.17 370.373 55.17 370.29C55.17 370.207 55.1028 370.14 55.02 370.14C54.9371 370.14 54.87 370.207 54.87 370.29C54.87 370.373 54.9371 370.44 55.02 370.44Z" fill="#F0C5CB"/>
<path d="M108.41 371.77C109.227 371.77 109.89 371.107 109.89 370.29C109.89 369.473 109.227 368.81 108.41 368.81C107.592 368.81 106.93 369.473 106.93 370.29C106.93 371.107 107.592 371.77 108.41 371.77Z" fill="#F0C5CB"/>
<path d="M161.799 373.4C163.517 373.4 164.909 372.007 164.909 370.29C164.909 368.572 163.517 367.18 161.799 367.18C160.082 367.18 158.689 368.572 158.689 370.29C158.689 372.007 160.082 373.4 161.799 373.4Z" fill="#F0C5CB"/>
<path d="M215.18 374.88C217.715 374.88 219.77 372.825 219.77 370.29C219.77 367.755 217.715 365.7 215.18 365.7C212.645 365.7 210.59 367.755 210.59 370.29C210.59 372.825 212.645 374.88 215.18 374.88Z" fill="#F0C5CB"/>
<path d="M268.57 376.06C271.757 376.06 274.34 373.477 274.34 370.29C274.34 367.103 271.757 364.52 268.57 364.52C265.383 364.52 262.8 367.103 262.8 370.29C262.8 373.477 265.383 376.06 268.57 376.06Z" fill="#F0C5CB"/>
<path d="M321.96 376.8C325.556 376.8 328.47 373.886 328.47 370.29C328.47 366.695 325.556 363.78 321.96 363.78C318.365 363.78 315.45 366.695 315.45 370.29C315.45 373.886 318.365 376.8 321.96 376.8Z" fill="#F0C5CB"/>
<path d="M375.35 376.95C379.029 376.95 382.01 373.968 382.01 370.29C382.01 366.612 379.029 363.63 375.35 363.63C371.672 363.63 368.69 366.612 368.69 370.29C368.69 373.968 371.672 376.95 375.35 376.95Z" fill="#F0C5CB"/>
<path d="M428.74 376.8C432.336 376.8 435.25 373.886 435.25 370.29C435.25 366.695 432.336 363.78 428.74 363.78C425.145 363.78 422.23 366.695 422.23 370.29C422.23 373.886 425.145 376.8 428.74 376.8Z" fill="#F0C5CB"/>
<path d="M482.12 376.06C485.306 376.06 487.89 373.477 487.89 370.29C487.89 367.103 485.306 364.52 482.12 364.52C478.933 364.52 476.35 367.103 476.35 370.29C476.35 373.477 478.933 376.06 482.12 376.06Z" fill="#F0C5CB"/>
<path d="M108.41 423.83C108.493 423.83 108.56 423.763 108.56 423.68C108.56 423.597 108.493 423.53 108.41 423.53C108.327 423.53 108.26 423.597 108.26 423.68C108.26 423.763 108.327 423.83 108.41 423.83Z" fill="#F0C5CB"/>
<path d="M161.8 424.86C162.452 424.86 162.98 424.332 162.98 423.68C162.98 423.028 162.452 422.5 161.8 422.5C161.148 422.5 160.62 423.028 160.62 423.68C160.62 424.332 161.148 424.86 161.8 424.86Z" fill="#F0C5CB"/>
<path d="M215.18 426.05C216.489 426.05 217.55 424.989 217.55 423.68C217.55 422.371 216.489 421.31 215.18 421.31C213.871 421.31 212.81 422.371 212.81 423.68C212.81 424.989 213.871 426.05 215.18 426.05Z" fill="#F0C5CB"/>
<path d="M268.57 427.09C270.453 427.09 271.98 425.563 271.98 423.68C271.98 421.797 270.453 420.27 268.57 420.27C266.687 420.27 265.16 421.797 265.16 423.68C265.16 425.563 266.687 427.09 268.57 427.09Z" fill="#F0C5CB"/>
<path d="M321.96 427.68C324.169 427.68 325.96 425.889 325.96 423.68C325.96 421.471 324.169 419.68 321.96 419.68C319.751 419.68 317.96 421.471 317.96 423.68C317.96 425.889 319.751 427.68 321.96 427.68Z" fill="#F0C5CB"/>
<path d="M375.35 427.97C377.719 427.97 379.64 426.049 379.64 423.68C379.64 421.311 377.719 419.39 375.35 419.39C372.98 419.39 371.06 421.311 371.06 423.68C371.06 426.049 372.98 427.97 375.35 427.97Z" fill="#F0C5CB"/>
<path d="M428.74 427.68C430.949 427.68 432.74 425.889 432.74 423.68C432.74 421.471 430.949 419.68 428.74 419.68C426.531 419.68 424.74 421.471 424.74 423.68C424.74 425.889 426.531 427.68 428.74 427.68Z" fill="#F0C5CB"/>
<path d="M482.12 427.09C484.003 427.09 485.53 425.563 485.53 423.68C485.53 421.797 484.003 420.27 482.12 420.27C480.237 420.27 478.71 421.797 478.71 423.68C478.71 425.563 480.237 427.09 482.12 427.09Z" fill="#F0C5CB"/>
<path d="M215.18 477.5C215.423 477.5 215.62 477.303 215.62 477.06C215.62 476.817 215.423 476.62 215.18 476.62C214.937 476.62 214.74 476.817 214.74 477.06C214.74 477.303 214.937 477.5 215.18 477.5Z" fill="#F0C5CB"/>
<path d="M268.57 478.1C269.145 478.1 269.61 477.634 269.61 477.06C269.61 476.486 269.145 476.02 268.57 476.02C267.996 476.02 267.53 476.486 267.53 477.06C267.53 477.634 267.996 478.1 268.57 478.1Z" fill="#F0C5CB"/>
<path d="M321.96 478.69C322.86 478.69 323.59 477.96 323.59 477.06C323.59 476.159 322.86 475.43 321.96 475.43C321.06 475.43 320.33 476.159 320.33 477.06C320.33 477.96 321.06 478.69 321.96 478.69Z" fill="#F0C5CB"/>
<path d="M375.35 478.84C376.333 478.84 377.13 478.043 377.13 477.06C377.13 476.077 376.333 475.28 375.35 475.28C374.367 475.28 373.57 476.077 373.57 477.06C373.57 478.043 374.367 478.84 375.35 478.84Z" fill="#F0C5CB"/>
<path d="M428.74 478.69C429.641 478.69 430.37 477.96 430.37 477.06C430.37 476.159 429.641 475.43 428.74 475.43C427.84 475.43 427.11 476.159 427.11 477.06C427.11 477.96 427.84 478.69 428.74 478.69Z" fill="#F0C5CB"/>
<path d="M482.12 478.1C482.694 478.1 483.16 477.634 483.16 477.06C483.16 476.486 482.694 476.02 482.12 476.02C481.546 476.02 481.08 476.486 481.08 477.06C481.08 477.634 481.546 478.1 482.12 478.1Z" fill="#F0C5CB"/>
</g>
</svg>
