<svg width="295" height="370" viewBox="0 0 295 370" fill="none" xmlns="http://www.w3.org/2000/svg">
<g opacity="0.25">
<path d="M127.594 321.527H-42V318.838H127.594C191.392 318.838 243.293 266.937 243.293 203.139V-62H245.982V203.139C245.982 268.419 192.874 321.527 127.594 321.527Z" fill="#C1152E"/>
<path d="M127.594 345.716H-42V343.027H127.594C164.959 343.027 200.084 328.476 226.508 302.058C252.927 275.634 267.478 240.509 267.478 203.144V-61.9952H270.166V203.144C270.166 241.228 255.335 277.029 228.404 303.959C201.474 330.885 165.673 345.716 127.594 345.716Z" fill="#C1152E"/>
<path d="M127.594 369.9H-42V367.212H127.594C171.416 367.212 212.618 350.146 243.607 319.157C274.596 288.168 291.662 246.966 291.662 203.144V-61.9952H294.35V203.144C294.35 247.685 277.005 289.562 245.509 321.058C214.008 352.554 172.135 369.9 127.594 369.9Z" fill="#C1152E"/>
<path d="M127.594 297.342H-42V294.654H127.594C152.034 294.654 175.021 285.137 192.304 267.849C209.592 250.562 219.109 227.584 219.109 203.139V-62H221.797V203.139C221.797 228.298 212 251.956 194.206 269.751C176.411 287.545 152.753 297.342 127.594 297.342Z" fill="#C1152E"/>
<path d="M127.594 273.158H-42V270.47H127.594C145.577 270.47 162.488 263.467 175.205 250.75C187.922 238.033 194.925 221.122 194.925 203.139V-62H197.613V203.139C197.613 221.841 190.33 239.423 177.106 252.651C163.878 265.875 146.296 273.158 127.594 273.158Z" fill="#C1152E"/>
</g>
</svg>
