<svg width="32" height="32" viewBox="0 0 32 32" fill="none" xmlns="http://www.w3.org/2000/svg">
  <path d="M12.3327 16.4998C12.166 16.4998 11.9993 16.4332 11.866 16.2998L8.86602 13.2998C8.59935 13.0332 8.59935 12.6332 8.86602 12.3665C9.13268 12.0998 9.53268 12.0998 9.79935 12.3665L12.3327 14.8998L16.866 10.3665C17.1327 10.0998 17.5327 10.0998 17.7993 10.3665C18.066 10.6332 18.066 11.0332 17.7993 11.2998L12.7993 16.2998C12.666 16.4332 12.4993 16.4998 12.3327 16.4998Z" fill="#e9e9ee" />
  <path d="M21.333 23.3333H5.33301C4.23301 23.3333 3.33301 22.4333 3.33301 21.3333V5.33325C3.33301 4.23325 4.23301 3.33325 5.33301 3.33325H21.333C22.433 3.33325 23.333 4.23325 23.333 5.33325V21.3333C23.333 22.4333 22.433 23.3333 21.333 23.3333ZM5.33301 4.66659C4.96634 4.66659 4.66634 4.96659 4.66634 5.33325V21.3333C4.66634 21.6999 4.96634 21.9999 5.33301 21.9999H21.333C21.6997 21.9999 21.9997 21.6999 21.9997 21.3333V5.33325C21.9997 4.96659 21.6997 4.66659 21.333 4.66659H5.33301Z" fill="#e9e9ee" />
  <path d="M26.666 28.6667H9.33268C8.96602 28.6667 8.66602 28.3667 8.66602 28C8.66602 27.6333 8.96602 27.3333 9.33268 27.3333H26.666C27.0327 27.3333 27.3327 27.0333 27.3327 26.6667V6.66667C27.3327 6.3 27.6327 6 27.9993 6C28.366 6 28.666 6.3 28.666 6.66667V26.6667C28.666 27.7667 27.766 28.6667 26.666 28.6667Z" fill="#e9e9ee" />
</svg>