<svg width="709" height="652" viewBox="0 0 709 652" fill="none" xmlns="http://www.w3.org/2000/svg">
<g clip-path="url(#clip0_136_8569)">
<path d="M56.2014 288.243C95.3382 267.136 134.231 279.026 134.231 279.026C106.404 304.343 56.2014 288.243 56.2014 288.243Z" fill="#525076"/>
<path d="M179.976 249.999C187.676 276.179 175.414 299.46 175.414 299.46C163.69 279.975 179.976 249.999 179.976 249.999Z" fill="#525076"/>
<path d="M175.66 311.782C146.574 326.889 116.365 317.965 116.365 317.965C136.64 299.702 175.66 311.782 175.66 311.782Z" fill="#525076"/>
<path d="M156.686 287.643C133.828 269.399 114.99 254.996 114.611 255.472C114.231 255.947 132.453 271.122 155.311 289.365C178.169 307.608 197.007 322.012 197.387 321.536C197.766 321.06 179.544 305.886 156.686 287.643Z" fill="#525076"/>
<path d="M54.084 219.18C54.084 219.18 104.734 221.898 123.23 263.27C123.23 263.27 79.9813 261.548 54.084 219.18Z" fill="#525076"/>
<path d="M124.642 203.908C124.642 203.908 163.689 236.282 153.878 280.525C153.878 280.525 120.179 253.363 124.642 203.908Z" fill="#525076"/>
<path d="M683.758 187.222C637.776 178.024 602.23 202.025 602.23 202.025C638.11 218.961 683.758 187.222 683.758 187.222Z" fill="#525076"/>
<path d="M547.141 186.884C547.461 215.66 567.017 235.35 567.017 235.35C572.82 212.08 547.141 186.884 547.141 186.884Z" fill="#525076"/>
<path d="M570.572 247.851C604.567 254.104 632.272 235.774 632.272 235.774C606.187 223.619 570.572 247.851 570.572 247.851Z" fill="#525076"/>
<path d="M614.742 172.224C614.212 171.862 599.664 192.204 582.253 217.655C564.835 243.115 551.149 264.039 551.679 264.402C552.207 264.764 566.753 244.426 584.171 218.966C601.582 193.516 615.27 172.586 614.742 172.224Z" fill="#525076"/>
<path d="M664.566 116.931C664.566 116.931 614.332 135.312 608.459 182.743C608.459 182.743 651.538 167.648 664.566 116.931Z" fill="#525076"/>
<path d="M588.703 123.319C588.703 123.319 559.328 168.022 582.885 209.605C582.885 209.605 608.475 171.808 588.703 123.319Z" fill="#525076"/>
<path d="M540.244 95.4544C507.981 89.0009 483.043 105.84 483.043 105.84C508.216 117.724 540.244 95.4544 540.244 95.4544Z" fill="#525076"/>
<path d="M444.391 95.2168C444.615 115.407 458.336 129.221 458.336 129.221C462.408 112.895 444.391 95.2168 444.391 95.2168Z" fill="#525076"/>
<path d="M460.83 137.993C484.681 142.379 504.12 129.52 504.12 129.52C485.82 120.991 460.83 137.993 460.83 137.993Z" fill="#525076"/>
<path d="M470.388 117.759C482.607 99.9005 492.211 85.2172 491.839 84.9627C491.467 84.7082 481.26 98.9789 469.041 116.837C456.821 134.695 447.217 149.379 447.589 149.633C447.961 149.888 458.168 135.617 470.388 117.759Z" fill="#525076"/>
<path d="M526.78 46.1362C526.78 46.1362 491.536 59.0334 487.414 92.3116C487.414 92.3116 517.638 81.7213 526.78 46.1362Z" fill="#525076"/>
<path d="M473.552 50.6187C473.552 50.6187 452.941 81.9822 469.47 111.159C469.47 111.159 487.424 84.6398 473.552 50.6187Z" fill="#525076"/>
<path d="M39.0721 110.038L31.8848 179.583L118.872 188.573L126.06 119.028L39.0721 110.038Z" fill="#F5F5F5"/>
<path d="M35.3371 175.517L116.213 183.875L122.495 123.087L41.6194 114.729L35.3371 175.517Z" fill="#9C9AB0"/>
<path d="M35.3359 175.516L67.489 140.649L82.5434 166.098L95.7181 154.686L116.212 183.874L35.3359 175.516Z" fill="#525076"/>
<path d="M86.527 144.341C90.0628 144.341 92.9291 141.474 92.9291 137.939C92.9291 134.403 90.0628 131.536 86.527 131.536C82.9913 131.536 80.125 134.403 80.125 137.939C80.125 141.474 82.9913 144.341 86.527 144.341Z" fill="#525076"/>
<path d="M575.889 455.146L568.553 505.1L631.037 514.277L638.374 464.322L575.889 455.146Z" fill="#F5F5F5"/>
<path d="M571.148 502.272L629.242 510.803L635.654 467.139L577.56 458.607L571.148 502.272Z" fill="#9C9AB0"/>
<path d="M571.158 502.279L595.435 478.118L605.51 496.944L615.369 489.119L629.252 510.81L571.158 502.279Z" fill="#525076"/>
<path d="M609.254 481.374C611.808 481.374 613.878 479.304 613.878 476.75C613.878 474.197 611.808 472.127 609.254 472.127C606.701 472.127 604.631 474.197 604.631 476.75C604.631 479.304 606.701 481.374 609.254 481.374Z" fill="#525076"/>
<path d="M56.4238 407.977L80.1541 452.545L135.9 422.862L112.17 378.295L56.4238 407.977Z" fill="#F5F5F5"/>
<path d="M80.5535 448.724L132.383 421.127L111.64 382.171L59.8111 409.768L80.5535 448.724Z" fill="#9C9AB0"/>
<path d="M80.5722 448.731L85.7809 414.879L105.062 424.057L108.354 411.909L132.4 421.135L80.5722 448.731Z" fill="#525076"/>
<path d="M96.0944 410.204C98.648 410.204 100.718 408.134 100.718 405.58C100.718 403.027 98.648 400.957 96.0944 400.957C93.5408 400.957 91.4707 403.027 91.4707 405.58C91.4707 408.134 93.5408 410.204 96.0944 410.204Z" fill="#525076"/>
<path d="M709.427 625.601C709.427 625.84 554.09 626.033 362.516 626.033C170.876 626.033 15.5723 625.839 15.5723 625.601C15.5723 625.363 170.876 625.169 362.516 625.169C554.09 625.167 709.427 625.362 709.427 625.601Z" fill="#263238"/>
<path d="M95.1465 304.915L115.963 346.504L208.108 423.96L230.761 394.46L140.288 318.935L95.1465 304.915Z" fill="#C1152E"/>
<g opacity="0.7">
<path d="M140.288 318.936C140.105 320.777 138.593 322.138 136.826 321.588C138.854 324.36 138.892 328.432 136.914 331.241C134.936 334.05 131.091 335.388 127.796 334.412C128.677 337.695 127.662 341.416 125.239 343.797C122.815 346.179 119.078 347.13 115.81 346.192L95.1465 304.917L140.288 318.936Z" fill="#BCBBCA"/>
</g>
<path d="M103.518 321.641C103.518 321.641 112.298 323.145 113.641 310.66L95.1465 304.917L103.518 321.641Z" fill="#C1152E"/>
<g opacity="0.3">
<path d="M127.797 334.41L218.532 409.518L208.108 423.96L115.963 346.504L115.811 346.192C115.811 346.192 117.7 346.845 120.05 346.426C121.624 346.147 123.494 345.409 125.036 343.985C127.022 342.153 127.862 339.891 128.068 338.012C128.291 335.987 127.797 334.41 127.797 334.41Z" fill="black"/>
</g>
<g opacity="0.3">
<path d="M136.826 321.588L227.856 398.242L230.761 394.46L140.288 318.935C140.288 318.935 140.132 321.619 137.503 321.719C137.293 321.727 137.069 321.636 136.826 321.588Z" fill="black"/>
</g>
<path d="M117.766 332.324C117.781 332.304 117.848 332.525 118.187 332.613C118.496 332.703 119.127 332.585 119.357 331.945C119.58 331.342 119.523 330.484 119.254 329.605C119.104 329.17 118.848 328.726 118.426 328.422C118.017 328.116 117.434 327.951 116.907 328.168C116.375 328.37 116.008 328.907 115.792 329.495C115.569 330.09 115.494 330.76 115.449 331.452C115.378 332.828 115.516 334.349 116.068 335.791C116.355 336.491 116.841 337.187 117.588 337.438C118.326 337.692 119.199 337.448 119.829 336.936C121.099 335.843 121.521 333.956 121.577 332.208C121.634 328.616 119.57 325.252 116.792 323.906C116.093 323.597 115.305 323.607 114.672 323.958C114.032 324.29 113.548 324.84 113.156 325.402C112.393 326.555 111.889 327.767 111.559 328.899C110.899 331.179 110.955 333.14 111.102 334.448C111.188 335.106 111.286 335.612 111.366 335.952C111.447 336.291 111.479 336.474 111.479 336.474C111.479 336.474 111.206 335.783 111.002 334.462C110.824 333.147 110.736 331.166 111.383 328.849C111.707 327.697 112.204 326.469 112.978 325.281C113.379 324.701 113.876 324.122 114.565 323.757C115.245 323.371 116.139 323.356 116.882 323.687C119.787 325.085 121.885 328.517 121.835 332.211C121.825 333.132 121.669 334.036 121.398 334.894C121.119 335.741 120.683 336.566 119.987 337.134C119.3 337.689 118.35 337.962 117.507 337.674C116.658 337.383 116.143 336.614 115.847 335.884C115.28 334.38 115.154 332.848 115.235 331.442C115.287 330.74 115.366 330.052 115.606 329.427C115.837 328.814 116.236 328.226 116.842 328C117.444 327.762 118.092 327.96 118.526 328.292C118.978 328.626 119.244 329.107 119.392 329.56C119.656 330.479 119.701 331.339 119.452 331.985C119.189 332.667 118.493 332.781 118.173 332.665C117.814 332.549 117.765 332.309 117.766 332.324Z" fill="#BCBBCA"/>
<path d="M121.513 313.515C121.543 313.525 121.312 314.007 121.133 314.935C120.946 315.859 120.903 317.25 121.259 318.904C121.595 320.564 122.372 322.434 123.336 324.46C124.264 326.489 125.392 328.764 125.67 331.394C125.944 334.01 125.344 336.539 124.284 338.54C123.227 340.559 121.699 342.012 120.288 342.964C118.862 343.92 117.538 344.389 116.62 344.633C115.696 344.874 115.166 344.902 115.166 344.902C115.164 344.894 115.292 344.861 115.537 344.809C115.781 344.759 116.14 344.673 116.592 344.537C117.494 344.264 118.793 343.774 120.185 342.813C121.565 341.854 123.049 340.415 124.073 338.429C125.1 336.461 125.682 333.98 125.412 331.42C125.143 328.852 124.036 326.597 123.119 324.559C122.168 322.527 121.395 320.625 121.078 318.94C120.74 317.26 120.814 315.846 121.033 314.915C121.247 313.979 121.513 313.515 121.513 313.515Z" fill="#BCBBCA"/>
<path d="M131.949 316.178C132.013 316.218 130.823 316.622 130.247 318.297C129.69 319.926 129.618 322.372 129.672 325.008C129.756 327.659 130.142 330.037 130.519 331.733C130.702 332.582 130.883 333.263 131.005 333.734C131.133 334.204 131.196 334.465 131.179 334.472C131.162 334.477 131.066 334.224 130.908 333.762C130.757 333.298 130.549 332.622 130.341 331.773C129.916 330.079 129.499 327.686 129.412 325.015C129.366 323.682 129.404 322.409 129.499 321.255C129.589 320.104 129.751 319.058 130.076 318.231C130.388 317.396 130.885 316.833 131.277 316.539C131.679 316.249 131.949 316.178 131.949 316.178Z" fill="#BCBBCA"/>
<path d="M135.922 332.348C135.892 332.359 135.616 331.844 135.257 330.965C134.913 330.091 134.461 328.804 134.556 327.32C134.622 325.829 135.42 324.591 136.223 324.052C136.618 323.77 136.989 323.625 137.25 323.561C137.513 323.496 137.662 323.499 137.664 323.512C137.68 323.562 137.064 323.619 136.334 324.197C135.598 324.752 134.88 325.912 134.815 327.337C134.724 328.754 135.131 330.017 135.43 330.9C135.741 331.787 135.959 332.333 135.922 332.348Z" fill="#BCBBCA"/>
<path d="M115.494 311.142C115.503 311.139 115.538 311.207 115.594 311.342C115.651 311.474 115.734 311.672 115.828 311.933C115.918 312.192 116.028 312.527 116.02 312.934C116.018 313.341 115.857 313.79 115.631 314.227C115.197 315.124 114.474 316.065 113.782 317.155C113.088 318.247 112.433 319.514 111.86 320.893C110.713 323.657 110.078 326.309 109.613 328.216C109.416 329.045 109.239 329.795 109.077 330.483C108.949 331.018 108.871 331.312 108.853 331.309C108.836 331.305 108.881 331.005 108.979 330.463C109.077 329.921 109.229 329.14 109.435 328.176C109.854 326.256 110.463 323.585 111.62 320.795C112.199 319.404 112.868 318.124 113.581 317.027C114.294 315.93 115.022 315.013 115.468 314.144C115.996 313.296 115.92 312.477 115.732 311.963C115.572 311.441 115.476 311.149 115.494 311.142Z" fill="#BCBBCA"/>
<path d="M306.341 327.074L226.542 367.735L161.262 239.62L241.059 198.959C247.983 195.43 256.454 198.184 259.983 205.106L312.487 308.149C316.017 315.074 313.265 323.546 306.341 327.074Z" fill="#455A64"/>
<path d="M233.478 364.437C233.376 364.489 218.729 335.947 200.768 300.695C182.8 265.43 168.319 236.811 168.42 236.759C168.522 236.708 183.166 265.244 201.134 300.509C219.096 335.76 233.579 364.386 233.478 364.437Z" fill="#263238"/>
<path d="M269.425 327.588C283.104 320.619 294.15 314.886 294.099 314.785C294.047 314.683 282.916 320.251 269.238 327.221C255.559 334.191 244.513 339.923 244.564 340.024C244.616 340.126 255.747 334.558 269.425 327.588Z" fill="#BCBBCA"/>
<path d="M272.097 332.149C282.248 326.977 290.434 322.702 290.382 322.6C290.331 322.499 282.06 326.61 271.91 331.782C261.76 336.954 253.573 341.228 253.625 341.33C253.677 341.431 261.947 337.321 272.097 332.149Z" fill="#BCBBCA"/>
<path d="M200.544 247.076L202.918 245.96C204.033 245.435 204.918 245.223 205.573 245.322C206.228 245.421 206.725 245.831 207.064 246.551C207.298 247.05 207.352 247.527 207.225 247.985C207.101 248.436 206.795 248.835 206.307 249.181L206.334 249.239C207.713 248.857 208.666 249.228 209.194 250.351C209.547 251.102 209.568 251.808 209.257 252.469C208.949 253.129 208.339 253.673 207.427 254.102L204.495 255.48L200.544 247.076ZM203.213 250.215L204.823 249.458C205.512 249.134 205.958 248.793 206.16 248.436C206.36 248.075 206.339 247.638 206.098 247.125C205.876 246.653 205.548 246.393 205.114 246.345C204.677 246.293 204.091 246.44 203.356 246.786L201.918 247.461L203.213 250.215ZM203.602 251.043L205.081 254.187L206.834 253.363C207.512 253.044 207.961 252.674 208.179 252.253C208.4 251.826 208.379 251.333 208.116 250.774C207.87 250.253 207.514 249.952 207.046 249.873C206.582 249.791 205.992 249.919 205.275 250.256L203.602 251.043ZM215.94 246.246C216.423 247.273 216.542 248.197 216.296 249.019C216.049 249.837 215.47 250.461 214.557 250.89C213.994 251.154 213.432 251.257 212.871 251.198C212.309 251.139 211.794 250.919 211.324 250.536C210.854 250.153 210.463 249.63 210.151 248.967C209.668 247.94 209.549 247.021 209.794 246.208C210.038 245.392 210.615 244.769 211.527 244.34C212.409 243.926 213.246 243.89 214.039 244.233C214.836 244.575 215.47 245.245 215.94 246.246ZM211.14 248.503C211.518 249.307 211.967 249.845 212.488 250.115C213.008 250.385 213.58 250.373 214.205 250.08C214.829 249.786 215.205 249.355 215.33 248.786C215.458 248.211 215.331 247.519 214.951 246.711C214.575 245.91 214.126 245.379 213.606 245.118C213.087 244.852 212.512 244.867 211.88 245.164C211.255 245.458 210.88 245.885 210.755 246.444C210.63 247.004 210.758 247.69 211.14 248.503ZM223.057 242.9C223.539 243.927 223.658 244.851 223.413 245.673C223.166 246.491 222.586 247.115 221.674 247.544C221.111 247.808 220.549 247.911 219.987 247.852C219.426 247.793 218.91 247.573 218.44 247.19C217.97 246.807 217.579 246.284 217.268 245.621C216.785 244.594 216.666 243.675 216.911 242.862C217.154 242.046 217.732 241.423 218.644 240.994C219.525 240.58 220.363 240.544 221.156 240.887C221.953 241.229 222.586 241.899 223.057 242.9ZM218.257 245.156C218.635 245.961 219.084 246.499 219.604 246.769C220.124 247.039 220.697 247.027 221.321 246.734C221.946 246.44 222.321 246.009 222.447 245.44C222.574 244.865 222.448 244.173 222.068 243.365C221.691 242.564 221.243 242.033 220.722 241.772C220.204 241.506 219.629 241.521 218.996 241.818C218.372 242.112 217.997 242.539 217.871 243.098C217.746 243.658 217.875 244.344 218.257 245.156ZM225.645 241.598C225.7 241.287 225.807 240.862 225.966 240.324L226.987 237.212L228.12 236.68L226.83 240.564L231.26 242.896L230.105 243.439L226.48 241.508L226.054 242.466L227.162 244.823L226.219 245.266L222.013 236.322L222.956 235.878L225.186 240.621C225.285 240.832 225.423 241.165 225.599 241.62L225.645 241.598Z" fill="#23214C"/>
<path d="M627.422 408.522L623.646 417.995C623.646 417.995 568.652 376.037 526.241 379.603C524.313 381.139 521.502 381.654 518.753 380.973L502.959 377.06C499.564 376.148 496.94 373.585 496.36 370.613C496.36 370.613 464.343 344.159 420.95 348.271L404.783 348.951L473.196 235.624L659.907 265.721L627.422 408.522Z" fill="#455A64"/>
<path d="M641.841 398.209L635.554 415.436C635.554 415.436 584.045 364.868 512.141 376.005L555.235 297.605C555.235 297.605 642.967 378.988 641.841 398.209Z" fill="#9C9AB0"/>
<path d="M694.769 276.159C694.769 276.159 636.406 205.04 559.145 252.246L512.139 376.007C512.139 376.007 598.149 341.498 647.472 404.214L694.769 276.159Z" fill="#BCBBCA"/>
<path d="M694.769 276.159C694.769 276.159 694.513 276.95 693.96 278.494C693.393 280.061 692.565 282.348 691.49 285.326C689.293 291.341 686.085 300.125 682 311.31C673.755 333.752 661.98 365.804 647.821 404.342L647.593 404.962L647.184 404.443C640.621 396.128 632.408 388.453 622.678 382.271C612.916 376.151 601.622 371.69 589.538 369.285C577.449 366.905 564.638 366.372 551.713 367.617C545.247 368.217 538.747 369.234 532.269 370.652C525.795 372.069 519.31 373.828 512.986 376.148C512.757 376.236 512.526 376.324 512.301 376.409L511.392 376.756L511.735 375.854C528.838 330.873 544.937 288.537 558.788 252.111L558.834 251.988L558.946 251.92C568.569 246.037 578.59 241.655 588.554 239.011C598.514 236.347 608.375 235.431 617.561 235.917C626.762 236.367 635.256 238.273 642.797 240.829C650.351 243.386 656.98 246.582 662.716 249.876C674.189 256.512 682.135 263.381 687.293 268.237C689.873 270.681 691.739 272.67 692.968 274.035C693.584 274.716 694.036 275.246 694.334 275.605C694.633 275.959 694.769 276.159 694.769 276.159C694.769 276.159 694.605 275.991 694.289 275.643C693.958 275.284 693.491 274.777 692.879 274.114C691.623 272.778 689.732 270.82 687.131 268.409C681.93 263.617 673.956 256.82 662.493 250.265C656.763 247.012 650.148 243.858 642.626 241.345C635.115 238.83 626.669 236.964 617.529 236.543C608.405 236.086 598.621 237.02 588.739 239.688C578.851 242.335 568.904 246.705 559.346 252.57L559.504 252.38C545.681 288.816 529.616 331.166 512.546 376.159L511.981 375.604C512.212 375.516 512.448 375.427 512.682 375.337C519.069 372.995 525.574 371.233 532.084 369.807C538.596 368.385 545.129 367.363 551.631 366.763C564.628 365.516 577.522 366.059 589.699 368.469C601.872 370.903 613.261 375.413 623.097 381.599C632.901 387.848 641.17 395.602 647.763 403.986L647.126 404.086C661.395 365.659 673.26 333.7 681.57 311.322C685.743 300.145 689.022 291.366 691.266 285.356C692.391 282.374 693.253 280.083 693.847 278.514C694.435 276.963 694.769 276.159 694.769 276.159Z" fill="#263238"/>
<path d="M511.412 375.782C511.412 375.782 459.547 321.596 401.949 342.055L452.875 231.672L557.526 256.51L511.412 375.782Z" fill="#F5F5F5"/>
<path d="M511.717 377.301L510.812 376.357C510.295 375.819 458.656 322.798 402.227 342.838L400.369 343.498L452.406 230.706L453.066 230.864L558.645 255.922L558.302 256.811L511.717 377.301ZM428.547 336.654C470.519 336.654 505.1 368.451 511.097 374.295L556.408 257.099L453.344 232.638L403.519 340.641C412.03 337.847 420.431 336.654 428.547 336.654Z" fill="#263238"/>
<path d="M559.146 252.246C559.146 252.246 548.642 203.911 500.765 192.555L469.835 186.115L416.029 296.179C416.029 296.179 493.334 312.955 512.236 375.254L559.146 252.246Z" fill="#BCBBCA"/>
<path d="M559.146 252.246C559.146 252.246 559.092 252.44 558.958 252.823C558.812 253.226 558.607 253.788 558.341 254.521C557.775 256.043 556.95 258.257 555.878 261.137C553.686 266.954 550.49 275.436 546.43 286.21C538.231 307.816 526.552 338.597 512.593 375.39L512.199 376.427L511.873 375.365C509.306 366.979 505.367 358.632 500.111 350.772C498.848 348.773 497.339 346.918 495.935 344.972C494.379 343.141 492.932 341.193 491.24 339.429C488.019 335.758 484.381 332.374 480.605 329.068C465.311 316.008 446.203 305.963 425.458 299.267C422.288 298.262 419.092 297.339 415.939 296.605L415.404 296.48L415.644 295.991C435.441 255.547 453.876 217.886 469.507 185.955L469.634 185.698L469.913 185.756C478.702 187.597 487.118 189.361 495.119 191.038C503.16 192.45 510.659 194.922 517.203 198.141C530.325 204.729 539.466 214.163 545.451 222.664C551.512 231.208 554.751 238.842 556.701 244.054C557.663 246.676 558.276 248.729 558.654 250.12C559.026 251.51 559.146 252.246 559.146 252.246C559.146 252.246 559.086 252.071 558.989 251.717C558.883 251.343 558.734 250.825 558.541 250.15C558.129 248.772 557.482 246.735 556.488 244.132C554.477 238.958 551.185 231.376 545.1 222.911C539.092 214.485 529.969 205.165 516.934 198.678C510.403 195.503 503.042 193.094 494.971 191.694C486.967 190.037 478.549 188.295 469.758 186.475L470.164 186.278C454.568 218.225 436.173 255.906 416.416 296.37L416.121 295.759C419.33 296.505 422.524 297.429 425.717 298.441C436.158 301.792 446.146 306.015 455.472 311.031C464.807 316.023 473.46 321.859 481.146 328.432C484.946 331.764 488.605 335.175 491.848 338.879C493.55 340.658 495.009 342.624 496.573 344.47C497.987 346.435 499.505 348.308 500.778 350.324C506.066 358.256 510.027 366.683 512.6 375.144L511.882 375.119C525.952 338.409 537.724 307.698 545.986 286.142C550.136 275.389 553.402 266.923 555.642 261.116C556.764 258.242 557.627 256.032 558.22 254.513C558.512 253.781 558.735 253.221 558.896 252.819C559.051 252.437 559.146 252.246 559.146 252.246Z" fill="#263238"/>
<path d="M481.369 210.98C481.328 211.371 486.244 212.188 493.771 214.774C501.288 217.329 511.327 222.041 520.741 229.217C530.122 236.432 536.774 244.502 540.648 250.67C544.559 256.843 546.121 260.986 546.56 260.9C546.728 260.87 546.463 259.818 545.833 257.921C545.25 256.018 544.04 253.319 542.243 250.085C538.69 243.61 532.025 235.101 522.324 227.645C512.595 220.222 502.056 215.559 494.232 213.32C490.319 212.183 487.092 211.485 484.851 211.226C482.614 210.923 481.383 210.83 481.369 210.98Z" fill="#525076"/>
<path d="M473.194 222.769C473.152 223.159 478.068 223.977 485.595 226.563C493.113 229.117 503.151 233.829 512.565 241.006C521.945 248.22 528.598 256.291 532.472 262.459C536.385 268.631 537.945 272.775 538.384 272.688C538.553 272.658 538.289 271.606 537.658 269.71C537.074 267.807 535.864 265.108 534.068 261.874C530.514 255.399 523.85 246.889 514.149 239.433C504.419 232.011 493.881 227.347 486.056 225.109C482.144 223.972 478.916 223.274 476.676 223.014C474.438 222.712 473.207 222.619 473.194 222.769Z" fill="#525076"/>
<path d="M467.573 236.724C467.531 237.115 472.447 237.931 479.974 240.519C487.492 243.073 497.53 247.785 506.944 254.961C516.324 262.176 522.977 270.247 526.851 276.416C530.763 282.589 532.324 286.731 532.763 286.644C532.932 286.614 532.668 285.561 532.037 283.666C531.453 281.763 530.243 279.064 528.447 275.83C524.893 269.354 518.229 260.845 508.529 253.389C498.8 245.967 488.261 241.303 480.436 239.064C476.524 237.929 473.296 237.23 471.056 236.97C468.817 236.668 467.584 236.575 467.573 236.724Z" fill="#525076"/>
<path d="M459.944 248.889C459.902 249.279 464.817 250.097 472.345 252.683C479.863 255.237 489.901 259.949 499.315 267.126C508.695 274.34 515.348 282.411 519.222 288.58C523.134 294.753 524.695 298.895 525.134 298.808C525.303 298.778 525.039 297.725 524.408 295.83C523.824 293.927 522.614 291.228 520.818 287.994C517.264 281.519 510.6 273.009 500.899 265.553C491.169 258.131 480.63 253.467 472.806 251.229C468.893 250.093 465.666 249.394 463.425 249.134C461.188 248.832 459.957 248.739 459.944 248.889Z" fill="#525076"/>
<path d="M451.6 261.609C451.558 262 456.473 262.818 464.002 265.404C471.521 267.958 481.559 272.67 490.973 279.847C500.355 287.061 507.006 295.132 510.88 301.3C514.791 307.472 516.353 311.616 516.792 311.529C516.961 311.499 516.697 310.446 516.067 308.551C515.484 306.648 514.274 303.949 512.477 300.715C508.922 294.239 502.259 285.73 492.558 278.274C482.829 270.852 472.288 266.188 464.464 263.95C460.551 262.814 457.325 262.115 455.083 261.855C452.845 261.553 451.613 261.46 451.6 261.609Z" fill="#525076"/>
<path d="M441.565 275.624C441.523 276.017 446.866 276.89 455.019 279.828C459.122 281.211 463.809 283.368 468.908 285.885C473.924 288.552 479.285 291.727 484.551 295.488C489.769 299.299 494.386 303.273 498.295 307.105C502.052 311.029 505.306 314.684 507.523 317.999C512.158 324.548 513.797 329.077 514.256 328.982C514.425 328.952 514.108 327.814 513.381 325.754C513.064 324.712 512.502 323.481 511.758 322.071C511.07 320.644 510.227 319.035 509.074 317.338C506.993 313.846 503.803 310.002 500.036 305.902C496.118 301.898 491.421 297.771 486.066 293.864C480.667 290.006 475.127 286.797 469.93 284.161C464.647 281.673 459.777 279.616 455.511 278.384C453.413 277.669 451.465 277.197 449.753 276.81C448.05 276.383 446.574 276.081 445.351 275.943C442.914 275.594 441.576 275.474 441.565 275.624Z" fill="#525076"/>
<path d="M436.725 287.899C436.68 288.301 442.057 289.155 450.189 292.233C454.286 293.683 458.936 295.951 463.982 298.592C468.939 301.389 474.198 304.738 479.367 308.641C484.474 312.606 488.962 316.721 492.786 320.649C496.441 324.671 499.62 328.397 501.796 331.751C506.343 338.384 508.006 342.919 508.458 342.828C508.628 342.798 508.314 341.653 507.589 339.585C507.27 338.54 506.717 337.302 505.989 335.883C505.312 334.447 504.486 332.826 503.361 331.111C501.328 327.587 498.227 323.682 494.571 319.489C490.752 315.397 486.193 311.13 480.954 307.065C475.656 303.063 470.216 299.673 465.07 296.899C459.83 294.279 454.987 292.101 450.716 290.797C448.62 290.046 446.669 289.541 444.948 289.14C443.24 288.693 441.759 288.373 440.529 288.233C438.079 287.874 436.737 287.749 436.725 287.899Z" fill="#525076"/>
<path d="M544.185 350.729C544.452 351.068 548.807 348.53 556.821 346.16C564.76 343.769 576.705 341.902 590.106 343.639C603.511 345.379 615.145 350.309 622.772 354.72C630.476 359.131 634.548 362.76 634.842 362.494C634.952 362.403 634.057 361.403 632.214 359.762C630.376 358.118 627.519 355.891 623.693 353.471C616.118 348.627 604.138 343.265 590.205 341.457C576.276 339.65 563.953 341.857 556.023 344.689C552.021 346.094 548.995 347.558 547.028 348.708C545.059 349.853 544.085 350.611 544.185 350.729Z" fill="#525076"/>
<path d="M550.683 334.987C550.951 335.326 555.305 332.79 563.321 330.418C571.258 328.026 583.205 326.16 596.606 327.897C610.011 329.637 621.645 334.566 629.272 338.977C636.976 343.388 641.048 347.018 641.342 346.752C641.451 346.661 640.557 345.662 638.714 344.021C636.876 342.378 634.019 340.151 630.193 337.731C622.616 332.886 610.638 327.524 596.704 325.716C582.776 323.91 570.451 326.115 562.523 328.949C558.521 330.353 555.494 331.817 553.528 332.967C551.557 334.111 550.582 334.869 550.683 334.987Z" fill="#525076"/>
<path d="M557.177 319.244C557.444 319.583 561.799 317.047 569.813 314.675C577.752 312.285 589.699 310.417 603.098 312.154C616.502 313.894 628.138 318.824 635.765 323.235C643.468 327.646 647.54 331.275 647.834 331.01C647.944 330.92 647.05 329.919 645.206 328.279C643.368 326.635 640.511 324.408 636.685 321.988C629.108 317.144 617.13 311.782 603.198 309.974C589.27 308.165 576.945 310.373 569.017 313.206C565.015 314.611 561.988 316.075 560.022 317.225C558.051 318.368 557.077 319.126 557.177 319.244Z" fill="#525076"/>
<path d="M563.673 303.502C563.941 303.841 568.295 301.303 576.309 298.933C584.249 296.541 596.193 294.675 609.594 296.412C623 298.152 634.634 303.081 642.261 307.492C649.964 311.903 654.036 315.533 654.33 315.267C654.44 315.177 653.546 314.177 651.702 312.535C649.864 310.891 647.007 308.664 643.18 306.244C635.604 301.399 623.625 296.038 609.692 294.23C595.763 292.423 583.439 294.63 575.511 297.462C571.509 298.867 568.483 300.331 566.517 301.481C564.547 302.624 563.573 303.384 563.673 303.502Z" fill="#525076"/>
<path d="M570.167 287.758C570.435 288.097 574.789 285.561 582.805 283.189C590.743 280.799 602.689 278.931 616.09 280.668C629.494 282.408 641.129 287.337 648.756 291.748C656.46 296.159 660.532 299.789 660.826 299.523C660.936 299.432 660.041 298.431 658.198 296.791C656.36 295.147 653.503 292.92 649.677 290.5C642.1 285.655 630.122 280.294 616.188 278.485C602.26 276.679 589.935 278.884 582.007 281.718C578.005 283.122 574.979 284.587 573.012 285.737C571.043 286.882 570.067 287.64 570.167 287.758Z" fill="#525076"/>
<path d="M576.663 272.015C576.931 272.354 581.285 269.818 589.299 267.446C597.239 265.056 609.185 263.188 622.584 264.925C635.988 266.665 647.624 271.595 655.251 276.006C662.954 280.417 667.026 284.046 667.32 283.781C667.43 283.691 666.536 282.69 664.693 281.05C662.855 279.408 659.998 277.179 656.172 274.759C648.595 269.914 636.617 264.553 622.684 262.745C608.756 260.938 596.431 263.143 588.503 265.977C584.501 267.38 581.475 268.846 579.509 269.994C577.539 271.139 576.563 271.897 576.663 272.015Z" fill="#525076"/>
<path d="M170.874 606.704H169.458C162.851 606.704 157.496 601.349 157.496 594.742V527.686C157.496 521.079 162.851 515.724 169.458 515.724H170.874C177.48 515.724 182.835 521.079 182.835 527.686V594.742C182.835 601.349 177.48 606.704 170.874 606.704Z" fill="#263238"/>
<path d="M259.132 625.601C259.132 625.601 226.093 625.564 211.521 625.601C196.948 625.637 181.267 627.261 174.935 618.665C169.981 611.939 170.838 603.057 171.219 595.007C172.289 572.37 173.358 549.734 174.428 527.096C174.717 520.961 175.038 514.697 177.604 508.971C180.17 503.246 191.715 423.905 198.662 422.587H257.533L259.132 625.601Z" fill="#263238"/>
<path d="M211.521 589.75C230.983 589.75 246.76 589.556 246.76 589.318C246.76 589.079 230.983 588.885 211.521 588.885C192.058 588.885 176.281 589.079 176.281 589.318C176.281 589.556 192.058 589.75 211.521 589.75Z" fill="#455A64"/>
<path d="M218.692 497.364C218.931 497.364 219.124 517.915 219.124 543.26C219.124 568.614 218.93 589.16 218.692 589.16C218.454 589.16 218.26 568.612 218.26 543.26C218.258 517.915 218.453 497.364 218.692 497.364Z" fill="#455A64"/>
<path d="M174.631 601.344C174.601 601.344 174.567 601.055 174.529 600.501C174.496 599.848 174.456 599.05 174.406 598.081C174.316 595.981 174.227 592.939 174.145 589.18C173.982 581.662 173.886 571.273 173.981 559.799C174.079 548.321 174.35 537.935 174.639 530.421C174.783 526.663 174.923 523.625 175.048 521.525C175.113 520.557 175.167 519.76 175.211 519.108C175.257 518.556 175.297 518.267 175.327 518.267C175.357 518.269 175.377 518.56 175.385 519.113C175.385 519.766 175.385 520.566 175.383 521.535C175.35 523.768 175.304 526.777 175.249 530.436C175.144 538.073 175.001 548.394 174.845 559.805C174.81 571.212 174.779 581.534 174.757 589.171C174.75 592.831 174.745 595.841 174.742 598.075C174.725 599.044 174.714 599.843 174.702 600.496C174.685 601.053 174.66 601.344 174.631 601.344Z" fill="#455A64"/>
<path d="M500.273 307.767C500.273 307.767 526.117 312.693 539.269 354.421C554.306 402.128 579.687 499.957 579.492 511.254C579.298 522.55 550.515 540.621 550.515 540.621L509.276 526.875L487.639 445.478L500.273 307.767Z" fill="#C1152E"/>
<path d="M500.272 307.767L436.674 284.179L432.323 278.597L350.317 281.135L344.132 285.059C344.132 285.059 282.501 298.584 276.112 299.403C261.167 301.321 245.478 321.887 245.478 321.887C243.897 323.808 166.441 436.459 166.441 436.459L184.556 507.34C184.556 507.34 193.08 510.356 217.586 494.27C237.003 481.524 252.101 461.347 257.537 453.511L257.441 625.599H497.658L484.575 516.454L500.272 307.767Z" fill="#C1152E"/>
<path d="M488.065 421.148C488.035 421.142 488.073 420.847 488.169 420.294C488.294 419.646 488.447 418.85 488.631 417.884C489.075 415.669 489.675 412.68 490.403 409.044C491.881 401.578 493.789 391.237 495.52 379.758C497.246 368.272 498.467 357.828 499.252 350.257C499.626 346.568 499.931 343.536 500.159 341.287C500.267 340.31 500.354 339.506 500.427 338.849C500.498 338.292 500.55 338.002 500.578 338.003C500.608 338.005 500.614 338.301 500.599 338.863C500.571 339.522 500.536 340.332 500.495 341.314C500.39 343.443 500.177 346.518 499.86 350.315C499.23 357.909 498.103 368.383 496.376 379.887C494.641 391.387 492.637 401.728 491.003 409.17C490.189 412.891 489.487 415.895 488.96 417.959C488.711 418.909 488.507 419.694 488.339 420.332C488.188 420.874 488.093 421.155 488.065 421.148Z" fill="#263238"/>
<path d="M249.897 375.084C249.927 375.081 250.002 375.437 250.117 376.118C250.236 376.893 250.389 377.883 250.579 379.108C250.966 381.706 251.47 385.473 252.041 390.135C253.188 399.457 254.536 412.366 255.581 426.661C256.62 440.961 257.159 453.931 257.376 463.321C257.486 468.017 257.536 471.816 257.529 474.444C257.519 475.683 257.513 476.686 257.506 477.468C257.491 478.16 257.469 478.524 257.439 478.524C257.41 478.524 257.373 478.162 257.333 477.472C257.297 476.691 257.252 475.688 257.194 474.452C257.089 471.72 256.943 467.952 256.766 463.343C256.392 453.964 255.758 441.012 254.719 426.726C253.673 412.446 252.424 399.539 251.433 390.205C250.939 385.62 250.537 381.87 250.245 379.151C250.122 377.918 250.022 376.921 249.944 376.143C249.884 375.452 249.867 375.088 249.897 375.084Z" fill="#263238"/>
<path d="M436.649 292.71C436.669 292.734 436.38 293.023 435.806 293.548C435.231 294.072 434.374 294.833 433.25 295.79C431 297.703 427.706 300.429 423.477 303.598C419.221 306.718 414.127 310.472 407.79 313.552C401.398 316.499 393.766 318.334 385.679 318.774C377.601 319.184 369.76 318.279 363.178 315.689C356.609 313.08 351.516 308.98 348.136 304.888C344.745 300.768 342.979 296.738 342.191 293.886C341.813 292.448 341.566 291.326 341.493 290.547C341.386 289.774 341.345 289.368 341.375 289.365C341.405 289.362 341.503 289.759 341.666 290.517C341.792 291.281 342.093 292.383 342.513 293.787C343.391 296.575 345.214 300.497 348.603 304.494C351.983 308.465 357.022 312.433 363.469 314.946C369.918 317.439 377.659 318.317 385.63 317.91C393.613 317.476 401.162 315.681 407.454 312.827C413.702 309.841 418.832 306.149 423.115 303.105C427.377 300.007 430.724 297.359 433.037 295.529C434.138 294.653 435.02 293.952 435.695 293.413C436.301 292.933 436.629 292.689 436.649 292.71Z" fill="#263238"/>
<g opacity="0.3">
<path d="M313.97 372.37C304.391 378.993 303.237 392.425 302.694 404.059C300.458 451.822 269.976 543.019 257.438 589.161C296.903 528.194 321.102 444.646 313.97 372.37Z" fill="black"/>
</g>
<path d="M316.572 291.05C316.572 291.05 313.382 393.835 304.57 455.518C295.758 517.202 253.017 599.293 253.017 599.293L246.133 585.842C246.133 585.842 269.761 517.32 280.453 459.924C288.012 419.345 280.453 297.082 280.453 297.082C280.453 297.082 296.073 286.262 316.572 291.05Z" fill="#263238"/>
<path d="M293.891 392.834C293.652 392.826 294.21 371.423 295.138 345.034C296.065 318.636 297.011 297.251 297.25 297.259C297.49 297.268 296.931 318.666 296.004 345.064C295.076 371.453 294.131 392.843 293.891 392.834Z" fill="#455A64"/>
<path d="M160.741 398.734L152.544 419.907C152.544 419.907 141.677 442.059 142.513 457.107C143.349 472.155 162.33 527.182 200.671 509.342C239.012 491.502 219.877 462.542 219.877 462.542L201.869 413.219L173.595 394.621C168.977 391.584 162.736 393.582 160.741 398.734Z" fill="#C1152E"/>
<path d="M206.001 339.891C208.509 343.235 222.995 339.393 226.284 346.16C229.575 352.93 226.284 358.025 226.284 358.025C226.284 358.025 231.937 364.552 227.747 372.912C227.747 372.912 230.014 377.509 229.292 382.944C228.571 388.378 224.426 391.722 224.426 391.722C224.426 391.722 225.646 397.574 220.63 400.918C215.614 404.262 202.456 406.802 202.456 406.802L197.026 416.802C197.026 416.802 189.527 425.162 180.208 421.399C170.89 417.638 164.619 399.112 164.619 399.112C165.036 396.738 175.487 379.435 175.487 379.435C175.487 379.435 177.578 353.684 182.175 347.413C186.772 341.143 188.863 339.89 188.863 339.89C188.863 339.89 192.865 331.297 192.865 327.607C192.865 323.916 189.441 312.124 191.492 309.726C193.556 307.314 201.977 309.001 205.667 318.756C209.358 328.512 206.001 339.891 206.001 339.891Z" fill="#ECB6BE"/>
<path d="M225.809 357.249C225.763 357.509 220.83 356.638 214.692 356.618C208.553 356.563 203.612 357.371 203.567 357.111C203.547 357.002 204.76 356.658 206.769 356.333C208.777 356.008 211.586 355.735 214.697 355.752C217.807 355.773 220.612 356.081 222.615 356.432C224.621 356.782 225.829 357.141 225.809 357.249Z" fill="#D56273"/>
<path d="M226.955 374.25C226.902 374.509 222.265 373.565 216.474 373.562C210.682 373.52 206.038 374.431 205.987 374.17C205.924 373.967 210.569 372.656 216.478 372.696C222.383 372.701 227.018 374.045 226.955 374.25Z" fill="#D56273"/>
<path d="M225.789 391.422C225.859 391.629 221.859 392.999 216.69 393.369C211.523 393.765 207.363 393 207.403 392.786C207.431 392.528 211.559 392.897 216.627 392.507C221.693 392.143 225.725 391.169 225.789 391.422Z" fill="#D56273"/>
<path d="M213.089 403.757C213.13 403.84 211.731 404.656 209.248 405.459C206.776 406.267 203.181 406.943 199.189 406.802C195.195 406.646 191.662 405.702 189.257 404.711C186.842 403.724 185.509 402.806 185.556 402.727C185.649 402.442 191.365 405.7 199.222 405.938C207.072 406.288 213.017 403.466 213.089 403.757Z" fill="#D56273"/>
<path d="M213.231 342.027C213.182 342.296 207.862 341.161 201.225 341.397C194.585 341.583 189.35 343.056 189.284 342.79C189.254 342.687 190.524 342.187 192.666 341.663C194.805 341.138 197.828 340.643 201.199 340.531C204.567 340.426 207.616 340.729 209.785 341.116C211.955 341.503 213.255 341.922 213.231 342.027Z" fill="#D56273"/>
<path d="M216.125 487.257C216.05 487.219 216.559 486.209 217.288 484.314C218.03 482.429 218.952 479.619 219.487 476.037C219.994 472.464 220.185 468.106 219.334 463.401C218.557 458.688 216.688 453.697 213.66 449.081C210.639 444.471 207.273 440.236 205.41 435.692C203.472 431.213 202.546 426.907 201.922 423.309C201.318 419.697 201.034 416.754 200.85 414.723C200.778 413.789 200.72 413.016 200.672 412.379C200.642 411.843 200.64 411.56 200.67 411.557C200.7 411.553 200.76 411.831 200.846 412.361C200.938 412.991 201.051 413.759 201.185 414.685C201.473 416.702 201.85 419.629 202.525 423.201C203.221 426.759 204.202 431 206.141 435.371C207.996 439.792 211.318 443.934 214.388 448.613C217.473 453.311 219.376 458.46 220.12 463.268C220.945 468.08 220.684 472.519 220.091 476.135C219.467 479.762 218.443 482.581 217.599 484.442C217.217 485.393 216.801 486.077 216.557 486.556C216.299 487.031 216.152 487.272 216.125 487.257Z" fill="#263238"/>
<g opacity="0.3">
<path d="M201.186 411.075C201.408 411.967 201.674 412.843 201.957 413.711C201.955 412.8 201.953 411.889 201.955 410.983L201.186 411.075Z" fill="black"/>
</g>
<g opacity="0.3">
<path d="M217.666 440.738C211.979 431.968 205.166 423.576 201.955 413.711C201.978 422.1 202.356 430.645 205.861 438.215C208.161 443.186 211.696 447.466 214.634 452.09C217.575 456.712 219.988 461.99 219.614 467.456C219.481 469.398 218.999 471.374 219.474 473.26C219.95 475.146 221.887 476.877 223.721 476.224C225.102 475.732 225.758 474.178 226.127 472.758C228.987 461.751 223.855 450.28 217.666 440.738Z" fill="black"/>
</g>
<path d="M476.901 194.859C473.097 196.988 467.995 194.232 466.268 190.228C464.541 186.226 465.34 181.596 466.657 177.439C467.973 173.282 469.791 169.204 470.055 164.853C470.534 156.943 465.141 149.046 457.597 146.616C464.998 140.747 465.605 128.171 458.805 121.614C455.628 118.549 451.391 116.883 447.692 114.476C445.578 113.1 443.651 111.469 441.835 109.698C445.195 110.411 448.554 110.745 451.92 110.012C457.28 108.845 461.996 104.835 463.763 99.6409C465.532 94.4472 464.159 88.2562 460.187 84.4718C456.214 80.6875 449.792 79.6521 444.939 82.2115C440.159 84.7345 437.537 89.9349 435.212 94.8161C434.492 96.3286 433.772 97.841 433.051 99.3534C426.318 90.4368 419.991 81.226 409.61 78.0898C400.202 75.2477 390.075 78.4188 380.273 77.7075C373.128 77.189 366.274 74.6112 359.152 73.8317C352.03 73.0522 343.931 74.5713 339.726 80.3717C337.258 83.7755 336.481 88.1831 333.984 91.5653C328.825 98.549 317.715 99.4997 313.477 107.077C310.032 113.234 312.682 121.011 311.203 127.91C309.594 135.414 303.412 140.897 298.343 146.659C293.274 152.421 288.874 160.34 291.713 167.472C294.209 173.745 301.527 177.118 303.912 183.434C305.652 188.039 304.384 193.158 304.294 198.081C304.205 203.004 306.181 208.846 310.976 209.963L365.576 224.384C384.379 232.033 403.778 239.802 424.078 239.772C444.378 239.743 466.045 230 474.059 211.349C471.127 211.233 468.257 209.948 466.218 207.837C471.49 205.421 475.543 200.496 476.901 194.859Z" fill="#263238"/>
<path d="M432.154 211.989C436.655 198.139 441.101 184.185 443.153 169.769C445.204 155.351 444.767 140.323 439.693 126.673C438.923 124.604 432.367 110.721 430.17 110.939C428.599 111.094 432.639 124.044 431.845 125.409C424.268 138.42 422.209 154.071 423.419 169.081C424.628 184.087 427.751 197.589 432.154 211.989Z" fill="#263238"/>
<path d="M377.996 88.6351L374.62 88.8163C340.646 90.6379 313.753 118.234 312.837 152.247C311.986 183.891 310.819 214.264 311.934 231.157C314.243 266.127 350.167 269.772 350.167 269.772V287.823C351.708 306.242 375.562 309.537 384.607 308.747C415.841 308.747 432.12 283.194 432.12 283.194L433.59 156.43C434.775 119.926 414.518 88.8096 377.996 88.6351Z" fill="#ECB6BE"/>
<path d="M350.168 269.697C350.168 269.697 372.296 269.808 395.009 253.783C395.009 253.783 385.264 279.83 350.178 278.55L350.168 269.697Z" fill="#D56273"/>
<path d="M328.944 180.943C328.992 183.587 331.271 185.726 334.033 185.728C336.79 185.728 338.991 183.59 338.943 180.946C338.895 178.302 336.616 176.159 333.859 176.158C331.098 176.158 328.896 178.3 328.944 180.943Z" fill="#263238"/>
<path d="M321.096 166.368C321.751 166.987 325.386 163.982 330.766 163.708C336.134 163.357 340.229 165.911 340.776 165.222C341.047 164.916 340.354 163.772 338.569 162.612C336.811 161.457 333.861 160.4 330.51 160.595C327.161 160.794 324.41 162.177 322.858 163.526C321.273 164.884 320.776 166.093 321.096 166.368Z" fill="#263238"/>
<path d="M377.604 181.056C377.653 183.7 379.931 185.839 382.693 185.839C385.449 185.841 387.651 183.702 387.603 181.057C387.555 178.415 385.276 176.272 382.517 176.271C379.757 176.269 377.556 178.411 377.604 181.056Z" fill="#263238"/>
<path d="M373.886 165.72C374.543 166.339 378.183 163.335 383.558 163.061C388.924 162.71 393.021 165.265 393.568 164.575C393.837 164.268 393.151 163.126 391.357 161.968C389.599 160.811 386.649 159.755 383.3 159.948C379.951 160.148 377.2 161.532 375.646 162.88C374.067 164.236 373.567 165.446 373.886 165.72Z" fill="#263238"/>
<path d="M356.814 208.076C356.822 207.769 353.448 207.37 347.995 206.968C346.614 206.9 345.3 206.697 345.019 205.771C344.641 204.797 345.137 203.285 345.717 201.651C346.829 198.259 347.994 194.704 349.217 190.978C354.058 175.787 357.484 163.329 356.872 163.138C356.257 162.948 351.836 175.107 346.995 190.296C345.835 194.041 344.723 197.609 343.669 201.025C343.234 202.613 342.434 204.43 343.245 206.453C343.671 207.46 344.718 208.15 345.61 208.339C346.505 208.56 347.279 208.533 347.96 208.538C353.427 208.54 356.809 208.384 356.814 208.076Z" fill="#263238"/>
<path d="M372.839 210.948C371.961 210.943 372.264 216.782 367.489 221.193C362.724 225.617 356.466 225.295 356.465 226.114C356.403 226.485 357.912 227.173 360.542 227.105C363.123 227.055 366.841 226.024 369.762 223.327C372.674 220.623 373.803 217.162 373.874 214.758C373.966 212.303 373.236 210.892 372.839 210.948Z" fill="#263238"/>
<path d="M373.015 143.882C373.624 145.316 378.955 144.335 385.306 144.757C391.665 145.052 396.852 146.626 397.618 145.271C397.957 144.623 396.996 143.295 394.864 141.99C392.75 140.686 389.424 139.517 385.613 139.298C381.804 139.087 378.367 139.875 376.12 140.932C373.855 141.989 372.75 143.2 373.015 143.882Z" fill="#263238"/>
<path d="M322.359 148.374C323.37 149.544 327.006 148.078 331.459 147.779C335.9 147.325 339.729 148.16 340.53 146.835C340.877 146.195 340.217 145.003 338.507 143.935C336.822 142.869 334.053 142.073 330.998 142.331C327.942 142.592 325.349 143.842 323.867 145.176C322.359 146.514 321.91 147.801 322.359 148.374Z" fill="#263238"/>
<path d="M432.121 182.493C432.704 182.202 455.785 174.092 456.303 198.058C456.822 222.022 432.655 217.6 432.598 216.913C432.542 216.227 432.121 182.493 432.121 182.493Z" fill="#ECB6BE"/>
<path d="M439.72 207.676C439.823 207.596 440.144 207.958 440.857 208.266C441.551 208.567 442.74 208.758 443.98 208.263C446.491 207.279 448.537 203.213 448.558 198.891C448.572 196.708 448.07 194.641 447.26 192.939C446.491 191.202 445.331 190 444.051 189.801C442.776 189.535 441.89 190.318 441.613 190.999C441.305 191.676 441.468 192.151 441.342 192.196C441.277 192.257 440.82 191.805 440.991 190.812C441.081 190.333 441.349 189.761 441.902 189.289C442.467 188.809 443.308 188.553 444.197 188.629C446.047 188.716 447.749 190.381 448.64 192.251C449.632 194.127 450.247 196.449 450.232 198.9C450.182 203.732 447.809 208.306 444.365 209.381C442.688 209.858 441.27 209.379 440.533 208.829C439.776 208.254 439.638 207.721 439.72 207.676Z" fill="#D56273"/>
<path d="M327.837 112.34C323.93 110.249 335.411 97.5384 344.887 93.0909C359.211 86.3698 381.161 82.0619 394.493 85.6585C410.545 89.988 423.935 97.7761 432.151 112.229C440.368 126.683 443.604 143.606 443.349 160.229C443.273 165.301 442.814 170.593 440.16 174.916C436.879 180.26 430.499 183.678 430.874 190.984C431.012 193.655 430.284 196.361 428.478 198.334C424.153 203.055 418.732 198.741 416.209 194.378C410.821 185.058 410.089 173.857 409.489 163.108C409.062 155.467 408.652 147.663 410.713 140.293C411.834 136.283 413.669 132.484 414.567 128.418C415.464 124.353 415.283 119.753 412.715 116.474C412.298 115.94 411.612 115.27 410.744 114.529C403.88 108.667 394.355 107.009 385.884 110.126C372.448 115.074 349.489 122.502 343.412 117.998C334.666 111.519 332.539 107.248 332.539 107.248L327.837 112.34Z" fill="#263238"/>
<path d="M393.197 82.4226C379.971 78.1862 364.978 78.61 352.733 85.1616C346.233 88.6401 340.391 94.1414 338.486 101.263C336.581 108.386 339.723 117.08 346.585 119.773L347.059 120.062C357.328 123.373 363.958 121.917 374.109 118.257C382.65 115.177 390.212 109.786 398.768 106.748C407.865 103.518 417.935 103.096 427.268 105.553C417.969 95.2399 406.424 86.6574 393.197 82.4226Z" fill="#263238"/>
<path d="M438.776 106.118C438.572 106.302 436.642 104.007 432.748 101.305C430.8 99.9749 428.374 98.514 425.477 97.4138C422.6 96.3136 419.224 95.4959 415.729 95.7817C408.609 96.4598 402.676 99.7689 399.019 102.671C395.313 105.612 393.591 108.081 393.365 107.904C393.284 107.848 393.621 107.171 394.407 106.061C395.184 104.944 396.472 103.437 398.292 101.801C401.9 98.5689 407.999 94.9125 415.598 94.1845C419.44 93.8737 423.029 94.8111 426.022 96.0426C429.039 97.2775 431.493 98.8996 433.418 100.392C437.269 103.429 438.914 106.026 438.776 106.118Z" fill="#455A64"/>
<path d="M441.168 114.612C441.337 114.652 440.932 117.353 439.343 121.453C437.771 125.545 434.817 130.96 430.355 136.005C425.872 141.038 420.845 144.613 416.969 146.661C413.087 148.725 410.454 149.448 410.394 149.285C410.113 148.821 420.458 144.891 429.157 134.943C437.998 125.128 440.674 114.388 441.168 114.612Z" fill="#455A64"/>
<path d="M450.922 118.495C451.021 118.5 451.093 119.469 451.018 121.224C450.947 122.977 450.661 125.513 449.971 128.586C448.633 134.706 445.274 143.054 438.895 150.368C432.517 157.688 424.705 162.155 418.825 164.314C415.875 165.416 413.402 166.046 411.674 166.355C409.947 166.669 408.976 166.731 408.958 166.633C408.895 166.352 412.724 165.689 418.401 163.264C424.052 160.882 431.516 156.398 437.689 149.315C443.86 142.235 447.284 134.232 448.872 128.309C450.499 122.355 450.636 118.471 450.922 118.495Z" fill="#455A64"/>
<path d="M365.747 80.2371C365.802 80.4997 363.26 81.0913 359.398 82.6287C355.537 84.1527 350.408 86.8186 345.517 90.8323C340.641 94.8677 337.042 99.3916 334.807 102.89C332.558 106.387 331.493 108.767 331.245 108.664C331.082 108.606 331.782 106.048 333.836 102.307C335.872 98.5739 339.457 93.7657 344.498 89.5958C349.554 85.4458 354.959 82.8481 359.011 81.5633C363.076 80.2636 365.722 80.0659 365.747 80.2371Z" fill="#455A64"/>
<path d="M458.439 83.2403C458.838 83.2303 457.789 90.1841 452.363 96.5778C447.004 103.031 440.338 105.267 440.278 104.873C440.041 104.434 446.077 101.669 451.136 95.5474C456.285 89.5077 457.965 83.0824 458.439 83.2403Z" fill="#455A64"/>
<path d="M381.713 196.514C382.205 196.514 382.604 196.115 382.604 195.623C382.604 195.131 382.205 194.732 381.713 194.732C381.221 194.732 380.822 195.131 380.822 195.623C380.822 196.115 381.221 196.514 381.713 196.514Z" fill="#D56273"/>
<path d="M388.307 196.514C388.799 196.514 389.198 196.115 389.198 195.623C389.198 195.131 388.799 194.732 388.307 194.732C387.815 194.732 387.416 195.131 387.416 195.623C387.416 196.115 387.815 196.514 388.307 196.514Z" fill="#D56273"/>
<path d="M448.844 512.385L345.667 481.577C343.912 481.053 342.915 479.205 343.438 477.45L385.969 335.015C386.492 333.26 388.341 332.263 390.096 332.786L493.273 363.595C495.028 364.118 496.025 365.966 495.501 367.721L452.971 510.157C452.446 511.912 450.599 512.909 448.844 512.385Z" fill="#455A64"/>
<path d="M348.777 460.536C344.396 459.683 341.333 455.822 341.492 451.358C341.67 446.387 345.902 442.505 350.831 442.663C355.802 442.842 359.701 447.032 359.524 452.001L357.863 451.943C358.008 447.888 354.827 444.469 350.771 444.325C346.728 444.183 343.299 447.363 343.153 451.416C343.023 455.06 345.521 458.209 349.093 458.904L348.777 460.536Z" fill="#263238"/>
<path d="M352.5 448.3C348.119 447.448 345.056 443.587 345.215 439.123C345.393 434.15 349.538 430.259 354.554 430.43C359.525 430.608 363.424 434.8 363.246 439.769L361.586 439.711C361.73 435.656 358.549 432.237 354.494 432.092C350.447 431.963 347.022 435.129 346.875 439.183C346.746 442.826 349.244 445.975 352.815 446.67L352.5 448.3Z" fill="#263238"/>
<path d="M356.221 436.063C351.84 435.212 348.777 431.353 348.938 426.887C349.024 424.479 350.043 422.247 351.807 420.606C353.57 418.963 355.865 418.125 358.277 418.193C363.246 418.371 367.147 422.561 366.971 427.532L365.309 427.474C365.453 423.418 362.272 420 358.217 419.855C356.276 419.797 354.379 420.483 352.94 421.823C351.501 423.162 350.67 424.982 350.6 426.947C350.469 430.592 352.967 433.739 356.54 434.432L356.221 436.063Z" fill="#263238"/>
<path d="M359.943 423.829C355.564 422.976 352.499 419.116 352.661 414.651C352.838 409.679 356.978 405.806 361.999 405.959C364.408 406.046 366.638 407.064 368.28 408.828C369.92 410.591 370.778 412.89 370.692 415.296L369.03 415.238C369.101 413.272 368.401 411.399 367.062 409.96C365.722 408.522 363.902 407.691 361.938 407.621C359.975 407.551 358.1 408.249 356.659 409.589C355.22 410.928 354.389 412.747 354.318 414.711C354.188 418.354 356.686 421.504 360.259 422.198L359.943 423.829Z" fill="#263238"/>
<path d="M363.666 411.593C359.285 410.741 356.222 406.882 356.381 402.417C356.468 400.009 357.487 397.777 359.25 396.137C361.015 394.493 363.322 393.659 365.72 393.723C370.691 393.901 374.592 398.093 374.414 403.062L372.752 403.004C372.898 398.947 369.717 395.53 365.662 395.385C363.677 395.311 361.821 396.014 360.383 397.353C358.944 398.693 358.113 400.513 358.042 402.477C357.912 406.12 360.41 409.268 363.982 409.963L363.666 411.593Z" fill="#263238"/>
<path d="M367.387 399.359C363.007 398.507 359.944 394.646 360.104 390.182C360.19 387.774 361.209 385.543 362.972 383.901C364.737 382.261 367.059 381.426 369.441 381.49C371.849 381.576 374.08 382.595 375.722 384.358C377.362 386.123 378.22 388.42 378.135 390.828L376.473 390.77C376.617 386.715 373.436 383.296 369.381 383.153C367.428 383.088 365.542 383.781 364.103 385.121C362.663 386.461 361.832 388.279 361.763 390.243C361.633 393.886 364.131 397.036 367.702 397.731L367.387 399.359Z" fill="#263238"/>
<path d="M371.109 387.122C366.728 386.269 363.665 382.409 363.827 377.944C364.001 373.081 368.012 369.247 372.836 369.247C372.946 369.247 373.056 369.249 373.164 369.252C378.135 369.432 382.035 373.622 381.856 378.591L380.194 378.533C380.34 374.478 377.159 371.059 373.104 370.914C369.064 370.758 365.63 373.947 365.485 378.004C365.354 381.647 367.852 384.797 371.425 385.492L371.109 387.122Z" fill="#263238"/>
<path d="M374.834 374.888C370.453 374.035 367.39 370.175 367.549 365.71C367.727 360.738 371.927 356.839 376.888 357.015C379.296 357.103 381.527 358.12 383.169 359.885C384.809 361.65 385.667 363.947 385.58 366.355L383.918 366.297C383.99 364.331 383.29 362.458 381.95 361.019C380.611 359.579 378.793 358.748 376.828 358.679C372.723 358.512 369.354 361.715 369.209 365.77C369.078 369.413 371.578 372.563 375.149 373.258L374.834 374.888Z" fill="#263238"/>
<path d="M378.555 362.652C374.174 361.8 371.112 357.939 371.272 353.473C371.358 351.067 372.377 348.836 374.14 347.194C375.904 345.554 378.217 344.709 380.611 344.783C385.582 344.96 389.482 349.15 389.305 354.121L387.643 354.063C387.787 350.008 384.606 346.589 380.551 346.445C378.565 346.371 376.712 347.073 375.272 348.412C373.835 349.752 373.004 351.57 372.934 353.535C372.801 357.178 375.299 360.327 378.872 361.022L378.555 362.652Z" fill="#263238"/>
<path d="M382.277 350.415C377.896 349.564 374.833 345.705 374.992 341.239C375.081 338.829 376.098 336.599 377.863 334.959C379.626 333.315 381.936 332.475 384.333 332.545C389.304 332.723 393.205 336.915 393.025 341.884L391.363 341.826C391.509 337.771 388.328 334.352 384.273 334.207C380.231 334.041 376.799 337.242 376.654 341.299C376.523 344.944 379.023 348.092 382.594 348.785L382.277 350.415Z" fill="#263238"/>
<path d="M345.055 472.77C340.674 471.917 337.611 468.056 337.772 463.592C337.858 461.184 338.877 458.954 340.641 457.312C342.406 455.671 344.709 454.842 347.111 454.9C352.082 455.08 355.981 459.27 355.803 464.239L354.143 464.181C354.287 460.125 351.106 456.707 347.051 456.562C345.106 456.497 343.213 457.19 341.774 458.53C340.335 459.869 339.504 461.688 339.434 463.652C339.303 467.295 341.801 470.445 345.374 471.139L345.055 472.77Z" fill="#263238"/>
<path d="M357.604 463.263C359.435 458.558 379.329 388.575 388.427 359.84C390.451 353.448 397.912 349.642 404.286 351.726L506.481 382.105C512.655 384.124 516.12 390.67 514.319 396.911L469.152 553.39C467.327 559.712 460.771 563.404 454.418 561.687L350.289 533.541C343.802 531.788 340 525.07 341.835 518.605L357.369 463.898L357.604 463.263Z" fill="#BCBBCA"/>
<path d="M394.101 348.294C389.98 347.191 385.725 349.549 384.48 353.629C376.871 378.544 352.325 458.836 350.51 463.84L332.396 523.165C331.082 527.473 333.618 532.009 337.977 533.142L450.154 562.308C454.307 563.389 458.565 560.962 459.755 556.839L508.645 387.333C509.873 383.073 507.367 378.636 503.085 377.489L394.101 348.294Z" fill="#525076"/>
<path d="M394.1 348.294C394.1 348.294 394.642 348.409 395.689 348.673C396.755 348.948 398.304 349.348 400.328 349.872C404.421 350.949 410.421 352.527 418.143 354.56C433.623 358.674 455.988 364.615 483.621 371.958C487.076 372.879 490.613 373.821 494.229 374.785C496.038 375.267 497.866 375.754 499.712 376.248C500.636 376.493 501.564 376.741 502.498 376.99C503.418 377.211 504.432 377.537 505.288 378.072C507.037 379.114 508.385 380.845 508.961 382.841C509.254 383.836 509.355 384.893 509.255 385.937C509.166 387.001 508.805 387.976 508.544 388.94C507.424 392.839 506.282 396.811 505.12 400.852C500.472 417.015 495.504 434.283 490.279 452.455C485.047 470.626 479.554 489.699 473.86 509.472C471.011 519.357 468.111 529.419 465.169 539.629C463.697 544.734 462.214 549.877 460.722 555.052L460.16 556.997C459.939 557.67 459.685 558.343 459.301 558.945C458.583 560.181 457.502 561.183 456.276 561.906C455.026 562.593 453.607 563.006 452.169 562.99C451.449 563.011 450.738 562.882 450.04 562.726L448.062 562.21C426.938 556.714 406.313 551.349 386.395 546.167C376.437 543.574 366.654 541.026 357.074 538.532C352.285 537.284 347.544 536.049 342.859 534.829C341.688 534.523 340.519 534.219 339.356 533.916C338.219 533.616 336.968 533.355 335.869 532.706C333.662 531.48 332.126 529.201 331.762 526.743C331.571 525.517 331.661 524.25 332.018 523.07C332.362 521.947 332.704 520.827 333.045 519.71C333.728 517.478 334.408 515.259 335.081 513.057C336.431 508.651 337.76 504.305 339.072 500.02C341.696 491.452 344.242 483.136 346.705 475.093C351.666 459.025 356.287 444.057 360.506 430.39C368.983 403.087 375.843 380.991 380.592 365.695C381.783 361.881 382.842 358.491 383.761 355.549C384.226 354.096 384.575 352.675 385.33 351.573C386.048 350.465 386.98 349.67 387.885 349.12C389.729 348.02 391.44 347.927 392.503 347.992C393.577 348.088 394.1 348.294 394.1 348.294C394.094 348.331 393.562 348.146 392.488 348.082C391.435 348.045 389.756 348.17 387.966 349.27C387.088 349.82 386.189 350.606 385.501 351.691C384.782 352.762 384.454 354.151 383.997 355.624C383.1 358.572 382.068 361.971 380.904 365.794C376.217 381.109 369.446 403.237 361.08 430.578C356.892 444.255 352.304 459.234 347.378 475.314C344.93 483.358 342.397 491.677 339.788 500.246C338.483 504.531 337.159 508.878 335.817 513.284C335.146 515.488 334.471 517.705 333.79 519.937C333.451 521.054 333.11 522.173 332.768 523.296C332.445 524.367 332.367 525.508 332.542 526.617C332.872 528.839 334.265 530.9 336.258 532.002C337.235 532.58 338.369 532.818 339.55 533.13C340.715 533.433 341.884 533.735 343.055 534.039C347.742 535.256 352.484 536.486 357.274 537.729C366.855 540.217 376.639 542.757 386.601 545.343C406.522 550.52 427.148 555.878 448.273 561.368C449.616 561.695 450.889 562.152 452.162 562.117C453.45 562.134 454.722 561.76 455.844 561.147C456.944 560.497 457.915 559.599 458.556 558.491C459.234 557.42 459.492 556.111 459.889 554.804C461.383 549.629 462.866 544.487 464.338 539.381C467.285 529.171 470.188 519.113 473.042 509.227C478.753 489.46 484.261 470.391 489.509 452.224C494.763 434.06 499.755 416.799 504.427 400.644C505.596 396.605 506.746 392.636 507.874 388.739C508.147 387.752 508.493 386.809 508.569 385.862C508.664 384.906 508.571 383.938 508.305 383.023C507.78 381.192 506.543 379.598 504.941 378.637C504.133 378.137 503.277 377.856 502.323 377.622C501.391 377.371 500.462 377.122 499.539 376.872C497.693 376.375 495.866 375.884 494.06 375.397C490.447 374.424 486.911 373.472 483.46 372.541C455.857 365.087 433.518 359.054 418.053 354.878C410.35 352.778 404.363 351.146 400.281 350.033C398.267 349.474 396.725 349.046 395.664 348.751C394.627 348.466 394.1 348.294 394.1 348.294Z" fill="#263238"/>
<g opacity="0.3">
<path d="M402.101 512.862L335.629 507.738C336.473 512.65 340.326 516.623 344.76 518.897C349.194 521.172 354.2 522.02 359.116 522.838C366.647 524.092 374.179 525.347 381.71 526.6C384.583 527.079 387.63 527.639 389.777 529.607C392.097 531.733 392.87 535.045 394.678 537.619C397.643 541.841 402.957 543.588 407.906 545.044C427.519 550.812 447.3 556.103 467.411 559.782C472.992 560.804 478.779 561.695 484.291 560.357C489.806 559.019 495.025 554.906 495.954 549.31L402.101 512.862Z" fill="black"/>
</g>
<path d="M398.744 351.155C398.972 351.226 386.385 392.053 370.633 442.335C354.876 492.634 341.922 533.336 341.694 533.265C341.467 533.193 354.051 492.375 369.807 442.076C385.559 391.794 398.516 351.083 398.744 351.155Z" fill="#263238"/>
<path d="M476.498 408.358L411.781 389.035L402.109 421.43L466.826 440.753L476.498 408.358Z" fill="#BCBBCA"/>
<path d="M411.584 465.103C411.584 465.103 395.165 443.243 389.224 438.26C383.282 433.277 358.699 437.266 358.699 437.266L348.019 448.503C348.019 448.503 350.127 457.041 360.094 452.826L362.864 450.725L374.275 450.717L381.356 458.964L359.135 458.575C359.135 458.575 348.21 451.483 345.719 451.483C343.228 451.483 337.239 456.274 341.576 464.707C341.576 464.707 333.262 467.39 336.138 478.698C336.138 478.698 329.179 480.614 335.533 494.03L336.329 495.564C336.329 495.564 329.046 499.014 333.837 506.68C338.629 514.346 350.703 516.645 354.345 516.454C357.986 516.263 423.509 525.906 423.509 525.906L441.221 479.87L411.584 465.103Z" fill="#ECB6BE"/>
<path d="M361.924 476.3C361.921 476.398 360.566 476.474 358.407 476.127C356.255 475.786 353.313 474.925 350.378 473.312C347.448 471.688 345.151 469.659 343.715 468.018C342.271 466.376 341.614 465.189 341.694 465.135C341.903 464.937 345.036 469.428 350.795 472.554C356.509 475.761 361.979 476.017 361.924 476.3Z" fill="#D56273"/>
<path d="M351.409 491.02C351.377 491.12 350.221 490.879 348.457 490.163C346.695 489.45 344.35 488.202 342.058 486.402C339.77 484.597 338.003 482.611 336.896 481.067C335.784 479.521 335.279 478.454 335.367 478.401C335.592 478.24 338.098 482.225 342.594 485.722C347.049 489.267 351.512 490.764 351.409 491.02Z" fill="#D56273"/>
<path d="M351.441 504.368C351.415 504.579 347.26 503.882 342.769 501.389C338.262 498.928 335.45 495.79 335.614 495.654C335.794 495.458 338.8 498.24 343.186 500.63C347.551 503.056 351.511 504.11 351.441 504.368Z" fill="#D56273"/>
<path d="M576.641 494.323L505.405 483.249L421.68 467.42L402.102 533.233C402.102 533.233 502.152 562.569 529.564 566.174C558.851 570.027 570.208 566.174 579.492 546.93C585.41 534.664 581.732 510.042 576.641 494.323Z" fill="#C1152E"/>
<path d="M510.283 562.41C510.28 562.421 510.099 562.385 509.746 562.303C509.361 562.209 508.847 562.082 508.186 561.919C506.776 561.556 504.755 561.035 502.154 560.364C496.861 558.966 489.211 556.945 479.619 554.412C460.36 549.258 433.314 542.019 401.992 533.636L401.58 533.526L401.701 533.117C405.604 519.979 409.825 505.769 414.193 491.063C416.616 482.923 418.994 474.935 421.268 467.3L421.379 466.926L421.76 467.001C458.243 474.226 490.389 480.591 513.458 485.16C524.939 487.47 534.158 489.327 540.55 490.613C543.693 491.263 546.138 491.768 547.838 492.121C548.639 492.295 549.262 492.43 549.721 492.529C550.143 492.626 550.359 492.682 550.356 492.696C550.354 492.709 550.133 492.679 549.706 492.609C549.244 492.528 548.614 492.418 547.808 492.275C546.101 491.958 543.646 491.501 540.492 490.914C534.088 489.687 524.852 487.917 513.35 485.713C490.268 481.218 458.101 474.952 421.597 467.84L422.089 467.543C419.819 475.18 417.446 483.169 415.026 491.309C410.646 506.012 406.413 520.217 402.501 533.353L402.212 532.834C433.5 541.337 460.521 548.68 479.759 553.907C489.324 556.54 496.952 558.64 502.231 560.093C504.817 560.821 506.826 561.386 508.227 561.782C508.882 561.974 509.389 562.122 509.77 562.234C510.112 562.338 510.287 562.398 510.283 562.41Z" fill="#263238"/>
<path d="M62.3263 614.551C57.2509 611.365 51.4366 609.363 45.4765 608.752C42.7235 608.469 39.7146 608.55 37.5064 610.218C37.0372 610.571 36.5804 611.095 36.685 611.673C36.7621 612.098 37.1211 612.406 37.4637 612.669C44.3195 617.899 54.6905 618.559 62.3263 614.551Z" fill="#525076"/>
<path d="M61.8939 614.075C58.0787 611.098 54.2429 608.101 51.0111 604.499C47.7793 600.898 45.1528 596.623 44.187 591.88C43.894 590.443 43.8032 588.799 44.7263 587.658C53.4009 594.433 60.2168 603.197 61.8939 614.075Z" fill="#525076"/>
<path d="M62.2369 614.487C61.5834 609.74 61.3481 604.863 62.4378 600.197C63.5274 595.532 66.0658 591.067 70.0489 588.406C71.5485 591.911 70.9033 595.947 69.848 599.608C68.2163 605.267 65.6558 610.658 62.3002 615.498" fill="#525076"/>
<path d="M70.7408 629.725C65.5787 630.353 61.0825 633.074 57.2274 636.565C53.3724 640.055 50.6331 644.759 49.498 649.834C54.5625 649.522 58.8578 645.95 61.9741 641.947C65.0903 637.943 67.249 633.549 70.6707 629.804" fill="#525076"/>
<path d="M72.5869 632.162C68.4292 621.919 69.9357 609.578 76.4351 600.636C79.3766 611.098 78.2966 622.915 72.5869 632.162Z" fill="#525076"/>
<path d="M83.8248 645.542C79.1401 645.252 74.3756 646.367 70.3073 648.709C66.2389 651.051 62.8819 654.61 60.7796 658.808C60.4935 659.379 60.2417 660.104 60.6242 660.614C60.9558 661.058 61.5983 661.1 62.1527 661.064C66.6943 660.769 70.72 658.037 74.0399 654.926C77.3611 651.816 80.2545 648.221 83.9252 645.529" fill="#525076"/>
<path d="M83.4647 644.814C81.0474 637.08 80.8974 628.654 83.0369 620.839C83.8816 617.753 85.3001 614.505 88.1536 613.057C88.3971 612.933 88.6805 612.823 88.9364 612.92C89.1786 613.01 89.3189 613.259 89.4317 613.493C90.4471 615.615 90.7429 618.023 90.6383 620.371C90.5337 622.72 90.0467 625.034 89.5597 627.334C88.6612 631.59 88.1825 636.163 85.8491 639.834C85.2946 640.704 84.8076 641.645 84.3659 642.578C83.9243 643.511 83.9201 643.84 83.5156 644.582" fill="#525076"/>
<path d="M113.209 649.246C111.005 640.863 113.344 630.701 118.627 623.83C119.016 623.324 119.531 622.782 120.167 622.841C121.139 622.93 121.391 624.227 121.348 625.203C120.966 633.767 118.108 642.208 113.209 649.246Z" fill="#525076"/>
<path d="M115.891 651.078C126.074 653.728 137.758 651.153 146.228 644.908C141.207 642.364 135.29 641.637 129.804 642.892C124.319 644.147 119.307 646.605 115.891 651.078Z" fill="#525076"/>
<path d="M118.152 645.496C123.857 636.197 134.79 630.128 145.686 629.575C144.431 634.007 140.789 637.451 136.679 639.532C132.571 641.614 127.984 642.519 123.463 643.397C121.705 643.74 119.293 644.115 118.152 645.496Z" fill="#525076"/>
<path d="M113.776 618.415C115.32 613.123 116.873 607.785 117.297 602.29C117.72 596.793 116.938 591.056 114.085 586.34C108.758 596.649 108.219 608.694 113.616 618.968" fill="#525076"/>
<path d="M131.715 609.348C137.946 598.025 150.657 588.979 163.518 587.712C158.557 600.067 145.025 609.613 131.715 609.348Z" fill="#525076"/>
<path d="M127.795 611.567C137.087 612.983 145.004 618.917 153.687 622.515C155.544 623.284 157.547 623.897 159.539 623.636C161.532 623.374 163.499 622.037 163.946 620.078C164.318 618.45 163.576 616.724 162.408 615.531C161.24 614.338 159.698 613.594 158.157 612.953C148.699 609.015 138.557 608.916 128.594 611.304" fill="#525076"/>
<path d="M122.415 618.084C124.519 618.687 125.237 619.775 126.903 621.195C132.555 626.009 139.333 629.49 146.538 631.281C147.288 631.467 148.271 631.541 148.643 630.865C148.968 630.273 148.556 629.556 148.135 629.029C145.117 625.253 140.812 622.669 136.28 620.982C131.749 619.294 127.822 617.26 122.414 617.696" fill="#525076"/>
<path d="M116.35 578.723C123.906 585.776 134.548 589.397 144.838 588.416C145.305 588.372 145.816 588.296 146.135 587.951C146.852 587.171 145.992 585.967 145.157 585.316C136.781 578.784 126.635 576.078 116.35 578.723Z" fill="#525076"/>
<path d="M123.543 576.09C133.53 568.601 147.226 566.342 159.09 570.225C154.613 574.637 148.403 577.01 142.151 577.661C135.899 578.312 129.639 577.619 123.543 576.09Z" fill="#525076"/>
<path d="M120.685 558.003C119.862 549.644 120.396 543.044 119.815 534.646C119.769 533.975 119.624 533.167 118.997 532.926C118.123 532.589 117.394 533.664 117.108 534.555C114.619 542.298 115.98 551.178 120.673 557.82" fill="#525076"/>
<path d="M120.082 558.927C125.748 555.422 129.999 550.846 133.93 545.467C136.665 541.725 138.971 537.241 138.349 532.647C134.508 532.57 130.858 534.689 128.36 537.607C125.862 540.525 124.377 544.174 123.268 547.853C122.158 551.532 121.382 555.312 120.082 558.927Z" fill="#525076"/>
<path d="M133.689 555.147C146.123 550.549 157.726 543.707 167.768 535.052C163.697 533.412 159.035 534.393 154.966 536.036C145.667 539.789 138.071 546.125 133.51 555.055" fill="#525076"/>
<path d="M123.908 563.5C130.198 564.188 136.589 564.635 142.831 563.592C148.966 562.567 154.764 560.135 160.497 557.721C160.972 557.522 161.489 557.281 161.697 556.811C161.922 556.299 161.682 555.674 161.266 555.299C160.851 554.923 160.299 554.743 159.76 554.593C153.527 552.85 146.801 553.665 140.669 555.733C134.538 557.803 129.511 560.258 123.908 563.5Z" fill="#525076"/>
<path d="M87.9849 579.008C83.6923 570.345 83.9716 560.234 87.6795 551.305C90.2894 555.282 90.6086 560.346 90.1312 565.079C89.6538 569.812 88.2133 574.683 88.1198 579.439" fill="#525076"/>
<path d="M70.8371 570.361C60.1208 570.156 49.4018 574.723 42.125 582.592C47.4742 583.433 52.9817 582.053 57.8466 579.677C62.7115 577.301 67.0344 573.969 71.3201 570.658" fill="#525076"/>
<path d="M59.311 566.506C54.0678 566.081 49.024 565.432 43.9843 566.977C38.9433 568.522 34.3563 572.027 32.3008 576.883C37.2042 577.436 42.1765 576.206 46.6713 574.169C51.1648 572.132 55.251 569.311 59.311 566.506Z" fill="#525076"/>
<path d="M76.3791 566.682C71.6628 563.592 66.8199 560.445 61.329 559.165C55.838 557.885 49.4735 558.83 45.6445 562.969C50.0898 565.577 55.4831 565.886 60.6369 565.881C65.7908 565.877 72.11 565.819 76.968 567.538" fill="#525076"/>
<path d="M76.4071 566.931C68.3447 559.013 65.2876 544.791 68.5318 533.966C74.8689 543.596 77.7072 555.476 76.4071 566.931Z" fill="#525076"/>
<path d="M98.5781 544.498C100.098 540.964 101.169 537.253 102.532 533.654C103.897 530.056 105.592 526.515 108.17 523.657C110.749 520.8 114.313 518.673 118.156 518.481C115.75 529.375 108.514 539.109 98.7763 544.553" fill="#525076"/>
<path d="M94.5652 549.172C92.0488 545.709 89.1417 541.006 85.7297 538.421C82.3176 535.836 77.8737 534.272 73.709 535.264C77.9438 542.836 85.9484 548.173 94.5652 549.172Z" fill="#525076"/>
<path d="M95.3696 544.786C93.72 540.595 92.0594 536.359 91.3921 531.905C90.7249 527.452 91.1307 522.693 93.4091 518.807C97.8351 527.174 99.2605 536.154 95.5967 544.881" fill="#525076"/>
<path d="M98.6191 518.807C101.126 510.514 108.72 504.408 116.919 501.606C117.952 501.252 119.047 500.957 120.127 501.124C121.207 501.29 122.265 502.029 122.493 503.098C122.791 504.509 121.626 505.773 120.531 506.711C114.145 512.169 106.64 516.313 98.6191 518.807Z" fill="#525076"/>
<path d="M98.7102 512.025C99.0294 506.677 99.3623 501.252 101.101 496.186C102.84 491.119 106.193 486.367 111.069 484.149C111.899 489.549 109.516 494.923 106.642 499.571C103.768 504.218 100.305 508.604 98.5781 513.789" fill="#525076"/>
<path d="M98.5763 515.706C96.5043 509.662 96.2897 501.985 92.6713 496.719C90.1412 493.038 86.0893 490.53 83.91 486.632C82.4613 490.273 82.9057 494.469 84.4191 498.083C85.9325 501.698 88.4365 504.808 91.1152 507.669C93.794 510.529 96.0875 512.679 98.5763 515.706Z" fill="#525076"/>
<path d="M98.6177 693.705C98.4567 693.705 98.3178 653.384 98.3054 603.656C98.2944 553.912 98.4154 513.599 98.5764 513.599C98.7374 513.599 98.8764 553.912 98.8887 603.656C98.8997 653.385 98.7787 693.705 98.6177 693.705Z" fill="#525076"/>
<path d="M133.855 572.924C133.866 572.963 133.325 573.164 132.339 573.494C131.249 573.861 129.848 574.335 128.166 574.901C124.648 576.1 119.816 577.835 114.57 579.985C109.376 582.213 104.478 584.022 101.689 586.438C100.296 587.631 99.4962 588.921 99.1014 589.862C98.701 590.809 98.6294 591.388 98.5758 591.378C98.5565 591.376 98.562 591.231 98.5937 590.956C98.6405 590.685 98.7106 590.278 98.8895 589.781C99.2293 588.786 100.007 587.406 101.416 586.131C102.817 584.853 104.768 583.704 107.004 582.66C109.24 581.617 111.718 580.529 114.348 579.447C119.609 577.291 124.48 575.611 128.036 574.512C129.814 573.958 131.265 573.549 132.271 573.279C133.281 573.014 133.842 572.886 133.855 572.924Z" fill="#525076"/>
<path d="M145.403 544.555C145.417 544.57 145.27 544.725 144.978 545.009C144.634 545.331 144.207 545.732 143.685 546.224C142.484 547.316 140.848 548.801 138.855 550.611C134.683 554.324 129.027 559.361 122.778 564.927C116.503 570.512 111.079 575.851 107.321 579.869C105.438 581.877 103.957 583.539 102.945 584.7C102.474 585.239 102.087 585.68 101.777 586.035C101.506 586.337 101.356 586.49 101.341 586.478C101.325 586.465 101.444 586.288 101.687 585.962C101.931 585.637 102.286 585.154 102.772 584.556C103.731 583.348 105.17 581.64 107.018 579.592C110.709 575.49 116.102 570.09 122.39 564.493C128.687 558.92 134.418 553.913 138.582 550.304C140.627 548.55 142.302 547.112 143.535 546.054C144.087 545.596 144.539 545.222 144.901 544.921C145.218 544.666 145.391 544.54 145.403 544.555Z" fill="#525076"/>
<path d="M116.004 570.606C115.839 570.533 117.15 567.506 118.457 563.677C119.776 559.85 120.396 556.619 120.564 556.647C120.717 556.662 120.345 559.987 119.011 563.864C118.354 565.8 117.629 567.502 117.058 568.71C116.486 569.918 116.076 570.639 116.004 570.606Z" fill="#525076"/>
<path d="M98.655 595.012C98.6234 595.035 98.2794 594.635 97.6878 593.889C97.0316 593.047 96.2005 591.982 95.21 590.712C93.1283 588.023 90.2515 584.309 87.0279 580.246C83.8016 576.182 80.8381 572.538 78.6904 569.9C77.6778 568.647 76.8289 567.597 76.1589 566.766C75.5673 566.02 75.2549 565.595 75.2852 565.569C75.3155 565.543 75.687 565.917 76.3308 566.619C76.9761 567.319 77.891 568.348 79.0055 569.635C81.2357 572.206 84.2529 575.815 87.4833 579.883C90.7124 583.951 93.5411 587.709 95.5388 590.465C96.539 591.842 97.3342 592.966 97.8694 593.754C98.406 594.541 98.6867 594.988 98.655 595.012Z" fill="#525076"/>
<path d="M90.928 585.094C90.8331 585.195 88.7721 582.75 87.6907 579.034C86.8941 576.416 86.8583 574.021 86.9573 572.926L87.2146 572.946C87.0991 573.414 87.0151 573.659 86.9684 573.652C86.923 573.645 86.9202 573.385 86.9587 572.905L87.216 572.926C87.3096 574.013 87.4747 576.324 88.2492 578.868C89.2921 582.468 91.0848 584.994 90.928 585.094Z" fill="#525076"/>
<path d="M80.9535 572.546C80.8778 572.627 80.216 571.791 78.6944 571.233C77.1851 570.65 74.9136 570.521 72.4206 570.734C69.9262 570.917 67.6974 571.361 66.1028 571.753C64.5082 572.148 63.5328 572.459 63.5025 572.377C63.4764 572.308 64.4037 571.859 65.9914 571.356C67.5763 570.856 69.8354 570.339 72.3766 570.152C74.8971 569.935 77.2883 570.129 78.8485 570.85C80.4307 571.553 81.0058 572.532 80.9535 572.546Z" fill="#525076"/>
<path d="M78.5915 569.505C78.5474 569.596 77.2748 568.977 75.1285 568.245C72.9863 567.508 69.9361 566.736 66.491 566.468C63.0446 566.21 59.9105 566.512 57.6816 566.916C55.4487 567.315 54.099 567.733 54.0687 567.637C54.0563 567.598 54.3824 567.462 54.9864 567.246C55.5876 567.022 56.4819 566.766 57.6005 566.512C59.8362 565.998 63.0253 565.624 66.5351 565.887C70.0421 566.159 73.1377 567.012 75.2702 567.859C76.3378 568.28 77.1826 568.668 77.7439 568.98C78.308 569.285 78.6093 569.47 78.5915 569.505Z" fill="#525076"/>
<path d="M96.0575 547.862C97.2958 552.746 98.4262 556.672 98.5824 556.632C98.7385 556.593 97.8613 552.602 96.623 547.719C95.3847 542.836 94.2543 538.909 94.0981 538.949C93.942 538.989 94.8192 542.979 96.0575 547.862Z" fill="#525076"/>
<path d="M98.7382 556.647C98.5648 556.703 97.837 554.08 95.9397 551.397C94.092 548.656 91.7352 547.282 91.8205 547.145C91.8508 547.085 92.5015 547.323 93.4096 547.965C94.3204 548.598 95.4458 549.673 96.4157 551.061C98.3873 553.854 98.8799 556.637 98.7382 556.647Z" fill="#525076"/>
<path d="M98.6181 672.212C98.5548 672.222 98.4364 671.242 97.9824 669.531C97.5339 667.819 96.6878 665.39 95.2886 662.55C92.5025 656.857 87.4339 649.639 80.9923 642.409C77.8004 638.762 74.7034 635.322 72.0756 632.028C69.4436 628.74 67.2794 625.605 65.7 622.832C64.115 620.062 63.0832 617.685 62.4819 616.008C62.1861 615.168 61.9688 614.511 61.8504 614.056C61.7225 613.605 61.6661 613.365 61.6853 613.36C61.7376 613.343 62.0307 614.283 62.6952 615.926C63.3583 617.569 64.4397 619.901 66.0577 622.623C67.6716 625.349 69.8536 628.436 72.4966 631.69C75.1354 634.949 78.2365 638.371 81.434 642.024C87.8921 649.273 92.9496 656.583 95.6628 662.368C97.0262 665.256 97.8214 667.731 98.2067 669.474C98.3938 670.348 98.519 671.028 98.5644 671.497C98.6167 671.965 98.6373 672.209 98.6181 672.212Z" fill="#525076"/>
<path d="M130.459 636.248C130.478 636.291 129.869 636.599 128.79 637.185C127.72 637.786 126.201 638.712 124.462 640.047C122.721 641.379 120.776 643.129 118.777 645.231C116.782 647.339 114.726 649.786 112.628 652.409C108.435 657.671 104.512 662.327 102.164 666.043C100.971 667.887 100.104 669.441 99.5357 670.531C98.9634 671.619 98.6593 672.23 98.6166 672.211C98.5988 672.203 98.6524 672.04 98.7707 671.738C98.8946 671.438 99.0638 670.986 99.3321 670.431C99.8398 669.304 100.657 667.709 101.814 665.823C104.095 662.016 107.986 657.297 112.173 652.043C114.275 649.415 116.355 646.963 118.387 644.858C120.424 642.757 122.421 641.02 124.213 639.715C126.004 638.41 127.572 637.526 128.683 636.983C129.236 636.705 129.687 636.534 129.986 636.406C130.288 636.284 130.451 636.229 130.459 636.248Z" fill="#525076"/>
<path d="M131.082 647.915C131.089 648 129.736 648.164 127.555 648.427C125.382 648.708 122.358 649.071 119.19 650.075C116.034 651.103 113.409 652.67 111.7 654.006C109.973 655.34 109.159 656.444 109.079 656.379C109.051 656.359 109.219 656.059 109.602 655.567C109.979 655.074 110.596 654.413 111.44 653.687C113.122 652.238 115.771 650.576 119.011 649.521C122.257 648.493 125.322 648.196 127.514 648.018C129.714 647.857 131.076 647.839 131.082 647.915Z" fill="#525076"/>
<path d="M110.108 655.097C109.924 654.992 111.515 652.565 112.747 649.299C113.904 646.004 114.175 643.113 114.383 643.148C114.459 643.158 114.455 643.88 114.324 645.041C114.185 646.197 113.907 647.805 113.295 649.499C112.678 651.19 111.871 652.604 111.249 653.588C110.62 654.57 110.174 655.137 110.108 655.097Z" fill="#525076"/>
<path d="M140.771 604.925C140.778 604.944 140.584 605.046 140.207 605.225C139.769 605.424 139.22 605.673 138.549 605.979C137.822 606.29 136.942 606.684 135.948 607.209C134.952 607.723 133.788 608.253 132.578 608.979C131.963 609.329 131.322 609.693 130.653 610.073C129.986 610.457 129.325 610.912 128.624 611.353C127.205 612.212 125.784 613.273 124.268 614.355C121.3 616.607 118.178 619.273 115.175 622.352C112.199 625.462 109.64 628.673 107.491 631.716C106.462 633.27 105.451 634.727 104.639 636.173C104.223 636.889 103.79 637.565 103.429 638.245C103.073 638.924 102.73 639.579 102.402 640.205C101.717 641.441 101.227 642.62 100.748 643.634C100.258 644.643 99.8949 645.538 99.6074 646.274C99.3253 646.955 99.0955 647.512 98.9112 647.957C98.7461 648.339 98.6498 648.537 98.6305 648.53C98.6113 648.523 98.6704 648.313 98.7997 647.917C98.9566 647.461 99.1533 646.89 99.3955 646.191C99.65 645.44 99.9857 644.529 100.448 643.503C100.902 642.472 101.367 641.274 102.033 640.019C102.352 639.384 102.686 638.719 103.033 638.03C103.385 637.341 103.812 636.654 104.221 635.928C105.02 634.46 106.021 632.983 107.046 631.411C109.187 628.328 111.755 625.081 114.754 621.948C117.782 618.844 120.938 616.168 123.947 613.924C125.484 612.845 126.926 611.794 128.365 610.945C129.078 610.512 129.748 610.062 130.425 609.686C131.103 609.316 131.755 608.96 132.38 608.619C133.61 607.91 134.791 607.404 135.807 606.916C136.818 606.418 137.716 606.052 138.458 605.771C139.149 605.505 139.711 605.289 140.161 605.117C140.555 604.973 140.764 604.907 140.771 604.925Z" fill="#525076"/>
<path d="M115.572 621.809C115.521 621.801 115.802 620.822 116.957 619.745C118.086 618.671 120.144 617.674 122.541 617.603C124.929 617.54 127.001 618.208 128.415 618.75C129.838 619.309 130.665 619.762 130.637 619.829C130.604 619.91 129.718 619.591 128.281 619.138C126.848 618.699 124.823 618.122 122.56 618.184C120.304 618.252 118.357 619.122 117.227 620.055C116.071 620.987 115.664 621.865 115.572 621.809Z" fill="#525076"/>
<path d="M111.803 625.695C111.644 625.606 113.065 623.523 113.388 620.537C113.761 617.557 112.857 615.203 113.033 615.153C113.097 615.126 113.415 615.674 113.688 616.655C113.964 617.63 114.147 619.053 113.968 620.605C113.785 622.155 113.28 623.497 112.787 624.384C112.295 625.276 111.86 625.735 111.803 625.695Z" fill="#525076"/>
</g>
<defs>
<clipPath id="clip0_136_8569">
<rect width="709" height="652" fill="white"/>
</clipPath>
</defs>
</svg>
