<svg width="16" height="16" viewBox="0 0 16 16" fill="none" xmlns="http://www.w3.org/2000/svg">
  <path d="M6.1998 2.25925C6.44668 2.62175 6.66855 3.20612 6.66855 4.06862V6.86862H7.41543L8.66855 8.14675H6.66855V11.7717C6.66855 12.0561 6.7748 12.3124 6.9873 12.5436C7.1998 12.7749 7.54668 12.8905 8.02793 12.8905C8.6498 12.8905 9.30605 12.5436 9.9998 11.8499C10.7092 11.1405 11.0842 10.4124 11.1186 9.6655L10.7998 9.69362C9.6623 9.69362 9.09355 9.0905 9.09355 7.88112C9.09355 7.47175 9.22793 7.10925 9.49355 6.78737C9.75918 6.46862 10.2029 6.30612 10.8248 6.30612C11.4811 6.30612 12.0342 6.5905 12.4779 7.15925C12.9404 7.728 13.1717 8.42175 13.1717 9.23737C13.1717 10.4467 12.6561 11.5999 11.6248 12.703C10.6123 13.803 8.6748 14.3561 7.9998 14.3561C6.91855 14.3561 6.50293 14.1436 6.1498 13.903C5.79668 13.6592 5.33418 13.0842 5.33418 12.3592V8.14675H4.05605L2.83105 6.86862H5.3373V4.33737C5.3373 3.77175 4.77168 3.46237 4.40293 3.43112C4.17793 3.41237 3.93105 3.47487 3.84355 3.5655C3.68418 3.29987 3.53105 2.978 3.39043 2.60612C3.39043 2.60612 3.51543 2.15612 3.9248 1.88737C4.20605 1.703 4.47168 1.64675 4.88418 1.64675C5.66855 1.64362 6.03105 2.01237 6.1998 2.25925Z" fill="#272454"></path>
</svg>