<svg width="782" height="528" viewBox="0 0 782 528" fill="none" xmlns="http://www.w3.org/2000/svg">
<path d="M178.26 345.71H135.79V356.95H178.26V345.71Z" fill="#EBEBEB"/>
<path d="M160.3 368.78C160.3 368.78 160.3 368.71 160.29 368.58C160.29 368.43 160.29 368.24 160.28 368C160.28 367.47 160.26 366.73 160.25 365.79C160.23 363.85 160.21 361.06 160.18 357.55L160.31 357.68C150.61 357.7 135.19 357.73 117.84 357.76C117.94 357.66 117.62 357.98 118.05 357.54V358.26V358.98C118.05 359.46 118.05 359.94 118.05 360.41C118.05 361.36 118.05 362.31 118.05 363.25C118.05 365.13 118.05 366.97 118.05 368.78L117.84 368.57C129.93 368.61 140.52 368.64 148.11 368.67C151.89 368.7 154.93 368.72 157.04 368.73C158.07 368.74 158.88 368.75 159.46 368.76C159.72 368.76 159.93 368.77 160.09 368.77C160.23 368.77 160.31 368.77 160.31 368.78C160.31 368.78 160.25 368.78 160.11 368.79C159.95 368.79 159.75 368.79 159.5 368.8C158.93 368.8 158.14 368.82 157.13 368.83C155.02 368.84 152 368.86 148.24 368.89C140.61 368.91 129.98 368.95 117.82 368.99H117.61V368.78C117.61 366.97 117.61 365.13 117.61 363.25C117.61 362.31 117.61 361.37 117.61 360.41C117.61 359.93 117.61 359.46 117.61 358.98V358.26V357.9V357.56V357.54C118.04 357.1 117.73 357.42 117.83 357.32C135.18 357.35 150.6 357.39 160.3 357.4H160.43V357.53C160.4 361.08 160.37 363.89 160.36 365.85C160.35 366.78 160.34 367.51 160.33 368.03C160.33 368.26 160.32 368.44 160.32 368.58C160.32 368.7 160.32 368.76 160.31 368.76L160.3 368.78Z" fill="#E0E0E0"/>
<g opacity="0.22">
<path fill-rule="evenodd" clip-rule="evenodd" d="M449.253 35.8575L431.136 53.9744C431.068 54.0419 431.004 54.113 430.945 54.1875H471.324L453.006 35.8696C453.002 35.8655 452.998 35.8615 452.994 35.8575C452.494 35.3694 451.823 35.0959 451.124 35.0959C450.425 35.0959 449.753 35.3694 449.253 35.8575ZM526.548 54.1875H566.92C566.853 54.1011 566.779 54.0173 566.698 53.9367L548.631 35.8696C548.627 35.8656 548.623 35.8617 548.619 35.8578C548.119 35.3695 547.448 35.0959 546.749 35.0959C546.049 35.0959 545.378 35.3695 544.878 35.8578C544.874 35.8617 544.87 35.8656 544.866 35.8696L526.548 54.1875ZM586.512 54.1875C586.166 49.1736 584.066 44.2572 580.222 40.4133L562.117 22.3083L562.079 22.2704C557.997 18.2345 552.489 15.9709 546.749 15.9709C541.009 15.9709 535.5 18.2345 531.419 22.2704L531.381 22.3083L499.502 54.1875H498.371L466.492 22.3083L466.454 22.2704C462.372 18.2345 456.864 15.9709 451.124 15.9709C445.384 15.9709 439.875 18.2345 435.794 22.2704L417.667 40.3973C413.951 44.0823 411.715 48.988 411.358 54.1875H403.375C391.704 54.1875 382.288 57.6929 376.03 65.0402C370.022 72.0941 368.312 81.099 368.312 89.25V102C368.312 110.151 370.022 119.156 376.03 126.21C379.018 129.718 382.726 132.35 387.055 134.143V229.5C387.055 249.155 390.207 265.301 401.012 276.105C411.817 286.91 427.963 290.062 447.617 290.062H549.618C569.272 290.062 585.418 286.91 596.223 276.105C607.028 265.301 610.18 249.155 610.18 229.5V134.322C614.655 132.53 618.502 129.857 621.609 126.296C627.682 119.335 629.688 110.385 629.688 102V89.25C629.688 80.8654 627.682 71.9149 621.609 64.9542C615.33 57.7563 606.027 54.1875 594.625 54.1875H586.512ZM591.055 137.062H406.18V229.5C406.18 248.095 409.403 257.449 414.535 262.582C419.668 267.715 429.022 270.937 447.617 270.937H549.618C568.213 270.937 577.567 267.715 582.7 262.582C587.832 257.449 591.055 248.095 591.055 229.5V137.062ZM594.625 117.937C601.966 117.937 605.413 115.769 607.198 113.723C609.189 111.44 610.562 107.64 610.562 102V89.25C610.562 83.6096 609.189 79.8101 607.198 77.527C605.413 75.4812 601.966 73.3125 594.625 73.3125H403.375C395.539 73.3125 392.205 75.5446 390.59 77.441C388.724 79.6308 387.438 83.376 387.438 89.25V102C387.438 107.874 388.724 111.619 390.59 113.809C392.205 115.705 395.539 117.937 403.375 117.937H594.625Z" fill="white"/>
<path fill-rule="evenodd" clip-rule="evenodd" d="M450.423 127.5C450.423 122.219 454.704 117.938 459.985 117.938H536.868C542.149 117.938 546.43 122.219 546.43 127.5V192.903C546.43 192.905 546.43 192.902 546.43 192.903C546.431 196.934 545.338 200.894 543.268 204.353C541.197 207.813 538.226 210.646 534.671 212.549C531.116 214.453 527.111 215.355 523.084 215.161C519.056 214.967 515.157 213.683 511.801 211.447L511.76 211.419L500.469 203.807C499.955 203.477 499.357 203.301 498.745 203.301C498.123 203.301 497.515 203.483 496.995 203.825C496.994 203.825 496.996 203.824 496.995 203.825L484.913 211.793C470.134 221.279 450.423 210.948 450.423 193.035V127.5ZM469.548 137.062V193.035C469.548 195.509 472.25 197.16 474.548 195.72L486.468 187.857C490.111 185.458 494.383 184.176 498.745 184.176C503.108 184.176 507.374 185.455 511.017 187.854L511.104 187.911L522.423 195.543C522.895 195.853 523.441 196.031 524.004 196.058C524.574 196.086 525.14 195.958 525.643 195.689C526.145 195.42 526.565 195.019 526.858 194.53C527.151 194.041 527.306 193.482 527.305 192.912V137.062H469.548Z" fill="white"/>
</g>
<path d="M80.3839 158.9C90.8404 155.855 96.8479 144.909 93.8021 134.452C90.7563 123.996 79.8105 117.988 69.354 121.034C58.8976 124.08 52.89 135.026 55.9358 145.482C58.9816 155.939 69.9274 161.946 80.3839 158.9Z" fill="white"/>
<path d="M74.8705 159.69C74.8705 159.69 74.7605 159.67 74.5505 159.65C74.3205 159.63 74.0105 159.61 73.6105 159.58C73.4005 159.57 73.1705 159.55 72.9205 159.54C72.6705 159.51 72.3905 159.46 72.1005 159.41C71.5105 159.31 70.8205 159.22 70.0705 158.99C68.5505 158.64 66.7505 157.92 64.8505 156.8C62.9605 155.67 60.9805 154.03 59.3005 151.81C57.6405 149.59 56.2205 146.8 55.6505 143.57C55.1005 140.37 55.2005 136.75 56.5105 133.3C56.7905 132.42 57.2205 131.6 57.6305 130.75C58.1205 129.95 58.5605 129.1 59.1705 128.36C59.7205 127.57 60.4005 126.87 61.0505 126.14C61.7805 125.48 62.4905 124.79 63.3105 124.23C64.9205 123.07 66.7205 122.05 68.6905 121.44C70.6505 120.8 72.7305 120.46 74.8505 120.43C76.9705 120.46 79.0505 120.8 81.0105 121.44C82.9805 122.05 84.7805 123.07 86.3905 124.23C87.2205 124.8 87.9305 125.49 88.6605 126.14C89.3205 126.87 90.0005 127.56 90.5405 128.36C91.1505 129.11 91.5905 129.95 92.0805 130.76C92.4905 131.61 92.9205 132.43 93.2005 133.31C94.5105 136.75 94.6105 140.37 94.0605 143.58C93.4905 146.81 92.0805 149.6 90.4105 151.82C88.7305 154.04 86.7505 155.68 84.8605 156.81C82.9605 157.93 81.1605 158.65 79.6405 159C78.8905 159.23 78.2005 159.32 77.6105 159.42C77.3105 159.47 77.0405 159.52 76.7905 159.55C76.5405 159.57 76.3105 159.58 76.1005 159.59C75.7005 159.62 75.3905 159.64 75.1605 159.66C74.9505 159.68 74.8405 159.69 74.8405 159.7C74.8405 159.71 74.9505 159.7 75.1605 159.7C75.3905 159.7 75.7005 159.68 76.1005 159.67C76.3105 159.67 76.5405 159.65 76.7905 159.64C77.0405 159.62 77.3205 159.57 77.6205 159.53C78.2205 159.45 78.9105 159.37 79.6705 159.15C81.2105 158.82 83.0305 158.12 84.9605 157C86.8905 155.87 88.9005 154.23 90.6205 151.99C92.3205 149.75 93.7705 146.92 94.3705 143.64C94.9405 140.38 94.8505 136.7 93.5305 133.19C93.2505 132.3 92.8105 131.46 92.3905 130.59C91.9005 129.77 91.4405 128.91 90.8305 128.15C90.2805 127.34 89.5805 126.63 88.9105 125.89C88.1705 125.22 87.4405 124.51 86.6005 123.94C84.9605 122.75 83.1305 121.72 81.1105 121.09C79.1105 120.44 76.9905 120.09 74.8205 120.06C72.6605 120.09 70.5405 120.44 68.5405 121.09C66.5305 121.72 64.7005 122.75 63.0605 123.94C62.2205 124.52 61.4905 125.22 60.7505 125.89C60.0805 126.63 59.3905 127.34 58.8305 128.15C58.2105 128.91 57.7605 129.77 57.2705 130.59C56.8605 131.45 56.4205 132.29 56.1305 133.19C54.8505 136.71 54.7605 140.39 55.3405 143.64C55.9305 146.92 57.3805 149.75 59.0805 151.99C60.8005 154.23 62.8105 155.87 64.7405 157C66.6705 158.12 68.5005 158.82 70.0305 159.15C70.7905 159.37 71.4805 159.45 72.0805 159.53C72.3805 159.57 72.6605 159.62 72.9105 159.64C73.1605 159.64 73.3905 159.66 73.6005 159.67C74.0005 159.68 74.3105 159.69 74.5405 159.7C74.7505 159.7 74.8605 159.7 74.8605 159.7L74.8705 159.69Z" fill="#263238"/>
<path d="M70.3103 136.35H72.9503C72.9503 136.35 72.9503 134.13 75.2603 134.09C76.4603 134.07 77.0803 134.85 77.3303 135.45C77.6203 136.15 77.5303 136.94 77.1403 137.59C76.6903 138.33 75.7103 139 73.9303 138.69V144.65H76.5403V141.16C76.5403 141.16 80.2003 140.21 80.2003 136.18C80.2003 132.15 76.7403 131.42 75.2503 131.42C74.1203 131.42 70.2503 131.69 70.3003 136.35H70.3103Z" fill="#263238"/>
<path d="M76.5699 145.87H73.9199V148.35H76.5699V145.87Z" fill="#263238"/>
<path d="M95.98 158.72C97.63 158.72 98.96 157.39 98.96 155.74C98.96 154.09 97.62 152.76 95.98 152.76C94.34 152.76 93 154.1 93 155.74C93 157.38 94.33 158.72 95.98 158.72Z" fill="white"/>
<path d="M95.9802 158.72C95.9802 158.72 95.7102 158.68 95.2702 158.55C94.8402 158.42 94.2102 158.11 93.7302 157.45C93.2502 156.81 92.9902 155.78 93.3602 154.79C93.7102 153.8 94.7502 152.96 95.9802 152.97C97.2002 152.96 98.2502 153.81 98.6002 154.79C98.9802 155.78 98.7102 156.82 98.2302 157.45C97.7502 158.11 97.1202 158.41 96.6902 158.55C96.2502 158.68 95.9802 158.68 95.9802 158.72C95.9802 158.74 96.2502 158.8 96.7302 158.71C97.2002 158.62 97.9102 158.34 98.4702 157.64C99.0302 156.96 99.3702 155.81 98.9602 154.66C98.5902 153.53 97.3902 152.54 95.9802 152.55C94.5702 152.54 93.3702 153.53 93.0002 154.66C92.5902 155.8 92.9302 156.96 93.4902 157.64C94.0502 158.34 94.7602 158.63 95.2302 158.71C95.7102 158.8 95.9802 158.74 95.9802 158.72Z" fill="#263238"/>
<path d="M508.55 123.95C503.49 112.33 489.97 107.01 478.35 112.07C466.73 117.13 461.41 130.65 466.47 142.27C471.53 153.89 485.05 159.21 496.67 154.15C501.52 152.04 505.27 148.45 507.63 144.14L515.1 142.01L510.24 136.33C510.82 132.27 510.32 128 508.56 123.95H508.55Z" fill="white"/>
<path d="M508.55 123.95C508.55 123.95 509.1 124.97 509.71 127.05C510.29 129.12 510.9 132.32 510.35 136.34L510.32 136.24C511.76 137.91 513.4 139.82 515.2 141.91C515.25 141.97 515.25 142.07 515.18 142.12C515.16 142.13 515.14 142.14 515.12 142.15C512.85 142.81 510.34 143.54 507.66 144.31C507.57 144.34 507.48 144.28 507.45 144.19C507.45 144.16 507.45 144.13 507.45 144.1C507.45 144.1 507.45 144.1 507.45 144.09L507.76 144.21C506.22 147.04 503.95 149.78 500.95 151.93C499.45 152.99 497.8 153.94 495.98 154.61C495.53 154.78 495.07 154.95 494.61 155.13C494.14 155.28 493.66 155.39 493.18 155.52C492.23 155.82 491.23 155.92 490.23 156.09C488.22 156.28 486.13 156.35 484.04 155.98L483.26 155.87L482.49 155.69C481.97 155.56 481.45 155.46 480.94 155.31C479.92 154.97 478.89 154.65 477.91 154.16C476.9 153.75 475.97 153.15 475.01 152.61C474.11 151.97 473.17 151.36 472.35 150.6C471.47 149.9 470.73 149.04 469.95 148.23C469.26 147.33 468.51 146.46 467.94 145.46C466.56 143.23 465.48 140.81 464.95 138.3C464.39 135.8 464.24 133.25 464.48 130.78C464.7 128.3 465.41 125.93 466.36 123.75C466.81 122.64 467.43 121.63 468.02 120.62C468.69 119.67 469.34 118.7 470.12 117.87L470.68 117.23C470.87 117.02 471.09 116.84 471.29 116.64C471.7 116.26 472.09 115.86 472.52 115.5C473.4 114.82 474.24 114.11 475.18 113.58C476.07 112.97 477.05 112.53 477.98 112.06C478.44 111.81 478.95 111.68 479.43 111.48C479.92 111.32 480.38 111.08 480.88 110.98C484.77 109.85 488.65 109.75 492.02 110.46C495.4 111.16 498.26 112.52 500.51 114.06C501.65 114.81 502.59 115.67 503.47 116.44C504.26 117.3 505.04 118.04 505.59 118.83C505.88 119.21 506.16 119.57 506.41 119.91C506.63 120.27 506.84 120.61 507.04 120.92C507.23 121.23 507.41 121.52 507.57 121.79C507.71 122.07 507.83 122.32 507.94 122.55C508.15 122.99 508.31 123.34 508.43 123.59C508.54 123.82 508.58 123.95 508.58 123.95C508.58 123.95 508.51 123.84 508.39 123.61C508.26 123.36 508.09 123.03 507.86 122.6C507.74 122.38 507.62 122.13 507.47 121.85C507.3 121.59 507.12 121.3 506.92 121C506.72 120.69 506.51 120.36 506.28 120C506.03 119.66 505.74 119.31 505.45 118.94C504.89 118.16 504.12 117.44 503.32 116.6C502.45 115.84 501.51 115 500.37 114.27C498.13 112.77 495.3 111.44 491.96 110.77C488.64 110.08 484.81 110.21 480.99 111.33C480.5 111.44 480.05 111.67 479.57 111.83C479.1 112.02 478.6 112.16 478.15 112.4C477.23 112.86 476.27 113.3 475.4 113.9C474.48 114.43 473.65 115.13 472.79 115.8C472.38 116.15 471.99 116.55 471.59 116.93C471.39 117.12 471.18 117.31 471 117.51L470.45 118.15C469.68 118.97 469.06 119.92 468.4 120.86C467.83 121.85 467.22 122.84 466.78 123.93C465.85 126.08 465.16 128.4 464.94 130.83C464.71 133.26 464.86 135.76 465.41 138.21C465.94 140.67 466.99 143.05 468.35 145.23C468.91 146.21 469.64 147.06 470.32 147.94C471.09 148.74 471.81 149.59 472.68 150.27C473.48 151.02 474.41 151.62 475.29 152.25C476.23 152.78 477.14 153.37 478.14 153.77C479.1 154.25 480.12 154.56 481.11 154.9C481.61 155.06 482.13 155.15 482.64 155.28L483.4 155.46L484.17 155.57C486.21 155.94 488.27 155.86 490.24 155.69C491.22 155.52 492.21 155.43 493.14 155.13C493.61 155 494.08 154.89 494.54 154.75C494.99 154.58 495.44 154.41 495.89 154.24C497.68 153.59 499.31 152.65 500.79 151.62C503.74 149.52 505.99 146.83 507.52 144.05C507.57 143.97 507.67 143.94 507.75 143.98C507.82 144.02 507.85 144.1 507.83 144.17V144.18L507.62 143.98C510.3 143.22 512.82 142.5 515.09 141.86L515.02 142.1C513.24 140 511.61 138.08 510.18 136.4C510.16 136.37 510.15 136.34 510.15 136.3C510.72 132.32 510.16 129.14 509.63 127.07C509.36 126.03 509.07 125.25 508.89 124.73C508.8 124.48 508.72 124.29 508.66 124.14C508.61 124.01 508.59 123.94 508.59 123.94L508.55 123.95Z" fill="#263238"/>
<path d="M482.73 129.21H485.67C485.67 129.21 485.67 126.74 488.24 126.7C489.57 126.68 490.26 127.55 490.54 128.22C490.87 129 490.77 129.88 490.33 130.6C489.83 131.42 488.74 132.17 486.76 131.82V138.45H489.67V134.57C489.67 134.57 493.75 133.52 493.75 129.02C493.75 124.52 489.89 123.72 488.24 123.72C486.98 123.72 482.68 124.03 482.73 129.21Z" fill="#263238"/>
<path d="M489.7 139.81H486.75V142.57H489.7V139.81Z" fill="#263238"/>
<path d="M534.65 138.2C532.62 138.47 530.5 137.01 530.02 135.02C529.55 133.02 530.78 130.77 532.72 130.09C531.43 128.82 531.07 126.69 531.87 125.06C532.67 123.43 534.58 122.42 536.38 122.67C536.42 120.88 537.46 119.14 539.02 118.25C540.58 117.36 542.6 117.36 544.16 118.25C546.11 116.51 549.3 116.39 551.37 117.97C553.1 117.61 555.02 118.51 555.87 120.06C556.72 121.61 556.43 123.71 555.19 124.97" fill="#263238"/>
<path d="M552.36 122.09L551.44 122.11C542.18 122.3 534.62 129.56 534.06 138.81C533.54 147.41 533.08 156.91 533.23 161.52C533.54 171.05 543.11 172.34 543.11 172.34L542.54 183.81L551.01 191.04L565.67 182.62L566.88 141.03C567.53 131.11 562.31 122.47 552.37 122.09H552.36Z" fill="#FFBF9D"/>
<path d="M543.099 172.33C543.099 172.33 549.119 172.56 555.439 168.41C555.439 168.41 552.509 175.36 542.979 174.69L543.099 172.33Z" fill="#FF9A6C"/>
<path d="M534.889 134.41C534.889 134.41 537.279 128.39 540.129 126.94C543.579 125.18 545.159 128.98 548.459 127.98C551.759 126.98 555.059 125.3 558.499 127.8C562.269 130.54 560.569 132.54 560.889 136.77C562.169 153.9 565.399 158.69 566.129 150.59C566.209 149.7 568.649 148.95 568.939 145.2C569.309 140.34 569.379 134.45 568.229 131.03C567.259 128.15 565.559 126.18 562.549 124.03C557.799 120.64 551.369 120.69 547.009 121.22C542.649 121.75 534.329 126.94 534.879 134.41H534.889Z" fill="#263238"/>
<path d="M565.52 150.34C565.55 148.87 566.79 147.68 568.26 147.79C570.04 147.92 572.04 148.89 572 152.57C571.92 159.09 565.39 157.67 565.38 157.48C565.38 157.35 565.46 153.07 565.52 150.34Z" fill="#FFBF9D"/>
<path d="M566.83 155.05C566.83 155.05 566.94 155.13 567.13 155.22C567.32 155.31 567.64 155.37 567.98 155.25C568.67 155.01 569.27 153.92 569.31 152.74C569.33 152.15 569.22 151.58 569.01 151.11C568.82 150.63 568.51 150.29 568.17 150.23C567.83 150.15 567.58 150.35 567.5 150.53C567.41 150.71 567.45 150.84 567.42 150.85C567.4 150.87 567.28 150.74 567.34 150.47C567.37 150.34 567.45 150.19 567.6 150.06C567.76 149.93 567.99 149.87 568.23 149.9C568.73 149.94 569.18 150.41 569.41 150.92C569.66 151.44 569.81 152.08 569.78 152.74C569.72 154.05 569.04 155.28 568.09 155.54C567.63 155.65 567.25 155.51 567.05 155.36C566.85 155.2 566.82 155.05 566.84 155.04L566.83 155.05Z" fill="#FF9A6C"/>
<path d="M565.14 137.71C564.31 138.3 563.42 138.92 562.4 139.04C561.38 139.16 560.2 138.6 560.01 137.59C559.92 137.14 560.02 136.61 559.72 136.26C559.36 135.85 558.7 135.99 558.16 136.06C556.27 136.3 554.01 134.25 553.49 132.42C553.02 133.15 551.97 133.39 551.23 132.94C550.49 132.48 550.22 132.22 549.63 131.58C549.04 130.94 548.23 130.37 547.37 130.51C546.89 130.59 546.44 130.88 545.96 130.85C545.1 130.79 544.66 129.8 544.52 128.95C544.37 128.1 544.25 127.11 543.52 126.67C542.84 126.26 541.97 126.52 541.19 126.65C540.4 126.78 539.38 126.62 539.17 125.85C539.06 125.45 539.22 125.02 539.44 124.66C540.42 123.04 542.62 122.29 544.39 122.96C544.98 120.79 546.96 119.08 549.19 118.79C551.42 118.51 553.76 119.68 554.88 121.63C556.23 120.35 558.22 119.79 560.05 120.16C561.88 120.53 563.48 121.85 564.21 123.56C565.79 123.11 567.61 123.69 568.64 124.96C569.67 126.24 569.85 128.14 569.08 129.58C570.27 130.23 571.29 131.37 571.34 132.72C571.39 134.07 570.1 135.44 568.8 135.11C569.35 136.15 568.95 137.58 567.94 138.19C566.93 138.8 565.48 138.48 564.81 137.51" fill="#263238"/>
<path d="M543.93 124.89C543.93 124.89 543.93 124.93 543.93 125.01C543.94 125.09 543.95 125.21 543.98 125.36C544.05 125.66 544.18 126.1 544.48 126.61C544.78 127.11 545.25 127.68 545.96 128.12C546.65 128.57 547.59 128.91 548.65 128.83L548.54 128.69C548.35 129.25 548.42 129.92 548.71 130.49C548.98 131.07 549.41 131.58 549.86 132.07C550.09 132.31 550.29 132.59 550.6 132.8C550.91 133.01 551.27 133.12 551.64 133.16C552.38 133.24 553.2 132.99 553.72 132.37L553.47 132.31C553.66 133.6 554.43 134.88 555.61 135.65C556.24 136.09 557.01 136.34 557.76 136.31C558.51 136.29 559.21 136.05 559.86 135.8L559.68 135.73C560.05 136.53 560.6 137.21 561.26 137.71C561.91 138.21 562.77 138.49 563.54 138.28C565.07 137.92 566.07 136.62 566.25 135.41L566.1 135.48C566.87 135.88 567.69 135.9 568.35 135.76C569.01 135.62 569.53 135.32 569.9 135.03C570.27 134.73 570.48 134.43 570.61 134.22C570.73 134 570.78 133.88 570.77 133.88C570.74 133.85 570.56 134.38 569.83 134.95C569.46 135.22 568.96 135.5 568.32 135.61C567.69 135.73 566.91 135.69 566.2 135.31L566.08 135.24L566.06 135.38C565.88 136.51 564.92 137.72 563.5 138.04C562.8 138.22 562.04 137.97 561.43 137.5C560.81 137.03 560.28 136.38 559.94 135.62L559.89 135.5L559.77 135.55C559.13 135.79 558.46 136.01 557.76 136.03C557.06 136.06 556.37 135.83 555.77 135.42C554.65 134.69 553.93 133.5 553.74 132.27L553.69 131.96L553.49 132.2C553.05 132.74 552.31 132.97 551.65 132.9C551.32 132.87 550.99 132.77 550.73 132.59C550.47 132.42 550.26 132.14 550.03 131.9C549.58 131.41 549.17 130.93 548.91 130.39C548.63 129.86 548.57 129.27 548.74 128.76L548.79 128.6H548.63C547.64 128.7 546.73 128.4 546.06 127.98C545.37 127.56 544.91 127.02 544.59 126.55C543.98 125.58 543.98 124.89 543.94 124.9L543.93 124.89Z" fill="#455A64"/>
<path d="M458.31 227.21C458.26 226.96 458.05 223.11 455.83 220.22C453.62 217.33 451.94 215.3 450.78 213.61C449.62 211.91 448.58 210.81 447.7 212.86C446.81 214.91 448.15 217.01 449.32 218.35C450.49 219.69 451.59 220.25 450.23 221.34C448.87 222.43 444.47 221.7 442.3 221.1C440.14 220.5 435.16 219.98 432.58 219.92C430 219.86 429.66 221.17 429.66 221.17C429.66 221.17 428.63 220.51 427.1 221.19C425.57 221.87 426.47 223.18 426.47 223.18L427.27 223.63C427.27 223.63 426.11 225.21 427.73 226.19C429.36 227.17 436.65 229.4 436.65 229.4C436.65 229.4 430.9 228.06 429.66 228.5C428.43 228.94 429.04 230.24 429.81 230.52C430.58 230.8 443.58 234.46 445.34 235.23C447.1 236 455.98 236.08 455.98 236.08L458.31 227.22V227.21Z" fill="#FFBF9D"/>
<path d="M439.78 227.28C439.73 227.42 436.98 226.51 433.58 225.45C430.18 224.38 427.41 223.55 427.44 223.41C427.47 223.27 430.32 223.88 433.73 224.95C437.15 226.02 439.82 227.15 439.77 227.28H439.78Z" fill="#FF9A6C"/>
<path d="M441.87 224.06C441.83 224.2 439.08 223.44 435.69 222.58C432.29 221.72 429.52 221.08 429.55 220.93C429.57 220.79 432.4 221.2 435.82 222.07C439.24 222.93 441.92 223.92 441.88 224.05L441.87 224.06Z" fill="#FF9A6C"/>
<path d="M452.37 229.07C452.34 229.12 451.85 228.93 451.31 228.29C450.77 227.67 450.28 226.58 450.18 225.33C450.08 224.08 450.3 222.97 450.49 222.2C450.69 221.43 450.86 220.97 450.93 220.98C451 220.99 450.96 221.49 450.85 222.27C450.76 223.05 450.6 224.12 450.69 225.29C450.78 226.45 451.18 227.45 451.6 228.08C452.02 228.72 452.41 229.01 452.36 229.08L452.37 229.07Z" fill="#FF9A6C"/>
<path d="M532.09 423.68L532.83 443.83C532.83 443.83 513.24 451.37 513.03 455.11L550.92 455.03L551.01 423.59L532.09 423.68Z" fill="#263238"/>
<path d="M544.54 442.11C545.27 442.32 545.78 443.17 545.61 443.93C545.44 444.7 544.61 445.24 543.87 445.04C543.13 444.85 542.49 443.85 542.74 443.11C542.99 442.37 544 441.79 544.67 442.16" fill="#E0E0E0"/>
<path d="M550.92 455.03L550.81 451.86L514.52 453.12C514.52 453.12 512.83 453.88 513.03 455.11L550.92 455.03Z" fill="#455A64"/>
<path d="M532.22 443.63C532.22 443.82 533.15 443.91 534.06 444.52C534.99 445.11 535.46 445.93 535.63 445.86C535.8 445.82 535.52 444.68 534.41 443.96C533.3 443.23 532.18 443.46 532.22 443.63Z" fill="white"/>
<path d="M528.24 445.34C528.2 445.53 529 445.85 529.63 446.65C530.28 447.44 530.44 448.31 530.63 448.3C530.8 448.33 530.93 447.21 530.13 446.22C529.34 445.23 528.25 445.15 528.24 445.33V445.34Z" fill="white"/>
<path d="M526 450.25C526.17 450.29 526.42 449.34 525.95 448.29C525.48 447.24 524.61 446.83 524.53 446.99C524.43 447.15 524.99 447.71 525.37 448.57C525.77 449.42 525.82 450.23 526.01 450.25H526Z" fill="white"/>
<path d="M532.541 439.02C532.621 439.19 533.471 438.93 534.511 439C535.561 439.05 536.371 439.41 536.471 439.25C536.581 439.11 535.781 438.41 534.551 438.34C533.321 438.26 532.451 438.87 532.541 439.02Z" fill="white"/>
<path d="M575.85 423.81L577.9 448.11L574.15 467.81C573.88 469.23 574.83 470.59 576.22 470.77C577 470.87 577.77 470.58 578.3 469.99C581.68 466.19 594.03 452.14 593.78 450.37C593.49 448.32 593.26 424.59 593.26 424.59L575.83 423.81H575.85Z" fill="#263238"/>
<path d="M576.23 470.77L593.69 448.73L593.75 449.76C593.81 450.65 593.56 451.53 593.04 452.25C591.66 454.17 587.72 459.37 578.38 469.98C577.84 470.6 577.03 470.89 576.23 470.77Z" fill="#455A64"/>
<g opacity="0.6">
<path d="M588.371 441.2C587.811 441.66 587.671 442.6 588.091 443.2C588.511 443.8 589.431 443.95 590.011 443.5C590.581 443.05 590.781 441.93 590.291 441.38C589.801 440.83 588.711 440.72 588.261 441.29" fill="white"/>
</g>
<path d="M580.961 459.78C580.831 459.86 580.221 458.62 578.771 458.02C577.341 457.38 576.061 457.81 576.021 457.66C576.001 457.6 576.281 457.39 576.831 457.28C577.371 457.16 578.17 457.19 578.97 457.53C579.76 457.87 580.351 458.44 580.651 458.92C580.961 459.4 581.021 459.76 580.961 459.78Z" fill="white"/>
<path d="M579.48 463.15C579.37 463.26 578.57 462.52 577.33 462.24C576.09 461.93 575.06 462.24 575.01 462.09C574.93 461.97 576.04 461.38 577.45 461.72C578.86 462.05 579.61 463.08 579.49 463.15H579.48Z" fill="white"/>
<path d="M583.82 455.4C583.72 455.52 582.48 454.38 580.59 453.77C578.7 453.13 577.06 453.32 577.04 453.16C576.99 453.03 578.72 452.58 580.75 453.26C582.78 453.92 583.93 455.33 583.82 455.4Z" fill="white"/>
<path d="M583.801 447.96C583.751 448.11 582.411 447.63 580.711 447.68C579.011 447.71 577.691 448.24 577.631 448.09C577.561 447.98 578.871 447.18 580.701 447.14C582.531 447.09 583.871 447.83 583.801 447.95V447.96Z" fill="white"/>
<path d="M583.37 440.81C583.31 440.96 581.95 440.23 580.16 440.43C578.37 440.59 577.17 441.58 577.08 441.45C577.04 441.4 577.28 441.08 577.8 440.72C578.32 440.36 579.14 440 580.1 439.9C581.06 439.8 581.94 439.99 582.52 440.24C583.1 440.49 583.4 440.76 583.36 440.81H583.37Z" fill="white"/>
<path d="M580.121 439.07C580.121 439.07 580.021 438.75 580.031 438.15C580.051 437.56 580.161 436.68 580.591 435.69C580.821 435.22 581.051 434.62 581.681 434.26C582.001 434.08 582.491 434.11 582.791 434.41C583.091 434.71 583.201 435.1 583.231 435.48C583.301 437.03 582.111 438.61 580.441 438.94C578.761 439.24 577.171 438.35 576.421 437.06C576.251 436.72 576.121 436.31 576.281 435.88C576.431 435.45 576.901 435.26 577.241 435.29C577.951 435.35 578.411 435.74 578.851 436.02C579.701 436.64 580.251 437.32 580.581 437.8C580.911 438.29 581.021 438.6 580.991 438.62C580.911 438.69 580.321 437.46 578.651 436.33C578.231 436.07 577.741 435.74 577.241 435.73C576.991 435.73 576.791 435.84 576.711 436.05C576.631 436.25 576.711 436.55 576.841 436.82C577.471 437.87 578.931 438.69 580.351 438.41C581.761 438.14 582.811 436.75 582.761 435.51C582.741 435.21 582.651 434.91 582.481 434.75C582.321 434.59 582.081 434.55 581.871 434.66C581.421 434.88 581.151 435.41 580.921 435.86C580.041 437.71 580.231 439.09 580.121 439.07Z" fill="white"/>
<path d="M517.05 291.01C517.05 291.01 517.07 291.01 517.07 291C517.19 288.43 517.42 285.54 517.7 283.42C519.93 284.13 525.41 271.79 527.75 272.24C533.87 273.29 543.2 271.69 549.54 271.17C562.38 270.05 570.79 281.09 584.07 277.02L586.05 292.61L590.91 367.33L594.44 443.45H572.48C572.48 443.45 564.74 384.91 564.14 376.81C563.47 367.79 552.99 311.81 552.99 311.81L551.09 311.32L552.26 442.53H529.52C529.52 442.53 517.21 301.53 517.03 296.52C516.96 294.62 516.97 292.78 517.03 291.02L517.05 291.01Z" fill="#263238"/>
<path d="M540.67 177.9L542.29 173.32L552.9 182.02L566.39 171.85L568.27 175.75L574.88 179.47L564.62 204.82L552.29 221.61L543.51 224.52L535.83 201.03L537.89 181.19L540.67 177.9Z" fill="#E0E0E0"/>
<path d="M526.12 280.17L539.41 289.22L548.18 278.19L560.67 289.22L575.82 278.19L572.37 184.28L569.45 179.47C569.45 179.47 564.13 204.36 548.45 219.64C548.45 219.64 537.02 205.21 536.49 190.5L530.91 190.78L529.32 259.52L526.13 280.17H526.12Z" fill="#263238"/>
<g opacity="0.3">
<path d="M526.12 280.17L539.41 289.22L548.18 278.19L560.67 289.22L575.82 278.19L572.37 184.28L569.45 179.47C569.45 179.47 564.13 204.36 548.45 219.64C548.45 219.64 537.02 205.21 536.49 190.5L530.91 190.78L529.32 259.52L526.13 280.17H526.12Z" fill="black"/>
</g>
<path d="M547.92 187.72L550.58 191.36H554.28L556.84 187.72L552.89 182.03C551.49 184.04 549.83 185.94 547.91 187.72H547.92Z" fill="#263238"/>
<path d="M461.25 223.94C464.93 224.25 488.25 225.74 488.25 225.74L502.73 210.59C502.73 210.59 502.73 208.04 504.59 205.78C506.45 203.52 512.3 186.83 514.69 185.7C517.08 184.57 517.27 227.51 517.27 227.51C517.27 227.51 498.35 245.1 494.63 246.51C490.91 247.92 457.71 240.67 457.71 240.67L461.26 223.94H461.25Z" fill="#263238"/>
<path d="M540.74 177.21C539.41 177.78 514.69 185.7 514.69 185.7L519.26 252.28L510.46 302.45C510.46 302.45 517.35 306.49 523.6 302.25C529.85 298.01 534.63 264.91 534.63 264.91C534.63 264.91 536.76 218.52 536.76 217.67C536.76 216.82 540.75 177.22 540.75 177.22L540.74 177.21Z" fill="#263238"/>
<path d="M593.14 185.67C593.14 185.67 568.65 174.94 568.91 175.79C569.18 176.64 565.99 226.42 565.99 226.42C565.99 226.42 566.05 245.8 567.37 252.59C568.7 259.38 577.28 307.37 577.28 307.37L598.69 304.17C598.69 304.17 584.46 250.28 584.46 249.43C584.46 249.06 587.93 222.44 587.93 222.44C589.42 204.65 593.14 185.66 593.14 185.66V185.67Z" fill="#263238"/>
<path d="M545.25 215.01C545.1 214.79 546.41 206 546.88 203.58C547.35 201.15 550.58 191.35 550.58 191.35H554.28C554.28 191.35 555.3 201.43 555.35 205.49C555.41 210.28 554.86 212.44 554.86 212.44C552.57 215.3 550.38 217.85 548.44 219.63C547.56 218.66 545.75 216.02 545.24 215L545.25 215.01Z" fill="#263238"/>
<path d="M519.44 249.44C519.3 249.45 518.23 236.76 517.05 221.1C515.88 205.43 515.04 192.73 515.18 192.72C515.32 192.71 516.39 205.4 517.57 221.06C518.74 236.72 519.58 249.43 519.44 249.44Z" fill="#263238"/>
<path d="M548.27 219.77C548.41 219.77 548.53 232.59 548.53 248.4C548.53 264.21 548.41 277.03 548.27 277.03C548.13 277.03 548.01 264.21 548.01 248.4C548.01 232.59 548.13 219.77 548.27 219.77Z" fill="#263238"/>
<path d="M568.11 176.21C568.11 176.21 567.77 176.73 567.08 177.6C566.32 178.53 565.32 179.76 564.1 181.25C562.83 182.78 561.31 184.6 559.59 186.59C559.16 187.09 558.72 187.6 558.24 188.11C558.18 188.17 558.12 188.24 558.05 188.31L557.94 188.41L557.89 188.46C557.89 188.46 557.78 188.51 557.72 188.53C557.31 188.53 557.23 188.34 557.06 188.24C556.77 187.99 556.54 187.71 556.3 187.43C555.38 186.3 554.56 185.07 553.72 183.8C553.37 183.25 553.02 182.7 552.68 182.17H553.11C551.3 184.82 549.26 187.17 546.9 188.47L546.72 188.57L546.6 188.41C544.64 185.65 543.19 183.23 542.23 181.51C541.75 180.65 541.39 179.96 541.16 179.48C540.93 179 540.82 178.74 540.84 178.73C540.86 178.72 541.02 178.96 541.29 179.41C541.6 179.93 541.99 180.58 542.47 181.37C543.49 183.05 544.99 185.43 546.98 188.14L546.69 188.07C548.93 186.81 550.91 184.51 552.69 181.89L552.91 181.56L553.12 181.9C553.46 182.43 553.8 182.97 554.15 183.52C554.98 184.78 555.8 186.02 556.69 187.11C556.91 187.38 557.14 187.65 557.38 187.86C557.44 187.91 557.5 187.96 557.56 188C557.59 188.02 557.61 188.02 557.63 188.04C557.65 188.05 557.64 188.04 557.64 188.04C557.64 188 557.64 188.15 557.64 188.13C557.64 188.13 557.64 188.13 557.64 188.14V188.15C557.61 188.11 557.71 188.25 557.58 188.06L557.62 188.02L557.7 187.94C557.75 187.89 557.81 187.83 557.87 187.77C558.34 187.28 558.78 186.77 559.22 186.28C560.93 184.31 562.48 182.53 563.81 181.01C565.08 179.56 566.12 178.37 566.91 177.46C567.65 176.63 568.07 176.18 568.1 176.2L568.11 176.21Z" fill="#263238"/>
<path d="M553.73 191.25C553.73 191.39 553.01 191.52 552.13 191.53C551.24 191.53 550.52 191.43 550.52 191.28C550.52 191.14 551.24 191.01 552.12 191C553.01 191 553.73 191.1 553.73 191.25Z" fill="#263238"/>
<path d="M554.68 185.08C554.77 185.2 553.6 186.16 552.2 187.37C550.79 188.58 549.66 189.58 549.56 189.48C549.46 189.38 550.43 188.2 551.86 186.98C553.29 185.75 554.6 184.97 554.68 185.08Z" fill="#263238"/>
<path d="M533.74 244.09C533.74 244.09 533.66 243.87 533.55 243.45C533.43 242.97 533.28 242.35 533.1 241.58C532.72 239.89 532.19 237.55 531.54 234.68C530.89 231.74 530.13 228.28 529.29 224.43C528.45 220.59 527.45 216.29 527.52 211.68C527.55 207.09 528.28 202.77 529.01 198.89C529.76 195.01 530.42 191.51 531.22 188.62C532 185.73 532.93 183.47 533.7 181.98C534.08 181.23 534.41 180.67 534.65 180.3C534.89 179.93 535.02 179.74 535.04 179.75C535.06 179.75 534.95 179.97 534.74 180.35C534.53 180.73 534.23 181.31 533.88 182.06C533.17 183.57 532.31 185.82 531.57 188.71C530.83 191.59 530.2 195.09 529.48 198.97C528.78 202.85 528.07 207.14 528.04 211.67C527.97 216.21 528.95 220.45 529.76 224.31C530.56 228.16 531.29 231.64 531.9 234.58C532.48 237.46 532.96 239.81 533.3 241.51C533.45 242.29 533.56 242.92 533.65 243.4C533.73 243.83 533.76 244.06 533.74 244.07V244.09Z" fill="#263238"/>
<path d="M576.74 181.28C576.74 181.28 576.79 181.5 576.84 181.92C576.89 182.4 576.95 183 577.03 183.76C577.11 184.56 577.2 185.54 577.25 186.68C577.31 187.82 577.41 189.12 577.42 190.55C577.51 193.42 577.47 196.85 577.26 200.64C577.02 204.43 576.61 208.59 575.92 212.93C575.21 217.26 574.3 221.35 573.34 225.02C572.34 228.69 571.32 231.96 570.33 234.65C569.87 236.01 569.37 237.21 568.96 238.27C568.55 239.34 568.16 240.24 567.83 240.97C567.52 241.66 567.27 242.22 567.07 242.66C566.89 243.04 566.79 243.24 566.77 243.23C566.75 243.23 566.82 243.01 566.97 242.61C567.14 242.17 567.36 241.59 567.64 240.89C567.94 240.15 568.3 239.23 568.68 238.16C569.07 237.09 569.54 235.88 569.98 234.52C570.92 231.81 571.91 228.55 572.88 224.89C573.81 221.22 574.7 217.15 575.41 212.84C576.09 208.52 576.52 204.38 576.78 200.6C577.01 196.82 577.09 193.41 577.05 190.54C577.06 189.11 576.99 187.81 576.96 186.67C576.93 185.53 576.88 184.55 576.83 183.75C576.79 182.99 576.76 182.38 576.74 181.91C576.72 181.49 576.72 181.26 576.74 181.26V181.28Z" fill="#263238"/>
<path d="M579.52 279.18L582.32 286.88L595.219 284.17L591.049 277.02L579.52 279.18Z" fill="#263238"/>
<path d="M590.62 277.1C590.62 277.1 590.34 277.21 589.81 277.34C589.19 277.48 588.42 277.64 587.52 277.84C585.56 278.25 582.79 278.8 579.56 279.43L579.75 279.1C580.29 280.57 580.88 282.17 581.48 283.82C581.85 284.84 582.21 285.83 582.56 286.79L582.27 286.63C585.95 285.87 589.18 285.23 591.49 284.79C592.57 284.59 593.48 284.43 594.21 284.3C594.85 284.19 595.2 284.15 595.21 284.18C595.22 284.21 594.88 284.31 594.25 284.47C593.52 284.64 592.63 284.86 591.56 285.11C589.26 285.64 586.05 286.35 582.37 287.13L582.15 287.18L582.07 286.97C581.72 286.01 581.36 285.02 580.99 284.01C580.39 282.35 579.81 280.75 579.28 279.28L579.18 279L579.47 278.95C582.7 278.36 585.48 277.87 587.46 277.55C588.38 277.41 589.14 277.29 589.78 277.19C590.32 277.11 590.62 277.09 590.62 277.12V277.1Z" fill="#263238"/>
<path d="M492.39 237.93C492.24 237.96 491.62 235.45 490.55 232.45C489.5 229.44 488.4 227.1 488.54 227.03C488.66 226.97 489.97 229.24 491.04 232.28C492.12 235.32 492.52 237.91 492.39 237.94V237.93Z" fill="#263238"/>
<path d="M510.72 220.78C510.57 220.84 509.63 218.58 507.9 216.15C506.19 213.7 504.39 212.04 504.5 211.92C504.58 211.82 506.57 213.33 508.33 215.85C510.1 218.35 510.85 220.75 510.72 220.78Z" fill="#263238"/>
<path d="M458.05 239.06L455.24 237.81L457.71 223.39L461.18 224.31L458.05 239.06Z" fill="#EBEBEB"/>
<path d="M612.34 290.54C612.61 291.03 614.46 302.94 614.1 303.86C613.74 304.78 612.04 310.76 611.16 312.05C610.28 313.34 605.69 316.86 605.07 316.17C604.45 315.48 603.94 314 604.88 313.24L600.62 313.06C600.62 313.06 600.68 311.03 602.16 310.52L600.34 309.7C600.34 309.7 601.19 307.79 602.5 307.85C603.81 307.92 603.23 308.16 603.23 308.16L604.54 306.79C604.54 306.79 605.02 302.21 604.53 301.04C604.04 299.88 602.43 298.7 602.65 296.1C602.88 293.5 604.54 290.89 604.32 290.22C604.1 289.54 603.91 286.62 603.91 286.62C603.91 286.62 610.63 284.63 610.94 284.62C611.25 284.61 612.33 290.55 612.33 290.55L612.34 290.54Z" fill="#FFBF9D"/>
<path d="M624.561 301.62H594.601V323.08H624.561V301.62Z" fill="#E0E0E0"/>
<path d="M624.561 323.09C624.561 323.09 624.54 322.94 624.54 322.68C624.54 322.39 624.531 322 624.521 321.53C624.511 320.49 624.49 319.03 624.47 317.18C624.44 313.42 624.41 308.09 624.36 301.63L624.571 301.84C616.181 301.85 605.82 301.87 594.61 301.89C594.55 301.95 595.101 301.4 594.871 301.63V303.06C594.871 303.54 594.871 304.01 594.871 304.49C594.871 305.44 594.871 306.38 594.871 307.31C594.871 309.18 594.871 311.01 594.871 312.81C594.871 316.4 594.86 319.85 594.85 323.09L594.61 322.85C603.41 322.9 610.86 322.94 616.16 322.97C618.78 323 620.861 323.02 622.331 323.03C623.021 323.04 623.57 323.05 623.98 323.06C624.36 323.06 624.561 323.08 624.571 323.09C624.571 323.09 624.4 323.11 624.04 323.12C623.64 323.12 623.11 323.14 622.43 323.15C620.97 323.17 618.901 323.19 616.311 323.21C610.971 323.24 603.47 323.28 594.61 323.33H594.371V323.09C594.371 319.85 594.36 316.4 594.35 312.81C594.35 311.01 594.35 309.18 594.35 307.31C594.35 306.38 594.35 305.44 594.35 304.49C594.35 304.02 594.35 303.54 594.35 303.06V302.34V301.98V301.64V301.62C594.12 301.85 594.67 301.3 594.61 301.36C605.81 301.38 616.181 301.4 624.571 301.41H624.781V301.62C624.731 308.13 624.7 313.51 624.67 317.3C624.65 319.13 624.631 320.57 624.621 321.6C624.621 322.06 624.6 322.43 624.6 322.71C624.6 322.96 624.581 323.08 624.581 323.08L624.561 323.09Z" fill="#263238"/>
<path d="M604.71 301.54C604.8 301.54 604.65 302.84 605 304.87C605.18 305.87 605.48 307.09 606.04 308.29C606.32 308.87 606.82 309.41 607.47 309.47C608.11 309.55 608.67 308.97 608.84 308.26C609.05 307.56 608.84 306.83 608.63 306.12C608.4 305.42 608.15 304.7 608.13 303.97C608.09 302.52 608.56 301.33 608.86 300.35C609.18 299.37 609.39 298.56 609.45 297.99C609.52 297.42 609.49 297.1 609.54 297.1C609.56 297.1 609.65 297.42 609.63 298.01C609.63 298.6 609.46 299.45 609.17 300.45C608.91 301.45 608.48 302.64 608.55 303.96C608.58 304.62 608.82 305.27 609.06 305.99C609.29 306.69 609.54 307.54 609.29 308.39C609.17 308.8 608.97 309.2 608.65 309.5C608.33 309.8 607.86 309.97 607.43 309.92C606.54 309.82 605.97 309.11 605.67 308.48C605.1 307.18 604.84 305.96 604.69 304.92C604.55 303.88 604.56 303.03 604.59 302.44C604.63 301.86 604.69 301.54 604.72 301.54H604.71Z" fill="#FF9A6C"/>
<path d="M586.95 187.99H589.18C589.18 187.99 596.49 194.23 598.69 200.11C600.9 205.99 602.6 214.58 602.44 220C602.27 225.42 604.97 234.23 605.79 241.85C605.79 241.85 611.81 261.73 610.83 282.29L611.43 287.37L604.32 290.22C604.32 290.22 595.95 266.62 595.06 261.18C594.17 255.75 593.55 253.28 592.46 247.09C591.37 240.9 584.78 228.55 585.03 225.43L583.85 215.81C583.85 215.81 584.03 208.71 583.3 201.54C582.57 194.37 585.93 188 585.93 188" fill="#FFBF9D"/>
<path d="M604.54 301.04C604.54 303.08 604.86 305.48 605.41 307.44C605.56 307.99 605.74 308.54 606.07 309C606.4 309.46 606.91 309.83 607.48 309.85C608.33 309.89 609.06 309.15 609.28 308.33C609.5 307.51 609.31 306.64 609.06 305.83C608.81 305.02 608.5 304.21 608.46 303.36C608.35 301.16 610.08 299.02 609.44 296.92" fill="#FFBF9D"/>
<path d="M609.44 296.91C609.44 296.91 609.63 297.21 609.68 297.84C609.74 298.47 609.57 299.38 609.24 300.42C608.94 301.46 608.48 302.71 608.8 304.06C608.95 304.74 609.23 305.44 609.44 306.22C609.64 306.99 609.77 307.9 609.4 308.77C609.21 309.19 608.91 309.56 608.52 309.81C608.13 310.06 607.63 310.17 607.18 310.06C606.27 309.84 605.74 309.06 605.47 308.37C604.98 306.96 604.78 305.68 604.64 304.58C604.5 303.49 604.47 302.6 604.47 301.99C604.47 301.38 604.51 301.04 604.55 301.04C604.63 301.04 604.65 302.39 605.01 304.53C605.2 305.59 605.44 306.88 605.92 308.19C606.17 308.81 606.63 309.42 607.29 309.57C607.93 309.73 608.63 309.24 608.92 308.56C609.22 307.88 609.13 307.07 608.94 306.35C608.75 305.61 608.47 304.9 608.32 304.16C608 302.64 608.55 301.32 608.88 300.31C609.25 299.29 609.46 298.45 609.47 297.85C609.49 297.26 609.39 296.93 609.43 296.91H609.44Z" fill="#FF9A6C"/>
<path d="M614.93 284.04L601.45 286.66L602 289.31L615.41 286.69L614.93 284.04Z" fill="#EBEBEB"/>
<path d="M593.14 185.67C593.14 185.67 597.94 192.32 600.89 207.84C603.83 223.36 615.71 283.88 615.71 283.88L600.36 286.87C600.36 286.87 592.49 258.46 591.5 252.49C590.51 246.52 586.45 233.94 586.45 233.94C586.45 233.94 582.42 207.33 581.66 205.49C580.9 203.64 583.24 186.18 583.24 186.18L593.16 185.67H593.14Z" fill="#263238"/>
<path d="M588.47 201.64C588.61 201.65 588.08 209.9 587.29 220.06C586.49 230.22 585.73 238.45 585.59 238.44C585.45 238.43 585.98 230.18 586.77 220.02C587.57 209.86 588.33 201.63 588.47 201.64Z" fill="#263238"/>
<path d="M267.269 168.4C256.669 172.56 244.709 167.33 240.549 156.73C236.389 146.13 241.619 134.17 252.219 130.01C262.819 125.85 274.779 131.08 278.939 141.68C280.679 146.11 280.769 150.77 279.529 155L282.909 161.1L276.209 161.62C273.989 164.57 270.959 166.96 267.269 168.4Z" fill="white"/>
<path d="M267.27 168.4C267.27 168.4 268.27 168.1 269.98 167.17C271.66 166.23 274.08 164.58 276.3 161.68L276.22 161.72C278.19 161.58 280.45 161.41 282.92 161.23C282.99 161.23 283.05 161.16 283.04 161.09C283.04 161.07 283.04 161.05 283.02 161.03C282 159.17 280.87 157.11 279.66 154.91C279.62 154.84 279.53 154.81 279.45 154.85C279.43 154.86 279.41 154.88 279.39 154.91L279.67 155.03C280.49 152.25 280.79 149.07 280.26 145.8C279.98 144.17 279.54 142.52 278.81 140.93C278.63 140.53 278.45 140.13 278.27 139.73C278.07 139.34 277.83 138.96 277.61 138.57C277.2 137.78 276.62 137.08 276.1 136.33C274.94 134.93 273.66 133.55 272.11 132.46L271.54 132.03L270.93 131.65C270.52 131.4 270.12 131.13 269.7 130.91C268.84 130.48 267.98 130.03 267.05 129.71C266.15 129.32 265.18 129.12 264.22 128.85C263.24 128.69 262.26 128.47 261.25 128.44C260.25 128.32 259.23 128.4 258.21 128.42C257.2 128.55 256.17 128.63 255.18 128.9C252.88 129.44 250.66 130.29 248.73 131.54C246.78 132.77 245.07 134.3 243.65 136.01C242.21 137.72 241.16 139.68 240.37 141.67C239.95 142.66 239.7 143.7 239.43 144.71C239.25 145.74 239.05 146.76 239.01 147.79L238.95 148.55C238.94 148.8 238.95 149.06 238.95 149.31C238.97 149.82 238.96 150.32 239 150.82C239.13 151.81 239.21 152.79 239.47 153.73C239.65 154.69 239.99 155.58 240.28 156.48C240.42 156.93 240.65 157.34 240.83 157.77C241.03 158.18 241.18 158.62 241.43 159.01C243.18 162.2 245.58 164.73 248.17 166.42C250.76 168.12 253.44 169.08 255.84 169.53C257.04 169.78 258.19 169.83 259.23 169.9C260.28 169.86 261.24 169.88 262.09 169.73C262.52 169.67 262.92 169.63 263.3 169.57C263.67 169.48 264.02 169.4 264.34 169.33C264.66 169.25 264.96 169.18 265.23 169.12C265.49 169.03 265.73 168.95 265.95 168.87C266.36 168.72 266.69 168.61 266.92 168.52C267.14 168.44 267.25 168.39 267.25 168.39C267.25 168.39 267.13 168.41 266.91 168.48C266.67 168.55 266.35 168.66 265.93 168.79C265.71 168.86 265.47 168.94 265.21 169.02C264.94 169.08 264.64 169.14 264.32 169.21C264 169.28 263.65 169.36 263.28 169.44C262.9 169.5 262.5 169.53 262.08 169.58C261.23 169.72 260.28 169.69 259.24 169.72C258.2 169.65 257.07 169.58 255.88 169.32C253.5 168.85 250.86 167.89 248.32 166.19C245.77 164.51 243.42 162 241.71 158.86C241.47 158.48 241.33 158.05 241.12 157.64C240.95 157.22 240.72 156.82 240.58 156.37C240.29 155.49 239.96 154.61 239.79 153.67C239.54 152.75 239.46 151.78 239.34 150.81C239.3 150.32 239.31 149.83 239.29 149.33C239.29 149.08 239.27 148.83 239.29 148.58L239.35 147.83C239.39 146.82 239.59 145.82 239.77 144.81C240.04 143.82 240.28 142.8 240.7 141.83C241.48 139.88 242.51 137.96 243.92 136.28C245.32 134.59 247 133.1 248.91 131.89C250.81 130.66 252.99 129.83 255.24 129.3C256.22 129.03 257.22 128.96 258.22 128.83C259.22 128.82 260.21 128.73 261.2 128.85C262.19 128.88 263.15 129.09 264.11 129.25C265.05 129.51 266 129.71 266.89 130.09C267.8 130.4 268.65 130.84 269.5 131.26C269.92 131.48 270.31 131.75 270.71 131.99L271.31 132.36L271.87 132.78C273.4 133.85 274.66 135.2 275.8 136.57C276.31 137.3 276.88 137.99 277.29 138.77C277.51 139.15 277.74 139.52 277.94 139.9C278.12 140.29 278.3 140.69 278.47 141.08C279.19 142.63 279.63 144.26 279.91 145.86C280.45 149.07 280.16 152.2 279.37 154.94C279.35 155.02 279.39 155.11 279.47 155.13C279.54 155.15 279.61 155.12 279.64 155.06H279.38C280.6 157.24 281.74 159.3 282.77 161.15L282.88 160.95C280.41 161.15 278.16 161.33 276.18 161.49C276.15 161.49 276.12 161.51 276.1 161.53C273.93 164.42 271.56 166.08 269.9 167.05C269.06 167.54 268.39 167.85 267.94 168.06C267.72 168.16 267.55 168.23 267.42 168.29C267.3 168.34 267.25 168.37 267.25 168.38L267.27 168.4Z" fill="#263238"/>
<path d="M254.229 149.39C254.229 150.71 253.149 151.78 251.829 151.78C250.509 151.78 249.439 150.7 249.439 149.38C249.439 148.06 250.519 146.99 251.839 146.99C253.159 146.99 254.229 148.07 254.229 149.39Z" fill="#263238"/>
<path d="M262.01 149.44C262.01 150.76 260.93 151.83 259.61 151.83C258.29 151.83 257.22 150.75 257.22 149.43C257.22 148.11 258.3 147.04 259.62 147.04C260.94 147.04 262.01 148.12 262.01 149.44Z" fill="#263238"/>
<path d="M269.66 148.25C270.32 149.4 269.92 150.86 268.77 151.52C267.62 152.18 266.16 151.78 265.5 150.63C264.84 149.48 265.24 148.02 266.39 147.36C267.54 146.7 269 147.1 269.66 148.25Z" fill="#263238"/>
<path d="M348.09 273.76C353.59 286.43 358.07 300.97 356.85 309.89C355.63 318.8 349.69 345.19 349.69 345.19C349.69 345.19 346.02 360.22 346.72 366.16C347.42 372.1 347.13 391.99 345.15 403.9C342.86 417.66 340.41 442.31 340.41 442.31L322.69 440.94L323.49 355.14L319.12 321.42L315.75 275.86L348.11 273.76H348.09Z" fill="#263238"/>
<path d="M291.76 274.36C291.76 274.36 280.42 302.49 281.64 311.4C282.86 320.31 288.8 346.7 288.8 346.7C288.8 346.7 292.47 361.73 291.77 367.67C291.07 373.61 292.29 393.38 293.34 405.41C294.52 418.94 297.49 442.46 297.49 442.46L315.9 441.26L315 356.65L319.37 322.93L320.31 273.76L291.74 274.36H291.76Z" fill="#263238"/>
<path d="M339.59 431.19L338.67 447.24C338.67 447.24 355.43 453.52 355.56 456.5L322.94 455.91L323.3 430.85L339.59 431.19Z" fill="#263238"/>
<path d="M328.61 445.71C327.98 445.86 327.53 446.53 327.66 447.15C327.79 447.76 328.5 448.21 329.14 448.06C329.78 447.92 330.34 447.13 330.14 446.53C329.94 445.94 329.07 445.46 328.49 445.74" fill="#E0E0E0"/>
<path d="M322.94 455.91L323.08 453.39L354.3 454.9C354.3 454.9 355.74 455.53 355.56 456.5L322.94 455.91Z" fill="#455A64"/>
<path d="M339.201 447.09C339.201 447.24 338.391 447.3 337.601 447.77C336.791 448.23 336.381 448.88 336.231 448.81C336.081 448.78 336.341 447.87 337.311 447.31C338.281 446.74 339.231 446.94 339.201 447.08V447.09Z" fill="white"/>
<path d="M342.6 448.5C342.63 448.65 341.94 448.89 341.38 449.53C340.81 450.15 340.66 450.84 340.5 450.83C340.35 450.85 340.26 449.96 340.96 449.18C341.66 448.4 342.59 448.35 342.6 448.5Z" fill="white"/>
<path d="M344.461 452.45C344.311 452.48 344.111 451.72 344.531 450.89C344.951 450.06 345.711 449.75 345.771 449.87C345.861 450 345.371 450.44 345.031 451.12C344.671 451.8 344.621 452.44 344.461 452.45Z" fill="white"/>
<path d="M338.991 443.41C338.921 443.55 338.191 443.32 337.291 443.37C336.391 443.39 335.681 443.67 335.601 443.54C335.511 443.43 336.211 442.88 337.271 442.84C338.331 442.8 339.071 443.29 338.991 443.41Z" fill="white"/>
<path d="M297.51 431.19L298.43 447.24C298.43 447.24 281.67 453.52 281.54 456.5L314.16 455.91L313.8 430.85L297.51 431.19Z" fill="#263238"/>
<path d="M308.49 445.71C309.12 445.86 309.57 446.53 309.44 447.15C309.31 447.76 308.6 448.21 307.96 448.06C307.32 447.92 306.76 447.13 306.96 446.53C307.16 445.94 308.03 445.46 308.61 445.74" fill="#E0E0E0"/>
<path d="M314.16 455.91L314.02 453.39L282.8 454.9C282.8 454.9 281.36 455.53 281.54 456.5L314.16 455.91Z" fill="#455A64"/>
<path d="M297.9 447.09C297.9 447.24 298.71 447.3 299.5 447.77C300.31 448.23 300.72 448.88 300.87 448.81C301.02 448.78 300.76 447.87 299.79 447.31C298.82 446.74 297.87 446.94 297.9 447.08V447.09Z" fill="white"/>
<path d="M294.5 448.5C294.47 448.65 295.16 448.89 295.72 449.53C296.29 450.15 296.44 450.84 296.6 450.83C296.75 450.85 296.84 449.96 296.14 449.18C295.44 448.4 294.51 448.35 294.5 448.5Z" fill="white"/>
<path d="M292.63 452.45C292.78 452.48 292.98 451.72 292.56 450.89C292.14 450.06 291.38 449.75 291.32 449.87C291.23 450 291.72 450.44 292.06 451.12C292.42 451.8 292.47 452.44 292.63 452.45Z" fill="white"/>
<path d="M298.11 443.41C298.18 443.55 298.91 443.32 299.81 443.37C300.71 443.39 301.42 443.67 301.5 443.54C301.59 443.43 300.89 442.88 299.83 442.84C298.77 442.8 298.03 443.29 298.11 443.41Z" fill="white"/>
<path d="M361.7 229.15C361.68 228.45 361.25 227.82 360.67 227.43C351.49 221.36 344.58 207.89 343.88 196.49C343.86 195.84 343.84 195.18 343.82 194.52C343.29 178.22 340.89 158.46 338.74 153.19C334.76 143.46 321.28 142.54 321.28 142.54C303.39 141.26 300.19 155.01 298.39 167.53C297.27 175.32 292.94 203.13 292.94 203.13L296.23 204.4C300.1 215.88 308.83 225.16 320.17 229.43C323.47 230.67 326.26 231.17 327.57 230.1C332.78 235.38 339.3 239.37 346.4 241.53C349.29 242.41 352.32 243 355.33 242.72C357.28 242.54 359.34 241.89 360.51 240.31C361.51 238.95 361.65 237.01 360.85 235.52C360.05 234.03 358.35 233.08 356.66 233.17C357.34 230.97 361.8 231.62 361.72 229.14L361.7 229.15Z" fill="#263238"/>
<path d="M323.79 147.1L322.67 146.03L313.21 149.84C311.46 149.94 308.55 153.3 308.5 155.05L308.68 193.52C308.66 196.19 308.01 198.57 309.62 200.71L311.32 202.95C315.19 208.06 323.16 207.64 326.23 202.01C326.44 201.62 326.59 201.27 326.66 200.99C326.72 200.64 326.82 200.41 326.84 200.11C327.2 196.94 327.58 194.72 327.58 194.72C327.58 194.72 327.5 189.28 327.5 189.31C327.5 189.31 334.91 188.46 336.91 178.95C337.91 174.22 337.72 167.71 337.44 161.31C337.05 152.45 330.91 147.09 323.78 147.1H323.79Z" fill="#FFBF9D"/>
<path d="M327.5 189.29C327.5 189.29 321.03 189.38 314.83 185.22C314.83 185.22 317.9 192.04 327.54 191.62L327.5 189.29Z" fill="#FF9A6C"/>
<path d="M307.491 171.5C307.491 171.5 314.271 173.61 318.101 156.89C319.411 151.17 324.711 146.54 324.711 146.54L322.561 145.89C322.561 145.89 309.201 149.65 308.971 149.82C308.751 149.99 305.601 156.73 305.601 156.73L307.491 171.5Z" fill="#263238"/>
<path d="M310.13 170.57C310.16 169.86 309.42 168.13 308.72 167.99C306.85 167.6 303.45 167.58 303.18 172.36C302.81 178.89 309.45 177.92 309.47 177.73C309.49 177.58 310.01 173.03 310.13 170.57Z" fill="#FFBF9D"/>
<path d="M307.61 175.14C307.61 175.14 307.49 175.21 307.29 175.29C307.1 175.37 306.77 175.41 306.44 175.26C305.76 174.97 305.25 173.84 305.28 172.66C305.3 172.06 305.45 171.51 305.69 171.05C305.92 170.58 306.24 170.27 306.6 170.23C306.95 170.17 307.18 170.39 307.25 170.58C307.33 170.77 307.28 170.9 307.31 170.91C307.33 170.93 307.46 170.81 307.42 170.54C307.4 170.41 307.33 170.25 307.19 170.12C307.04 169.98 306.81 169.91 306.57 169.92C306.06 169.92 305.58 170.36 305.32 170.87C305.03 171.37 304.84 172 304.82 172.67C304.79 173.99 305.39 175.26 306.32 175.59C306.77 175.74 307.16 175.62 307.37 175.48C307.58 175.33 307.62 175.19 307.6 175.17L307.61 175.14Z" fill="#FF9A6C"/>
<path d="M303.15 196.19C303.15 196.19 303.12 196.08 303.08 195.87C303.04 195.64 302.98 195.33 302.92 194.94C302.78 194.1 302.58 192.91 302.33 191.39L302.49 191.37C302.52 191.61 302.56 191.87 302.6 192.14V192.12C302.63 192.21 302.68 192.31 302.73 192.41L302.57 192.47C301.8 189.8 300.95 186.2 300.47 181.95C300.23 179.83 300.09 177.54 300.07 175.15C300.09 172.76 300.07 170.23 300.72 167.69C300.98 166.64 301.39 165.64 301.91 164.72C302.43 163.8 303.06 162.97 303.72 162.2C305.05 160.66 306.48 159.34 307.79 158.03C310.43 155.44 312.8 153.1 314.81 151.13C316.8 149.19 318.42 147.61 319.56 146.5C320.11 145.97 320.55 145.55 320.86 145.25C321 145.12 321.11 145.01 321.2 144.93C321.28 144.86 321.32 144.82 321.32 144.83C321.32 144.83 321.29 144.88 321.22 144.95C321.14 145.04 321.03 145.15 320.9 145.29C320.6 145.6 320.17 146.03 319.64 146.58C318.52 147.71 316.92 149.31 314.96 151.28C312.97 153.26 310.61 155.62 307.99 158.23C306.69 159.55 305.26 160.87 303.95 162.39C302.64 163.9 301.52 165.69 301.02 167.76C300.39 170.24 300.4 172.76 300.37 175.14C300.38 177.53 300.51 179.8 300.74 181.92C301.19 186.16 302 189.74 302.74 192.42L302.58 192.48C302.53 192.38 302.49 192.27 302.45 192.18V192.16C302.42 191.89 302.38 191.62 302.35 191.39L302.51 191.37C302.73 192.89 302.9 194.09 303.02 194.93C303.07 195.32 303.11 195.63 303.14 195.87C303.17 196.08 303.18 196.19 303.17 196.19H303.15Z" fill="#455A64"/>
<path d="M298.801 164.5C298.801 164.5 298.831 164.4 298.911 164.22C299.011 164.01 299.14 163.76 299.29 163.45C299.62 162.78 300.141 161.84 300.831 160.7C301.511 159.56 302.391 158.23 303.411 156.81C304.451 155.39 305.66 153.88 307.01 152.36C308.37 150.85 309.75 149.49 311.05 148.3C312.36 147.12 313.58 146.11 314.65 145.32C315.71 144.52 316.591 143.9 317.221 143.5C317.511 143.32 317.751 143.16 317.941 143.04C318.111 142.94 318.201 142.89 318.201 142.9C318.201 142.9 318.131 142.97 317.971 143.09C317.791 143.23 317.561 143.39 317.281 143.6C316.671 144.03 315.81 144.67 314.77 145.49C313.73 146.31 312.521 147.33 311.231 148.51C309.951 149.7 308.581 151.06 307.221 152.56C305.871 154.07 304.67 155.57 303.62 156.97C302.58 158.38 301.691 159.69 300.991 160.81C300.281 161.93 299.74 162.86 299.37 163.5C299.2 163.8 299.061 164.04 298.941 164.24C298.841 164.41 298.781 164.49 298.771 164.49L298.801 164.5Z" fill="#455A64"/>
<path d="M351.14 278.13L340.61 250.46L346.21 210.91C346.5 208.22 346.78 200.5 343.52 198.83L327.85 194.09C321.11 198.3 314.44 199.98 308.61 194.35C308.61 194.35 308.39 194.42 308.01 194.55L308.08 194.29C300.97 195.89 288.49 201.28 288.49 201.28L288.57 202.24C288.33 203.88 288.72 207.89 289.44 213.06L295.09 250.64L288.43 278.14H351.13L351.14 278.13Z" fill="#455A64"/>
<path d="M291.76 230.68L293.67 232.6L291.67 199.99C291.67 199.99 287 200.83 284.29 205.42C283.33 207.05 275.15 221.55 274.55 222.32C274.23 222.73 265.1 236.76 263.36 241.49C263.36 241.49 261.59 248.18 264.96 251.56C268.34 254.93 277.02 252.3 278.69 250.83C280.35 249.37 291.76 230.68 291.76 230.68Z" fill="#455A64"/>
<path d="M288.43 210.73C288.43 210.73 288.57 211.28 288.74 212.29C288.92 213.39 289.16 214.83 289.45 216.56C290.05 220.17 290.98 225.13 292.02 230.62C293.06 236.11 293.93 241.1 294.44 244.72C294.7 246.53 294.88 248 294.99 249.02C295.1 250.04 295.14 250.6 295.1 250.61C295.06 250.61 294.96 250.06 294.79 249.05C294.61 247.95 294.37 246.51 294.08 244.78C293.48 241.17 292.55 236.21 291.51 230.72C290.47 225.23 289.6 220.25 289.09 216.62C288.83 214.81 288.65 213.34 288.54 212.32C288.43 211.3 288.39 210.74 288.43 210.73Z" fill="#263238"/>
<path d="M364.35 239.73L342.73 227.82L343.71 198.93C345.66 200.02 348.14 200.56 353.49 207.43L368.86 220.72" fill="#455A64"/>
<path d="M365.77 239.65C370.8 240.55 375.39 237.09 375.39 225.78V201.35L366.99 198.75L362.73 222.34C362.73 222.34 357.73 238.21 365.77 239.66V239.65Z" fill="#FFBF9D"/>
<path d="M361.76 175.23L362.27 184.94L361.83 186.78C361.83 186.78 362.85 191.88 363.2 192.92C363.55 193.96 366.99 198.74 366.99 198.74L365.93 204.65L375.35 204.52C375.35 204.52 375.84 199.32 376.26 198.58C376.68 197.84 376.57 196.27 376.33 195.26C376.1 194.26 375.08 188.16 375.08 188.16C375.08 188.16 376.23 180.52 374.59 180.81C374.55 180.81 374.5 180.83 374.45 180.84C373.85 181.02 373.43 181.56 373.35 182.18C373.16 183.62 372.76 186.31 372.36 186.55L371.34 186.4C371.34 186.4 370.55 179.49 370.18 178.29C369.8 177.09 369.23 176.37 368.28 176.59C368.28 176.59 367.72 177.13 367.77 177.45C367.83 177.77 368.91 185.4 368.47 185.42C368.03 185.44 367.96 184.74 367.96 184.74C367.96 184.74 366.85 175.41 366.56 174.97C366.27 174.53 365.55 173.94 364.74 174.36L364.86 179.68C364.86 179.68 364.11 175.46 363.21 175.02C362.31 174.58 361.76 175.22 361.76 175.22V175.23Z" fill="#FFBF9D"/>
<path d="M371.05 193.45C370.98 193.48 370.74 192.73 370 191.68C369.27 190.66 367.87 189.33 365.89 188.76L365.74 188.72L365.72 188.58C365.61 187.9 365.5 187.2 365.39 186.47V186.43V186.38C365.45 186.12 365.51 185.83 365.55 185.54C365.69 184.55 365.7 183.57 365.51 182.7C365.41 182.27 365.27 181.85 365.03 181.55C364.81 181.24 364.44 181.1 364.16 181.17L364.28 181.06C363.68 182.39 363.16 183.48 362.79 184.24C362.42 185 362.19 185.43 362.15 185.41C362.11 185.39 362.27 184.94 362.58 184.15C362.89 183.36 363.35 182.24 363.92 180.9L363.96 180.82L364.04 180.8C364.54 180.66 365.06 180.9 365.36 181.29C365.67 181.67 365.83 182.13 365.94 182.6C366.16 183.55 366.15 184.57 366.01 185.6C365.97 185.91 365.91 186.2 365.84 186.49V186.4C365.95 187.13 366.06 187.84 366.16 188.52L365.99 188.34C368.14 188.99 369.52 190.43 370.23 191.53C370.58 192.09 370.8 192.58 370.91 192.92C371.02 193.26 371.07 193.45 371.05 193.46V193.45Z" fill="#FF9A6C"/>
<path d="M368.279 186.54C368.279 186.42 369.659 186.29 371.329 186.63C372.999 186.97 374.219 187.64 374.169 187.75C374.119 187.87 372.849 187.41 371.239 187.08C369.629 186.74 368.289 186.67 368.289 186.53L368.279 186.54Z" fill="#FF9A6C"/>
<path d="M345.53 211.6C345.53 211.6 345.55 212.15 345.5 213.14C345.45 214.13 345.34 215.56 345.18 217.33C344.86 220.86 344.3 225.73 343.57 231.09C342.84 236.45 342.09 241.29 341.54 244.79C341.28 246.47 341.06 247.86 340.89 248.94C340.74 249.92 340.64 250.46 340.6 250.45C340.57 250.45 340.6 249.9 340.69 248.91C340.79 247.92 340.95 246.5 341.18 244.74C341.67 241.14 342.33 236.33 343.06 231.02C343.79 225.66 344.41 220.81 344.82 217.29C345.01 215.6 345.18 214.2 345.3 213.12C345.42 212.14 345.5 211.59 345.53 211.6Z" fill="#263238"/>
<path d="M266.16 239.7C266.16 239.7 295.22 234.73 297.54 234.26C298.6 234.05 302.84 235.52 302.65 236.2C301.93 238.83 295.27 243.67 295.27 243.67C295.27 243.67 283.64 248.73 280.68 250.07C277.72 251.41 268.9 253.67 265.99 251.11C263.07 248.55 263.66 242.53 266.17 239.69L266.16 239.7Z" fill="#FFBF9D"/>
<path d="M298.71 235.66C298.71 235.66 300.97 235.07 302.69 235.77C304.41 236.48 324.8 251.01 324.8 251.01C324.8 251.01 324.18 251.95 322.79 251.9C322.79 251.9 321.98 253.9 319.04 253.21C319.04 253.21 317.74 254.65 315.54 253.97C313.34 253.28 306.85 248.8 306.85 248.8L312.16 254.07C312.16 254.07 310.18 255.16 308.93 254.47C307.68 253.78 302.22 249.8 302.22 249.8C302.22 249.8 298.99 248.48 298.07 247.14L295.1 242.81L298.71 235.66Z" fill="#FFBF9D"/>
<path d="M319.29 253.13C319.29 253.13 318.58 252.86 317.51 252.26C316.44 251.66 315.01 250.77 313.5 249.66C312 248.55 310.71 247.45 309.83 246.61C308.94 245.77 308.44 245.2 308.47 245.17C308.51 245.13 309.08 245.63 310 246.41C310.93 247.2 312.23 248.26 313.72 249.36C315.21 250.46 316.61 251.38 317.64 252.03C318.67 252.68 319.31 253.08 319.28 253.13H319.29Z" fill="#FF9A6C"/>
<path d="M311.159 243.69C311.159 243.69 311.839 244.12 312.859 244.89C313.889 245.66 315.309 246.72 316.909 247.86C318.509 249 319.979 249.99 321.049 250.71C322.119 251.43 322.779 251.88 322.749 251.92C322.719 251.96 322.019 251.6 320.909 250.93C319.799 250.27 318.299 249.31 316.699 248.17C315.099 247.03 313.689 245.93 312.699 245.1C311.709 244.27 311.129 243.72 311.159 243.69Z" fill="#FF9A6C"/>
<path d="M366.68 456.04H273.63L266.29 298.18H375.87L366.68 456.04Z" fill="#263238"/>
<path d="M384.999 261.93H256.649V305.26H384.999V261.93Z" fill="#E0E0E0"/>
<path d="M385 305.26C385 305.26 384.99 305 384.98 304.5C384.98 303.99 384.97 303.25 384.96 302.28C384.96 300.32 384.94 297.45 384.92 293.73C384.9 286.29 384.87 275.48 384.83 261.93L385 262.1C354.05 262.12 307.99 262.15 256.66 262.19L256.92 261.93C256.92 276.99 256.92 291.61 256.92 305.26L256.67 305.01C293.61 305.06 325.67 305.1 348.5 305.13C359.92 305.16 369.04 305.18 375.31 305.2C378.44 305.21 380.86 305.23 382.51 305.23C383.32 305.23 383.94 305.24 384.38 305.25C384.8 305.25 385.02 305.27 385.02 305.27C385.02 305.27 384.82 305.28 384.41 305.29C383.98 305.29 383.37 305.29 382.57 305.31C380.93 305.31 378.53 305.33 375.43 305.34C369.17 305.36 360.08 305.38 348.68 305.41C325.81 305.44 293.69 305.48 256.68 305.53H256.43V305.28C256.43 291.62 256.43 277.01 256.43 261.95V261.69H256.69C308.01 261.73 354.08 261.76 385.03 261.78H385.2V261.95C385.16 275.55 385.13 286.39 385.11 293.86C385.09 297.56 385.08 300.42 385.07 302.37C385.07 303.32 385.06 304.05 385.05 304.56C385.05 305.05 385.03 305.29 385.03 305.29L385 305.26Z" fill="#263238"/>
<path d="M366.83 269.78H273.75V298.18H366.83V269.78Z" fill="#263238"/>
<path d="M310.89 284.1C311.63 284.91 312 285.9 312 287.1C312 288.02 311.76 288.87 311.28 289.64C310.8 290.42 310.06 291.04 309.08 291.51C308.1 291.98 306.88 292.21 305.45 292.21C304.33 292.21 303.24 292.06 302.16 291.77C301.08 291.48 300.17 291.06 299.41 290.52L300.83 287.72C301.43 288.17 302.13 288.52 302.92 288.77C303.71 289.02 304.52 289.14 305.35 289.14C306.27 289.14 306.99 288.96 307.52 288.61C308.05 288.26 308.31 287.76 308.31 287.11C308.31 285.81 307.32 285.17 305.35 285.17H303.68V282.75L306.94 279.07H300.2V276.13H311.28V278.5L307.71 282.57C309.1 282.8 310.16 283.31 310.9 284.12L310.89 284.1Z" fill="white"/>
<path d="M316.97 291.23C315.94 290.58 315.14 289.64 314.56 288.42C313.98 287.19 313.69 285.73 313.69 284.02C313.69 282.31 313.98 280.85 314.56 279.62C315.14 278.39 315.94 277.45 316.97 276.81C317.99 276.16 319.16 275.84 320.47 275.84C321.78 275.84 322.95 276.16 323.97 276.81C324.99 277.46 325.8 278.4 326.38 279.62C326.96 280.85 327.25 282.31 327.25 284.02C327.25 285.73 326.96 287.19 326.38 288.42C325.8 289.65 325 290.59 323.97 291.23C322.94 291.88 321.78 292.2 320.47 292.2C319.16 292.2 317.99 291.88 316.97 291.23ZM322.75 287.86C323.3 287.03 323.58 285.75 323.58 284.02C323.58 282.29 323.3 281.01 322.75 280.18C322.2 279.35 321.44 278.94 320.48 278.94C319.52 278.94 318.78 279.36 318.23 280.18C317.68 281.01 317.4 282.29 317.4 284.02C317.4 285.75 317.68 287.03 318.23 287.86C318.78 288.69 319.53 289.1 320.48 289.1C321.43 289.1 322.2 288.69 322.75 287.86Z" fill="white"/>
<path d="M332.32 291.23C331.29 290.58 330.49 289.64 329.91 288.42C329.33 287.19 329.04 285.73 329.04 284.02C329.04 282.31 329.33 280.85 329.91 279.62C330.49 278.39 331.29 277.45 332.32 276.81C333.34 276.16 334.51 275.84 335.82 275.84C337.13 275.84 338.3 276.16 339.32 276.81C340.34 277.46 341.15 278.4 341.73 279.62C342.31 280.84 342.6 282.31 342.6 284.02C342.6 285.73 342.31 287.19 341.73 288.42C341.15 289.65 340.35 290.59 339.32 291.23C338.29 291.88 337.13 292.2 335.82 292.2C334.51 292.2 333.34 291.88 332.32 291.23ZM338.1 287.86C338.65 287.03 338.93 285.75 338.93 284.02C338.93 282.29 338.65 281.01 338.1 280.18C337.55 279.35 336.79 278.94 335.83 278.94C334.87 278.94 334.13 279.36 333.58 280.18C333.03 281.01 332.75 282.29 332.75 284.02C332.75 285.75 333.03 287.03 333.58 287.86C334.13 288.69 334.88 289.1 335.83 289.1C336.78 289.1 337.55 288.69 338.1 287.86Z" fill="white"/>
<path d="M320.57 251.63C314.88 251.63 310.27 256.24 310.27 261.93H330.86C330.86 256.24 326.25 251.63 320.56 251.63H320.57Z" fill="#B71632"/>
<path d="M333.699 260.04H307.859V261.93H333.699V260.04Z" fill="#B71632"/>
<g opacity="0.3">
<path d="M270.33 385.27L374.27 325.95L372.28 355.61L271.65 413.57L270.33 385.27Z" fill="white"/>
</g>
<path d="M116.76 187.67L116.29 148.98C115.86 139.36 121.1 131.09 130.73 130.93L131.62 130.97C140.58 131.34 147.76 138.53 148.11 147.49C148.44 155.83 148.69 165.05 148.45 169.51C147.95 178.74 138.66 179.79 138.66 179.79C138.64 179.79 138.6 185.41 138.61 188.12L131.18 198.43V198.98L116.76 187.67Z" fill="#FFBF9D"/>
<path d="M138.66 179.79C138.66 179.79 132.83 179.89 126.79 175.74C126.79 175.74 129.4 182.8 138.64 182.35L138.66 179.79Z" fill="#FF9A6C"/>
<path d="M116.76 155.85C116.61 155.78 110.49 153.71 110.43 160.03C110.37 166.35 116.73 165.11 116.74 164.92C116.75 164.74 116.75 155.84 116.75 155.84L116.76 155.85Z" fill="#FFBF9D"/>
<path d="M114.831 162.52C114.831 162.52 114.721 162.6 114.531 162.68C114.351 162.76 114.041 162.82 113.711 162.68C113.041 162.43 112.491 161.36 112.471 160.22C112.461 159.64 112.581 159.1 112.791 158.65C112.991 158.19 113.291 157.87 113.631 157.81C113.971 157.74 114.201 157.94 114.281 158.12C114.361 158.3 114.321 158.42 114.361 158.43C114.381 158.45 114.501 158.33 114.451 158.06C114.431 157.93 114.351 157.78 114.211 157.66C114.061 157.54 113.841 157.47 113.601 157.49C113.111 157.52 112.671 157.96 112.441 158.46C112.181 158.96 112.031 159.57 112.041 160.22C112.071 161.49 112.711 162.69 113.621 162.96C114.061 163.08 114.441 162.95 114.631 162.8C114.831 162.65 114.861 162.5 114.841 162.49L114.831 162.52Z" fill="#FF9A6C"/>
<path d="M160.87 139.18C160.77 138.81 160.51 138.5 160.18 138.3C159.46 137.86 158.63 137.91 157.82 137.89C155.81 137.84 153.83 137.3 152.05 136.37C152.68 136.06 153.26 135.68 153.76 135.2C154.79 134.19 155.4 132.64 154.95 131.27C154.87 131.01 154.72 130.74 154.46 130.66C154.05 130.53 153.69 130.93 153.4 131.25C152.45 132.29 151.57 132.73 150.17 132.57C149.3 132.47 148.46 132.27 147.78 131.83C147.75 131.8 147.73 131.77 147.7 131.74C147.38 131.4 147.06 131.07 146.75 130.75C144.4 128.37 142.37 126.71 140.28 125.84C137.21 124.56 132.05 124 128.83 124.81C125.6 125.62 122.68 128.19 122.2 131.49C120.41 129.94 117.7 129.93 115.5 130.78L115.45 130.76C112.99 131.6 111.57 134.17 110.82 136.66C110.78 136.8 110.74 136.93 110.7 137.07C109.86 138.37 108.72 139.48 107.37 140.25C107.13 140.38 106.86 140.55 106.83 140.82C106.8 141.09 107.02 141.32 107.24 141.48C107.82 141.91 108.5 142.19 109.21 142.33C108.98 142.92 108.71 143.49 108.38 144.04C108.1 144.5 107.76 145.06 108 145.55C108.18 145.93 108.66 146.09 109.08 146.03C109.5 145.97 109.87 145.75 110.23 145.53C109.95 146.18 109.67 146.83 109.39 147.48C110.27 147.64 111.19 147.58 112.05 147.33C112.54 149.67 112.89 154 113.47 155.59C115.15 155.64 115.56 155.46 116.4 155.75C117.49 156.13 117.05 158.06 118.48 157.52C119.21 157.25 120.35 154.51 120.6 153.78C122.27 148.9 122.86 143.65 122.34 138.52C123.37 137.45 124.6 136.58 125.95 135.98L125.84 136.08C128.43 135.21 131.37 134.36 133.81 135.6C135.7 136.56 136.8 138.55 138.2 140.14C140.86 143.16 143.89 144.78 147.91 145C148.24 147.79 148.3 152.36 148.4 154.96L150.68 149.77V149.79C150.86 149.49 151.02 149.18 151.16 148.87L151.21 148.78C151.44 148.28 151.67 147.78 151.96 147.3C151.96 147.3 151.98 147.31 151.98 147.32C153.38 148.58 155.48 146.7 154.38 145.17C154.16 144.87 153.9 144.6 153.6 144.37C154.24 144.98 155.2 145.28 156.04 145.03C156.89 144.78 157.55 143.93 157.49 143.05C157.45 142.45 157.02 141.9 156.48 141.66C157.62 141.76 158.79 141.53 159.79 140.97C160.45 140.61 161.09 140 160.88 139.18H160.87Z" fill="#263238"/>
<path d="M125.08 132.57C125.08 132.57 124.69 132.81 124.14 133.41C123.6 134.01 122.99 135.04 122.69 136.47C122.54 137.18 122.44 137.97 122.43 138.82C122.42 139.67 122.47 140.58 122.53 141.55C122.58 142.51 122.64 143.53 122.56 144.58C122.52 145.11 122.45 145.64 122.33 146.18C122.21 146.71 122.06 147.28 121.66 147.72C121.34 148.09 120.81 148.24 120.35 148.14C119.89 148.05 119.48 147.8 119.18 147.46C118.59 146.76 118.45 145.88 118.32 145.1L118.51 145.13C118.18 145.82 117.85 146.51 117.36 147.06C116.88 147.61 116.22 147.97 115.55 148.02C115.22 148.05 114.88 147.99 114.6 147.84C114.31 147.69 114.1 147.45 113.96 147.19C113.82 146.93 113.76 146.64 113.77 146.37C113.79 146.1 113.9 145.84 114.08 145.65L114.18 145.74C113.46 146.54 112.7 146.97 112.18 147.21C111.92 147.33 111.7 147.4 111.56 147.44C111.42 147.48 111.34 147.5 111.34 147.49C111.34 147.49 111.41 147.46 111.55 147.4C111.69 147.35 111.89 147.26 112.15 147.14C112.66 146.89 113.39 146.45 114.09 145.65L114.19 145.74C113.88 146.07 113.85 146.65 114.11 147.11C114.24 147.34 114.43 147.56 114.69 147.68C114.94 147.81 115.25 147.86 115.55 147.83C116.16 147.78 116.78 147.44 117.23 146.92C117.69 146.4 118.01 145.73 118.34 145.04L118.48 144.75L118.54 145.07C118.68 145.85 118.83 146.69 119.36 147.33C119.63 147.63 120 147.86 120.4 147.94C120.8 148.02 121.23 147.89 121.51 147.58C121.86 147.19 122.01 146.65 122.13 146.13C122.25 145.61 122.32 145.08 122.36 144.57C122.44 143.53 122.38 142.52 122.34 141.56C122.29 140.6 122.24 139.68 122.26 138.82C122.28 137.96 122.39 137.16 122.55 136.44C122.87 135 123.52 133.95 124.09 133.36C124.67 132.77 125.09 132.58 125.09 132.58L125.08 132.57Z" fill="#455A64"/>
<path d="M153.59 141.89C153.59 141.89 153.57 141.91 153.52 141.95C153.46 141.99 153.38 142.05 153.29 142.12C153.19 142.19 153.06 142.28 152.9 142.37C152.74 142.46 152.56 142.57 152.33 142.66C151.47 143.06 150.08 143.45 148.36 143.33C146.66 143.21 144.61 142.59 142.8 141.21C140.97 139.86 139.37 137.88 138.07 135.63C137.41 134.5 136.87 133.35 136.28 132.28C135.69 131.21 135.04 130.22 134.25 129.44C133.47 128.65 132.55 128.07 131.6 127.79C131.13 127.64 130.65 127.61 130.2 127.61C129.74 127.63 129.31 127.72 128.91 127.84C128.11 128.1 127.46 128.53 126.97 128.98C126.47 129.43 126.14 129.91 125.91 130.32C125.48 131.17 125.45 131.71 125.42 131.7C125.42 131.7 125.42 131.67 125.42 131.6C125.43 131.52 125.45 131.43 125.47 131.32C125.52 131.07 125.63 130.72 125.83 130.28C126.05 129.86 126.38 129.36 126.88 128.89C127.38 128.42 128.03 127.97 128.86 127.69C129.27 127.56 129.72 127.46 130.19 127.44C130.66 127.43 131.16 127.46 131.65 127.61C132.63 127.89 133.58 128.49 134.39 129.29C135.21 130.09 135.87 131.09 136.47 132.17C137.07 133.24 137.61 134.4 138.26 135.51C139.55 137.75 141.13 139.7 142.92 141.04C144.7 142.41 146.69 143.04 148.37 143.17C150.06 143.31 151.43 142.95 152.29 142.58C153.16 142.2 153.58 141.87 153.59 141.89Z" fill="#455A64"/>
<path d="M154.48 137.84C154.48 137.84 154.37 137.93 154.15 138.07C153.93 138.21 153.59 138.38 153.16 138.56C152.73 138.74 152.2 138.91 151.6 139.05C151 139.18 150.32 139.27 149.61 139.29C148.9 139.3 148.22 139.24 147.61 139.13C147 139.01 146.47 138.87 146.03 138.7C145.59 138.54 145.25 138.38 145.02 138.25C144.79 138.13 144.67 138.05 144.68 138.04C144.7 138 145.21 138.27 146.08 138.55C146.52 138.69 147.05 138.82 147.64 138.93C148.24 139.02 148.9 139.08 149.6 139.07C150.3 139.05 150.96 138.97 151.55 138.85C152.14 138.72 152.67 138.57 153.1 138.41C153.96 138.09 154.46 137.8 154.48 137.84Z" fill="#455A64"/>
<path d="M152.69 431.19L151.77 447.24C151.77 447.24 168.53 453.52 168.66 456.5L136.04 455.91L136.4 430.85L152.69 431.19Z" fill="#263238"/>
<path d="M141.71 445.71C141.08 445.86 140.63 446.53 140.76 447.15C140.89 447.76 141.6 448.21 142.24 448.06C142.88 447.92 143.44 447.13 143.24 446.53C143.03 445.94 142.17 445.46 141.59 445.74" fill="#E0E0E0"/>
<path d="M136.04 455.91L136.18 453.39L167.4 454.9C167.4 454.9 168.84 455.53 168.66 456.5L136.04 455.91Z" fill="#455A64"/>
<path d="M152.301 447.09C152.301 447.24 151.49 447.3 150.7 447.77C149.89 448.23 149.481 448.88 149.331 448.81C149.181 448.78 149.441 447.87 150.411 447.31C151.381 446.74 152.331 446.94 152.301 447.08V447.09Z" fill="white"/>
<path d="M155.69 448.5C155.72 448.65 155.03 448.89 154.47 449.53C153.9 450.15 153.75 450.84 153.59 450.83C153.44 450.85 153.35 449.96 154.05 449.18C154.75 448.4 155.69 448.35 155.69 448.5Z" fill="white"/>
<path d="M157.56 452.45C157.41 452.48 157.21 451.72 157.63 450.89C158.05 450.06 158.81 449.75 158.87 449.87C158.96 450 158.47 450.44 158.13 451.12C157.77 451.8 157.72 452.44 157.56 452.45Z" fill="white"/>
<path d="M152.08 443.41C152.01 443.55 151.28 443.32 150.38 443.37C149.48 443.39 148.77 443.67 148.69 443.54C148.6 443.43 149.3 442.88 150.36 442.84C151.42 442.8 152.16 443.29 152.08 443.41Z" fill="white"/>
<path d="M94.97 431.19L95.89 447.24C95.89 447.24 79.13 453.52 79 456.5L111.62 455.91L111.26 430.85L94.97 431.19Z" fill="#263238"/>
<path d="M105.95 445.71C106.58 445.86 107.03 446.53 106.9 447.15C106.77 447.76 106.06 448.21 105.42 448.06C104.78 447.92 104.22 447.13 104.42 446.53C104.63 445.94 105.49 445.46 106.07 445.74" fill="#E0E0E0"/>
<path d="M111.62 455.91L111.48 453.39L80.2599 454.9C80.2599 454.9 78.8199 455.53 78.9999 456.5L111.62 455.91Z" fill="#455A64"/>
<path d="M95.3601 447.09C95.3601 447.24 96.1701 447.3 96.9601 447.77C97.7701 448.23 98.1801 448.88 98.3301 448.81C98.4801 448.78 98.2201 447.87 97.2501 447.31C96.2801 446.74 95.3301 446.94 95.3601 447.08V447.09Z" fill="white"/>
<path d="M91.9697 448.5C91.9397 448.65 92.6297 448.89 93.1897 449.53C93.7597 450.15 93.9097 450.84 94.0697 450.83C94.2197 450.85 94.3097 449.96 93.6097 449.18C92.9097 448.4 91.9697 448.35 91.9697 448.5Z" fill="white"/>
<path d="M90.1001 452.45C90.2501 452.48 90.4501 451.72 90.0301 450.89C89.6101 450.06 88.8501 449.75 88.7901 449.87C88.7001 450 89.1901 450.44 89.5301 451.12C89.8901 451.8 89.9401 452.44 90.1001 452.45Z" fill="white"/>
<path d="M95.5801 443.41C95.6501 443.55 96.3801 443.32 97.2801 443.37C98.1801 443.39 98.8901 443.67 98.9701 443.54C99.0601 443.43 98.3601 442.88 97.3001 442.84C96.2401 442.8 95.5001 443.29 95.5801 443.41Z" fill="white"/>
<path d="M83.4195 295.36C83.2095 295.86 82.7695 307.58 83.2295 308.43C83.6895 309.28 85.9995 314.87 86.9995 316.01C87.9895 317.16 92.8295 320.04 93.3495 319.3C93.8795 318.56 94.1995 317.08 93.2095 316.45L97.2995 315.79C97.2995 315.79 97.0095 313.83 95.5195 313.51L97.1795 312.51C97.1795 312.51 96.1395 310.76 94.8795 310.97C93.6195 311.18 94.2095 311.35 94.2095 311.35L92.7895 310.17C92.7895 310.17 91.8095 305.8 92.1495 304.62C92.4895 303.44 93.9195 302.12 93.4095 299.63C92.8995 297.14 90.9995 294.81 91.1295 294.13C91.2595 293.45 91.1295 290.6 91.1295 290.6C91.1295 290.6 84.4095 289.44 84.1095 289.46C83.8095 289.48 83.4295 295.35 83.4295 295.35L83.4195 295.36Z" fill="#FFBF9D"/>
<path d="M92.0396 305.13C91.9596 305.14 92.2396 306.38 92.1396 308.38C92.0796 309.37 91.9296 310.58 91.5196 311.81C91.3196 312.4 90.8896 312.98 90.2796 313.11C89.6696 313.26 89.0596 312.76 88.8096 312.1C88.5296 311.44 88.6396 310.71 88.7796 310.01C88.9196 309.31 89.0796 308.58 89.0196 307.88C88.8996 306.48 88.2996 305.38 87.8996 304.46C87.4796 303.55 87.1896 302.79 87.0596 302.25C86.9296 301.71 86.9196 301.39 86.8796 301.4C86.8596 301.4 86.8096 301.72 86.8896 302.29C86.9596 302.86 87.2196 303.66 87.6096 304.59C87.9796 305.53 88.5196 306.62 88.6096 307.91C88.6496 308.55 88.4996 309.21 88.3496 309.93C88.2096 310.63 88.0596 311.48 88.3996 312.27C88.5596 312.66 88.7996 313.02 89.1396 313.27C89.4796 313.53 89.9496 313.63 90.3696 313.54C91.2096 313.34 91.6896 312.6 91.9096 311.95C92.3196 310.63 92.4296 309.42 92.4496 308.4C92.4696 307.38 92.3696 306.55 92.2596 306C92.1596 305.44 92.0596 305.14 92.0296 305.15L92.0396 305.13Z" fill="#FF9A6C"/>
<path d="M89.3704 314.24C89.3104 314.35 90.1104 314.9 91.0904 315.57C92.0804 316.24 92.8904 316.77 92.9704 316.67C93.0504 316.58 92.3504 315.88 91.3404 315.2C90.3404 314.52 89.4204 314.13 89.3704 314.24Z" fill="#FF9A6C"/>
<path d="M88.1201 308.21C88.0601 308.21 87.9401 308.55 87.8401 309.14C87.7401 309.72 87.6301 310.58 87.8801 311.51C88.1501 312.46 88.7501 313.07 89.0001 313.57C89.2801 314.06 89.3101 314.42 89.3801 314.42C89.4301 314.42 89.5201 314.02 89.2801 313.44C89.0701 312.85 88.5301 312.2 88.3101 311.4C88.0801 310.58 88.1301 309.77 88.1501 309.19C88.1801 308.6 88.1801 308.23 88.1201 308.23V308.21Z" fill="#FF9A6C"/>
<path d="M95.2999 313.76C95.3099 313.63 94.2899 313.58 93.1499 313.58C92.6599 313.53 92.2099 313.14 91.8099 313.01C91.3999 312.85 91.1099 312.97 91.1299 313.01C91.1299 313.08 91.3699 313.09 91.6799 313.29C91.8399 313.39 92.0199 313.52 92.2399 313.67C92.4599 313.81 92.7499 313.99 93.0999 314.02C94.3699 314.03 95.2899 313.88 95.2999 313.76Z" fill="#FF9A6C"/>
<path d="M96.78 191.5L94.06 192.33C94.06 192.33 86.86 199.54 85.39 205.47C83.92 211.4 84.24 220.86 85.01 226.08C85.78 231.3 84.17 240.12 84.24 247.57C84.24 247.57 80.67 267.46 83.94 287.22V292.2L91.12 294.15C91.12 294.15 96.54 270.39 96.79 265.04C97.03 259.69 97.35 257.23 97.71 251.13C98.07 245.03 103.04 232.34 102.44 229.36L102.49 219.93C102.49 219.93 101.51 213.09 101.41 206.08C101.3 199.07 96.79 191.51 96.79 191.51" fill="#FFBF9D"/>
<path d="M182.249 291.27C182.509 291.74 184.319 303.33 183.959 304.23C183.609 305.13 181.949 310.94 181.099 312.2C180.249 313.45 175.779 316.88 175.169 316.21C174.559 315.54 174.069 314.1 174.979 313.36L170.839 313.18C170.839 313.18 170.899 311.2 172.339 310.71L170.569 309.91C170.569 309.91 171.399 308.05 172.679 308.11C173.959 308.17 173.389 308.41 173.389 308.41L174.669 307.08C174.669 307.08 175.139 302.62 174.659 301.49C174.179 300.36 172.609 299.21 172.829 296.68C173.049 294.15 174.669 291.61 174.449 290.95C174.239 290.29 174.049 287.44 174.049 287.44C174.049 287.44 180.589 285.5 180.889 285.49C181.189 285.48 182.249 291.26 182.249 291.26V291.27Z" fill="#FFBF9D"/>
<path d="M174.82 301.98C174.9 301.98 174.76 303.24 175.1 305.22C175.27 306.2 175.57 307.38 176.11 308.55C176.38 309.11 176.87 309.64 177.5 309.7C178.13 309.78 178.67 309.21 178.84 308.53C179.04 307.84 178.84 307.13 178.63 306.45C178.41 305.77 178.17 305.07 178.14 304.36C178.1 302.95 178.56 301.79 178.85 300.83C179.16 299.87 179.36 299.09 179.42 298.53C179.48 297.98 179.46 297.66 179.5 297.66C179.52 297.66 179.6 297.97 179.59 298.54C179.59 299.12 179.42 299.94 179.14 300.91C178.88 301.88 178.47 303.04 178.54 304.32C178.57 304.96 178.8 305.6 179.03 306.3C179.25 306.98 179.49 307.81 179.25 308.63C179.14 309.03 178.94 309.42 178.63 309.71C178.32 310.01 177.87 310.17 177.44 310.12C176.58 310.02 176.02 309.34 175.73 308.72C175.17 307.46 174.92 306.27 174.78 305.25C174.64 304.24 174.65 303.41 174.68 302.84C174.72 302.27 174.78 301.96 174.81 301.96L174.82 301.98Z" fill="#FF9A6C"/>
<path d="M178.52 310.72C178.59 310.82 177.86 311.46 176.96 312.24C176.06 313.02 175.31 313.64 175.22 313.56C175.13 313.48 175.74 312.7 176.67 311.91C177.59 311.12 178.45 310.63 178.52 310.73V310.72Z" fill="#FF9A6C"/>
<path d="M179.07 304.58C179.13 304.56 179.28 304.9 179.46 305.47C179.62 306.04 179.83 306.88 179.69 307.83C179.53 308.8 179.01 309.48 178.82 310C178.6 310.52 178.61 310.88 178.54 310.89C178.49 310.91 178.36 310.51 178.52 309.9C178.66 309.29 179.12 308.59 179.25 307.76C179.38 306.92 179.24 306.12 179.15 305.54C179.06 304.96 179.01 304.59 179.07 304.58Z" fill="#FF9A6C"/>
<path d="M172.58 310.93C172.55 310.8 173.57 310.63 174.69 310.5C175.18 310.39 175.57 309.95 175.96 309.78C176.35 309.58 176.65 309.66 176.64 309.71C176.64 309.78 176.41 309.82 176.13 310.05C175.98 310.16 175.82 310.32 175.62 310.49C175.42 310.66 175.15 310.87 174.81 310.94C173.55 311.1 172.62 311.05 172.59 310.94L172.58 310.93Z" fill="#FF9A6C"/>
<path d="M157.55 191.5H159.72C159.72 191.5 166.83 197.57 168.98 203.29C171.13 209.01 172.79 217.36 172.63 222.64C172.47 227.91 175.09 236.48 175.89 243.9C175.89 243.9 181.74 263.24 180.79 283.24L181.38 288.18L174.47 290.96C174.47 290.96 166.32 267.99 165.46 262.71C164.6 257.42 163.99 255.02 162.93 249C161.87 242.98 155.46 230.96 155.7 227.93L154.56 218.57C154.56 218.57 154.73 211.66 154.03 204.68C153.32 197.7 156.59 191.5 156.59 191.5" fill="#FFBF9D"/>
<path d="M168.6 299.69C168.6 299.69 168.58 299.69 168.58 299.68C168.47 297.19 168.24 294.4 167.96 292.35C165.77 293.04 162.48 293.77 160.19 294.21C154.18 295.23 148.04 295.35 141.8 294.84L141.39 294.8C128.77 293.72 115.78 290.09 102.73 286.15L100.78 301.23L96.0003 373.51L92.5303 447.14L113.51 447.65C113.51 447.65 121.71 390.51 122.31 382.67C122.97 373.95 133.27 319.79 133.27 319.79L135.14 319.32L133.99 445.31L134.62 445.28L157.03 444.33C157.03 444.33 168.42 309.85 168.61 305C168.68 303.17 168.67 301.38 168.61 299.68L168.6 299.69Z" fill="#263238"/>
<path d="M165.56 275.11L161.68 251.48L159.72 230.94L177.14 224.88C177.14 224.88 168.66 192.37 160.32 190.87L139.27 184.42C139.27 184.42 139.24 184.48 139.18 184.57C138.7 185.37 136 189.34 129.4 189.48C120.94 189.67 116.46 182.41 116.46 182.41C116.46 182.41 116.44 182.41 116.4 182.43C115.42 182.74 103.71 187.3 98.1302 190.23C96.0802 191.08 90.7402 192.81 87.8002 197.84C83.8202 204.65 79.4102 232.65 79.4102 232.65L101.6 234.79L103.56 256.07L104.66 274.6C104.66 274.6 103.08 277.22 102.87 280.19L101.66 286.49C114.71 290.43 128.77 293.74 141.39 294.83C141.53 294.84 141.67 294.85 141.8 294.87C148.16 295.39 154.43 295.26 160.56 294.18C160.74 294.15 160.93 294.11 161.11 294.07C163.41 293.64 165.7 293.09 167.96 292.38C168.05 292.35 168.15 292.33 168.24 292.3C168.24 292.3 167.73 281.37 166.54 278.39C165.35 275.41 165.57 275.14 165.57 275.14L165.56 275.11ZM100.92 227.42L101.36 232.16C101.11 230.36 100.79 228.2 100.92 227.42Z" fill="#455A64"/>
<path d="M98.1406 204C98.1406 204 98.1506 204.41 98.2506 205.13C98.3706 205.94 98.5206 206.97 98.7006 208.19C99.0806 210.78 99.5806 214.35 100.031 218.31C100.481 222.27 100.791 225.87 100.991 228.47C101.091 229.7 101.171 230.74 101.241 231.56C101.301 232.29 101.351 232.69 101.381 232.69C101.411 232.69 101.421 232.28 101.411 231.55C101.411 230.82 101.371 229.76 101.311 228.45C101.191 225.84 100.931 222.23 100.481 218.26C100.031 214.29 99.4806 210.72 99.0206 208.14C98.7906 206.85 98.5906 205.81 98.4306 205.1C98.2706 204.38 98.1706 203.99 98.1406 204Z" fill="#263238"/>
<path d="M125.581 241.227L141.258 240.208L139.013 205.681L123.336 206.7L125.581 241.227Z" fill="#F5F5F5"/>
<path d="M158.681 202.71C158.821 202.71 159.181 209.29 159.481 217.43C159.781 225.56 159.901 232.16 159.751 232.17C159.611 232.17 159.251 225.59 158.951 217.45C158.651 209.32 158.531 202.72 158.671 202.72L158.681 202.71Z" fill="#263238"/>
<path d="M179.43 456.04H86.36L79.04 298.44H188.61L179.43 456.04Z" fill="#263238"/>
<path d="M197.74 262.19H69.3896V305.52H197.74V262.19Z" fill="#E0E0E0"/>
<path d="M197.74 305.52C197.74 305.52 197.73 305.26 197.72 304.76C197.72 304.25 197.71 303.51 197.7 302.54C197.7 300.58 197.68 297.71 197.66 293.99C197.64 286.55 197.61 275.74 197.57 262.19L197.74 262.36C166.79 262.38 120.73 262.41 69.3999 262.45L69.6599 262.19C69.6599 277.25 69.6599 291.87 69.6599 305.52L69.4099 305.27C106.35 305.32 138.41 305.36 161.24 305.39C172.66 305.42 181.78 305.44 188.05 305.46C191.18 305.47 193.6 305.48 195.25 305.49C196.06 305.49 196.68 305.5 197.12 305.51C197.54 305.51 197.76 305.53 197.76 305.53C197.76 305.53 197.56 305.54 197.15 305.55C196.72 305.55 196.11 305.55 195.31 305.57C193.67 305.57 191.27 305.59 188.17 305.6C181.91 305.62 172.82 305.64 161.42 305.67C138.55 305.7 106.43 305.74 69.4199 305.79H69.1699V305.54C69.1699 291.88 69.1699 277.27 69.1699 262.21V261.95H69.4399C120.76 261.99 166.83 262.02 197.78 262.04H197.95V262.21C197.91 275.81 197.88 286.65 197.86 294.12C197.84 297.82 197.83 300.68 197.82 302.63C197.82 303.58 197.81 304.31 197.8 304.82C197.8 305.31 197.78 305.55 197.78 305.55L197.74 305.52Z" fill="#263238"/>
<path d="M179.57 270.04H86.4902V298.44H179.57V270.04Z" fill="#263238"/>
<path d="M124.879 289.2V292.18H112.919V289.81L119.019 284.05C119.669 283.43 120.099 282.9 120.329 282.46C120.559 282.02 120.669 281.58 120.669 281.14C120.669 280.51 120.459 280.02 120.029 279.68C119.599 279.34 118.969 279.17 118.139 279.17C117.449 279.17 116.819 279.3 116.259 279.57C115.699 279.83 115.239 280.23 114.859 280.76L112.189 279.04C112.809 278.12 113.659 277.4 114.739 276.88C115.829 276.36 117.069 276.1 118.469 276.1C119.649 276.1 120.669 276.29 121.559 276.68C122.439 277.06 123.129 277.61 123.619 278.31C124.109 279.01 124.349 279.84 124.349 280.78C124.349 281.64 124.169 282.45 123.809 283.2C123.449 283.95 122.749 284.81 121.709 285.78L118.069 289.22H124.869L124.879 289.2Z" fill="white"/>
<path d="M136.759 283.64C137.819 284.53 138.349 285.72 138.349 287.21C138.349 288.17 138.109 289.05 137.629 289.84C137.149 290.63 136.409 291.26 135.429 291.74C134.439 292.21 133.229 292.45 131.779 292.45C130.659 292.45 129.569 292.3 128.489 292.01C127.409 291.72 126.499 291.3 125.739 290.76L127.189 287.96C127.789 288.41 128.489 288.76 129.269 289.01C130.049 289.26 130.859 289.38 131.689 289.38C132.609 289.38 133.329 289.2 133.859 288.84C134.389 288.48 134.649 287.97 134.649 287.33C134.649 286.69 134.369 286.14 133.819 285.79C133.269 285.44 132.319 285.27 130.959 285.27H126.909L127.719 276.36H137.369V279.3H130.769L130.519 282.31H131.809C134.039 282.31 135.689 282.75 136.749 283.64H136.759Z" fill="white"/>
<path d="M143.12 291.49C142.1 290.84 141.29 289.9 140.71 288.68C140.13 287.45 139.84 285.99 139.84 284.28C139.84 282.57 140.13 281.11 140.71 279.88C141.29 278.65 142.09 277.71 143.12 277.07C144.14 276.42 145.31 276.1 146.62 276.1C147.93 276.1 149.1 276.42 150.12 277.07C151.14 277.72 151.95 278.66 152.53 279.88C153.11 281.11 153.4 282.57 153.4 284.28C153.4 285.99 153.11 287.45 152.53 288.68C151.95 289.91 151.15 290.85 150.12 291.49C149.09 292.14 147.93 292.46 146.62 292.46C145.31 292.46 144.14 292.14 143.12 291.49ZM148.9 288.12C149.45 287.29 149.73 286.01 149.73 284.28C149.73 282.55 149.46 281.27 148.9 280.44C148.35 279.61 147.59 279.2 146.63 279.2C145.67 279.2 144.93 279.62 144.38 280.44C143.83 281.27 143.55 282.55 143.55 284.28C143.55 286.01 143.82 287.29 144.38 288.12C144.93 288.95 145.68 289.36 146.63 289.36C147.58 289.36 148.35 288.95 148.9 288.12Z" fill="white"/>
<path d="M133.31 251.89C127.62 251.89 123.01 256.5 123.01 262.19H143.6C143.6 256.5 138.99 251.89 133.3 251.89H133.31Z" fill="#263238"/>
<path d="M146.44 260.3H120.6V262.19H146.44V260.3Z" fill="#263238"/>
<g opacity="0.3">
<path d="M83.0703 385.27L187.01 325.95L185.03 355.61L84.3903 413.57L83.0703 385.27Z" fill="white"/>
</g>
<g filter="url(#filter0_f_118_1423)">
<ellipse cx="391" cy="460.5" rx="336" ry="12.5" fill="#263238"/>
</g>
<defs>
<filter id="filter0_f_118_1423" x="0" y="393" width="782" height="135" filterUnits="userSpaceOnUse" color-interpolation-filters="sRGB">
<feFlood flood-opacity="0" result="BackgroundImageFix"/>
<feBlend mode="normal" in="SourceGraphic" in2="BackgroundImageFix" result="shape"/>
<feGaussianBlur stdDeviation="27.5" result="effect1_foregroundBlur_118_1423"/>
</filter>
</defs>
</svg>
